<svg xmlns="http://www.w3.org/2000/svg" width="1200" height="760" viewBox="0 0 1200 760">
<rect width="100%" height="100%" fill="#fcfcfc"/>
<text x="48" y="58" font-size="30" font-weight="700" fill="#111111">最高倍数分布</text>
<text x="48" y="96" font-size="18" fill="#555555">统计每个币历史最高候选倍数落在哪个区间</text>
<line x1="120" y1="110.00" x2="1130" y2="110.00" stroke="#dddddd" stroke-dasharray="4 4"/>
<text x="102" y="116.00" font-size="14" fill="#666666" text-anchor="end">88</text>
<line x1="120" y1="218.00" x2="1130" y2="218.00" stroke="#dddddd" stroke-dasharray="4 4"/>
<text x="102" y="224.00" font-size="14" fill="#666666" text-anchor="end">70</text>
<line x1="120" y1="326.00" x2="1130" y2="326.00" stroke="#dddddd" stroke-dasharray="4 4"/>
<text x="102" y="332.00" font-size="14" fill="#666666" text-anchor="end">53</text>
<line x1="120" y1="434.00" x2="1130" y2="434.00" stroke="#dddddd" stroke-dasharray="4 4"/>
<text x="102" y="440.00" font-size="14" fill="#666666" text-anchor="end">35</text>
<line x1="120" y1="542.00" x2="1130" y2="542.00" stroke="#dddddd" stroke-dasharray="4 4"/>
<text x="102" y="548.00" font-size="14" fill="#666666" text-anchor="end">18</text>
<line x1="120" y1="650.00" x2="1130" y2="650.00" stroke="#dddddd" stroke-dasharray="4 4"/>
<text x="102" y="656.00" font-size="14" fill="#666666" text-anchor="end">0</text>
<rect x="151.98" y="545.68" width="104.37" height="104.32" rx="10" fill="#95a5a6"/>
<text x="204.17" y="533.68" font-size="18" fill="#222222" text-anchor="middle">17</text>
<text x="204.17" y="716" font-size="18" fill="#555555" text-anchor="middle"><2x</text>
<rect x="320.32" y="404.55" width="104.37" height="245.45" rx="10" fill="#5dade2"/>
<text x="372.50" y="392.55" font-size="18" fill="#222222" text-anchor="middle">40</text>
<text x="372.50" y="716" font-size="18" fill="#555555" text-anchor="middle">2-4x</text>
<rect x="488.65" y="110.00" width="104.37" height="540.00" rx="10" fill="#48c9b0"/>
<text x="540.83" y="98.00" font-size="18" fill="#222222" text-anchor="middle">88</text>
<text x="540.83" y="716" font-size="18" fill="#555555" text-anchor="middle">4-6x</text>
<rect x="656.98" y="281.82" width="104.37" height="368.18" rx="10" fill="#f5b041"/>
<text x="709.17" y="269.82" font-size="18" fill="#222222" text-anchor="middle">60</text>
<text x="709.17" y="716" font-size="18" fill="#555555" text-anchor="middle">6-8x</text>
<rect x="825.32" y="422.95" width="104.37" height="227.05" rx="10" fill="#eb984e"/>
<text x="877.50" y="410.95" font-size="18" fill="#222222" text-anchor="middle">37</text>
<text x="877.50" y="716" font-size="18" fill="#555555" text-anchor="middle">8-10x</text>
<rect x="993.65" y="324.77" width="104.37" height="325.23" rx="10" fill="#e74c3c"/>
<text x="1045.83" y="312.77" font-size="18" fill="#222222" text-anchor="middle">53</text>
<text x="1045.83" y="716" font-size="18" fill="#555555" text-anchor="middle">>=10x</text>
</svg>