<svg xmlns="http://www.w3.org/2000/svg" width="1500" height="740" viewBox="0 0 1500 740">
<rect width="100%" height="100%" fill="#fcfcfc"/>
<text x="48" y="58" font-size="30" font-weight="700" fill="#111111">第二根最高价相对10倍价 Top 10</text>
<text x="48" y="96" font-size="18" fill="#555555">统计10倍命中后第二根K线最高价，相对10倍价是上涨还是回落</text>
<line x1="860.00" y1="110" x2="860.00" y2="710" stroke="#999999" stroke-dasharray="4 4"/>
<text x="320" y="152" font-size="17" fill="#111111" text-anchor="end">SOON-USDT-SWAP 2025-11-15 00:00:00</text>
<rect x="340" y="130" width="1040.00" height="30" rx="8" fill="#efefef"/>
<rect x="860.00" y="130" width="490.00" height="30" rx="8" fill="#27ae60"/>
<text x="1360.00" y="152" font-size="16" fill="#333333">1.693x (69.33%)</text>
<text x="320" y="204" font-size="17" fill="#111111" text-anchor="end">LRC-USDT-SWAP 2021-08-22 20:00:00</text>
<rect x="340" y="182" width="1040.00" height="30" rx="8" fill="#efefef"/>
<rect x="860.00" y="182" width="243.27" height="30" rx="8" fill="#27ae60"/>
<text x="1113.27" y="204" font-size="16" fill="#333333">1.344x (34.42%)</text>
<text x="320" y="256" font-size="17" fill="#111111" text-anchor="end">API3-USDT-SWAP 2024-01-28 00:00:00</text>
<rect x="340" y="234" width="1040.00" height="30" rx="8" fill="#efefef"/>
<rect x="860.00" y="234" width="215.13" height="30" rx="8" fill="#27ae60"/>
<text x="1085.13" y="256" font-size="16" fill="#333333">1.304x (30.44%)</text>
<text x="320" y="308" font-size="17" fill="#111111" text-anchor="end">LUNA-USDT-SWAP 2024-03-05 20:00:00</text>
<rect x="340" y="286" width="1040.00" height="30" rx="8" fill="#efefef"/>
<rect x="860.00" y="286" width="201.60" height="30" rx="8" fill="#27ae60"/>
<text x="1071.60" y="308" font-size="16" fill="#333333">1.285x (28.52%)</text>
<text x="320" y="360" font-size="17" fill="#111111" text-anchor="end">CFX-USDT-SWAP 2021-09-19 00:00:00</text>
<rect x="340" y="338" width="1040.00" height="30" rx="8" fill="#efefef"/>
<rect x="860.00" y="338" width="189.73" height="30" rx="8" fill="#27ae60"/>
<text x="1059.73" y="360" font-size="16" fill="#333333">1.268x (26.84%)</text>
<text x="320" y="412" font-size="17" fill="#111111" text-anchor="end">EGLD-USDT-SWAP 2023-11-05 08:00:00</text>
<rect x="340" y="390" width="1040.00" height="30" rx="8" fill="#efefef"/>
<rect x="860.00" y="390" width="136.49" height="30" rx="8" fill="#27ae60"/>
<text x="1006.49" y="412" font-size="16" fill="#333333">1.193x (19.31%)</text>
<text x="320" y="464" font-size="17" fill="#111111" text-anchor="end">LA-USDT-SWAP 2026-02-07 08:00:00</text>
<rect x="340" y="442" width="1040.00" height="30" rx="8" fill="#efefef"/>
<rect x="860.00" y="442" width="133.24" height="30" rx="8" fill="#27ae60"/>
<text x="1003.24" y="464" font-size="16" fill="#333333">1.189x (18.85%)</text>
<text x="320" y="516" font-size="17" fill="#111111" text-anchor="end">ZETA-USDT-SWAP 2025-03-22 08:00:00</text>
<rect x="340" y="494" width="1040.00" height="30" rx="8" fill="#efefef"/>
<rect x="860.00" y="494" width="127.54" height="30" rx="8" fill="#27ae60"/>
<text x="997.54" y="516" font-size="16" fill="#333333">1.180x (18.05%)</text>
<text x="320" y="568" font-size="17" fill="#111111" text-anchor="end">WCT-USDT-SWAP 2025-12-30 16:00:00</text>
<rect x="340" y="546" width="1040.00" height="30" rx="8" fill="#efefef"/>
<rect x="860.00" y="546" width="104.81" height="30" rx="8" fill="#27ae60"/>
<text x="974.81" y="568" font-size="16" fill="#333333">1.148x (14.83%)</text>
<text x="320" y="620" font-size="17" fill="#111111" text-anchor="end">RLS-USDT-SWAP 2026-02-02 20:00:00</text>
<rect x="340" y="598" width="1040.00" height="30" rx="8" fill="#efefef"/>
<rect x="860.00" y="598" width="96.40" height="30" rx="8" fill="#27ae60"/>
<text x="966.40" y="620" font-size="16" fill="#333333">1.136x (13.64%)</text>
</svg>