<svg xmlns="http://www.w3.org/2000/svg" width="1500" height="740" viewBox="0 0 1500 740">
<rect width="100%" height="100%" fill="#fcfcfc"/>
<text x="48" y="58" font-size="30" font-weight="700" fill="#111111">成交量倍数 Top 10</text>
<text x="48" y="96" font-size="18" fill="#555555">按10倍命中事件的成交量倍数排序</text>
<text x="312" y="152" font-size="18" fill="#111111" text-anchor="end">UMA-USDT-SWAP 2026-02-16 20:00:00</text>
<rect x="330" y="130" width="1050.00" height="30" rx="8" fill="#efefef"/>
<rect x="330" y="130" width="1050.00" height="30" rx="8" fill="#9b59b6"/>
<text x="1392.00" y="152" font-size="17" fill="#333333">696.45x | 倍数 15.07x</text>
<text x="312" y="204" font-size="18" fill="#111111" text-anchor="end">QTUM-USDT-SWAP 2025-01-31 20:00:00</text>
<rect x="330" y="182" width="1050.00" height="30" rx="8" fill="#efefef"/>
<rect x="330" y="182" width="348.88" height="30" rx="8" fill="#9b59b6"/>
<text x="690.88" y="204" font-size="17" fill="#333333">231.40x | 倍数 12.47x</text>
<text x="312" y="256" font-size="18" fill="#111111" text-anchor="end">YGG-USDT-SWAP 2026-02-21 08:00:00</text>
<rect x="330" y="234" width="1050.00" height="30" rx="8" fill="#efefef"/>
<rect x="330" y="234" width="288.59" height="30" rx="8" fill="#9b59b6"/>
<text x="630.59" y="256" font-size="17" fill="#333333">191.42x | 倍数 15.92x</text>
<text x="312" y="308" font-size="18" fill="#111111" text-anchor="end">MMT-USDT-SWAP 2026-03-12 08:00:00</text>
<rect x="330" y="286" width="1050.00" height="30" rx="8" fill="#efefef"/>
<rect x="330" y="286" width="280.61" height="30" rx="8" fill="#9b59b6"/>
<text x="622.61" y="308" font-size="17" fill="#333333">186.12x | 倍数 14.42x</text>
<text x="312" y="360" font-size="18" fill="#111111" text-anchor="end">UMA-USDT-SWAP 2025-06-06 20:00:00</text>
<rect x="330" y="338" width="1050.00" height="30" rx="8" fill="#efefef"/>
<rect x="330" y="338" width="268.07" height="30" rx="8" fill="#9b59b6"/>
<text x="610.07" y="360" font-size="17" fill="#333333">177.80x | 倍数 17.79x</text>
<text x="312" y="412" font-size="18" fill="#111111" text-anchor="end">RAY-USDT-SWAP 2026-04-26 08:00:00</text>
<rect x="330" y="390" width="1050.00" height="30" rx="8" fill="#efefef"/>
<rect x="330" y="390" width="251.70" height="30" rx="8" fill="#9b59b6"/>
<text x="593.70" y="412" font-size="17" fill="#333333">166.95x | 倍数 10.91x</text>
<text x="312" y="464" font-size="18" fill="#111111" text-anchor="end">EGLD-USDT-SWAP 2023-11-05 08:00:00</text>
<rect x="330" y="442" width="1050.00" height="30" rx="8" fill="#efefef"/>
<rect x="330" y="442" width="218.32" height="30" rx="8" fill="#9b59b6"/>
<text x="560.32" y="464" font-size="17" fill="#333333">144.81x | 倍数 11.18x</text>
<text x="312" y="516" font-size="18" fill="#111111" text-anchor="end">LPT-USDT-SWAP 2026-04-10 20:00:00</text>
<rect x="330" y="494" width="1050.00" height="30" rx="8" fill="#efefef"/>
<rect x="330" y="494" width="204.30" height="30" rx="8" fill="#9b59b6"/>
<text x="546.30" y="516" font-size="17" fill="#333333">135.51x | 倍数 19.28x</text>
<text x="312" y="568" font-size="18" fill="#111111" text-anchor="end">TRB-USDT-SWAP 2022-06-08 04:00:00</text>
<rect x="330" y="546" width="1050.00" height="30" rx="8" fill="#efefef"/>
<rect x="330" y="546" width="195.34" height="30" rx="8" fill="#9b59b6"/>
<text x="537.34" y="568" font-size="17" fill="#333333">129.56x | 倍数 18.27x</text>
<text x="312" y="620" font-size="18" fill="#111111" text-anchor="end">IMX-USDT-SWAP 2023-09-21 08:00:00</text>
<rect x="330" y="598" width="1050.00" height="30" rx="8" fill="#efefef"/>
<rect x="330" y="598" width="180.34" height="30" rx="8" fill="#9b59b6"/>
<text x="522.34" y="620" font-size="17" fill="#333333">119.62x | 倍数 10.14x</text>
</svg>