<svg xmlns="http://www.w3.org/2000/svg" width="1400" height="760" viewBox="0 0 1400 760">
<rect width="100%" height="100%" fill="#fcfcfc"/>
<text x="90" y="36" font-size="26" font-weight="700" fill="#111111">APE-USDT-SWAP 4H - 9倍命中</text>
<line x1="90" y1="70.00" x2="1360" y2="70.00" stroke="#d9d9d9" stroke-dasharray="4 4" stroke-width="1"/>
<text x="12" y="74.00" font-size="12" fill="#555555">4.732300</text>
<line x1="90" y1="186.00" x2="1360" y2="186.00" stroke="#d9d9d9" stroke-dasharray="4 4" stroke-width="1"/>
<text x="12" y="190.00" font-size="12" fill="#555555">4.617440</text>
<line x1="90" y1="302.00" x2="1360" y2="302.00" stroke="#d9d9d9" stroke-dasharray="4 4" stroke-width="1"/>
<text x="12" y="306.00" font-size="12" fill="#555555">4.502580</text>
<line x1="90" y1="418.00" x2="1360" y2="418.00" stroke="#d9d9d9" stroke-dasharray="4 4" stroke-width="1"/>
<text x="12" y="422.00" font-size="12" fill="#555555">4.387720</text>
<line x1="90" y1="534.00" x2="1360" y2="534.00" stroke="#d9d9d9" stroke-dasharray="4 4" stroke-width="1"/>
<text x="12" y="538.00" font-size="12" fill="#555555">4.272860</text>
<line x1="90" y1="650.00" x2="1360" y2="650.00" stroke="#d9d9d9" stroke-dasharray="4 4" stroke-width="1"/>
<text x="12" y="654.00" font-size="12" fill="#555555">4.158000</text>
<rect x="687.65" y="70" width="74.71" height="580.00" fill="#f1c40f" opacity="0.16"/>
<rect x="612.94" y="70" width="74.71" height="580.00" fill="#3498db" opacity="0.10"/>
<line x1="127.35" y1="453.27" x2="127.35" y2="515.38" stroke="#2ecc71" stroke-width="2"/>
<rect x="105.69" y="471.34" width="43.33" height="8.58" fill="#2ecc71" stroke="#2ecc71" stroke-width="1"/>
<text x="127.35" y="704" font-size="11" fill="#555555" text-anchor="middle">04-11</text>
<text x="127.35" y="720" font-size="11" fill="#555555" text-anchor="middle">08:00</text>
<line x1="202.06" y1="427.51" x2="202.06" y2="485.18" stroke="#2ecc71" stroke-width="2"/>
<rect x="180.39" y="463.97" width="43.33" height="6.97" fill="#2ecc71" stroke="#2ecc71" stroke-width="1"/>
<text x="202.06" y="704" font-size="11" fill="#555555" text-anchor="middle">04-11</text>
<text x="202.06" y="720" font-size="11" fill="#555555" text-anchor="middle">12:00</text>
<line x1="276.76" y1="459.93" x2="276.76" y2="499.52" stroke="#e74c3c" stroke-width="2"/>
<rect x="255.10" y="463.97" width="43.33" height="7.37" fill="#e74c3c" stroke="#e74c3c" stroke-width="1"/>
<text x="276.76" y="704" font-size="11" fill="#555555" text-anchor="middle">04-11</text>
<text x="276.76" y="720" font-size="11" fill="#555555" text-anchor="middle">16:00</text>
<line x1="351.47" y1="433.27" x2="351.47" y2="492.55" stroke="#2ecc71" stroke-width="2"/>
<rect x="329.81" y="442.16" width="43.33" height="29.89" fill="#2ecc71" stroke="#2ecc71" stroke-width="1"/>
<text x="351.47" y="704" font-size="11" fill="#555555" text-anchor="middle">04-11</text>
<text x="351.47" y="720" font-size="11" fill="#555555" text-anchor="middle">20:00</text>
<line x1="426.18" y1="403.88" x2="426.18" y2="483.87" stroke="#e74c3c" stroke-width="2"/>
<rect x="404.51" y="441.65" width="43.33" height="8.89" fill="#e74c3c" stroke="#e74c3c" stroke-width="1"/>
<text x="426.18" y="704" font-size="11" fill="#555555" text-anchor="middle">04-12</text>
<text x="426.18" y="720" font-size="11" fill="#555555" text-anchor="middle">00:00</text>
<line x1="500.88" y1="439.43" x2="500.88" y2="488.61" stroke="#e74c3c" stroke-width="2"/>
<rect x="479.22" y="451.15" width="43.33" height="16.97" fill="#e74c3c" stroke="#e74c3c" stroke-width="1"/>
<text x="500.88" y="704" font-size="11" fill="#555555" text-anchor="middle">04-12</text>
<text x="500.88" y="720" font-size="11" fill="#555555" text-anchor="middle">04:00</text>
<line x1="575.59" y1="455.29" x2="575.59" y2="650.00" stroke="#e74c3c" stroke-width="2"/>
<rect x="553.92" y="468.21" width="43.33" height="144.82" fill="#e74c3c" stroke="#e74c3c" stroke-width="1"/>
<text x="575.59" y="704" font-size="11" fill="#555555" text-anchor="middle">04-12</text>
<text x="575.59" y="720" font-size="11" fill="#555555" text-anchor="middle">08:00</text>
<line x1="650.29" y1="563.95" x2="650.29" y2="620.01" stroke="#2ecc71" stroke-width="2"/>
<rect x="628.63" y="570.01" width="43.33" height="43.63" fill="#2ecc71" stroke="#2ecc71" stroke-width="1"/>
<text x="650.29" y="704" font-size="11" fill="#555555" text-anchor="middle">04-12</text>
<text x="650.29" y="720" font-size="11" fill="#555555" text-anchor="middle">12:00</text>
<line x1="725.00" y1="70.00" x2="725.00" y2="592.43" stroke="#2ecc71" stroke-width="2"/>
<rect x="703.34" y="393.58" width="43.33" height="173.91" fill="#2ecc71" stroke="#2ecc71" stroke-width="1"/>
<text x="725.00" y="704" font-size="11" fill="#555555" text-anchor="middle">04-12</text>
<text x="725.00" y="720" font-size="11" fill="#555555" text-anchor="middle">16:00</text>
<line x1="799.71" y1="221.29" x2="799.71" y2="485.08" stroke="#2ecc71" stroke-width="2"/>
<rect x="778.04" y="329.65" width="43.33" height="64.13" fill="#2ecc71" stroke="#2ecc71" stroke-width="1"/>
<text x="799.71" y="704" font-size="11" fill="#555555" text-anchor="middle">04-12</text>
<text x="799.71" y="720" font-size="11" fill="#555555" text-anchor="middle">20:00</text>
<line x1="874.41" y1="306.02" x2="874.41" y2="537.70" stroke="#e74c3c" stroke-width="2"/>
<rect x="852.75" y="330.06" width="43.33" height="161.59" fill="#e74c3c" stroke="#e74c3c" stroke-width="1"/>
<text x="874.41" y="704" font-size="11" fill="#555555" text-anchor="middle">04-13</text>
<text x="874.41" y="720" font-size="11" fill="#555555" text-anchor="middle">00:00</text>
<line x1="949.12" y1="306.22" x2="949.12" y2="508.81" stroke="#2ecc71" stroke-width="2"/>
<rect x="927.45" y="307.33" width="43.33" height="184.11" fill="#2ecc71" stroke="#2ecc71" stroke-width="1"/>
<text x="949.12" y="704" font-size="11" fill="#555555" text-anchor="middle">04-13</text>
<text x="949.12" y="720" font-size="11" fill="#555555" text-anchor="middle">04:00</text>
<line x1="1023.82" y1="293.40" x2="1023.82" y2="393.28" stroke="#e74c3c" stroke-width="2"/>
<rect x="1002.16" y="307.33" width="43.33" height="41.41" fill="#e74c3c" stroke="#e74c3c" stroke-width="1"/>
<text x="1023.82" y="704" font-size="11" fill="#555555" text-anchor="middle">04-13</text>
<text x="1023.82" y="720" font-size="11" fill="#555555" text-anchor="middle">08:00</text>
<line x1="1098.53" y1="325.61" x2="1098.53" y2="394.59" stroke="#e74c3c" stroke-width="2"/>
<rect x="1076.86" y="348.64" width="43.33" height="21.41" fill="#e74c3c" stroke="#e74c3c" stroke-width="1"/>
<text x="1098.53" y="704" font-size="11" fill="#555555" text-anchor="middle">04-13</text>
<text x="1098.53" y="720" font-size="11" fill="#555555" text-anchor="middle">12:00</text>
<line x1="1173.24" y1="300.26" x2="1173.24" y2="380.25" stroke="#2ecc71" stroke-width="2"/>
<rect x="1151.57" y="343.08" width="43.33" height="27.67" fill="#2ecc71" stroke="#2ecc71" stroke-width="1"/>
<text x="1173.24" y="704" font-size="11" fill="#555555" text-anchor="middle">04-13</text>
<text x="1173.24" y="720" font-size="11" fill="#555555" text-anchor="middle">16:00</text>
<line x1="1247.94" y1="256.43" x2="1247.94" y2="343.99" stroke="#2ecc71" stroke-width="2"/>
<rect x="1226.28" y="303.70" width="43.33" height="39.39" fill="#2ecc71" stroke="#2ecc71" stroke-width="1"/>
<text x="1247.94" y="704" font-size="11" fill="#555555" text-anchor="middle">04-13</text>
<text x="1247.94" y="720" font-size="11" fill="#555555" text-anchor="middle">20:00</text>
<line x1="1322.65" y1="295.01" x2="1322.65" y2="339.25" stroke="#e74c3c" stroke-width="2"/>
<rect x="1300.98" y="304.00" width="43.33" height="15.45" fill="#e74c3c" stroke="#e74c3c" stroke-width="1"/>
<text x="1322.65" y="704" font-size="11" fill="#555555" text-anchor="middle">04-14</text>
<text x="1322.65" y="720" font-size="11" fill="#555555" text-anchor="middle">00:00</text>
<line x1="725.00" y1="70.00" x2="805.00" y2="90.00" stroke="#f1c40f" stroke-width="2"/>
<rect x="805.00" y="42.00" width="220" height="72" rx="8" fill="#fff8dc" stroke="#f1c40f"/>
<text x="815.00" y="66.00" font-size="12" fill="#111111">目标K线 2023-04-12 16:00</text>
<text x="815.00" y="84.00" font-size="12" fill="#111111">振幅 12.20%</text>
<text x="815.00" y="102.00" font-size="12" fill="#111111">倍数 9.22x</text>
<line x1="650.29" y1="563.95" x2="620.29" y2="523.95" stroke="#3498db" stroke-width="2"/>
<rect x="400.29" y="487.95" width="220" height="58" rx="8" fill="#eef6ff" stroke="#3498db"/>
<text x="410.29" y="509.95" font-size="12" fill="#111111">前一根涨幅 1.03%</text>
<text x="410.29" y="527.95" font-size="12" fill="#111111">前一根振幅 1.32%</text>
</svg>