<svg xmlns="http://www.w3.org/2000/svg" width="1400" height="760" viewBox="0 0 1400 760">
<rect width="100%" height="100%" fill="#fcfcfc"/>
<text x="90" y="36" font-size="26" font-weight="700" fill="#111111">API3-USDT-SWAP 4H - 9倍命中</text>
<line x1="90" y1="70.00" x2="1360" y2="70.00" stroke="#d9d9d9" stroke-dasharray="4 4" stroke-width="1"/>
<text x="12" y="74.00" font-size="12" fill="#555555">2.293000</text>
<line x1="90" y1="186.00" x2="1360" y2="186.00" stroke="#d9d9d9" stroke-dasharray="4 4" stroke-width="1"/>
<text x="12" y="190.00" font-size="12" fill="#555555">2.114000</text>
<line x1="90" y1="302.00" x2="1360" y2="302.00" stroke="#d9d9d9" stroke-dasharray="4 4" stroke-width="1"/>
<text x="12" y="306.00" font-size="12" fill="#555555">1.935000</text>
<line x1="90" y1="418.00" x2="1360" y2="418.00" stroke="#d9d9d9" stroke-dasharray="4 4" stroke-width="1"/>
<text x="12" y="422.00" font-size="12" fill="#555555">1.756000</text>
<line x1="90" y1="534.00" x2="1360" y2="534.00" stroke="#d9d9d9" stroke-dasharray="4 4" stroke-width="1"/>
<text x="12" y="538.00" font-size="12" fill="#555555">1.577000</text>
<line x1="90" y1="650.00" x2="1360" y2="650.00" stroke="#d9d9d9" stroke-dasharray="4 4" stroke-width="1"/>
<text x="12" y="654.00" font-size="12" fill="#555555">1.398000</text>
<rect x="687.65" y="70" width="74.71" height="580.00" fill="#f1c40f" opacity="0.16"/>
<rect x="612.94" y="70" width="74.71" height="580.00" fill="#3498db" opacity="0.10"/>
<line x1="127.35" y1="627.32" x2="127.35" y2="640.93" stroke="#2ecc71" stroke-width="2"/>
<rect x="105.69" y="628.61" width="43.33" height="3.24" fill="#2ecc71" stroke="#2ecc71" stroke-width="1"/>
<text x="127.35" y="704" font-size="11" fill="#555555" text-anchor="middle">10-19</text>
<text x="127.35" y="720" font-size="11" fill="#555555" text-anchor="middle">04:00</text>
<line x1="202.06" y1="615.01" x2="202.06" y2="630.56" stroke="#2ecc71" stroke-width="2"/>
<rect x="180.39" y="620.19" width="43.33" height="7.78" fill="#2ecc71" stroke="#2ecc71" stroke-width="1"/>
<text x="202.06" y="704" font-size="11" fill="#555555" text-anchor="middle">10-19</text>
<text x="202.06" y="720" font-size="11" fill="#555555" text-anchor="middle">08:00</text>
<line x1="276.76" y1="613.71" x2="276.76" y2="626.67" stroke="#e74c3c" stroke-width="2"/>
<rect x="255.10" y="619.54" width="43.33" height="5.18" fill="#e74c3c" stroke="#e74c3c" stroke-width="1"/>
<text x="276.76" y="704" font-size="11" fill="#555555" text-anchor="middle">10-19</text>
<text x="276.76" y="720" font-size="11" fill="#555555" text-anchor="middle">12:00</text>
<line x1="351.47" y1="621.49" x2="351.47" y2="645.46" stroke="#e74c3c" stroke-width="2"/>
<rect x="329.81" y="624.73" width="43.33" height="20.09" fill="#e74c3c" stroke="#e74c3c" stroke-width="1"/>
<text x="351.47" y="704" font-size="11" fill="#555555" text-anchor="middle">10-19</text>
<text x="351.47" y="720" font-size="11" fill="#555555" text-anchor="middle">16:00</text>
<line x1="426.18" y1="635.74" x2="426.18" y2="646.76" stroke="#2ecc71" stroke-width="2"/>
<rect x="404.51" y="643.52" width="43.33" height="1.30" fill="#2ecc71" stroke="#2ecc71" stroke-width="1"/>
<text x="426.18" y="704" font-size="11" fill="#555555" text-anchor="middle">10-19</text>
<text x="426.18" y="720" font-size="11" fill="#555555" text-anchor="middle">20:00</text>
<line x1="500.88" y1="639.63" x2="500.88" y2="650.00" stroke="#e74c3c" stroke-width="2"/>
<rect x="479.22" y="644.17" width="43.33" height="1.30" fill="#e74c3c" stroke="#e74c3c" stroke-width="1"/>
<text x="500.88" y="704" font-size="11" fill="#555555" text-anchor="middle">10-20</text>
<text x="500.88" y="720" font-size="11" fill="#555555" text-anchor="middle">00:00</text>
<line x1="575.59" y1="589.73" x2="575.59" y2="646.11" stroke="#2ecc71" stroke-width="2"/>
<rect x="553.92" y="609.17" width="43.33" height="36.94" fill="#2ecc71" stroke="#2ecc71" stroke-width="1"/>
<text x="575.59" y="704" font-size="11" fill="#555555" text-anchor="middle">10-20</text>
<text x="575.59" y="720" font-size="11" fill="#555555" text-anchor="middle">04:00</text>
<line x1="650.29" y1="581.96" x2="650.29" y2="613.71" stroke="#2ecc71" stroke-width="2"/>
<rect x="628.63" y="597.51" width="43.33" height="10.37" fill="#2ecc71" stroke="#2ecc71" stroke-width="1"/>
<text x="650.29" y="704" font-size="11" fill="#555555" text-anchor="middle">10-20</text>
<text x="650.29" y="720" font-size="11" fill="#555555" text-anchor="middle">08:00</text>
<line x1="725.00" y1="283.21" x2="725.00" y2="599.45" stroke="#2ecc71" stroke-width="2"/>
<rect x="703.34" y="391.43" width="43.33" height="205.43" fill="#2ecc71" stroke="#2ecc71" stroke-width="1"/>
<text x="725.00" y="704" font-size="11" fill="#555555" text-anchor="middle">10-20</text>
<text x="725.00" y="720" font-size="11" fill="#555555" text-anchor="middle">12:00</text>
<line x1="799.71" y1="233.31" x2="799.71" y2="401.80" stroke="#2ecc71" stroke-width="2"/>
<rect x="778.04" y="298.76" width="43.33" height="92.02" fill="#2ecc71" stroke="#2ecc71" stroke-width="1"/>
<text x="799.71" y="704" font-size="11" fill="#555555" text-anchor="middle">10-20</text>
<text x="799.71" y="720" font-size="11" fill="#555555" text-anchor="middle">16:00</text>
<line x1="874.41" y1="70.00" x2="874.41" y2="303.94" stroke="#2ecc71" stroke-width="2"/>
<rect x="852.75" y="278.02" width="43.33" height="20.09" fill="#2ecc71" stroke="#2ecc71" stroke-width="1"/>
<text x="874.41" y="704" font-size="11" fill="#555555" text-anchor="middle">10-20</text>
<text x="874.41" y="720" font-size="11" fill="#555555" text-anchor="middle">20:00</text>
<line x1="949.12" y1="209.33" x2="949.12" y2="303.94" stroke="#e74c3c" stroke-width="2"/>
<rect x="927.45" y="278.02" width="43.33" height="20.09" fill="#e74c3c" stroke="#e74c3c" stroke-width="1"/>
<text x="949.12" y="704" font-size="11" fill="#555555" text-anchor="middle">10-21</text>
<text x="949.12" y="720" font-size="11" fill="#555555" text-anchor="middle">00:00</text>
<line x1="1023.82" y1="289.04" x2="1023.82" y2="400.50" stroke="#e74c3c" stroke-width="2"/>
<rect x="1002.16" y="298.11" width="43.33" height="70.64" fill="#e74c3c" stroke="#e74c3c" stroke-width="1"/>
<text x="1023.82" y="704" font-size="11" fill="#555555" text-anchor="middle">10-21</text>
<text x="1023.82" y="720" font-size="11" fill="#555555" text-anchor="middle">04:00</text>
<line x1="1098.53" y1="344.12" x2="1098.53" y2="395.97" stroke="#2ecc71" stroke-width="2"/>
<rect x="1076.86" y="362.92" width="43.33" height="7.13" fill="#2ecc71" stroke="#2ecc71" stroke-width="1"/>
<text x="1098.53" y="704" font-size="11" fill="#555555" text-anchor="middle">10-21</text>
<text x="1098.53" y="720" font-size="11" fill="#555555" text-anchor="middle">08:00</text>
<line x1="1173.24" y1="362.27" x2="1173.24" y2="400.50" stroke="#e74c3c" stroke-width="2"/>
<rect x="1151.57" y="362.92" width="43.33" height="2.59" fill="#e74c3c" stroke="#e74c3c" stroke-width="1"/>
<text x="1173.24" y="704" font-size="11" fill="#555555" text-anchor="middle">10-21</text>
<text x="1173.24" y="720" font-size="11" fill="#555555" text-anchor="middle">12:00</text>
<line x1="1247.94" y1="291.63" x2="1247.94" y2="376.53" stroke="#2ecc71" stroke-width="2"/>
<rect x="1226.28" y="357.73" width="43.33" height="7.78" fill="#2ecc71" stroke="#2ecc71" stroke-width="1"/>
<text x="1247.94" y="704" font-size="11" fill="#555555" text-anchor="middle">10-21</text>
<text x="1247.94" y="720" font-size="11" fill="#555555" text-anchor="middle">16:00</text>
<line x1="1322.65" y1="341.53" x2="1322.65" y2="406.98" stroke="#e74c3c" stroke-width="2"/>
<rect x="1300.98" y="357.73" width="43.33" height="30.46" fill="#e74c3c" stroke="#e74c3c" stroke-width="1"/>
<text x="1322.65" y="704" font-size="11" fill="#555555" text-anchor="middle">10-21</text>
<text x="1322.65" y="720" font-size="11" fill="#555555" text-anchor="middle">20:00</text>
<line x1="725.00" y1="283.21" x2="805.00" y2="213.21" stroke="#f1c40f" stroke-width="2"/>
<rect x="805.00" y="165.21" width="220" height="72" rx="8" fill="#fff8dc" stroke="#f1c40f"/>
<text x="815.00" y="189.21" font-size="12" fill="#111111">目标K线 2024-10-20 12:00</text>
<text x="815.00" y="207.21" font-size="12" fill="#111111">振幅 32.97%</text>
<text x="815.00" y="225.21" font-size="12" fill="#111111">倍数 9.84x</text>
<line x1="650.29" y1="581.96" x2="620.29" y2="541.96" stroke="#3498db" stroke-width="2"/>
<rect x="400.29" y="505.96" width="220" height="58" rx="8" fill="#eef6ff" stroke="#3498db"/>
<text x="410.29" y="527.96" font-size="12" fill="#111111">前一根涨幅 1.09%</text>
<text x="410.29" y="545.96" font-size="12" fill="#111111">前一根振幅 3.35%</text>
</svg>