<svg xmlns="http://www.w3.org/2000/svg" width="1400" height="760" viewBox="0 0 1400 760">
<rect width="100%" height="100%" fill="#fcfcfc"/>
<text x="90" y="36" font-size="26" font-weight="700" fill="#111111">API3-USDT-SWAP 4H - 9倍命中</text>
<line x1="90" y1="70.00" x2="1360" y2="70.00" stroke="#d9d9d9" stroke-dasharray="4 4" stroke-width="1"/>
<text x="12" y="74.00" font-size="12" fill="#555555">0.888800</text>
<line x1="90" y1="186.00" x2="1360" y2="186.00" stroke="#d9d9d9" stroke-dasharray="4 4" stroke-width="1"/>
<text x="12" y="190.00" font-size="12" fill="#555555">0.847300</text>
<line x1="90" y1="302.00" x2="1360" y2="302.00" stroke="#d9d9d9" stroke-dasharray="4 4" stroke-width="1"/>
<text x="12" y="306.00" font-size="12" fill="#555555">0.805800</text>
<line x1="90" y1="418.00" x2="1360" y2="418.00" stroke="#d9d9d9" stroke-dasharray="4 4" stroke-width="1"/>
<text x="12" y="422.00" font-size="12" fill="#555555">0.764300</text>
<line x1="90" y1="534.00" x2="1360" y2="534.00" stroke="#d9d9d9" stroke-dasharray="4 4" stroke-width="1"/>
<text x="12" y="538.00" font-size="12" fill="#555555">0.722800</text>
<line x1="90" y1="650.00" x2="1360" y2="650.00" stroke="#d9d9d9" stroke-dasharray="4 4" stroke-width="1"/>
<text x="12" y="654.00" font-size="12" fill="#555555">0.681300</text>
<rect x="687.65" y="70" width="74.71" height="580.00" fill="#f1c40f" opacity="0.16"/>
<rect x="612.94" y="70" width="74.71" height="580.00" fill="#3498db" opacity="0.10"/>
<line x1="127.35" y1="514.15" x2="127.35" y2="570.06" stroke="#2ecc71" stroke-width="2"/>
<rect x="105.69" y="517.23" width="43.33" height="40.53" fill="#2ecc71" stroke="#2ecc71" stroke-width="1"/>
<text x="127.35" y="704" font-size="11" fill="#555555" text-anchor="middle">08-15</text>
<text x="127.35" y="720" font-size="11" fill="#555555" text-anchor="middle">08:00</text>
<line x1="202.06" y1="505.49" x2="202.06" y2="537.91" stroke="#2ecc71" stroke-width="2"/>
<rect x="180.39" y="515.55" width="43.33" height="2.24" fill="#2ecc71" stroke="#2ecc71" stroke-width="1"/>
<text x="202.06" y="704" font-size="11" fill="#555555" text-anchor="middle">08-15</text>
<text x="202.06" y="720" font-size="11" fill="#555555" text-anchor="middle">12:00</text>
<line x1="276.76" y1="510.24" x2="276.76" y2="540.99" stroke="#e74c3c" stroke-width="2"/>
<rect x="255.10" y="514.71" width="43.33" height="16.49" fill="#e74c3c" stroke="#e74c3c" stroke-width="1"/>
<text x="276.76" y="704" font-size="11" fill="#555555" text-anchor="middle">08-15</text>
<text x="276.76" y="720" font-size="11" fill="#555555" text-anchor="middle">16:00</text>
<line x1="351.47" y1="510.80" x2="351.47" y2="644.97" stroke="#e74c3c" stroke-width="2"/>
<rect x="329.81" y="532.60" width="43.33" height="97.83" fill="#e74c3c" stroke="#e74c3c" stroke-width="1"/>
<text x="351.47" y="704" font-size="11" fill="#555555" text-anchor="middle">08-15</text>
<text x="351.47" y="720" font-size="11" fill="#555555" text-anchor="middle">20:00</text>
<line x1="426.18" y1="576.77" x2="426.18" y2="650.00" stroke="#2ecc71" stroke-width="2"/>
<rect x="404.51" y="609.47" width="43.33" height="21.24" fill="#2ecc71" stroke="#2ecc71" stroke-width="1"/>
<text x="426.18" y="704" font-size="11" fill="#555555" text-anchor="middle">08-16</text>
<text x="426.18" y="720" font-size="11" fill="#555555" text-anchor="middle">00:00</text>
<line x1="500.88" y1="538.47" x2="500.88" y2="615.34" stroke="#2ecc71" stroke-width="2"/>
<rect x="479.22" y="555.24" width="43.33" height="53.95" fill="#2ecc71" stroke="#2ecc71" stroke-width="1"/>
<text x="500.88" y="704" font-size="11" fill="#555555" text-anchor="middle">08-16</text>
<text x="500.88" y="720" font-size="11" fill="#555555" text-anchor="middle">04:00</text>
<line x1="575.59" y1="527.85" x2="575.59" y2="557.20" stroke="#2ecc71" stroke-width="2"/>
<rect x="553.92" y="544.90" width="43.33" height="11.46" fill="#2ecc71" stroke="#2ecc71" stroke-width="1"/>
<text x="575.59" y="704" font-size="11" fill="#555555" text-anchor="middle">08-16</text>
<text x="575.59" y="720" font-size="11" fill="#555555" text-anchor="middle">08:00</text>
<line x1="650.29" y1="515.83" x2="650.29" y2="545.46" stroke="#2ecc71" stroke-width="2"/>
<rect x="628.63" y="517.79" width="43.33" height="26.83" fill="#2ecc71" stroke="#2ecc71" stroke-width="1"/>
<text x="650.29" y="704" font-size="11" fill="#555555" text-anchor="middle">08-16</text>
<text x="650.29" y="720" font-size="11" fill="#555555" text-anchor="middle">12:00</text>
<line x1="725.00" y1="263.15" x2="725.00" y2="535.40" stroke="#2ecc71" stroke-width="2"/>
<rect x="703.34" y="392.56" width="43.33" height="125.50" fill="#2ecc71" stroke="#2ecc71" stroke-width="1"/>
<text x="725.00" y="704" font-size="11" fill="#555555" text-anchor="middle">08-16</text>
<text x="725.00" y="720" font-size="11" fill="#555555" text-anchor="middle">16:00</text>
<line x1="799.71" y1="70.00" x2="799.71" y2="429.74" stroke="#2ecc71" stroke-width="2"/>
<rect x="778.04" y="309.55" width="43.33" height="83.30" fill="#2ecc71" stroke="#2ecc71" stroke-width="1"/>
<text x="799.71" y="704" font-size="11" fill="#555555" text-anchor="middle">08-16</text>
<text x="799.71" y="720" font-size="11" fill="#555555" text-anchor="middle">20:00</text>
<line x1="874.41" y1="273.49" x2="874.41" y2="418.00" stroke="#e74c3c" stroke-width="2"/>
<rect x="852.75" y="309.27" width="43.33" height="69.32" fill="#e74c3c" stroke="#e74c3c" stroke-width="1"/>
<text x="874.41" y="704" font-size="11" fill="#555555" text-anchor="middle">08-17</text>
<text x="874.41" y="720" font-size="11" fill="#555555" text-anchor="middle">00:00</text>
<line x1="949.12" y1="372.72" x2="949.12" y2="450.42" stroke="#e74c3c" stroke-width="2"/>
<rect x="927.45" y="378.59" width="43.33" height="57.86" fill="#e74c3c" stroke="#e74c3c" stroke-width="1"/>
<text x="949.12" y="704" font-size="11" fill="#555555" text-anchor="middle">08-17</text>
<text x="949.12" y="720" font-size="11" fill="#555555" text-anchor="middle">04:00</text>
<line x1="1023.82" y1="402.63" x2="1023.82" y2="454.06" stroke="#2ecc71" stroke-width="2"/>
<rect x="1002.16" y="428.06" width="43.33" height="8.11" fill="#2ecc71" stroke="#2ecc71" stroke-width="1"/>
<text x="1023.82" y="704" font-size="11" fill="#555555" text-anchor="middle">08-17</text>
<text x="1023.82" y="720" font-size="11" fill="#555555" text-anchor="middle">08:00</text>
<line x1="1098.53" y1="384.18" x2="1098.53" y2="430.30" stroke="#2ecc71" stroke-width="2"/>
<rect x="1076.86" y="406.82" width="43.33" height="20.96" fill="#2ecc71" stroke="#2ecc71" stroke-width="1"/>
<text x="1098.53" y="704" font-size="11" fill="#555555" text-anchor="middle">08-17</text>
<text x="1098.53" y="720" font-size="11" fill="#555555" text-anchor="middle">12:00</text>
<line x1="1173.24" y1="371.60" x2="1173.24" y2="415.76" stroke="#2ecc71" stroke-width="2"/>
<rect x="1151.57" y="372.44" width="43.33" height="34.10" fill="#2ecc71" stroke="#2ecc71" stroke-width="1"/>
<text x="1173.24" y="704" font-size="11" fill="#555555" text-anchor="middle">08-17</text>
<text x="1173.24" y="720" font-size="11" fill="#555555" text-anchor="middle">16:00</text>
<line x1="1247.94" y1="315.14" x2="1247.94" y2="385.58" stroke="#2ecc71" stroke-width="2"/>
<rect x="1226.28" y="329.67" width="43.33" height="43.05" fill="#2ecc71" stroke="#2ecc71" stroke-width="1"/>
<text x="1247.94" y="704" font-size="11" fill="#555555" text-anchor="middle">08-17</text>
<text x="1247.94" y="720" font-size="11" fill="#555555" text-anchor="middle">20:00</text>
<line x1="1322.65" y1="324.36" x2="1322.65" y2="395.36" stroke="#e74c3c" stroke-width="2"/>
<rect x="1300.98" y="329.39" width="43.33" height="55.07" fill="#e74c3c" stroke="#e74c3c" stroke-width="1"/>
<text x="1322.65" y="704" font-size="11" fill="#555555" text-anchor="middle">08-18</text>
<text x="1322.65" y="720" font-size="11" fill="#555555" text-anchor="middle">00:00</text>
<line x1="725.00" y1="263.15" x2="805.00" y2="193.15" stroke="#f1c40f" stroke-width="2"/>
<rect x="805.00" y="145.15" width="220" height="72" rx="8" fill="#fff8dc" stroke="#f1c40f"/>
<text x="815.00" y="169.15" font-size="12" fill="#111111">目标K线 2025-08-16 16:00</text>
<text x="815.00" y="187.15" font-size="12" fill="#111111">振幅 13.37%</text>
<text x="815.00" y="205.15" font-size="12" fill="#111111">倍数 9.07x</text>
<line x1="650.29" y1="515.83" x2="620.29" y2="475.83" stroke="#3498db" stroke-width="2"/>
<rect x="400.29" y="439.83" width="220" height="58" rx="8" fill="#eef6ff" stroke="#3498db"/>
<text x="410.29" y="461.83" font-size="12" fill="#111111">前一根涨幅 1.34%</text>
<text x="410.29" y="479.83" font-size="12" fill="#111111">前一根振幅 1.47%</text>
</svg>