<svg xmlns="http://www.w3.org/2000/svg" width="1400" height="760" viewBox="0 0 1400 760">
<rect width="100%" height="100%" fill="#fcfcfc"/>
<text x="90" y="36" font-size="26" font-weight="700" fill="#111111">AZTEC-USDT-SWAP 4H - 9倍命中</text>
<line x1="90" y1="70.00" x2="1360" y2="70.00" stroke="#d9d9d9" stroke-dasharray="4 4" stroke-width="1"/>
<text x="12" y="74.00" font-size="12" fill="#555555">0.039340</text>
<line x1="90" y1="186.00" x2="1360" y2="186.00" stroke="#d9d9d9" stroke-dasharray="4 4" stroke-width="1"/>
<text x="12" y="190.00" font-size="12" fill="#555555">0.035090</text>
<line x1="90" y1="302.00" x2="1360" y2="302.00" stroke="#d9d9d9" stroke-dasharray="4 4" stroke-width="1"/>
<text x="12" y="306.00" font-size="12" fill="#555555">0.030840</text>
<line x1="90" y1="418.00" x2="1360" y2="418.00" stroke="#d9d9d9" stroke-dasharray="4 4" stroke-width="1"/>
<text x="12" y="422.00" font-size="12" fill="#555555">0.026590</text>
<line x1="90" y1="534.00" x2="1360" y2="534.00" stroke="#d9d9d9" stroke-dasharray="4 4" stroke-width="1"/>
<text x="12" y="538.00" font-size="12" fill="#555555">0.022340</text>
<line x1="90" y1="650.00" x2="1360" y2="650.00" stroke="#d9d9d9" stroke-dasharray="4 4" stroke-width="1"/>
<text x="12" y="654.00" font-size="12" fill="#555555">0.018090</text>
<rect x="687.65" y="70" width="74.71" height="580.00" fill="#f1c40f" opacity="0.16"/>
<rect x="612.94" y="70" width="74.71" height="580.00" fill="#3498db" opacity="0.10"/>
<line x1="127.35" y1="631.17" x2="127.35" y2="650.00" stroke="#e74c3c" stroke-width="2"/>
<rect x="105.69" y="635.53" width="43.33" height="13.10" fill="#e74c3c" stroke="#e74c3c" stroke-width="1"/>
<text x="127.35" y="704" font-size="11" fill="#555555" text-anchor="middle">02-19</text>
<text x="127.35" y="720" font-size="11" fill="#555555" text-anchor="middle">04:00</text>
<line x1="202.06" y1="628.16" x2="202.06" y2="648.64" stroke="#2ecc71" stroke-width="2"/>
<rect x="180.39" y="637.99" width="43.33" height="10.37" fill="#2ecc71" stroke="#2ecc71" stroke-width="1"/>
<text x="202.06" y="704" font-size="11" fill="#555555" text-anchor="middle">02-19</text>
<text x="202.06" y="720" font-size="11" fill="#555555" text-anchor="middle">08:00</text>
<line x1="276.76" y1="618.34" x2="276.76" y2="643.72" stroke="#2ecc71" stroke-width="2"/>
<rect x="255.10" y="635.53" width="43.33" height="2.73" fill="#2ecc71" stroke="#2ecc71" stroke-width="1"/>
<text x="276.76" y="704" font-size="11" fill="#555555" text-anchor="middle">02-19</text>
<text x="276.76" y="720" font-size="11" fill="#555555" text-anchor="middle">12:00</text>
<line x1="351.47" y1="604.15" x2="351.47" y2="639.63" stroke="#2ecc71" stroke-width="2"/>
<rect x="329.81" y="607.42" width="43.33" height="28.11" fill="#2ecc71" stroke="#2ecc71" stroke-width="1"/>
<text x="351.47" y="704" font-size="11" fill="#555555" text-anchor="middle">02-19</text>
<text x="351.47" y="720" font-size="11" fill="#555555" text-anchor="middle">16:00</text>
<line x1="426.18" y1="582.58" x2="426.18" y2="632.53" stroke="#e74c3c" stroke-width="2"/>
<rect x="404.51" y="607.42" width="43.33" height="20.20" fill="#e74c3c" stroke="#e74c3c" stroke-width="1"/>
<text x="426.18" y="704" font-size="11" fill="#555555" text-anchor="middle">02-19</text>
<text x="426.18" y="720" font-size="11" fill="#555555" text-anchor="middle">20:00</text>
<line x1="500.88" y1="604.15" x2="500.88" y2="630.08" stroke="#2ecc71" stroke-width="2"/>
<rect x="479.22" y="609.33" width="43.33" height="18.29" fill="#2ecc71" stroke="#2ecc71" stroke-width="1"/>
<text x="500.88" y="704" font-size="11" fill="#555555" text-anchor="middle">02-20</text>
<text x="500.88" y="720" font-size="11" fill="#555555" text-anchor="middle">00:00</text>
<line x1="575.59" y1="605.24" x2="575.59" y2="625.71" stroke="#e74c3c" stroke-width="2"/>
<rect x="553.92" y="609.33" width="43.33" height="13.92" fill="#e74c3c" stroke="#e74c3c" stroke-width="1"/>
<text x="575.59" y="704" font-size="11" fill="#555555" text-anchor="middle">02-20</text>
<text x="575.59" y="720" font-size="11" fill="#555555" text-anchor="middle">04:00</text>
<line x1="650.29" y1="600.32" x2="650.29" y2="630.62" stroke="#2ecc71" stroke-width="2"/>
<rect x="628.63" y="612.06" width="43.33" height="10.92" fill="#2ecc71" stroke="#2ecc71" stroke-width="1"/>
<text x="650.29" y="704" font-size="11" fill="#555555" text-anchor="middle">02-20</text>
<text x="650.29" y="720" font-size="11" fill="#555555" text-anchor="middle">08:00</text>
<line x1="725.00" y1="324.93" x2="725.00" y2="622.71" stroke="#2ecc71" stroke-width="2"/>
<rect x="703.34" y="397.26" width="43.33" height="214.53" fill="#2ecc71" stroke="#2ecc71" stroke-width="1"/>
<text x="725.00" y="704" font-size="11" fill="#555555" text-anchor="middle">02-20</text>
<text x="725.00" y="720" font-size="11" fill="#555555" text-anchor="middle">12:00</text>
<line x1="799.71" y1="213.57" x2="799.71" y2="429.19" stroke="#2ecc71" stroke-width="2"/>
<rect x="778.04" y="236.22" width="43.33" height="160.76" fill="#2ecc71" stroke="#2ecc71" stroke-width="1"/>
<text x="799.71" y="704" font-size="11" fill="#555555" text-anchor="middle">02-20</text>
<text x="799.71" y="720" font-size="11" fill="#555555" text-anchor="middle">16:00</text>
<line x1="874.41" y1="189.28" x2="874.41" y2="317.28" stroke="#e74c3c" stroke-width="2"/>
<rect x="852.75" y="236.49" width="43.33" height="53.22" fill="#e74c3c" stroke="#e74c3c" stroke-width="1"/>
<text x="874.41" y="704" font-size="11" fill="#555555" text-anchor="middle">02-20</text>
<text x="874.41" y="720" font-size="11" fill="#555555" text-anchor="middle">20:00</text>
<line x1="949.12" y1="256.69" x2="949.12" y2="333.93" stroke="#2ecc71" stroke-width="2"/>
<rect x="927.45" y="282.62" width="43.33" height="7.10" fill="#2ecc71" stroke="#2ecc71" stroke-width="1"/>
<text x="949.12" y="704" font-size="11" fill="#555555" text-anchor="middle">02-21</text>
<text x="949.12" y="720" font-size="11" fill="#555555" text-anchor="middle">00:00</text>
<line x1="1023.82" y1="230.76" x2="1023.82" y2="313.46" stroke="#2ecc71" stroke-width="2"/>
<rect x="1002.16" y="250.96" width="43.33" height="31.93" fill="#2ecc71" stroke="#2ecc71" stroke-width="1"/>
<text x="1023.82" y="704" font-size="11" fill="#555555" text-anchor="middle">02-21</text>
<text x="1023.82" y="720" font-size="11" fill="#555555" text-anchor="middle">04:00</text>
<line x1="1098.53" y1="167.17" x2="1098.53" y2="300.36" stroke="#2ecc71" stroke-width="2"/>
<rect x="1076.86" y="225.30" width="43.33" height="25.66" fill="#2ecc71" stroke="#2ecc71" stroke-width="1"/>
<text x="1098.53" y="704" font-size="11" fill="#555555" text-anchor="middle">02-21</text>
<text x="1098.53" y="720" font-size="11" fill="#555555" text-anchor="middle">08:00</text>
<line x1="1173.24" y1="71.64" x2="1173.24" y2="234.04" stroke="#2ecc71" stroke-width="2"/>
<rect x="1151.57" y="136.87" width="43.33" height="88.43" fill="#2ecc71" stroke="#2ecc71" stroke-width="1"/>
<text x="1173.24" y="704" font-size="11" fill="#555555" text-anchor="middle">02-21</text>
<text x="1173.24" y="720" font-size="11" fill="#555555" text-anchor="middle">12:00</text>
<line x1="1247.94" y1="70.00" x2="1247.94" y2="192.82" stroke="#e74c3c" stroke-width="2"/>
<rect x="1226.28" y="136.87" width="43.33" height="18.01" fill="#e74c3c" stroke="#e74c3c" stroke-width="1"/>
<text x="1247.94" y="704" font-size="11" fill="#555555" text-anchor="middle">02-21</text>
<text x="1247.94" y="720" font-size="11" fill="#555555" text-anchor="middle">16:00</text>
<line x1="1322.65" y1="132.78" x2="1322.65" y2="217.66" stroke="#e74c3c" stroke-width="2"/>
<rect x="1300.98" y="155.16" width="43.33" height="43.12" fill="#e74c3c" stroke="#e74c3c" stroke-width="1"/>
<text x="1322.65" y="704" font-size="11" fill="#555555" text-anchor="middle">02-21</text>
<text x="1322.65" y="720" font-size="11" fill="#555555" text-anchor="middle">20:00</text>
<line x1="725.00" y1="324.93" x2="805.00" y2="254.93" stroke="#f1c40f" stroke-width="2"/>
<rect x="805.00" y="206.93" width="220" height="72" rx="8" fill="#fff8dc" stroke="#f1c40f"/>
<text x="815.00" y="230.93" font-size="12" fill="#111111">目标K线 2026-02-20 12:00</text>
<text x="815.00" y="248.93" font-size="12" fill="#111111">振幅 55.98%</text>
<text x="815.00" y="266.93" font-size="12" fill="#111111">倍数 9.62x</text>
<line x1="650.29" y1="600.32" x2="620.29" y2="560.32" stroke="#3498db" stroke-width="2"/>
<rect x="400.29" y="524.32" width="220" height="58" rx="8" fill="#eef6ff" stroke="#3498db"/>
<text x="410.29" y="546.32" font-size="12" fill="#111111">前一根涨幅 2.10%</text>
<text x="410.29" y="564.32" font-size="12" fill="#111111">前一根振幅 5.82%</text>
</svg>