<svg xmlns="http://www.w3.org/2000/svg" width="1400" height="760" viewBox="0 0 1400 760">
<rect width="100%" height="100%" fill="#fcfcfc"/>
<text x="90" y="36" font-size="26" font-weight="700" fill="#111111">BCH-USDT-SWAP 4H - 9倍命中</text>
<line x1="90" y1="70.00" x2="1360" y2="70.00" stroke="#d9d9d9" stroke-dasharray="4 4" stroke-width="1"/>
<text x="12" y="74.00" font-size="12" fill="#555555">149.470000</text>
<line x1="90" y1="186.00" x2="1360" y2="186.00" stroke="#d9d9d9" stroke-dasharray="4 4" stroke-width="1"/>
<text x="12" y="190.00" font-size="12" fill="#555555">140.618000</text>
<line x1="90" y1="302.00" x2="1360" y2="302.00" stroke="#d9d9d9" stroke-dasharray="4 4" stroke-width="1"/>
<text x="12" y="306.00" font-size="12" fill="#555555">131.766000</text>
<line x1="90" y1="418.00" x2="1360" y2="418.00" stroke="#d9d9d9" stroke-dasharray="4 4" stroke-width="1"/>
<text x="12" y="422.00" font-size="12" fill="#555555">122.914000</text>
<line x1="90" y1="534.00" x2="1360" y2="534.00" stroke="#d9d9d9" stroke-dasharray="4 4" stroke-width="1"/>
<text x="12" y="538.00" font-size="12" fill="#555555">114.062000</text>
<line x1="90" y1="650.00" x2="1360" y2="650.00" stroke="#d9d9d9" stroke-dasharray="4 4" stroke-width="1"/>
<text x="12" y="654.00" font-size="12" fill="#555555">105.210000</text>
<rect x="687.65" y="70" width="74.71" height="580.00" fill="#f1c40f" opacity="0.16"/>
<rect x="612.94" y="70" width="74.71" height="580.00" fill="#3498db" opacity="0.10"/>
<line x1="127.35" y1="628.25" x2="127.35" y2="639.39" stroke="#2ecc71" stroke-width="2"/>
<rect x="105.69" y="629.03" width="43.33" height="9.70" fill="#2ecc71" stroke="#2ecc71" stroke-width="1"/>
<text x="127.35" y="704" font-size="11" fill="#555555" text-anchor="middle">06-20</text>
<text x="127.35" y="720" font-size="11" fill="#555555" text-anchor="middle">04:00</text>
<line x1="202.06" y1="621.17" x2="202.06" y2="638.86" stroke="#e74c3c" stroke-width="2"/>
<rect x="180.39" y="629.16" width="43.33" height="7.99" fill="#e74c3c" stroke="#e74c3c" stroke-width="1"/>
<text x="202.06" y="704" font-size="11" fill="#555555" text-anchor="middle">06-20</text>
<text x="202.06" y="720" font-size="11" fill="#555555" text-anchor="middle">08:00</text>
<line x1="276.76" y1="629.30" x2="276.76" y2="642.66" stroke="#2ecc71" stroke-width="2"/>
<rect x="255.10" y="633.75" width="43.33" height="3.41" fill="#2ecc71" stroke="#2ecc71" stroke-width="1"/>
<text x="276.76" y="704" font-size="11" fill="#555555" text-anchor="middle">06-20</text>
<text x="276.76" y="720" font-size="11" fill="#555555" text-anchor="middle">12:00</text>
<line x1="351.47" y1="627.98" x2="351.47" y2="639.52" stroke="#2ecc71" stroke-width="2"/>
<rect x="329.81" y="630.34" width="43.33" height="3.41" fill="#2ecc71" stroke="#2ecc71" stroke-width="1"/>
<text x="351.47" y="704" font-size="11" fill="#555555" text-anchor="middle">06-20</text>
<text x="351.47" y="720" font-size="11" fill="#555555" text-anchor="middle">16:00</text>
<line x1="426.18" y1="626.67" x2="426.18" y2="650.00" stroke="#e74c3c" stroke-width="2"/>
<rect x="404.51" y="630.47" width="43.33" height="6.29" fill="#e74c3c" stroke="#e74c3c" stroke-width="1"/>
<text x="426.18" y="704" font-size="11" fill="#555555" text-anchor="middle">06-20</text>
<text x="426.18" y="720" font-size="11" fill="#555555" text-anchor="middle">20:00</text>
<line x1="500.88" y1="579.11" x2="500.88" y2="640.96" stroke="#2ecc71" stroke-width="2"/>
<rect x="479.22" y="599.68" width="43.33" height="36.69" fill="#2ecc71" stroke="#2ecc71" stroke-width="1"/>
<text x="500.88" y="704" font-size="11" fill="#555555" text-anchor="middle">06-21</text>
<text x="500.88" y="720" font-size="11" fill="#555555" text-anchor="middle">00:00</text>
<line x1="575.59" y1="586.18" x2="575.59" y2="604.79" stroke="#2ecc71" stroke-width="2"/>
<rect x="553.92" y="586.44" width="43.33" height="12.58" fill="#2ecc71" stroke="#2ecc71" stroke-width="1"/>
<text x="575.59" y="704" font-size="11" fill="#555555" text-anchor="middle">06-21</text>
<text x="575.59" y="720" font-size="11" fill="#555555" text-anchor="middle">04:00</text>
<line x1="650.29" y1="552.50" x2="650.29" y2="591.03" stroke="#2ecc71" stroke-width="2"/>
<rect x="628.63" y="553.29" width="43.33" height="33.29" fill="#2ecc71" stroke="#2ecc71" stroke-width="1"/>
<text x="650.29" y="704" font-size="11" fill="#555555" text-anchor="middle">06-21</text>
<text x="650.29" y="720" font-size="11" fill="#555555" text-anchor="middle">08:00</text>
<line x1="725.00" y1="198.03" x2="725.00" y2="557.35" stroke="#2ecc71" stroke-width="2"/>
<rect x="703.34" y="294.61" width="43.33" height="258.68" fill="#2ecc71" stroke="#2ecc71" stroke-width="1"/>
<text x="725.00" y="704" font-size="11" fill="#555555" text-anchor="middle">06-21</text>
<text x="725.00" y="720" font-size="11" fill="#555555" text-anchor="middle">12:00</text>
<line x1="799.71" y1="284.13" x2="799.71" y2="370.35" stroke="#e74c3c" stroke-width="2"/>
<rect x="778.04" y="294.08" width="43.33" height="41.41" fill="#e74c3c" stroke="#e74c3c" stroke-width="1"/>
<text x="799.71" y="704" font-size="11" fill="#555555" text-anchor="middle">06-21</text>
<text x="799.71" y="720" font-size="11" fill="#555555" text-anchor="middle">16:00</text>
<line x1="874.41" y1="261.46" x2="874.41" y2="359.48" stroke="#2ecc71" stroke-width="2"/>
<rect x="852.75" y="304.31" width="43.33" height="30.80" fill="#2ecc71" stroke="#2ecc71" stroke-width="1"/>
<text x="874.41" y="704" font-size="11" fill="#555555" text-anchor="middle">06-21</text>
<text x="874.41" y="720" font-size="11" fill="#555555" text-anchor="middle">20:00</text>
<line x1="949.12" y1="183.88" x2="949.12" y2="309.94" stroke="#2ecc71" stroke-width="2"/>
<rect x="927.45" y="257.65" width="43.33" height="46.26" fill="#2ecc71" stroke="#2ecc71" stroke-width="1"/>
<text x="949.12" y="704" font-size="11" fill="#555555" text-anchor="middle">06-22</text>
<text x="949.12" y="720" font-size="11" fill="#555555" text-anchor="middle">00:00</text>
<line x1="1023.82" y1="234.20" x2="1023.82" y2="279.01" stroke="#2ecc71" stroke-width="2"/>
<rect x="1002.16" y="250.84" width="43.33" height="5.77" fill="#2ecc71" stroke="#2ecc71" stroke-width="1"/>
<text x="1023.82" y="704" font-size="11" fill="#555555" text-anchor="middle">06-22</text>
<text x="1023.82" y="720" font-size="11" fill="#555555" text-anchor="middle">04:00</text>
<line x1="1098.53" y1="70.00" x2="1098.53" y2="262.50" stroke="#2ecc71" stroke-width="2"/>
<rect x="1076.86" y="188.99" width="43.33" height="61.98" fill="#2ecc71" stroke="#2ecc71" stroke-width="1"/>
<text x="1098.53" y="704" font-size="11" fill="#555555" text-anchor="middle">06-22</text>
<text x="1098.53" y="720" font-size="11" fill="#555555" text-anchor="middle">08:00</text>
<line x1="1173.24" y1="188.73" x2="1173.24" y2="277.84" stroke="#e74c3c" stroke-width="2"/>
<rect x="1151.57" y="189.12" width="43.33" height="61.46" fill="#e74c3c" stroke="#e74c3c" stroke-width="1"/>
<text x="1173.24" y="704" font-size="11" fill="#555555" text-anchor="middle">06-22</text>
<text x="1173.24" y="720" font-size="11" fill="#555555" text-anchor="middle">12:00</text>
<line x1="1247.94" y1="246.91" x2="1247.94" y2="346.76" stroke="#e74c3c" stroke-width="2"/>
<rect x="1226.28" y="250.58" width="43.33" height="72.07" fill="#e74c3c" stroke="#e74c3c" stroke-width="1"/>
<text x="1247.94" y="704" font-size="11" fill="#555555" text-anchor="middle">06-22</text>
<text x="1247.94" y="720" font-size="11" fill="#555555" text-anchor="middle">16:00</text>
<line x1="1322.65" y1="247.17" x2="1322.65" y2="323.05" stroke="#2ecc71" stroke-width="2"/>
<rect x="1300.98" y="276.66" width="43.33" height="46.39" fill="#2ecc71" stroke="#2ecc71" stroke-width="1"/>
<text x="1322.65" y="704" font-size="11" fill="#555555" text-anchor="middle">06-22</text>
<text x="1322.65" y="720" font-size="11" fill="#555555" text-anchor="middle">20:00</text>
<line x1="725.00" y1="198.03" x2="805.00" y2="128.03" stroke="#f1c40f" stroke-width="2"/>
<rect x="805.00" y="80.03" width="220" height="72" rx="8" fill="#fff8dc" stroke="#f1c40f"/>
<text x="815.00" y="104.03" font-size="12" fill="#111111">目标K线 2023-06-21 12:00</text>
<text x="815.00" y="122.03" font-size="12" fill="#111111">振幅 24.35%</text>
<text x="815.00" y="140.03" font-size="12" fill="#111111">倍数 9.12x</text>
<line x1="650.29" y1="552.50" x2="620.29" y2="512.50" stroke="#3498db" stroke-width="2"/>
<rect x="400.29" y="476.50" width="220" height="58" rx="8" fill="#eef6ff" stroke="#3498db"/>
<text x="410.29" y="498.50" font-size="12" fill="#111111">前一根涨幅 2.31%</text>
<text x="410.29" y="516.50" font-size="12" fill="#111111">前一根振幅 2.67%</text>
</svg>