<svg xmlns="http://www.w3.org/2000/svg" width="1400" height="760" viewBox="0 0 1400 760">
<rect width="100%" height="100%" fill="#fcfcfc"/>
<text x="90" y="36" font-size="26" font-weight="700" fill="#111111">ENSO-USDT-SWAP 4H - 9倍命中</text>
<line x1="90" y1="70.00" x2="1360" y2="70.00" stroke="#d9d9d9" stroke-dasharray="4 4" stroke-width="1"/>
<text x="12" y="74.00" font-size="12" fill="#555555">2.258700</text>
<line x1="90" y1="186.00" x2="1360" y2="186.00" stroke="#d9d9d9" stroke-dasharray="4 4" stroke-width="1"/>
<text x="12" y="190.00" font-size="12" fill="#555555">1.929660</text>
<line x1="90" y1="302.00" x2="1360" y2="302.00" stroke="#d9d9d9" stroke-dasharray="4 4" stroke-width="1"/>
<text x="12" y="306.00" font-size="12" fill="#555555">1.600620</text>
<line x1="90" y1="418.00" x2="1360" y2="418.00" stroke="#d9d9d9" stroke-dasharray="4 4" stroke-width="1"/>
<text x="12" y="422.00" font-size="12" fill="#555555">1.271580</text>
<line x1="90" y1="534.00" x2="1360" y2="534.00" stroke="#d9d9d9" stroke-dasharray="4 4" stroke-width="1"/>
<text x="12" y="538.00" font-size="12" fill="#555555">0.942540</text>
<line x1="90" y1="650.00" x2="1360" y2="650.00" stroke="#d9d9d9" stroke-dasharray="4 4" stroke-width="1"/>
<text x="12" y="654.00" font-size="12" fill="#555555">0.613500</text>
<rect x="687.65" y="70" width="74.71" height="580.00" fill="#f1c40f" opacity="0.16"/>
<rect x="612.94" y="70" width="74.71" height="580.00" fill="#3498db" opacity="0.10"/>
<line x1="127.35" y1="626.84" x2="127.35" y2="647.57" stroke="#2ecc71" stroke-width="2"/>
<rect x="105.69" y="644.08" width="43.33" height="1.20" fill="#2ecc71" stroke="#2ecc71" stroke-width="1"/>
<text x="127.35" y="704" font-size="11" fill="#555555" text-anchor="middle">01-23</text>
<text x="127.35" y="720" font-size="11" fill="#555555" text-anchor="middle">00:00</text>
<line x1="202.06" y1="643.13" x2="202.06" y2="650.00" stroke="#e74c3c" stroke-width="2"/>
<rect x="180.39" y="644.04" width="43.33" height="1.66" fill="#e74c3c" stroke="#e74c3c" stroke-width="1"/>
<text x="202.06" y="704" font-size="11" fill="#555555" text-anchor="middle">01-23</text>
<text x="202.06" y="720" font-size="11" fill="#555555" text-anchor="middle">04:00</text>
<line x1="276.76" y1="625.64" x2="276.76" y2="647.53" stroke="#2ecc71" stroke-width="2"/>
<rect x="255.10" y="637.87" width="43.33" height="7.83" fill="#2ecc71" stroke="#2ecc71" stroke-width="1"/>
<text x="276.76" y="704" font-size="11" fill="#555555" text-anchor="middle">01-23</text>
<text x="276.76" y="720" font-size="11" fill="#555555" text-anchor="middle">08:00</text>
<line x1="351.47" y1="550.83" x2="351.47" y2="638.72" stroke="#2ecc71" stroke-width="2"/>
<rect x="329.81" y="568.70" width="43.33" height="69.24" fill="#2ecc71" stroke="#2ecc71" stroke-width="1"/>
<text x="351.47" y="704" font-size="11" fill="#555555" text-anchor="middle">01-23</text>
<text x="351.47" y="720" font-size="11" fill="#555555" text-anchor="middle">12:00</text>
<line x1="426.18" y1="560.00" x2="426.18" y2="589.65" stroke="#e74c3c" stroke-width="2"/>
<rect x="404.51" y="568.67" width="43.33" height="16.46" fill="#e74c3c" stroke="#e74c3c" stroke-width="1"/>
<text x="426.18" y="704" font-size="11" fill="#555555" text-anchor="middle">01-23</text>
<text x="426.18" y="720" font-size="11" fill="#555555" text-anchor="middle">16:00</text>
<line x1="500.88" y1="584.04" x2="500.88" y2="610.20" stroke="#e74c3c" stroke-width="2"/>
<rect x="479.22" y="585.03" width="43.33" height="19.57" fill="#e74c3c" stroke="#e74c3c" stroke-width="1"/>
<text x="500.88" y="704" font-size="11" fill="#555555" text-anchor="middle">01-23</text>
<text x="500.88" y="720" font-size="11" fill="#555555" text-anchor="middle">20:00</text>
<line x1="575.59" y1="595.50" x2="575.59" y2="613.62" stroke="#2ecc71" stroke-width="2"/>
<rect x="553.92" y="603.50" width="43.33" height="1.20" fill="#2ecc71" stroke="#2ecc71" stroke-width="1"/>
<text x="575.59" y="704" font-size="11" fill="#555555" text-anchor="middle">01-24</text>
<text x="575.59" y="720" font-size="11" fill="#555555" text-anchor="middle">00:00</text>
<line x1="650.29" y1="588.38" x2="650.29" y2="608.26" stroke="#2ecc71" stroke-width="2"/>
<rect x="628.63" y="597.54" width="43.33" height="5.99" fill="#2ecc71" stroke="#2ecc71" stroke-width="1"/>
<text x="650.29" y="704" font-size="11" fill="#555555" text-anchor="middle">01-24</text>
<text x="650.29" y="720" font-size="11" fill="#555555" text-anchor="middle">04:00</text>
<line x1="725.00" y1="415.95" x2="725.00" y2="602.58" stroke="#2ecc71" stroke-width="2"/>
<rect x="703.34" y="427.83" width="43.33" height="169.75" fill="#2ecc71" stroke="#2ecc71" stroke-width="1"/>
<text x="725.00" y="704" font-size="11" fill="#555555" text-anchor="middle">01-24</text>
<text x="725.00" y="720" font-size="11" fill="#555555" text-anchor="middle">08:00</text>
<line x1="799.71" y1="427.05" x2="799.71" y2="489.73" stroke="#e74c3c" stroke-width="2"/>
<rect x="778.04" y="428.25" width="43.33" height="52.32" fill="#e74c3c" stroke="#e74c3c" stroke-width="1"/>
<text x="799.71" y="704" font-size="11" fill="#555555" text-anchor="middle">01-24</text>
<text x="799.71" y="720" font-size="11" fill="#555555" text-anchor="middle">12:00</text>
<line x1="874.41" y1="364.27" x2="874.41" y2="482.33" stroke="#2ecc71" stroke-width="2"/>
<rect x="852.75" y="385.38" width="43.33" height="95.29" fill="#2ecc71" stroke="#2ecc71" stroke-width="1"/>
<text x="874.41" y="704" font-size="11" fill="#555555" text-anchor="middle">01-24</text>
<text x="874.41" y="720" font-size="11" fill="#555555" text-anchor="middle">16:00</text>
<line x1="949.12" y1="350.62" x2="949.12" y2="406.39" stroke="#e74c3c" stroke-width="2"/>
<rect x="927.45" y="385.38" width="43.33" height="1.66" fill="#e74c3c" stroke="#e74c3c" stroke-width="1"/>
<text x="949.12" y="704" font-size="11" fill="#555555" text-anchor="middle">01-24</text>
<text x="949.12" y="720" font-size="11" fill="#555555" text-anchor="middle">20:00</text>
<line x1="1023.82" y1="354.92" x2="1023.82" y2="411.08" stroke="#2ecc71" stroke-width="2"/>
<rect x="1002.16" y="375.76" width="43.33" height="11.32" fill="#2ecc71" stroke="#2ecc71" stroke-width="1"/>
<text x="1023.82" y="704" font-size="11" fill="#555555" text-anchor="middle">01-25</text>
<text x="1023.82" y="720" font-size="11" fill="#555555" text-anchor="middle">00:00</text>
<line x1="1098.53" y1="222.58" x2="1098.53" y2="392.36" stroke="#2ecc71" stroke-width="2"/>
<rect x="1076.86" y="242.64" width="43.33" height="133.15" fill="#2ecc71" stroke="#2ecc71" stroke-width="1"/>
<text x="1098.53" y="704" font-size="11" fill="#555555" text-anchor="middle">01-25</text>
<text x="1098.53" y="720" font-size="11" fill="#555555" text-anchor="middle">04:00</text>
<line x1="1173.24" y1="70.00" x2="1173.24" y2="260.05" stroke="#2ecc71" stroke-width="2"/>
<rect x="1151.57" y="114.81" width="43.33" height="127.80" fill="#2ecc71" stroke="#2ecc71" stroke-width="1"/>
<text x="1173.24" y="704" font-size="11" fill="#555555" text-anchor="middle">01-25</text>
<text x="1173.24" y="720" font-size="11" fill="#555555" text-anchor="middle">08:00</text>
<line x1="1247.94" y1="96.69" x2="1247.94" y2="259.60" stroke="#e74c3c" stroke-width="2"/>
<rect x="1226.28" y="114.81" width="43.33" height="131.36" fill="#e74c3c" stroke="#e74c3c" stroke-width="1"/>
<text x="1247.94" y="704" font-size="11" fill="#555555" text-anchor="middle">01-25</text>
<text x="1247.94" y="720" font-size="11" fill="#555555" text-anchor="middle">12:00</text>
<line x1="1322.65" y1="168.36" x2="1322.65" y2="290.34" stroke="#2ecc71" stroke-width="2"/>
<rect x="1300.98" y="199.45" width="43.33" height="46.78" fill="#2ecc71" stroke="#2ecc71" stroke-width="1"/>
<text x="1322.65" y="704" font-size="11" fill="#555555" text-anchor="middle">01-25</text>
<text x="1322.65" y="720" font-size="11" fill="#555555" text-anchor="middle">16:00</text>
<line x1="725.00" y1="415.95" x2="805.00" y2="345.95" stroke="#f1c40f" stroke-width="2"/>
<rect x="805.00" y="297.95" width="220" height="72" rx="8" fill="#fff8dc" stroke="#f1c40f"/>
<text x="815.00" y="321.95" font-size="12" fill="#111111">目标K线 2026-01-24 08:00</text>
<text x="815.00" y="339.95" font-size="12" fill="#111111">振幅 69.46%</text>
<text x="815.00" y="357.95" font-size="12" fill="#111111">倍数 9.18x</text>
<line x1="650.29" y1="588.38" x2="620.29" y2="548.38" stroke="#3498db" stroke-width="2"/>
<rect x="400.29" y="512.38" width="220" height="58" rx="8" fill="#eef6ff" stroke="#3498db"/>
<text x="410.29" y="534.38" font-size="12" fill="#111111">前一根涨幅 2.28%</text>
<text x="410.29" y="552.38" font-size="12" fill="#111111">前一根振幅 7.57%</text>
</svg>