<svg xmlns="http://www.w3.org/2000/svg" width="1400" height="760" viewBox="0 0 1400 760">
<rect width="100%" height="100%" fill="#fcfcfc"/>
<text x="90" y="36" font-size="26" font-weight="700" fill="#111111">ETC-USDT-SWAP 4H - 9倍命中</text>
<line x1="90" y1="70.00" x2="1360" y2="70.00" stroke="#d9d9d9" stroke-dasharray="4 4" stroke-width="1"/>
<text x="12" y="74.00" font-size="12" fill="#555555">19.820000</text>
<line x1="90" y1="186.00" x2="1360" y2="186.00" stroke="#d9d9d9" stroke-dasharray="4 4" stroke-width="1"/>
<text x="12" y="190.00" font-size="12" fill="#555555">18.985600</text>
<line x1="90" y1="302.00" x2="1360" y2="302.00" stroke="#d9d9d9" stroke-dasharray="4 4" stroke-width="1"/>
<text x="12" y="306.00" font-size="12" fill="#555555">18.151200</text>
<line x1="90" y1="418.00" x2="1360" y2="418.00" stroke="#d9d9d9" stroke-dasharray="4 4" stroke-width="1"/>
<text x="12" y="422.00" font-size="12" fill="#555555">17.316800</text>
<line x1="90" y1="534.00" x2="1360" y2="534.00" stroke="#d9d9d9" stroke-dasharray="4 4" stroke-width="1"/>
<text x="12" y="538.00" font-size="12" fill="#555555">16.482400</text>
<line x1="90" y1="650.00" x2="1360" y2="650.00" stroke="#d9d9d9" stroke-dasharray="4 4" stroke-width="1"/>
<text x="12" y="654.00" font-size="12" fill="#555555">15.648000</text>
<rect x="687.65" y="70" width="74.71" height="580.00" fill="#f1c40f" opacity="0.16"/>
<rect x="612.94" y="70" width="74.71" height="580.00" fill="#3498db" opacity="0.10"/>
<line x1="127.35" y1="563.53" x2="127.35" y2="589.11" stroke="#2ecc71" stroke-width="2"/>
<rect x="105.69" y="567.56" width="43.33" height="16.68" fill="#2ecc71" stroke="#2ecc71" stroke-width="1"/>
<text x="127.35" y="704" font-size="11" fill="#555555" text-anchor="middle">01-03</text>
<text x="127.35" y="720" font-size="11" fill="#555555" text-anchor="middle">00:00</text>
<line x1="202.06" y1="564.78" x2="202.06" y2="593.00" stroke="#e74c3c" stroke-width="2"/>
<rect x="180.39" y="567.56" width="43.33" height="15.85" fill="#e74c3c" stroke="#e74c3c" stroke-width="1"/>
<text x="202.06" y="704" font-size="11" fill="#555555" text-anchor="middle">01-03</text>
<text x="202.06" y="720" font-size="11" fill="#555555" text-anchor="middle">04:00</text>
<line x1="276.76" y1="577.85" x2="276.76" y2="603.01" stroke="#e74c3c" stroke-width="2"/>
<rect x="255.10" y="584.24" width="43.33" height="5.42" fill="#e74c3c" stroke="#e74c3c" stroke-width="1"/>
<text x="276.76" y="704" font-size="11" fill="#555555" text-anchor="middle">01-03</text>
<text x="276.76" y="720" font-size="11" fill="#555555" text-anchor="middle">08:00</text>
<line x1="351.47" y1="573.12" x2="351.47" y2="596.34" stroke="#2ecc71" stroke-width="2"/>
<rect x="329.81" y="588.97" width="43.33" height="1.39" fill="#2ecc71" stroke="#2ecc71" stroke-width="1"/>
<text x="351.47" y="704" font-size="11" fill="#555555" text-anchor="middle">01-03</text>
<text x="351.47" y="720" font-size="11" fill="#555555" text-anchor="middle">12:00</text>
<line x1="426.18" y1="585.77" x2="426.18" y2="608.02" stroke="#e74c3c" stroke-width="2"/>
<rect x="404.51" y="589.11" width="43.33" height="10.29" fill="#e74c3c" stroke="#e74c3c" stroke-width="1"/>
<text x="426.18" y="704" font-size="11" fill="#555555" text-anchor="middle">01-03</text>
<text x="426.18" y="720" font-size="11" fill="#555555" text-anchor="middle">16:00</text>
<line x1="500.88" y1="585.91" x2="500.88" y2="627.76" stroke="#e74c3c" stroke-width="2"/>
<rect x="479.22" y="599.53" width="43.33" height="12.93" fill="#e74c3c" stroke="#e74c3c" stroke-width="1"/>
<text x="500.88" y="704" font-size="11" fill="#555555" text-anchor="middle">01-03</text>
<text x="500.88" y="720" font-size="11" fill="#555555" text-anchor="middle">20:00</text>
<line x1="575.59" y1="606.90" x2="575.59" y2="650.00" stroke="#e74c3c" stroke-width="2"/>
<rect x="553.92" y="612.88" width="43.33" height="29.06" fill="#e74c3c" stroke="#e74c3c" stroke-width="1"/>
<text x="575.59" y="704" font-size="11" fill="#555555" text-anchor="middle">01-04</text>
<text x="575.59" y="720" font-size="11" fill="#555555" text-anchor="middle">00:00</text>
<line x1="650.29" y1="612.88" x2="650.29" y2="642.49" stroke="#2ecc71" stroke-width="2"/>
<rect x="628.63" y="615.80" width="43.33" height="26.14" fill="#2ecc71" stroke="#2ecc71" stroke-width="1"/>
<text x="650.29" y="704" font-size="11" fill="#555555" text-anchor="middle">01-04</text>
<text x="650.29" y="720" font-size="11" fill="#555555" text-anchor="middle">04:00</text>
<line x1="725.00" y1="343.87" x2="725.00" y2="622.75" stroke="#2ecc71" stroke-width="2"/>
<rect x="703.34" y="371.96" width="43.33" height="243.84" fill="#2ecc71" stroke="#2ecc71" stroke-width="1"/>
<text x="725.00" y="704" font-size="11" fill="#555555" text-anchor="middle">01-04</text>
<text x="725.00" y="720" font-size="11" fill="#555555" text-anchor="middle">08:00</text>
<line x1="799.71" y1="334.70" x2="799.71" y2="397.40" stroke="#2ecc71" stroke-width="2"/>
<rect x="778.04" y="358.89" width="43.33" height="13.62" fill="#2ecc71" stroke="#2ecc71" stroke-width="1"/>
<text x="799.71" y="704" font-size="11" fill="#555555" text-anchor="middle">01-04</text>
<text x="799.71" y="720" font-size="11" fill="#555555" text-anchor="middle">12:00</text>
<line x1="874.41" y1="295.22" x2="874.41" y2="376.13" stroke="#2ecc71" stroke-width="2"/>
<rect x="852.75" y="319.27" width="43.33" height="39.76" fill="#2ecc71" stroke="#2ecc71" stroke-width="1"/>
<text x="874.41" y="704" font-size="11" fill="#555555" text-anchor="middle">01-04</text>
<text x="874.41" y="720" font-size="11" fill="#555555" text-anchor="middle">16:00</text>
<line x1="949.12" y1="214.58" x2="949.12" y2="331.92" stroke="#2ecc71" stroke-width="2"/>
<rect x="927.45" y="244.33" width="43.33" height="74.65" fill="#2ecc71" stroke="#2ecc71" stroke-width="1"/>
<text x="949.12" y="704" font-size="11" fill="#555555" text-anchor="middle">01-04</text>
<text x="949.12" y="720" font-size="11" fill="#555555" text-anchor="middle">20:00</text>
<line x1="1023.82" y1="70.00" x2="1023.82" y2="259.63" stroke="#2ecc71" stroke-width="2"/>
<rect x="1002.16" y="171.76" width="43.33" height="72.71" fill="#2ecc71" stroke="#2ecc71" stroke-width="1"/>
<text x="1023.82" y="704" font-size="11" fill="#555555" text-anchor="middle">01-05</text>
<text x="1023.82" y="720" font-size="11" fill="#555555" text-anchor="middle">00:00</text>
<line x1="1098.53" y1="106.15" x2="1098.53" y2="225.84" stroke="#2ecc71" stroke-width="2"/>
<rect x="1076.86" y="155.92" width="43.33" height="15.15" fill="#2ecc71" stroke="#2ecc71" stroke-width="1"/>
<text x="1098.53" y="704" font-size="11" fill="#555555" text-anchor="middle">01-05</text>
<text x="1098.53" y="720" font-size="11" fill="#555555" text-anchor="middle">04:00</text>
<line x1="1173.24" y1="133.81" x2="1173.24" y2="218.06" stroke="#e74c3c" stroke-width="2"/>
<rect x="1151.57" y="155.92" width="43.33" height="28.08" fill="#e74c3c" stroke="#e74c3c" stroke-width="1"/>
<text x="1173.24" y="704" font-size="11" fill="#555555" text-anchor="middle">01-05</text>
<text x="1173.24" y="720" font-size="11" fill="#555555" text-anchor="middle">08:00</text>
<line x1="1247.94" y1="105.03" x2="1247.94" y2="194.84" stroke="#2ecc71" stroke-width="2"/>
<rect x="1226.28" y="169.96" width="43.33" height="13.90" fill="#2ecc71" stroke="#2ecc71" stroke-width="1"/>
<text x="1247.94" y="704" font-size="11" fill="#555555" text-anchor="middle">01-05</text>
<text x="1247.94" y="720" font-size="11" fill="#555555" text-anchor="middle">12:00</text>
<line x1="1322.65" y1="169.40" x2="1322.65" y2="253.09" stroke="#e74c3c" stroke-width="2"/>
<rect x="1300.98" y="169.96" width="43.33" height="53.38" fill="#e74c3c" stroke="#e74c3c" stroke-width="1"/>
<text x="1322.65" y="704" font-size="11" fill="#555555" text-anchor="middle">01-05</text>
<text x="1322.65" y="720" font-size="11" fill="#555555" text-anchor="middle">16:00</text>
<line x1="725.00" y1="343.87" x2="805.00" y2="273.87" stroke="#f1c40f" stroke-width="2"/>
<rect x="805.00" y="225.87" width="220" height="72" rx="8" fill="#fff8dc" stroke="#f1c40f"/>
<text x="815.00" y="249.87" font-size="12" fill="#111111">目标K线 2023-01-04 08:00</text>
<text x="815.00" y="267.87" font-size="12" fill="#111111">振幅 12.62%</text>
<text x="815.00" y="285.87" font-size="12" fill="#111111">倍数 9.31x</text>
<line x1="650.29" y1="612.88" x2="620.29" y2="572.88" stroke="#3498db" stroke-width="2"/>
<rect x="400.29" y="536.88" width="220" height="58" rx="8" fill="#eef6ff" stroke="#3498db"/>
<text x="410.29" y="558.88" font-size="12" fill="#111111">前一根涨幅 1.20%</text>
<text x="410.29" y="576.88" font-size="12" fill="#111111">前一根振幅 1.36%</text>
</svg>