<svg xmlns="http://www.w3.org/2000/svg" width="1400" height="760" viewBox="0 0 1400 760">
<rect width="100%" height="100%" fill="#fcfcfc"/>
<text x="90" y="36" font-size="26" font-weight="700" fill="#111111">FLOKI-USDT-SWAP 4H - 9倍命中</text>
<line x1="90" y1="70.00" x2="1360" y2="70.00" stroke="#d9d9d9" stroke-dasharray="4 4" stroke-width="1"/>
<text x="12" y="74.00" font-size="12" fill="#555555">0.000089</text>
<line x1="90" y1="186.00" x2="1360" y2="186.00" stroke="#d9d9d9" stroke-dasharray="4 4" stroke-width="1"/>
<text x="12" y="190.00" font-size="12" fill="#555555">0.000084</text>
<line x1="90" y1="302.00" x2="1360" y2="302.00" stroke="#d9d9d9" stroke-dasharray="4 4" stroke-width="1"/>
<text x="12" y="306.00" font-size="12" fill="#555555">0.000079</text>
<line x1="90" y1="418.00" x2="1360" y2="418.00" stroke="#d9d9d9" stroke-dasharray="4 4" stroke-width="1"/>
<text x="12" y="422.00" font-size="12" fill="#555555">0.000074</text>
<line x1="90" y1="534.00" x2="1360" y2="534.00" stroke="#d9d9d9" stroke-dasharray="4 4" stroke-width="1"/>
<text x="12" y="538.00" font-size="12" fill="#555555">0.000069</text>
<line x1="90" y1="650.00" x2="1360" y2="650.00" stroke="#d9d9d9" stroke-dasharray="4 4" stroke-width="1"/>
<text x="12" y="654.00" font-size="12" fill="#555555">0.000064</text>
<rect x="687.65" y="70" width="74.71" height="580.00" fill="#f1c40f" opacity="0.16"/>
<rect x="612.94" y="70" width="74.71" height="580.00" fill="#3498db" opacity="0.10"/>
<line x1="127.35" y1="610.12" x2="127.35" y2="637.01" stroke="#2ecc71" stroke-width="2"/>
<rect x="105.69" y="613.31" width="43.33" height="11.62" fill="#2ecc71" stroke="#2ecc71" stroke-width="1"/>
<text x="127.35" y="704" font-size="11" fill="#555555" text-anchor="middle">10-19</text>
<text x="127.35" y="720" font-size="11" fill="#555555" text-anchor="middle">08:00</text>
<line x1="202.06" y1="611.49" x2="202.06" y2="636.10" stroke="#e74c3c" stroke-width="2"/>
<rect x="180.39" y="613.31" width="43.33" height="13.90" fill="#e74c3c" stroke="#e74c3c" stroke-width="1"/>
<text x="202.06" y="704" font-size="11" fill="#555555" text-anchor="middle">10-19</text>
<text x="202.06" y="720" font-size="11" fill="#555555" text-anchor="middle">12:00</text>
<line x1="276.76" y1="577.07" x2="276.76" y2="650.00" stroke="#2ecc71" stroke-width="2"/>
<rect x="255.10" y="595.30" width="43.33" height="31.91" fill="#2ecc71" stroke="#2ecc71" stroke-width="1"/>
<text x="276.76" y="704" font-size="11" fill="#555555" text-anchor="middle">10-19</text>
<text x="276.76" y="720" font-size="11" fill="#555555" text-anchor="middle">16:00</text>
<line x1="351.47" y1="546.99" x2="351.47" y2="603.96" stroke="#2ecc71" stroke-width="2"/>
<rect x="329.81" y="554.97" width="43.33" height="40.11" fill="#2ecc71" stroke="#2ecc71" stroke-width="1"/>
<text x="351.47" y="704" font-size="11" fill="#555555" text-anchor="middle">10-19</text>
<text x="351.47" y="720" font-size="11" fill="#555555" text-anchor="middle">20:00</text>
<line x1="426.18" y1="530.81" x2="426.18" y2="565.22" stroke="#e74c3c" stroke-width="2"/>
<rect x="404.51" y="554.74" width="43.33" height="6.61" fill="#e74c3c" stroke="#e74c3c" stroke-width="1"/>
<text x="426.18" y="704" font-size="11" fill="#555555" text-anchor="middle">10-20</text>
<text x="426.18" y="720" font-size="11" fill="#555555" text-anchor="middle">00:00</text>
<line x1="500.88" y1="558.84" x2="500.88" y2="582.54" stroke="#e74c3c" stroke-width="2"/>
<rect x="479.22" y="561.12" width="43.33" height="17.78" fill="#e74c3c" stroke="#e74c3c" stroke-width="1"/>
<text x="500.88" y="704" font-size="11" fill="#555555" text-anchor="middle">10-20</text>
<text x="500.88" y="720" font-size="11" fill="#555555" text-anchor="middle">04:00</text>
<line x1="575.59" y1="542.66" x2="575.59" y2="613.31" stroke="#2ecc71" stroke-width="2"/>
<rect x="553.92" y="547.90" width="43.33" height="30.99" fill="#2ecc71" stroke="#2ecc71" stroke-width="1"/>
<text x="575.59" y="704" font-size="11" fill="#555555" text-anchor="middle">10-20</text>
<text x="575.59" y="720" font-size="11" fill="#555555" text-anchor="middle">08:00</text>
<line x1="650.29" y1="510.53" x2="650.29" y2="556.11" stroke="#2ecc71" stroke-width="2"/>
<rect x="628.63" y="523.06" width="43.33" height="24.39" fill="#2ecc71" stroke="#2ecc71" stroke-width="1"/>
<text x="650.29" y="704" font-size="11" fill="#555555" text-anchor="middle">10-20</text>
<text x="650.29" y="720" font-size="11" fill="#555555" text-anchor="middle">12:00</text>
<line x1="725.00" y1="70.00" x2="725.00" y2="532.86" stroke="#2ecc71" stroke-width="2"/>
<rect x="703.34" y="292.66" width="43.33" height="230.63" fill="#2ecc71" stroke="#2ecc71" stroke-width="1"/>
<text x="725.00" y="704" font-size="11" fill="#555555" text-anchor="middle">10-20</text>
<text x="725.00" y="720" font-size="11" fill="#555555" text-anchor="middle">16:00</text>
<line x1="799.71" y1="79.57" x2="799.71" y2="307.01" stroke="#2ecc71" stroke-width="2"/>
<rect x="778.04" y="183.95" width="43.33" height="108.94" fill="#2ecc71" stroke="#2ecc71" stroke-width="1"/>
<text x="799.71" y="704" font-size="11" fill="#555555" text-anchor="middle">10-20</text>
<text x="799.71" y="720" font-size="11" fill="#555555" text-anchor="middle">20:00</text>
<line x1="874.41" y1="100.54" x2="874.41" y2="289.24" stroke="#e74c3c" stroke-width="2"/>
<rect x="852.75" y="183.95" width="43.33" height="79.54" fill="#e74c3c" stroke="#e74c3c" stroke-width="1"/>
<text x="874.41" y="704" font-size="11" fill="#555555" text-anchor="middle">10-21</text>
<text x="874.41" y="720" font-size="11" fill="#555555" text-anchor="middle">00:00</text>
<line x1="949.12" y1="203.32" x2="949.12" y2="329.12" stroke="#e74c3c" stroke-width="2"/>
<rect x="927.45" y="263.49" width="43.33" height="22.79" fill="#e74c3c" stroke="#e74c3c" stroke-width="1"/>
<text x="949.12" y="704" font-size="11" fill="#555555" text-anchor="middle">10-21</text>
<text x="949.12" y="720" font-size="11" fill="#555555" text-anchor="middle">04:00</text>
<line x1="1023.82" y1="283.08" x2="1023.82" y2="386.55" stroke="#e74c3c" stroke-width="2"/>
<rect x="1002.16" y="286.50" width="43.33" height="90.02" fill="#e74c3c" stroke="#e74c3c" stroke-width="1"/>
<text x="1023.82" y="704" font-size="11" fill="#555555" text-anchor="middle">10-21</text>
<text x="1023.82" y="720" font-size="11" fill="#555555" text-anchor="middle">08:00</text>
<line x1="1098.53" y1="376.07" x2="1098.53" y2="425.29" stroke="#e74c3c" stroke-width="2"/>
<rect x="1076.86" y="376.52" width="43.33" height="22.56" fill="#e74c3c" stroke="#e74c3c" stroke-width="1"/>
<text x="1098.53" y="704" font-size="11" fill="#555555" text-anchor="middle">10-21</text>
<text x="1098.53" y="720" font-size="11" fill="#555555" text-anchor="middle">12:00</text>
<line x1="1173.24" y1="397.49" x2="1173.24" y2="444.89" stroke="#e74c3c" stroke-width="2"/>
<rect x="1151.57" y="398.86" width="43.33" height="12.08" fill="#e74c3c" stroke="#e74c3c" stroke-width="1"/>
<text x="1173.24" y="704" font-size="11" fill="#555555" text-anchor="middle">10-21</text>
<text x="1173.24" y="720" font-size="11" fill="#555555" text-anchor="middle">16:00</text>
<line x1="1247.94" y1="186.68" x2="1247.94" y2="434.64" stroke="#2ecc71" stroke-width="2"/>
<rect x="1226.28" y="281.03" width="43.33" height="129.90" fill="#2ecc71" stroke="#2ecc71" stroke-width="1"/>
<text x="1247.94" y="704" font-size="11" fill="#555555" text-anchor="middle">10-21</text>
<text x="1247.94" y="720" font-size="11" fill="#555555" text-anchor="middle">20:00</text>
<line x1="1322.65" y1="258.93" x2="1322.65" y2="358.06" stroke="#e74c3c" stroke-width="2"/>
<rect x="1300.98" y="281.26" width="43.33" height="58.57" fill="#e74c3c" stroke="#e74c3c" stroke-width="1"/>
<text x="1322.65" y="704" font-size="11" fill="#555555" text-anchor="middle">10-22</text>
<text x="1322.65" y="720" font-size="11" fill="#555555" text-anchor="middle">00:00</text>
<line x1="725.00" y1="70.00" x2="805.00" y2="90.00" stroke="#f1c40f" stroke-width="2"/>
<rect x="805.00" y="42.00" width="220" height="72" rx="8" fill="#fff8dc" stroke="#f1c40f"/>
<text x="815.00" y="66.00" font-size="12" fill="#111111">目标K线 2025-10-20 16:00</text>
<text x="815.00" y="84.00" font-size="12" fill="#111111">振幅 29.31%</text>
<text x="815.00" y="102.00" font-size="12" fill="#111111">倍数 10.00x</text>
<line x1="650.29" y1="510.53" x2="620.29" y2="470.53" stroke="#3498db" stroke-width="2"/>
<rect x="400.29" y="434.53" width="220" height="58" rx="8" fill="#eef6ff" stroke="#3498db"/>
<text x="410.29" y="456.53" font-size="12" fill="#111111">前一根涨幅 1.57%</text>
<text x="410.29" y="474.53" font-size="12" fill="#111111">前一根振幅 2.93%</text>
</svg>