<svg xmlns="http://www.w3.org/2000/svg" width="1400" height="760" viewBox="0 0 1400 760">
<rect width="100%" height="100%" fill="#fcfcfc"/>
<text x="90" y="36" font-size="26" font-weight="700" fill="#111111">HMSTR-USDT-SWAP 4H - 9倍命中</text>
<line x1="90" y1="70.00" x2="1360" y2="70.00" stroke="#d9d9d9" stroke-dasharray="4 4" stroke-width="1"/>
<text x="12" y="74.00" font-size="12" fill="#555555">0.000592</text>
<line x1="90" y1="186.00" x2="1360" y2="186.00" stroke="#d9d9d9" stroke-dasharray="4 4" stroke-width="1"/>
<text x="12" y="190.00" font-size="12" fill="#555555">0.000535</text>
<line x1="90" y1="302.00" x2="1360" y2="302.00" stroke="#d9d9d9" stroke-dasharray="4 4" stroke-width="1"/>
<text x="12" y="306.00" font-size="12" fill="#555555">0.000479</text>
<line x1="90" y1="418.00" x2="1360" y2="418.00" stroke="#d9d9d9" stroke-dasharray="4 4" stroke-width="1"/>
<text x="12" y="422.00" font-size="12" fill="#555555">0.000422</text>
<line x1="90" y1="534.00" x2="1360" y2="534.00" stroke="#d9d9d9" stroke-dasharray="4 4" stroke-width="1"/>
<text x="12" y="538.00" font-size="12" fill="#555555">0.000366</text>
<line x1="90" y1="650.00" x2="1360" y2="650.00" stroke="#d9d9d9" stroke-dasharray="4 4" stroke-width="1"/>
<text x="12" y="654.00" font-size="12" fill="#555555">0.000309</text>
<rect x="687.65" y="70" width="74.71" height="580.00" fill="#f1c40f" opacity="0.16"/>
<rect x="612.94" y="70" width="74.71" height="580.00" fill="#3498db" opacity="0.10"/>
<line x1="127.35" y1="522.05" x2="127.35" y2="611.39" stroke="#e74c3c" stroke-width="2"/>
<rect x="105.69" y="532.93" width="43.33" height="56.69" fill="#e74c3c" stroke="#e74c3c" stroke-width="1"/>
<text x="127.35" y="704" font-size="11" fill="#555555" text-anchor="middle">11-03</text>
<text x="127.35" y="720" font-size="11" fill="#555555" text-anchor="middle">20:00</text>
<line x1="202.06" y1="572.78" x2="202.06" y2="594.75" stroke="#e74c3c" stroke-width="2"/>
<rect x="180.39" y="590.03" width="43.33" height="3.90" fill="#e74c3c" stroke="#e74c3c" stroke-width="1"/>
<text x="202.06" y="704" font-size="11" fill="#555555" text-anchor="middle">11-04</text>
<text x="202.06" y="720" font-size="11" fill="#555555" text-anchor="middle">00:00</text>
<line x1="276.76" y1="585.10" x2="276.76" y2="605.64" stroke="#2ecc71" stroke-width="2"/>
<rect x="255.10" y="586.13" width="43.33" height="7.80" fill="#2ecc71" stroke="#2ecc71" stroke-width="1"/>
<text x="276.76" y="704" font-size="11" fill="#555555" text-anchor="middle">11-04</text>
<text x="276.76" y="720" font-size="11" fill="#555555" text-anchor="middle">04:00</text>
<line x1="351.47" y1="570.11" x2="351.47" y2="593.31" stroke="#2ecc71" stroke-width="2"/>
<rect x="329.81" y="571.95" width="43.33" height="14.17" fill="#2ecc71" stroke="#2ecc71" stroke-width="1"/>
<text x="351.47" y="704" font-size="11" fill="#555555" text-anchor="middle">11-04</text>
<text x="351.47" y="720" font-size="11" fill="#555555" text-anchor="middle">08:00</text>
<line x1="426.18" y1="566.20" x2="426.18" y2="610.57" stroke="#e74c3c" stroke-width="2"/>
<rect x="404.51" y="571.75" width="43.33" height="33.68" fill="#e74c3c" stroke="#e74c3c" stroke-width="1"/>
<text x="426.18" y="704" font-size="11" fill="#555555" text-anchor="middle">11-04</text>
<text x="426.18" y="720" font-size="11" fill="#555555" text-anchor="middle">12:00</text>
<line x1="500.88" y1="574.01" x2="500.88" y2="607.08" stroke="#2ecc71" stroke-width="2"/>
<rect x="479.22" y="580.38" width="43.33" height="25.06" fill="#2ecc71" stroke="#2ecc71" stroke-width="1"/>
<text x="500.88" y="704" font-size="11" fill="#555555" text-anchor="middle">11-04</text>
<text x="500.88" y="720" font-size="11" fill="#555555" text-anchor="middle">16:00</text>
<line x1="575.59" y1="564.36" x2="575.59" y2="594.34" stroke="#e74c3c" stroke-width="2"/>
<rect x="553.92" y="580.38" width="43.33" height="1.44" fill="#e74c3c" stroke="#e74c3c" stroke-width="1"/>
<text x="575.59" y="704" font-size="11" fill="#555555" text-anchor="middle">11-04</text>
<text x="575.59" y="720" font-size="11" fill="#555555" text-anchor="middle">20:00</text>
<line x1="650.29" y1="568.26" x2="650.29" y2="622.89" stroke="#2ecc71" stroke-width="2"/>
<rect x="628.63" y="570.11" width="43.33" height="11.50" fill="#2ecc71" stroke="#2ecc71" stroke-width="1"/>
<text x="650.29" y="704" font-size="11" fill="#555555" text-anchor="middle">11-05</text>
<text x="650.29" y="720" font-size="11" fill="#555555" text-anchor="middle">00:00</text>
<line x1="725.00" y1="70.00" x2="725.00" y2="571.34" stroke="#2ecc71" stroke-width="2"/>
<rect x="703.34" y="464.13" width="43.33" height="106.39" fill="#2ecc71" stroke="#2ecc71" stroke-width="1"/>
<text x="725.00" y="704" font-size="11" fill="#555555" text-anchor="middle">11-05</text>
<text x="725.00" y="720" font-size="11" fill="#555555" text-anchor="middle">04:00</text>
<line x1="799.71" y1="449.75" x2="799.71" y2="546.49" stroke="#e74c3c" stroke-width="2"/>
<rect x="778.04" y="464.33" width="43.33" height="75.79" fill="#e74c3c" stroke="#e74c3c" stroke-width="1"/>
<text x="799.71" y="704" font-size="11" fill="#555555" text-anchor="middle">11-05</text>
<text x="799.71" y="720" font-size="11" fill="#555555" text-anchor="middle">08:00</text>
<line x1="874.41" y1="529.65" x2="874.41" y2="567.85" stroke="#2ecc71" stroke-width="2"/>
<rect x="852.75" y="537.25" width="43.33" height="2.67" fill="#2ecc71" stroke="#2ecc71" stroke-width="1"/>
<text x="874.41" y="704" font-size="11" fill="#555555" text-anchor="middle">11-05</text>
<text x="874.41" y="720" font-size="11" fill="#555555" text-anchor="middle">12:00</text>
<line x1="949.12" y1="537.45" x2="949.12" y2="623.51" stroke="#e74c3c" stroke-width="2"/>
<rect x="927.45" y="537.66" width="43.33" height="76.40" fill="#e74c3c" stroke="#e74c3c" stroke-width="1"/>
<text x="949.12" y="704" font-size="11" fill="#555555" text-anchor="middle">11-05</text>
<text x="949.12" y="720" font-size="11" fill="#555555" text-anchor="middle">16:00</text>
<line x1="1023.82" y1="603.38" x2="1023.82" y2="650.00" stroke="#e74c3c" stroke-width="2"/>
<rect x="1002.16" y="614.26" width="43.33" height="19.10" fill="#e74c3c" stroke="#e74c3c" stroke-width="1"/>
<text x="1023.82" y="704" font-size="11" fill="#555555" text-anchor="middle">11-05</text>
<text x="1023.82" y="720" font-size="11" fill="#555555" text-anchor="middle">20:00</text>
<line x1="1098.53" y1="557.37" x2="1098.53" y2="638.70" stroke="#2ecc71" stroke-width="2"/>
<rect x="1076.86" y="585.10" width="43.33" height="48.06" fill="#2ecc71" stroke="#2ecc71" stroke-width="1"/>
<text x="1098.53" y="704" font-size="11" fill="#555555" text-anchor="middle">11-06</text>
<text x="1098.53" y="720" font-size="11" fill="#555555" text-anchor="middle">00:00</text>
<line x1="1173.24" y1="538.89" x2="1173.24" y2="585.72" stroke="#2ecc71" stroke-width="2"/>
<rect x="1151.57" y="572.78" width="43.33" height="12.53" fill="#2ecc71" stroke="#2ecc71" stroke-width="1"/>
<text x="1173.24" y="704" font-size="11" fill="#555555" text-anchor="middle">11-06</text>
<text x="1173.24" y="720" font-size="11" fill="#555555" text-anchor="middle">04:00</text>
<line x1="1247.94" y1="572.37" x2="1247.94" y2="607.28" stroke="#e74c3c" stroke-width="2"/>
<rect x="1226.28" y="572.78" width="43.33" height="21.77" fill="#e74c3c" stroke="#e74c3c" stroke-width="1"/>
<text x="1247.94" y="704" font-size="11" fill="#555555" text-anchor="middle">11-06</text>
<text x="1247.94" y="720" font-size="11" fill="#555555" text-anchor="middle">08:00</text>
<line x1="1322.65" y1="582.02" x2="1322.65" y2="623.09" stroke="#e74c3c" stroke-width="2"/>
<rect x="1300.98" y="594.55" width="43.33" height="18.48" fill="#e74c3c" stroke="#e74c3c" stroke-width="1"/>
<text x="1322.65" y="704" font-size="11" fill="#555555" text-anchor="middle">11-06</text>
<text x="1322.65" y="720" font-size="11" fill="#555555" text-anchor="middle">12:00</text>
<line x1="725.00" y1="70.00" x2="805.00" y2="90.00" stroke="#f1c40f" stroke-width="2"/>
<rect x="805.00" y="42.00" width="220" height="72" rx="8" fill="#fff8dc" stroke="#f1c40f"/>
<text x="815.00" y="66.00" font-size="12" fill="#111111">目标K线 2025-11-05 04:00</text>
<text x="815.00" y="84.00" font-size="12" fill="#111111">振幅 70.12%</text>
<text x="815.00" y="102.00" font-size="12" fill="#111111">倍数 9.03x</text>
<line x1="650.29" y1="568.26" x2="620.29" y2="528.26" stroke="#3498db" stroke-width="2"/>
<rect x="400.29" y="492.26" width="220" height="58" rx="8" fill="#eef6ff" stroke="#3498db"/>
<text x="410.29" y="514.26" font-size="12" fill="#111111">前一根涨幅 1.63%</text>
<text x="410.29" y="532.26" font-size="12" fill="#111111">前一根振幅 7.76%</text>
</svg>