<svg xmlns="http://www.w3.org/2000/svg" width="1400" height="760" viewBox="0 0 1400 760">
<rect width="100%" height="100%" fill="#fcfcfc"/>
<text x="90" y="36" font-size="26" font-weight="700" fill="#111111">JELLYJELLY-USDT-SWAP 4H - 9倍命中</text>
<line x1="90" y1="70.00" x2="1360" y2="70.00" stroke="#d9d9d9" stroke-dasharray="4 4" stroke-width="1"/>
<text x="12" y="74.00" font-size="12" fill="#555555">0.115100</text>
<line x1="90" y1="186.00" x2="1360" y2="186.00" stroke="#d9d9d9" stroke-dasharray="4 4" stroke-width="1"/>
<text x="12" y="190.00" font-size="12" fill="#555555">0.105988</text>
<line x1="90" y1="302.00" x2="1360" y2="302.00" stroke="#d9d9d9" stroke-dasharray="4 4" stroke-width="1"/>
<text x="12" y="306.00" font-size="12" fill="#555555">0.096876</text>
<line x1="90" y1="418.00" x2="1360" y2="418.00" stroke="#d9d9d9" stroke-dasharray="4 4" stroke-width="1"/>
<text x="12" y="422.00" font-size="12" fill="#555555">0.087764</text>
<line x1="90" y1="534.00" x2="1360" y2="534.00" stroke="#d9d9d9" stroke-dasharray="4 4" stroke-width="1"/>
<text x="12" y="538.00" font-size="12" fill="#555555">0.078652</text>
<line x1="90" y1="650.00" x2="1360" y2="650.00" stroke="#d9d9d9" stroke-dasharray="4 4" stroke-width="1"/>
<text x="12" y="654.00" font-size="12" fill="#555555">0.069540</text>
<rect x="687.65" y="70" width="74.71" height="580.00" fill="#f1c40f" opacity="0.16"/>
<rect x="612.94" y="70" width="74.71" height="580.00" fill="#3498db" opacity="0.10"/>
<line x1="127.35" y1="407.10" x2="127.35" y2="451.28" stroke="#2ecc71" stroke-width="2"/>
<rect x="105.69" y="420.34" width="43.33" height="24.44" fill="#2ecc71" stroke="#2ecc71" stroke-width="1"/>
<text x="127.35" y="704" font-size="11" fill="#555555" text-anchor="middle">03-05</text>
<text x="127.35" y="720" font-size="11" fill="#555555" text-anchor="middle">00:00</text>
<line x1="202.06" y1="420.22" x2="202.06" y2="476.99" stroke="#e74c3c" stroke-width="2"/>
<rect x="180.39" y="420.60" width="43.33" height="48.63" fill="#e74c3c" stroke="#e74c3c" stroke-width="1"/>
<text x="202.06" y="704" font-size="11" fill="#555555" text-anchor="middle">03-05</text>
<text x="202.06" y="720" font-size="11" fill="#555555" text-anchor="middle">04:00</text>
<line x1="276.76" y1="458.53" x2="276.76" y2="501.31" stroke="#e74c3c" stroke-width="2"/>
<rect x="255.10" y="468.72" width="43.33" height="16.68" fill="#e74c3c" stroke="#e74c3c" stroke-width="1"/>
<text x="276.76" y="704" font-size="11" fill="#555555" text-anchor="middle">03-05</text>
<text x="276.76" y="720" font-size="11" fill="#555555" text-anchor="middle">08:00</text>
<line x1="351.47" y1="476.10" x2="351.47" y2="512.51" stroke="#2ecc71" stroke-width="2"/>
<rect x="329.81" y="482.85" width="43.33" height="2.42" fill="#2ecc71" stroke="#2ecc71" stroke-width="1"/>
<text x="351.47" y="704" font-size="11" fill="#555555" text-anchor="middle">03-05</text>
<text x="351.47" y="720" font-size="11" fill="#555555" text-anchor="middle">12:00</text>
<line x1="426.18" y1="370.69" x2="426.18" y2="487.81" stroke="#2ecc71" stroke-width="2"/>
<rect x="404.51" y="434.22" width="43.33" height="48.63" fill="#2ecc71" stroke="#2ecc71" stroke-width="1"/>
<text x="426.18" y="704" font-size="11" fill="#555555" text-anchor="middle">03-05</text>
<text x="426.18" y="720" font-size="11" fill="#555555" text-anchor="middle">16:00</text>
<line x1="500.88" y1="341.54" x2="500.88" y2="444.53" stroke="#2ecc71" stroke-width="2"/>
<rect x="479.22" y="387.50" width="43.33" height="46.59" fill="#2ecc71" stroke="#2ecc71" stroke-width="1"/>
<text x="500.88" y="704" font-size="11" fill="#555555" text-anchor="middle">03-05</text>
<text x="500.88" y="720" font-size="11" fill="#555555" text-anchor="middle">20:00</text>
<line x1="575.59" y1="375.53" x2="575.59" y2="432.95" stroke="#e74c3c" stroke-width="2"/>
<rect x="553.92" y="387.50" width="43.33" height="37.43" fill="#e74c3c" stroke="#e74c3c" stroke-width="1"/>
<text x="575.59" y="704" font-size="11" fill="#555555" text-anchor="middle">03-06</text>
<text x="575.59" y="720" font-size="11" fill="#555555" text-anchor="middle">00:00</text>
<line x1="650.29" y1="403.92" x2="650.29" y2="431.55" stroke="#2ecc71" stroke-width="2"/>
<rect x="628.63" y="409.14" width="43.33" height="15.79" fill="#2ecc71" stroke="#2ecc71" stroke-width="1"/>
<text x="650.29" y="704" font-size="11" fill="#555555" text-anchor="middle">03-06</text>
<text x="650.29" y="720" font-size="11" fill="#555555" text-anchor="middle">04:00</text>
<line x1="725.00" y1="144.09" x2="725.00" y2="419.83" stroke="#2ecc71" stroke-width="2"/>
<rect x="703.34" y="172.48" width="43.33" height="237.04" fill="#2ecc71" stroke="#2ecc71" stroke-width="1"/>
<text x="725.00" y="704" font-size="11" fill="#555555" text-anchor="middle">03-06</text>
<text x="725.00" y="720" font-size="11" fill="#555555" text-anchor="middle">08:00</text>
<line x1="799.71" y1="70.00" x2="799.71" y2="488.83" stroke="#e74c3c" stroke-width="2"/>
<rect x="778.04" y="172.61" width="43.33" height="235.39" fill="#e74c3c" stroke="#e74c3c" stroke-width="1"/>
<text x="799.71" y="704" font-size="11" fill="#555555" text-anchor="middle">03-06</text>
<text x="799.71" y="720" font-size="11" fill="#555555" text-anchor="middle">12:00</text>
<line x1="874.41" y1="352.87" x2="874.41" y2="549.05" stroke="#e74c3c" stroke-width="2"/>
<rect x="852.75" y="409.27" width="43.33" height="68.36" fill="#e74c3c" stroke="#e74c3c" stroke-width="1"/>
<text x="874.41" y="704" font-size="11" fill="#555555" text-anchor="middle">03-06</text>
<text x="874.41" y="720" font-size="11" fill="#555555" text-anchor="middle">16:00</text>
<line x1="949.12" y1="468.21" x2="949.12" y2="509.07" stroke="#e74c3c" stroke-width="2"/>
<rect x="927.45" y="478.14" width="43.33" height="1.20" fill="#e74c3c" stroke="#e74c3c" stroke-width="1"/>
<text x="949.12" y="704" font-size="11" fill="#555555" text-anchor="middle">03-06</text>
<text x="949.12" y="720" font-size="11" fill="#555555" text-anchor="middle">20:00</text>
<line x1="1023.82" y1="461.97" x2="1023.82" y2="485.78" stroke="#e74c3c" stroke-width="2"/>
<rect x="1002.16" y="478.14" width="43.33" height="3.06" fill="#e74c3c" stroke="#e74c3c" stroke-width="1"/>
<text x="1023.82" y="704" font-size="11" fill="#555555" text-anchor="middle">03-07</text>
<text x="1023.82" y="720" font-size="11" fill="#555555" text-anchor="middle">00:00</text>
<line x1="1098.53" y1="478.27" x2="1098.53" y2="650.00" stroke="#e74c3c" stroke-width="2"/>
<rect x="1076.86" y="481.45" width="43.33" height="68.11" fill="#e74c3c" stroke="#e74c3c" stroke-width="1"/>
<text x="1098.53" y="704" font-size="11" fill="#555555" text-anchor="middle">03-07</text>
<text x="1098.53" y="720" font-size="11" fill="#555555" text-anchor="middle">04:00</text>
<line x1="1173.24" y1="428.24" x2="1173.24" y2="565.85" stroke="#2ecc71" stroke-width="2"/>
<rect x="1151.57" y="453.44" width="43.33" height="95.99" fill="#2ecc71" stroke="#2ecc71" stroke-width="1"/>
<text x="1173.24" y="704" font-size="11" fill="#555555" text-anchor="middle">03-07</text>
<text x="1173.24" y="720" font-size="11" fill="#555555" text-anchor="middle">08:00</text>
<line x1="1247.94" y1="435.62" x2="1247.94" y2="458.79" stroke="#2ecc71" stroke-width="2"/>
<rect x="1226.28" y="447.08" width="43.33" height="6.37" fill="#2ecc71" stroke="#2ecc71" stroke-width="1"/>
<text x="1247.94" y="704" font-size="11" fill="#555555" text-anchor="middle">03-07</text>
<text x="1247.94" y="720" font-size="11" fill="#555555" text-anchor="middle">12:00</text>
<line x1="1322.65" y1="415.50" x2="1322.65" y2="550.32" stroke="#e74c3c" stroke-width="2"/>
<rect x="1300.98" y="447.33" width="43.33" height="87.71" fill="#e74c3c" stroke="#e74c3c" stroke-width="1"/>
<text x="1322.65" y="704" font-size="11" fill="#555555" text-anchor="middle">03-07</text>
<text x="1322.65" y="720" font-size="11" fill="#555555" text-anchor="middle">16:00</text>
<line x1="725.00" y1="144.09" x2="805.00" y2="90.00" stroke="#f1c40f" stroke-width="2"/>
<rect x="805.00" y="42.00" width="220" height="72" rx="8" fill="#fff8dc" stroke="#f1c40f"/>
<text x="815.00" y="66.00" font-size="12" fill="#111111">目标K线 2026-03-06 08:00</text>
<text x="815.00" y="84.00" font-size="12" fill="#111111">振幅 24.49%</text>
<text x="815.00" y="102.00" font-size="12" fill="#111111">倍数 9.84x</text>
<line x1="650.29" y1="403.92" x2="620.29" y2="363.92" stroke="#3498db" stroke-width="2"/>
<rect x="400.29" y="327.92" width="220" height="58" rx="8" fill="#eef6ff" stroke="#3498db"/>
<text x="410.29" y="349.92" font-size="12" fill="#111111">前一根涨幅 1.42%</text>
<text x="410.29" y="367.92" font-size="12" fill="#111111">前一根振幅 2.49%</text>
</svg>