<svg xmlns="http://www.w3.org/2000/svg" width="1400" height="760" viewBox="0 0 1400 760">
<rect width="100%" height="100%" fill="#fcfcfc"/>
<text x="90" y="36" font-size="26" font-weight="700" fill="#111111">LPT-USDT-SWAP 4H - 9倍命中</text>
<line x1="90" y1="70.00" x2="1360" y2="70.00" stroke="#d9d9d9" stroke-dasharray="4 4" stroke-width="1"/>
<text x="12" y="74.00" font-size="12" fill="#555555">35.320000</text>
<line x1="90" y1="186.00" x2="1360" y2="186.00" stroke="#d9d9d9" stroke-dasharray="4 4" stroke-width="1"/>
<text x="12" y="190.00" font-size="12" fill="#555555">33.411800</text>
<line x1="90" y1="302.00" x2="1360" y2="302.00" stroke="#d9d9d9" stroke-dasharray="4 4" stroke-width="1"/>
<text x="12" y="306.00" font-size="12" fill="#555555">31.503600</text>
<line x1="90" y1="418.00" x2="1360" y2="418.00" stroke="#d9d9d9" stroke-dasharray="4 4" stroke-width="1"/>
<text x="12" y="422.00" font-size="12" fill="#555555">29.595400</text>
<line x1="90" y1="534.00" x2="1360" y2="534.00" stroke="#d9d9d9" stroke-dasharray="4 4" stroke-width="1"/>
<text x="12" y="538.00" font-size="12" fill="#555555">27.687200</text>
<line x1="90" y1="650.00" x2="1360" y2="650.00" stroke="#d9d9d9" stroke-dasharray="4 4" stroke-width="1"/>
<text x="12" y="654.00" font-size="12" fill="#555555">25.779000</text>
<rect x="687.65" y="70" width="74.71" height="580.00" fill="#f1c40f" opacity="0.16"/>
<rect x="612.94" y="70" width="74.71" height="580.00" fill="#3498db" opacity="0.10"/>
<line x1="127.35" y1="556.26" x2="127.35" y2="604.59" stroke="#2ecc71" stroke-width="2"/>
<rect x="105.69" y="574.44" width="43.33" height="17.39" fill="#2ecc71" stroke="#2ecc71" stroke-width="1"/>
<text x="127.35" y="704" font-size="11" fill="#555555" text-anchor="middle">11-01</text>
<text x="127.35" y="720" font-size="11" fill="#555555" text-anchor="middle">12:00</text>
<line x1="202.06" y1="565.44" x2="202.06" y2="642.77" stroke="#e74c3c" stroke-width="2"/>
<rect x="180.39" y="575.96" width="43.33" height="49.97" fill="#e74c3c" stroke="#e74c3c" stroke-width="1"/>
<text x="202.06" y="704" font-size="11" fill="#555555" text-anchor="middle">11-01</text>
<text x="202.06" y="720" font-size="11" fill="#555555" text-anchor="middle">16:00</text>
<line x1="276.76" y1="598.45" x2="276.76" y2="647.02" stroke="#2ecc71" stroke-width="2"/>
<rect x="255.10" y="612.07" width="43.33" height="13.80" fill="#2ecc71" stroke="#2ecc71" stroke-width="1"/>
<text x="276.76" y="704" font-size="11" fill="#555555" text-anchor="middle">11-01</text>
<text x="276.76" y="720" font-size="11" fill="#555555" text-anchor="middle">20:00</text>
<line x1="351.47" y1="608.60" x2="351.47" y2="650.00" stroke="#e74c3c" stroke-width="2"/>
<rect x="329.81" y="611.82" width="43.33" height="1.20" fill="#e74c3c" stroke="#e74c3c" stroke-width="1"/>
<text x="351.47" y="704" font-size="11" fill="#555555" text-anchor="middle">11-02</text>
<text x="351.47" y="720" font-size="11" fill="#555555" text-anchor="middle">00:00</text>
<line x1="426.18" y1="595.35" x2="426.18" y2="623.74" stroke="#2ecc71" stroke-width="2"/>
<rect x="404.51" y="598.09" width="43.33" height="14.65" fill="#2ecc71" stroke="#2ecc71" stroke-width="1"/>
<text x="426.18" y="704" font-size="11" fill="#555555" text-anchor="middle">11-02</text>
<text x="426.18" y="720" font-size="11" fill="#555555" text-anchor="middle">04:00</text>
<line x1="500.88" y1="542.40" x2="500.88" y2="624.04" stroke="#2ecc71" stroke-width="2"/>
<rect x="479.22" y="545.74" width="43.33" height="50.88" fill="#2ecc71" stroke="#2ecc71" stroke-width="1"/>
<text x="500.88" y="704" font-size="11" fill="#555555" text-anchor="middle">11-02</text>
<text x="500.88" y="720" font-size="11" fill="#555555" text-anchor="middle">08:00</text>
<line x1="575.59" y1="512.07" x2="575.59" y2="580.58" stroke="#e74c3c" stroke-width="2"/>
<rect x="553.92" y="545.62" width="43.33" height="26.69" fill="#e74c3c" stroke="#e74c3c" stroke-width="1"/>
<text x="575.59" y="704" font-size="11" fill="#555555" text-anchor="middle">11-02</text>
<text x="575.59" y="720" font-size="11" fill="#555555" text-anchor="middle">12:00</text>
<line x1="650.29" y1="526.35" x2="650.29" y2="575.35" stroke="#2ecc71" stroke-width="2"/>
<rect x="628.63" y="544.35" width="43.33" height="29.48" fill="#2ecc71" stroke="#2ecc71" stroke-width="1"/>
<text x="650.29" y="704" font-size="11" fill="#555555" text-anchor="middle">11-02</text>
<text x="650.29" y="720" font-size="11" fill="#555555" text-anchor="middle">16:00</text>
<line x1="725.00" y1="70.00" x2="725.00" y2="544.04" stroke="#2ecc71" stroke-width="2"/>
<rect x="703.34" y="345.56" width="43.33" height="197.39" fill="#2ecc71" stroke="#2ecc71" stroke-width="1"/>
<text x="725.00" y="704" font-size="11" fill="#555555" text-anchor="middle">11-02</text>
<text x="725.00" y="720" font-size="11" fill="#555555" text-anchor="middle">20:00</text>
<line x1="799.71" y1="345.44" x2="799.71" y2="434.32" stroke="#e74c3c" stroke-width="2"/>
<rect x="778.04" y="346.84" width="43.33" height="54.77" fill="#e74c3c" stroke="#e74c3c" stroke-width="1"/>
<text x="799.71" y="704" font-size="11" fill="#555555" text-anchor="middle">11-03</text>
<text x="799.71" y="720" font-size="11" fill="#555555" text-anchor="middle">00:00</text>
<line x1="874.41" y1="389.70" x2="874.41" y2="441.55" stroke="#e74c3c" stroke-width="2"/>
<rect x="852.75" y="399.12" width="43.33" height="11.43" fill="#e74c3c" stroke="#e74c3c" stroke-width="1"/>
<text x="874.41" y="704" font-size="11" fill="#555555" text-anchor="middle">11-03</text>
<text x="874.41" y="720" font-size="11" fill="#555555" text-anchor="middle">04:00</text>
<line x1="949.12" y1="198.09" x2="949.12" y2="414.07" stroke="#2ecc71" stroke-width="2"/>
<rect x="927.45" y="352.37" width="43.33" height="58.60" fill="#2ecc71" stroke="#2ecc71" stroke-width="1"/>
<text x="949.12" y="704" font-size="11" fill="#555555" text-anchor="middle">11-03</text>
<text x="949.12" y="720" font-size="11" fill="#555555" text-anchor="middle">08:00</text>
<line x1="1023.82" y1="348.42" x2="1023.82" y2="449.94" stroke="#e74c3c" stroke-width="2"/>
<rect x="1002.16" y="351.82" width="43.33" height="71.25" fill="#e74c3c" stroke="#e74c3c" stroke-width="1"/>
<text x="1023.82" y="704" font-size="11" fill="#555555" text-anchor="middle">11-03</text>
<text x="1023.82" y="720" font-size="11" fill="#555555" text-anchor="middle">12:00</text>
<line x1="1098.53" y1="419.18" x2="1098.53" y2="472.67" stroke="#e74c3c" stroke-width="2"/>
<rect x="1076.86" y="423.25" width="43.33" height="30.82" fill="#e74c3c" stroke="#e74c3c" stroke-width="1"/>
<text x="1098.53" y="704" font-size="11" fill="#555555" text-anchor="middle">11-03</text>
<text x="1098.53" y="720" font-size="11" fill="#555555" text-anchor="middle">16:00</text>
<line x1="1173.24" y1="437.84" x2="1173.24" y2="514.98" stroke="#2ecc71" stroke-width="2"/>
<rect x="1151.57" y="453.83" width="43.33" height="1.20" fill="#2ecc71" stroke="#2ecc71" stroke-width="1"/>
<text x="1173.24" y="704" font-size="11" fill="#555555" text-anchor="middle">11-03</text>
<text x="1173.24" y="720" font-size="11" fill="#555555" text-anchor="middle">20:00</text>
<line x1="1247.94" y1="421.49" x2="1247.94" y2="491.95" stroke="#2ecc71" stroke-width="2"/>
<rect x="1226.28" y="449.51" width="43.33" height="3.77" fill="#2ecc71" stroke="#2ecc71" stroke-width="1"/>
<text x="1247.94" y="704" font-size="11" fill="#555555" text-anchor="middle">11-04</text>
<text x="1247.94" y="720" font-size="11" fill="#555555" text-anchor="middle">00:00</text>
<line x1="1322.65" y1="417.54" x2="1322.65" y2="450.67" stroke="#2ecc71" stroke-width="2"/>
<rect x="1300.98" y="422.10" width="43.33" height="28.39" fill="#2ecc71" stroke="#2ecc71" stroke-width="1"/>
<text x="1322.65" y="704" font-size="11" fill="#555555" text-anchor="middle">11-04</text>
<text x="1322.65" y="720" font-size="11" fill="#555555" text-anchor="middle">04:00</text>
<line x1="725.00" y1="70.00" x2="805.00" y2="90.00" stroke="#f1c40f" stroke-width="2"/>
<rect x="805.00" y="42.00" width="220" height="72" rx="8" fill="#fff8dc" stroke="#f1c40f"/>
<text x="815.00" y="66.00" font-size="12" fill="#111111">目标K线 2021-11-02 20:00</text>
<text x="815.00" y="84.00" font-size="12" fill="#111111">振幅 28.32%</text>
<text x="815.00" y="102.00" font-size="12" fill="#111111">倍数 9.50x</text>
<line x1="650.29" y1="526.35" x2="620.29" y2="486.35" stroke="#3498db" stroke-width="2"/>
<rect x="400.29" y="450.35" width="220" height="58" rx="8" fill="#eef6ff" stroke="#3498db"/>
<text x="410.29" y="472.35" font-size="12" fill="#111111">前一根涨幅 1.79%</text>
<text x="410.29" y="490.35" font-size="12" fill="#111111">前一根振幅 2.98%</text>
</svg>