<svg xmlns="http://www.w3.org/2000/svg" width="1400" height="760" viewBox="0 0 1400 760">
<rect width="100%" height="100%" fill="#fcfcfc"/>
<text x="90" y="36" font-size="26" font-weight="700" fill="#111111">METIS-USDT-SWAP 4H - 9倍命中</text>
<line x1="90" y1="70.00" x2="1360" y2="70.00" stroke="#d9d9d9" stroke-dasharray="4 4" stroke-width="1"/>
<text x="12" y="74.00" font-size="12" fill="#555555">6.830000</text>
<line x1="90" y1="186.00" x2="1360" y2="186.00" stroke="#d9d9d9" stroke-dasharray="4 4" stroke-width="1"/>
<text x="12" y="190.00" font-size="12" fill="#555555">6.504200</text>
<line x1="90" y1="302.00" x2="1360" y2="302.00" stroke="#d9d9d9" stroke-dasharray="4 4" stroke-width="1"/>
<text x="12" y="306.00" font-size="12" fill="#555555">6.178400</text>
<line x1="90" y1="418.00" x2="1360" y2="418.00" stroke="#d9d9d9" stroke-dasharray="4 4" stroke-width="1"/>
<text x="12" y="422.00" font-size="12" fill="#555555">5.852600</text>
<line x1="90" y1="534.00" x2="1360" y2="534.00" stroke="#d9d9d9" stroke-dasharray="4 4" stroke-width="1"/>
<text x="12" y="538.00" font-size="12" fill="#555555">5.526800</text>
<line x1="90" y1="650.00" x2="1360" y2="650.00" stroke="#d9d9d9" stroke-dasharray="4 4" stroke-width="1"/>
<text x="12" y="654.00" font-size="12" fill="#555555">5.201000</text>
<rect x="687.65" y="70" width="74.71" height="580.00" fill="#f1c40f" opacity="0.16"/>
<rect x="612.94" y="70" width="74.71" height="580.00" fill="#3498db" opacity="0.10"/>
<line x1="127.35" y1="596.24" x2="127.35" y2="650.00" stroke="#e74c3c" stroke-width="2"/>
<rect x="105.69" y="600.51" width="43.33" height="29.91" fill="#e74c3c" stroke="#e74c3c" stroke-width="1"/>
<text x="127.35" y="704" font-size="11" fill="#555555" text-anchor="middle">12-23</text>
<text x="127.35" y="720" font-size="11" fill="#555555" text-anchor="middle">20:00</text>
<line x1="202.06" y1="574.16" x2="202.06" y2="632.55" stroke="#2ecc71" stroke-width="2"/>
<rect x="180.39" y="587.69" width="43.33" height="43.79" fill="#2ecc71" stroke="#2ecc71" stroke-width="1"/>
<text x="202.06" y="704" font-size="11" fill="#555555" text-anchor="middle">12-24</text>
<text x="202.06" y="720" font-size="11" fill="#555555" text-anchor="middle">00:00</text>
<line x1="276.76" y1="570.25" x2="276.76" y2="595.17" stroke="#2ecc71" stroke-width="2"/>
<rect x="255.10" y="579.86" width="43.33" height="6.41" fill="#2ecc71" stroke="#2ecc71" stroke-width="1"/>
<text x="276.76" y="704" font-size="11" fill="#555555" text-anchor="middle">12-24</text>
<text x="276.76" y="720" font-size="11" fill="#555555" text-anchor="middle">04:00</text>
<line x1="351.47" y1="557.07" x2="351.47" y2="619.02" stroke="#e74c3c" stroke-width="2"/>
<rect x="329.81" y="580.93" width="43.33" height="20.29" fill="#e74c3c" stroke="#e74c3c" stroke-width="1"/>
<text x="351.47" y="704" font-size="11" fill="#555555" text-anchor="middle">12-24</text>
<text x="351.47" y="720" font-size="11" fill="#555555" text-anchor="middle">08:00</text>
<line x1="426.18" y1="580.93" x2="426.18" y2="637.89" stroke="#e74c3c" stroke-width="2"/>
<rect x="404.51" y="600.87" width="43.33" height="18.51" fill="#e74c3c" stroke="#e74c3c" stroke-width="1"/>
<text x="426.18" y="704" font-size="11" fill="#555555" text-anchor="middle">12-24</text>
<text x="426.18" y="720" font-size="11" fill="#555555" text-anchor="middle">12:00</text>
<line x1="500.88" y1="596.24" x2="500.88" y2="634.33" stroke="#2ecc71" stroke-width="2"/>
<rect x="479.22" y="615.46" width="43.33" height="6.76" fill="#2ecc71" stroke="#2ecc71" stroke-width="1"/>
<text x="500.88" y="704" font-size="11" fill="#555555" text-anchor="middle">12-24</text>
<text x="500.88" y="720" font-size="11" fill="#555555" text-anchor="middle">16:00</text>
<line x1="575.59" y1="524.67" x2="575.59" y2="620.45" stroke="#2ecc71" stroke-width="2"/>
<rect x="553.92" y="573.09" width="43.33" height="43.44" fill="#2ecc71" stroke="#2ecc71" stroke-width="1"/>
<text x="575.59" y="704" font-size="11" fill="#555555" text-anchor="middle">12-24</text>
<text x="575.59" y="720" font-size="11" fill="#555555" text-anchor="middle">20:00</text>
<line x1="650.29" y1="530.72" x2="650.29" y2="576.30" stroke="#2ecc71" stroke-width="2"/>
<rect x="628.63" y="531.44" width="43.33" height="40.23" fill="#2ecc71" stroke="#2ecc71" stroke-width="1"/>
<text x="650.29" y="704" font-size="11" fill="#555555" text-anchor="middle">12-25</text>
<text x="650.29" y="720" font-size="11" fill="#555555" text-anchor="middle">00:00</text>
<line x1="725.00" y1="107.38" x2="725.00" y2="544.61" stroke="#2ecc71" stroke-width="2"/>
<rect x="703.34" y="148.69" width="43.33" height="382.39" fill="#2ecc71" stroke="#2ecc71" stroke-width="1"/>
<text x="725.00" y="704" font-size="11" fill="#555555" text-anchor="middle">12-25</text>
<text x="725.00" y="720" font-size="11" fill="#555555" text-anchor="middle">04:00</text>
<line x1="799.71" y1="70.00" x2="799.71" y2="339.88" stroke="#e74c3c" stroke-width="2"/>
<rect x="778.04" y="149.04" width="43.33" height="44.51" fill="#e74c3c" stroke="#e74c3c" stroke-width="1"/>
<text x="799.71" y="704" font-size="11" fill="#555555" text-anchor="middle">12-25</text>
<text x="799.71" y="720" font-size="11" fill="#555555" text-anchor="middle">08:00</text>
<line x1="874.41" y1="119.49" x2="874.41" y2="254.79" stroke="#e74c3c" stroke-width="2"/>
<rect x="852.75" y="192.84" width="43.33" height="13.53" fill="#e74c3c" stroke="#e74c3c" stroke-width="1"/>
<text x="874.41" y="704" font-size="11" fill="#555555" text-anchor="middle">12-25</text>
<text x="874.41" y="720" font-size="11" fill="#555555" text-anchor="middle">12:00</text>
<line x1="949.12" y1="191.06" x2="949.12" y2="292.17" stroke="#e74c3c" stroke-width="2"/>
<rect x="927.45" y="207.43" width="43.33" height="45.57" fill="#e74c3c" stroke="#e74c3c" stroke-width="1"/>
<text x="949.12" y="704" font-size="11" fill="#555555" text-anchor="middle">12-25</text>
<text x="949.12" y="720" font-size="11" fill="#555555" text-anchor="middle">16:00</text>
<line x1="1023.82" y1="251.23" x2="1023.82" y2="357.69" stroke="#e74c3c" stroke-width="2"/>
<rect x="1002.16" y="253.36" width="43.33" height="89.01" fill="#e74c3c" stroke="#e74c3c" stroke-width="1"/>
<text x="1023.82" y="704" font-size="11" fill="#555555" text-anchor="middle">12-25</text>
<text x="1023.82" y="720" font-size="11" fill="#555555" text-anchor="middle">20:00</text>
<line x1="1098.53" y1="326.35" x2="1098.53" y2="386.17" stroke="#e74c3c" stroke-width="2"/>
<rect x="1076.86" y="342.38" width="43.33" height="27.42" fill="#e74c3c" stroke="#e74c3c" stroke-width="1"/>
<text x="1098.53" y="704" font-size="11" fill="#555555" text-anchor="middle">12-26</text>
<text x="1098.53" y="720" font-size="11" fill="#555555" text-anchor="middle">00:00</text>
<line x1="1173.24" y1="360.18" x2="1173.24" y2="450.26" stroke="#e74c3c" stroke-width="2"/>
<rect x="1151.57" y="369.08" width="43.33" height="73.70" fill="#e74c3c" stroke="#e74c3c" stroke-width="1"/>
<text x="1173.24" y="704" font-size="11" fill="#555555" text-anchor="middle">12-26</text>
<text x="1173.24" y="720" font-size="11" fill="#555555" text-anchor="middle">04:00</text>
<line x1="1247.94" y1="369.44" x2="1247.94" y2="451.33" stroke="#2ecc71" stroke-width="2"/>
<rect x="1226.28" y="371.57" width="43.33" height="71.21" fill="#2ecc71" stroke="#2ecc71" stroke-width="1"/>
<text x="1247.94" y="704" font-size="11" fill="#555555" text-anchor="middle">12-26</text>
<text x="1247.94" y="720" font-size="11" fill="#555555" text-anchor="middle">08:00</text>
<line x1="1322.65" y1="227.37" x2="1322.65" y2="391.51" stroke="#2ecc71" stroke-width="2"/>
<rect x="1300.98" y="234.49" width="43.33" height="137.43" fill="#2ecc71" stroke="#2ecc71" stroke-width="1"/>
<text x="1322.65" y="704" font-size="11" fill="#555555" text-anchor="middle">12-26</text>
<text x="1322.65" y="720" font-size="11" fill="#555555" text-anchor="middle">12:00</text>
<line x1="725.00" y1="107.38" x2="805.00" y2="90.00" stroke="#f1c40f" stroke-width="2"/>
<rect x="805.00" y="42.00" width="220" height="72" rx="8" fill="#fff8dc" stroke="#f1c40f"/>
<text x="815.00" y="66.00" font-size="12" fill="#111111">目标K线 2025-12-25 04:00</text>
<text x="815.00" y="84.00" font-size="12" fill="#111111">振幅 22.19%</text>
<text x="815.00" y="102.00" font-size="12" fill="#111111">倍数 9.40x</text>
<line x1="650.29" y1="530.72" x2="620.29" y2="490.72" stroke="#3498db" stroke-width="2"/>
<rect x="400.29" y="454.72" width="220" height="58" rx="8" fill="#eef6ff" stroke="#3498db"/>
<text x="410.29" y="476.72" font-size="12" fill="#111111">前一根涨幅 2.08%</text>
<text x="410.29" y="494.72" font-size="12" fill="#111111">前一根振幅 2.36%</text>
</svg>