<svg xmlns="http://www.w3.org/2000/svg" width="1400" height="760" viewBox="0 0 1400 760">
<rect width="100%" height="100%" fill="#fcfcfc"/>
<text x="90" y="36" font-size="26" font-weight="700" fill="#111111">ONT-USDT-SWAP 4H - 9倍命中</text>
<line x1="90" y1="70.00" x2="1360" y2="70.00" stroke="#d9d9d9" stroke-dasharray="4 4" stroke-width="1"/>
<text x="12" y="74.00" font-size="12" fill="#555555">0.478300</text>
<line x1="90" y1="186.00" x2="1360" y2="186.00" stroke="#d9d9d9" stroke-dasharray="4 4" stroke-width="1"/>
<text x="12" y="190.00" font-size="12" fill="#555555">0.438660</text>
<line x1="90" y1="302.00" x2="1360" y2="302.00" stroke="#d9d9d9" stroke-dasharray="4 4" stroke-width="1"/>
<text x="12" y="306.00" font-size="12" fill="#555555">0.399020</text>
<line x1="90" y1="418.00" x2="1360" y2="418.00" stroke="#d9d9d9" stroke-dasharray="4 4" stroke-width="1"/>
<text x="12" y="422.00" font-size="12" fill="#555555">0.359380</text>
<line x1="90" y1="534.00" x2="1360" y2="534.00" stroke="#d9d9d9" stroke-dasharray="4 4" stroke-width="1"/>
<text x="12" y="538.00" font-size="12" fill="#555555">0.319740</text>
<line x1="90" y1="650.00" x2="1360" y2="650.00" stroke="#d9d9d9" stroke-dasharray="4 4" stroke-width="1"/>
<text x="12" y="654.00" font-size="12" fill="#555555">0.280100</text>
<rect x="687.65" y="70" width="74.71" height="580.00" fill="#f1c40f" opacity="0.16"/>
<rect x="612.94" y="70" width="74.71" height="580.00" fill="#3498db" opacity="0.10"/>
<line x1="127.35" y1="355.61" x2="127.35" y2="421.45" stroke="#2ecc71" stroke-width="2"/>
<rect x="105.69" y="376.39" width="43.33" height="10.83" fill="#2ecc71" stroke="#2ecc71" stroke-width="1"/>
<text x="127.35" y="704" font-size="11" fill="#555555" text-anchor="middle">04-11</text>
<text x="127.35" y="720" font-size="11" fill="#555555" text-anchor="middle">08:00</text>
<line x1="202.06" y1="343.61" x2="202.06" y2="389.85" stroke="#2ecc71" stroke-width="2"/>
<rect x="180.39" y="348.29" width="43.33" height="28.39" fill="#2ecc71" stroke="#2ecc71" stroke-width="1"/>
<text x="202.06" y="704" font-size="11" fill="#555555" text-anchor="middle">04-11</text>
<text x="202.06" y="720" font-size="11" fill="#555555" text-anchor="middle">12:00</text>
<line x1="276.76" y1="335.71" x2="276.76" y2="372.29" stroke="#e74c3c" stroke-width="2"/>
<rect x="255.10" y="348.88" width="43.33" height="19.02" fill="#e74c3c" stroke="#e74c3c" stroke-width="1"/>
<text x="276.76" y="704" font-size="11" fill="#555555" text-anchor="middle">04-11</text>
<text x="276.76" y="720" font-size="11" fill="#555555" text-anchor="middle">16:00</text>
<line x1="351.47" y1="336.88" x2="351.47" y2="382.83" stroke="#2ecc71" stroke-width="2"/>
<rect x="329.81" y="346.83" width="43.33" height="21.07" fill="#2ecc71" stroke="#2ecc71" stroke-width="1"/>
<text x="351.47" y="704" font-size="11" fill="#555555" text-anchor="middle">04-11</text>
<text x="351.47" y="720" font-size="11" fill="#555555" text-anchor="middle">20:00</text>
<line x1="426.18" y1="302.94" x2="426.18" y2="376.09" stroke="#e74c3c" stroke-width="2"/>
<rect x="404.51" y="347.12" width="43.33" height="17.85" fill="#e74c3c" stroke="#e74c3c" stroke-width="1"/>
<text x="426.18" y="704" font-size="11" fill="#555555" text-anchor="middle">04-12</text>
<text x="426.18" y="720" font-size="11" fill="#555555" text-anchor="middle">00:00</text>
<line x1="500.88" y1="324.59" x2="500.88" y2="364.97" stroke="#2ecc71" stroke-width="2"/>
<rect x="479.22" y="338.93" width="43.33" height="25.46" fill="#2ecc71" stroke="#2ecc71" stroke-width="1"/>
<text x="500.88" y="704" font-size="11" fill="#555555" text-anchor="middle">04-12</text>
<text x="500.88" y="720" font-size="11" fill="#555555" text-anchor="middle">04:00</text>
<line x1="575.59" y1="339.22" x2="575.59" y2="396.87" stroke="#e74c3c" stroke-width="2"/>
<rect x="553.92" y="339.22" width="43.33" height="51.50" fill="#e74c3c" stroke="#e74c3c" stroke-width="1"/>
<text x="575.59" y="704" font-size="11" fill="#555555" text-anchor="middle">04-12</text>
<text x="575.59" y="720" font-size="11" fill="#555555" text-anchor="middle">08:00</text>
<line x1="650.29" y1="364.10" x2="650.29" y2="392.19" stroke="#2ecc71" stroke-width="2"/>
<rect x="628.63" y="369.36" width="43.33" height="21.95" fill="#2ecc71" stroke="#2ecc71" stroke-width="1"/>
<text x="650.29" y="704" font-size="11" fill="#555555" text-anchor="middle">04-12</text>
<text x="650.29" y="720" font-size="11" fill="#555555" text-anchor="middle">12:00</text>
<line x1="725.00" y1="88.73" x2="725.00" y2="372.58" stroke="#2ecc71" stroke-width="2"/>
<rect x="703.34" y="102.77" width="43.33" height="266.88" fill="#2ecc71" stroke="#2ecc71" stroke-width="1"/>
<text x="725.00" y="704" font-size="11" fill="#555555" text-anchor="middle">04-12</text>
<text x="725.00" y="720" font-size="11" fill="#555555" text-anchor="middle">16:00</text>
<line x1="799.71" y1="70.00" x2="799.71" y2="225.10" stroke="#e74c3c" stroke-width="2"/>
<rect x="778.04" y="103.65" width="43.33" height="97.15" fill="#e74c3c" stroke="#e74c3c" stroke-width="1"/>
<text x="799.71" y="704" font-size="11" fill="#555555" text-anchor="middle">04-12</text>
<text x="799.71" y="720" font-size="11" fill="#555555" text-anchor="middle">20:00</text>
<line x1="874.41" y1="187.64" x2="874.41" y2="452.76" stroke="#e74c3c" stroke-width="2"/>
<rect x="852.75" y="200.81" width="43.33" height="121.74" fill="#e74c3c" stroke="#e74c3c" stroke-width="1"/>
<text x="874.41" y="704" font-size="11" fill="#555555" text-anchor="middle">04-13</text>
<text x="874.41" y="720" font-size="11" fill="#555555" text-anchor="middle">00:00</text>
<line x1="949.12" y1="293.28" x2="949.12" y2="394.53" stroke="#e74c3c" stroke-width="2"/>
<rect x="927.45" y="322.84" width="43.33" height="16.68" fill="#e74c3c" stroke="#e74c3c" stroke-width="1"/>
<text x="949.12" y="704" font-size="11" fill="#555555" text-anchor="middle">04-13</text>
<text x="949.12" y="720" font-size="11" fill="#555555" text-anchor="middle">04:00</text>
<line x1="1023.82" y1="306.74" x2="1023.82" y2="465.93" stroke="#e74c3c" stroke-width="2"/>
<rect x="1002.16" y="338.93" width="43.33" height="76.08" fill="#e74c3c" stroke="#e74c3c" stroke-width="1"/>
<text x="1023.82" y="704" font-size="11" fill="#555555" text-anchor="middle">04-13</text>
<text x="1023.82" y="720" font-size="11" fill="#555555" text-anchor="middle">08:00</text>
<line x1="1098.53" y1="350.34" x2="1098.53" y2="431.70" stroke="#2ecc71" stroke-width="2"/>
<rect x="1076.86" y="399.80" width="43.33" height="14.63" fill="#2ecc71" stroke="#2ecc71" stroke-width="1"/>
<text x="1098.53" y="704" font-size="11" fill="#555555" text-anchor="middle">04-13</text>
<text x="1098.53" y="720" font-size="11" fill="#555555" text-anchor="middle">12:00</text>
<line x1="1173.24" y1="398.92" x2="1173.24" y2="449.84" stroke="#e74c3c" stroke-width="2"/>
<rect x="1151.57" y="399.80" width="43.33" height="43.60" fill="#e74c3c" stroke="#e74c3c" stroke-width="1"/>
<text x="1173.24" y="704" font-size="11" fill="#555555" text-anchor="middle">04-13</text>
<text x="1173.24" y="720" font-size="11" fill="#555555" text-anchor="middle">16:00</text>
<line x1="1247.94" y1="437.55" x2="1247.94" y2="501.63" stroke="#e74c3c" stroke-width="2"/>
<rect x="1226.28" y="443.40" width="43.33" height="41.26" fill="#e74c3c" stroke="#e74c3c" stroke-width="1"/>
<text x="1247.94" y="704" font-size="11" fill="#555555" text-anchor="middle">04-13</text>
<text x="1247.94" y="720" font-size="11" fill="#555555" text-anchor="middle">20:00</text>
<line x1="1322.65" y1="479.10" x2="1322.65" y2="650.00" stroke="#e74c3c" stroke-width="2"/>
<rect x="1300.98" y="484.37" width="43.33" height="132.86" fill="#e74c3c" stroke="#e74c3c" stroke-width="1"/>
<text x="1322.65" y="704" font-size="11" fill="#555555" text-anchor="middle">04-14</text>
<text x="1322.65" y="720" font-size="11" fill="#555555" text-anchor="middle">00:00</text>
<line x1="725.00" y1="88.73" x2="805.00" y2="90.00" stroke="#f1c40f" stroke-width="2"/>
<rect x="805.00" y="42.00" width="220" height="72" rx="8" fill="#fff8dc" stroke="#f1c40f"/>
<text x="815.00" y="66.00" font-size="12" fill="#111111">目标K线 2024-04-12 16:00</text>
<text x="815.00" y="84.00" font-size="12" fill="#111111">振幅 25.80%</text>
<text x="815.00" y="102.00" font-size="12" fill="#111111">倍数 9.91x</text>
<line x1="650.29" y1="364.10" x2="620.29" y2="324.10" stroke="#3498db" stroke-width="2"/>
<rect x="400.29" y="288.10" width="220" height="58" rx="8" fill="#eef6ff" stroke="#3498db"/>
<text x="410.29" y="310.10" font-size="12" fill="#111111">前一根涨幅 2.04%</text>
<text x="410.29" y="328.10" font-size="12" fill="#111111">前一根振幅 2.61%</text>
</svg>