<svg xmlns="http://www.w3.org/2000/svg" width="1400" height="760" viewBox="0 0 1400 760">
<rect width="100%" height="100%" fill="#fcfcfc"/>
<text x="90" y="36" font-size="26" font-weight="700" fill="#111111">PIEVERSE-USDT-SWAP 4H - 9倍命中</text>
<line x1="90" y1="70.00" x2="1360" y2="70.00" stroke="#d9d9d9" stroke-dasharray="4 4" stroke-width="1"/>
<text x="12" y="74.00" font-size="12" fill="#555555">1.773100</text>
<line x1="90" y1="186.00" x2="1360" y2="186.00" stroke="#d9d9d9" stroke-dasharray="4 4" stroke-width="1"/>
<text x="12" y="190.00" font-size="12" fill="#555555">1.519900</text>
<line x1="90" y1="302.00" x2="1360" y2="302.00" stroke="#d9d9d9" stroke-dasharray="4 4" stroke-width="1"/>
<text x="12" y="306.00" font-size="12" fill="#555555">1.266700</text>
<line x1="90" y1="418.00" x2="1360" y2="418.00" stroke="#d9d9d9" stroke-dasharray="4 4" stroke-width="1"/>
<text x="12" y="422.00" font-size="12" fill="#555555">1.013500</text>
<line x1="90" y1="534.00" x2="1360" y2="534.00" stroke="#d9d9d9" stroke-dasharray="4 4" stroke-width="1"/>
<text x="12" y="538.00" font-size="12" fill="#555555">0.760300</text>
<line x1="90" y1="650.00" x2="1360" y2="650.00" stroke="#d9d9d9" stroke-dasharray="4 4" stroke-width="1"/>
<text x="12" y="654.00" font-size="12" fill="#555555">0.507100</text>
<rect x="687.65" y="70" width="74.71" height="580.00" fill="#f1c40f" opacity="0.16"/>
<rect x="612.94" y="70" width="74.71" height="580.00" fill="#3498db" opacity="0.10"/>
<line x1="127.35" y1="623.89" x2="127.35" y2="642.99" stroke="#2ecc71" stroke-width="2"/>
<rect x="105.69" y="629.48" width="43.33" height="11.77" fill="#2ecc71" stroke="#2ecc71" stroke-width="1"/>
<text x="127.35" y="704" font-size="11" fill="#555555" text-anchor="middle">04-18</text>
<text x="127.35" y="720" font-size="11" fill="#555555" text-anchor="middle">16:00</text>
<line x1="202.06" y1="629.11" x2="202.06" y2="650.00" stroke="#e74c3c" stroke-width="2"/>
<rect x="180.39" y="629.43" width="43.33" height="10.72" fill="#e74c3c" stroke="#e74c3c" stroke-width="1"/>
<text x="202.06" y="704" font-size="11" fill="#555555" text-anchor="middle">04-18</text>
<text x="202.06" y="720" font-size="11" fill="#555555" text-anchor="middle">20:00</text>
<line x1="276.76" y1="623.57" x2="276.76" y2="641.11" stroke="#2ecc71" stroke-width="2"/>
<rect x="255.10" y="627.55" width="43.33" height="12.60" fill="#2ecc71" stroke="#2ecc71" stroke-width="1"/>
<text x="276.76" y="704" font-size="11" fill="#555555" text-anchor="middle">04-19</text>
<text x="276.76" y="720" font-size="11" fill="#555555" text-anchor="middle">00:00</text>
<line x1="351.47" y1="559.38" x2="351.47" y2="628.10" stroke="#2ecc71" stroke-width="2"/>
<rect x="329.81" y="600.15" width="43.33" height="27.30" fill="#2ecc71" stroke="#2ecc71" stroke-width="1"/>
<text x="351.47" y="704" font-size="11" fill="#555555" text-anchor="middle">04-19</text>
<text x="351.47" y="720" font-size="11" fill="#555555" text-anchor="middle">04:00</text>
<line x1="426.18" y1="568.50" x2="426.18" y2="622.47" stroke="#e74c3c" stroke-width="2"/>
<rect x="404.51" y="600.43" width="43.33" height="8.57" fill="#e74c3c" stroke="#e74c3c" stroke-width="1"/>
<text x="426.18" y="704" font-size="11" fill="#555555" text-anchor="middle">04-19</text>
<text x="426.18" y="720" font-size="11" fill="#555555" text-anchor="middle">08:00</text>
<line x1="500.88" y1="596.49" x2="500.88" y2="621.18" stroke="#2ecc71" stroke-width="2"/>
<rect x="479.22" y="606.16" width="43.33" height="2.93" fill="#2ecc71" stroke="#2ecc71" stroke-width="1"/>
<text x="500.88" y="704" font-size="11" fill="#555555" text-anchor="middle">04-19</text>
<text x="500.88" y="720" font-size="11" fill="#555555" text-anchor="middle">12:00</text>
<line x1="575.59" y1="578.99" x2="575.59" y2="616.69" stroke="#2ecc71" stroke-width="2"/>
<rect x="553.92" y="598.60" width="43.33" height="7.74" fill="#2ecc71" stroke="#2ecc71" stroke-width="1"/>
<text x="575.59" y="704" font-size="11" fill="#555555" text-anchor="middle">04-19</text>
<text x="575.59" y="720" font-size="11" fill="#555555" text-anchor="middle">16:00</text>
<line x1="650.29" y1="567.86" x2="650.29" y2="601.25" stroke="#2ecc71" stroke-width="2"/>
<rect x="628.63" y="573.90" width="43.33" height="24.46" fill="#2ecc71" stroke="#2ecc71" stroke-width="1"/>
<text x="650.29" y="704" font-size="11" fill="#555555" text-anchor="middle">04-19</text>
<text x="650.29" y="720" font-size="11" fill="#555555" text-anchor="middle">20:00</text>
<line x1="725.00" y1="237.63" x2="725.00" y2="576.61" stroke="#2ecc71" stroke-width="2"/>
<rect x="703.34" y="267.59" width="43.33" height="306.54" fill="#2ecc71" stroke="#2ecc71" stroke-width="1"/>
<text x="725.00" y="704" font-size="11" fill="#555555" text-anchor="middle">04-20</text>
<text x="725.00" y="720" font-size="11" fill="#555555" text-anchor="middle">00:00</text>
<line x1="799.71" y1="202.45" x2="799.71" y2="368.66" stroke="#e74c3c" stroke-width="2"/>
<rect x="778.04" y="267.36" width="43.33" height="72.61" fill="#e74c3c" stroke="#e74c3c" stroke-width="1"/>
<text x="799.71" y="704" font-size="11" fill="#555555" text-anchor="middle">04-20</text>
<text x="799.71" y="720" font-size="11" fill="#555555" text-anchor="middle">04:00</text>
<line x1="874.41" y1="255.09" x2="874.41" y2="462.03" stroke="#e74c3c" stroke-width="2"/>
<rect x="852.75" y="339.84" width="43.33" height="18.42" fill="#e74c3c" stroke="#e74c3c" stroke-width="1"/>
<text x="874.41" y="704" font-size="11" fill="#555555" text-anchor="middle">04-20</text>
<text x="874.41" y="720" font-size="11" fill="#555555" text-anchor="middle">08:00</text>
<line x1="949.12" y1="70.00" x2="949.12" y2="503.53" stroke="#e74c3c" stroke-width="2"/>
<rect x="927.45" y="357.98" width="43.33" height="84.11" fill="#e74c3c" stroke="#e74c3c" stroke-width="1"/>
<text x="949.12" y="704" font-size="11" fill="#555555" text-anchor="middle">04-20</text>
<text x="949.12" y="720" font-size="11" fill="#555555" text-anchor="middle">12:00</text>
<line x1="1023.82" y1="347.54" x2="1023.82" y2="458.55" stroke="#2ecc71" stroke-width="2"/>
<rect x="1002.16" y="389.05" width="43.33" height="53.05" fill="#2ecc71" stroke="#2ecc71" stroke-width="1"/>
<text x="1023.82" y="704" font-size="11" fill="#555555" text-anchor="middle">04-20</text>
<text x="1023.82" y="720" font-size="11" fill="#555555" text-anchor="middle">16:00</text>
<line x1="1098.53" y1="385.75" x2="1098.53" y2="491.53" stroke="#e74c3c" stroke-width="2"/>
<rect x="1076.86" y="389.14" width="43.33" height="72.02" fill="#e74c3c" stroke="#e74c3c" stroke-width="1"/>
<text x="1098.53" y="704" font-size="11" fill="#555555" text-anchor="middle">04-20</text>
<text x="1098.53" y="720" font-size="11" fill="#555555" text-anchor="middle">20:00</text>
<line x1="1173.24" y1="433.35" x2="1173.24" y2="611.79" stroke="#e74c3c" stroke-width="2"/>
<rect x="1151.57" y="461.16" width="43.33" height="47.19" fill="#e74c3c" stroke="#e74c3c" stroke-width="1"/>
<text x="1173.24" y="704" font-size="11" fill="#555555" text-anchor="middle">04-21</text>
<text x="1173.24" y="720" font-size="11" fill="#555555" text-anchor="middle">00:00</text>
<line x1="1247.94" y1="393.72" x2="1247.94" y2="511.28" stroke="#2ecc71" stroke-width="2"/>
<rect x="1226.28" y="442.33" width="43.33" height="66.02" fill="#2ecc71" stroke="#2ecc71" stroke-width="1"/>
<text x="1247.94" y="704" font-size="11" fill="#555555" text-anchor="middle">04-21</text>
<text x="1247.94" y="720" font-size="11" fill="#555555" text-anchor="middle">04:00</text>
<line x1="1322.65" y1="403.57" x2="1322.65" y2="460.61" stroke="#2ecc71" stroke-width="2"/>
<rect x="1300.98" y="413.42" width="43.33" height="28.91" fill="#2ecc71" stroke="#2ecc71" stroke-width="1"/>
<text x="1322.65" y="704" font-size="11" fill="#555555" text-anchor="middle">04-21</text>
<text x="1322.65" y="720" font-size="11" fill="#555555" text-anchor="middle">08:00</text>
<line x1="725.00" y1="237.63" x2="805.00" y2="167.63" stroke="#f1c40f" stroke-width="2"/>
<rect x="805.00" y="119.63" width="220" height="72" rx="8" fill="#fff8dc" stroke="#f1c40f"/>
<text x="815.00" y="143.63" font-size="12" fill="#111111">目标K线 2026-04-20 00:00</text>
<text x="815.00" y="161.63" font-size="12" fill="#111111">振幅 109.99%</text>
<text x="815.00" y="179.63" font-size="12" fill="#111111">倍数 9.35x</text>
<line x1="650.29" y1="567.86" x2="620.29" y2="527.86" stroke="#3498db" stroke-width="2"/>
<rect x="400.29" y="491.86" width="220" height="58" rx="8" fill="#eef6ff" stroke="#3498db"/>
<text x="410.29" y="513.86" font-size="12" fill="#111111">前一根涨幅 8.62%</text>
<text x="410.29" y="531.86" font-size="12" fill="#111111">前一根振幅 11.76%</text>
</svg>