<svg xmlns="http://www.w3.org/2000/svg" width="1400" height="760" viewBox="0 0 1400 760">
<rect width="100%" height="100%" fill="#fcfcfc"/>
<text x="90" y="36" font-size="26" font-weight="700" fill="#111111">RVN-USDT-SWAP 4H - 9倍命中</text>
<line x1="90" y1="70.00" x2="1360" y2="70.00" stroke="#d9d9d9" stroke-dasharray="4 4" stroke-width="1"/>
<text x="12" y="74.00" font-size="12" fill="#555555">0.053500</text>
<line x1="90" y1="186.00" x2="1360" y2="186.00" stroke="#d9d9d9" stroke-dasharray="4 4" stroke-width="1"/>
<text x="12" y="190.00" font-size="12" fill="#555555">0.049492</text>
<line x1="90" y1="302.00" x2="1360" y2="302.00" stroke="#d9d9d9" stroke-dasharray="4 4" stroke-width="1"/>
<text x="12" y="306.00" font-size="12" fill="#555555">0.045484</text>
<line x1="90" y1="418.00" x2="1360" y2="418.00" stroke="#d9d9d9" stroke-dasharray="4 4" stroke-width="1"/>
<text x="12" y="422.00" font-size="12" fill="#555555">0.041476</text>
<line x1="90" y1="534.00" x2="1360" y2="534.00" stroke="#d9d9d9" stroke-dasharray="4 4" stroke-width="1"/>
<text x="12" y="538.00" font-size="12" fill="#555555">0.037468</text>
<line x1="90" y1="650.00" x2="1360" y2="650.00" stroke="#d9d9d9" stroke-dasharray="4 4" stroke-width="1"/>
<text x="12" y="654.00" font-size="12" fill="#555555">0.033460</text>
<rect x="687.65" y="70" width="74.71" height="580.00" fill="#f1c40f" opacity="0.16"/>
<rect x="612.94" y="70" width="74.71" height="580.00" fill="#3498db" opacity="0.10"/>
<line x1="127.35" y1="601.96" x2="127.35" y2="650.00" stroke="#2ecc71" stroke-width="2"/>
<rect x="105.69" y="625.69" width="43.33" height="17.65" fill="#2ecc71" stroke="#2ecc71" stroke-width="1"/>
<text x="127.35" y="704" font-size="11" fill="#555555" text-anchor="middle">03-28</text>
<text x="127.35" y="720" font-size="11" fill="#555555" text-anchor="middle">00:00</text>
<line x1="202.06" y1="613.53" x2="202.06" y2="632.92" stroke="#e74c3c" stroke-width="2"/>
<rect x="180.39" y="625.40" width="43.33" height="3.47" fill="#e74c3c" stroke="#e74c3c" stroke-width="1"/>
<text x="202.06" y="704" font-size="11" fill="#555555" text-anchor="middle">03-28</text>
<text x="202.06" y="720" font-size="11" fill="#555555" text-anchor="middle">04:00</text>
<line x1="276.76" y1="578.80" x2="276.76" y2="643.92" stroke="#2ecc71" stroke-width="2"/>
<rect x="255.10" y="599.06" width="43.33" height="30.10" fill="#2ecc71" stroke="#2ecc71" stroke-width="1"/>
<text x="276.76" y="704" font-size="11" fill="#555555" text-anchor="middle">03-28</text>
<text x="276.76" y="720" font-size="11" fill="#555555" text-anchor="middle">08:00</text>
<line x1="351.47" y1="554.78" x2="351.47" y2="612.95" stroke="#2ecc71" stroke-width="2"/>
<rect x="329.81" y="562.59" width="43.33" height="36.47" fill="#2ecc71" stroke="#2ecc71" stroke-width="1"/>
<text x="351.47" y="704" font-size="11" fill="#555555" text-anchor="middle">03-28</text>
<text x="351.47" y="720" font-size="11" fill="#555555" text-anchor="middle">12:00</text>
<line x1="426.18" y1="550.15" x2="426.18" y2="603.98" stroke="#e74c3c" stroke-width="2"/>
<rect x="404.51" y="562.31" width="43.33" height="35.31" fill="#e74c3c" stroke="#e74c3c" stroke-width="1"/>
<text x="426.18" y="704" font-size="11" fill="#555555" text-anchor="middle">03-28</text>
<text x="426.18" y="720" font-size="11" fill="#555555" text-anchor="middle">16:00</text>
<line x1="500.88" y1="587.77" x2="500.88" y2="632.63" stroke="#e74c3c" stroke-width="2"/>
<rect x="479.22" y="597.33" width="43.33" height="22.57" fill="#e74c3c" stroke="#e74c3c" stroke-width="1"/>
<text x="500.88" y="704" font-size="11" fill="#555555" text-anchor="middle">03-28</text>
<text x="500.88" y="720" font-size="11" fill="#555555" text-anchor="middle">20:00</text>
<line x1="575.59" y1="597.90" x2="575.59" y2="624.53" stroke="#2ecc71" stroke-width="2"/>
<rect x="553.92" y="601.67" width="43.33" height="18.23" fill="#2ecc71" stroke="#2ecc71" stroke-width="1"/>
<text x="575.59" y="704" font-size="11" fill="#555555" text-anchor="middle">03-29</text>
<text x="575.59" y="720" font-size="11" fill="#555555" text-anchor="middle">00:00</text>
<line x1="650.29" y1="579.67" x2="650.29" y2="606.01" stroke="#2ecc71" stroke-width="2"/>
<rect x="628.63" y="580.83" width="43.33" height="21.13" fill="#2ecc71" stroke="#2ecc71" stroke-width="1"/>
<text x="650.29" y="704" font-size="11" fill="#555555" text-anchor="middle">03-29</text>
<text x="650.29" y="720" font-size="11" fill="#555555" text-anchor="middle">04:00</text>
<line x1="725.00" y1="334.53" x2="725.00" y2="596.75" stroke="#2ecc71" stroke-width="2"/>
<rect x="703.34" y="336.56" width="43.33" height="244.27" fill="#2ecc71" stroke="#2ecc71" stroke-width="1"/>
<text x="725.00" y="704" font-size="11" fill="#555555" text-anchor="middle">03-29</text>
<text x="725.00" y="720" font-size="11" fill="#555555" text-anchor="middle">08:00</text>
<line x1="799.71" y1="264.49" x2="799.71" y2="374.76" stroke="#2ecc71" stroke-width="2"/>
<rect x="778.04" y="301.25" width="43.33" height="34.44" fill="#2ecc71" stroke="#2ecc71" stroke-width="1"/>
<text x="799.71" y="704" font-size="11" fill="#555555" text-anchor="middle">03-29</text>
<text x="799.71" y="720" font-size="11" fill="#555555" text-anchor="middle">12:00</text>
<line x1="874.41" y1="185.77" x2="874.41" y2="324.11" stroke="#2ecc71" stroke-width="2"/>
<rect x="852.75" y="262.75" width="43.33" height="38.78" fill="#2ecc71" stroke="#2ecc71" stroke-width="1"/>
<text x="874.41" y="704" font-size="11" fill="#555555" text-anchor="middle">03-29</text>
<text x="874.41" y="720" font-size="11" fill="#555555" text-anchor="middle">16:00</text>
<line x1="949.12" y1="147.56" x2="949.12" y2="286.78" stroke="#2ecc71" stroke-width="2"/>
<rect x="927.45" y="199.08" width="43.33" height="63.09" fill="#2ecc71" stroke="#2ecc71" stroke-width="1"/>
<text x="949.12" y="704" font-size="11" fill="#555555" text-anchor="middle">03-29</text>
<text x="949.12" y="720" font-size="11" fill="#555555" text-anchor="middle">20:00</text>
<line x1="1023.82" y1="70.00" x2="1023.82" y2="303.85" stroke="#e74c3c" stroke-width="2"/>
<rect x="1002.16" y="198.79" width="43.33" height="99.56" fill="#e74c3c" stroke="#e74c3c" stroke-width="1"/>
<text x="1023.82" y="704" font-size="11" fill="#555555" text-anchor="middle">03-30</text>
<text x="1023.82" y="720" font-size="11" fill="#555555" text-anchor="middle">00:00</text>
<line x1="1098.53" y1="244.81" x2="1098.53" y2="332.22" stroke="#e74c3c" stroke-width="2"/>
<rect x="1076.86" y="298.35" width="43.33" height="32.42" fill="#e74c3c" stroke="#e74c3c" stroke-width="1"/>
<text x="1098.53" y="704" font-size="11" fill="#555555" text-anchor="middle">03-30</text>
<text x="1098.53" y="720" font-size="11" fill="#555555" text-anchor="middle">04:00</text>
<line x1="1173.24" y1="315.72" x2="1173.24" y2="373.31" stroke="#e74c3c" stroke-width="2"/>
<rect x="1151.57" y="330.19" width="43.33" height="22.86" fill="#e74c3c" stroke="#e74c3c" stroke-width="1"/>
<text x="1173.24" y="704" font-size="11" fill="#555555" text-anchor="middle">03-30</text>
<text x="1173.24" y="720" font-size="11" fill="#555555" text-anchor="middle">08:00</text>
<line x1="1247.94" y1="308.19" x2="1247.94" y2="354.50" stroke="#2ecc71" stroke-width="2"/>
<rect x="1226.28" y="344.37" width="43.33" height="8.39" fill="#2ecc71" stroke="#2ecc71" stroke-width="1"/>
<text x="1247.94" y="704" font-size="11" fill="#555555" text-anchor="middle">03-30</text>
<text x="1247.94" y="720" font-size="11" fill="#555555" text-anchor="middle">12:00</text>
<line x1="1322.65" y1="242.50" x2="1322.65" y2="349.58" stroke="#2ecc71" stroke-width="2"/>
<rect x="1300.98" y="256.10" width="43.33" height="87.98" fill="#2ecc71" stroke="#2ecc71" stroke-width="1"/>
<text x="1322.65" y="704" font-size="11" fill="#555555" text-anchor="middle">03-30</text>
<text x="1322.65" y="720" font-size="11" fill="#555555" text-anchor="middle">16:00</text>
<line x1="725.00" y1="334.53" x2="805.00" y2="264.53" stroke="#f1c40f" stroke-width="2"/>
<rect x="805.00" y="216.53" width="220" height="72" rx="8" fill="#fff8dc" stroke="#f1c40f"/>
<text x="815.00" y="240.53" font-size="12" fill="#111111">目标K线 2024-03-29 08:00</text>
<text x="815.00" y="258.53" font-size="12" fill="#111111">振幅 25.27%</text>
<text x="815.00" y="276.53" font-size="12" fill="#111111">倍数 9.75x</text>
<line x1="650.29" y1="579.67" x2="620.29" y2="539.67" stroke="#3498db" stroke-width="2"/>
<rect x="400.29" y="503.67" width="220" height="58" rx="8" fill="#eef6ff" stroke="#3498db"/>
<text x="410.29" y="525.67" font-size="12" fill="#111111">前一根涨幅 2.08%</text>
<text x="410.29" y="543.67" font-size="12" fill="#111111">前一根振幅 2.59%</text>
</svg>