<svg xmlns="http://www.w3.org/2000/svg" width="1400" height="760" viewBox="0 0 1400 760">
<rect width="100%" height="100%" fill="#fcfcfc"/>
<text x="90" y="36" font-size="26" font-weight="700" fill="#111111">RVN-USDT-SWAP 4H - 9倍命中</text>
<line x1="90" y1="70.00" x2="1360" y2="70.00" stroke="#d9d9d9" stroke-dasharray="4 4" stroke-width="1"/>
<text x="12" y="74.00" font-size="12" fill="#555555">0.011727</text>
<line x1="90" y1="186.00" x2="1360" y2="186.00" stroke="#d9d9d9" stroke-dasharray="4 4" stroke-width="1"/>
<text x="12" y="190.00" font-size="12" fill="#555555">0.011055</text>
<line x1="90" y1="302.00" x2="1360" y2="302.00" stroke="#d9d9d9" stroke-dasharray="4 4" stroke-width="1"/>
<text x="12" y="306.00" font-size="12" fill="#555555">0.010383</text>
<line x1="90" y1="418.00" x2="1360" y2="418.00" stroke="#d9d9d9" stroke-dasharray="4 4" stroke-width="1"/>
<text x="12" y="422.00" font-size="12" fill="#555555">0.009710</text>
<line x1="90" y1="534.00" x2="1360" y2="534.00" stroke="#d9d9d9" stroke-dasharray="4 4" stroke-width="1"/>
<text x="12" y="538.00" font-size="12" fill="#555555">0.009038</text>
<line x1="90" y1="650.00" x2="1360" y2="650.00" stroke="#d9d9d9" stroke-dasharray="4 4" stroke-width="1"/>
<text x="12" y="654.00" font-size="12" fill="#555555">0.008366</text>
<rect x="687.65" y="70" width="74.71" height="580.00" fill="#f1c40f" opacity="0.16"/>
<rect x="612.94" y="70" width="74.71" height="580.00" fill="#3498db" opacity="0.10"/>
<line x1="127.35" y1="511.26" x2="127.35" y2="581.66" stroke="#2ecc71" stroke-width="2"/>
<rect x="105.69" y="532.31" width="43.33" height="36.41" fill="#2ecc71" stroke="#2ecc71" stroke-width="1"/>
<text x="127.35" y="704" font-size="11" fill="#555555" text-anchor="middle">11-04</text>
<text x="127.35" y="720" font-size="11" fill="#555555" text-anchor="middle">16:00</text>
<line x1="202.06" y1="500.56" x2="202.06" y2="585.29" stroke="#2ecc71" stroke-width="2"/>
<rect x="180.39" y="521.09" width="43.33" height="11.73" fill="#2ecc71" stroke="#2ecc71" stroke-width="1"/>
<text x="202.06" y="704" font-size="11" fill="#555555" text-anchor="middle">11-04</text>
<text x="202.06" y="720" font-size="11" fill="#555555" text-anchor="middle">20:00</text>
<line x1="276.76" y1="502.97" x2="276.76" y2="595.47" stroke="#e74c3c" stroke-width="2"/>
<rect x="255.10" y="521.09" width="43.33" height="52.46" fill="#e74c3c" stroke="#e74c3c" stroke-width="1"/>
<text x="276.76" y="704" font-size="11" fill="#555555" text-anchor="middle">11-05</text>
<text x="276.76" y="720" font-size="11" fill="#555555" text-anchor="middle">00:00</text>
<line x1="351.47" y1="447.58" x2="351.47" y2="650.00" stroke="#2ecc71" stroke-width="2"/>
<rect x="329.81" y="457.07" width="43.33" height="115.45" fill="#2ecc71" stroke="#2ecc71" stroke-width="1"/>
<text x="351.47" y="704" font-size="11" fill="#555555" text-anchor="middle">11-05</text>
<text x="351.47" y="720" font-size="11" fill="#555555" text-anchor="middle">04:00</text>
<line x1="426.18" y1="456.72" x2="426.18" y2="585.98" stroke="#e74c3c" stroke-width="2"/>
<rect x="404.51" y="457.41" width="43.33" height="42.80" fill="#e74c3c" stroke="#e74c3c" stroke-width="1"/>
<text x="426.18" y="704" font-size="11" fill="#555555" text-anchor="middle">11-05</text>
<text x="426.18" y="720" font-size="11" fill="#555555" text-anchor="middle">08:00</text>
<line x1="500.88" y1="480.88" x2="500.88" y2="517.47" stroke="#e74c3c" stroke-width="2"/>
<rect x="479.22" y="500.38" width="43.33" height="7.94" fill="#e74c3c" stroke="#e74c3c" stroke-width="1"/>
<text x="500.88" y="704" font-size="11" fill="#555555" text-anchor="middle">11-05</text>
<text x="500.88" y="720" font-size="11" fill="#555555" text-anchor="middle">12:00</text>
<line x1="575.59" y1="501.07" x2="575.59" y2="541.63" stroke="#e74c3c" stroke-width="2"/>
<rect x="553.92" y="508.49" width="43.33" height="1.38" fill="#e74c3c" stroke="#e74c3c" stroke-width="1"/>
<text x="575.59" y="704" font-size="11" fill="#555555" text-anchor="middle">11-05</text>
<text x="575.59" y="720" font-size="11" fill="#555555" text-anchor="middle">16:00</text>
<line x1="650.29" y1="476.74" x2="650.29" y2="519.37" stroke="#2ecc71" stroke-width="2"/>
<rect x="628.63" y="476.91" width="43.33" height="33.13" fill="#2ecc71" stroke="#2ecc71" stroke-width="1"/>
<text x="650.29" y="704" font-size="11" fill="#555555" text-anchor="middle">11-05</text>
<text x="650.29" y="720" font-size="11" fill="#555555" text-anchor="middle">20:00</text>
<line x1="725.00" y1="70.00" x2="725.00" y2="492.62" stroke="#2ecc71" stroke-width="2"/>
<rect x="703.34" y="389.42" width="43.33" height="88.35" fill="#2ecc71" stroke="#2ecc71" stroke-width="1"/>
<text x="725.00" y="704" font-size="11" fill="#555555" text-anchor="middle">11-06</text>
<text x="725.00" y="720" font-size="11" fill="#555555" text-anchor="middle">00:00</text>
<line x1="799.71" y1="300.72" x2="799.71" y2="389.60" stroke="#2ecc71" stroke-width="2"/>
<rect x="778.04" y="355.60" width="43.33" height="33.82" fill="#2ecc71" stroke="#2ecc71" stroke-width="1"/>
<text x="799.71" y="704" font-size="11" fill="#555555" text-anchor="middle">11-06</text>
<text x="799.71" y="720" font-size="11" fill="#555555" text-anchor="middle">04:00</text>
<line x1="874.41" y1="296.24" x2="874.41" y2="426.35" stroke="#2ecc71" stroke-width="2"/>
<rect x="852.75" y="305.90" width="43.33" height="50.39" fill="#2ecc71" stroke="#2ecc71" stroke-width="1"/>
<text x="874.41" y="704" font-size="11" fill="#555555" text-anchor="middle">11-06</text>
<text x="874.41" y="720" font-size="11" fill="#555555" text-anchor="middle">08:00</text>
<line x1="949.12" y1="300.03" x2="949.12" y2="409.61" stroke="#e74c3c" stroke-width="2"/>
<rect x="927.45" y="306.25" width="43.33" height="95.26" fill="#e74c3c" stroke="#e74c3c" stroke-width="1"/>
<text x="949.12" y="704" font-size="11" fill="#555555" text-anchor="middle">11-06</text>
<text x="949.12" y="720" font-size="11" fill="#555555" text-anchor="middle">12:00</text>
<line x1="1023.82" y1="363.19" x2="1023.82" y2="439.12" stroke="#2ecc71" stroke-width="2"/>
<rect x="1002.16" y="390.80" width="43.33" height="11.04" fill="#2ecc71" stroke="#2ecc71" stroke-width="1"/>
<text x="1023.82" y="704" font-size="11" fill="#555555" text-anchor="middle">11-06</text>
<text x="1023.82" y="720" font-size="11" fill="#555555" text-anchor="middle">16:00</text>
<line x1="1098.53" y1="319.36" x2="1098.53" y2="418.93" stroke="#2ecc71" stroke-width="2"/>
<rect x="1076.86" y="326.95" width="43.33" height="64.02" fill="#2ecc71" stroke="#2ecc71" stroke-width="1"/>
<text x="1098.53" y="704" font-size="11" fill="#555555" text-anchor="middle">11-06</text>
<text x="1098.53" y="720" font-size="11" fill="#555555" text-anchor="middle">20:00</text>
<line x1="1173.24" y1="296.58" x2="1173.24" y2="360.78" stroke="#e74c3c" stroke-width="2"/>
<rect x="1151.57" y="326.09" width="43.33" height="1.21" fill="#e74c3c" stroke="#e74c3c" stroke-width="1"/>
<text x="1173.24" y="704" font-size="11" fill="#555555" text-anchor="middle">11-07</text>
<text x="1173.24" y="720" font-size="11" fill="#555555" text-anchor="middle">00:00</text>
<line x1="1247.94" y1="222.03" x2="1247.94" y2="327.82" stroke="#2ecc71" stroke-width="2"/>
<rect x="1226.28" y="242.91" width="43.33" height="84.21" fill="#2ecc71" stroke="#2ecc71" stroke-width="1"/>
<text x="1247.94" y="704" font-size="11" fill="#555555" text-anchor="middle">11-07</text>
<text x="1247.94" y="720" font-size="11" fill="#555555" text-anchor="middle">04:00</text>
<line x1="1322.65" y1="228.59" x2="1322.65" y2="338.17" stroke="#e74c3c" stroke-width="2"/>
<rect x="1300.98" y="242.57" width="43.33" height="56.43" fill="#e74c3c" stroke="#e74c3c" stroke-width="1"/>
<text x="1322.65" y="704" font-size="11" fill="#555555" text-anchor="middle">11-07</text>
<text x="1322.65" y="720" font-size="11" fill="#555555" text-anchor="middle">08:00</text>
<line x1="725.00" y1="70.00" x2="805.00" y2="90.00" stroke="#f1c40f" stroke-width="2"/>
<rect x="805.00" y="42.00" width="220" height="72" rx="8" fill="#fff8dc" stroke="#f1c40f"/>
<text x="815.00" y="66.00" font-size="12" fill="#111111">目标K线 2025-11-06 00:00</text>
<text x="815.00" y="84.00" font-size="12" fill="#111111">振幅 26.15%</text>
<text x="815.00" y="102.00" font-size="12" fill="#111111">倍数 9.72x</text>
<line x1="650.29" y1="476.74" x2="620.29" y2="436.74" stroke="#3498db" stroke-width="2"/>
<rect x="400.29" y="400.74" width="220" height="58" rx="8" fill="#eef6ff" stroke="#3498db"/>
<text x="410.29" y="422.74" font-size="12" fill="#111111">前一根涨幅 2.09%</text>
<text x="410.29" y="440.74" font-size="12" fill="#111111">前一根振幅 2.69%</text>
</svg>