<svg xmlns="http://www.w3.org/2000/svg" width="1400" height="760" viewBox="0 0 1400 760">
<rect width="100%" height="100%" fill="#fcfcfc"/>
<text x="90" y="36" font-size="26" font-weight="700" fill="#111111">YGG-USDT-SWAP 4H - 9倍命中</text>
<line x1="90" y1="70.00" x2="1360" y2="70.00" stroke="#d9d9d9" stroke-dasharray="4 4" stroke-width="1"/>
<text x="12" y="74.00" font-size="12" fill="#555555">1.069400</text>
<line x1="90" y1="186.00" x2="1360" y2="186.00" stroke="#d9d9d9" stroke-dasharray="4 4" stroke-width="1"/>
<text x="12" y="190.00" font-size="12" fill="#555555">0.968940</text>
<line x1="90" y1="302.00" x2="1360" y2="302.00" stroke="#d9d9d9" stroke-dasharray="4 4" stroke-width="1"/>
<text x="12" y="306.00" font-size="12" fill="#555555">0.868480</text>
<line x1="90" y1="418.00" x2="1360" y2="418.00" stroke="#d9d9d9" stroke-dasharray="4 4" stroke-width="1"/>
<text x="12" y="422.00" font-size="12" fill="#555555">0.768020</text>
<line x1="90" y1="534.00" x2="1360" y2="534.00" stroke="#d9d9d9" stroke-dasharray="4 4" stroke-width="1"/>
<text x="12" y="538.00" font-size="12" fill="#555555">0.667560</text>
<line x1="90" y1="650.00" x2="1360" y2="650.00" stroke="#d9d9d9" stroke-dasharray="4 4" stroke-width="1"/>
<text x="12" y="654.00" font-size="12" fill="#555555">0.567100</text>
<rect x="687.65" y="70" width="74.71" height="580.00" fill="#f1c40f" opacity="0.16"/>
<rect x="612.94" y="70" width="74.71" height="580.00" fill="#3498db" opacity="0.10"/>
<line x1="127.35" y1="554.62" x2="127.35" y2="601.62" stroke="#2ecc71" stroke-width="2"/>
<rect x="105.69" y="567.90" width="43.33" height="29.68" fill="#2ecc71" stroke="#2ecc71" stroke-width="1"/>
<text x="127.35" y="704" font-size="11" fill="#555555" text-anchor="middle">05-20</text>
<text x="127.35" y="720" font-size="11" fill="#555555" text-anchor="middle">16:00</text>
<line x1="202.06" y1="565.59" x2="202.06" y2="633.26" stroke="#e74c3c" stroke-width="2"/>
<rect x="180.39" y="566.75" width="43.33" height="56.93" fill="#e74c3c" stroke="#e74c3c" stroke-width="1"/>
<text x="202.06" y="704" font-size="11" fill="#555555" text-anchor="middle">05-20</text>
<text x="202.06" y="720" font-size="11" fill="#555555" text-anchor="middle">20:00</text>
<line x1="276.76" y1="618.59" x2="276.76" y2="650.00" stroke="#2ecc71" stroke-width="2"/>
<rect x="255.10" y="621.36" width="43.33" height="2.19" fill="#2ecc71" stroke="#2ecc71" stroke-width="1"/>
<text x="276.76" y="704" font-size="11" fill="#555555" text-anchor="middle">05-21</text>
<text x="276.76" y="720" font-size="11" fill="#555555" text-anchor="middle">00:00</text>
<line x1="351.47" y1="611.90" x2="351.47" y2="631.18" stroke="#2ecc71" stroke-width="2"/>
<rect x="329.81" y="615.59" width="43.33" height="5.66" fill="#2ecc71" stroke="#2ecc71" stroke-width="1"/>
<text x="351.47" y="704" font-size="11" fill="#555555" text-anchor="middle">05-21</text>
<text x="351.47" y="720" font-size="11" fill="#555555" text-anchor="middle">04:00</text>
<line x1="426.18" y1="566.63" x2="426.18" y2="633.49" stroke="#2ecc71" stroke-width="2"/>
<rect x="404.51" y="567.90" width="43.33" height="48.38" fill="#2ecc71" stroke="#2ecc71" stroke-width="1"/>
<text x="426.18" y="704" font-size="11" fill="#555555" text-anchor="middle">05-21</text>
<text x="426.18" y="720" font-size="11" fill="#555555" text-anchor="middle">08:00</text>
<line x1="500.88" y1="519.75" x2="500.88" y2="577.25" stroke="#2ecc71" stroke-width="2"/>
<rect x="479.22" y="553.01" width="43.33" height="14.32" fill="#2ecc71" stroke="#2ecc71" stroke-width="1"/>
<text x="500.88" y="704" font-size="11" fill="#555555" text-anchor="middle">05-21</text>
<text x="500.88" y="720" font-size="11" fill="#555555" text-anchor="middle">12:00</text>
<line x1="575.59" y1="537.88" x2="575.59" y2="593.07" stroke="#e74c3c" stroke-width="2"/>
<rect x="553.92" y="552.43" width="43.33" height="35.22" fill="#e74c3c" stroke="#e74c3c" stroke-width="1"/>
<text x="575.59" y="704" font-size="11" fill="#555555" text-anchor="middle">05-21</text>
<text x="575.59" y="720" font-size="11" fill="#555555" text-anchor="middle">16:00</text>
<line x1="650.29" y1="542.27" x2="650.29" y2="590.53" stroke="#2ecc71" stroke-width="2"/>
<rect x="628.63" y="544.35" width="43.33" height="43.42" fill="#2ecc71" stroke="#2ecc71" stroke-width="1"/>
<text x="650.29" y="704" font-size="11" fill="#555555" text-anchor="middle">05-21</text>
<text x="650.29" y="720" font-size="11" fill="#555555" text-anchor="middle">20:00</text>
<line x1="725.00" y1="70.00" x2="725.00" y2="559.70" stroke="#2ecc71" stroke-width="2"/>
<rect x="703.34" y="326.92" width="43.33" height="217.89" fill="#2ecc71" stroke="#2ecc71" stroke-width="1"/>
<text x="725.00" y="704" font-size="11" fill="#555555" text-anchor="middle">05-22</text>
<text x="725.00" y="720" font-size="11" fill="#555555" text-anchor="middle">00:00</text>
<line x1="799.71" y1="182.12" x2="799.71" y2="403.94" stroke="#2ecc71" stroke-width="2"/>
<rect x="778.04" y="266.41" width="43.33" height="60.62" fill="#2ecc71" stroke="#2ecc71" stroke-width="1"/>
<text x="799.71" y="704" font-size="11" fill="#555555" text-anchor="middle">05-22</text>
<text x="799.71" y="720" font-size="11" fill="#555555" text-anchor="middle">04:00</text>
<line x1="874.41" y1="150.14" x2="874.41" y2="314.22" stroke="#e74c3c" stroke-width="2"/>
<rect x="852.75" y="266.64" width="43.33" height="29.79" fill="#e74c3c" stroke="#e74c3c" stroke-width="1"/>
<text x="874.41" y="704" font-size="11" fill="#555555" text-anchor="middle">05-22</text>
<text x="874.41" y="720" font-size="11" fill="#555555" text-anchor="middle">08:00</text>
<line x1="949.12" y1="286.50" x2="949.12" y2="375.30" stroke="#e74c3c" stroke-width="2"/>
<rect x="927.45" y="295.28" width="43.33" height="27.71" fill="#e74c3c" stroke="#e74c3c" stroke-width="1"/>
<text x="949.12" y="704" font-size="11" fill="#555555" text-anchor="middle">05-22</text>
<text x="949.12" y="720" font-size="11" fill="#555555" text-anchor="middle">12:00</text>
<line x1="1023.82" y1="292.51" x2="1023.82" y2="446.31" stroke="#e74c3c" stroke-width="2"/>
<rect x="1002.16" y="324.26" width="43.33" height="72.17" fill="#e74c3c" stroke="#e74c3c" stroke-width="1"/>
<text x="1023.82" y="704" font-size="11" fill="#555555" text-anchor="middle">05-22</text>
<text x="1023.82" y="720" font-size="11" fill="#555555" text-anchor="middle">16:00</text>
<line x1="1098.53" y1="309.83" x2="1098.53" y2="415.71" stroke="#2ecc71" stroke-width="2"/>
<rect x="1076.86" y="355.44" width="43.33" height="40.30" fill="#2ecc71" stroke="#2ecc71" stroke-width="1"/>
<text x="1098.53" y="704" font-size="11" fill="#555555" text-anchor="middle">05-22</text>
<text x="1098.53" y="720" font-size="11" fill="#555555" text-anchor="middle">20:00</text>
<line x1="1173.24" y1="352.21" x2="1173.24" y2="419.29" stroke="#e74c3c" stroke-width="2"/>
<rect x="1151.57" y="358.56" width="43.33" height="29.10" fill="#e74c3c" stroke="#e74c3c" stroke-width="1"/>
<text x="1173.24" y="704" font-size="11" fill="#555555" text-anchor="middle">05-23</text>
<text x="1173.24" y="720" font-size="11" fill="#555555" text-anchor="middle">00:00</text>
<line x1="1247.94" y1="388.12" x2="1247.94" y2="435.69" stroke="#e74c3c" stroke-width="2"/>
<rect x="1226.28" y="388.12" width="43.33" height="14.09" fill="#e74c3c" stroke="#e74c3c" stroke-width="1"/>
<text x="1247.94" y="704" font-size="11" fill="#555555" text-anchor="middle">05-23</text>
<text x="1247.94" y="720" font-size="11" fill="#555555" text-anchor="middle">04:00</text>
<line x1="1322.65" y1="339.50" x2="1322.65" y2="423.22" stroke="#2ecc71" stroke-width="2"/>
<rect x="1300.98" y="351.40" width="43.33" height="50.58" fill="#2ecc71" stroke="#2ecc71" stroke-width="1"/>
<text x="1322.65" y="704" font-size="11" fill="#555555" text-anchor="middle">05-23</text>
<text x="1322.65" y="720" font-size="11" fill="#555555" text-anchor="middle">08:00</text>
<line x1="725.00" y1="70.00" x2="805.00" y2="90.00" stroke="#f1c40f" stroke-width="2"/>
<rect x="805.00" y="42.00" width="220" height="72" rx="8" fill="#fff8dc" stroke="#f1c40f"/>
<text x="815.00" y="66.00" font-size="12" fill="#111111">目标K线 2022-05-22 00:00</text>
<text x="815.00" y="84.00" font-size="12" fill="#111111">振幅 64.43%</text>
<text x="815.00" y="102.00" font-size="12" fill="#111111">倍数 9.57x</text>
<line x1="650.29" y1="542.27" x2="620.29" y2="502.27" stroke="#3498db" stroke-width="2"/>
<rect x="400.29" y="466.27" width="220" height="58" rx="8" fill="#eef6ff" stroke="#3498db"/>
<text x="410.29" y="488.27" font-size="12" fill="#111111">前一根涨幅 6.05%</text>
<text x="410.29" y="506.27" font-size="12" fill="#111111">前一根振幅 6.73%</text>
</svg>