<svg xmlns="http://www.w3.org/2000/svg" width="1400" height="760" viewBox="0 0 1400 760">
<rect width="100%" height="100%" fill="#fcfcfc"/>
<text x="90" y="36" font-size="26" font-weight="700" fill="#111111">4_USDT 1H - 9倍命中</text>
<line x1="90" y1="70.00" x2="1360" y2="70.00" stroke="#d9d9d9" stroke-dasharray="4 4" stroke-width="1"/>
<text x="12" y="74.00" font-size="12" fill="#555555">0.011370</text>
<line x1="90" y1="186.00" x2="1360" y2="186.00" stroke="#d9d9d9" stroke-dasharray="4 4" stroke-width="1"/>
<text x="12" y="190.00" font-size="12" fill="#555555">0.010896</text>
<line x1="90" y1="302.00" x2="1360" y2="302.00" stroke="#d9d9d9" stroke-dasharray="4 4" stroke-width="1"/>
<text x="12" y="306.00" font-size="12" fill="#555555">0.010422</text>
<line x1="90" y1="418.00" x2="1360" y2="418.00" stroke="#d9d9d9" stroke-dasharray="4 4" stroke-width="1"/>
<text x="12" y="422.00" font-size="12" fill="#555555">0.009948</text>
<line x1="90" y1="534.00" x2="1360" y2="534.00" stroke="#d9d9d9" stroke-dasharray="4 4" stroke-width="1"/>
<text x="12" y="538.00" font-size="12" fill="#555555">0.009474</text>
<line x1="90" y1="650.00" x2="1360" y2="650.00" stroke="#d9d9d9" stroke-dasharray="4 4" stroke-width="1"/>
<text x="12" y="654.00" font-size="12" fill="#555555">0.009000</text>
<rect x="687.65" y="70" width="74.71" height="580.00" fill="#f1c40f" opacity="0.16"/>
<rect x="612.94" y="70" width="74.71" height="580.00" fill="#3498db" opacity="0.10"/>
<line x1="127.35" y1="505.61" x2="127.35" y2="539.87" stroke="#2ecc71" stroke-width="2"/>
<rect x="105.69" y="510.51" width="43.33" height="29.37" fill="#2ecc71" stroke="#2ecc71" stroke-width="1"/>
<text x="127.35" y="704" font-size="11" fill="#555555" text-anchor="middle">02-10</text>
<text x="127.35" y="720" font-size="11" fill="#555555" text-anchor="middle">09:00</text>
<line x1="202.06" y1="508.06" x2="202.06" y2="534.98" stroke="#e74c3c" stroke-width="2"/>
<rect x="180.39" y="510.51" width="43.33" height="17.13" fill="#e74c3c" stroke="#e74c3c" stroke-width="1"/>
<text x="202.06" y="704" font-size="11" fill="#555555" text-anchor="middle">02-10</text>
<text x="202.06" y="720" font-size="11" fill="#555555" text-anchor="middle">10:00</text>
<line x1="276.76" y1="525.19" x2="276.76" y2="586.37" stroke="#e74c3c" stroke-width="2"/>
<rect x="255.10" y="525.19" width="43.33" height="51.39" fill="#e74c3c" stroke="#e74c3c" stroke-width="1"/>
<text x="276.76" y="704" font-size="11" fill="#555555" text-anchor="middle">02-10</text>
<text x="276.76" y="720" font-size="11" fill="#555555" text-anchor="middle">11:00</text>
<line x1="351.47" y1="547.22" x2="351.47" y2="576.58" stroke="#2ecc71" stroke-width="2"/>
<rect x="329.81" y="566.79" width="43.33" height="4.89" fill="#2ecc71" stroke="#2ecc71" stroke-width="1"/>
<text x="351.47" y="704" font-size="11" fill="#555555" text-anchor="middle">02-10</text>
<text x="351.47" y="720" font-size="11" fill="#555555" text-anchor="middle">12:00</text>
<line x1="426.18" y1="559.45" x2="426.18" y2="586.37" stroke="#e74c3c" stroke-width="2"/>
<rect x="404.51" y="561.90" width="43.33" height="17.13" fill="#e74c3c" stroke="#e74c3c" stroke-width="1"/>
<text x="426.18" y="704" font-size="11" fill="#555555" text-anchor="middle">02-10</text>
<text x="426.18" y="720" font-size="11" fill="#555555" text-anchor="middle">13:00</text>
<line x1="500.88" y1="581.48" x2="500.88" y2="650.00" stroke="#e74c3c" stroke-width="2"/>
<rect x="479.22" y="583.92" width="43.33" height="51.39" fill="#e74c3c" stroke="#e74c3c" stroke-width="1"/>
<text x="500.88" y="704" font-size="11" fill="#555555" text-anchor="middle">02-10</text>
<text x="500.88" y="720" font-size="11" fill="#555555" text-anchor="middle">14:00</text>
<line x1="575.59" y1="610.84" x2="575.59" y2="632.87" stroke="#2ecc71" stroke-width="2"/>
<rect x="553.92" y="627.97" width="43.33" height="4.89" fill="#2ecc71" stroke="#2ecc71" stroke-width="1"/>
<text x="575.59" y="704" font-size="11" fill="#555555" text-anchor="middle">02-10</text>
<text x="575.59" y="720" font-size="11" fill="#555555" text-anchor="middle">15:00</text>
<line x1="650.29" y1="574.14" x2="650.29" y2="625.53" stroke="#2ecc71" stroke-width="2"/>
<rect x="628.63" y="574.14" width="43.33" height="48.95" fill="#2ecc71" stroke="#2ecc71" stroke-width="1"/>
<text x="650.29" y="704" font-size="11" fill="#555555" text-anchor="middle">02-10</text>
<text x="650.29" y="720" font-size="11" fill="#555555" text-anchor="middle">16:00</text>
<line x1="725.00" y1="70.00" x2="725.00" y2="574.14" stroke="#2ecc71" stroke-width="2"/>
<rect x="703.34" y="466.46" width="43.33" height="107.68" fill="#2ecc71" stroke="#2ecc71" stroke-width="1"/>
<text x="725.00" y="704" font-size="11" fill="#555555" text-anchor="middle">02-10</text>
<text x="725.00" y="720" font-size="11" fill="#555555" text-anchor="middle">17:00</text>
<line x1="799.71" y1="397.93" x2="799.71" y2="532.53" stroke="#e74c3c" stroke-width="2"/>
<rect x="778.04" y="471.35" width="43.33" height="34.26" fill="#e74c3c" stroke="#e74c3c" stroke-width="1"/>
<text x="799.71" y="704" font-size="11" fill="#555555" text-anchor="middle">02-10</text>
<text x="799.71" y="720" font-size="11" fill="#555555" text-anchor="middle">18:00</text>
<line x1="874.41" y1="495.82" x2="874.41" y2="569.24" stroke="#e74c3c" stroke-width="2"/>
<rect x="852.75" y="505.61" width="43.33" height="14.68" fill="#e74c3c" stroke="#e74c3c" stroke-width="1"/>
<text x="874.41" y="704" font-size="11" fill="#555555" text-anchor="middle">02-10</text>
<text x="874.41" y="720" font-size="11" fill="#555555" text-anchor="middle">19:00</text>
<line x1="949.12" y1="449.32" x2="949.12" y2="542.32" stroke="#2ecc71" stroke-width="2"/>
<rect x="927.45" y="483.59" width="43.33" height="39.16" fill="#2ecc71" stroke="#2ecc71" stroke-width="1"/>
<text x="949.12" y="704" font-size="11" fill="#555555" text-anchor="middle">02-10</text>
<text x="949.12" y="720" font-size="11" fill="#555555" text-anchor="middle">20:00</text>
<line x1="1023.82" y1="454.22" x2="1023.82" y2="571.69" stroke="#e74c3c" stroke-width="2"/>
<rect x="1002.16" y="483.59" width="43.33" height="68.52" fill="#e74c3c" stroke="#e74c3c" stroke-width="1"/>
<text x="1023.82" y="704" font-size="11" fill="#555555" text-anchor="middle">02-10</text>
<text x="1023.82" y="720" font-size="11" fill="#555555" text-anchor="middle">21:00</text>
<line x1="1098.53" y1="434.64" x2="1098.53" y2="561.90" stroke="#2ecc71" stroke-width="2"/>
<rect x="1076.86" y="490.93" width="43.33" height="58.73" fill="#2ecc71" stroke="#2ecc71" stroke-width="1"/>
<text x="1098.53" y="704" font-size="11" fill="#555555" text-anchor="middle">02-10</text>
<text x="1098.53" y="720" font-size="11" fill="#555555" text-anchor="middle">22:00</text>
<line x1="1173.24" y1="407.72" x2="1173.24" y2="495.82" stroke="#2ecc71" stroke-width="2"/>
<rect x="1151.57" y="429.75" width="43.33" height="66.08" fill="#2ecc71" stroke="#2ecc71" stroke-width="1"/>
<text x="1173.24" y="704" font-size="11" fill="#555555" text-anchor="middle">02-10</text>
<text x="1173.24" y="720" font-size="11" fill="#555555" text-anchor="middle">23:00</text>
<line x1="1247.94" y1="405.27" x2="1247.94" y2="505.61" stroke="#e74c3c" stroke-width="2"/>
<rect x="1226.28" y="434.64" width="43.33" height="39.16" fill="#e74c3c" stroke="#e74c3c" stroke-width="1"/>
<text x="1247.94" y="704" font-size="11" fill="#555555" text-anchor="middle">02-11</text>
<text x="1247.94" y="720" font-size="11" fill="#555555" text-anchor="middle">00:00</text>
<line x1="1322.65" y1="466.46" x2="1322.65" y2="508.06" stroke="#e74c3c" stroke-width="2"/>
<rect x="1300.98" y="471.35" width="43.33" height="19.58" fill="#e74c3c" stroke="#e74c3c" stroke-width="1"/>
<text x="1322.65" y="704" font-size="11" fill="#555555" text-anchor="middle">02-11</text>
<text x="1322.65" y="720" font-size="11" fill="#555555" text-anchor="middle">01:00</text>
<line x1="725.00" y1="70.00" x2="805.00" y2="90.00" stroke="#f1c40f" stroke-width="2"/>
<rect x="805.00" y="42.00" width="220" height="72" rx="8" fill="#fff8dc" stroke="#f1c40f"/>
<text x="815.00" y="66.00" font-size="12" fill="#111111">目标K线 2026-02-10 17:00</text>
<text x="815.00" y="84.00" font-size="12" fill="#111111">振幅 22.13%</text>
<text x="815.00" y="102.00" font-size="12" fill="#111111">倍数 9.60x</text>
<line x1="650.29" y1="574.14" x2="620.29" y2="534.14" stroke="#3498db" stroke-width="2"/>
<rect x="400.29" y="498.14" width="220" height="58" rx="8" fill="#eef6ff" stroke="#3498db"/>
<text x="410.29" y="520.14" font-size="12" fill="#111111">前一根涨幅 2.20%</text>
<text x="410.29" y="538.14" font-size="12" fill="#111111">前一根振幅 2.31%</text>
</svg>