<svg xmlns="http://www.w3.org/2000/svg" width="1500" height="860" viewBox="0 0 1500 860">
<rect width="100%" height="100%" fill="#fcfcfc"/>
<text x="90" y="38" font-size="28" font-weight="700" fill="#111111">0G-USDT-SWAP 15m - 10倍命中定位图</text>
<text x="90" y="68" font-size="16" fill="#555555">1H命中时间: 2026-04-13 00:00:00 | 10倍价: 0.673940 | 命中倍数: 13.9250x</text>
<line x1="90" y1="80.00" x2="1452" y2="80.00" stroke="#d9d9d9" stroke-dasharray="4 4" stroke-width="1"/>
<text x="12" y="84.00" font-size="12" fill="#555555">0.715600</text>
<line x1="90" y1="210.00" x2="1452" y2="210.00" stroke="#d9d9d9" stroke-dasharray="4 4" stroke-width="1"/>
<text x="12" y="214.00" font-size="12" fill="#555555">0.683500</text>
<line x1="90" y1="340.00" x2="1452" y2="340.00" stroke="#d9d9d9" stroke-dasharray="4 4" stroke-width="1"/>
<text x="12" y="344.00" font-size="12" fill="#555555">0.651400</text>
<line x1="90" y1="470.00" x2="1452" y2="470.00" stroke="#d9d9d9" stroke-dasharray="4 4" stroke-width="1"/>
<text x="12" y="474.00" font-size="12" fill="#555555">0.619300</text>
<line x1="90" y1="600.00" x2="1452" y2="600.00" stroke="#d9d9d9" stroke-dasharray="4 4" stroke-width="1"/>
<text x="12" y="604.00" font-size="12" fill="#555555">0.587200</text>
<line x1="90" y1="730.00" x2="1452" y2="730.00" stroke="#d9d9d9" stroke-dasharray="4 4" stroke-width="1"/>
<text x="12" y="734.00" font-size="12" fill="#555555">0.555100</text>
<rect x="525.84" y="80" width="54.48" height="650.00" fill="#f1c40f" opacity="0.16"/>
<line x1="553.08" y1="80" x2="553.08" y2="730" stroke="#f39c12" stroke-width="2" stroke-dasharray="6 4"/>
<line x1="90" y1="248.72" x2="1452" y2="248.72" stroke="#8e44ad" stroke-width="2" stroke-dasharray="8 4"/>
<text x="1444" y="240.72" font-size="13" fill="#8e44ad" text-anchor="end">10倍价 0.673940</text>
<line x1="117.24" y1="703.27" x2="117.24" y2="730.00" stroke="#2ecc71" stroke-width="2"/>
<rect x="101.99" y="706.11" width="30.51" height="23.89" fill="#2ecc71" stroke="#2ecc71" stroke-width="1"/>
<text x="117.24" y="802" font-size="11" fill="#555555" text-anchor="middle">04-12</text>
<text x="117.24" y="818" font-size="11" fill="#555555" text-anchor="middle">22:00</text>
<line x1="171.72" y1="689.50" x2="171.72" y2="713.40" stroke="#2ecc71" stroke-width="2"/>
<rect x="156.47" y="702.46" width="30.51" height="5.26" fill="#2ecc71" stroke="#2ecc71" stroke-width="1"/>
<text x="171.72" y="802" font-size="11" fill="#555555" text-anchor="middle">04-12</text>
<text x="171.72" y="818" font-size="11" fill="#555555" text-anchor="middle">22:15</text>
<line x1="226.20" y1="676.95" x2="226.20" y2="706.51" stroke="#2ecc71" stroke-width="2"/>
<rect x="210.95" y="687.88" width="30.51" height="14.17" fill="#2ecc71" stroke="#2ecc71" stroke-width="1"/>
<text x="226.20" y="802" font-size="11" fill="#555555" text-anchor="middle">04-12</text>
<text x="226.20" y="818" font-size="11" fill="#555555" text-anchor="middle">22:30</text>
<line x1="280.68" y1="683.43" x2="280.68" y2="712.99" stroke="#e74c3c" stroke-width="2"/>
<rect x="265.43" y="687.07" width="30.51" height="16.60" fill="#e74c3c" stroke="#e74c3c" stroke-width="1"/>
<text x="280.68" y="802" font-size="11" fill="#555555" text-anchor="middle">04-12</text>
<text x="280.68" y="818" font-size="11" fill="#555555" text-anchor="middle">22:45</text>
<line x1="335.16" y1="695.17" x2="335.16" y2="709.35" stroke="#2ecc71" stroke-width="2"/>
<rect x="319.91" y="702.06" width="30.51" height="1.20" fill="#2ecc71" stroke="#2ecc71" stroke-width="1"/>
<text x="335.16" y="802" font-size="11" fill="#555555" text-anchor="middle">04-12</text>
<text x="335.16" y="818" font-size="11" fill="#555555" text-anchor="middle">23:00</text>
<line x1="389.64" y1="683.02" x2="389.64" y2="717.85" stroke="#2ecc71" stroke-width="2"/>
<rect x="374.39" y="683.83" width="30.51" height="17.82" fill="#2ecc71" stroke="#2ecc71" stroke-width="1"/>
<text x="389.64" y="802" font-size="11" fill="#555555" text-anchor="middle">04-12</text>
<text x="389.64" y="818" font-size="11" fill="#555555" text-anchor="middle">23:15</text>
<line x1="444.12" y1="675.33" x2="444.12" y2="700.03" stroke="#2ecc71" stroke-width="2"/>
<rect x="428.87" y="685.05" width="30.51" height="1.20" fill="#2ecc71" stroke="#2ecc71" stroke-width="1"/>
<text x="444.12" y="802" font-size="11" fill="#555555" text-anchor="middle">04-12</text>
<text x="444.12" y="818" font-size="11" fill="#555555" text-anchor="middle">23:30</text>
<line x1="498.60" y1="675.33" x2="498.60" y2="693.55" stroke="#2ecc71" stroke-width="2"/>
<rect x="483.35" y="678.16" width="30.51" height="7.29" fill="#2ecc71" stroke="#2ecc71" stroke-width="1"/>
<text x="498.60" y="802" font-size="11" fill="#555555" text-anchor="middle">04-12</text>
<text x="498.60" y="818" font-size="11" fill="#555555" text-anchor="middle">23:45</text>
<line x1="553.08" y1="143.18" x2="553.08" y2="678.57" stroke="#2ecc71" stroke-width="2"/>
<rect x="537.83" y="303.55" width="30.51" height="374.21" fill="#2ecc71" stroke="#2ecc71" stroke-width="1"/>
<text x="553.08" y="802" font-size="11" fill="#555555" text-anchor="middle">04-13</text>
<text x="553.08" y="818" font-size="11" fill="#555555" text-anchor="middle">00:00</text>
<line x1="607.56" y1="80.00" x2="607.56" y2="457.85" stroke="#e74c3c" stroke-width="2"/>
<rect x="592.31" y="305.58" width="30.51" height="83.83" fill="#e74c3c" stroke="#e74c3c" stroke-width="1"/>
<text x="607.56" y="802" font-size="11" fill="#555555" text-anchor="middle">04-13</text>
<text x="607.56" y="818" font-size="11" fill="#555555" text-anchor="middle">00:15</text>
<line x1="662.04" y1="301.53" x2="662.04" y2="444.89" stroke="#e74c3c" stroke-width="2"/>
<rect x="646.79" y="389.00" width="30.51" height="40.09" fill="#e74c3c" stroke="#e74c3c" stroke-width="1"/>
<text x="662.04" y="802" font-size="11" fill="#555555" text-anchor="middle">04-13</text>
<text x="662.04" y="818" font-size="11" fill="#555555" text-anchor="middle">00:30</text>
<line x1="716.52" y1="414.92" x2="716.52" y2="550.19" stroke="#e74c3c" stroke-width="2"/>
<rect x="701.27" y="429.91" width="30.51" height="68.44" fill="#e74c3c" stroke="#e74c3c" stroke-width="1"/>
<text x="716.52" y="802" font-size="11" fill="#555555" text-anchor="middle">04-13</text>
<text x="716.52" y="818" font-size="11" fill="#555555" text-anchor="middle">00:45</text>
<line x1="771.00" y1="460.28" x2="771.00" y2="551.40" stroke="#2ecc71" stroke-width="2"/>
<rect x="755.75" y="481.74" width="30.51" height="17.01" fill="#2ecc71" stroke="#2ecc71" stroke-width="1"/>
<text x="771.00" y="802" font-size="11" fill="#555555" text-anchor="middle">04-13</text>
<text x="771.00" y="818" font-size="11" fill="#555555" text-anchor="middle">01:00</text>
<line x1="825.48" y1="461.50" x2="825.48" y2="533.18" stroke="#e74c3c" stroke-width="2"/>
<rect x="810.23" y="482.15" width="30.51" height="33.21" fill="#e74c3c" stroke="#e74c3c" stroke-width="1"/>
<text x="825.48" y="802" font-size="11" fill="#555555" text-anchor="middle">04-13</text>
<text x="825.48" y="818" font-size="11" fill="#555555" text-anchor="middle">01:15</text>
<line x1="879.96" y1="481.74" x2="879.96" y2="523.86" stroke="#2ecc71" stroke-width="2"/>
<rect x="864.71" y="487.82" width="30.51" height="27.13" fill="#2ecc71" stroke="#2ecc71" stroke-width="1"/>
<text x="879.96" y="802" font-size="11" fill="#555555" text-anchor="middle">04-13</text>
<text x="879.96" y="818" font-size="11" fill="#555555" text-anchor="middle">01:30</text>
<line x1="934.44" y1="479.31" x2="934.44" y2="511.71" stroke="#2ecc71" stroke-width="2"/>
<rect x="919.19" y="484.58" width="30.51" height="3.24" fill="#2ecc71" stroke="#2ecc71" stroke-width="1"/>
<text x="934.44" y="802" font-size="11" fill="#555555" text-anchor="middle">04-13</text>
<text x="934.44" y="818" font-size="11" fill="#555555" text-anchor="middle">01:45</text>
<line x1="988.92" y1="475.26" x2="988.92" y2="520.22" stroke="#e74c3c" stroke-width="2"/>
<rect x="973.67" y="484.98" width="30.51" height="14.17" fill="#e74c3c" stroke="#e74c3c" stroke-width="1"/>
<text x="988.92" y="802" font-size="11" fill="#555555" text-anchor="middle">04-13</text>
<text x="988.92" y="818" font-size="11" fill="#555555" text-anchor="middle">02:00</text>
<line x1="1043.40" y1="485.79" x2="1043.40" y2="510.50" stroke="#e74c3c" stroke-width="2"/>
<rect x="1028.15" y="499.16" width="30.51" height="4.05" fill="#e74c3c" stroke="#e74c3c" stroke-width="1"/>
<text x="1043.40" y="802" font-size="11" fill="#555555" text-anchor="middle">04-13</text>
<text x="1043.40" y="818" font-size="11" fill="#555555" text-anchor="middle">02:15</text>
<line x1="1097.88" y1="468.79" x2="1097.88" y2="502.40" stroke="#2ecc71" stroke-width="2"/>
<rect x="1082.63" y="486.20" width="30.51" height="16.20" fill="#2ecc71" stroke="#2ecc71" stroke-width="1"/>
<text x="1097.88" y="802" font-size="11" fill="#555555" text-anchor="middle">04-13</text>
<text x="1097.88" y="818" font-size="11" fill="#555555" text-anchor="middle">02:30</text>
<line x1="1152.36" y1="373.21" x2="1152.36" y2="490.65" stroke="#2ecc71" stroke-width="2"/>
<rect x="1137.11" y="430.72" width="30.51" height="55.48" fill="#2ecc71" stroke="#2ecc71" stroke-width="1"/>
<text x="1152.36" y="802" font-size="11" fill="#555555" text-anchor="middle">04-13</text>
<text x="1152.36" y="818" font-size="11" fill="#555555" text-anchor="middle">02:45</text>
<line x1="1206.84" y1="377.66" x2="1206.84" y2="450.16" stroke="#2ecc71" stroke-width="2"/>
<rect x="1191.59" y="413.30" width="30.51" height="17.82" fill="#2ecc71" stroke="#2ecc71" stroke-width="1"/>
<text x="1206.84" y="802" font-size="11" fill="#555555" text-anchor="middle">04-13</text>
<text x="1206.84" y="818" font-size="11" fill="#555555" text-anchor="middle">03:00</text>
<line x1="1261.32" y1="380.09" x2="1261.32" y2="477.69" stroke="#e74c3c" stroke-width="2"/>
<rect x="1246.07" y="412.90" width="30.51" height="45.76" fill="#e74c3c" stroke="#e74c3c" stroke-width="1"/>
<text x="1261.32" y="802" font-size="11" fill="#555555" text-anchor="middle">04-13</text>
<text x="1261.32" y="818" font-size="11" fill="#555555" text-anchor="middle">03:15</text>
<line x1="1315.80" y1="426.26" x2="1315.80" y2="478.10" stroke="#e74c3c" stroke-width="2"/>
<rect x="1300.55" y="458.26" width="30.51" height="9.72" fill="#e74c3c" stroke="#e74c3c" stroke-width="1"/>
<text x="1315.80" y="802" font-size="11" fill="#555555" text-anchor="middle">04-13</text>
<text x="1315.80" y="818" font-size="11" fill="#555555" text-anchor="middle">03:30</text>
<line x1="1370.28" y1="452.99" x2="1370.28" y2="487.01" stroke="#2ecc71" stroke-width="2"/>
<rect x="1355.03" y="457.85" width="30.51" height="8.50" fill="#2ecc71" stroke="#2ecc71" stroke-width="1"/>
<text x="1370.28" y="802" font-size="11" fill="#555555" text-anchor="middle">04-13</text>
<text x="1370.28" y="818" font-size="11" fill="#555555" text-anchor="middle">03:45</text>
<line x1="1424.76" y1="454.21" x2="1424.76" y2="493.89" stroke="#e74c3c" stroke-width="2"/>
<rect x="1409.51" y="457.45" width="30.51" height="20.25" fill="#e74c3c" stroke="#e74c3c" stroke-width="1"/>
<text x="1424.76" y="802" font-size="11" fill="#555555" text-anchor="middle">04-13</text>
<text x="1424.76" y="818" font-size="11" fill="#555555" text-anchor="middle">04:00</text>
<line x1="553.08" y1="143.18" x2="623.08" y2="104.00" stroke="#f39c12" stroke-width="2"/>
<rect x="623.08" y="52.00" width="280" height="90" rx="10" fill="#fff8dc" stroke="#f39c12"/>
<text x="635.08" y="76.00" font-size="13" fill="#111111">15m定位时间 2026-04-13 00:00:00</text>
<text x="635.08" y="96.00" font-size="13" fill="#111111">该15m最高价 0.700000</text>
<text x="635.08" y="116.00" font-size="13" fill="#111111">10倍价横线已标出</text>
<text x="635.08" y="136.00" font-size="13" fill="#111111">竖线高亮首次触达10倍价的15m</text>
</svg>