<svg xmlns="http://www.w3.org/2000/svg" width="1500" height="860" viewBox="0 0 1500 860">
<rect width="100%" height="100%" fill="#fcfcfc"/>
<text x="90" y="38" font-size="28" font-weight="700" fill="#111111">1INCH-USDT-SWAP 15m - 10倍命中定位图</text>
<text x="90" y="68" font-size="16" fill="#555555">1H命中时间: 2023-11-08 15:00:00 | 10倍价: 0.412129 | 命中倍数: 10.9234x</text>
<line x1="90" y1="80.00" x2="1452" y2="80.00" stroke="#d9d9d9" stroke-dasharray="4 4" stroke-width="1"/>
<text x="12" y="84.00" font-size="12" fill="#555555">0.418300</text>
<line x1="90" y1="210.00" x2="1452" y2="210.00" stroke="#d9d9d9" stroke-dasharray="4 4" stroke-width="1"/>
<text x="12" y="214.00" font-size="12" fill="#555555">0.402740</text>
<line x1="90" y1="340.00" x2="1452" y2="340.00" stroke="#d9d9d9" stroke-dasharray="4 4" stroke-width="1"/>
<text x="12" y="344.00" font-size="12" fill="#555555">0.387180</text>
<line x1="90" y1="470.00" x2="1452" y2="470.00" stroke="#d9d9d9" stroke-dasharray="4 4" stroke-width="1"/>
<text x="12" y="474.00" font-size="12" fill="#555555">0.371620</text>
<line x1="90" y1="600.00" x2="1452" y2="600.00" stroke="#d9d9d9" stroke-dasharray="4 4" stroke-width="1"/>
<text x="12" y="604.00" font-size="12" fill="#555555">0.356060</text>
<line x1="90" y1="730.00" x2="1452" y2="730.00" stroke="#d9d9d9" stroke-dasharray="4 4" stroke-width="1"/>
<text x="12" y="734.00" font-size="12" fill="#555555">0.340500</text>
<rect x="689.28" y="80" width="54.48" height="650.00" fill="#f1c40f" opacity="0.16"/>
<line x1="716.52" y1="80" x2="716.52" y2="730" stroke="#f39c12" stroke-width="2" stroke-dasharray="6 4"/>
<line x1="90" y1="131.56" x2="1452" y2="131.56" stroke="#8e44ad" stroke-width="2" stroke-dasharray="8 4"/>
<text x="1444" y="123.56" font-size="13" fill="#8e44ad" text-anchor="end">10倍价 0.412129</text>
<line x1="117.24" y1="700.76" x2="117.24" y2="712.46" stroke="#2ecc71" stroke-width="2"/>
<rect x="101.99" y="705.77" width="30.51" height="1.20" fill="#2ecc71" stroke="#2ecc71" stroke-width="1"/>
<text x="117.24" y="802" font-size="11" fill="#555555" text-anchor="middle">11-08</text>
<text x="117.24" y="818" font-size="11" fill="#555555" text-anchor="middle">13:00</text>
<line x1="171.72" y1="703.26" x2="171.72" y2="715.80" stroke="#e74c3c" stroke-width="2"/>
<rect x="156.47" y="704.94" width="30.51" height="2.51" fill="#e74c3c" stroke="#e74c3c" stroke-width="1"/>
<text x="171.72" y="802" font-size="11" fill="#555555" text-anchor="middle">11-08</text>
<text x="171.72" y="818" font-size="11" fill="#555555" text-anchor="middle">13:15</text>
<line x1="226.20" y1="706.61" x2="226.20" y2="721.65" stroke="#e74c3c" stroke-width="2"/>
<rect x="210.95" y="707.44" width="30.51" height="5.85" fill="#e74c3c" stroke="#e74c3c" stroke-width="1"/>
<text x="226.20" y="802" font-size="11" fill="#555555" text-anchor="middle">11-08</text>
<text x="226.20" y="818" font-size="11" fill="#555555" text-anchor="middle">13:30</text>
<line x1="280.68" y1="713.29" x2="280.68" y2="721.65" stroke="#e74c3c" stroke-width="2"/>
<rect x="265.43" y="713.29" width="30.51" height="1.67" fill="#e74c3c" stroke="#e74c3c" stroke-width="1"/>
<text x="280.68" y="802" font-size="11" fill="#555555" text-anchor="middle">11-08</text>
<text x="280.68" y="818" font-size="11" fill="#555555" text-anchor="middle">13:45</text>
<line x1="335.16" y1="713.29" x2="335.16" y2="727.49" stroke="#e74c3c" stroke-width="2"/>
<rect x="319.91" y="714.96" width="30.51" height="4.18" fill="#e74c3c" stroke="#e74c3c" stroke-width="1"/>
<text x="335.16" y="802" font-size="11" fill="#555555" text-anchor="middle">11-08</text>
<text x="335.16" y="818" font-size="11" fill="#555555" text-anchor="middle">14:00</text>
<line x1="389.64" y1="707.44" x2="389.64" y2="730.00" stroke="#2ecc71" stroke-width="2"/>
<rect x="374.39" y="707.44" width="30.51" height="10.86" fill="#2ecc71" stroke="#2ecc71" stroke-width="1"/>
<text x="389.64" y="802" font-size="11" fill="#555555" text-anchor="middle">11-08</text>
<text x="389.64" y="818" font-size="11" fill="#555555" text-anchor="middle">14:15</text>
<line x1="444.12" y1="694.07" x2="444.12" y2="708.28" stroke="#2ecc71" stroke-width="2"/>
<rect x="428.87" y="695.75" width="30.51" height="11.70" fill="#2ecc71" stroke="#2ecc71" stroke-width="1"/>
<text x="444.12" y="802" font-size="11" fill="#555555" text-anchor="middle">11-08</text>
<text x="444.12" y="818" font-size="11" fill="#555555" text-anchor="middle">14:30</text>
<line x1="498.60" y1="674.86" x2="498.60" y2="695.75" stroke="#2ecc71" stroke-width="2"/>
<rect x="483.35" y="680.71" width="30.51" height="15.04" fill="#2ecc71" stroke="#2ecc71" stroke-width="1"/>
<text x="498.60" y="802" font-size="11" fill="#555555" text-anchor="middle">11-08</text>
<text x="498.60" y="818" font-size="11" fill="#555555" text-anchor="middle">14:45</text>
<line x1="553.08" y1="676.53" x2="553.08" y2="689.90" stroke="#e74c3c" stroke-width="2"/>
<rect x="537.83" y="679.04" width="30.51" height="7.52" fill="#e74c3c" stroke="#e74c3c" stroke-width="1"/>
<text x="553.08" y="802" font-size="11" fill="#555555" text-anchor="middle">11-08</text>
<text x="553.08" y="818" font-size="11" fill="#555555" text-anchor="middle">15:00</text>
<line x1="607.56" y1="496.90" x2="607.56" y2="688.23" stroke="#2ecc71" stroke-width="2"/>
<rect x="592.31" y="506.09" width="30.51" height="180.46" fill="#2ecc71" stroke="#2ecc71" stroke-width="1"/>
<text x="607.56" y="802" font-size="11" fill="#555555" text-anchor="middle">11-08</text>
<text x="607.56" y="818" font-size="11" fill="#555555" text-anchor="middle">15:15</text>
<line x1="662.04" y1="205.32" x2="662.04" y2="516.12" stroke="#2ecc71" stroke-width="2"/>
<rect x="646.79" y="234.56" width="30.51" height="270.69" fill="#2ecc71" stroke="#2ecc71" stroke-width="1"/>
<text x="662.04" y="802" font-size="11" fill="#555555" text-anchor="middle">11-08</text>
<text x="662.04" y="818" font-size="11" fill="#555555" text-anchor="middle">15:30</text>
<line x1="716.52" y1="80.00" x2="716.52" y2="381.61" stroke="#e74c3c" stroke-width="2"/>
<rect x="701.27" y="233.73" width="30.51" height="90.23" fill="#e74c3c" stroke="#e74c3c" stroke-width="1"/>
<text x="716.52" y="802" font-size="11" fill="#555555" text-anchor="middle">11-08</text>
<text x="716.52" y="818" font-size="11" fill="#555555" text-anchor="middle">15:45</text>
<line x1="771.00" y1="310.59" x2="771.00" y2="481.86" stroke="#e74c3c" stroke-width="2"/>
<rect x="755.75" y="326.47" width="30.51" height="89.40" fill="#e74c3c" stroke="#e74c3c" stroke-width="1"/>
<text x="771.00" y="802" font-size="11" fill="#555555" text-anchor="middle">11-08</text>
<text x="771.00" y="818" font-size="11" fill="#555555" text-anchor="middle">16:00</text>
<line x1="825.48" y1="313.93" x2="825.48" y2="441.76" stroke="#2ecc71" stroke-width="2"/>
<rect x="810.23" y="404.16" width="30.51" height="11.70" fill="#2ecc71" stroke="#2ecc71" stroke-width="1"/>
<text x="825.48" y="802" font-size="11" fill="#555555" text-anchor="middle">11-08</text>
<text x="825.48" y="818" font-size="11" fill="#555555" text-anchor="middle">16:15</text>
<line x1="879.96" y1="344.85" x2="879.96" y2="420.87" stroke="#2ecc71" stroke-width="2"/>
<rect x="864.71" y="371.58" width="30.51" height="32.58" fill="#2ecc71" stroke="#2ecc71" stroke-width="1"/>
<text x="879.96" y="802" font-size="11" fill="#555555" text-anchor="middle">11-08</text>
<text x="879.96" y="818" font-size="11" fill="#555555" text-anchor="middle">16:30</text>
<line x1="934.44" y1="349.02" x2="934.44" y2="415.86" stroke="#e74c3c" stroke-width="2"/>
<rect x="919.19" y="371.58" width="30.51" height="21.72" fill="#e74c3c" stroke="#e74c3c" stroke-width="1"/>
<text x="934.44" y="802" font-size="11" fill="#555555" text-anchor="middle">11-08</text>
<text x="934.44" y="818" font-size="11" fill="#555555" text-anchor="middle">16:45</text>
<line x1="988.92" y1="375.76" x2="988.92" y2="427.56" stroke="#e74c3c" stroke-width="2"/>
<rect x="973.67" y="394.14" width="30.51" height="14.20" fill="#e74c3c" stroke="#e74c3c" stroke-width="1"/>
<text x="988.92" y="802" font-size="11" fill="#555555" text-anchor="middle">11-08</text>
<text x="988.92" y="818" font-size="11" fill="#555555" text-anchor="middle">17:00</text>
<line x1="1043.40" y1="387.46" x2="1043.40" y2="435.91" stroke="#2ecc71" stroke-width="2"/>
<rect x="1028.15" y="399.99" width="30.51" height="8.35" fill="#2ecc71" stroke="#2ecc71" stroke-width="1"/>
<text x="1043.40" y="802" font-size="11" fill="#555555" text-anchor="middle">11-08</text>
<text x="1043.40" y="818" font-size="11" fill="#555555" text-anchor="middle">17:15</text>
<line x1="1097.88" y1="380.77" x2="1097.88" y2="460.98" stroke="#e74c3c" stroke-width="2"/>
<rect x="1082.63" y="399.15" width="30.51" height="38.43" fill="#e74c3c" stroke="#e74c3c" stroke-width="1"/>
<text x="1097.88" y="802" font-size="11" fill="#555555" text-anchor="middle">11-08</text>
<text x="1097.88" y="818" font-size="11" fill="#555555" text-anchor="middle">17:30</text>
<line x1="1152.36" y1="428.39" x2="1152.36" y2="505.26" stroke="#e74c3c" stroke-width="2"/>
<rect x="1137.11" y="437.58" width="30.51" height="5.85" fill="#e74c3c" stroke="#e74c3c" stroke-width="1"/>
<text x="1152.36" y="802" font-size="11" fill="#555555" text-anchor="middle">11-08</text>
<text x="1152.36" y="818" font-size="11" fill="#555555" text-anchor="middle">17:45</text>
<line x1="1206.84" y1="426.72" x2="1206.84" y2="462.65" stroke="#2ecc71" stroke-width="2"/>
<rect x="1191.59" y="432.57" width="30.51" height="14.20" fill="#2ecc71" stroke="#2ecc71" stroke-width="1"/>
<text x="1206.84" y="802" font-size="11" fill="#555555" text-anchor="middle">11-08</text>
<text x="1206.84" y="818" font-size="11" fill="#555555" text-anchor="middle">18:00</text>
<line x1="1261.32" y1="429.23" x2="1261.32" y2="496.07" stroke="#e74c3c" stroke-width="2"/>
<rect x="1246.07" y="431.74" width="30.51" height="45.12" fill="#e74c3c" stroke="#e74c3c" stroke-width="1"/>
<text x="1261.32" y="802" font-size="11" fill="#555555" text-anchor="middle">11-08</text>
<text x="1261.32" y="818" font-size="11" fill="#555555" text-anchor="middle">18:15</text>
<line x1="1315.80" y1="442.60" x2="1315.80" y2="486.04" stroke="#2ecc71" stroke-width="2"/>
<rect x="1300.55" y="452.62" width="30.51" height="25.06" fill="#2ecc71" stroke="#2ecc71" stroke-width="1"/>
<text x="1315.80" y="802" font-size="11" fill="#555555" text-anchor="middle">11-08</text>
<text x="1315.80" y="818" font-size="11" fill="#555555" text-anchor="middle">18:30</text>
<line x1="1370.28" y1="452.62" x2="1370.28" y2="474.34" stroke="#e74c3c" stroke-width="2"/>
<rect x="1355.03" y="452.62" width="30.51" height="18.38" fill="#e74c3c" stroke="#e74c3c" stroke-width="1"/>
<text x="1370.28" y="802" font-size="11" fill="#555555" text-anchor="middle">11-08</text>
<text x="1370.28" y="818" font-size="11" fill="#555555" text-anchor="middle">18:45</text>
<line x1="1424.76" y1="467.66" x2="1424.76" y2="546.20" stroke="#e74c3c" stroke-width="2"/>
<rect x="1409.51" y="471.00" width="30.51" height="61.83" fill="#e74c3c" stroke="#e74c3c" stroke-width="1"/>
<text x="1424.76" y="802" font-size="11" fill="#555555" text-anchor="middle">11-08</text>
<text x="1424.76" y="818" font-size="11" fill="#555555" text-anchor="middle">19:00</text>
<line x1="716.52" y1="80.00" x2="786.52" y2="104.00" stroke="#f39c12" stroke-width="2"/>
<rect x="786.52" y="52.00" width="280" height="90" rx="10" fill="#fff8dc" stroke="#f39c12"/>
<text x="798.52" y="76.00" font-size="13" fill="#111111">15m定位时间 2023-11-08 15:45:00</text>
<text x="798.52" y="96.00" font-size="13" fill="#111111">该15m最高价 0.418300</text>
<text x="798.52" y="116.00" font-size="13" fill="#111111">10倍价横线已标出</text>
<text x="798.52" y="136.00" font-size="13" fill="#111111">竖线高亮首次触达10倍价的15m</text>
</svg>