<svg xmlns="http://www.w3.org/2000/svg" width="1500" height="860" viewBox="0 0 1500 860">
<rect width="100%" height="100%" fill="#fcfcfc"/>
<text x="90" y="38" font-size="28" font-weight="700" fill="#111111">2Z-USDT-SWAP 15m - 10倍命中定位图</text>
<text x="90" y="68" font-size="16" fill="#555555">1H命中时间: 2025-11-22 00:00:00 | 10倍价: 0.168650 | 命中倍数: 14.9311x</text>
<line x1="90" y1="80.00" x2="1452" y2="80.00" stroke="#d9d9d9" stroke-dasharray="4 4" stroke-width="1"/>
<text x="12" y="84.00" font-size="12" fill="#555555">0.191900</text>
<line x1="90" y1="210.00" x2="1452" y2="210.00" stroke="#d9d9d9" stroke-dasharray="4 4" stroke-width="1"/>
<text x="12" y="214.00" font-size="12" fill="#555555">0.176940</text>
<line x1="90" y1="340.00" x2="1452" y2="340.00" stroke="#d9d9d9" stroke-dasharray="4 4" stroke-width="1"/>
<text x="12" y="344.00" font-size="12" fill="#555555">0.161980</text>
<line x1="90" y1="470.00" x2="1452" y2="470.00" stroke="#d9d9d9" stroke-dasharray="4 4" stroke-width="1"/>
<text x="12" y="474.00" font-size="12" fill="#555555">0.147020</text>
<line x1="90" y1="600.00" x2="1452" y2="600.00" stroke="#d9d9d9" stroke-dasharray="4 4" stroke-width="1"/>
<text x="12" y="604.00" font-size="12" fill="#555555">0.132060</text>
<line x1="90" y1="730.00" x2="1452" y2="730.00" stroke="#d9d9d9" stroke-dasharray="4 4" stroke-width="1"/>
<text x="12" y="734.00" font-size="12" fill="#555555">0.117100</text>
<rect x="525.84" y="80" width="54.48" height="650.00" fill="#f1c40f" opacity="0.16"/>
<line x1="553.08" y1="80" x2="553.08" y2="730" stroke="#f39c12" stroke-width="2" stroke-dasharray="6 4"/>
<line x1="90" y1="282.04" x2="1452" y2="282.04" stroke="#8e44ad" stroke-width="2" stroke-dasharray="8 4"/>
<text x="1444" y="274.04" font-size="13" fill="#8e44ad" text-anchor="end">10倍价 0.168650</text>
<line x1="117.24" y1="703.93" x2="117.24" y2="730.00" stroke="#2ecc71" stroke-width="2"/>
<rect x="101.99" y="714.36" width="30.51" height="11.30" fill="#2ecc71" stroke="#2ecc71" stroke-width="1"/>
<text x="117.24" y="802" font-size="11" fill="#555555" text-anchor="middle">11-21</text>
<text x="117.24" y="818" font-size="11" fill="#555555" text-anchor="middle">22:00</text>
<line x1="171.72" y1="701.32" x2="171.72" y2="716.97" stroke="#e74c3c" stroke-width="2"/>
<rect x="156.47" y="714.36" width="30.51" height="1.20" fill="#e74c3c" stroke="#e74c3c" stroke-width="1"/>
<text x="171.72" y="802" font-size="11" fill="#555555" text-anchor="middle">11-21</text>
<text x="171.72" y="818" font-size="11" fill="#555555" text-anchor="middle">22:15</text>
<line x1="226.20" y1="690.90" x2="226.20" y2="716.10" stroke="#2ecc71" stroke-width="2"/>
<rect x="210.95" y="701.32" width="30.51" height="13.03" fill="#2ecc71" stroke="#2ecc71" stroke-width="1"/>
<text x="226.20" y="802" font-size="11" fill="#555555" text-anchor="middle">11-21</text>
<text x="226.20" y="818" font-size="11" fill="#555555" text-anchor="middle">22:30</text>
<line x1="280.68" y1="698.72" x2="280.68" y2="708.28" stroke="#e74c3c" stroke-width="2"/>
<rect x="265.43" y="700.45" width="30.51" height="4.34" fill="#e74c3c" stroke="#e74c3c" stroke-width="1"/>
<text x="280.68" y="802" font-size="11" fill="#555555" text-anchor="middle">11-21</text>
<text x="280.68" y="818" font-size="11" fill="#555555" text-anchor="middle">22:45</text>
<line x1="335.16" y1="698.72" x2="335.16" y2="712.62" stroke="#2ecc71" stroke-width="2"/>
<rect x="319.91" y="703.06" width="30.51" height="1.74" fill="#2ecc71" stroke="#2ecc71" stroke-width="1"/>
<text x="335.16" y="802" font-size="11" fill="#555555" text-anchor="middle">11-21</text>
<text x="335.16" y="818" font-size="11" fill="#555555" text-anchor="middle">23:00</text>
<line x1="389.64" y1="678.73" x2="389.64" y2="704.80" stroke="#2ecc71" stroke-width="2"/>
<rect x="374.39" y="687.42" width="30.51" height="14.77" fill="#2ecc71" stroke="#2ecc71" stroke-width="1"/>
<text x="389.64" y="802" font-size="11" fill="#555555" text-anchor="middle">11-21</text>
<text x="389.64" y="818" font-size="11" fill="#555555" text-anchor="middle">23:15</text>
<line x1="444.12" y1="679.60" x2="444.12" y2="696.98" stroke="#e74c3c" stroke-width="2"/>
<rect x="428.87" y="688.29" width="30.51" height="5.21" fill="#e74c3c" stroke="#e74c3c" stroke-width="1"/>
<text x="444.12" y="802" font-size="11" fill="#555555" text-anchor="middle">11-21</text>
<text x="444.12" y="818" font-size="11" fill="#555555" text-anchor="middle">23:30</text>
<line x1="498.60" y1="672.65" x2="498.60" y2="694.37" stroke="#2ecc71" stroke-width="2"/>
<rect x="483.35" y="677.86" width="30.51" height="15.64" fill="#2ecc71" stroke="#2ecc71" stroke-width="1"/>
<text x="498.60" y="802" font-size="11" fill="#555555" text-anchor="middle">11-21</text>
<text x="498.60" y="818" font-size="11" fill="#555555" text-anchor="middle">23:45</text>
<line x1="553.08" y1="182.54" x2="553.08" y2="691.76" stroke="#2ecc71" stroke-width="2"/>
<rect x="537.83" y="182.54" width="30.51" height="496.19" fill="#2ecc71" stroke="#2ecc71" stroke-width="1"/>
<text x="553.08" y="802" font-size="11" fill="#555555" text-anchor="middle">11-22</text>
<text x="553.08" y="818" font-size="11" fill="#555555" text-anchor="middle">00:00</text>
<line x1="607.56" y1="80.00" x2="607.56" y2="536.22" stroke="#e74c3c" stroke-width="2"/>
<rect x="592.31" y="182.54" width="30.51" height="325.00" fill="#e74c3c" stroke="#e74c3c" stroke-width="1"/>
<text x="607.56" y="802" font-size="11" fill="#555555" text-anchor="middle">11-22</text>
<text x="607.56" y="818" font-size="11" fill="#555555" text-anchor="middle">00:15</text>
<line x1="662.04" y1="466.70" x2="662.04" y2="551.86" stroke="#2ecc71" stroke-width="2"/>
<rect x="646.79" y="474.52" width="30.51" height="33.02" fill="#2ecc71" stroke="#2ecc71" stroke-width="1"/>
<text x="662.04" y="802" font-size="11" fill="#555555" text-anchor="middle">11-22</text>
<text x="662.04" y="818" font-size="11" fill="#555555" text-anchor="middle">00:30</text>
<line x1="716.52" y1="364.16" x2="716.52" y2="488.42" stroke="#2ecc71" stroke-width="2"/>
<rect x="701.27" y="404.13" width="30.51" height="70.39" fill="#2ecc71" stroke="#2ecc71" stroke-width="1"/>
<text x="716.52" y="802" font-size="11" fill="#555555" text-anchor="middle">11-22</text>
<text x="716.52" y="818" font-size="11" fill="#555555" text-anchor="middle">00:45</text>
<line x1="771.00" y1="322.45" x2="771.00" y2="432.81" stroke="#e74c3c" stroke-width="2"/>
<rect x="755.75" y="405.00" width="30.51" height="19.12" fill="#e74c3c" stroke="#e74c3c" stroke-width="1"/>
<text x="771.00" y="802" font-size="11" fill="#555555" text-anchor="middle">11-22</text>
<text x="771.00" y="818" font-size="11" fill="#555555" text-anchor="middle">01:00</text>
<line x1="825.48" y1="399.79" x2="825.48" y2="464.09" stroke="#e74c3c" stroke-width="2"/>
<rect x="810.23" y="424.12" width="30.51" height="1.74" fill="#e74c3c" stroke="#e74c3c" stroke-width="1"/>
<text x="825.48" y="802" font-size="11" fill="#555555" text-anchor="middle">11-22</text>
<text x="825.48" y="818" font-size="11" fill="#555555" text-anchor="middle">01:15</text>
<line x1="879.96" y1="408.48" x2="879.96" y2="443.24" stroke="#2ecc71" stroke-width="2"/>
<rect x="864.71" y="420.64" width="30.51" height="5.21" fill="#2ecc71" stroke="#2ecc71" stroke-width="1"/>
<text x="879.96" y="802" font-size="11" fill="#555555" text-anchor="middle">11-22</text>
<text x="879.96" y="818" font-size="11" fill="#555555" text-anchor="middle">01:30</text>
<line x1="934.44" y1="379.80" x2="934.44" y2="452.79" stroke="#e74c3c" stroke-width="2"/>
<rect x="919.19" y="420.64" width="30.51" height="26.94" fill="#e74c3c" stroke="#e74c3c" stroke-width="1"/>
<text x="934.44" y="802" font-size="11" fill="#555555" text-anchor="middle">11-22</text>
<text x="934.44" y="818" font-size="11" fill="#555555" text-anchor="middle">01:45</text>
<line x1="988.92" y1="440.63" x2="988.92" y2="480.60" stroke="#e74c3c" stroke-width="2"/>
<rect x="973.67" y="448.45" width="30.51" height="19.99" fill="#e74c3c" stroke="#e74c3c" stroke-width="1"/>
<text x="988.92" y="802" font-size="11" fill="#555555" text-anchor="middle">11-22</text>
<text x="988.92" y="818" font-size="11" fill="#555555" text-anchor="middle">02:00</text>
<line x1="1043.40" y1="431.94" x2="1043.40" y2="484.08" stroke="#e74c3c" stroke-width="2"/>
<rect x="1028.15" y="469.30" width="30.51" height="10.43" fill="#e74c3c" stroke="#e74c3c" stroke-width="1"/>
<text x="1043.40" y="802" font-size="11" fill="#555555" text-anchor="middle">11-22</text>
<text x="1043.40" y="818" font-size="11" fill="#555555" text-anchor="middle">02:15</text>
<line x1="1097.88" y1="445.84" x2="1097.88" y2="484.08" stroke="#2ecc71" stroke-width="2"/>
<rect x="1082.63" y="456.27" width="30.51" height="23.46" fill="#2ecc71" stroke="#2ecc71" stroke-width="1"/>
<text x="1097.88" y="802" font-size="11" fill="#555555" text-anchor="middle">11-22</text>
<text x="1097.88" y="818" font-size="11" fill="#555555" text-anchor="middle">02:30</text>
<line x1="1152.36" y1="407.61" x2="1152.36" y2="463.22" stroke="#2ecc71" stroke-width="2"/>
<rect x="1137.11" y="424.99" width="30.51" height="30.41" fill="#2ecc71" stroke="#2ecc71" stroke-width="1"/>
<text x="1152.36" y="802" font-size="11" fill="#555555" text-anchor="middle">11-22</text>
<text x="1152.36" y="818" font-size="11" fill="#555555" text-anchor="middle">02:45</text>
<line x1="1206.84" y1="419.77" x2="1206.84" y2="503.20" stroke="#e74c3c" stroke-width="2"/>
<rect x="1191.59" y="425.86" width="30.51" height="69.52" fill="#e74c3c" stroke="#e74c3c" stroke-width="1"/>
<text x="1206.84" y="802" font-size="11" fill="#555555" text-anchor="middle">11-22</text>
<text x="1206.84" y="818" font-size="11" fill="#555555" text-anchor="middle">03:00</text>
<line x1="1261.32" y1="451.06" x2="1261.32" y2="497.11" stroke="#2ecc71" stroke-width="2"/>
<rect x="1246.07" y="454.53" width="30.51" height="40.84" fill="#2ecc71" stroke="#2ecc71" stroke-width="1"/>
<text x="1261.32" y="802" font-size="11" fill="#555555" text-anchor="middle">11-22</text>
<text x="1261.32" y="818" font-size="11" fill="#555555" text-anchor="middle">03:15</text>
<line x1="1315.80" y1="434.55" x2="1315.80" y2="460.61" stroke="#2ecc71" stroke-width="2"/>
<rect x="1300.55" y="446.71" width="30.51" height="6.08" fill="#2ecc71" stroke="#2ecc71" stroke-width="1"/>
<text x="1315.80" y="802" font-size="11" fill="#555555" text-anchor="middle">11-22</text>
<text x="1315.80" y="818" font-size="11" fill="#555555" text-anchor="middle">03:30</text>
<line x1="1370.28" y1="420.64" x2="1370.28" y2="444.97" stroke="#2ecc71" stroke-width="2"/>
<rect x="1355.03" y="431.94" width="30.51" height="13.03" fill="#2ecc71" stroke="#2ecc71" stroke-width="1"/>
<text x="1370.28" y="802" font-size="11" fill="#555555" text-anchor="middle">11-22</text>
<text x="1370.28" y="818" font-size="11" fill="#555555" text-anchor="middle">03:45</text>
<line x1="1424.76" y1="431.07" x2="1424.76" y2="492.77" stroke="#e74c3c" stroke-width="2"/>
<rect x="1409.51" y="431.07" width="30.51" height="49.53" fill="#e74c3c" stroke="#e74c3c" stroke-width="1"/>
<text x="1424.76" y="802" font-size="11" fill="#555555" text-anchor="middle">11-22</text>
<text x="1424.76" y="818" font-size="11" fill="#555555" text-anchor="middle">04:00</text>
<line x1="553.08" y1="182.54" x2="623.08" y2="104.00" stroke="#f39c12" stroke-width="2"/>
<rect x="623.08" y="52.00" width="280" height="90" rx="10" fill="#fff8dc" stroke="#f39c12"/>
<text x="635.08" y="76.00" font-size="13" fill="#111111">15m定位时间 2025-11-22 00:00:00</text>
<text x="635.08" y="96.00" font-size="13" fill="#111111">该15m最高价 0.180100</text>
<text x="635.08" y="116.00" font-size="13" fill="#111111">10倍价横线已标出</text>
<text x="635.08" y="136.00" font-size="13" fill="#111111">竖线高亮首次触达10倍价的15m</text>
</svg>