<svg xmlns="http://www.w3.org/2000/svg" width="1500" height="860" viewBox="0 0 1500 860">
<rect width="100%" height="100%" fill="#fcfcfc"/>
<text x="90" y="38" font-size="28" font-weight="700" fill="#111111">ANIME-USDT-SWAP 15m - 10倍命中定位图</text>
<text x="90" y="68" font-size="16" fill="#555555">1H命中时间: 2025-11-22 04:00:00 | 10倍价: 0.008422 | 命中倍数: 12.7330x</text>
<line x1="90" y1="80.00" x2="1452" y2="80.00" stroke="#d9d9d9" stroke-dasharray="4 4" stroke-width="1"/>
<text x="12" y="84.00" font-size="12" fill="#555555">0.008947</text>
<line x1="90" y1="210.00" x2="1452" y2="210.00" stroke="#d9d9d9" stroke-dasharray="4 4" stroke-width="1"/>
<text x="12" y="214.00" font-size="12" fill="#555555">0.008399</text>
<line x1="90" y1="340.00" x2="1452" y2="340.00" stroke="#d9d9d9" stroke-dasharray="4 4" stroke-width="1"/>
<text x="12" y="344.00" font-size="12" fill="#555555">0.007851</text>
<line x1="90" y1="470.00" x2="1452" y2="470.00" stroke="#d9d9d9" stroke-dasharray="4 4" stroke-width="1"/>
<text x="12" y="474.00" font-size="12" fill="#555555">0.007302</text>
<line x1="90" y1="600.00" x2="1452" y2="600.00" stroke="#d9d9d9" stroke-dasharray="4 4" stroke-width="1"/>
<text x="12" y="604.00" font-size="12" fill="#555555">0.006754</text>
<line x1="90" y1="730.00" x2="1452" y2="730.00" stroke="#d9d9d9" stroke-dasharray="4 4" stroke-width="1"/>
<text x="12" y="734.00" font-size="12" fill="#555555">0.006206</text>
<rect x="525.84" y="80" width="54.48" height="650.00" fill="#f1c40f" opacity="0.16"/>
<line x1="553.08" y1="80" x2="553.08" y2="730" stroke="#f39c12" stroke-width="2" stroke-dasharray="6 4"/>
<line x1="90" y1="204.40" x2="1452" y2="204.40" stroke="#8e44ad" stroke-width="2" stroke-dasharray="8 4"/>
<text x="1444" y="196.40" font-size="13" fill="#8e44ad" text-anchor="end">10倍价 0.008422</text>
<line x1="117.24" y1="707.23" x2="117.24" y2="729.29" stroke="#e74c3c" stroke-width="2"/>
<rect x="101.99" y="713.40" width="30.51" height="11.38" fill="#e74c3c" stroke="#e74c3c" stroke-width="1"/>
<text x="117.24" y="802" font-size="11" fill="#555555" text-anchor="middle">11-22</text>
<text x="117.24" y="818" font-size="11" fill="#555555" text-anchor="middle">02:00</text>
<line x1="171.72" y1="719.33" x2="171.72" y2="730.00" stroke="#2ecc71" stroke-width="2"/>
<rect x="156.47" y="721.23" width="30.51" height="2.85" fill="#2ecc71" stroke="#2ecc71" stroke-width="1"/>
<text x="171.72" y="802" font-size="11" fill="#555555" text-anchor="middle">11-22</text>
<text x="171.72" y="818" font-size="11" fill="#555555" text-anchor="middle">02:15</text>
<line x1="226.20" y1="696.33" x2="226.20" y2="721.70" stroke="#2ecc71" stroke-width="2"/>
<rect x="210.95" y="703.44" width="30.51" height="17.79" fill="#2ecc71" stroke="#2ecc71" stroke-width="1"/>
<text x="226.20" y="802" font-size="11" fill="#555555" text-anchor="middle">11-22</text>
<text x="226.20" y="818" font-size="11" fill="#555555" text-anchor="middle">02:30</text>
<line x1="280.68" y1="680.91" x2="280.68" y2="703.44" stroke="#2ecc71" stroke-width="2"/>
<rect x="265.43" y="685.89" width="30.51" height="17.55" fill="#2ecc71" stroke="#2ecc71" stroke-width="1"/>
<text x="280.68" y="802" font-size="11" fill="#555555" text-anchor="middle">11-22</text>
<text x="280.68" y="818" font-size="11" fill="#555555" text-anchor="middle">02:45</text>
<line x1="335.16" y1="654.59" x2="335.16" y2="686.13" stroke="#2ecc71" stroke-width="2"/>
<rect x="319.91" y="658.38" width="30.51" height="27.75" fill="#2ecc71" stroke="#2ecc71" stroke-width="1"/>
<text x="335.16" y="802" font-size="11" fill="#555555" text-anchor="middle">11-22</text>
<text x="335.16" y="818" font-size="11" fill="#555555" text-anchor="middle">03:00</text>
<line x1="389.64" y1="648.42" x2="389.64" y2="671.66" stroke="#e74c3c" stroke-width="2"/>
<rect x="374.39" y="658.38" width="30.51" height="8.54" fill="#e74c3c" stroke="#e74c3c" stroke-width="1"/>
<text x="389.64" y="802" font-size="11" fill="#555555" text-anchor="middle">11-22</text>
<text x="389.64" y="818" font-size="11" fill="#555555" text-anchor="middle">03:15</text>
<line x1="444.12" y1="658.38" x2="444.12" y2="688.50" stroke="#e74c3c" stroke-width="2"/>
<rect x="428.87" y="667.16" width="30.51" height="20.39" fill="#e74c3c" stroke="#e74c3c" stroke-width="1"/>
<text x="444.12" y="802" font-size="11" fill="#555555" text-anchor="middle">11-22</text>
<text x="444.12" y="818" font-size="11" fill="#555555" text-anchor="middle">03:30</text>
<line x1="498.60" y1="646.05" x2="498.60" y2="690.63" stroke="#2ecc71" stroke-width="2"/>
<rect x="483.35" y="654.59" width="30.51" height="33.44" fill="#2ecc71" stroke="#2ecc71" stroke-width="1"/>
<text x="498.60" y="802" font-size="11" fill="#555555" text-anchor="middle">11-22</text>
<text x="498.60" y="818" font-size="11" fill="#555555" text-anchor="middle">03:45</text>
<line x1="553.08" y1="80.00" x2="553.08" y2="659.57" stroke="#2ecc71" stroke-width="2"/>
<rect x="537.83" y="402.98" width="30.51" height="251.37" fill="#2ecc71" stroke="#2ecc71" stroke-width="1"/>
<text x="553.08" y="802" font-size="11" fill="#555555" text-anchor="middle">11-22</text>
<text x="553.08" y="818" font-size="11" fill="#555555" text-anchor="middle">04:00</text>
<line x1="607.56" y1="277.06" x2="607.56" y2="492.15" stroke="#e74c3c" stroke-width="2"/>
<rect x="592.31" y="402.75" width="30.51" height="27.75" fill="#e74c3c" stroke="#e74c3c" stroke-width="1"/>
<text x="607.56" y="802" font-size="11" fill="#555555" text-anchor="middle">11-22</text>
<text x="607.56" y="818" font-size="11" fill="#555555" text-anchor="middle">04:15</text>
<line x1="662.04" y1="428.60" x2="662.04" y2="528.43" stroke="#e74c3c" stroke-width="2"/>
<rect x="646.79" y="431.44" width="30.51" height="51.22" fill="#e74c3c" stroke="#e74c3c" stroke-width="1"/>
<text x="662.04" y="802" font-size="11" fill="#555555" text-anchor="middle">11-22</text>
<text x="662.04" y="818" font-size="11" fill="#555555" text-anchor="middle">04:30</text>
<line x1="716.52" y1="465.35" x2="716.52" y2="644.16" stroke="#e74c3c" stroke-width="2"/>
<rect x="701.27" y="481.95" width="30.51" height="136.83" fill="#e74c3c" stroke="#e74c3c" stroke-width="1"/>
<text x="716.52" y="802" font-size="11" fill="#555555" text-anchor="middle">11-22</text>
<text x="716.52" y="818" font-size="11" fill="#555555" text-anchor="middle">04:45</text>
<line x1="771.00" y1="613.09" x2="771.00" y2="669.29" stroke="#e74c3c" stroke-width="2"/>
<rect x="755.75" y="618.78" width="30.51" height="11.62" fill="#e74c3c" stroke="#e74c3c" stroke-width="1"/>
<text x="771.00" y="802" font-size="11" fill="#555555" text-anchor="middle">11-22</text>
<text x="771.00" y="818" font-size="11" fill="#555555" text-anchor="middle">05:00</text>
<line x1="825.48" y1="561.16" x2="825.48" y2="642.73" stroke="#2ecc71" stroke-width="2"/>
<rect x="810.23" y="588.66" width="30.51" height="42.21" fill="#2ecc71" stroke="#2ecc71" stroke-width="1"/>
<text x="825.48" y="802" font-size="11" fill="#555555" text-anchor="middle">11-22</text>
<text x="825.48" y="818" font-size="11" fill="#555555" text-anchor="middle">05:15</text>
<line x1="879.96" y1="583.92" x2="879.96" y2="621.63" stroke="#e74c3c" stroke-width="2"/>
<rect x="864.71" y="588.90" width="30.51" height="22.77" fill="#e74c3c" stroke="#e74c3c" stroke-width="1"/>
<text x="879.96" y="802" font-size="11" fill="#555555" text-anchor="middle">11-22</text>
<text x="879.96" y="818" font-size="11" fill="#555555" text-anchor="middle">05:30</text>
<line x1="934.44" y1="604.32" x2="934.44" y2="626.13" stroke="#e74c3c" stroke-width="2"/>
<rect x="919.19" y="610.96" width="30.51" height="4.27" fill="#e74c3c" stroke="#e74c3c" stroke-width="1"/>
<text x="934.44" y="802" font-size="11" fill="#555555" text-anchor="middle">11-22</text>
<text x="934.44" y="818" font-size="11" fill="#555555" text-anchor="middle">05:45</text>
<line x1="988.92" y1="608.82" x2="988.92" y2="633.48" stroke="#e74c3c" stroke-width="2"/>
<rect x="973.67" y="614.51" width="30.51" height="18.50" fill="#e74c3c" stroke="#e74c3c" stroke-width="1"/>
<text x="988.92" y="802" font-size="11" fill="#555555" text-anchor="middle">11-22</text>
<text x="988.92" y="818" font-size="11" fill="#555555" text-anchor="middle">06:00</text>
<line x1="1043.40" y1="613.33" x2="1043.40" y2="647.00" stroke="#e74c3c" stroke-width="2"/>
<rect x="1028.15" y="631.11" width="30.51" height="13.52" fill="#e74c3c" stroke="#e74c3c" stroke-width="1"/>
<text x="1043.40" y="802" font-size="11" fill="#555555" text-anchor="middle">11-22</text>
<text x="1043.40" y="818" font-size="11" fill="#555555" text-anchor="middle">06:15</text>
<line x1="1097.88" y1="641.55" x2="1097.88" y2="671.66" stroke="#e74c3c" stroke-width="2"/>
<rect x="1082.63" y="643.92" width="30.51" height="20.39" fill="#e74c3c" stroke="#e74c3c" stroke-width="1"/>
<text x="1097.88" y="802" font-size="11" fill="#555555" text-anchor="middle">11-22</text>
<text x="1097.88" y="818" font-size="11" fill="#555555" text-anchor="middle">06:30</text>
<line x1="1152.36" y1="640.60" x2="1152.36" y2="679.01" stroke="#e74c3c" stroke-width="2"/>
<rect x="1137.11" y="663.60" width="30.51" height="14.23" fill="#e74c3c" stroke="#e74c3c" stroke-width="1"/>
<text x="1152.36" y="802" font-size="11" fill="#555555" text-anchor="middle">11-22</text>
<text x="1152.36" y="818" font-size="11" fill="#555555" text-anchor="middle">06:45</text>
<line x1="1206.84" y1="668.58" x2="1206.84" y2="710.08" stroke="#2ecc71" stroke-width="2"/>
<rect x="1191.59" y="671.19" width="30.51" height="6.64" fill="#2ecc71" stroke="#2ecc71" stroke-width="1"/>
<text x="1206.84" y="802" font-size="11" fill="#555555" text-anchor="middle">11-22</text>
<text x="1206.84" y="818" font-size="11" fill="#555555" text-anchor="middle">07:00</text>
<line x1="1261.32" y1="639.18" x2="1261.32" y2="671.90" stroke="#2ecc71" stroke-width="2"/>
<rect x="1246.07" y="642.97" width="30.51" height="28.46" fill="#2ecc71" stroke="#2ecc71" stroke-width="1"/>
<text x="1261.32" y="802" font-size="11" fill="#555555" text-anchor="middle">11-22</text>
<text x="1261.32" y="818" font-size="11" fill="#555555" text-anchor="middle">07:15</text>
<line x1="1315.80" y1="624.24" x2="1315.80" y2="643.44" stroke="#2ecc71" stroke-width="2"/>
<rect x="1300.55" y="625.66" width="30.51" height="17.31" fill="#2ecc71" stroke="#2ecc71" stroke-width="1"/>
<text x="1315.80" y="802" font-size="11" fill="#555555" text-anchor="middle">11-22</text>
<text x="1315.80" y="818" font-size="11" fill="#555555" text-anchor="middle">07:30</text>
<line x1="1370.28" y1="615.94" x2="1370.28" y2="635.38" stroke="#e74c3c" stroke-width="2"/>
<rect x="1355.03" y="626.13" width="30.51" height="1.20" fill="#e74c3c" stroke="#e74c3c" stroke-width="1"/>
<text x="1370.28" y="802" font-size="11" fill="#555555" text-anchor="middle">11-22</text>
<text x="1370.28" y="818" font-size="11" fill="#555555" text-anchor="middle">07:45</text>
<line x1="1424.76" y1="619.02" x2="1424.76" y2="656.25" stroke="#2ecc71" stroke-width="2"/>
<rect x="1409.51" y="620.20" width="30.51" height="6.64" fill="#2ecc71" stroke="#2ecc71" stroke-width="1"/>
<text x="1424.76" y="802" font-size="11" fill="#555555" text-anchor="middle">11-22</text>
<text x="1424.76" y="818" font-size="11" fill="#555555" text-anchor="middle">08:00</text>
<line x1="553.08" y1="80.00" x2="623.08" y2="104.00" stroke="#f39c12" stroke-width="2"/>
<rect x="623.08" y="52.00" width="280" height="90" rx="10" fill="#fff8dc" stroke="#f39c12"/>
<text x="635.08" y="76.00" font-size="13" fill="#111111">15m定位时间 2025-11-22 04:00:00</text>
<text x="635.08" y="96.00" font-size="13" fill="#111111">该15m最高价 0.008947</text>
<text x="635.08" y="116.00" font-size="13" fill="#111111">10倍价横线已标出</text>
<text x="635.08" y="136.00" font-size="13" fill="#111111">竖线高亮首次触达10倍价的15m</text>
</svg>