<svg xmlns="http://www.w3.org/2000/svg" width="1500" height="860" viewBox="0 0 1500 860">
<rect width="100%" height="100%" fill="#fcfcfc"/>
<text x="90" y="38" font-size="28" font-weight="700" fill="#111111">APE-USDT-SWAP 15m - 10倍命中定位图</text>
<text x="90" y="68" font-size="16" fill="#555555">1H命中时间: 2024-10-20 05:00:00 | 10倍价: 0.867234 | 命中倍数: 15.3980x</text>
<line x1="90" y1="80.00" x2="1452" y2="80.00" stroke="#d9d9d9" stroke-dasharray="4 4" stroke-width="1"/>
<text x="12" y="84.00" font-size="12" fill="#555555">0.926900</text>
<line x1="90" y1="210.00" x2="1452" y2="210.00" stroke="#d9d9d9" stroke-dasharray="4 4" stroke-width="1"/>
<text x="12" y="214.00" font-size="12" fill="#555555">0.890400</text>
<line x1="90" y1="340.00" x2="1452" y2="340.00" stroke="#d9d9d9" stroke-dasharray="4 4" stroke-width="1"/>
<text x="12" y="344.00" font-size="12" fill="#555555">0.853900</text>
<line x1="90" y1="470.00" x2="1452" y2="470.00" stroke="#d9d9d9" stroke-dasharray="4 4" stroke-width="1"/>
<text x="12" y="474.00" font-size="12" fill="#555555">0.817400</text>
<line x1="90" y1="600.00" x2="1452" y2="600.00" stroke="#d9d9d9" stroke-dasharray="4 4" stroke-width="1"/>
<text x="12" y="604.00" font-size="12" fill="#555555">0.780900</text>
<line x1="90" y1="730.00" x2="1452" y2="730.00" stroke="#d9d9d9" stroke-dasharray="4 4" stroke-width="1"/>
<text x="12" y="734.00" font-size="12" fill="#555555">0.744400</text>
<rect x="580.32" y="80" width="54.48" height="650.00" fill="#f1c40f" opacity="0.16"/>
<line x1="607.56" y1="80" x2="607.56" y2="730" stroke="#f39c12" stroke-width="2" stroke-dasharray="6 4"/>
<line x1="90" y1="292.51" x2="1452" y2="292.51" stroke="#8e44ad" stroke-width="2" stroke-dasharray="8 4"/>
<text x="1444" y="284.51" font-size="13" fill="#8e44ad" text-anchor="end">10倍价 0.867234</text>
<line x1="117.24" y1="720.38" x2="117.24" y2="730.00" stroke="#2ecc71" stroke-width="2"/>
<rect x="101.99" y="720.38" width="30.51" height="2.85" fill="#2ecc71" stroke="#2ecc71" stroke-width="1"/>
<text x="117.24" y="802" font-size="11" fill="#555555" text-anchor="middle">10-20</text>
<text x="117.24" y="818" font-size="11" fill="#555555" text-anchor="middle">03:00</text>
<line x1="171.72" y1="709.34" x2="171.72" y2="721.81" stroke="#2ecc71" stroke-width="2"/>
<rect x="156.47" y="712.19" width="30.51" height="8.90" fill="#2ecc71" stroke="#2ecc71" stroke-width="1"/>
<text x="171.72" y="802" font-size="11" fill="#555555" text-anchor="middle">10-20</text>
<text x="171.72" y="818" font-size="11" fill="#555555" text-anchor="middle">03:15</text>
<line x1="226.20" y1="708.27" x2="226.20" y2="721.10" stroke="#e74c3c" stroke-width="2"/>
<rect x="210.95" y="712.19" width="30.51" height="7.84" fill="#e74c3c" stroke="#e74c3c" stroke-width="1"/>
<text x="226.20" y="802" font-size="11" fill="#555555" text-anchor="middle">10-20</text>
<text x="226.20" y="818" font-size="11" fill="#555555" text-anchor="middle">03:30</text>
<line x1="280.68" y1="720.03" x2="280.68" y2="727.15" stroke="#e74c3c" stroke-width="2"/>
<rect x="265.43" y="720.03" width="30.51" height="3.21" fill="#e74c3c" stroke="#e74c3c" stroke-width="1"/>
<text x="280.68" y="802" font-size="11" fill="#555555" text-anchor="middle">10-20</text>
<text x="280.68" y="818" font-size="11" fill="#555555" text-anchor="middle">03:45</text>
<line x1="335.16" y1="715.04" x2="335.16" y2="723.95" stroke="#2ecc71" stroke-width="2"/>
<rect x="319.91" y="716.47" width="30.51" height="7.12" fill="#2ecc71" stroke="#2ecc71" stroke-width="1"/>
<text x="335.16" y="802" font-size="11" fill="#555555" text-anchor="middle">10-20</text>
<text x="335.16" y="818" font-size="11" fill="#555555" text-anchor="middle">04:00</text>
<line x1="389.64" y1="709.34" x2="389.64" y2="719.67" stroke="#2ecc71" stroke-width="2"/>
<rect x="374.39" y="710.05" width="30.51" height="6.41" fill="#2ecc71" stroke="#2ecc71" stroke-width="1"/>
<text x="389.64" y="802" font-size="11" fill="#555555" text-anchor="middle">10-20</text>
<text x="389.64" y="818" font-size="11" fill="#555555" text-anchor="middle">04:15</text>
<line x1="444.12" y1="708.63" x2="444.12" y2="713.26" stroke="#e74c3c" stroke-width="2"/>
<rect x="428.87" y="709.70" width="30.51" height="1.42" fill="#e74c3c" stroke="#e74c3c" stroke-width="1"/>
<text x="444.12" y="802" font-size="11" fill="#555555" text-anchor="middle">10-20</text>
<text x="444.12" y="818" font-size="11" fill="#555555" text-anchor="middle">04:30</text>
<line x1="498.60" y1="685.12" x2="498.60" y2="715.75" stroke="#2ecc71" stroke-width="2"/>
<rect x="483.35" y="685.84" width="30.51" height="25.64" fill="#2ecc71" stroke="#2ecc71" stroke-width="1"/>
<text x="498.60" y="802" font-size="11" fill="#555555" text-anchor="middle">10-20</text>
<text x="498.60" y="818" font-size="11" fill="#555555" text-anchor="middle">04:45</text>
<line x1="553.08" y1="533.75" x2="553.08" y2="686.19" stroke="#2ecc71" stroke-width="2"/>
<rect x="537.83" y="544.08" width="30.51" height="142.11" fill="#2ecc71" stroke="#2ecc71" stroke-width="1"/>
<text x="553.08" y="802" font-size="11" fill="#555555" text-anchor="middle">10-20</text>
<text x="553.08" y="818" font-size="11" fill="#555555" text-anchor="middle">05:00</text>
<line x1="607.56" y1="266.99" x2="607.56" y2="544.08" stroke="#2ecc71" stroke-width="2"/>
<rect x="592.31" y="294.41" width="30.51" height="248.96" fill="#2ecc71" stroke="#2ecc71" stroke-width="1"/>
<text x="607.56" y="802" font-size="11" fill="#555555" text-anchor="middle">10-20</text>
<text x="607.56" y="818" font-size="11" fill="#555555" text-anchor="middle">05:15</text>
<line x1="662.04" y1="231.37" x2="662.04" y2="353.53" stroke="#e74c3c" stroke-width="2"/>
<rect x="646.79" y="295.48" width="30.51" height="22.44" fill="#e74c3c" stroke="#e74c3c" stroke-width="1"/>
<text x="662.04" y="802" font-size="11" fill="#555555" text-anchor="middle">10-20</text>
<text x="662.04" y="818" font-size="11" fill="#555555" text-anchor="middle">05:30</text>
<line x1="716.52" y1="80.00" x2="716.52" y2="322.19" stroke="#2ecc71" stroke-width="2"/>
<rect x="701.27" y="131.29" width="30.51" height="189.48" fill="#2ecc71" stroke="#2ecc71" stroke-width="1"/>
<text x="716.52" y="802" font-size="11" fill="#555555" text-anchor="middle">10-20</text>
<text x="716.52" y="818" font-size="11" fill="#555555" text-anchor="middle">05:45</text>
<line x1="771.00" y1="106.00" x2="771.00" y2="269.84" stroke="#e74c3c" stroke-width="2"/>
<rect x="755.75" y="131.29" width="30.51" height="116.82" fill="#e74c3c" stroke="#e74c3c" stroke-width="1"/>
<text x="771.00" y="802" font-size="11" fill="#555555" text-anchor="middle">10-20</text>
<text x="771.00" y="818" font-size="11" fill="#555555" text-anchor="middle">06:00</text>
<line x1="825.48" y1="201.81" x2="825.48" y2="291.21" stroke="#e74c3c" stroke-width="2"/>
<rect x="810.23" y="248.11" width="30.51" height="25.29" fill="#e74c3c" stroke="#e74c3c" stroke-width="1"/>
<text x="825.48" y="802" font-size="11" fill="#555555" text-anchor="middle">10-20</text>
<text x="825.48" y="818" font-size="11" fill="#555555" text-anchor="middle">06:15</text>
<line x1="879.96" y1="218.19" x2="879.96" y2="289.07" stroke="#2ecc71" stroke-width="2"/>
<rect x="864.71" y="227.81" width="30.51" height="45.59" fill="#2ecc71" stroke="#2ecc71" stroke-width="1"/>
<text x="879.96" y="802" font-size="11" fill="#555555" text-anchor="middle">10-20</text>
<text x="879.96" y="818" font-size="11" fill="#555555" text-anchor="middle">06:30</text>
<line x1="934.44" y1="223.53" x2="934.44" y2="258.08" stroke="#e74c3c" stroke-width="2"/>
<rect x="919.19" y="228.16" width="30.51" height="22.08" fill="#e74c3c" stroke="#e74c3c" stroke-width="1"/>
<text x="934.44" y="802" font-size="11" fill="#555555" text-anchor="middle">10-20</text>
<text x="934.44" y="818" font-size="11" fill="#555555" text-anchor="middle">06:45</text>
<line x1="988.92" y1="185.78" x2="988.92" y2="300.47" stroke="#2ecc71" stroke-width="2"/>
<rect x="973.67" y="220.33" width="30.51" height="30.27" fill="#2ecc71" stroke="#2ecc71" stroke-width="1"/>
<text x="988.92" y="802" font-size="11" fill="#555555" text-anchor="middle">10-20</text>
<text x="988.92" y="818" font-size="11" fill="#555555" text-anchor="middle">07:00</text>
<line x1="1043.40" y1="195.75" x2="1043.40" y2="259.51" stroke="#e74c3c" stroke-width="2"/>
<rect x="1028.15" y="220.68" width="30.51" height="34.55" fill="#e74c3c" stroke="#e74c3c" stroke-width="1"/>
<text x="1043.40" y="802" font-size="11" fill="#555555" text-anchor="middle">10-20</text>
<text x="1043.40" y="818" font-size="11" fill="#555555" text-anchor="middle">07:15</text>
<line x1="1097.88" y1="249.89" x2="1097.88" y2="307.59" stroke="#e74c3c" stroke-width="2"/>
<rect x="1082.63" y="256.66" width="30.51" height="23.51" fill="#e74c3c" stroke="#e74c3c" stroke-width="1"/>
<text x="1097.88" y="802" font-size="11" fill="#555555" text-anchor="middle">10-20</text>
<text x="1097.88" y="818" font-size="11" fill="#555555" text-anchor="middle">07:30</text>
<line x1="1152.36" y1="257.37" x2="1152.36" y2="289.07" stroke="#2ecc71" stroke-width="2"/>
<rect x="1137.11" y="278.03" width="30.51" height="1.20" fill="#2ecc71" stroke="#2ecc71" stroke-width="1"/>
<text x="1152.36" y="802" font-size="11" fill="#555555" text-anchor="middle">10-20</text>
<text x="1152.36" y="818" font-size="11" fill="#555555" text-anchor="middle">07:45</text>
<line x1="1206.84" y1="277.67" x2="1206.84" y2="314.36" stroke="#e74c3c" stroke-width="2"/>
<rect x="1191.59" y="278.38" width="30.51" height="15.32" fill="#e74c3c" stroke="#e74c3c" stroke-width="1"/>
<text x="1206.84" y="802" font-size="11" fill="#555555" text-anchor="middle">10-20</text>
<text x="1206.84" y="818" font-size="11" fill="#555555" text-anchor="middle">08:00</text>
<line x1="1261.32" y1="269.84" x2="1261.32" y2="298.33" stroke="#2ecc71" stroke-width="2"/>
<rect x="1246.07" y="275.89" width="30.51" height="17.45" fill="#2ecc71" stroke="#2ecc71" stroke-width="1"/>
<text x="1261.32" y="802" font-size="11" fill="#555555" text-anchor="middle">10-20</text>
<text x="1261.32" y="818" font-size="11" fill="#555555" text-anchor="middle">08:15</text>
<line x1="1315.80" y1="243.48" x2="1315.80" y2="279.45" stroke="#2ecc71" stroke-width="2"/>
<rect x="1300.55" y="264.85" width="30.51" height="10.68" fill="#2ecc71" stroke="#2ecc71" stroke-width="1"/>
<text x="1315.80" y="802" font-size="11" fill="#555555" text-anchor="middle">10-20</text>
<text x="1315.80" y="818" font-size="11" fill="#555555" text-anchor="middle">08:30</text>
<line x1="1370.28" y1="238.49" x2="1370.28" y2="281.23" stroke="#2ecc71" stroke-width="2"/>
<rect x="1355.03" y="250.25" width="30.51" height="16.74" fill="#2ecc71" stroke="#2ecc71" stroke-width="1"/>
<text x="1370.28" y="802" font-size="11" fill="#555555" text-anchor="middle">10-20</text>
<text x="1370.28" y="818" font-size="11" fill="#555555" text-anchor="middle">08:45</text>
<line x1="1424.76" y1="232.79" x2="1424.76" y2="274.11" stroke="#2ecc71" stroke-width="2"/>
<rect x="1409.51" y="246.68" width="30.51" height="3.56" fill="#2ecc71" stroke="#2ecc71" stroke-width="1"/>
<text x="1424.76" y="802" font-size="11" fill="#555555" text-anchor="middle">10-20</text>
<text x="1424.76" y="818" font-size="11" fill="#555555" text-anchor="middle">09:00</text>
<line x1="607.56" y1="266.99" x2="677.56" y2="176.99" stroke="#f39c12" stroke-width="2"/>
<rect x="677.56" y="124.99" width="280" height="90" rx="10" fill="#fff8dc" stroke="#f39c12"/>
<text x="689.56" y="148.99" font-size="13" fill="#111111">15m定位时间 2024-10-20 05:15:00</text>
<text x="689.56" y="168.99" font-size="13" fill="#111111">该15m最高价 0.874400</text>
<text x="689.56" y="188.99" font-size="13" fill="#111111">10倍价横线已标出</text>
<text x="689.56" y="208.99" font-size="13" fill="#111111">竖线高亮首次触达10倍价的15m</text>
</svg>