<svg xmlns="http://www.w3.org/2000/svg" width="1500" height="860" viewBox="0 0 1500 860">
<rect width="100%" height="100%" fill="#fcfcfc"/>
<text x="90" y="38" font-size="28" font-weight="700" fill="#111111">API3-USDT-SWAP 15m - 10倍命中定位图</text>
<text x="90" y="68" font-size="16" fill="#555555">1H命中时间: 2026-02-07 08:00:00 | 10倍价: 0.390281 | 命中倍数: 12.7824x</text>
<line x1="90" y1="80.00" x2="1452" y2="80.00" stroke="#d9d9d9" stroke-dasharray="4 4" stroke-width="1"/>
<text x="12" y="84.00" font-size="12" fill="#555555">0.411700</text>
<line x1="90" y1="210.00" x2="1452" y2="210.00" stroke="#d9d9d9" stroke-dasharray="4 4" stroke-width="1"/>
<text x="12" y="214.00" font-size="12" fill="#555555">0.390420</text>
<line x1="90" y1="340.00" x2="1452" y2="340.00" stroke="#d9d9d9" stroke-dasharray="4 4" stroke-width="1"/>
<text x="12" y="344.00" font-size="12" fill="#555555">0.369140</text>
<line x1="90" y1="470.00" x2="1452" y2="470.00" stroke="#d9d9d9" stroke-dasharray="4 4" stroke-width="1"/>
<text x="12" y="474.00" font-size="12" fill="#555555">0.347860</text>
<line x1="90" y1="600.00" x2="1452" y2="600.00" stroke="#d9d9d9" stroke-dasharray="4 4" stroke-width="1"/>
<text x="12" y="604.00" font-size="12" fill="#555555">0.326580</text>
<line x1="90" y1="730.00" x2="1452" y2="730.00" stroke="#d9d9d9" stroke-dasharray="4 4" stroke-width="1"/>
<text x="12" y="734.00" font-size="12" fill="#555555">0.305300</text>
<rect x="525.84" y="80" width="54.48" height="650.00" fill="#f1c40f" opacity="0.16"/>
<line x1="553.08" y1="80" x2="553.08" y2="730" stroke="#f39c12" stroke-width="2" stroke-dasharray="6 4"/>
<line x1="90" y1="210.85" x2="1452" y2="210.85" stroke="#8e44ad" stroke-width="2" stroke-dasharray="8 4"/>
<text x="1444" y="202.85" font-size="13" fill="#8e44ad" text-anchor="end">10倍价 0.390281</text>
<line x1="117.24" y1="714.73" x2="117.24" y2="730.00" stroke="#2ecc71" stroke-width="2"/>
<rect x="101.99" y="721.45" width="30.51" height="4.28" fill="#2ecc71" stroke="#2ecc71" stroke-width="1"/>
<text x="117.24" y="802" font-size="11" fill="#555555" text-anchor="middle">02-07</text>
<text x="117.24" y="818" font-size="11" fill="#555555" text-anchor="middle">06:00</text>
<line x1="171.72" y1="707.40" x2="171.72" y2="724.50" stroke="#2ecc71" stroke-width="2"/>
<rect x="156.47" y="707.40" width="30.51" height="15.88" fill="#2ecc71" stroke="#2ecc71" stroke-width="1"/>
<text x="171.72" y="802" font-size="11" fill="#555555" text-anchor="middle">02-07</text>
<text x="171.72" y="818" font-size="11" fill="#555555" text-anchor="middle">06:15</text>
<line x1="226.20" y1="700.07" x2="226.20" y2="715.34" stroke="#2ecc71" stroke-width="2"/>
<rect x="210.95" y="708.01" width="30.51" height="3.05" fill="#2ecc71" stroke="#2ecc71" stroke-width="1"/>
<text x="226.20" y="802" font-size="11" fill="#555555" text-anchor="middle">02-07</text>
<text x="226.20" y="818" font-size="11" fill="#555555" text-anchor="middle">06:30</text>
<line x1="280.68" y1="696.40" x2="280.68" y2="708.62" stroke="#2ecc71" stroke-width="2"/>
<rect x="265.43" y="701.29" width="30.51" height="7.33" fill="#2ecc71" stroke="#2ecc71" stroke-width="1"/>
<text x="280.68" y="802" font-size="11" fill="#555555" text-anchor="middle">02-07</text>
<text x="280.68" y="818" font-size="11" fill="#555555" text-anchor="middle">06:45</text>
<line x1="335.16" y1="692.73" x2="335.16" y2="704.34" stroke="#e74c3c" stroke-width="2"/>
<rect x="319.91" y="701.29" width="30.51" height="3.05" fill="#e74c3c" stroke="#e74c3c" stroke-width="1"/>
<text x="335.16" y="802" font-size="11" fill="#555555" text-anchor="middle">02-07</text>
<text x="335.16" y="818" font-size="11" fill="#555555" text-anchor="middle">07:00</text>
<line x1="389.64" y1="704.95" x2="389.64" y2="723.28" stroke="#e74c3c" stroke-width="2"/>
<rect x="374.39" y="704.95" width="30.51" height="12.22" fill="#e74c3c" stroke="#e74c3c" stroke-width="1"/>
<text x="389.64" y="802" font-size="11" fill="#555555" text-anchor="middle">02-07</text>
<text x="389.64" y="818" font-size="11" fill="#555555" text-anchor="middle">07:15</text>
<line x1="444.12" y1="709.23" x2="444.12" y2="718.39" stroke="#2ecc71" stroke-width="2"/>
<rect x="428.87" y="715.95" width="30.51" height="1.20" fill="#2ecc71" stroke="#2ecc71" stroke-width="1"/>
<text x="444.12" y="802" font-size="11" fill="#555555" text-anchor="middle">02-07</text>
<text x="444.12" y="818" font-size="11" fill="#555555" text-anchor="middle">07:30</text>
<line x1="498.60" y1="676.85" x2="498.60" y2="716.56" stroke="#2ecc71" stroke-width="2"/>
<rect x="483.35" y="678.07" width="30.51" height="38.49" fill="#2ecc71" stroke="#2ecc71" stroke-width="1"/>
<text x="498.60" y="802" font-size="11" fill="#555555" text-anchor="middle">02-07</text>
<text x="498.60" y="818" font-size="11" fill="#555555" text-anchor="middle">07:45</text>
<line x1="553.08" y1="205.23" x2="553.08" y2="681.13" stroke="#2ecc71" stroke-width="2"/>
<rect x="537.83" y="313.98" width="30.51" height="362.88" fill="#2ecc71" stroke="#2ecc71" stroke-width="1"/>
<text x="553.08" y="802" font-size="11" fill="#555555" text-anchor="middle">02-07</text>
<text x="553.08" y="818" font-size="11" fill="#555555" text-anchor="middle">08:00</text>
<line x1="607.56" y1="80.00" x2="607.56" y2="329.25" stroke="#2ecc71" stroke-width="2"/>
<rect x="592.31" y="116.04" width="30.51" height="198.54" fill="#2ecc71" stroke="#2ecc71" stroke-width="1"/>
<text x="607.56" y="802" font-size="11" fill="#555555" text-anchor="middle">02-07</text>
<text x="607.56" y="818" font-size="11" fill="#555555" text-anchor="middle">08:15</text>
<line x1="662.04" y1="116.65" x2="662.04" y2="241.28" stroke="#e74c3c" stroke-width="2"/>
<rect x="646.79" y="116.65" width="30.51" height="78.20" fill="#e74c3c" stroke="#e74c3c" stroke-width="1"/>
<text x="662.04" y="802" font-size="11" fill="#555555" text-anchor="middle">02-07</text>
<text x="662.04" y="818" font-size="11" fill="#555555" text-anchor="middle">08:30</text>
<line x1="716.52" y1="134.98" x2="716.52" y2="273.05" stroke="#e74c3c" stroke-width="2"/>
<rect x="701.27" y="194.85" width="30.51" height="43.98" fill="#e74c3c" stroke="#e74c3c" stroke-width="1"/>
<text x="716.52" y="802" font-size="11" fill="#555555" text-anchor="middle">02-07</text>
<text x="716.52" y="818" font-size="11" fill="#555555" text-anchor="middle">08:45</text>
<line x1="771.00" y1="232.11" x2="771.00" y2="323.14" stroke="#e74c3c" stroke-width="2"/>
<rect x="755.75" y="238.83" width="30.51" height="36.04" fill="#e74c3c" stroke="#e74c3c" stroke-width="1"/>
<text x="771.00" y="802" font-size="11" fill="#555555" text-anchor="middle">02-07</text>
<text x="771.00" y="818" font-size="11" fill="#555555" text-anchor="middle">09:00</text>
<line x1="825.48" y1="224.17" x2="825.48" y2="296.26" stroke="#2ecc71" stroke-width="2"/>
<rect x="810.23" y="274.27" width="30.51" height="1.20" fill="#2ecc71" stroke="#2ecc71" stroke-width="1"/>
<text x="825.48" y="802" font-size="11" fill="#555555" text-anchor="middle">02-07</text>
<text x="825.48" y="818" font-size="11" fill="#555555" text-anchor="middle">09:15</text>
<line x1="879.96" y1="195.46" x2="879.96" y2="309.70" stroke="#e74c3c" stroke-width="2"/>
<rect x="864.71" y="273.66" width="30.51" height="4.28" fill="#e74c3c" stroke="#e74c3c" stroke-width="1"/>
<text x="879.96" y="802" font-size="11" fill="#555555" text-anchor="middle">02-07</text>
<text x="879.96" y="818" font-size="11" fill="#555555" text-anchor="middle">09:30</text>
<line x1="934.44" y1="213.18" x2="934.44" y2="284.04" stroke="#2ecc71" stroke-width="2"/>
<rect x="919.19" y="250.44" width="30.51" height="25.66" fill="#2ecc71" stroke="#2ecc71" stroke-width="1"/>
<text x="934.44" y="802" font-size="11" fill="#555555" text-anchor="middle">02-07</text>
<text x="934.44" y="818" font-size="11" fill="#555555" text-anchor="middle">09:45</text>
<line x1="988.92" y1="193.02" x2="988.92" y2="315.20" stroke="#e74c3c" stroke-width="2"/>
<rect x="973.67" y="249.83" width="30.51" height="63.53" fill="#e74c3c" stroke="#e74c3c" stroke-width="1"/>
<text x="988.92" y="802" font-size="11" fill="#555555" text-anchor="middle">02-07</text>
<text x="988.92" y="818" font-size="11" fill="#555555" text-anchor="middle">10:00</text>
<line x1="1043.40" y1="293.82" x2="1043.40" y2="365.29" stroke="#e74c3c" stroke-width="2"/>
<rect x="1028.15" y="312.75" width="30.51" height="21.99" fill="#e74c3c" stroke="#e74c3c" stroke-width="1"/>
<text x="1043.40" y="802" font-size="11" fill="#555555" text-anchor="middle">02-07</text>
<text x="1043.40" y="818" font-size="11" fill="#555555" text-anchor="middle">10:15</text>
<line x1="1097.88" y1="320.08" x2="1097.88" y2="354.91" stroke="#e74c3c" stroke-width="2"/>
<rect x="1082.63" y="334.75" width="30.51" height="7.33" fill="#e74c3c" stroke="#e74c3c" stroke-width="1"/>
<text x="1097.88" y="802" font-size="11" fill="#555555" text-anchor="middle">02-07</text>
<text x="1097.88" y="818" font-size="11" fill="#555555" text-anchor="middle">10:30</text>
<line x1="1152.36" y1="251.05" x2="1152.36" y2="342.08" stroke="#2ecc71" stroke-width="2"/>
<rect x="1137.11" y="272.43" width="30.51" height="68.42" fill="#2ecc71" stroke="#2ecc71" stroke-width="1"/>
<text x="1152.36" y="802" font-size="11" fill="#555555" text-anchor="middle">02-07</text>
<text x="1152.36" y="818" font-size="11" fill="#555555" text-anchor="middle">10:45</text>
<line x1="1206.84" y1="164.30" x2="1206.84" y2="288.32" stroke="#2ecc71" stroke-width="2"/>
<rect x="1191.59" y="241.89" width="30.51" height="29.32" fill="#2ecc71" stroke="#2ecc71" stroke-width="1"/>
<text x="1206.84" y="802" font-size="11" fill="#555555" text-anchor="middle">02-07</text>
<text x="1206.84" y="818" font-size="11" fill="#555555" text-anchor="middle">11:00</text>
<line x1="1261.32" y1="222.95" x2="1261.32" y2="316.42" stroke="#e74c3c" stroke-width="2"/>
<rect x="1246.07" y="241.28" width="30.51" height="69.64" fill="#e74c3c" stroke="#e74c3c" stroke-width="1"/>
<text x="1261.32" y="802" font-size="11" fill="#555555" text-anchor="middle">02-07</text>
<text x="1261.32" y="818" font-size="11" fill="#555555" text-anchor="middle">11:15</text>
<line x1="1315.80" y1="298.70" x2="1315.80" y2="359.79" stroke="#e74c3c" stroke-width="2"/>
<rect x="1300.55" y="309.70" width="30.51" height="16.49" fill="#e74c3c" stroke="#e74c3c" stroke-width="1"/>
<text x="1315.80" y="802" font-size="11" fill="#555555" text-anchor="middle">02-07</text>
<text x="1315.80" y="818" font-size="11" fill="#555555" text-anchor="middle">11:30</text>
<line x1="1370.28" y1="317.64" x2="1370.28" y2="353.07" stroke="#e74c3c" stroke-width="2"/>
<rect x="1355.03" y="326.80" width="30.51" height="2.44" fill="#e74c3c" stroke="#e74c3c" stroke-width="1"/>
<text x="1370.28" y="802" font-size="11" fill="#555555" text-anchor="middle">02-07</text>
<text x="1370.28" y="818" font-size="11" fill="#555555" text-anchor="middle">11:45</text>
<line x1="1424.76" y1="291.37" x2="1424.76" y2="378.12" stroke="#2ecc71" stroke-width="2"/>
<rect x="1409.51" y="316.42" width="30.51" height="14.05" fill="#2ecc71" stroke="#2ecc71" stroke-width="1"/>
<text x="1424.76" y="802" font-size="11" fill="#555555" text-anchor="middle">02-07</text>
<text x="1424.76" y="818" font-size="11" fill="#555555" text-anchor="middle">12:00</text>
<line x1="553.08" y1="205.23" x2="623.08" y2="115.23" stroke="#f39c12" stroke-width="2"/>
<rect x="623.08" y="63.23" width="280" height="90" rx="10" fill="#fff8dc" stroke="#f39c12"/>
<text x="635.08" y="87.23" font-size="13" fill="#111111">15m定位时间 2026-02-07 08:00:00</text>
<text x="635.08" y="107.23" font-size="13" fill="#111111">该15m最高价 0.391200</text>
<text x="635.08" y="127.23" font-size="13" fill="#111111">10倍价横线已标出</text>
<text x="635.08" y="147.23" font-size="13" fill="#111111">竖线高亮首次触达10倍价的15m</text>
</svg>