<svg xmlns="http://www.w3.org/2000/svg" width="1500" height="860" viewBox="0 0 1500 860">
<rect width="100%" height="100%" fill="#fcfcfc"/>
<text x="90" y="38" font-size="28" font-weight="700" fill="#111111">ARKM-USDT-SWAP 15m - 10倍命中定位图</text>
<text x="90" y="68" font-size="16" fill="#555555">1H命中时间: 2025-03-11 14:00:00 | 10倍价: 0.656234 | 命中倍数: 12.5100x</text>
<line x1="90" y1="80.00" x2="1452" y2="80.00" stroke="#d9d9d9" stroke-dasharray="4 4" stroke-width="1"/>
<text x="12" y="84.00" font-size="12" fill="#555555">0.702000</text>
<line x1="90" y1="210.00" x2="1452" y2="210.00" stroke="#d9d9d9" stroke-dasharray="4 4" stroke-width="1"/>
<text x="12" y="214.00" font-size="12" fill="#555555">0.652060</text>
<line x1="90" y1="340.00" x2="1452" y2="340.00" stroke="#d9d9d9" stroke-dasharray="4 4" stroke-width="1"/>
<text x="12" y="344.00" font-size="12" fill="#555555">0.602120</text>
<line x1="90" y1="470.00" x2="1452" y2="470.00" stroke="#d9d9d9" stroke-dasharray="4 4" stroke-width="1"/>
<text x="12" y="474.00" font-size="12" fill="#555555">0.552180</text>
<line x1="90" y1="600.00" x2="1452" y2="600.00" stroke="#d9d9d9" stroke-dasharray="4 4" stroke-width="1"/>
<text x="12" y="604.00" font-size="12" fill="#555555">0.502240</text>
<line x1="90" y1="730.00" x2="1452" y2="730.00" stroke="#d9d9d9" stroke-dasharray="4 4" stroke-width="1"/>
<text x="12" y="734.00" font-size="12" fill="#555555">0.452300</text>
<rect x="580.32" y="80" width="54.48" height="650.00" fill="#f1c40f" opacity="0.16"/>
<line x1="607.56" y1="80" x2="607.56" y2="730" stroke="#f39c12" stroke-width="2" stroke-dasharray="6 4"/>
<line x1="90" y1="199.14" x2="1452" y2="199.14" stroke="#8e44ad" stroke-width="2" stroke-dasharray="8 4"/>
<text x="1444" y="191.14" font-size="13" fill="#8e44ad" text-anchor="end">10倍价 0.656234</text>
<line x1="117.24" y1="713.34" x2="117.24" y2="730.00" stroke="#2ecc71" stroke-width="2"/>
<rect x="101.99" y="716.72" width="30.51" height="11.19" fill="#2ecc71" stroke="#2ecc71" stroke-width="1"/>
<text x="117.24" y="802" font-size="11" fill="#555555" text-anchor="middle">03-11</text>
<text x="117.24" y="818" font-size="11" fill="#555555" text-anchor="middle">12:00</text>
<line x1="171.72" y1="703.45" x2="171.72" y2="717.51" stroke="#2ecc71" stroke-width="2"/>
<rect x="156.47" y="706.83" width="30.51" height="10.41" fill="#2ecc71" stroke="#2ecc71" stroke-width="1"/>
<text x="171.72" y="802" font-size="11" fill="#555555" text-anchor="middle">03-11</text>
<text x="171.72" y="818" font-size="11" fill="#555555" text-anchor="middle">12:15</text>
<line x1="226.20" y1="704.75" x2="226.20" y2="717.77" stroke="#e74c3c" stroke-width="2"/>
<rect x="210.95" y="707.09" width="30.51" height="8.85" fill="#e74c3c" stroke="#e74c3c" stroke-width="1"/>
<text x="226.20" y="802" font-size="11" fill="#555555" text-anchor="middle">03-11</text>
<text x="226.20" y="818" font-size="11" fill="#555555" text-anchor="middle">12:30</text>
<line x1="280.68" y1="712.30" x2="280.68" y2="719.85" stroke="#2ecc71" stroke-width="2"/>
<rect x="265.43" y="714.12" width="30.51" height="1.56" fill="#2ecc71" stroke="#2ecc71" stroke-width="1"/>
<text x="280.68" y="802" font-size="11" fill="#555555" text-anchor="middle">03-11</text>
<text x="280.68" y="818" font-size="11" fill="#555555" text-anchor="middle">12:45</text>
<line x1="335.16" y1="673.77" x2="335.16" y2="714.38" stroke="#2ecc71" stroke-width="2"/>
<rect x="319.91" y="678.72" width="30.51" height="35.14" fill="#2ecc71" stroke="#2ecc71" stroke-width="1"/>
<text x="335.16" y="802" font-size="11" fill="#555555" text-anchor="middle">03-11</text>
<text x="335.16" y="818" font-size="11" fill="#555555" text-anchor="middle">13:00</text>
<line x1="389.64" y1="670.91" x2="389.64" y2="686.79" stroke="#e74c3c" stroke-width="2"/>
<rect x="374.39" y="678.20" width="30.51" height="7.55" fill="#e74c3c" stroke="#e74c3c" stroke-width="1"/>
<text x="389.64" y="802" font-size="11" fill="#555555" text-anchor="middle">03-11</text>
<text x="389.64" y="818" font-size="11" fill="#555555" text-anchor="middle">13:15</text>
<line x1="444.12" y1="680.28" x2="444.12" y2="689.13" stroke="#2ecc71" stroke-width="2"/>
<rect x="428.87" y="680.54" width="30.51" height="5.21" fill="#2ecc71" stroke="#2ecc71" stroke-width="1"/>
<text x="444.12" y="802" font-size="11" fill="#555555" text-anchor="middle">03-11</text>
<text x="444.12" y="818" font-size="11" fill="#555555" text-anchor="middle">13:30</text>
<line x1="498.60" y1="668.57" x2="498.60" y2="682.62" stroke="#2ecc71" stroke-width="2"/>
<rect x="483.35" y="670.13" width="30.51" height="10.67" fill="#2ecc71" stroke="#2ecc71" stroke-width="1"/>
<text x="498.60" y="802" font-size="11" fill="#555555" text-anchor="middle">03-11</text>
<text x="498.60" y="818" font-size="11" fill="#555555" text-anchor="middle">13:45</text>
<line x1="553.08" y1="658.93" x2="553.08" y2="673.77" stroke="#2ecc71" stroke-width="2"/>
<rect x="537.83" y="664.92" width="30.51" height="5.99" fill="#2ecc71" stroke="#2ecc71" stroke-width="1"/>
<text x="553.08" y="802" font-size="11" fill="#555555" text-anchor="middle">03-11</text>
<text x="553.08" y="818" font-size="11" fill="#555555" text-anchor="middle">14:00</text>
<line x1="607.56" y1="80.00" x2="607.56" y2="665.44" stroke="#2ecc71" stroke-width="2"/>
<rect x="592.31" y="267.95" width="30.51" height="397.24" fill="#2ecc71" stroke="#2ecc71" stroke-width="1"/>
<text x="607.56" y="802" font-size="11" fill="#555555" text-anchor="middle">03-11</text>
<text x="607.56" y="818" font-size="11" fill="#555555" text-anchor="middle">14:15</text>
<line x1="662.04" y1="189.33" x2="662.04" y2="291.89" stroke="#2ecc71" stroke-width="2"/>
<rect x="646.79" y="244.78" width="30.51" height="22.65" fill="#2ecc71" stroke="#2ecc71" stroke-width="1"/>
<text x="662.04" y="802" font-size="11" fill="#555555" text-anchor="middle">03-11</text>
<text x="662.04" y="818" font-size="11" fill="#555555" text-anchor="middle">14:30</text>
<line x1="716.52" y1="200.78" x2="716.52" y2="269.77" stroke="#e74c3c" stroke-width="2"/>
<rect x="701.27" y="245.82" width="30.51" height="3.90" fill="#e74c3c" stroke="#e74c3c" stroke-width="1"/>
<text x="716.52" y="802" font-size="11" fill="#555555" text-anchor="middle">03-11</text>
<text x="716.52" y="818" font-size="11" fill="#555555" text-anchor="middle">14:45</text>
<line x1="771.00" y1="202.61" x2="771.00" y2="352.29" stroke="#e74c3c" stroke-width="2"/>
<rect x="755.75" y="249.72" width="30.51" height="99.18" fill="#e74c3c" stroke="#e74c3c" stroke-width="1"/>
<text x="771.00" y="802" font-size="11" fill="#555555" text-anchor="middle">03-11</text>
<text x="771.00" y="818" font-size="11" fill="#555555" text-anchor="middle">15:00</text>
<line x1="825.48" y1="340.57" x2="825.48" y2="415.54" stroke="#e74c3c" stroke-width="2"/>
<rect x="810.23" y="348.90" width="30.51" height="61.69" fill="#e74c3c" stroke="#e74c3c" stroke-width="1"/>
<text x="825.48" y="802" font-size="11" fill="#555555" text-anchor="middle">03-11</text>
<text x="825.48" y="818" font-size="11" fill="#555555" text-anchor="middle">15:15</text>
<line x1="879.96" y1="385.87" x2="879.96" y2="449.64" stroke="#e74c3c" stroke-width="2"/>
<rect x="864.71" y="410.60" width="30.51" height="19.78" fill="#e74c3c" stroke="#e74c3c" stroke-width="1"/>
<text x="879.96" y="802" font-size="11" fill="#555555" text-anchor="middle">03-11</text>
<text x="879.96" y="818" font-size="11" fill="#555555" text-anchor="middle">15:30</text>
<line x1="934.44" y1="398.62" x2="934.44" y2="438.45" stroke="#2ecc71" stroke-width="2"/>
<rect x="919.19" y="408.25" width="30.51" height="22.13" fill="#2ecc71" stroke="#2ecc71" stroke-width="1"/>
<text x="934.44" y="802" font-size="11" fill="#555555" text-anchor="middle">03-11</text>
<text x="934.44" y="818" font-size="11" fill="#555555" text-anchor="middle">15:45</text>
<line x1="988.92" y1="378.84" x2="988.92" y2="434.02" stroke="#e74c3c" stroke-width="2"/>
<rect x="973.67" y="409.30" width="30.51" height="15.88" fill="#e74c3c" stroke="#e74c3c" stroke-width="1"/>
<text x="988.92" y="802" font-size="11" fill="#555555" text-anchor="middle">03-11</text>
<text x="988.92" y="818" font-size="11" fill="#555555" text-anchor="middle">16:00</text>
<line x1="1043.40" y1="395.50" x2="1043.40" y2="427.78" stroke="#2ecc71" stroke-width="2"/>
<rect x="1028.15" y="420.23" width="30.51" height="6.25" fill="#2ecc71" stroke="#2ecc71" stroke-width="1"/>
<text x="1043.40" y="802" font-size="11" fill="#555555" text-anchor="middle">03-11</text>
<text x="1043.40" y="818" font-size="11" fill="#555555" text-anchor="middle">16:15</text>
<line x1="1097.88" y1="400.44" x2="1097.88" y2="426.22" stroke="#2ecc71" stroke-width="2"/>
<rect x="1082.63" y="409.82" width="30.51" height="11.19" fill="#2ecc71" stroke="#2ecc71" stroke-width="1"/>
<text x="1097.88" y="802" font-size="11" fill="#555555" text-anchor="middle">03-11</text>
<text x="1097.88" y="818" font-size="11" fill="#555555" text-anchor="middle">16:30</text>
<line x1="1152.36" y1="397.58" x2="1152.36" y2="444.96" stroke="#e74c3c" stroke-width="2"/>
<rect x="1137.11" y="409.30" width="30.51" height="11.97" fill="#e74c3c" stroke="#e74c3c" stroke-width="1"/>
<text x="1152.36" y="802" font-size="11" fill="#555555" text-anchor="middle">03-11</text>
<text x="1152.36" y="818" font-size="11" fill="#555555" text-anchor="middle">16:45</text>
<line x1="1206.84" y1="388.73" x2="1206.84" y2="422.31" stroke="#2ecc71" stroke-width="2"/>
<rect x="1191.59" y="402.79" width="30.51" height="18.22" fill="#2ecc71" stroke="#2ecc71" stroke-width="1"/>
<text x="1206.84" y="802" font-size="11" fill="#555555" text-anchor="middle">03-11</text>
<text x="1206.84" y="818" font-size="11" fill="#555555" text-anchor="middle">17:00</text>
<line x1="1261.32" y1="345.78" x2="1261.32" y2="402.53" stroke="#2ecc71" stroke-width="2"/>
<rect x="1246.07" y="349.16" width="30.51" height="53.10" fill="#2ecc71" stroke="#2ecc71" stroke-width="1"/>
<text x="1261.32" y="802" font-size="11" fill="#555555" text-anchor="middle">03-11</text>
<text x="1261.32" y="818" font-size="11" fill="#555555" text-anchor="middle">17:15</text>
<line x1="1315.80" y1="338.75" x2="1315.80" y2="388.47" stroke="#e74c3c" stroke-width="2"/>
<rect x="1300.55" y="349.42" width="30.51" height="26.55" fill="#e74c3c" stroke="#e74c3c" stroke-width="1"/>
<text x="1315.80" y="802" font-size="11" fill="#555555" text-anchor="middle">03-11</text>
<text x="1315.80" y="818" font-size="11" fill="#555555" text-anchor="middle">17:30</text>
<line x1="1370.28" y1="366.34" x2="1370.28" y2="408.25" stroke="#e74c3c" stroke-width="2"/>
<rect x="1355.03" y="376.50" width="30.51" height="26.55" fill="#e74c3c" stroke="#e74c3c" stroke-width="1"/>
<text x="1370.28" y="802" font-size="11" fill="#555555" text-anchor="middle">03-11</text>
<text x="1370.28" y="818" font-size="11" fill="#555555" text-anchor="middle">17:45</text>
<line x1="1424.76" y1="379.36" x2="1424.76" y2="407.99" stroke="#2ecc71" stroke-width="2"/>
<rect x="1409.51" y="380.92" width="30.51" height="21.35" fill="#2ecc71" stroke="#2ecc71" stroke-width="1"/>
<text x="1424.76" y="802" font-size="11" fill="#555555" text-anchor="middle">03-11</text>
<text x="1424.76" y="818" font-size="11" fill="#555555" text-anchor="middle">18:00</text>
<line x1="607.56" y1="80.00" x2="677.56" y2="104.00" stroke="#f39c12" stroke-width="2"/>
<rect x="677.56" y="52.00" width="280" height="90" rx="10" fill="#fff8dc" stroke="#f39c12"/>
<text x="689.56" y="76.00" font-size="13" fill="#111111">15m定位时间 2025-03-11 14:15:00</text>
<text x="689.56" y="96.00" font-size="13" fill="#111111">该15m最高价 0.702000</text>
<text x="689.56" y="116.00" font-size="13" fill="#111111">10倍价横线已标出</text>
<text x="689.56" y="136.00" font-size="13" fill="#111111">竖线高亮首次触达10倍价的15m</text>
</svg>