<svg xmlns="http://www.w3.org/2000/svg" width="1500" height="860" viewBox="0 0 1500 860">
<rect width="100%" height="100%" fill="#fcfcfc"/>
<text x="90" y="38" font-size="28" font-weight="700" fill="#111111">ARKM-USDT-SWAP 15m - 10倍命中定位图</text>
<text x="90" y="68" font-size="16" fill="#555555">1H命中时间: 2025-02-21 13:00:00 | 10倍价: 0.828954 | 命中倍数: 12.2236x</text>
<line x1="90" y1="80.00" x2="1452" y2="80.00" stroke="#d9d9d9" stroke-dasharray="4 4" stroke-width="1"/>
<text x="12" y="84.00" font-size="12" fill="#555555">0.866300</text>
<line x1="90" y1="210.00" x2="1452" y2="210.00" stroke="#d9d9d9" stroke-dasharray="4 4" stroke-width="1"/>
<text x="12" y="214.00" font-size="12" fill="#555555">0.823220</text>
<line x1="90" y1="340.00" x2="1452" y2="340.00" stroke="#d9d9d9" stroke-dasharray="4 4" stroke-width="1"/>
<text x="12" y="344.00" font-size="12" fill="#555555">0.780140</text>
<line x1="90" y1="470.00" x2="1452" y2="470.00" stroke="#d9d9d9" stroke-dasharray="4 4" stroke-width="1"/>
<text x="12" y="474.00" font-size="12" fill="#555555">0.737060</text>
<line x1="90" y1="600.00" x2="1452" y2="600.00" stroke="#d9d9d9" stroke-dasharray="4 4" stroke-width="1"/>
<text x="12" y="604.00" font-size="12" fill="#555555">0.693980</text>
<line x1="90" y1="730.00" x2="1452" y2="730.00" stroke="#d9d9d9" stroke-dasharray="4 4" stroke-width="1"/>
<text x="12" y="734.00" font-size="12" fill="#555555">0.650900</text>
<rect x="525.84" y="80" width="54.48" height="650.00" fill="#f1c40f" opacity="0.16"/>
<line x1="553.08" y1="80" x2="553.08" y2="730" stroke="#f39c12" stroke-width="2" stroke-dasharray="6 4"/>
<line x1="90" y1="192.70" x2="1452" y2="192.70" stroke="#8e44ad" stroke-width="2" stroke-dasharray="8 4"/>
<text x="1444" y="184.70" font-size="13" fill="#8e44ad" text-anchor="end">10倍价 0.828954</text>
<line x1="117.24" y1="716.72" x2="117.24" y2="730.00" stroke="#2ecc71" stroke-width="2"/>
<rect x="101.99" y="718.53" width="30.51" height="9.96" fill="#2ecc71" stroke="#2ecc71" stroke-width="1"/>
<text x="117.24" y="802" font-size="11" fill="#555555" text-anchor="middle">02-21</text>
<text x="117.24" y="818" font-size="11" fill="#555555" text-anchor="middle">11:00</text>
<line x1="171.72" y1="702.24" x2="171.72" y2="720.65" stroke="#2ecc71" stroke-width="2"/>
<rect x="156.47" y="710.39" width="30.51" height="8.15" fill="#2ecc71" stroke="#2ecc71" stroke-width="1"/>
<text x="171.72" y="802" font-size="11" fill="#555555" text-anchor="middle">02-21</text>
<text x="171.72" y="818" font-size="11" fill="#555555" text-anchor="middle">11:15</text>
<line x1="226.20" y1="710.39" x2="226.20" y2="724.57" stroke="#e74c3c" stroke-width="2"/>
<rect x="210.95" y="710.39" width="30.51" height="11.77" fill="#e74c3c" stroke="#e74c3c" stroke-width="1"/>
<text x="226.20" y="802" font-size="11" fill="#555555" text-anchor="middle">02-21</text>
<text x="226.20" y="818" font-size="11" fill="#555555" text-anchor="middle">11:30</text>
<line x1="280.68" y1="717.63" x2="280.68" y2="723.36" stroke="#2ecc71" stroke-width="2"/>
<rect x="265.43" y="721.55" width="30.51" height="1.20" fill="#2ecc71" stroke="#2ecc71" stroke-width="1"/>
<text x="280.68" y="802" font-size="11" fill="#555555" text-anchor="middle">02-21</text>
<text x="280.68" y="818" font-size="11" fill="#555555" text-anchor="middle">11:45</text>
<line x1="335.16" y1="702.24" x2="335.16" y2="722.15" stroke="#2ecc71" stroke-width="2"/>
<rect x="319.91" y="702.24" width="30.51" height="19.61" fill="#2ecc71" stroke="#2ecc71" stroke-width="1"/>
<text x="335.16" y="802" font-size="11" fill="#555555" text-anchor="middle">02-21</text>
<text x="335.16" y="818" font-size="11" fill="#555555" text-anchor="middle">12:00</text>
<line x1="389.64" y1="695.30" x2="389.64" y2="704.95" stroke="#2ecc71" stroke-width="2"/>
<rect x="374.39" y="699.82" width="30.51" height="2.72" fill="#2ecc71" stroke="#2ecc71" stroke-width="1"/>
<text x="389.64" y="802" font-size="11" fill="#555555" text-anchor="middle">02-21</text>
<text x="389.64" y="818" font-size="11" fill="#555555" text-anchor="middle">12:15</text>
<line x1="444.12" y1="674.17" x2="444.12" y2="706.46" stroke="#2ecc71" stroke-width="2"/>
<rect x="428.87" y="674.17" width="30.51" height="25.65" fill="#2ecc71" stroke="#2ecc71" stroke-width="1"/>
<text x="444.12" y="802" font-size="11" fill="#555555" text-anchor="middle">02-21</text>
<text x="444.12" y="818" font-size="11" fill="#555555" text-anchor="middle">12:30</text>
<line x1="498.60" y1="672.36" x2="498.60" y2="691.37" stroke="#e74c3c" stroke-width="2"/>
<rect x="483.35" y="673.87" width="30.51" height="12.98" fill="#e74c3c" stroke="#e74c3c" stroke-width="1"/>
<text x="498.60" y="802" font-size="11" fill="#555555" text-anchor="middle">02-21</text>
<text x="498.60" y="818" font-size="11" fill="#555555" text-anchor="middle">12:45</text>
<line x1="553.08" y1="80.00" x2="553.08" y2="699.52" stroke="#2ecc71" stroke-width="2"/>
<rect x="537.83" y="536.87" width="30.51" height="149.68" fill="#2ecc71" stroke="#2ecc71" stroke-width="1"/>
<text x="553.08" y="802" font-size="11" fill="#555555" text-anchor="middle">02-21</text>
<text x="553.08" y="818" font-size="11" fill="#555555" text-anchor="middle">13:00</text>
<line x1="607.56" y1="474.41" x2="607.56" y2="571.57" stroke="#2ecc71" stroke-width="2"/>
<rect x="592.31" y="494.02" width="30.51" height="42.55" fill="#2ecc71" stroke="#2ecc71" stroke-width="1"/>
<text x="607.56" y="802" font-size="11" fill="#555555" text-anchor="middle">02-21</text>
<text x="607.56" y="818" font-size="11" fill="#555555" text-anchor="middle">13:15</text>
<line x1="662.04" y1="427.33" x2="662.04" y2="522.39" stroke="#2ecc71" stroke-width="2"/>
<rect x="646.79" y="490.10" width="30.51" height="3.02" fill="#2ecc71" stroke="#2ecc71" stroke-width="1"/>
<text x="662.04" y="802" font-size="11" fill="#555555" text-anchor="middle">02-21</text>
<text x="662.04" y="818" font-size="11" fill="#555555" text-anchor="middle">13:30</text>
<line x1="716.52" y1="456.60" x2="716.52" y2="530.23" stroke="#e74c3c" stroke-width="2"/>
<rect x="701.27" y="490.10" width="30.51" height="34.40" fill="#e74c3c" stroke="#e74c3c" stroke-width="1"/>
<text x="716.52" y="802" font-size="11" fill="#555555" text-anchor="middle">02-21</text>
<text x="716.52" y="818" font-size="11" fill="#555555" text-anchor="middle">13:45</text>
<line x1="771.00" y1="506.09" x2="771.00" y2="564.33" stroke="#e74c3c" stroke-width="2"/>
<rect x="755.75" y="524.20" width="30.51" height="33.19" fill="#e74c3c" stroke="#e74c3c" stroke-width="1"/>
<text x="771.00" y="802" font-size="11" fill="#555555" text-anchor="middle">02-21</text>
<text x="771.00" y="818" font-size="11" fill="#555555" text-anchor="middle">14:00</text>
<line x1="825.48" y1="524.80" x2="825.48" y2="563.12" stroke="#2ecc71" stroke-width="2"/>
<rect x="810.23" y="524.80" width="30.51" height="32.59" fill="#2ecc71" stroke="#2ecc71" stroke-width="1"/>
<text x="825.48" y="802" font-size="11" fill="#555555" text-anchor="middle">02-21</text>
<text x="825.48" y="818" font-size="11" fill="#555555" text-anchor="middle">14:15</text>
<line x1="879.96" y1="507.90" x2="879.96" y2="540.79" stroke="#e74c3c" stroke-width="2"/>
<rect x="864.71" y="525.40" width="30.51" height="4.22" fill="#e74c3c" stroke="#e74c3c" stroke-width="1"/>
<text x="879.96" y="802" font-size="11" fill="#555555" text-anchor="middle">02-21</text>
<text x="879.96" y="818" font-size="11" fill="#555555" text-anchor="middle">14:30</text>
<line x1="934.44" y1="492.81" x2="934.44" y2="541.40" stroke="#2ecc71" stroke-width="2"/>
<rect x="919.19" y="496.43" width="30.51" height="31.99" fill="#2ecc71" stroke="#2ecc71" stroke-width="1"/>
<text x="934.44" y="802" font-size="11" fill="#555555" text-anchor="middle">02-21</text>
<text x="934.44" y="818" font-size="11" fill="#555555" text-anchor="middle">14:45</text>
<line x1="988.92" y1="493.12" x2="988.92" y2="536.57" stroke="#e74c3c" stroke-width="2"/>
<rect x="973.67" y="495.83" width="30.51" height="24.44" fill="#e74c3c" stroke="#e74c3c" stroke-width="1"/>
<text x="988.92" y="802" font-size="11" fill="#555555" text-anchor="middle">02-21</text>
<text x="988.92" y="818" font-size="11" fill="#555555" text-anchor="middle">15:00</text>
<line x1="1043.40" y1="511.52" x2="1043.40" y2="529.33" stroke="#e74c3c" stroke-width="2"/>
<rect x="1028.15" y="521.18" width="30.51" height="6.94" fill="#e74c3c" stroke="#e74c3c" stroke-width="1"/>
<text x="1043.40" y="802" font-size="11" fill="#555555" text-anchor="middle">02-21</text>
<text x="1043.40" y="818" font-size="11" fill="#555555" text-anchor="middle">15:15</text>
<line x1="1097.88" y1="518.46" x2="1097.88" y2="543.51" stroke="#e74c3c" stroke-width="2"/>
<rect x="1082.63" y="526.61" width="30.51" height="15.69" fill="#e74c3c" stroke="#e74c3c" stroke-width="1"/>
<text x="1097.88" y="802" font-size="11" fill="#555555" text-anchor="middle">02-21</text>
<text x="1097.88" y="818" font-size="11" fill="#555555" text-anchor="middle">15:30</text>
<line x1="1152.36" y1="527.52" x2="1152.36" y2="545.32" stroke="#e74c3c" stroke-width="2"/>
<rect x="1137.11" y="541.40" width="30.51" height="3.32" fill="#e74c3c" stroke="#e74c3c" stroke-width="1"/>
<text x="1152.36" y="802" font-size="11" fill="#555555" text-anchor="middle">02-21</text>
<text x="1152.36" y="818" font-size="11" fill="#555555" text-anchor="middle">15:45</text>
<line x1="1206.84" y1="539.29" x2="1206.84" y2="601.15" stroke="#e74c3c" stroke-width="2"/>
<rect x="1191.59" y="545.62" width="30.51" height="34.10" fill="#e74c3c" stroke="#e74c3c" stroke-width="1"/>
<text x="1206.84" y="802" font-size="11" fill="#555555" text-anchor="middle">02-21</text>
<text x="1206.84" y="818" font-size="11" fill="#555555" text-anchor="middle">16:00</text>
<line x1="1261.32" y1="566.44" x2="1261.32" y2="587.57" stroke="#2ecc71" stroke-width="2"/>
<rect x="1246.07" y="566.75" width="30.51" height="13.28" fill="#2ecc71" stroke="#2ecc71" stroke-width="1"/>
<text x="1261.32" y="802" font-size="11" fill="#555555" text-anchor="middle">02-21</text>
<text x="1261.32" y="818" font-size="11" fill="#555555" text-anchor="middle">16:15</text>
<line x1="1315.80" y1="542.91" x2="1315.80" y2="572.48" stroke="#2ecc71" stroke-width="2"/>
<rect x="1300.55" y="551.05" width="30.51" height="15.99" fill="#2ecc71" stroke="#2ecc71" stroke-width="1"/>
<text x="1315.80" y="802" font-size="11" fill="#555555" text-anchor="middle">02-21</text>
<text x="1315.80" y="818" font-size="11" fill="#555555" text-anchor="middle">16:30</text>
<line x1="1370.28" y1="537.47" x2="1370.28" y2="559.20" stroke="#2ecc71" stroke-width="2"/>
<rect x="1355.03" y="550.45" width="30.51" height="1.20" fill="#2ecc71" stroke="#2ecc71" stroke-width="1"/>
<text x="1370.28" y="802" font-size="11" fill="#555555" text-anchor="middle">02-21</text>
<text x="1370.28" y="818" font-size="11" fill="#555555" text-anchor="middle">16:45</text>
<line x1="1424.76" y1="529.03" x2="1424.76" y2="561.62" stroke="#2ecc71" stroke-width="2"/>
<rect x="1409.51" y="533.25" width="30.51" height="16.90" fill="#2ecc71" stroke="#2ecc71" stroke-width="1"/>
<text x="1424.76" y="802" font-size="11" fill="#555555" text-anchor="middle">02-21</text>
<text x="1424.76" y="818" font-size="11" fill="#555555" text-anchor="middle">17:00</text>
<line x1="553.08" y1="80.00" x2="623.08" y2="104.00" stroke="#f39c12" stroke-width="2"/>
<rect x="623.08" y="52.00" width="280" height="90" rx="10" fill="#fff8dc" stroke="#f39c12"/>
<text x="635.08" y="76.00" font-size="13" fill="#111111">15m定位时间 2025-02-21 13:00:00</text>
<text x="635.08" y="96.00" font-size="13" fill="#111111">该15m最高价 0.866300</text>
<text x="635.08" y="116.00" font-size="13" fill="#111111">10倍价横线已标出</text>
<text x="635.08" y="136.00" font-size="13" fill="#111111">竖线高亮首次触达10倍价的15m</text>
</svg>