<svg xmlns="http://www.w3.org/2000/svg" width="1500" height="860" viewBox="0 0 1500 860">
<rect width="100%" height="100%" fill="#fcfcfc"/>
<text x="90" y="38" font-size="28" font-weight="700" fill="#111111">AUCTION-USDT-SWAP 15m - 10倍命中定位图</text>
<text x="90" y="68" font-size="16" fill="#555555">1H命中时间: 2024-05-29 17:00:00 | 10倍价: 22.438521 | 命中倍数: 28.0522x</text>
<line x1="90" y1="80.00" x2="1452" y2="80.00" stroke="#d9d9d9" stroke-dasharray="4 4" stroke-width="1"/>
<text x="12" y="84.00" font-size="12" fill="#555555">30.507000</text>
<line x1="90" y1="210.00" x2="1452" y2="210.00" stroke="#d9d9d9" stroke-dasharray="4 4" stroke-width="1"/>
<text x="12" y="214.00" font-size="12" fill="#555555">27.932600</text>
<line x1="90" y1="340.00" x2="1452" y2="340.00" stroke="#d9d9d9" stroke-dasharray="4 4" stroke-width="1"/>
<text x="12" y="344.00" font-size="12" fill="#555555">25.358200</text>
<line x1="90" y1="470.00" x2="1452" y2="470.00" stroke="#d9d9d9" stroke-dasharray="4 4" stroke-width="1"/>
<text x="12" y="474.00" font-size="12" fill="#555555">22.783800</text>
<line x1="90" y1="600.00" x2="1452" y2="600.00" stroke="#d9d9d9" stroke-dasharray="4 4" stroke-width="1"/>
<text x="12" y="604.00" font-size="12" fill="#555555">20.209400</text>
<line x1="90" y1="730.00" x2="1452" y2="730.00" stroke="#d9d9d9" stroke-dasharray="4 4" stroke-width="1"/>
<text x="12" y="734.00" font-size="12" fill="#555555">17.635000</text>
<rect x="580.32" y="80" width="54.48" height="650.00" fill="#f1c40f" opacity="0.16"/>
<line x1="607.56" y1="80" x2="607.56" y2="730" stroke="#f39c12" stroke-width="2" stroke-dasharray="6 4"/>
<line x1="90" y1="487.44" x2="1452" y2="487.44" stroke="#8e44ad" stroke-width="2" stroke-dasharray="8 4"/>
<text x="1444" y="479.44" font-size="13" fill="#8e44ad" text-anchor="end">10倍价 22.438521</text>
<line x1="117.24" y1="699.45" x2="117.24" y2="708.29" stroke="#e74c3c" stroke-width="2"/>
<rect x="101.99" y="702.18" width="30.51" height="4.80" fill="#e74c3c" stroke="#e74c3c" stroke-width="1"/>
<text x="117.24" y="802" font-size="11" fill="#555555" text-anchor="middle">05-29</text>
<text x="117.24" y="818" font-size="11" fill="#555555" text-anchor="middle">15:00</text>
<line x1="171.72" y1="703.08" x2="171.72" y2="714.30" stroke="#e74c3c" stroke-width="2"/>
<rect x="156.47" y="706.67" width="30.51" height="7.42" fill="#e74c3c" stroke="#e74c3c" stroke-width="1"/>
<text x="171.72" y="802" font-size="11" fill="#555555" text-anchor="middle">05-29</text>
<text x="171.72" y="818" font-size="11" fill="#555555" text-anchor="middle">15:15</text>
<line x1="226.20" y1="711.72" x2="226.20" y2="718.64" stroke="#2ecc71" stroke-width="2"/>
<rect x="210.95" y="712.83" width="30.51" height="1.31" fill="#2ecc71" stroke="#2ecc71" stroke-width="1"/>
<text x="226.20" y="802" font-size="11" fill="#555555" text-anchor="middle">05-29</text>
<text x="226.20" y="818" font-size="11" fill="#555555" text-anchor="middle">15:30</text>
<line x1="280.68" y1="712.22" x2="280.68" y2="719.90" stroke="#e74c3c" stroke-width="2"/>
<rect x="265.43" y="712.83" width="30.51" height="6.26" fill="#e74c3c" stroke="#e74c3c" stroke-width="1"/>
<text x="280.68" y="802" font-size="11" fill="#555555" text-anchor="middle">05-29</text>
<text x="280.68" y="818" font-size="11" fill="#555555" text-anchor="middle">15:45</text>
<line x1="335.16" y1="715.41" x2="335.16" y2="730.00" stroke="#e74c3c" stroke-width="2"/>
<rect x="319.91" y="719.09" width="30.51" height="4.95" fill="#e74c3c" stroke="#e74c3c" stroke-width="1"/>
<text x="335.16" y="802" font-size="11" fill="#555555" text-anchor="middle">05-29</text>
<text x="335.16" y="818" font-size="11" fill="#555555" text-anchor="middle">16:00</text>
<line x1="389.64" y1="716.37" x2="389.64" y2="729.29" stroke="#2ecc71" stroke-width="2"/>
<rect x="374.39" y="716.82" width="30.51" height="7.88" fill="#2ecc71" stroke="#2ecc71" stroke-width="1"/>
<text x="389.64" y="802" font-size="11" fill="#555555" text-anchor="middle">05-29</text>
<text x="389.64" y="818" font-size="11" fill="#555555" text-anchor="middle">16:15</text>
<line x1="444.12" y1="709.70" x2="444.12" y2="718.34" stroke="#2ecc71" stroke-width="2"/>
<rect x="428.87" y="711.57" width="30.51" height="5.35" fill="#2ecc71" stroke="#2ecc71" stroke-width="1"/>
<text x="444.12" y="802" font-size="11" fill="#555555" text-anchor="middle">05-29</text>
<text x="444.12" y="818" font-size="11" fill="#555555" text-anchor="middle">16:30</text>
<line x1="498.60" y1="707.68" x2="498.60" y2="713.13" stroke="#2ecc71" stroke-width="2"/>
<rect x="483.35" y="709.14" width="30.51" height="2.42" fill="#2ecc71" stroke="#2ecc71" stroke-width="1"/>
<text x="498.60" y="802" font-size="11" fill="#555555" text-anchor="middle">05-29</text>
<text x="498.60" y="818" font-size="11" fill="#555555" text-anchor="middle">16:45</text>
<line x1="553.08" y1="707.02" x2="553.08" y2="712.53" stroke="#e74c3c" stroke-width="2"/>
<rect x="537.83" y="708.99" width="30.51" height="3.33" fill="#e74c3c" stroke="#e74c3c" stroke-width="1"/>
<text x="553.08" y="802" font-size="11" fill="#555555" text-anchor="middle">05-29</text>
<text x="553.08" y="818" font-size="11" fill="#555555" text-anchor="middle">17:00</text>
<line x1="607.56" y1="80.00" x2="607.56" y2="713.13" stroke="#2ecc71" stroke-width="2"/>
<rect x="592.31" y="240.58" width="30.51" height="472.00" fill="#2ecc71" stroke="#2ecc71" stroke-width="1"/>
<text x="607.56" y="802" font-size="11" fill="#555555" text-anchor="middle">05-29</text>
<text x="607.56" y="818" font-size="11" fill="#555555" text-anchor="middle">17:15</text>
<line x1="662.04" y1="211.65" x2="662.04" y2="296.38" stroke="#e74c3c" stroke-width="2"/>
<rect x="646.79" y="241.74" width="30.51" height="29.94" fill="#e74c3c" stroke="#e74c3c" stroke-width="1"/>
<text x="662.04" y="802" font-size="11" fill="#555555" text-anchor="middle">05-29</text>
<text x="662.04" y="818" font-size="11" fill="#555555" text-anchor="middle">17:30</text>
<line x1="716.52" y1="253.26" x2="716.52" y2="331.83" stroke="#e74c3c" stroke-width="2"/>
<rect x="701.27" y="270.22" width="30.51" height="58.63" fill="#e74c3c" stroke="#e74c3c" stroke-width="1"/>
<text x="716.52" y="802" font-size="11" fill="#555555" text-anchor="middle">05-29</text>
<text x="716.52" y="818" font-size="11" fill="#555555" text-anchor="middle">17:45</text>
<line x1="771.00" y1="304.26" x2="771.00" y2="383.24" stroke="#e74c3c" stroke-width="2"/>
<rect x="755.75" y="330.37" width="30.51" height="31.56" fill="#e74c3c" stroke="#e74c3c" stroke-width="1"/>
<text x="771.00" y="802" font-size="11" fill="#555555" text-anchor="middle">05-29</text>
<text x="771.00" y="818" font-size="11" fill="#555555" text-anchor="middle">18:00</text>
<line x1="825.48" y1="293.45" x2="825.48" y2="385.96" stroke="#e74c3c" stroke-width="2"/>
<rect x="810.23" y="361.93" width="30.51" height="1.26" fill="#e74c3c" stroke="#e74c3c" stroke-width="1"/>
<text x="825.48" y="802" font-size="11" fill="#555555" text-anchor="middle">05-29</text>
<text x="825.48" y="818" font-size="11" fill="#555555" text-anchor="middle">18:15</text>
<line x1="879.96" y1="344.66" x2="879.96" y2="370.96" stroke="#2ecc71" stroke-width="2"/>
<rect x="864.71" y="353.75" width="30.51" height="9.34" fill="#2ecc71" stroke="#2ecc71" stroke-width="1"/>
<text x="879.96" y="802" font-size="11" fill="#555555" text-anchor="middle">05-29</text>
<text x="879.96" y="818" font-size="11" fill="#555555" text-anchor="middle">18:30</text>
<line x1="934.44" y1="314.00" x2="934.44" y2="360.36" stroke="#2ecc71" stroke-width="2"/>
<rect x="919.19" y="334.00" width="30.51" height="18.89" fill="#2ecc71" stroke="#2ecc71" stroke-width="1"/>
<text x="934.44" y="802" font-size="11" fill="#555555" text-anchor="middle">05-29</text>
<text x="934.44" y="818" font-size="11" fill="#555555" text-anchor="middle">18:45</text>
<line x1="988.92" y1="323.85" x2="988.92" y2="355.41" stroke="#2ecc71" stroke-width="2"/>
<rect x="973.67" y="332.49" width="30.51" height="1.20" fill="#2ecc71" stroke="#2ecc71" stroke-width="1"/>
<text x="988.92" y="802" font-size="11" fill="#555555" text-anchor="middle">05-29</text>
<text x="988.92" y="818" font-size="11" fill="#555555" text-anchor="middle">19:00</text>
<line x1="1043.40" y1="317.69" x2="1043.40" y2="352.74" stroke="#2ecc71" stroke-width="2"/>
<rect x="1028.15" y="319.61" width="30.51" height="12.83" fill="#2ecc71" stroke="#2ecc71" stroke-width="1"/>
<text x="1043.40" y="802" font-size="11" fill="#555555" text-anchor="middle">05-29</text>
<text x="1043.40" y="818" font-size="11" fill="#555555" text-anchor="middle">19:15</text>
<line x1="1097.88" y1="259.32" x2="1097.88" y2="324.76" stroke="#2ecc71" stroke-width="2"/>
<rect x="1082.63" y="286.08" width="30.51" height="33.38" fill="#2ecc71" stroke="#2ecc71" stroke-width="1"/>
<text x="1097.88" y="802" font-size="11" fill="#555555" text-anchor="middle">05-29</text>
<text x="1097.88" y="818" font-size="11" fill="#555555" text-anchor="middle">19:30</text>
<line x1="1152.36" y1="269.36" x2="1152.36" y2="319.66" stroke="#e74c3c" stroke-width="2"/>
<rect x="1137.11" y="285.68" width="30.51" height="29.59" fill="#e74c3c" stroke="#e74c3c" stroke-width="1"/>
<text x="1152.36" y="802" font-size="11" fill="#555555" text-anchor="middle">05-29</text>
<text x="1152.36" y="818" font-size="11" fill="#555555" text-anchor="middle">19:45</text>
<line x1="1206.84" y1="276.84" x2="1206.84" y2="337.89" stroke="#2ecc71" stroke-width="2"/>
<rect x="1191.59" y="283.76" width="30.51" height="32.77" fill="#2ecc71" stroke="#2ecc71" stroke-width="1"/>
<text x="1206.84" y="802" font-size="11" fill="#555555" text-anchor="middle">05-29</text>
<text x="1206.84" y="818" font-size="11" fill="#555555" text-anchor="middle">20:00</text>
<line x1="1261.32" y1="280.83" x2="1261.32" y2="317.69" stroke="#e74c3c" stroke-width="2"/>
<rect x="1246.07" y="283.45" width="30.51" height="22.42" fill="#e74c3c" stroke="#e74c3c" stroke-width="1"/>
<text x="1261.32" y="802" font-size="11" fill="#555555" text-anchor="middle">05-29</text>
<text x="1261.32" y="818" font-size="11" fill="#555555" text-anchor="middle">20:15</text>
<line x1="1315.80" y1="304.86" x2="1315.80" y2="337.59" stroke="#e74c3c" stroke-width="2"/>
<rect x="1300.55" y="306.73" width="30.51" height="28.48" fill="#e74c3c" stroke="#e74c3c" stroke-width="1"/>
<text x="1315.80" y="802" font-size="11" fill="#555555" text-anchor="middle">05-29</text>
<text x="1315.80" y="818" font-size="11" fill="#555555" text-anchor="middle">20:30</text>
<line x1="1370.28" y1="318.90" x2="1370.28" y2="350.61" stroke="#2ecc71" stroke-width="2"/>
<rect x="1355.03" y="330.31" width="30.51" height="5.40" fill="#2ecc71" stroke="#2ecc71" stroke-width="1"/>
<text x="1370.28" y="802" font-size="11" fill="#555555" text-anchor="middle">05-29</text>
<text x="1370.28" y="818" font-size="11" fill="#555555" text-anchor="middle">20:45</text>
<line x1="1424.76" y1="300.98" x2="1424.76" y2="339.20" stroke="#2ecc71" stroke-width="2"/>
<rect x="1409.51" y="315.11" width="30.51" height="15.60" fill="#2ecc71" stroke="#2ecc71" stroke-width="1"/>
<text x="1424.76" y="802" font-size="11" fill="#555555" text-anchor="middle">05-29</text>
<text x="1424.76" y="818" font-size="11" fill="#555555" text-anchor="middle">21:00</text>
<line x1="607.56" y1="80.00" x2="677.56" y2="104.00" stroke="#f39c12" stroke-width="2"/>
<rect x="677.56" y="52.00" width="280" height="90" rx="10" fill="#fff8dc" stroke="#f39c12"/>
<text x="689.56" y="76.00" font-size="13" fill="#111111">15m定位时间 2024-05-29 17:15:00</text>
<text x="689.56" y="96.00" font-size="13" fill="#111111">该15m最高价 30.507000</text>
<text x="689.56" y="116.00" font-size="13" fill="#111111">10倍价横线已标出</text>
<text x="689.56" y="136.00" font-size="13" fill="#111111">竖线高亮首次触达10倍价的15m</text>
</svg>