<svg xmlns="http://www.w3.org/2000/svg" width="1500" height="860" viewBox="0 0 1500 860">
<rect width="100%" height="100%" fill="#fcfcfc"/>
<text x="90" y="38" font-size="28" font-weight="700" fill="#111111">BABY-USDT-SWAP 15m - 10倍命中定位图</text>
<text x="90" y="68" font-size="16" fill="#555555">1H命中时间: 2025-07-10 11:00:00 | 10倍价: 0.055942 | 命中倍数: 11.1552x</text>
<line x1="90" y1="80.00" x2="1452" y2="80.00" stroke="#d9d9d9" stroke-dasharray="4 4" stroke-width="1"/>
<text x="12" y="84.00" font-size="12" fill="#555555">0.056940</text>
<line x1="90" y1="210.00" x2="1452" y2="210.00" stroke="#d9d9d9" stroke-dasharray="4 4" stroke-width="1"/>
<text x="12" y="214.00" font-size="12" fill="#555555">0.054890</text>
<line x1="90" y1="340.00" x2="1452" y2="340.00" stroke="#d9d9d9" stroke-dasharray="4 4" stroke-width="1"/>
<text x="12" y="344.00" font-size="12" fill="#555555">0.052840</text>
<line x1="90" y1="470.00" x2="1452" y2="470.00" stroke="#d9d9d9" stroke-dasharray="4 4" stroke-width="1"/>
<text x="12" y="474.00" font-size="12" fill="#555555">0.050790</text>
<line x1="90" y1="600.00" x2="1452" y2="600.00" stroke="#d9d9d9" stroke-dasharray="4 4" stroke-width="1"/>
<text x="12" y="604.00" font-size="12" fill="#555555">0.048740</text>
<line x1="90" y1="730.00" x2="1452" y2="730.00" stroke="#d9d9d9" stroke-dasharray="4 4" stroke-width="1"/>
<text x="12" y="734.00" font-size="12" fill="#555555">0.046690</text>
<rect x="634.80" y="80" width="54.48" height="650.00" fill="#f1c40f" opacity="0.16"/>
<line x1="662.04" y1="80" x2="662.04" y2="730" stroke="#f39c12" stroke-width="2" stroke-dasharray="6 4"/>
<line x1="90" y1="143.31" x2="1452" y2="143.31" stroke="#8e44ad" stroke-width="2" stroke-dasharray="8 4"/>
<text x="1444" y="135.31" font-size="13" fill="#8e44ad" text-anchor="end">10倍价 0.055942</text>
<line x1="117.24" y1="717.32" x2="117.24" y2="730.00" stroke="#2ecc71" stroke-width="2"/>
<rect x="101.99" y="718.59" width="30.51" height="10.78" fill="#2ecc71" stroke="#2ecc71" stroke-width="1"/>
<text x="117.24" y="802" font-size="11" fill="#555555" text-anchor="middle">07-10</text>
<text x="117.24" y="818" font-size="11" fill="#555555" text-anchor="middle">09:00</text>
<line x1="171.72" y1="699.56" x2="171.72" y2="721.76" stroke="#2ecc71" stroke-width="2"/>
<rect x="156.47" y="710.34" width="30.51" height="8.24" fill="#2ecc71" stroke="#2ecc71" stroke-width="1"/>
<text x="171.72" y="802" font-size="11" fill="#555555" text-anchor="middle">07-10</text>
<text x="171.72" y="818" font-size="11" fill="#555555" text-anchor="middle">09:15</text>
<line x1="226.20" y1="709.07" x2="226.20" y2="719.85" stroke="#e74c3c" stroke-width="2"/>
<rect x="210.95" y="710.98" width="30.51" height="4.44" fill="#e74c3c" stroke="#e74c3c" stroke-width="1"/>
<text x="226.20" y="802" font-size="11" fill="#555555" text-anchor="middle">07-10</text>
<text x="226.20" y="818" font-size="11" fill="#555555" text-anchor="middle">09:30</text>
<line x1="280.68" y1="710.98" x2="280.68" y2="726.83" stroke="#e74c3c" stroke-width="2"/>
<rect x="265.43" y="716.68" width="30.51" height="5.71" fill="#e74c3c" stroke="#e74c3c" stroke-width="1"/>
<text x="280.68" y="802" font-size="11" fill="#555555" text-anchor="middle">07-10</text>
<text x="280.68" y="818" font-size="11" fill="#555555" text-anchor="middle">09:45</text>
<line x1="335.16" y1="712.88" x2="335.16" y2="726.83" stroke="#2ecc71" stroke-width="2"/>
<rect x="319.91" y="714.78" width="30.51" height="8.88" fill="#2ecc71" stroke="#2ecc71" stroke-width="1"/>
<text x="335.16" y="802" font-size="11" fill="#555555" text-anchor="middle">07-10</text>
<text x="335.16" y="818" font-size="11" fill="#555555" text-anchor="middle">10:00</text>
<line x1="389.64" y1="688.78" x2="389.64" y2="720.49" stroke="#2ecc71" stroke-width="2"/>
<rect x="374.39" y="698.93" width="30.51" height="15.85" fill="#2ecc71" stroke="#2ecc71" stroke-width="1"/>
<text x="389.64" y="802" font-size="11" fill="#555555" text-anchor="middle">07-10</text>
<text x="389.64" y="818" font-size="11" fill="#555555" text-anchor="middle">10:15</text>
<line x1="444.12" y1="688.15" x2="444.12" y2="702.10" stroke="#2ecc71" stroke-width="2"/>
<rect x="428.87" y="693.85" width="30.51" height="5.71" fill="#2ecc71" stroke="#2ecc71" stroke-width="1"/>
<text x="444.12" y="802" font-size="11" fill="#555555" text-anchor="middle">07-10</text>
<text x="444.12" y="818" font-size="11" fill="#555555" text-anchor="middle">10:30</text>
<line x1="498.60" y1="672.93" x2="498.60" y2="694.49" stroke="#2ecc71" stroke-width="2"/>
<rect x="483.35" y="674.20" width="30.51" height="20.29" fill="#2ecc71" stroke="#2ecc71" stroke-width="1"/>
<text x="498.60" y="802" font-size="11" fill="#555555" text-anchor="middle">07-10</text>
<text x="498.60" y="818" font-size="11" fill="#555555" text-anchor="middle">10:45</text>
<line x1="553.08" y1="664.05" x2="553.08" y2="688.15" stroke="#e74c3c" stroke-width="2"/>
<rect x="537.83" y="674.20" width="30.51" height="13.32" fill="#e74c3c" stroke="#e74c3c" stroke-width="1"/>
<text x="553.08" y="802" font-size="11" fill="#555555" text-anchor="middle">07-10</text>
<text x="553.08" y="818" font-size="11" fill="#555555" text-anchor="middle">11:00</text>
<line x1="607.56" y1="667.22" x2="607.56" y2="691.32" stroke="#e74c3c" stroke-width="2"/>
<rect x="592.31" y="686.88" width="30.51" height="1.90" fill="#e74c3c" stroke="#e74c3c" stroke-width="1"/>
<text x="607.56" y="802" font-size="11" fill="#555555" text-anchor="middle">07-10</text>
<text x="607.56" y="818" font-size="11" fill="#555555" text-anchor="middle">11:15</text>
<line x1="662.04" y1="80.00" x2="662.04" y2="688.15" stroke="#2ecc71" stroke-width="2"/>
<rect x="646.79" y="357.76" width="30.51" height="330.39" fill="#2ecc71" stroke="#2ecc71" stroke-width="1"/>
<text x="662.04" y="802" font-size="11" fill="#555555" text-anchor="middle">07-10</text>
<text x="662.04" y="818" font-size="11" fill="#555555" text-anchor="middle">11:30</text>
<line x1="716.52" y1="344.44" x2="716.52" y2="532.15" stroke="#e74c3c" stroke-width="2"/>
<rect x="701.27" y="356.49" width="30.51" height="149.02" fill="#e74c3c" stroke="#e74c3c" stroke-width="1"/>
<text x="716.52" y="802" font-size="11" fill="#555555" text-anchor="middle">07-10</text>
<text x="716.52" y="818" font-size="11" fill="#555555" text-anchor="middle">11:45</text>
<line x1="771.00" y1="361.56" x2="771.00" y2="536.59" stroke="#2ecc71" stroke-width="2"/>
<rect x="755.75" y="382.49" width="30.51" height="123.66" fill="#2ecc71" stroke="#2ecc71" stroke-width="1"/>
<text x="771.00" y="802" font-size="11" fill="#555555" text-anchor="middle">07-10</text>
<text x="771.00" y="818" font-size="11" fill="#555555" text-anchor="middle">12:00</text>
<line x1="825.48" y1="274.05" x2="825.48" y2="399.61" stroke="#e74c3c" stroke-width="2"/>
<rect x="810.23" y="381.85" width="30.51" height="6.98" fill="#e74c3c" stroke="#e74c3c" stroke-width="1"/>
<text x="825.48" y="802" font-size="11" fill="#555555" text-anchor="middle">07-10</text>
<text x="825.48" y="818" font-size="11" fill="#555555" text-anchor="middle">12:15</text>
<line x1="879.96" y1="364.10" x2="879.96" y2="426.88" stroke="#2ecc71" stroke-width="2"/>
<rect x="864.71" y="364.73" width="30.51" height="24.10" fill="#2ecc71" stroke="#2ecc71" stroke-width="1"/>
<text x="879.96" y="802" font-size="11" fill="#555555" text-anchor="middle">07-10</text>
<text x="879.96" y="818" font-size="11" fill="#555555" text-anchor="middle">12:30</text>
<line x1="934.44" y1="361.56" x2="934.44" y2="428.15" stroke="#e74c3c" stroke-width="2"/>
<rect x="919.19" y="364.73" width="30.51" height="31.07" fill="#e74c3c" stroke="#e74c3c" stroke-width="1"/>
<text x="934.44" y="802" font-size="11" fill="#555555" text-anchor="middle">07-10</text>
<text x="934.44" y="818" font-size="11" fill="#555555" text-anchor="middle">12:45</text>
<line x1="988.92" y1="369.80" x2="988.92" y2="514.39" stroke="#e74c3c" stroke-width="2"/>
<rect x="973.67" y="394.54" width="30.51" height="72.29" fill="#e74c3c" stroke="#e74c3c" stroke-width="1"/>
<text x="988.92" y="802" font-size="11" fill="#555555" text-anchor="middle">07-10</text>
<text x="988.92" y="818" font-size="11" fill="#555555" text-anchor="middle">13:00</text>
<line x1="1043.40" y1="448.44" x2="1043.40" y2="489.02" stroke="#e74c3c" stroke-width="2"/>
<rect x="1028.15" y="464.93" width="30.51" height="20.29" fill="#e74c3c" stroke="#e74c3c" stroke-width="1"/>
<text x="1043.40" y="802" font-size="11" fill="#555555" text-anchor="middle">07-10</text>
<text x="1043.40" y="818" font-size="11" fill="#555555" text-anchor="middle">13:15</text>
<line x1="1097.88" y1="435.12" x2="1097.88" y2="499.80" stroke="#2ecc71" stroke-width="2"/>
<rect x="1082.63" y="457.95" width="30.51" height="27.27" fill="#2ecc71" stroke="#2ecc71" stroke-width="1"/>
<text x="1097.88" y="802" font-size="11" fill="#555555" text-anchor="middle">07-10</text>
<text x="1097.88" y="818" font-size="11" fill="#555555" text-anchor="middle">13:30</text>
<line x1="1152.36" y1="440.20" x2="1152.36" y2="465.56" stroke="#2ecc71" stroke-width="2"/>
<rect x="1137.11" y="455.41" width="30.51" height="5.07" fill="#2ecc71" stroke="#2ecc71" stroke-width="1"/>
<text x="1152.36" y="802" font-size="11" fill="#555555" text-anchor="middle">07-10</text>
<text x="1152.36" y="818" font-size="11" fill="#555555" text-anchor="middle">13:45</text>
<line x1="1206.84" y1="431.32" x2="1206.84" y2="482.68" stroke="#e74c3c" stroke-width="2"/>
<rect x="1191.59" y="455.41" width="30.51" height="24.73" fill="#e74c3c" stroke="#e74c3c" stroke-width="1"/>
<text x="1206.84" y="802" font-size="11" fill="#555555" text-anchor="middle">07-10</text>
<text x="1206.84" y="818" font-size="11" fill="#555555" text-anchor="middle">14:00</text>
<line x1="1261.32" y1="439.56" x2="1261.32" y2="501.71" stroke="#2ecc71" stroke-width="2"/>
<rect x="1246.07" y="456.05" width="30.51" height="24.10" fill="#2ecc71" stroke="#2ecc71" stroke-width="1"/>
<text x="1261.32" y="802" font-size="11" fill="#555555" text-anchor="middle">07-10</text>
<text x="1261.32" y="818" font-size="11" fill="#555555" text-anchor="middle">14:15</text>
<line x1="1315.80" y1="438.93" x2="1315.80" y2="568.29" stroke="#e74c3c" stroke-width="2"/>
<rect x="1300.55" y="455.41" width="30.51" height="75.46" fill="#e74c3c" stroke="#e74c3c" stroke-width="1"/>
<text x="1315.80" y="802" font-size="11" fill="#555555" text-anchor="middle">07-10</text>
<text x="1315.80" y="818" font-size="11" fill="#555555" text-anchor="middle">14:30</text>
<line x1="1370.28" y1="476.34" x2="1370.28" y2="534.05" stroke="#2ecc71" stroke-width="2"/>
<rect x="1355.03" y="483.95" width="30.51" height="46.29" fill="#2ecc71" stroke="#2ecc71" stroke-width="1"/>
<text x="1370.28" y="802" font-size="11" fill="#555555" text-anchor="middle">07-10</text>
<text x="1370.28" y="818" font-size="11" fill="#555555" text-anchor="middle">14:45</text>
<line x1="1424.76" y1="478.88" x2="1424.76" y2="572.73" stroke="#e74c3c" stroke-width="2"/>
<rect x="1409.51" y="483.32" width="30.51" height="26.00" fill="#e74c3c" stroke="#e74c3c" stroke-width="1"/>
<text x="1424.76" y="802" font-size="11" fill="#555555" text-anchor="middle">07-10</text>
<text x="1424.76" y="818" font-size="11" fill="#555555" text-anchor="middle">15:00</text>
<line x1="662.04" y1="80.00" x2="732.04" y2="104.00" stroke="#f39c12" stroke-width="2"/>
<rect x="732.04" y="52.00" width="280" height="90" rx="10" fill="#fff8dc" stroke="#f39c12"/>
<text x="744.04" y="76.00" font-size="13" fill="#111111">15m定位时间 2025-07-10 11:30:00</text>
<text x="744.04" y="96.00" font-size="13" fill="#111111">该15m最高价 0.056940</text>
<text x="744.04" y="116.00" font-size="13" fill="#111111">10倍价横线已标出</text>
<text x="744.04" y="136.00" font-size="13" fill="#111111">竖线高亮首次触达10倍价的15m</text>
</svg>