<svg xmlns="http://www.w3.org/2000/svg" width="1500" height="860" viewBox="0 0 1500 860">
<rect width="100%" height="100%" fill="#fcfcfc"/>
<text x="90" y="38" font-size="28" font-weight="700" fill="#111111">BAND-USDT-SWAP 15m - 10倍命中定位图</text>
<text x="90" y="68" font-size="16" fill="#555555">1H命中时间: 2026-04-17 19:00:00 | 10倍价: 0.303620 | 命中倍数: 13.3655x</text>
<line x1="90" y1="80.00" x2="1452" y2="80.00" stroke="#d9d9d9" stroke-dasharray="4 4" stroke-width="1"/>
<text x="12" y="84.00" font-size="12" fill="#555555">0.325300</text>
<line x1="90" y1="210.00" x2="1452" y2="210.00" stroke="#d9d9d9" stroke-dasharray="4 4" stroke-width="1"/>
<text x="12" y="214.00" font-size="12" fill="#555555">0.306760</text>
<line x1="90" y1="340.00" x2="1452" y2="340.00" stroke="#d9d9d9" stroke-dasharray="4 4" stroke-width="1"/>
<text x="12" y="344.00" font-size="12" fill="#555555">0.288220</text>
<line x1="90" y1="470.00" x2="1452" y2="470.00" stroke="#d9d9d9" stroke-dasharray="4 4" stroke-width="1"/>
<text x="12" y="474.00" font-size="12" fill="#555555">0.269680</text>
<line x1="90" y1="600.00" x2="1452" y2="600.00" stroke="#d9d9d9" stroke-dasharray="4 4" stroke-width="1"/>
<text x="12" y="604.00" font-size="12" fill="#555555">0.251140</text>
<line x1="90" y1="730.00" x2="1452" y2="730.00" stroke="#d9d9d9" stroke-dasharray="4 4" stroke-width="1"/>
<text x="12" y="734.00" font-size="12" fill="#555555">0.232600</text>
<rect x="689.28" y="80" width="54.48" height="650.00" fill="#f1c40f" opacity="0.16"/>
<line x1="716.52" y1="80" x2="716.52" y2="730" stroke="#f39c12" stroke-width="2" stroke-dasharray="6 4"/>
<line x1="90" y1="232.02" x2="1452" y2="232.02" stroke="#8e44ad" stroke-width="2" stroke-dasharray="8 4"/>
<text x="1444" y="224.02" font-size="13" fill="#8e44ad" text-anchor="end">10倍价 0.303620</text>
<line x1="117.24" y1="685.12" x2="117.24" y2="720.88" stroke="#e74c3c" stroke-width="2"/>
<rect x="101.99" y="690.73" width="30.51" height="14.72" fill="#e74c3c" stroke="#e74c3c" stroke-width="1"/>
<text x="117.24" y="802" font-size="11" fill="#555555" text-anchor="middle">04-17</text>
<text x="117.24" y="818" font-size="11" fill="#555555" text-anchor="middle">17:00</text>
<line x1="171.72" y1="698.45" x2="171.72" y2="720.88" stroke="#e74c3c" stroke-width="2"/>
<rect x="156.47" y="704.76" width="30.51" height="14.02" fill="#e74c3c" stroke="#e74c3c" stroke-width="1"/>
<text x="171.72" y="802" font-size="11" fill="#555555" text-anchor="middle">04-17</text>
<text x="171.72" y="818" font-size="11" fill="#555555" text-anchor="middle">17:15</text>
<line x1="226.20" y1="711.77" x2="226.20" y2="730.00" stroke="#2ecc71" stroke-width="2"/>
<rect x="210.95" y="712.47" width="30.51" height="6.31" fill="#2ecc71" stroke="#2ecc71" stroke-width="1"/>
<text x="226.20" y="802" font-size="11" fill="#555555" text-anchor="middle">04-17</text>
<text x="226.20" y="818" font-size="11" fill="#555555" text-anchor="middle">17:30</text>
<line x1="280.68" y1="706.86" x2="280.68" y2="717.38" stroke="#e74c3c" stroke-width="2"/>
<rect x="265.43" y="711.77" width="30.51" height="1.20" fill="#e74c3c" stroke="#e74c3c" stroke-width="1"/>
<text x="280.68" y="802" font-size="11" fill="#555555" text-anchor="middle">04-17</text>
<text x="280.68" y="818" font-size="11" fill="#555555" text-anchor="middle">17:45</text>
<line x1="335.16" y1="701.25" x2="335.16" y2="713.17" stroke="#2ecc71" stroke-width="2"/>
<rect x="319.91" y="704.06" width="30.51" height="7.71" fill="#2ecc71" stroke="#2ecc71" stroke-width="1"/>
<text x="335.16" y="802" font-size="11" fill="#555555" text-anchor="middle">04-17</text>
<text x="335.16" y="818" font-size="11" fill="#555555" text-anchor="middle">18:00</text>
<line x1="389.64" y1="687.23" x2="389.64" y2="707.56" stroke="#2ecc71" stroke-width="2"/>
<rect x="374.39" y="696.34" width="30.51" height="7.71" fill="#2ecc71" stroke="#2ecc71" stroke-width="1"/>
<text x="389.64" y="802" font-size="11" fill="#555555" text-anchor="middle">04-17</text>
<text x="389.64" y="818" font-size="11" fill="#555555" text-anchor="middle">18:15</text>
<line x1="444.12" y1="683.72" x2="444.12" y2="706.16" stroke="#2ecc71" stroke-width="2"/>
<rect x="428.87" y="696.34" width="30.51" height="1.40" fill="#2ecc71" stroke="#2ecc71" stroke-width="1"/>
<text x="444.12" y="802" font-size="11" fill="#555555" text-anchor="middle">04-17</text>
<text x="444.12" y="818" font-size="11" fill="#555555" text-anchor="middle">18:30</text>
<line x1="498.60" y1="669.00" x2="498.60" y2="697.75" stroke="#2ecc71" stroke-width="2"/>
<rect x="483.35" y="673.91" width="30.51" height="22.44" fill="#2ecc71" stroke="#2ecc71" stroke-width="1"/>
<text x="498.60" y="802" font-size="11" fill="#555555" text-anchor="middle">04-17</text>
<text x="498.60" y="818" font-size="11" fill="#555555" text-anchor="middle">18:45</text>
<line x1="553.08" y1="659.18" x2="553.08" y2="683.72" stroke="#2ecc71" stroke-width="2"/>
<rect x="537.83" y="673.91" width="30.51" height="1.20" fill="#2ecc71" stroke="#2ecc71" stroke-width="1"/>
<text x="553.08" y="802" font-size="11" fill="#555555" text-anchor="middle">04-17</text>
<text x="553.08" y="818" font-size="11" fill="#555555" text-anchor="middle">19:00</text>
<line x1="607.56" y1="537.87" x2="607.56" y2="673.20" stroke="#2ecc71" stroke-width="2"/>
<rect x="592.31" y="546.29" width="30.51" height="126.91" fill="#2ecc71" stroke="#2ecc71" stroke-width="1"/>
<text x="607.56" y="802" font-size="11" fill="#555555" text-anchor="middle">04-17</text>
<text x="607.56" y="818" font-size="11" fill="#555555" text-anchor="middle">19:15</text>
<line x1="662.04" y1="391.33" x2="662.04" y2="554.00" stroke="#2ecc71" stroke-width="2"/>
<rect x="646.79" y="475.47" width="30.51" height="70.82" fill="#2ecc71" stroke="#2ecc71" stroke-width="1"/>
<text x="662.04" y="802" font-size="11" fill="#555555" text-anchor="middle">04-17</text>
<text x="662.04" y="818" font-size="11" fill="#555555" text-anchor="middle">19:30</text>
<line x1="716.52" y1="80.00" x2="716.52" y2="503.52" stroke="#2ecc71" stroke-width="2"/>
<rect x="701.27" y="195.70" width="30.51" height="279.77" fill="#2ecc71" stroke="#2ecc71" stroke-width="1"/>
<text x="716.52" y="802" font-size="11" fill="#555555" text-anchor="middle">04-17</text>
<text x="716.52" y="818" font-size="11" fill="#555555" text-anchor="middle">19:45</text>
<line x1="771.00" y1="91.22" x2="771.00" y2="319.10" stroke="#e74c3c" stroke-width="2"/>
<rect x="755.75" y="194.29" width="30.51" height="51.89" fill="#e74c3c" stroke="#e74c3c" stroke-width="1"/>
<text x="771.00" y="802" font-size="11" fill="#555555" text-anchor="middle">04-17</text>
<text x="771.00" y="818" font-size="11" fill="#555555" text-anchor="middle">20:00</text>
<line x1="825.48" y1="231.46" x2="825.48" y2="516.14" stroke="#e74c3c" stroke-width="2"/>
<rect x="810.23" y="246.88" width="30.51" height="245.42" fill="#e74c3c" stroke="#e74c3c" stroke-width="1"/>
<text x="825.48" y="802" font-size="11" fill="#555555" text-anchor="middle">04-17</text>
<text x="825.48" y="818" font-size="11" fill="#555555" text-anchor="middle">20:15</text>
<line x1="879.96" y1="474.07" x2="879.96" y2="640.25" stroke="#e74c3c" stroke-width="2"/>
<rect x="864.71" y="492.30" width="30.51" height="139.54" fill="#e74c3c" stroke="#e74c3c" stroke-width="1"/>
<text x="879.96" y="802" font-size="11" fill="#555555" text-anchor="middle">04-17</text>
<text x="879.96" y="818" font-size="11" fill="#555555" text-anchor="middle">20:30</text>
<line x1="934.44" y1="618.51" x2="934.44" y2="680.92" stroke="#e74c3c" stroke-width="2"/>
<rect x="919.19" y="632.54" width="30.51" height="27.35" fill="#e74c3c" stroke="#e74c3c" stroke-width="1"/>
<text x="934.44" y="802" font-size="11" fill="#555555" text-anchor="middle">04-17</text>
<text x="934.44" y="818" font-size="11" fill="#555555" text-anchor="middle">20:45</text>
<line x1="988.92" y1="576.44" x2="988.92" y2="671.10" stroke="#2ecc71" stroke-width="2"/>
<rect x="973.67" y="599.58" width="30.51" height="61.00" fill="#2ecc71" stroke="#2ecc71" stroke-width="1"/>
<text x="988.92" y="802" font-size="11" fill="#555555" text-anchor="middle">04-17</text>
<text x="988.92" y="818" font-size="11" fill="#555555" text-anchor="middle">21:00</text>
<line x1="1043.40" y1="551.90" x2="1043.40" y2="606.59" stroke="#2ecc71" stroke-width="2"/>
<rect x="1028.15" y="586.96" width="30.51" height="12.62" fill="#2ecc71" stroke="#2ecc71" stroke-width="1"/>
<text x="1043.40" y="802" font-size="11" fill="#555555" text-anchor="middle">04-17</text>
<text x="1043.40" y="818" font-size="11" fill="#555555" text-anchor="middle">21:15</text>
<line x1="1097.88" y1="578.54" x2="1097.88" y2="627.63" stroke="#2ecc71" stroke-width="2"/>
<rect x="1082.63" y="579.95" width="30.51" height="7.71" fill="#2ecc71" stroke="#2ecc71" stroke-width="1"/>
<text x="1097.88" y="802" font-size="11" fill="#555555" text-anchor="middle">04-17</text>
<text x="1097.88" y="818" font-size="11" fill="#555555" text-anchor="middle">21:30</text>
<line x1="1152.36" y1="579.24" x2="1152.36" y2="624.12" stroke="#e74c3c" stroke-width="2"/>
<rect x="1137.11" y="579.95" width="30.51" height="27.35" fill="#e74c3c" stroke="#e74c3c" stroke-width="1"/>
<text x="1152.36" y="802" font-size="11" fill="#555555" text-anchor="middle">04-17</text>
<text x="1152.36" y="818" font-size="11" fill="#555555" text-anchor="middle">21:45</text>
<line x1="1206.84" y1="594.67" x2="1206.84" y2="614.30" stroke="#2ecc71" stroke-width="2"/>
<rect x="1191.59" y="603.09" width="30.51" height="3.51" fill="#2ecc71" stroke="#2ecc71" stroke-width="1"/>
<text x="1206.84" y="802" font-size="11" fill="#555555" text-anchor="middle">04-17</text>
<text x="1206.84" y="818" font-size="11" fill="#555555" text-anchor="middle">22:00</text>
<line x1="1261.32" y1="593.27" x2="1261.32" y2="618.51" stroke="#e74c3c" stroke-width="2"/>
<rect x="1246.07" y="604.49" width="30.51" height="4.21" fill="#e74c3c" stroke="#e74c3c" stroke-width="1"/>
<text x="1261.32" y="802" font-size="11" fill="#555555" text-anchor="middle">04-17</text>
<text x="1261.32" y="818" font-size="11" fill="#555555" text-anchor="middle">22:15</text>
<line x1="1315.80" y1="600.28" x2="1315.80" y2="661.28" stroke="#e74c3c" stroke-width="2"/>
<rect x="1300.55" y="608.69" width="30.51" height="29.45" fill="#e74c3c" stroke="#e74c3c" stroke-width="1"/>
<text x="1315.80" y="802" font-size="11" fill="#555555" text-anchor="middle">04-17</text>
<text x="1315.80" y="818" font-size="11" fill="#555555" text-anchor="middle">22:30</text>
<line x1="1370.28" y1="618.51" x2="1370.28" y2="649.36" stroke="#2ecc71" stroke-width="2"/>
<rect x="1355.03" y="628.33" width="30.51" height="10.52" fill="#2ecc71" stroke="#2ecc71" stroke-width="1"/>
<text x="1370.28" y="802" font-size="11" fill="#555555" text-anchor="middle">04-17</text>
<text x="1370.28" y="818" font-size="11" fill="#555555" text-anchor="middle">22:45</text>
<line x1="1424.76" y1="610.80" x2="1424.76" y2="636.74" stroke="#2ecc71" stroke-width="2"/>
<rect x="1409.51" y="624.12" width="30.51" height="4.21" fill="#2ecc71" stroke="#2ecc71" stroke-width="1"/>
<text x="1424.76" y="802" font-size="11" fill="#555555" text-anchor="middle">04-17</text>
<text x="1424.76" y="818" font-size="11" fill="#555555" text-anchor="middle">23:00</text>
<line x1="716.52" y1="80.00" x2="786.52" y2="104.00" stroke="#f39c12" stroke-width="2"/>
<rect x="786.52" y="52.00" width="280" height="90" rx="10" fill="#fff8dc" stroke="#f39c12"/>
<text x="798.52" y="76.00" font-size="13" fill="#111111">15m定位时间 2026-04-17 19:45:00</text>
<text x="798.52" y="96.00" font-size="13" fill="#111111">该15m最高价 0.325300</text>
<text x="798.52" y="116.00" font-size="13" fill="#111111">10倍价横线已标出</text>
<text x="798.52" y="136.00" font-size="13" fill="#111111">竖线高亮首次触达10倍价的15m</text>
</svg>