<svg xmlns="http://www.w3.org/2000/svg" width="1500" height="860" viewBox="0 0 1500 860">
<rect width="100%" height="100%" fill="#fcfcfc"/>
<text x="90" y="38" font-size="28" font-weight="700" fill="#111111">BEAT-USDT-SWAP 15m - 10倍命中定位图</text>
<text x="90" y="68" font-size="16" fill="#555555">1H命中时间: 2025-11-20 21:00:00 | 10倍价: 1.275532 | 命中倍数: 14.0509x</text>
<line x1="90" y1="80.00" x2="1452" y2="80.00" stroke="#d9d9d9" stroke-dasharray="4 4" stroke-width="1"/>
<text x="12" y="84.00" font-size="12" fill="#555555">1.554620</text>
<line x1="90" y1="210.00" x2="1452" y2="210.00" stroke="#d9d9d9" stroke-dasharray="4 4" stroke-width="1"/>
<text x="12" y="214.00" font-size="12" fill="#555555">1.346768</text>
<line x1="90" y1="340.00" x2="1452" y2="340.00" stroke="#d9d9d9" stroke-dasharray="4 4" stroke-width="1"/>
<text x="12" y="344.00" font-size="12" fill="#555555">1.138916</text>
<line x1="90" y1="470.00" x2="1452" y2="470.00" stroke="#d9d9d9" stroke-dasharray="4 4" stroke-width="1"/>
<text x="12" y="474.00" font-size="12" fill="#555555">0.931064</text>
<line x1="90" y1="600.00" x2="1452" y2="600.00" stroke="#d9d9d9" stroke-dasharray="4 4" stroke-width="1"/>
<text x="12" y="604.00" font-size="12" fill="#555555">0.723212</text>
<line x1="90" y1="730.00" x2="1452" y2="730.00" stroke="#d9d9d9" stroke-dasharray="4 4" stroke-width="1"/>
<text x="12" y="734.00" font-size="12" fill="#555555">0.515360</text>
<rect x="580.32" y="80" width="54.48" height="650.00" fill="#f1c40f" opacity="0.16"/>
<line x1="607.56" y1="80" x2="607.56" y2="730" stroke="#f39c12" stroke-width="2" stroke-dasharray="6 4"/>
<line x1="90" y1="254.55" x2="1452" y2="254.55" stroke="#8e44ad" stroke-width="2" stroke-dasharray="8 4"/>
<text x="1444" y="246.55" font-size="13" fill="#8e44ad" text-anchor="end">10倍价 1.275532</text>
<line x1="117.24" y1="715.62" x2="117.24" y2="724.29" stroke="#2ecc71" stroke-width="2"/>
<rect x="101.99" y="718.76" width="30.51" height="3.16" fill="#2ecc71" stroke="#2ecc71" stroke-width="1"/>
<text x="117.24" y="802" font-size="11" fill="#555555" text-anchor="middle">11-20</text>
<text x="117.24" y="818" font-size="11" fill="#555555" text-anchor="middle">19:00</text>
<line x1="171.72" y1="716.67" x2="171.72" y2="730.00" stroke="#e74c3c" stroke-width="2"/>
<rect x="156.47" y="718.77" width="30.51" height="3.58" fill="#e74c3c" stroke="#e74c3c" stroke-width="1"/>
<text x="171.72" y="802" font-size="11" fill="#555555" text-anchor="middle">11-20</text>
<text x="171.72" y="818" font-size="11" fill="#555555" text-anchor="middle">19:15</text>
<line x1="226.20" y1="719.91" x2="226.20" y2="726.07" stroke="#2ecc71" stroke-width="2"/>
<rect x="210.95" y="722.04" width="30.51" height="1.20" fill="#2ecc71" stroke="#2ecc71" stroke-width="1"/>
<text x="226.20" y="802" font-size="11" fill="#555555" text-anchor="middle">11-20</text>
<text x="226.20" y="818" font-size="11" fill="#555555" text-anchor="middle">19:30</text>
<line x1="280.68" y1="708.33" x2="280.68" y2="722.51" stroke="#2ecc71" stroke-width="2"/>
<rect x="265.43" y="710.14" width="30.51" height="11.86" fill="#2ecc71" stroke="#2ecc71" stroke-width="1"/>
<text x="280.68" y="802" font-size="11" fill="#555555" text-anchor="middle">11-20</text>
<text x="280.68" y="818" font-size="11" fill="#555555" text-anchor="middle">19:45</text>
<line x1="335.16" y1="685.14" x2="335.16" y2="710.16" stroke="#2ecc71" stroke-width="2"/>
<rect x="319.91" y="691.80" width="30.51" height="18.36" fill="#2ecc71" stroke="#2ecc71" stroke-width="1"/>
<text x="335.16" y="802" font-size="11" fill="#555555" text-anchor="middle">11-20</text>
<text x="335.16" y="818" font-size="11" fill="#555555" text-anchor="middle">20:00</text>
<line x1="389.64" y1="674.40" x2="389.64" y2="714.28" stroke="#e74c3c" stroke-width="2"/>
<rect x="374.39" y="691.92" width="30.51" height="9.66" fill="#e74c3c" stroke="#e74c3c" stroke-width="1"/>
<text x="389.64" y="802" font-size="11" fill="#555555" text-anchor="middle">11-20</text>
<text x="389.64" y="818" font-size="11" fill="#555555" text-anchor="middle">20:15</text>
<line x1="444.12" y1="687.02" x2="444.12" y2="701.53" stroke="#2ecc71" stroke-width="2"/>
<rect x="428.87" y="689.95" width="30.51" height="11.58" fill="#2ecc71" stroke="#2ecc71" stroke-width="1"/>
<text x="444.12" y="802" font-size="11" fill="#555555" text-anchor="middle">11-20</text>
<text x="444.12" y="818" font-size="11" fill="#555555" text-anchor="middle">20:30</text>
<line x1="498.60" y1="678.54" x2="498.60" y2="694.73" stroke="#2ecc71" stroke-width="2"/>
<rect x="483.35" y="682.75" width="30.51" height="7.07" fill="#2ecc71" stroke="#2ecc71" stroke-width="1"/>
<text x="498.60" y="802" font-size="11" fill="#555555" text-anchor="middle">11-20</text>
<text x="498.60" y="818" font-size="11" fill="#555555" text-anchor="middle">20:45</text>
<line x1="553.08" y1="635.11" x2="553.08" y2="685.46" stroke="#2ecc71" stroke-width="2"/>
<rect x="537.83" y="645.55" width="30.51" height="37.05" fill="#2ecc71" stroke="#2ecc71" stroke-width="1"/>
<text x="553.08" y="802" font-size="11" fill="#555555" text-anchor="middle">11-20</text>
<text x="553.08" y="818" font-size="11" fill="#555555" text-anchor="middle">21:00</text>
<line x1="607.56" y1="245.51" x2="607.56" y2="647.23" stroke="#2ecc71" stroke-width="2"/>
<rect x="592.31" y="306.66" width="30.51" height="338.70" fill="#2ecc71" stroke="#2ecc71" stroke-width="1"/>
<text x="607.56" y="802" font-size="11" fill="#555555" text-anchor="middle">11-20</text>
<text x="607.56" y="818" font-size="11" fill="#555555" text-anchor="middle">21:15</text>
<line x1="662.04" y1="80.00" x2="662.04" y2="419.12" stroke="#e74c3c" stroke-width="2"/>
<rect x="646.79" y="305.80" width="30.51" height="76.55" fill="#e74c3c" stroke="#e74c3c" stroke-width="1"/>
<text x="662.04" y="802" font-size="11" fill="#555555" text-anchor="middle">11-20</text>
<text x="662.04" y="818" font-size="11" fill="#555555" text-anchor="middle">21:30</text>
<line x1="716.52" y1="329.01" x2="716.52" y2="473.33" stroke="#e74c3c" stroke-width="2"/>
<rect x="701.27" y="382.35" width="30.51" height="85.01" fill="#e74c3c" stroke="#e74c3c" stroke-width="1"/>
<text x="716.52" y="802" font-size="11" fill="#555555" text-anchor="middle">11-20</text>
<text x="716.52" y="818" font-size="11" fill="#555555" text-anchor="middle">21:45</text>
<line x1="771.00" y1="442.35" x2="771.00" y2="571.99" stroke="#e74c3c" stroke-width="2"/>
<rect x="755.75" y="469.01" width="30.51" height="93.41" fill="#e74c3c" stroke="#e74c3c" stroke-width="1"/>
<text x="771.00" y="802" font-size="11" fill="#555555" text-anchor="middle">11-20</text>
<text x="771.00" y="818" font-size="11" fill="#555555" text-anchor="middle">22:00</text>
<line x1="825.48" y1="545.99" x2="825.48" y2="626.70" stroke="#e74c3c" stroke-width="2"/>
<rect x="810.23" y="563.19" width="30.51" height="1.48" fill="#e74c3c" stroke="#e74c3c" stroke-width="1"/>
<text x="825.48" y="802" font-size="11" fill="#555555" text-anchor="middle">11-20</text>
<text x="825.48" y="818" font-size="11" fill="#555555" text-anchor="middle">22:15</text>
<line x1="879.96" y1="530.46" x2="879.96" y2="597.74" stroke="#2ecc71" stroke-width="2"/>
<rect x="864.71" y="558.88" width="30.51" height="5.79" fill="#2ecc71" stroke="#2ecc71" stroke-width="1"/>
<text x="879.96" y="802" font-size="11" fill="#555555" text-anchor="middle">11-20</text>
<text x="879.96" y="818" font-size="11" fill="#555555" text-anchor="middle">22:30</text>
<line x1="934.44" y1="547.21" x2="934.44" y2="581.28" stroke="#e74c3c" stroke-width="2"/>
<rect x="919.19" y="559.54" width="30.51" height="6.38" fill="#e74c3c" stroke="#e74c3c" stroke-width="1"/>
<text x="934.44" y="802" font-size="11" fill="#555555" text-anchor="middle">11-20</text>
<text x="934.44" y="818" font-size="11" fill="#555555" text-anchor="middle">22:45</text>
<line x1="988.92" y1="561.56" x2="988.92" y2="603.80" stroke="#e74c3c" stroke-width="2"/>
<rect x="973.67" y="565.74" width="30.51" height="27.63" fill="#e74c3c" stroke="#e74c3c" stroke-width="1"/>
<text x="988.92" y="802" font-size="11" fill="#555555" text-anchor="middle">11-20</text>
<text x="988.92" y="818" font-size="11" fill="#555555" text-anchor="middle">23:00</text>
<line x1="1043.40" y1="574.60" x2="1043.40" y2="601.62" stroke="#e74c3c" stroke-width="2"/>
<rect x="1028.15" y="593.25" width="30.51" height="3.67" fill="#e74c3c" stroke="#e74c3c" stroke-width="1"/>
<text x="1043.40" y="802" font-size="11" fill="#555555" text-anchor="middle">11-20</text>
<text x="1043.40" y="818" font-size="11" fill="#555555" text-anchor="middle">23:15</text>
<line x1="1097.88" y1="584.78" x2="1097.88" y2="610.98" stroke="#2ecc71" stroke-width="2"/>
<rect x="1082.63" y="593.25" width="30.51" height="3.88" fill="#2ecc71" stroke="#2ecc71" stroke-width="1"/>
<text x="1097.88" y="802" font-size="11" fill="#555555" text-anchor="middle">11-20</text>
<text x="1097.88" y="818" font-size="11" fill="#555555" text-anchor="middle">23:30</text>
<line x1="1152.36" y1="592.11" x2="1152.36" y2="620.34" stroke="#e74c3c" stroke-width="2"/>
<rect x="1137.11" y="592.90" width="30.51" height="15.87" fill="#e74c3c" stroke="#e74c3c" stroke-width="1"/>
<text x="1152.36" y="802" font-size="11" fill="#555555" text-anchor="middle">11-20</text>
<text x="1152.36" y="818" font-size="11" fill="#555555" text-anchor="middle">23:45</text>
<line x1="1206.84" y1="557.35" x2="1206.84" y2="614.52" stroke="#2ecc71" stroke-width="2"/>
<rect x="1191.59" y="573.64" width="30.51" height="35.19" fill="#2ecc71" stroke="#2ecc71" stroke-width="1"/>
<text x="1206.84" y="802" font-size="11" fill="#555555" text-anchor="middle">11-21</text>
<text x="1206.84" y="818" font-size="11" fill="#555555" text-anchor="middle">00:00</text>
<line x1="1261.32" y1="570.17" x2="1261.32" y2="615.95" stroke="#e74c3c" stroke-width="2"/>
<rect x="1246.07" y="573.65" width="30.51" height="11.60" fill="#e74c3c" stroke="#e74c3c" stroke-width="1"/>
<text x="1261.32" y="802" font-size="11" fill="#555555" text-anchor="middle">11-21</text>
<text x="1261.32" y="818" font-size="11" fill="#555555" text-anchor="middle">00:15</text>
<line x1="1315.80" y1="567.77" x2="1315.80" y2="589.48" stroke="#2ecc71" stroke-width="2"/>
<rect x="1300.55" y="584.93" width="30.51" height="1.20" fill="#2ecc71" stroke="#2ecc71" stroke-width="1"/>
<text x="1315.80" y="802" font-size="11" fill="#555555" text-anchor="middle">11-21</text>
<text x="1315.80" y="818" font-size="11" fill="#555555" text-anchor="middle">00:30</text>
<line x1="1370.28" y1="574.80" x2="1370.28" y2="594.95" stroke="#2ecc71" stroke-width="2"/>
<rect x="1355.03" y="579.37" width="30.51" height="5.25" fill="#2ecc71" stroke="#2ecc71" stroke-width="1"/>
<text x="1370.28" y="802" font-size="11" fill="#555555" text-anchor="middle">11-21</text>
<text x="1370.28" y="818" font-size="11" fill="#555555" text-anchor="middle">00:45</text>
<line x1="1424.76" y1="559.95" x2="1424.76" y2="589.16" stroke="#e74c3c" stroke-width="2"/>
<rect x="1409.51" y="579.29" width="30.51" height="1.36" fill="#e74c3c" stroke="#e74c3c" stroke-width="1"/>
<text x="1424.76" y="802" font-size="11" fill="#555555" text-anchor="middle">11-21</text>
<text x="1424.76" y="818" font-size="11" fill="#555555" text-anchor="middle">01:00</text>
<line x1="607.56" y1="245.51" x2="677.56" y2="155.51" stroke="#f39c12" stroke-width="2"/>
<rect x="677.56" y="103.51" width="280" height="90" rx="10" fill="#fff8dc" stroke="#f39c12"/>
<text x="689.56" y="127.51" font-size="13" fill="#111111">15m定位时间 2025-11-20 21:15:00</text>
<text x="689.56" y="147.51" font-size="13" fill="#111111">该15m最高价 1.290000</text>
<text x="689.56" y="167.51" font-size="13" fill="#111111">10倍价横线已标出</text>
<text x="689.56" y="187.51" font-size="13" fill="#111111">竖线高亮首次触达10倍价的15m</text>
</svg>