<svg xmlns="http://www.w3.org/2000/svg" width="1500" height="860" viewBox="0 0 1500 860">
<rect width="100%" height="100%" fill="#fcfcfc"/>
<text x="90" y="38" font-size="28" font-weight="700" fill="#111111">BIGTIME-USDT-SWAP 15m - 10倍命中定位图</text>
<text x="90" y="68" font-size="16" fill="#555555">1H命中时间: 2025-08-29 08:00:00 | 10倍价: 0.066278 | 命中倍数: 14.9932x</text>
<line x1="90" y1="80.00" x2="1452" y2="80.00" stroke="#d9d9d9" stroke-dasharray="4 4" stroke-width="1"/>
<text x="12" y="84.00" font-size="12" fill="#555555">0.070980</text>
<line x1="90" y1="210.00" x2="1452" y2="210.00" stroke="#d9d9d9" stroke-dasharray="4 4" stroke-width="1"/>
<text x="12" y="214.00" font-size="12" fill="#555555">0.067928</text>
<line x1="90" y1="340.00" x2="1452" y2="340.00" stroke="#d9d9d9" stroke-dasharray="4 4" stroke-width="1"/>
<text x="12" y="344.00" font-size="12" fill="#555555">0.064876</text>
<line x1="90" y1="470.00" x2="1452" y2="470.00" stroke="#d9d9d9" stroke-dasharray="4 4" stroke-width="1"/>
<text x="12" y="474.00" font-size="12" fill="#555555">0.061824</text>
<line x1="90" y1="600.00" x2="1452" y2="600.00" stroke="#d9d9d9" stroke-dasharray="4 4" stroke-width="1"/>
<text x="12" y="604.00" font-size="12" fill="#555555">0.058772</text>
<line x1="90" y1="730.00" x2="1452" y2="730.00" stroke="#d9d9d9" stroke-dasharray="4 4" stroke-width="1"/>
<text x="12" y="734.00" font-size="12" fill="#555555">0.055720</text>
<rect x="580.32" y="80" width="54.48" height="650.00" fill="#f1c40f" opacity="0.16"/>
<line x1="607.56" y1="80" x2="607.56" y2="730" stroke="#f39c12" stroke-width="2" stroke-dasharray="6 4"/>
<line x1="90" y1="280.30" x2="1452" y2="280.30" stroke="#8e44ad" stroke-width="2" stroke-dasharray="8 4"/>
<text x="1444" y="272.30" font-size="13" fill="#8e44ad" text-anchor="end">10倍价 0.066278</text>
<line x1="117.24" y1="722.33" x2="117.24" y2="730.00" stroke="#2ecc71" stroke-width="2"/>
<rect x="101.99" y="724.89" width="30.51" height="2.56" fill="#2ecc71" stroke="#2ecc71" stroke-width="1"/>
<text x="117.24" y="802" font-size="11" fill="#555555" text-anchor="middle">08-29</text>
<text x="117.24" y="818" font-size="11" fill="#555555" text-anchor="middle">06:00</text>
<line x1="171.72" y1="709.55" x2="171.72" y2="725.31" stroke="#2ecc71" stroke-width="2"/>
<rect x="156.47" y="710.41" width="30.51" height="14.91" fill="#2ecc71" stroke="#2ecc71" stroke-width="1"/>
<text x="171.72" y="802" font-size="11" fill="#555555" text-anchor="middle">08-29</text>
<text x="171.72" y="818" font-size="11" fill="#555555" text-anchor="middle">06:15</text>
<line x1="226.20" y1="707.00" x2="226.20" y2="718.50" stroke="#e74c3c" stroke-width="2"/>
<rect x="210.95" y="709.98" width="30.51" height="8.52" fill="#e74c3c" stroke="#e74c3c" stroke-width="1"/>
<text x="226.20" y="802" font-size="11" fill="#555555" text-anchor="middle">08-29</text>
<text x="226.20" y="818" font-size="11" fill="#555555" text-anchor="middle">06:30</text>
<line x1="280.68" y1="711.26" x2="280.68" y2="719.35" stroke="#2ecc71" stroke-width="2"/>
<rect x="265.43" y="711.26" width="30.51" height="5.54" fill="#2ecc71" stroke="#2ecc71" stroke-width="1"/>
<text x="280.68" y="802" font-size="11" fill="#555555" text-anchor="middle">08-29</text>
<text x="280.68" y="818" font-size="11" fill="#555555" text-anchor="middle">06:45</text>
<line x1="335.16" y1="709.13" x2="335.16" y2="719.78" stroke="#e74c3c" stroke-width="2"/>
<rect x="319.91" y="711.68" width="30.51" height="1.70" fill="#e74c3c" stroke="#e74c3c" stroke-width="1"/>
<text x="335.16" y="802" font-size="11" fill="#555555" text-anchor="middle">08-29</text>
<text x="335.16" y="818" font-size="11" fill="#555555" text-anchor="middle">07:00</text>
<line x1="389.64" y1="707.00" x2="389.64" y2="712.54" stroke="#2ecc71" stroke-width="2"/>
<rect x="374.39" y="707.00" width="30.51" height="5.54" fill="#2ecc71" stroke="#2ecc71" stroke-width="1"/>
<text x="389.64" y="802" font-size="11" fill="#555555" text-anchor="middle">08-29</text>
<text x="389.64" y="818" font-size="11" fill="#555555" text-anchor="middle">07:15</text>
<line x1="444.12" y1="694.22" x2="444.12" y2="712.54" stroke="#2ecc71" stroke-width="2"/>
<rect x="428.87" y="694.22" width="30.51" height="12.78" fill="#2ecc71" stroke="#2ecc71" stroke-width="1"/>
<text x="444.12" y="802" font-size="11" fill="#555555" text-anchor="middle">08-29</text>
<text x="444.12" y="818" font-size="11" fill="#555555" text-anchor="middle">07:30</text>
<line x1="498.60" y1="680.16" x2="498.60" y2="694.65" stroke="#2ecc71" stroke-width="2"/>
<rect x="483.35" y="682.29" width="30.51" height="11.93" fill="#2ecc71" stroke="#2ecc71" stroke-width="1"/>
<text x="498.60" y="802" font-size="11" fill="#555555" text-anchor="middle">08-29</text>
<text x="498.60" y="818" font-size="11" fill="#555555" text-anchor="middle">07:45</text>
<line x1="553.08" y1="327.48" x2="553.08" y2="681.44" stroke="#2ecc71" stroke-width="2"/>
<rect x="537.83" y="337.70" width="30.51" height="343.74" fill="#2ecc71" stroke="#2ecc71" stroke-width="1"/>
<text x="553.08" y="802" font-size="11" fill="#555555" text-anchor="middle">08-29</text>
<text x="553.08" y="818" font-size="11" fill="#555555" text-anchor="middle">08:00</text>
<line x1="607.56" y1="126.85" x2="607.56" y2="392.22" stroke="#2ecc71" stroke-width="2"/>
<rect x="592.31" y="161.78" width="30.51" height="174.21" fill="#2ecc71" stroke="#2ecc71" stroke-width="1"/>
<text x="607.56" y="802" font-size="11" fill="#555555" text-anchor="middle">08-29</text>
<text x="607.56" y="818" font-size="11" fill="#555555" text-anchor="middle">08:15</text>
<line x1="662.04" y1="80.00" x2="662.04" y2="335.14" stroke="#e74c3c" stroke-width="2"/>
<rect x="646.79" y="161.36" width="30.51" height="145.25" fill="#e74c3c" stroke="#e74c3c" stroke-width="1"/>
<text x="662.04" y="802" font-size="11" fill="#555555" text-anchor="middle">08-29</text>
<text x="662.04" y="818" font-size="11" fill="#555555" text-anchor="middle">08:30</text>
<line x1="716.52" y1="277.21" x2="716.52" y2="354.74" stroke="#2ecc71" stroke-width="2"/>
<rect x="701.27" y="292.12" width="30.51" height="14.06" fill="#2ecc71" stroke="#2ecc71" stroke-width="1"/>
<text x="716.52" y="802" font-size="11" fill="#555555" text-anchor="middle">08-29</text>
<text x="716.52" y="818" font-size="11" fill="#555555" text-anchor="middle">08:45</text>
<line x1="771.00" y1="290.85" x2="771.00" y2="369.65" stroke="#e74c3c" stroke-width="2"/>
<rect x="755.75" y="293.40" width="30.51" height="64.74" fill="#e74c3c" stroke="#e74c3c" stroke-width="1"/>
<text x="771.00" y="802" font-size="11" fill="#555555" text-anchor="middle">08-29</text>
<text x="771.00" y="818" font-size="11" fill="#555555" text-anchor="middle">09:00</text>
<line x1="825.48" y1="298.51" x2="825.48" y2="393.07" stroke="#2ecc71" stroke-width="2"/>
<rect x="810.23" y="327.48" width="30.51" height="31.52" fill="#2ecc71" stroke="#2ecc71" stroke-width="1"/>
<text x="825.48" y="802" font-size="11" fill="#555555" text-anchor="middle">08-29</text>
<text x="825.48" y="818" font-size="11" fill="#555555" text-anchor="middle">09:15</text>
<line x1="879.96" y1="273.38" x2="879.96" y2="361.55" stroke="#2ecc71" stroke-width="2"/>
<rect x="864.71" y="323.22" width="30.51" height="2.13" fill="#2ecc71" stroke="#2ecc71" stroke-width="1"/>
<text x="879.96" y="802" font-size="11" fill="#555555" text-anchor="middle">08-29</text>
<text x="879.96" y="818" font-size="11" fill="#555555" text-anchor="middle">09:30</text>
<line x1="934.44" y1="214.17" x2="934.44" y2="338.98" stroke="#e74c3c" stroke-width="2"/>
<rect x="919.19" y="324.07" width="30.51" height="4.69" fill="#e74c3c" stroke="#e74c3c" stroke-width="1"/>
<text x="934.44" y="802" font-size="11" fill="#555555" text-anchor="middle">08-29</text>
<text x="934.44" y="818" font-size="11" fill="#555555" text-anchor="middle">09:45</text>
<line x1="988.92" y1="321.94" x2="988.92" y2="379.44" stroke="#e74c3c" stroke-width="2"/>
<rect x="973.67" y="328.33" width="30.51" height="28.54" fill="#e74c3c" stroke="#e74c3c" stroke-width="1"/>
<text x="988.92" y="802" font-size="11" fill="#555555" text-anchor="middle">08-29</text>
<text x="988.92" y="818" font-size="11" fill="#555555" text-anchor="middle">10:00</text>
<line x1="1043.40" y1="343.24" x2="1043.40" y2="379.44" stroke="#2ecc71" stroke-width="2"/>
<rect x="1028.15" y="353.03" width="30.51" height="3.83" fill="#2ecc71" stroke="#2ecc71" stroke-width="1"/>
<text x="1043.40" y="802" font-size="11" fill="#555555" text-anchor="middle">08-29</text>
<text x="1043.40" y="818" font-size="11" fill="#555555" text-anchor="middle">10:15</text>
<line x1="1097.88" y1="293.83" x2="1097.88" y2="355.16" stroke="#2ecc71" stroke-width="2"/>
<rect x="1082.63" y="336.85" width="30.51" height="17.46" fill="#2ecc71" stroke="#2ecc71" stroke-width="1"/>
<text x="1097.88" y="802" font-size="11" fill="#555555" text-anchor="middle">08-29</text>
<text x="1097.88" y="818" font-size="11" fill="#555555" text-anchor="middle">10:30</text>
<line x1="1152.36" y1="290.85" x2="1152.36" y2="355.59" stroke="#2ecc71" stroke-width="2"/>
<rect x="1137.11" y="315.98" width="30.51" height="22.15" fill="#2ecc71" stroke="#2ecc71" stroke-width="1"/>
<text x="1152.36" y="802" font-size="11" fill="#555555" text-anchor="middle">08-29</text>
<text x="1152.36" y="818" font-size="11" fill="#555555" text-anchor="middle">10:45</text>
<line x1="1206.84" y1="275.94" x2="1206.84" y2="375.61" stroke="#e74c3c" stroke-width="2"/>
<rect x="1191.59" y="315.55" width="30.51" height="32.37" fill="#e74c3c" stroke="#e74c3c" stroke-width="1"/>
<text x="1206.84" y="802" font-size="11" fill="#555555" text-anchor="middle">08-29</text>
<text x="1206.84" y="818" font-size="11" fill="#555555" text-anchor="middle">11:00</text>
<line x1="1261.32" y1="314.70" x2="1261.32" y2="366.24" stroke="#2ecc71" stroke-width="2"/>
<rect x="1246.07" y="338.13" width="30.51" height="10.65" fill="#2ecc71" stroke="#2ecc71" stroke-width="1"/>
<text x="1261.32" y="802" font-size="11" fill="#555555" text-anchor="middle">08-29</text>
<text x="1261.32" y="818" font-size="11" fill="#555555" text-anchor="middle">11:15</text>
<line x1="1315.80" y1="322.37" x2="1315.80" y2="357.72" stroke="#2ecc71" stroke-width="2"/>
<rect x="1300.55" y="338.13" width="30.51" height="1.20" fill="#2ecc71" stroke="#2ecc71" stroke-width="1"/>
<text x="1315.80" y="802" font-size="11" fill="#555555" text-anchor="middle">08-29</text>
<text x="1315.80" y="818" font-size="11" fill="#555555" text-anchor="middle">11:30</text>
<line x1="1370.28" y1="338.13" x2="1370.28" y2="486.78" stroke="#e74c3c" stroke-width="2"/>
<rect x="1355.03" y="338.55" width="30.51" height="121.40" fill="#e74c3c" stroke="#e74c3c" stroke-width="1"/>
<text x="1370.28" y="802" font-size="11" fill="#555555" text-anchor="middle">08-29</text>
<text x="1370.28" y="818" font-size="11" fill="#555555" text-anchor="middle">11:45</text>
<line x1="1424.76" y1="457.39" x2="1424.76" y2="533.21" stroke="#e74c3c" stroke-width="2"/>
<rect x="1409.51" y="460.37" width="30.51" height="53.24" fill="#e74c3c" stroke="#e74c3c" stroke-width="1"/>
<text x="1424.76" y="802" font-size="11" fill="#555555" text-anchor="middle">08-29</text>
<text x="1424.76" y="818" font-size="11" fill="#555555" text-anchor="middle">12:00</text>
<line x1="607.56" y1="126.85" x2="677.56" y2="104.00" stroke="#f39c12" stroke-width="2"/>
<rect x="677.56" y="52.00" width="280" height="90" rx="10" fill="#fff8dc" stroke="#f39c12"/>
<text x="689.56" y="76.00" font-size="13" fill="#111111">15m定位时间 2025-08-29 08:15:00</text>
<text x="689.56" y="96.00" font-size="13" fill="#111111">该15m最高价 0.069880</text>
<text x="689.56" y="116.00" font-size="13" fill="#111111">10倍价横线已标出</text>
<text x="689.56" y="136.00" font-size="13" fill="#111111">竖线高亮首次触达10倍价的15m</text>
</svg>