<svg xmlns="http://www.w3.org/2000/svg" width="1500" height="860" viewBox="0 0 1500 860">
<rect width="100%" height="100%" fill="#fcfcfc"/>
<text x="90" y="38" font-size="28" font-weight="700" fill="#111111">BIO-USDT-SWAP 15m - 10倍命中定位图</text>
<text x="90" y="68" font-size="16" fill="#555555">1H命中时间: 2025-04-17 15:00:00 | 10倍价: 0.054206 | 命中倍数: 12.8665x</text>
<line x1="90" y1="80.00" x2="1452" y2="80.00" stroke="#d9d9d9" stroke-dasharray="4 4" stroke-width="1"/>
<text x="12" y="84.00" font-size="12" fill="#555555">0.059820</text>
<line x1="90" y1="210.00" x2="1452" y2="210.00" stroke="#d9d9d9" stroke-dasharray="4 4" stroke-width="1"/>
<text x="12" y="214.00" font-size="12" fill="#555555">0.056652</text>
<line x1="90" y1="340.00" x2="1452" y2="340.00" stroke="#d9d9d9" stroke-dasharray="4 4" stroke-width="1"/>
<text x="12" y="344.00" font-size="12" fill="#555555">0.053484</text>
<line x1="90" y1="470.00" x2="1452" y2="470.00" stroke="#d9d9d9" stroke-dasharray="4 4" stroke-width="1"/>
<text x="12" y="474.00" font-size="12" fill="#555555">0.050316</text>
<line x1="90" y1="600.00" x2="1452" y2="600.00" stroke="#d9d9d9" stroke-dasharray="4 4" stroke-width="1"/>
<text x="12" y="604.00" font-size="12" fill="#555555">0.047148</text>
<line x1="90" y1="730.00" x2="1452" y2="730.00" stroke="#d9d9d9" stroke-dasharray="4 4" stroke-width="1"/>
<text x="12" y="734.00" font-size="12" fill="#555555">0.043980</text>
<rect x="634.80" y="80" width="54.48" height="650.00" fill="#f1c40f" opacity="0.16"/>
<line x1="662.04" y1="80" x2="662.04" y2="730" stroke="#f39c12" stroke-width="2" stroke-dasharray="6 4"/>
<line x1="90" y1="310.35" x2="1452" y2="310.35" stroke="#8e44ad" stroke-width="2" stroke-dasharray="8 4"/>
<text x="1444" y="302.35" font-size="13" fill="#8e44ad" text-anchor="end">10倍价 0.054206</text>
<line x1="117.24" y1="717.28" x2="117.24" y2="730.00" stroke="#2ecc71" stroke-width="2"/>
<rect x="101.99" y="723.43" width="30.51" height="4.92" fill="#2ecc71" stroke="#2ecc71" stroke-width="1"/>
<text x="117.24" y="802" font-size="11" fill="#555555" text-anchor="middle">04-17</text>
<text x="117.24" y="818" font-size="11" fill="#555555" text-anchor="middle">13:00</text>
<line x1="171.72" y1="709.89" x2="171.72" y2="723.84" stroke="#2ecc71" stroke-width="2"/>
<rect x="156.47" y="711.94" width="30.51" height="11.90" fill="#2ecc71" stroke="#2ecc71" stroke-width="1"/>
<text x="171.72" y="802" font-size="11" fill="#555555" text-anchor="middle">04-17</text>
<text x="171.72" y="818" font-size="11" fill="#555555" text-anchor="middle">13:15</text>
<line x1="226.20" y1="695.53" x2="226.20" y2="712.35" stroke="#2ecc71" stroke-width="2"/>
<rect x="210.95" y="704.97" width="30.51" height="6.57" fill="#2ecc71" stroke="#2ecc71" stroke-width="1"/>
<text x="226.20" y="802" font-size="11" fill="#555555" text-anchor="middle">04-17</text>
<text x="226.20" y="818" font-size="11" fill="#555555" text-anchor="middle">13:30</text>
<line x1="280.68" y1="704.56" x2="280.68" y2="719.74" stroke="#e74c3c" stroke-width="2"/>
<rect x="265.43" y="705.79" width="30.51" height="9.44" fill="#e74c3c" stroke="#e74c3c" stroke-width="1"/>
<text x="280.68" y="802" font-size="11" fill="#555555" text-anchor="middle">04-17</text>
<text x="280.68" y="818" font-size="11" fill="#555555" text-anchor="middle">13:45</text>
<line x1="335.16" y1="692.66" x2="335.16" y2="715.23" stroke="#2ecc71" stroke-width="2"/>
<rect x="319.91" y="695.12" width="30.51" height="19.70" fill="#2ecc71" stroke="#2ecc71" stroke-width="1"/>
<text x="335.16" y="802" font-size="11" fill="#555555" text-anchor="middle">04-17</text>
<text x="335.16" y="818" font-size="11" fill="#555555" text-anchor="middle">14:00</text>
<line x1="389.64" y1="677.06" x2="389.64" y2="699.63" stroke="#2ecc71" stroke-width="2"/>
<rect x="374.39" y="683.22" width="30.51" height="11.90" fill="#2ecc71" stroke="#2ecc71" stroke-width="1"/>
<text x="389.64" y="802" font-size="11" fill="#555555" text-anchor="middle">04-17</text>
<text x="389.64" y="818" font-size="11" fill="#555555" text-anchor="middle">14:15</text>
<line x1="444.12" y1="681.58" x2="444.12" y2="701.69" stroke="#e74c3c" stroke-width="2"/>
<rect x="428.87" y="683.22" width="30.51" height="7.39" fill="#e74c3c" stroke="#e74c3c" stroke-width="1"/>
<text x="444.12" y="802" font-size="11" fill="#555555" text-anchor="middle">04-17</text>
<text x="444.12" y="818" font-size="11" fill="#555555" text-anchor="middle">14:30</text>
<line x1="498.60" y1="688.14" x2="498.60" y2="699.22" stroke="#e74c3c" stroke-width="2"/>
<rect x="483.35" y="690.61" width="30.51" height="5.74" fill="#e74c3c" stroke="#e74c3c" stroke-width="1"/>
<text x="498.60" y="802" font-size="11" fill="#555555" text-anchor="middle">04-17</text>
<text x="498.60" y="818" font-size="11" fill="#555555" text-anchor="middle">14:45</text>
<line x1="553.08" y1="678.71" x2="553.08" y2="695.94" stroke="#2ecc71" stroke-width="2"/>
<rect x="537.83" y="682.81" width="30.51" height="13.13" fill="#2ecc71" stroke="#2ecc71" stroke-width="1"/>
<text x="553.08" y="802" font-size="11" fill="#555555" text-anchor="middle">04-17</text>
<text x="553.08" y="818" font-size="11" fill="#555555" text-anchor="middle">15:00</text>
<line x1="607.56" y1="651.21" x2="607.56" y2="688.96" stroke="#2ecc71" stroke-width="2"/>
<rect x="592.31" y="659.01" width="30.51" height="23.39" fill="#2ecc71" stroke="#2ecc71" stroke-width="1"/>
<text x="607.56" y="802" font-size="11" fill="#555555" text-anchor="middle">04-17</text>
<text x="607.56" y="818" font-size="11" fill="#555555" text-anchor="middle">15:15</text>
<line x1="662.04" y1="227.73" x2="662.04" y2="661.88" stroke="#2ecc71" stroke-width="2"/>
<rect x="646.79" y="255.22" width="30.51" height="404.61" fill="#2ecc71" stroke="#2ecc71" stroke-width="1"/>
<text x="662.04" y="802" font-size="11" fill="#555555" text-anchor="middle">04-17</text>
<text x="662.04" y="818" font-size="11" fill="#555555" text-anchor="middle">15:30</text>
<line x1="716.52" y1="199.82" x2="716.52" y2="386.12" stroke="#e74c3c" stroke-width="2"/>
<rect x="701.27" y="254.40" width="30.51" height="120.64" fill="#e74c3c" stroke="#e74c3c" stroke-width="1"/>
<text x="716.52" y="802" font-size="11" fill="#555555" text-anchor="middle">04-17</text>
<text x="716.52" y="818" font-size="11" fill="#555555" text-anchor="middle">15:45</text>
<line x1="771.00" y1="286.00" x2="771.00" y2="399.67" stroke="#2ecc71" stroke-width="2"/>
<rect x="755.75" y="324.16" width="30.51" height="50.88" fill="#2ecc71" stroke="#2ecc71" stroke-width="1"/>
<text x="771.00" y="802" font-size="11" fill="#555555" text-anchor="middle">04-17</text>
<text x="771.00" y="818" font-size="11" fill="#555555" text-anchor="middle">16:00</text>
<line x1="825.48" y1="317.18" x2="825.48" y2="382.02" stroke="#e74c3c" stroke-width="2"/>
<rect x="810.23" y="323.75" width="30.51" height="35.70" fill="#e74c3c" stroke="#e74c3c" stroke-width="1"/>
<text x="825.48" y="802" font-size="11" fill="#555555" text-anchor="middle">04-17</text>
<text x="825.48" y="818" font-size="11" fill="#555555" text-anchor="middle">16:15</text>
<line x1="879.96" y1="217.47" x2="879.96" y2="366.02" stroke="#2ecc71" stroke-width="2"/>
<rect x="864.71" y="267.53" width="30.51" height="91.92" fill="#2ecc71" stroke="#2ecc71" stroke-width="1"/>
<text x="879.96" y="802" font-size="11" fill="#555555" text-anchor="middle">04-17</text>
<text x="879.96" y="818" font-size="11" fill="#555555" text-anchor="middle">16:30</text>
<line x1="934.44" y1="80.00" x2="934.44" y2="292.56" stroke="#2ecc71" stroke-width="2"/>
<rect x="919.19" y="135.40" width="30.51" height="132.54" fill="#2ecc71" stroke="#2ecc71" stroke-width="1"/>
<text x="934.44" y="802" font-size="11" fill="#555555" text-anchor="middle">04-17</text>
<text x="934.44" y="818" font-size="11" fill="#555555" text-anchor="middle">16:45</text>
<line x1="988.92" y1="88.21" x2="988.92" y2="272.46" stroke="#e74c3c" stroke-width="2"/>
<rect x="973.67" y="137.86" width="30.51" height="110.80" fill="#e74c3c" stroke="#e74c3c" stroke-width="1"/>
<text x="988.92" y="802" font-size="11" fill="#555555" text-anchor="middle">04-17</text>
<text x="988.92" y="818" font-size="11" fill="#555555" text-anchor="middle">17:00</text>
<line x1="1043.40" y1="221.98" x2="1043.40" y2="338.93" stroke="#e74c3c" stroke-width="2"/>
<rect x="1028.15" y="249.07" width="30.51" height="71.40" fill="#e74c3c" stroke="#e74c3c" stroke-width="1"/>
<text x="1043.40" y="802" font-size="11" fill="#555555" text-anchor="middle">04-17</text>
<text x="1043.40" y="818" font-size="11" fill="#555555" text-anchor="middle">17:15</text>
<line x1="1097.88" y1="300.36" x2="1097.88" y2="350.42" stroke="#2ecc71" stroke-width="2"/>
<rect x="1082.63" y="310.21" width="30.51" height="9.44" fill="#2ecc71" stroke="#2ecc71" stroke-width="1"/>
<text x="1097.88" y="802" font-size="11" fill="#555555" text-anchor="middle">04-17</text>
<text x="1097.88" y="818" font-size="11" fill="#555555" text-anchor="middle">17:30</text>
<line x1="1152.36" y1="291.33" x2="1152.36" y2="337.29" stroke="#e74c3c" stroke-width="2"/>
<rect x="1137.11" y="310.21" width="30.51" height="1.23" fill="#e74c3c" stroke="#e74c3c" stroke-width="1"/>
<text x="1152.36" y="802" font-size="11" fill="#555555" text-anchor="middle">04-17</text>
<text x="1152.36" y="818" font-size="11" fill="#555555" text-anchor="middle">17:45</text>
<line x1="1206.84" y1="277.79" x2="1206.84" y2="390.64" stroke="#e74c3c" stroke-width="2"/>
<rect x="1191.59" y="311.85" width="30.51" height="56.63" fill="#e74c3c" stroke="#e74c3c" stroke-width="1"/>
<text x="1206.84" y="802" font-size="11" fill="#555555" text-anchor="middle">04-17</text>
<text x="1206.84" y="818" font-size="11" fill="#555555" text-anchor="middle">18:00</text>
<line x1="1261.32" y1="352.89" x2="1261.32" y2="405.82" stroke="#e74c3c" stroke-width="2"/>
<rect x="1246.07" y="367.66" width="30.51" height="2.87" fill="#e74c3c" stroke="#e74c3c" stroke-width="1"/>
<text x="1261.32" y="802" font-size="11" fill="#555555" text-anchor="middle">04-17</text>
<text x="1261.32" y="818" font-size="11" fill="#555555" text-anchor="middle">18:15</text>
<line x1="1315.80" y1="342.22" x2="1315.80" y2="384.89" stroke="#2ecc71" stroke-width="2"/>
<rect x="1300.55" y="354.94" width="30.51" height="15.59" fill="#2ecc71" stroke="#2ecc71" stroke-width="1"/>
<text x="1315.80" y="802" font-size="11" fill="#555555" text-anchor="middle">04-17</text>
<text x="1315.80" y="818" font-size="11" fill="#555555" text-anchor="middle">18:30</text>
<line x1="1370.28" y1="354.53" x2="1370.28" y2="394.33" stroke="#e74c3c" stroke-width="2"/>
<rect x="1355.03" y="354.53" width="30.51" height="12.72" fill="#e74c3c" stroke="#e74c3c" stroke-width="1"/>
<text x="1370.28" y="802" font-size="11" fill="#555555" text-anchor="middle">04-17</text>
<text x="1370.28" y="818" font-size="11" fill="#555555" text-anchor="middle">18:45</text>
<line x1="1424.76" y1="345.91" x2="1424.76" y2="459.99" stroke="#e74c3c" stroke-width="2"/>
<rect x="1409.51" y="366.84" width="30.51" height="61.96" fill="#e74c3c" stroke="#e74c3c" stroke-width="1"/>
<text x="1424.76" y="802" font-size="11" fill="#555555" text-anchor="middle">04-17</text>
<text x="1424.76" y="818" font-size="11" fill="#555555" text-anchor="middle">19:00</text>
<line x1="662.04" y1="227.73" x2="732.04" y2="137.73" stroke="#f39c12" stroke-width="2"/>
<rect x="732.04" y="85.73" width="280" height="90" rx="10" fill="#fff8dc" stroke="#f39c12"/>
<text x="744.04" y="109.73" font-size="13" fill="#111111">15m定位时间 2025-04-17 15:30:00</text>
<text x="744.04" y="129.73" font-size="13" fill="#111111">该15m最高价 0.056220</text>
<text x="744.04" y="149.73" font-size="13" fill="#111111">10倍价横线已标出</text>
<text x="744.04" y="169.73" font-size="13" fill="#111111">竖线高亮首次触达10倍价的15m</text>
</svg>