<svg xmlns="http://www.w3.org/2000/svg" width="1500" height="860" viewBox="0 0 1500 860">
<rect width="100%" height="100%" fill="#fcfcfc"/>
<text x="90" y="38" font-size="28" font-weight="700" fill="#111111">COMP-USDT-SWAP 15m - 10倍命中定位图</text>
<text x="90" y="68" font-size="16" fill="#555555">1H命中时间: 2024-11-23 07:00:00 | 10倍价: 65.411208 | 命中倍数: 10.3269x</text>
<line x1="90" y1="80.00" x2="1452" y2="80.00" stroke="#d9d9d9" stroke-dasharray="4 4" stroke-width="1"/>
<text x="12" y="84.00" font-size="12" fill="#555555">65.710000</text>
<line x1="90" y1="210.00" x2="1452" y2="210.00" stroke="#d9d9d9" stroke-dasharray="4 4" stroke-width="1"/>
<text x="12" y="214.00" font-size="12" fill="#555555">63.446000</text>
<line x1="90" y1="340.00" x2="1452" y2="340.00" stroke="#d9d9d9" stroke-dasharray="4 4" stroke-width="1"/>
<text x="12" y="344.00" font-size="12" fill="#555555">61.182000</text>
<line x1="90" y1="470.00" x2="1452" y2="470.00" stroke="#d9d9d9" stroke-dasharray="4 4" stroke-width="1"/>
<text x="12" y="474.00" font-size="12" fill="#555555">58.918000</text>
<line x1="90" y1="600.00" x2="1452" y2="600.00" stroke="#d9d9d9" stroke-dasharray="4 4" stroke-width="1"/>
<text x="12" y="604.00" font-size="12" fill="#555555">56.654000</text>
<line x1="90" y1="730.00" x2="1452" y2="730.00" stroke="#d9d9d9" stroke-dasharray="4 4" stroke-width="1"/>
<text x="12" y="734.00" font-size="12" fill="#555555">54.390000</text>
<rect x="689.28" y="80" width="54.48" height="650.00" fill="#f1c40f" opacity="0.16"/>
<line x1="716.52" y1="80" x2="716.52" y2="730" stroke="#f39c12" stroke-width="2" stroke-dasharray="6 4"/>
<line x1="90" y1="97.16" x2="1452" y2="97.16" stroke="#8e44ad" stroke-width="2" stroke-dasharray="8 4"/>
<text x="1444" y="89.16" font-size="13" fill="#8e44ad" text-anchor="end">10倍价 65.411208</text>
<line x1="117.24" y1="706.46" x2="117.24" y2="730.00" stroke="#e74c3c" stroke-width="2"/>
<rect x="101.99" y="713.35" width="30.51" height="10.34" fill="#e74c3c" stroke="#e74c3c" stroke-width="1"/>
<text x="117.24" y="802" font-size="11" fill="#555555" text-anchor="middle">11-23</text>
<text x="117.24" y="818" font-size="11" fill="#555555" text-anchor="middle">05:00</text>
<line x1="171.72" y1="706.46" x2="171.72" y2="724.26" stroke="#2ecc71" stroke-width="2"/>
<rect x="156.47" y="706.46" width="30.51" height="17.80" fill="#2ecc71" stroke="#2ecc71" stroke-width="1"/>
<text x="171.72" y="802" font-size="11" fill="#555555" text-anchor="middle">11-23</text>
<text x="171.72" y="818" font-size="11" fill="#555555" text-anchor="middle">05:15</text>
<line x1="226.20" y1="696.12" x2="226.20" y2="715.64" stroke="#2ecc71" stroke-width="2"/>
<rect x="210.95" y="698.42" width="30.51" height="9.76" fill="#2ecc71" stroke="#2ecc71" stroke-width="1"/>
<text x="226.20" y="802" font-size="11" fill="#555555" text-anchor="middle">11-23</text>
<text x="226.20" y="818" font-size="11" fill="#555555" text-anchor="middle">05:30</text>
<line x1="280.68" y1="662.24" x2="280.68" y2="699.57" stroke="#2ecc71" stroke-width="2"/>
<rect x="265.43" y="668.56" width="30.51" height="28.71" fill="#2ecc71" stroke="#2ecc71" stroke-width="1"/>
<text x="280.68" y="802" font-size="11" fill="#555555" text-anchor="middle">11-23</text>
<text x="280.68" y="818" font-size="11" fill="#555555" text-anchor="middle">05:45</text>
<line x1="335.16" y1="641.00" x2="335.16" y2="669.13" stroke="#2ecc71" stroke-width="2"/>
<rect x="319.91" y="653.63" width="30.51" height="15.50" fill="#2ecc71" stroke="#2ecc71" stroke-width="1"/>
<text x="335.16" y="802" font-size="11" fill="#555555" text-anchor="middle">11-23</text>
<text x="335.16" y="818" font-size="11" fill="#555555" text-anchor="middle">06:00</text>
<line x1="389.64" y1="636.40" x2="389.64" y2="667.41" stroke="#2ecc71" stroke-width="2"/>
<rect x="374.39" y="636.98" width="30.51" height="16.65" fill="#2ecc71" stroke="#2ecc71" stroke-width="1"/>
<text x="389.64" y="802" font-size="11" fill="#555555" text-anchor="middle">11-23</text>
<text x="389.64" y="818" font-size="11" fill="#555555" text-anchor="middle">06:15</text>
<line x1="444.12" y1="630.66" x2="444.12" y2="644.44" stroke="#e74c3c" stroke-width="2"/>
<rect x="428.87" y="636.98" width="30.51" height="3.45" fill="#e74c3c" stroke="#e74c3c" stroke-width="1"/>
<text x="444.12" y="802" font-size="11" fill="#555555" text-anchor="middle">11-23</text>
<text x="444.12" y="818" font-size="11" fill="#555555" text-anchor="middle">06:30</text>
<line x1="498.60" y1="617.46" x2="498.60" y2="649.61" stroke="#2ecc71" stroke-width="2"/>
<rect x="483.35" y="618.03" width="30.51" height="22.97" fill="#2ecc71" stroke="#2ecc71" stroke-width="1"/>
<text x="498.60" y="802" font-size="11" fill="#555555" text-anchor="middle">11-23</text>
<text x="498.60" y="818" font-size="11" fill="#555555" text-anchor="middle">06:45</text>
<line x1="553.08" y1="547.98" x2="553.08" y2="622.05" stroke="#2ecc71" stroke-width="2"/>
<rect x="537.83" y="549.13" width="30.51" height="70.05" fill="#2ecc71" stroke="#2ecc71" stroke-width="1"/>
<text x="553.08" y="802" font-size="11" fill="#555555" text-anchor="middle">11-23</text>
<text x="553.08" y="818" font-size="11" fill="#555555" text-anchor="middle">07:00</text>
<line x1="607.56" y1="497.45" x2="607.56" y2="567.50" stroke="#2ecc71" stroke-width="2"/>
<rect x="592.31" y="512.38" width="30.51" height="37.32" fill="#2ecc71" stroke="#2ecc71" stroke-width="1"/>
<text x="607.56" y="802" font-size="11" fill="#555555" text-anchor="middle">11-23</text>
<text x="607.56" y="818" font-size="11" fill="#555555" text-anchor="middle">07:15</text>
<line x1="662.04" y1="329.20" x2="662.04" y2="519.27" stroke="#2ecc71" stroke-width="2"/>
<rect x="646.79" y="338.39" width="30.51" height="173.98" fill="#2ecc71" stroke="#2ecc71" stroke-width="1"/>
<text x="662.04" y="802" font-size="11" fill="#555555" text-anchor="middle">11-23</text>
<text x="662.04" y="818" font-size="11" fill="#555555" text-anchor="middle">07:30</text>
<line x1="716.52" y1="80.00" x2="716.52" y2="365.38" stroke="#2ecc71" stroke-width="2"/>
<rect x="701.27" y="142.01" width="30.51" height="196.38" fill="#2ecc71" stroke="#2ecc71" stroke-width="1"/>
<text x="716.52" y="802" font-size="11" fill="#555555" text-anchor="middle">11-23</text>
<text x="716.52" y="818" font-size="11" fill="#555555" text-anchor="middle">07:45</text>
<line x1="771.00" y1="138.57" x2="771.00" y2="455.53" stroke="#e74c3c" stroke-width="2"/>
<rect x="755.75" y="141.44" width="30.51" height="251.50" fill="#e74c3c" stroke="#e74c3c" stroke-width="1"/>
<text x="771.00" y="802" font-size="11" fill="#555555" text-anchor="middle">11-23</text>
<text x="771.00" y="818" font-size="11" fill="#555555" text-anchor="middle">08:00</text>
<line x1="825.48" y1="258.00" x2="825.48" y2="414.76" stroke="#2ecc71" stroke-width="2"/>
<rect x="810.23" y="297.62" width="30.51" height="95.32" fill="#2ecc71" stroke="#2ecc71" stroke-width="1"/>
<text x="825.48" y="802" font-size="11" fill="#555555" text-anchor="middle">11-23</text>
<text x="825.48" y="818" font-size="11" fill="#555555" text-anchor="middle">08:15</text>
<line x1="879.96" y1="241.35" x2="879.96" y2="338.39" stroke="#e74c3c" stroke-width="2"/>
<rect x="864.71" y="298.77" width="30.51" height="27.56" fill="#e74c3c" stroke="#e74c3c" stroke-width="1"/>
<text x="879.96" y="802" font-size="11" fill="#555555" text-anchor="middle">11-23</text>
<text x="879.96" y="818" font-size="11" fill="#555555" text-anchor="middle">08:30</text>
<line x1="934.44" y1="206.90" x2="934.44" y2="329.20" stroke="#2ecc71" stroke-width="2"/>
<rect x="919.19" y="279.82" width="30.51" height="46.51" fill="#2ecc71" stroke="#2ecc71" stroke-width="1"/>
<text x="934.44" y="802" font-size="11" fill="#555555" text-anchor="middle">11-23</text>
<text x="934.44" y="818" font-size="11" fill="#555555" text-anchor="middle">08:45</text>
<line x1="988.92" y1="241.35" x2="988.92" y2="303.37" stroke="#e74c3c" stroke-width="2"/>
<rect x="973.67" y="279.25" width="30.51" height="12.06" fill="#e74c3c" stroke="#e74c3c" stroke-width="1"/>
<text x="988.92" y="802" font-size="11" fill="#555555" text-anchor="middle">11-23</text>
<text x="988.92" y="818" font-size="11" fill="#555555" text-anchor="middle">09:00</text>
<line x1="1043.40" y1="286.71" x2="1043.40" y2="385.48" stroke="#e74c3c" stroke-width="2"/>
<rect x="1028.15" y="291.31" width="30.51" height="58.57" fill="#e74c3c" stroke="#e74c3c" stroke-width="1"/>
<text x="1043.40" y="802" font-size="11" fill="#555555" text-anchor="middle">11-23</text>
<text x="1043.40" y="818" font-size="11" fill="#555555" text-anchor="middle">09:15</text>
<line x1="1097.88" y1="305.09" x2="1097.88" y2="363.08" stroke="#2ecc71" stroke-width="2"/>
<rect x="1082.63" y="339.54" width="30.51" height="9.19" fill="#2ecc71" stroke="#2ecc71" stroke-width="1"/>
<text x="1097.88" y="802" font-size="11" fill="#555555" text-anchor="middle">11-23</text>
<text x="1097.88" y="818" font-size="11" fill="#555555" text-anchor="middle">09:30</text>
<line x1="1152.36" y1="338.97" x2="1152.36" y2="372.84" stroke="#e74c3c" stroke-width="2"/>
<rect x="1137.11" y="340.11" width="30.51" height="13.21" fill="#e74c3c" stroke="#e74c3c" stroke-width="1"/>
<text x="1152.36" y="802" font-size="11" fill="#555555" text-anchor="middle">11-23</text>
<text x="1152.36" y="818" font-size="11" fill="#555555" text-anchor="middle">09:45</text>
<line x1="1206.84" y1="324.04" x2="1206.84" y2="371.70" stroke="#2ecc71" stroke-width="2"/>
<rect x="1191.59" y="326.91" width="30.51" height="26.99" fill="#2ecc71" stroke="#2ecc71" stroke-width="1"/>
<text x="1206.84" y="802" font-size="11" fill="#555555" text-anchor="middle">11-23</text>
<text x="1206.84" y="818" font-size="11" fill="#555555" text-anchor="middle">10:00</text>
<line x1="1261.32" y1="325.19" x2="1261.32" y2="399.26" stroke="#e74c3c" stroke-width="2"/>
<rect x="1246.07" y="328.06" width="30.51" height="67.76" fill="#e74c3c" stroke="#e74c3c" stroke-width="1"/>
<text x="1261.32" y="802" font-size="11" fill="#555555" text-anchor="middle">11-23</text>
<text x="1261.32" y="818" font-size="11" fill="#555555" text-anchor="middle">10:15</text>
<line x1="1315.80" y1="383.75" x2="1315.80" y2="445.77" stroke="#e74c3c" stroke-width="2"/>
<rect x="1300.55" y="395.24" width="30.51" height="23.54" fill="#e74c3c" stroke="#e74c3c" stroke-width="1"/>
<text x="1315.80" y="802" font-size="11" fill="#555555" text-anchor="middle">11-23</text>
<text x="1315.80" y="818" font-size="11" fill="#555555" text-anchor="middle">10:30</text>
<line x1="1370.28" y1="415.34" x2="1370.28" y2="473.33" stroke="#e74c3c" stroke-width="2"/>
<rect x="1355.03" y="419.36" width="30.51" height="32.16" fill="#e74c3c" stroke="#e74c3c" stroke-width="1"/>
<text x="1370.28" y="802" font-size="11" fill="#555555" text-anchor="middle">11-23</text>
<text x="1370.28" y="818" font-size="11" fill="#555555" text-anchor="middle">10:45</text>
<line x1="1424.76" y1="421.08" x2="1424.76" y2="460.70" stroke="#2ecc71" stroke-width="2"/>
<rect x="1409.51" y="421.08" width="30.51" height="31.58" fill="#2ecc71" stroke="#2ecc71" stroke-width="1"/>
<text x="1424.76" y="802" font-size="11" fill="#555555" text-anchor="middle">11-23</text>
<text x="1424.76" y="818" font-size="11" fill="#555555" text-anchor="middle">11:00</text>
<line x1="716.52" y1="80.00" x2="786.52" y2="104.00" stroke="#f39c12" stroke-width="2"/>
<rect x="786.52" y="52.00" width="280" height="90" rx="10" fill="#fff8dc" stroke="#f39c12"/>
<text x="798.52" y="76.00" font-size="13" fill="#111111">15m定位时间 2024-11-23 07:45:00</text>
<text x="798.52" y="96.00" font-size="13" fill="#111111">该15m最高价 65.710000</text>
<text x="798.52" y="116.00" font-size="13" fill="#111111">10倍价横线已标出</text>
<text x="798.52" y="136.00" font-size="13" fill="#111111">竖线高亮首次触达10倍价的15m</text>
</svg>