<svg xmlns="http://www.w3.org/2000/svg" width="1500" height="860" viewBox="0 0 1500 860">
<rect width="100%" height="100%" fill="#fcfcfc"/>
<text x="90" y="38" font-size="28" font-weight="700" fill="#111111">FLOKI-USDT-SWAP 15m - 10倍命中定位图</text>
<text x="90" y="68" font-size="16" fill="#555555">1H命中时间: 2024-02-09 14:00:00 | 10倍价: 0.000033 | 命中倍数: 10.1534x</text>
<line x1="90" y1="80.00" x2="1452" y2="80.00" stroke="#d9d9d9" stroke-dasharray="4 4" stroke-width="1"/>
<text x="12" y="84.00" font-size="12" fill="#555555">0.000034</text>
<line x1="90" y1="210.00" x2="1452" y2="210.00" stroke="#d9d9d9" stroke-dasharray="4 4" stroke-width="1"/>
<text x="12" y="214.00" font-size="12" fill="#555555">0.000033</text>
<line x1="90" y1="340.00" x2="1452" y2="340.00" stroke="#d9d9d9" stroke-dasharray="4 4" stroke-width="1"/>
<text x="12" y="344.00" font-size="12" fill="#555555">0.000032</text>
<line x1="90" y1="470.00" x2="1452" y2="470.00" stroke="#d9d9d9" stroke-dasharray="4 4" stroke-width="1"/>
<text x="12" y="474.00" font-size="12" fill="#555555">0.000031</text>
<line x1="90" y1="600.00" x2="1452" y2="600.00" stroke="#d9d9d9" stroke-dasharray="4 4" stroke-width="1"/>
<text x="12" y="604.00" font-size="12" fill="#555555">0.000030</text>
<line x1="90" y1="730.00" x2="1452" y2="730.00" stroke="#d9d9d9" stroke-dasharray="4 4" stroke-width="1"/>
<text x="12" y="734.00" font-size="12" fill="#555555">0.000029</text>
<rect x="689.28" y="80" width="54.48" height="650.00" fill="#f1c40f" opacity="0.16"/>
<line x1="716.52" y1="80" x2="716.52" y2="730" stroke="#f39c12" stroke-width="2" stroke-dasharray="6 4"/>
<line x1="90" y1="88.85" x2="1452" y2="88.85" stroke="#8e44ad" stroke-width="2" stroke-dasharray="8 4"/>
<text x="1444" y="80.85" font-size="13" fill="#8e44ad" text-anchor="end">10倍价 0.000033</text>
<line x1="117.24" y1="705.17" x2="117.24" y2="724.16" stroke="#2ecc71" stroke-width="2"/>
<rect x="101.99" y="712.47" width="30.51" height="11.69" fill="#2ecc71" stroke="#2ecc71" stroke-width="1"/>
<text x="117.24" y="802" font-size="11" fill="#555555" text-anchor="middle">02-09</text>
<text x="117.24" y="818" font-size="11" fill="#555555" text-anchor="middle">12:00</text>
<line x1="171.72" y1="711.01" x2="171.72" y2="730.00" stroke="#e74c3c" stroke-width="2"/>
<rect x="156.47" y="712.47" width="30.51" height="7.30" fill="#e74c3c" stroke="#e74c3c" stroke-width="1"/>
<text x="171.72" y="802" font-size="11" fill="#555555" text-anchor="middle">02-09</text>
<text x="171.72" y="818" font-size="11" fill="#555555" text-anchor="middle">12:15</text>
<line x1="226.20" y1="713.93" x2="226.20" y2="724.16" stroke="#2ecc71" stroke-width="2"/>
<rect x="210.95" y="713.93" width="30.51" height="5.84" fill="#2ecc71" stroke="#2ecc71" stroke-width="1"/>
<text x="226.20" y="802" font-size="11" fill="#555555" text-anchor="middle">02-09</text>
<text x="226.20" y="818" font-size="11" fill="#555555" text-anchor="middle">12:30</text>
<line x1="280.68" y1="715.39" x2="280.68" y2="722.70" stroke="#2ecc71" stroke-width="2"/>
<rect x="265.43" y="715.39" width="30.51" height="1.20" fill="#2ecc71" stroke="#2ecc71" stroke-width="1"/>
<text x="280.68" y="802" font-size="11" fill="#555555" text-anchor="middle">02-09</text>
<text x="280.68" y="818" font-size="11" fill="#555555" text-anchor="middle">12:45</text>
<line x1="335.16" y1="700.79" x2="335.16" y2="718.31" stroke="#2ecc71" stroke-width="2"/>
<rect x="319.91" y="702.25" width="30.51" height="14.61" fill="#2ecc71" stroke="#2ecc71" stroke-width="1"/>
<text x="335.16" y="802" font-size="11" fill="#555555" text-anchor="middle">02-09</text>
<text x="335.16" y="818" font-size="11" fill="#555555" text-anchor="middle">13:00</text>
<line x1="389.64" y1="696.40" x2="389.64" y2="709.55" stroke="#e74c3c" stroke-width="2"/>
<rect x="374.39" y="700.79" width="30.51" height="8.76" fill="#e74c3c" stroke="#e74c3c" stroke-width="1"/>
<text x="389.64" y="802" font-size="11" fill="#555555" text-anchor="middle">02-09</text>
<text x="389.64" y="818" font-size="11" fill="#555555" text-anchor="middle">13:15</text>
<line x1="444.12" y1="668.65" x2="444.12" y2="708.09" stroke="#2ecc71" stroke-width="2"/>
<rect x="428.87" y="670.11" width="30.51" height="37.98" fill="#2ecc71" stroke="#2ecc71" stroke-width="1"/>
<text x="444.12" y="802" font-size="11" fill="#555555" text-anchor="middle">02-09</text>
<text x="444.12" y="818" font-size="11" fill="#555555" text-anchor="middle">13:30</text>
<line x1="498.60" y1="661.35" x2="498.60" y2="675.96" stroke="#2ecc71" stroke-width="2"/>
<rect x="483.35" y="661.35" width="30.51" height="10.22" fill="#2ecc71" stroke="#2ecc71" stroke-width="1"/>
<text x="498.60" y="802" font-size="11" fill="#555555" text-anchor="middle">02-09</text>
<text x="498.60" y="818" font-size="11" fill="#555555" text-anchor="middle">13:45</text>
<line x1="553.08" y1="602.92" x2="553.08" y2="665.73" stroke="#2ecc71" stroke-width="2"/>
<rect x="537.83" y="602.92" width="30.51" height="59.89" fill="#2ecc71" stroke="#2ecc71" stroke-width="1"/>
<text x="553.08" y="802" font-size="11" fill="#555555" text-anchor="middle">02-09</text>
<text x="553.08" y="818" font-size="11" fill="#555555" text-anchor="middle">14:00</text>
<line x1="607.56" y1="481.69" x2="607.56" y2="605.84" stroke="#2ecc71" stroke-width="2"/>
<rect x="592.31" y="496.29" width="30.51" height="106.63" fill="#2ecc71" stroke="#2ecc71" stroke-width="1"/>
<text x="607.56" y="802" font-size="11" fill="#555555" text-anchor="middle">02-09</text>
<text x="607.56" y="818" font-size="11" fill="#555555" text-anchor="middle">14:15</text>
<line x1="662.04" y1="351.69" x2="662.04" y2="531.35" stroke="#2ecc71" stroke-width="2"/>
<rect x="646.79" y="356.07" width="30.51" height="138.76" fill="#2ecc71" stroke="#2ecc71" stroke-width="1"/>
<text x="662.04" y="802" font-size="11" fill="#555555" text-anchor="middle">02-09</text>
<text x="662.04" y="818" font-size="11" fill="#555555" text-anchor="middle">14:30</text>
<line x1="716.52" y1="80.00" x2="716.52" y2="410.11" stroke="#2ecc71" stroke-width="2"/>
<rect x="701.27" y="195.39" width="30.51" height="156.29" fill="#2ecc71" stroke="#2ecc71" stroke-width="1"/>
<text x="716.52" y="802" font-size="11" fill="#555555" text-anchor="middle">02-09</text>
<text x="716.52" y="818" font-size="11" fill="#555555" text-anchor="middle">14:45</text>
<line x1="771.00" y1="193.93" x2="771.00" y2="379.44" stroke="#e74c3c" stroke-width="2"/>
<rect x="755.75" y="199.78" width="30.51" height="116.85" fill="#e74c3c" stroke="#e74c3c" stroke-width="1"/>
<text x="771.00" y="802" font-size="11" fill="#555555" text-anchor="middle">02-09</text>
<text x="771.00" y="818" font-size="11" fill="#555555" text-anchor="middle">15:00</text>
<line x1="825.48" y1="287.42" x2="825.48" y2="382.36" stroke="#e74c3c" stroke-width="2"/>
<rect x="810.23" y="322.47" width="30.51" height="23.37" fill="#e74c3c" stroke="#e74c3c" stroke-width="1"/>
<text x="825.48" y="802" font-size="11" fill="#555555" text-anchor="middle">02-09</text>
<text x="825.48" y="818" font-size="11" fill="#555555" text-anchor="middle">15:15</text>
<line x1="879.96" y1="340.00" x2="879.96" y2="424.72" stroke="#e74c3c" stroke-width="2"/>
<rect x="864.71" y="344.38" width="30.51" height="46.74" fill="#e74c3c" stroke="#e74c3c" stroke-width="1"/>
<text x="879.96" y="802" font-size="11" fill="#555555" text-anchor="middle">02-09</text>
<text x="879.96" y="818" font-size="11" fill="#555555" text-anchor="middle">15:30</text>
<line x1="934.44" y1="354.61" x2="934.44" y2="429.10" stroke="#e74c3c" stroke-width="2"/>
<rect x="919.19" y="392.58" width="30.51" height="7.30" fill="#e74c3c" stroke="#e74c3c" stroke-width="1"/>
<text x="934.44" y="802" font-size="11" fill="#555555" text-anchor="middle">02-09</text>
<text x="934.44" y="818" font-size="11" fill="#555555" text-anchor="middle">15:45</text>
<line x1="988.92" y1="321.01" x2="988.92" y2="402.81" stroke="#2ecc71" stroke-width="2"/>
<rect x="973.67" y="351.69" width="30.51" height="46.74" fill="#2ecc71" stroke="#2ecc71" stroke-width="1"/>
<text x="988.92" y="802" font-size="11" fill="#555555" text-anchor="middle">02-09</text>
<text x="988.92" y="818" font-size="11" fill="#555555" text-anchor="middle">16:00</text>
<line x1="1043.40" y1="310.79" x2="1043.40" y2="385.28" stroke="#e74c3c" stroke-width="2"/>
<rect x="1028.15" y="351.69" width="30.51" height="24.83" fill="#e74c3c" stroke="#e74c3c" stroke-width="1"/>
<text x="1043.40" y="802" font-size="11" fill="#555555" text-anchor="middle">02-09</text>
<text x="1043.40" y="818" font-size="11" fill="#555555" text-anchor="middle">16:15</text>
<line x1="1097.88" y1="344.38" x2="1097.88" y2="392.58" stroke="#e74c3c" stroke-width="2"/>
<rect x="1082.63" y="376.52" width="30.51" height="5.84" fill="#e74c3c" stroke="#e74c3c" stroke-width="1"/>
<text x="1097.88" y="802" font-size="11" fill="#555555" text-anchor="middle">02-09</text>
<text x="1097.88" y="818" font-size="11" fill="#555555" text-anchor="middle">16:30</text>
<line x1="1152.36" y1="341.46" x2="1152.36" y2="401.35" stroke="#2ecc71" stroke-width="2"/>
<rect x="1137.11" y="348.76" width="30.51" height="35.06" fill="#2ecc71" stroke="#2ecc71" stroke-width="1"/>
<text x="1152.36" y="802" font-size="11" fill="#555555" text-anchor="middle">02-09</text>
<text x="1152.36" y="818" font-size="11" fill="#555555" text-anchor="middle">16:45</text>
<line x1="1206.84" y1="316.63" x2="1206.84" y2="391.12" stroke="#e74c3c" stroke-width="2"/>
<rect x="1191.59" y="348.76" width="30.51" height="42.36" fill="#e74c3c" stroke="#e74c3c" stroke-width="1"/>
<text x="1206.84" y="802" font-size="11" fill="#555555" text-anchor="middle">02-09</text>
<text x="1206.84" y="818" font-size="11" fill="#555555" text-anchor="middle">17:00</text>
<line x1="1261.32" y1="370.67" x2="1261.32" y2="417.42" stroke="#2ecc71" stroke-width="2"/>
<rect x="1246.07" y="383.82" width="30.51" height="8.76" fill="#2ecc71" stroke="#2ecc71" stroke-width="1"/>
<text x="1261.32" y="802" font-size="11" fill="#555555" text-anchor="middle">02-09</text>
<text x="1261.32" y="818" font-size="11" fill="#555555" text-anchor="middle">17:15</text>
<line x1="1315.80" y1="369.21" x2="1315.80" y2="417.42" stroke="#e74c3c" stroke-width="2"/>
<rect x="1300.55" y="382.36" width="30.51" height="23.37" fill="#e74c3c" stroke="#e74c3c" stroke-width="1"/>
<text x="1315.80" y="802" font-size="11" fill="#555555" text-anchor="middle">02-09</text>
<text x="1315.80" y="818" font-size="11" fill="#555555" text-anchor="middle">17:30</text>
<line x1="1370.28" y1="391.12" x2="1370.28" y2="445.17" stroke="#e74c3c" stroke-width="2"/>
<rect x="1355.03" y="408.65" width="30.51" height="5.84" fill="#e74c3c" stroke="#e74c3c" stroke-width="1"/>
<text x="1370.28" y="802" font-size="11" fill="#555555" text-anchor="middle">02-09</text>
<text x="1370.28" y="818" font-size="11" fill="#555555" text-anchor="middle">17:45</text>
<line x1="1424.76" y1="388.20" x2="1424.76" y2="462.70" stroke="#e74c3c" stroke-width="2"/>
<rect x="1409.51" y="414.49" width="30.51" height="39.44" fill="#e74c3c" stroke="#e74c3c" stroke-width="1"/>
<text x="1424.76" y="802" font-size="11" fill="#555555" text-anchor="middle">02-09</text>
<text x="1424.76" y="818" font-size="11" fill="#555555" text-anchor="middle">18:00</text>
<line x1="716.52" y1="80.00" x2="786.52" y2="104.00" stroke="#f39c12" stroke-width="2"/>
<rect x="786.52" y="52.00" width="280" height="90" rx="10" fill="#fff8dc" stroke="#f39c12"/>
<text x="798.52" y="76.00" font-size="13" fill="#111111">15m定位时间 2024-02-09 14:45:00</text>
<text x="798.52" y="96.00" font-size="13" fill="#111111">该15m最高价 0.000034</text>
<text x="798.52" y="116.00" font-size="13" fill="#111111">10倍价横线已标出</text>
<text x="798.52" y="136.00" font-size="13" fill="#111111">竖线高亮首次触达10倍价的15m</text>
</svg>