<svg xmlns="http://www.w3.org/2000/svg" width="1500" height="860" viewBox="0 0 1500 860">
<rect width="100%" height="100%" fill="#fcfcfc"/>
<text x="90" y="38" font-size="28" font-weight="700" fill="#111111">FLOW-USDT-SWAP 15m - 10倍命中定位图</text>
<text x="90" y="68" font-size="16" fill="#555555">1H命中时间: 2026-02-06 23:00:00 | 10倍价: 0.058136 | 命中倍数: 17.2153x</text>
<line x1="90" y1="80.00" x2="1452" y2="80.00" stroke="#d9d9d9" stroke-dasharray="4 4" stroke-width="1"/>
<text x="12" y="84.00" font-size="12" fill="#555555">0.067130</text>
<line x1="90" y1="210.00" x2="1452" y2="210.00" stroke="#d9d9d9" stroke-dasharray="4 4" stroke-width="1"/>
<text x="12" y="214.00" font-size="12" fill="#555555">0.062570</text>
<line x1="90" y1="340.00" x2="1452" y2="340.00" stroke="#d9d9d9" stroke-dasharray="4 4" stroke-width="1"/>
<text x="12" y="344.00" font-size="12" fill="#555555">0.058010</text>
<line x1="90" y1="470.00" x2="1452" y2="470.00" stroke="#d9d9d9" stroke-dasharray="4 4" stroke-width="1"/>
<text x="12" y="474.00" font-size="12" fill="#555555">0.053450</text>
<line x1="90" y1="600.00" x2="1452" y2="600.00" stroke="#d9d9d9" stroke-dasharray="4 4" stroke-width="1"/>
<text x="12" y="604.00" font-size="12" fill="#555555">0.048890</text>
<line x1="90" y1="730.00" x2="1452" y2="730.00" stroke="#d9d9d9" stroke-dasharray="4 4" stroke-width="1"/>
<text x="12" y="734.00" font-size="12" fill="#555555">0.044330</text>
<rect x="689.28" y="80" width="54.48" height="650.00" fill="#f1c40f" opacity="0.16"/>
<line x1="716.52" y1="80" x2="716.52" y2="730" stroke="#f39c12" stroke-width="2" stroke-dasharray="6 4"/>
<line x1="90" y1="336.42" x2="1452" y2="336.42" stroke="#8e44ad" stroke-width="2" stroke-dasharray="8 4"/>
<text x="1444" y="328.42" font-size="13" fill="#8e44ad" text-anchor="end">10倍价 0.058136</text>
<line x1="117.24" y1="722.30" x2="117.24" y2="730.00" stroke="#2ecc71" stroke-width="2"/>
<rect x="101.99" y="722.59" width="30.51" height="4.85" fill="#2ecc71" stroke="#2ecc71" stroke-width="1"/>
<text x="117.24" y="802" font-size="11" fill="#555555" text-anchor="middle">02-06</text>
<text x="117.24" y="818" font-size="11" fill="#555555" text-anchor="middle">21:00</text>
<line x1="171.72" y1="706.62" x2="171.72" y2="726.01" stroke="#2ecc71" stroke-width="2"/>
<rect x="156.47" y="712.32" width="30.51" height="10.26" fill="#2ecc71" stroke="#2ecc71" stroke-width="1"/>
<text x="171.72" y="802" font-size="11" fill="#555555" text-anchor="middle">02-06</text>
<text x="171.72" y="818" font-size="11" fill="#555555" text-anchor="middle">21:15</text>
<line x1="226.20" y1="703.20" x2="226.20" y2="714.04" stroke="#2ecc71" stroke-width="2"/>
<rect x="210.95" y="708.62" width="30.51" height="3.71" fill="#2ecc71" stroke="#2ecc71" stroke-width="1"/>
<text x="226.20" y="802" font-size="11" fill="#555555" text-anchor="middle">02-06</text>
<text x="226.20" y="818" font-size="11" fill="#555555" text-anchor="middle">21:30</text>
<line x1="280.68" y1="705.48" x2="280.68" y2="710.61" stroke="#e74c3c" stroke-width="2"/>
<rect x="265.43" y="709.19" width="30.51" height="1.43" fill="#e74c3c" stroke="#e74c3c" stroke-width="1"/>
<text x="280.68" y="802" font-size="11" fill="#555555" text-anchor="middle">02-06</text>
<text x="280.68" y="818" font-size="11" fill="#555555" text-anchor="middle">21:45</text>
<line x1="335.16" y1="697.21" x2="335.16" y2="711.47" stroke="#2ecc71" stroke-width="2"/>
<rect x="319.91" y="697.21" width="30.51" height="13.40" fill="#2ecc71" stroke="#2ecc71" stroke-width="1"/>
<text x="335.16" y="802" font-size="11" fill="#555555" text-anchor="middle">02-06</text>
<text x="335.16" y="818" font-size="11" fill="#555555" text-anchor="middle">22:00</text>
<line x1="389.64" y1="694.36" x2="389.64" y2="710.61" stroke="#e74c3c" stroke-width="2"/>
<rect x="374.39" y="696.64" width="30.51" height="6.27" fill="#e74c3c" stroke="#e74c3c" stroke-width="1"/>
<text x="389.64" y="802" font-size="11" fill="#555555" text-anchor="middle">02-06</text>
<text x="389.64" y="818" font-size="11" fill="#555555" text-anchor="middle">22:15</text>
<line x1="444.12" y1="685.81" x2="444.12" y2="706.05" stroke="#2ecc71" stroke-width="2"/>
<rect x="428.87" y="686.10" width="30.51" height="16.82" fill="#2ecc71" stroke="#2ecc71" stroke-width="1"/>
<text x="444.12" y="802" font-size="11" fill="#555555" text-anchor="middle">02-06</text>
<text x="444.12" y="818" font-size="11" fill="#555555" text-anchor="middle">22:30</text>
<line x1="498.60" y1="676.69" x2="498.60" y2="688.09" stroke="#2ecc71" stroke-width="2"/>
<rect x="483.35" y="682.96" width="30.51" height="2.85" fill="#2ecc71" stroke="#2ecc71" stroke-width="1"/>
<text x="498.60" y="802" font-size="11" fill="#555555" text-anchor="middle">02-06</text>
<text x="498.60" y="818" font-size="11" fill="#555555" text-anchor="middle">22:45</text>
<line x1="553.08" y1="680.39" x2="553.08" y2="691.51" stroke="#e74c3c" stroke-width="2"/>
<rect x="537.83" y="682.68" width="30.51" height="8.84" fill="#e74c3c" stroke="#e74c3c" stroke-width="1"/>
<text x="553.08" y="802" font-size="11" fill="#555555" text-anchor="middle">02-06</text>
<text x="553.08" y="818" font-size="11" fill="#555555" text-anchor="middle">23:00</text>
<line x1="607.56" y1="679.82" x2="607.56" y2="691.80" stroke="#2ecc71" stroke-width="2"/>
<rect x="592.31" y="683.53" width="30.51" height="8.27" fill="#2ecc71" stroke="#2ecc71" stroke-width="1"/>
<text x="607.56" y="802" font-size="11" fill="#555555" text-anchor="middle">02-06</text>
<text x="607.56" y="818" font-size="11" fill="#555555" text-anchor="middle">23:15</text>
<line x1="662.04" y1="674.98" x2="662.04" y2="684.39" stroke="#2ecc71" stroke-width="2"/>
<rect x="646.79" y="677.83" width="30.51" height="6.27" fill="#2ecc71" stroke="#2ecc71" stroke-width="1"/>
<text x="662.04" y="802" font-size="11" fill="#555555" text-anchor="middle">02-06</text>
<text x="662.04" y="818" font-size="11" fill="#555555" text-anchor="middle">23:30</text>
<line x1="716.52" y1="80.00" x2="716.52" y2="678.40" stroke="#2ecc71" stroke-width="2"/>
<rect x="701.27" y="566.93" width="30.51" height="110.61" fill="#2ecc71" stroke="#2ecc71" stroke-width="1"/>
<text x="716.52" y="802" font-size="11" fill="#555555" text-anchor="middle">02-06</text>
<text x="716.52" y="818" font-size="11" fill="#555555" text-anchor="middle">23:45</text>
<line x1="771.00" y1="431.23" x2="771.00" y2="710.33" stroke="#e74c3c" stroke-width="2"/>
<rect x="755.75" y="566.93" width="30.51" height="24.23" fill="#e74c3c" stroke="#e74c3c" stroke-width="1"/>
<text x="771.00" y="802" font-size="11" fill="#555555" text-anchor="middle">02-07</text>
<text x="771.00" y="818" font-size="11" fill="#555555" text-anchor="middle">00:00</text>
<line x1="825.48" y1="537.85" x2="825.48" y2="598.29" stroke="#2ecc71" stroke-width="2"/>
<rect x="810.23" y="548.68" width="30.51" height="41.34" fill="#2ecc71" stroke="#2ecc71" stroke-width="1"/>
<text x="825.48" y="802" font-size="11" fill="#555555" text-anchor="middle">02-07</text>
<text x="825.48" y="818" font-size="11" fill="#555555" text-anchor="middle">00:15</text>
<line x1="879.96" y1="506.78" x2="879.96" y2="560.37" stroke="#2ecc71" stroke-width="2"/>
<rect x="864.71" y="541.56" width="30.51" height="7.70" fill="#2ecc71" stroke="#2ecc71" stroke-width="1"/>
<text x="879.96" y="802" font-size="11" fill="#555555" text-anchor="middle">02-07</text>
<text x="879.96" y="818" font-size="11" fill="#555555" text-anchor="middle">00:30</text>
<line x1="934.44" y1="537.00" x2="934.44" y2="580.90" stroke="#e74c3c" stroke-width="2"/>
<rect x="919.19" y="541.84" width="30.51" height="7.41" fill="#e74c3c" stroke="#e74c3c" stroke-width="1"/>
<text x="934.44" y="802" font-size="11" fill="#555555" text-anchor="middle">02-07</text>
<text x="934.44" y="818" font-size="11" fill="#555555" text-anchor="middle">00:45</text>
<line x1="988.92" y1="515.33" x2="988.92" y2="561.51" stroke="#2ecc71" stroke-width="2"/>
<rect x="973.67" y="531.29" width="30.51" height="17.96" fill="#2ecc71" stroke="#2ecc71" stroke-width="1"/>
<text x="988.92" y="802" font-size="11" fill="#555555" text-anchor="middle">02-07</text>
<text x="988.92" y="818" font-size="11" fill="#555555" text-anchor="middle">01:00</text>
<line x1="1043.40" y1="501.64" x2="1043.40" y2="536.71" stroke="#2ecc71" stroke-width="2"/>
<rect x="1028.15" y="508.49" width="30.51" height="23.66" fill="#2ecc71" stroke="#2ecc71" stroke-width="1"/>
<text x="1043.40" y="802" font-size="11" fill="#555555" text-anchor="middle">02-07</text>
<text x="1043.40" y="818" font-size="11" fill="#555555" text-anchor="middle">01:15</text>
<line x1="1097.88" y1="412.41" x2="1097.88" y2="513.62" stroke="#2ecc71" stroke-width="2"/>
<rect x="1082.63" y="427.81" width="30.51" height="81.25" fill="#2ecc71" stroke="#2ecc71" stroke-width="1"/>
<text x="1097.88" y="802" font-size="11" fill="#555555" text-anchor="middle">02-07</text>
<text x="1097.88" y="818" font-size="11" fill="#555555" text-anchor="middle">01:30</text>
<line x1="1152.36" y1="419.82" x2="1152.36" y2="482.54" stroke="#e74c3c" stroke-width="2"/>
<rect x="1137.11" y="427.52" width="30.51" height="30.50" fill="#e74c3c" stroke="#e74c3c" stroke-width="1"/>
<text x="1152.36" y="802" font-size="11" fill="#555555" text-anchor="middle">02-07</text>
<text x="1152.36" y="818" font-size="11" fill="#555555" text-anchor="middle">01:45</text>
<line x1="1206.84" y1="449.47" x2="1206.84" y2="503.93" stroke="#e74c3c" stroke-width="2"/>
<rect x="1191.59" y="458.03" width="30.51" height="38.77" fill="#e74c3c" stroke="#e74c3c" stroke-width="1"/>
<text x="1206.84" y="802" font-size="11" fill="#555555" text-anchor="middle">02-07</text>
<text x="1206.84" y="818" font-size="11" fill="#555555" text-anchor="middle">02:00</text>
<line x1="1261.32" y1="487.11" x2="1261.32" y2="511.34" stroke="#e74c3c" stroke-width="2"/>
<rect x="1246.07" y="497.65" width="30.51" height="9.12" fill="#e74c3c" stroke="#e74c3c" stroke-width="1"/>
<text x="1261.32" y="802" font-size="11" fill="#555555" text-anchor="middle">02-07</text>
<text x="1261.32" y="818" font-size="11" fill="#555555" text-anchor="middle">02:15</text>
<line x1="1315.80" y1="496.51" x2="1315.80" y2="528.16" stroke="#2ecc71" stroke-width="2"/>
<rect x="1300.55" y="498.79" width="30.51" height="7.70" fill="#2ecc71" stroke="#2ecc71" stroke-width="1"/>
<text x="1315.80" y="802" font-size="11" fill="#555555" text-anchor="middle">02-07</text>
<text x="1315.80" y="818" font-size="11" fill="#555555" text-anchor="middle">02:30</text>
<line x1="1370.28" y1="469.14" x2="1370.28" y2="498.79" stroke="#2ecc71" stroke-width="2"/>
<rect x="1355.03" y="479.69" width="30.51" height="18.53" fill="#2ecc71" stroke="#2ecc71" stroke-width="1"/>
<text x="1370.28" y="802" font-size="11" fill="#555555" text-anchor="middle">02-07</text>
<text x="1370.28" y="818" font-size="11" fill="#555555" text-anchor="middle">02:45</text>
<line x1="1424.76" y1="450.33" x2="1424.76" y2="485.96" stroke="#2ecc71" stroke-width="2"/>
<rect x="1409.51" y="470.86" width="30.51" height="9.12" fill="#2ecc71" stroke="#2ecc71" stroke-width="1"/>
<text x="1424.76" y="802" font-size="11" fill="#555555" text-anchor="middle">02-07</text>
<text x="1424.76" y="818" font-size="11" fill="#555555" text-anchor="middle">03:00</text>
<line x1="716.52" y1="80.00" x2="786.52" y2="104.00" stroke="#f39c12" stroke-width="2"/>
<rect x="786.52" y="52.00" width="280" height="90" rx="10" fill="#fff8dc" stroke="#f39c12"/>
<text x="798.52" y="76.00" font-size="13" fill="#111111">15m定位时间 2026-02-06 23:45:00</text>
<text x="798.52" y="96.00" font-size="13" fill="#111111">该15m最高价 0.067130</text>
<text x="798.52" y="116.00" font-size="13" fill="#111111">10倍价横线已标出</text>
<text x="798.52" y="136.00" font-size="13" fill="#111111">竖线高亮首次触达10倍价的15m</text>
</svg>