<svg xmlns="http://www.w3.org/2000/svg" width="1500" height="860" viewBox="0 0 1500 860">
<rect width="100%" height="100%" fill="#fcfcfc"/>
<text x="90" y="38" font-size="28" font-weight="700" fill="#111111">GLM-USDT-SWAP 15m - 10倍命中定位图</text>
<text x="90" y="68" font-size="16" fill="#555555">1H命中时间: 2025-04-12 18:00:00 | 10倍价: 0.282044 | 命中倍数: 10.1800x</text>
<line x1="90" y1="80.00" x2="1452" y2="80.00" stroke="#d9d9d9" stroke-dasharray="4 4" stroke-width="1"/>
<text x="12" y="84.00" font-size="12" fill="#555555">0.282700</text>
<line x1="90" y1="210.00" x2="1452" y2="210.00" stroke="#d9d9d9" stroke-dasharray="4 4" stroke-width="1"/>
<text x="12" y="214.00" font-size="12" fill="#555555">0.274540</text>
<line x1="90" y1="340.00" x2="1452" y2="340.00" stroke="#d9d9d9" stroke-dasharray="4 4" stroke-width="1"/>
<text x="12" y="344.00" font-size="12" fill="#555555">0.266380</text>
<line x1="90" y1="470.00" x2="1452" y2="470.00" stroke="#d9d9d9" stroke-dasharray="4 4" stroke-width="1"/>
<text x="12" y="474.00" font-size="12" fill="#555555">0.258220</text>
<line x1="90" y1="600.00" x2="1452" y2="600.00" stroke="#d9d9d9" stroke-dasharray="4 4" stroke-width="1"/>
<text x="12" y="604.00" font-size="12" fill="#555555">0.250060</text>
<line x1="90" y1="730.00" x2="1452" y2="730.00" stroke="#d9d9d9" stroke-dasharray="4 4" stroke-width="1"/>
<text x="12" y="734.00" font-size="12" fill="#555555">0.241900</text>
<rect x="689.28" y="80" width="54.48" height="650.00" fill="#f1c40f" opacity="0.16"/>
<line x1="716.52" y1="80" x2="716.52" y2="730" stroke="#f39c12" stroke-width="2" stroke-dasharray="6 4"/>
<line x1="90" y1="90.45" x2="1452" y2="90.45" stroke="#8e44ad" stroke-width="2" stroke-dasharray="8 4"/>
<text x="1444" y="82.45" font-size="13" fill="#8e44ad" text-anchor="end">10倍价 0.282044</text>
<line x1="117.24" y1="672.65" x2="117.24" y2="730.00" stroke="#2ecc71" stroke-width="2"/>
<rect x="101.99" y="679.02" width="30.51" height="49.39" fill="#2ecc71" stroke="#2ecc71" stroke-width="1"/>
<text x="117.24" y="802" font-size="11" fill="#555555" text-anchor="middle">04-12</text>
<text x="117.24" y="818" font-size="11" fill="#555555" text-anchor="middle">16:00</text>
<line x1="171.72" y1="679.02" x2="171.72" y2="702.92" stroke="#e74c3c" stroke-width="2"/>
<rect x="156.47" y="683.80" width="30.51" height="7.97" fill="#e74c3c" stroke="#e74c3c" stroke-width="1"/>
<text x="171.72" y="802" font-size="11" fill="#555555" text-anchor="middle">04-12</text>
<text x="171.72" y="818" font-size="11" fill="#555555" text-anchor="middle">16:15</text>
<line x1="226.20" y1="686.99" x2="226.20" y2="699.73" stroke="#e74c3c" stroke-width="2"/>
<rect x="210.95" y="691.76" width="30.51" height="1.59" fill="#e74c3c" stroke="#e74c3c" stroke-width="1"/>
<text x="226.20" y="802" font-size="11" fill="#555555" text-anchor="middle">04-12</text>
<text x="226.20" y="818" font-size="11" fill="#555555" text-anchor="middle">16:30</text>
<line x1="280.68" y1="691.76" x2="280.68" y2="707.70" stroke="#e74c3c" stroke-width="2"/>
<rect x="265.43" y="693.36" width="30.51" height="14.34" fill="#e74c3c" stroke="#e74c3c" stroke-width="1"/>
<text x="280.68" y="802" font-size="11" fill="#555555" text-anchor="middle">04-12</text>
<text x="280.68" y="818" font-size="11" fill="#555555" text-anchor="middle">16:45</text>
<line x1="335.16" y1="685.39" x2="335.16" y2="707.70" stroke="#2ecc71" stroke-width="2"/>
<rect x="319.91" y="699.73" width="30.51" height="7.97" fill="#2ecc71" stroke="#2ecc71" stroke-width="1"/>
<text x="335.16" y="802" font-size="11" fill="#555555" text-anchor="middle">04-12</text>
<text x="335.16" y="818" font-size="11" fill="#555555" text-anchor="middle">17:00</text>
<line x1="389.64" y1="677.43" x2="389.64" y2="699.73" stroke="#2ecc71" stroke-width="2"/>
<rect x="374.39" y="677.43" width="30.51" height="22.30" fill="#2ecc71" stroke="#2ecc71" stroke-width="1"/>
<text x="389.64" y="802" font-size="11" fill="#555555" text-anchor="middle">04-12</text>
<text x="389.64" y="818" font-size="11" fill="#555555" text-anchor="middle">17:15</text>
<line x1="444.12" y1="666.27" x2="444.12" y2="682.21" stroke="#2ecc71" stroke-width="2"/>
<rect x="428.87" y="671.05" width="30.51" height="6.37" fill="#2ecc71" stroke="#2ecc71" stroke-width="1"/>
<text x="444.12" y="802" font-size="11" fill="#555555" text-anchor="middle">04-12</text>
<text x="444.12" y="818" font-size="11" fill="#555555" text-anchor="middle">17:30</text>
<line x1="498.60" y1="650.34" x2="498.60" y2="672.65" stroke="#2ecc71" stroke-width="2"/>
<rect x="483.35" y="656.72" width="30.51" height="15.93" fill="#2ecc71" stroke="#2ecc71" stroke-width="1"/>
<text x="498.60" y="802" font-size="11" fill="#555555" text-anchor="middle">04-12</text>
<text x="498.60" y="818" font-size="11" fill="#555555" text-anchor="middle">17:45</text>
<line x1="553.08" y1="605.74" x2="553.08" y2="671.05" stroke="#2ecc71" stroke-width="2"/>
<rect x="537.83" y="623.26" width="30.51" height="36.64" fill="#2ecc71" stroke="#2ecc71" stroke-width="1"/>
<text x="553.08" y="802" font-size="11" fill="#555555" text-anchor="middle">04-12</text>
<text x="553.08" y="818" font-size="11" fill="#555555" text-anchor="middle">18:00</text>
<line x1="607.56" y1="446.42" x2="607.56" y2="628.04" stroke="#2ecc71" stroke-width="2"/>
<rect x="592.31" y="557.94" width="30.51" height="66.91" fill="#2ecc71" stroke="#2ecc71" stroke-width="1"/>
<text x="607.56" y="802" font-size="11" fill="#555555" text-anchor="middle">04-12</text>
<text x="607.56" y="818" font-size="11" fill="#555555" text-anchor="middle">18:15</text>
<line x1="662.04" y1="331.72" x2="662.04" y2="589.80" stroke="#2ecc71" stroke-width="2"/>
<rect x="646.79" y="339.68" width="30.51" height="219.85" fill="#2ecc71" stroke="#2ecc71" stroke-width="1"/>
<text x="662.04" y="802" font-size="11" fill="#555555" text-anchor="middle">04-12</text>
<text x="662.04" y="818" font-size="11" fill="#555555" text-anchor="middle">18:30</text>
<line x1="716.52" y1="80.00" x2="716.52" y2="448.01" stroke="#2ecc71" stroke-width="2"/>
<rect x="701.27" y="311.00" width="30.51" height="28.68" fill="#2ecc71" stroke="#2ecc71" stroke-width="1"/>
<text x="716.52" y="802" font-size="11" fill="#555555" text-anchor="middle">04-12</text>
<text x="716.52" y="818" font-size="11" fill="#555555" text-anchor="middle">18:45</text>
<line x1="771.00" y1="304.63" x2="771.00" y2="505.37" stroke="#e74c3c" stroke-width="2"/>
<rect x="755.75" y="312.60" width="30.51" height="172.06" fill="#e74c3c" stroke="#e74c3c" stroke-width="1"/>
<text x="771.00" y="802" font-size="11" fill="#555555" text-anchor="middle">04-12</text>
<text x="771.00" y="818" font-size="11" fill="#555555" text-anchor="middle">19:00</text>
<line x1="825.48" y1="455.98" x2="825.48" y2="548.38" stroke="#e74c3c" stroke-width="2"/>
<rect x="810.23" y="483.06" width="30.51" height="39.83" fill="#e74c3c" stroke="#e74c3c" stroke-width="1"/>
<text x="825.48" y="802" font-size="11" fill="#555555" text-anchor="middle">04-12</text>
<text x="825.48" y="818" font-size="11" fill="#555555" text-anchor="middle">19:15</text>
<line x1="879.96" y1="481.47" x2="879.96" y2="529.26" stroke="#2ecc71" stroke-width="2"/>
<rect x="864.71" y="499.00" width="30.51" height="25.49" fill="#2ecc71" stroke="#2ecc71" stroke-width="1"/>
<text x="879.96" y="802" font-size="11" fill="#555555" text-anchor="middle">04-12</text>
<text x="879.96" y="818" font-size="11" fill="#555555" text-anchor="middle">19:30</text>
<line x1="934.44" y1="487.84" x2="934.44" y2="542.01" stroke="#e74c3c" stroke-width="2"/>
<rect x="919.19" y="495.81" width="30.51" height="30.27" fill="#e74c3c" stroke="#e74c3c" stroke-width="1"/>
<text x="934.44" y="802" font-size="11" fill="#555555" text-anchor="middle">04-12</text>
<text x="934.44" y="818" font-size="11" fill="#555555" text-anchor="middle">19:45</text>
<line x1="988.92" y1="511.74" x2="988.92" y2="570.69" stroke="#e74c3c" stroke-width="2"/>
<rect x="973.67" y="524.49" width="30.51" height="31.86" fill="#e74c3c" stroke="#e74c3c" stroke-width="1"/>
<text x="988.92" y="802" font-size="11" fill="#555555" text-anchor="middle">04-12</text>
<text x="988.92" y="818" font-size="11" fill="#555555" text-anchor="middle">20:00</text>
<line x1="1043.40" y1="542.01" x2="1043.40" y2="567.50" stroke="#2ecc71" stroke-width="2"/>
<rect x="1028.15" y="551.57" width="30.51" height="1.59" fill="#2ecc71" stroke="#2ecc71" stroke-width="1"/>
<text x="1043.40" y="802" font-size="11" fill="#555555" text-anchor="middle">04-12</text>
<text x="1043.40" y="818" font-size="11" fill="#555555" text-anchor="middle">20:15</text>
<line x1="1097.88" y1="526.08" x2="1097.88" y2="562.72" stroke="#2ecc71" stroke-width="2"/>
<rect x="1082.63" y="543.60" width="30.51" height="4.78" fill="#2ecc71" stroke="#2ecc71" stroke-width="1"/>
<text x="1097.88" y="802" font-size="11" fill="#555555" text-anchor="middle">04-12</text>
<text x="1097.88" y="818" font-size="11" fill="#555555" text-anchor="middle">20:30</text>
<line x1="1152.36" y1="537.23" x2="1152.36" y2="561.13" stroke="#e74c3c" stroke-width="2"/>
<rect x="1137.11" y="543.60" width="30.51" height="7.97" fill="#e74c3c" stroke="#e74c3c" stroke-width="1"/>
<text x="1152.36" y="802" font-size="11" fill="#555555" text-anchor="middle">04-12</text>
<text x="1152.36" y="818" font-size="11" fill="#555555" text-anchor="middle">20:45</text>
<line x1="1206.84" y1="538.82" x2="1206.84" y2="586.62" stroke="#e74c3c" stroke-width="2"/>
<rect x="1191.59" y="553.16" width="30.51" height="33.46" fill="#e74c3c" stroke="#e74c3c" stroke-width="1"/>
<text x="1206.84" y="802" font-size="11" fill="#555555" text-anchor="middle">04-12</text>
<text x="1206.84" y="818" font-size="11" fill="#555555" text-anchor="middle">21:00</text>
<line x1="1261.32" y1="562.72" x2="1261.32" y2="588.21" stroke="#2ecc71" stroke-width="2"/>
<rect x="1246.07" y="564.31" width="30.51" height="20.71" fill="#2ecc71" stroke="#2ecc71" stroke-width="1"/>
<text x="1261.32" y="802" font-size="11" fill="#555555" text-anchor="middle">04-12</text>
<text x="1261.32" y="818" font-size="11" fill="#555555" text-anchor="middle">21:15</text>
<line x1="1315.80" y1="556.35" x2="1315.80" y2="585.02" stroke="#2ecc71" stroke-width="2"/>
<rect x="1300.55" y="562.72" width="30.51" height="3.19" fill="#2ecc71" stroke="#2ecc71" stroke-width="1"/>
<text x="1315.80" y="802" font-size="11" fill="#555555" text-anchor="middle">04-12</text>
<text x="1315.80" y="818" font-size="11" fill="#555555" text-anchor="middle">21:30</text>
<line x1="1370.28" y1="543.60" x2="1370.28" y2="569.09" stroke="#2ecc71" stroke-width="2"/>
<rect x="1355.03" y="546.79" width="30.51" height="19.12" fill="#2ecc71" stroke="#2ecc71" stroke-width="1"/>
<text x="1370.28" y="802" font-size="11" fill="#555555" text-anchor="middle">04-12</text>
<text x="1370.28" y="818" font-size="11" fill="#555555" text-anchor="middle">21:45</text>
<line x1="1424.76" y1="534.04" x2="1424.76" y2="565.91" stroke="#e74c3c" stroke-width="2"/>
<rect x="1409.51" y="543.60" width="30.51" height="12.75" fill="#e74c3c" stroke="#e74c3c" stroke-width="1"/>
<text x="1424.76" y="802" font-size="11" fill="#555555" text-anchor="middle">04-12</text>
<text x="1424.76" y="818" font-size="11" fill="#555555" text-anchor="middle">22:00</text>
<line x1="716.52" y1="80.00" x2="786.52" y2="104.00" stroke="#f39c12" stroke-width="2"/>
<rect x="786.52" y="52.00" width="280" height="90" rx="10" fill="#fff8dc" stroke="#f39c12"/>
<text x="798.52" y="76.00" font-size="13" fill="#111111">15m定位时间 2025-04-12 18:45:00</text>
<text x="798.52" y="96.00" font-size="13" fill="#111111">该15m最高价 0.282700</text>
<text x="798.52" y="116.00" font-size="13" fill="#111111">10倍价横线已标出</text>
<text x="798.52" y="136.00" font-size="13" fill="#111111">竖线高亮首次触达10倍价的15m</text>
</svg>