<svg xmlns="http://www.w3.org/2000/svg" width="1500" height="860" viewBox="0 0 1500 860">
<rect width="100%" height="100%" fill="#fcfcfc"/>
<text x="90" y="38" font-size="28" font-weight="700" fill="#111111">IP-USDT-SWAP 15m - 10倍命中定位图</text>
<text x="90" y="68" font-size="16" fill="#555555">1H命中时间: 2025-08-30 23:00:00 | 10倍价: 8.369395 | 命中倍数: 10.5268x</text>
<line x1="90" y1="80.00" x2="1452" y2="80.00" stroke="#d9d9d9" stroke-dasharray="4 4" stroke-width="1"/>
<text x="12" y="84.00" font-size="12" fill="#555555">8.563900</text>
<line x1="90" y1="210.00" x2="1452" y2="210.00" stroke="#d9d9d9" stroke-dasharray="4 4" stroke-width="1"/>
<text x="12" y="214.00" font-size="12" fill="#555555">8.104520</text>
<line x1="90" y1="340.00" x2="1452" y2="340.00" stroke="#d9d9d9" stroke-dasharray="4 4" stroke-width="1"/>
<text x="12" y="344.00" font-size="12" fill="#555555">7.645140</text>
<line x1="90" y1="470.00" x2="1452" y2="470.00" stroke="#d9d9d9" stroke-dasharray="4 4" stroke-width="1"/>
<text x="12" y="474.00" font-size="12" fill="#555555">7.185760</text>
<line x1="90" y1="600.00" x2="1452" y2="600.00" stroke="#d9d9d9" stroke-dasharray="4 4" stroke-width="1"/>
<text x="12" y="604.00" font-size="12" fill="#555555">6.726380</text>
<line x1="90" y1="730.00" x2="1452" y2="730.00" stroke="#d9d9d9" stroke-dasharray="4 4" stroke-width="1"/>
<text x="12" y="734.00" font-size="12" fill="#555555">6.267000</text>
<rect x="689.28" y="80" width="54.48" height="650.00" fill="#f1c40f" opacity="0.16"/>
<line x1="716.52" y1="80" x2="716.52" y2="730" stroke="#f39c12" stroke-width="2" stroke-dasharray="6 4"/>
<line x1="90" y1="135.04" x2="1452" y2="135.04" stroke="#8e44ad" stroke-width="2" stroke-dasharray="8 4"/>
<text x="1444" y="127.04" font-size="13" fill="#8e44ad" text-anchor="end">10倍价 8.369395</text>
<line x1="117.24" y1="720.86" x2="117.24" y2="730.00" stroke="#e74c3c" stroke-width="2"/>
<rect x="101.99" y="722.67" width="30.51" height="1.64" fill="#e74c3c" stroke="#e74c3c" stroke-width="1"/>
<text x="117.24" y="802" font-size="11" fill="#555555" text-anchor="middle">08-30</text>
<text x="117.24" y="818" font-size="11" fill="#555555" text-anchor="middle">21:00</text>
<line x1="171.72" y1="700.31" x2="171.72" y2="727.06" stroke="#2ecc71" stroke-width="2"/>
<rect x="156.47" y="701.45" width="30.51" height="22.81" fill="#2ecc71" stroke="#2ecc71" stroke-width="1"/>
<text x="171.72" y="802" font-size="11" fill="#555555" text-anchor="middle">08-30</text>
<text x="171.72" y="818" font-size="11" fill="#555555" text-anchor="middle">21:15</text>
<line x1="226.20" y1="630.36" x2="226.20" y2="706.94" stroke="#2ecc71" stroke-width="2"/>
<rect x="210.95" y="672.21" width="30.51" height="29.49" fill="#2ecc71" stroke="#2ecc71" stroke-width="1"/>
<text x="226.20" y="802" font-size="11" fill="#555555" text-anchor="middle">08-30</text>
<text x="226.20" y="818" font-size="11" fill="#555555" text-anchor="middle">21:30</text>
<line x1="280.68" y1="656.14" x2="280.68" y2="679.54" stroke="#2ecc71" stroke-width="2"/>
<rect x="265.43" y="665.05" width="30.51" height="7.58" fill="#2ecc71" stroke="#2ecc71" stroke-width="1"/>
<text x="280.68" y="802" font-size="11" fill="#555555" text-anchor="middle">08-30</text>
<text x="280.68" y="818" font-size="11" fill="#555555" text-anchor="middle">21:45</text>
<line x1="335.16" y1="664.23" x2="335.16" y2="685.91" stroke="#e74c3c" stroke-width="2"/>
<rect x="319.91" y="665.51" width="30.51" height="8.24" fill="#e74c3c" stroke="#e74c3c" stroke-width="1"/>
<text x="335.16" y="802" font-size="11" fill="#555555" text-anchor="middle">08-30</text>
<text x="335.16" y="818" font-size="11" fill="#555555" text-anchor="middle">22:00</text>
<line x1="389.64" y1="648.33" x2="389.64" y2="676.60" stroke="#2ecc71" stroke-width="2"/>
<rect x="374.39" y="666.67" width="30.51" height="6.68" fill="#2ecc71" stroke="#2ecc71" stroke-width="1"/>
<text x="389.64" y="802" font-size="11" fill="#555555" text-anchor="middle">08-30</text>
<text x="389.64" y="818" font-size="11" fill="#555555" text-anchor="middle">22:15</text>
<line x1="444.12" y1="651.05" x2="444.12" y2="673.35" stroke="#2ecc71" stroke-width="2"/>
<rect x="428.87" y="654.50" width="30.51" height="12.00" fill="#2ecc71" stroke="#2ecc71" stroke-width="1"/>
<text x="444.12" y="802" font-size="11" fill="#555555" text-anchor="middle">08-30</text>
<text x="444.12" y="818" font-size="11" fill="#555555" text-anchor="middle">22:30</text>
<line x1="498.60" y1="636.13" x2="498.60" y2="660.02" stroke="#2ecc71" stroke-width="2"/>
<rect x="483.35" y="639.30" width="30.51" height="15.17" fill="#2ecc71" stroke="#2ecc71" stroke-width="1"/>
<text x="498.60" y="802" font-size="11" fill="#555555" text-anchor="middle">08-30</text>
<text x="498.60" y="818" font-size="11" fill="#555555" text-anchor="middle">22:45</text>
<line x1="553.08" y1="567.20" x2="553.08" y2="639.98" stroke="#2ecc71" stroke-width="2"/>
<rect x="537.83" y="584.83" width="30.51" height="54.25" fill="#2ecc71" stroke="#2ecc71" stroke-width="1"/>
<text x="553.08" y="802" font-size="11" fill="#555555" text-anchor="middle">08-30</text>
<text x="553.08" y="818" font-size="11" fill="#555555" text-anchor="middle">23:00</text>
<line x1="607.56" y1="517.08" x2="607.56" y2="589.01" stroke="#2ecc71" stroke-width="2"/>
<rect x="592.31" y="538.36" width="30.51" height="46.98" fill="#2ecc71" stroke="#2ecc71" stroke-width="1"/>
<text x="607.56" y="802" font-size="11" fill="#555555" text-anchor="middle">08-30</text>
<text x="607.56" y="818" font-size="11" fill="#555555" text-anchor="middle">23:15</text>
<line x1="662.04" y1="396.84" x2="662.04" y2="540.54" stroke="#2ecc71" stroke-width="2"/>
<rect x="646.79" y="407.87" width="30.51" height="130.18" fill="#2ecc71" stroke="#2ecc71" stroke-width="1"/>
<text x="662.04" y="802" font-size="11" fill="#555555" text-anchor="middle">08-30</text>
<text x="662.04" y="818" font-size="11" fill="#555555" text-anchor="middle">23:30</text>
<line x1="716.52" y1="108.44" x2="716.52" y2="410.28" stroke="#2ecc71" stroke-width="2"/>
<rect x="701.27" y="133.97" width="30.51" height="274.59" fill="#2ecc71" stroke="#2ecc71" stroke-width="1"/>
<text x="716.52" y="802" font-size="11" fill="#555555" text-anchor="middle">08-30</text>
<text x="716.52" y="818" font-size="11" fill="#555555" text-anchor="middle">23:45</text>
<line x1="771.00" y1="80.00" x2="771.00" y2="321.50" stroke="#e74c3c" stroke-width="2"/>
<rect x="755.75" y="131.79" width="30.51" height="134.82" fill="#e74c3c" stroke="#e74c3c" stroke-width="1"/>
<text x="771.00" y="802" font-size="11" fill="#555555" text-anchor="middle">08-31</text>
<text x="771.00" y="818" font-size="11" fill="#555555" text-anchor="middle">00:00</text>
<line x1="825.48" y1="227.78" x2="825.48" y2="357.22" stroke="#e74c3c" stroke-width="2"/>
<rect x="810.23" y="266.94" width="30.51" height="43.33" fill="#e74c3c" stroke="#e74c3c" stroke-width="1"/>
<text x="825.48" y="802" font-size="11" fill="#555555" text-anchor="middle">08-31</text>
<text x="825.48" y="818" font-size="11" fill="#555555" text-anchor="middle">00:15</text>
<line x1="879.96" y1="274.47" x2="879.96" y2="338.06" stroke="#2ecc71" stroke-width="2"/>
<rect x="864.71" y="294.70" width="30.51" height="14.69" fill="#2ecc71" stroke="#2ecc71" stroke-width="1"/>
<text x="879.96" y="802" font-size="11" fill="#555555" text-anchor="middle">08-31</text>
<text x="879.96" y="818" font-size="11" fill="#555555" text-anchor="middle">00:30</text>
<line x1="934.44" y1="274.58" x2="934.44" y2="327.31" stroke="#e74c3c" stroke-width="2"/>
<rect x="919.19" y="294.17" width="30.51" height="17.91" fill="#e74c3c" stroke="#e74c3c" stroke-width="1"/>
<text x="934.44" y="802" font-size="11" fill="#555555" text-anchor="middle">08-31</text>
<text x="934.44" y="818" font-size="11" fill="#555555" text-anchor="middle">00:45</text>
<line x1="988.92" y1="305.83" x2="988.92" y2="378.64" stroke="#e74c3c" stroke-width="2"/>
<rect x="973.67" y="312.08" width="30.51" height="66.08" fill="#e74c3c" stroke="#e74c3c" stroke-width="1"/>
<text x="988.92" y="802" font-size="11" fill="#555555" text-anchor="middle">08-31</text>
<text x="988.92" y="818" font-size="11" fill="#555555" text-anchor="middle">01:00</text>
<line x1="1043.40" y1="328.21" x2="1043.40" y2="399.35" stroke="#2ecc71" stroke-width="2"/>
<rect x="1028.15" y="350.79" width="30.51" height="26.74" fill="#2ecc71" stroke="#2ecc71" stroke-width="1"/>
<text x="1043.40" y="802" font-size="11" fill="#555555" text-anchor="middle">08-31</text>
<text x="1043.40" y="818" font-size="11" fill="#555555" text-anchor="middle">01:15</text>
<line x1="1097.88" y1="347.06" x2="1097.88" y2="427.17" stroke="#e74c3c" stroke-width="2"/>
<rect x="1082.63" y="350.60" width="30.51" height="49.38" fill="#e74c3c" stroke="#e74c3c" stroke-width="1"/>
<text x="1097.88" y="802" font-size="11" fill="#555555" text-anchor="middle">08-31</text>
<text x="1097.88" y="818" font-size="11" fill="#555555" text-anchor="middle">01:30</text>
<line x1="1152.36" y1="384.24" x2="1152.36" y2="415.60" stroke="#e74c3c" stroke-width="2"/>
<rect x="1137.11" y="399.89" width="30.51" height="9.23" fill="#e74c3c" stroke="#e74c3c" stroke-width="1"/>
<text x="1152.36" y="802" font-size="11" fill="#555555" text-anchor="middle">08-31</text>
<text x="1152.36" y="818" font-size="11" fill="#555555" text-anchor="middle">01:45</text>
<line x1="1206.84" y1="347.11" x2="1206.84" y2="419.45" stroke="#2ecc71" stroke-width="2"/>
<rect x="1191.59" y="373.04" width="30.51" height="36.08" fill="#2ecc71" stroke="#2ecc71" stroke-width="1"/>
<text x="1206.84" y="802" font-size="11" fill="#555555" text-anchor="middle">08-31</text>
<text x="1206.84" y="818" font-size="11" fill="#555555" text-anchor="middle">02:00</text>
<line x1="1261.32" y1="284.88" x2="1261.32" y2="373.69" stroke="#2ecc71" stroke-width="2"/>
<rect x="1246.07" y="287.66" width="30.51" height="85.32" fill="#2ecc71" stroke="#2ecc71" stroke-width="1"/>
<text x="1261.32" y="802" font-size="11" fill="#555555" text-anchor="middle">08-31</text>
<text x="1261.32" y="818" font-size="11" fill="#555555" text-anchor="middle">02:15</text>
<line x1="1315.80" y1="225.29" x2="1315.80" y2="315.99" stroke="#2ecc71" stroke-width="2"/>
<rect x="1300.55" y="276.82" width="30.51" height="10.61" fill="#2ecc71" stroke="#2ecc71" stroke-width="1"/>
<text x="1315.80" y="802" font-size="11" fill="#555555" text-anchor="middle">08-31</text>
<text x="1315.80" y="818" font-size="11" fill="#555555" text-anchor="middle">02:30</text>
<line x1="1370.28" y1="250.50" x2="1370.28" y2="293.32" stroke="#e74c3c" stroke-width="2"/>
<rect x="1355.03" y="275.80" width="30.51" height="2.58" fill="#e74c3c" stroke="#e74c3c" stroke-width="1"/>
<text x="1370.28" y="802" font-size="11" fill="#555555" text-anchor="middle">08-31</text>
<text x="1370.28" y="818" font-size="11" fill="#555555" text-anchor="middle">02:45</text>
<line x1="1424.76" y1="261.23" x2="1424.76" y2="318.11" stroke="#e74c3c" stroke-width="2"/>
<rect x="1409.51" y="278.15" width="30.51" height="15.34" fill="#e74c3c" stroke="#e74c3c" stroke-width="1"/>
<text x="1424.76" y="802" font-size="11" fill="#555555" text-anchor="middle">08-31</text>
<text x="1424.76" y="818" font-size="11" fill="#555555" text-anchor="middle">03:00</text>
<line x1="716.52" y1="108.44" x2="786.52" y2="104.00" stroke="#f39c12" stroke-width="2"/>
<rect x="786.52" y="52.00" width="280" height="90" rx="10" fill="#fff8dc" stroke="#f39c12"/>
<text x="798.52" y="76.00" font-size="13" fill="#111111">15m定位时间 2025-08-30 23:45:00</text>
<text x="798.52" y="96.00" font-size="13" fill="#111111">该15m最高价 8.463400</text>
<text x="798.52" y="116.00" font-size="13" fill="#111111">10倍价横线已标出</text>
<text x="798.52" y="136.00" font-size="13" fill="#111111">竖线高亮首次触达10倍价的15m</text>
</svg>