<svg xmlns="http://www.w3.org/2000/svg" width="1500" height="860" viewBox="0 0 1500 860">
<rect width="100%" height="100%" fill="#fcfcfc"/>
<text x="90" y="38" font-size="28" font-weight="700" fill="#111111">IP-USDT-SWAP 15m - 10倍命中定位图</text>
<text x="90" y="68" font-size="16" fill="#555555">1H命中时间: 2025-02-21 04:00:00 | 10倍价: 7.101381 | 命中倍数: 15.7978x</text>
<line x1="90" y1="80.00" x2="1452" y2="80.00" stroke="#d9d9d9" stroke-dasharray="4 4" stroke-width="1"/>
<text x="12" y="84.00" font-size="12" fill="#555555">9.000000</text>
<line x1="90" y1="210.00" x2="1452" y2="210.00" stroke="#d9d9d9" stroke-dasharray="4 4" stroke-width="1"/>
<text x="12" y="214.00" font-size="12" fill="#555555">7.894278</text>
<line x1="90" y1="340.00" x2="1452" y2="340.00" stroke="#d9d9d9" stroke-dasharray="4 4" stroke-width="1"/>
<text x="12" y="344.00" font-size="12" fill="#555555">6.788556</text>
<line x1="90" y1="470.00" x2="1452" y2="470.00" stroke="#d9d9d9" stroke-dasharray="4 4" stroke-width="1"/>
<text x="12" y="474.00" font-size="12" fill="#555555">5.682834</text>
<line x1="90" y1="600.00" x2="1452" y2="600.00" stroke="#d9d9d9" stroke-dasharray="4 4" stroke-width="1"/>
<text x="12" y="604.00" font-size="12" fill="#555555">4.577112</text>
<line x1="90" y1="730.00" x2="1452" y2="730.00" stroke="#d9d9d9" stroke-dasharray="4 4" stroke-width="1"/>
<text x="12" y="734.00" font-size="12" fill="#555555">3.471390</text>
<rect x="689.28" y="80" width="54.48" height="650.00" fill="#f1c40f" opacity="0.16"/>
<line x1="716.52" y1="80" x2="716.52" y2="730" stroke="#f39c12" stroke-width="2" stroke-dasharray="6 4"/>
<line x1="90" y1="303.22" x2="1452" y2="303.22" stroke="#8e44ad" stroke-width="2" stroke-dasharray="8 4"/>
<text x="1444" y="295.22" font-size="13" fill="#8e44ad" text-anchor="end">10倍价 7.101381</text>
<line x1="117.24" y1="720.99" x2="117.24" y2="730.00" stroke="#2ecc71" stroke-width="2"/>
<rect x="101.99" y="723.36" width="30.51" height="1.87" fill="#2ecc71" stroke="#2ecc71" stroke-width="1"/>
<text x="117.24" y="802" font-size="11" fill="#555555" text-anchor="middle">02-21</text>
<text x="117.24" y="818" font-size="11" fill="#555555" text-anchor="middle">02:00</text>
<line x1="171.72" y1="693.82" x2="171.72" y2="726.64" stroke="#2ecc71" stroke-width="2"/>
<rect x="156.47" y="715.47" width="30.51" height="7.89" fill="#2ecc71" stroke="#2ecc71" stroke-width="1"/>
<text x="171.72" y="802" font-size="11" fill="#555555" text-anchor="middle">02-21</text>
<text x="171.72" y="818" font-size="11" fill="#555555" text-anchor="middle">02:15</text>
<line x1="226.20" y1="701.30" x2="226.20" y2="716.77" stroke="#2ecc71" stroke-width="2"/>
<rect x="210.95" y="705.62" width="30.51" height="9.90" fill="#2ecc71" stroke="#2ecc71" stroke-width="1"/>
<text x="226.20" y="802" font-size="11" fill="#555555" text-anchor="middle">02-21</text>
<text x="226.20" y="818" font-size="11" fill="#555555" text-anchor="middle">02:30</text>
<line x1="280.68" y1="696.07" x2="280.68" y2="708.15" stroke="#2ecc71" stroke-width="2"/>
<rect x="265.43" y="700.35" width="30.51" height="5.22" fill="#2ecc71" stroke="#2ecc71" stroke-width="1"/>
<text x="280.68" y="802" font-size="11" fill="#555555" text-anchor="middle">02-21</text>
<text x="280.68" y="818" font-size="11" fill="#555555" text-anchor="middle">02:45</text>
<line x1="335.16" y1="685.77" x2="335.16" y2="700.54" stroke="#2ecc71" stroke-width="2"/>
<rect x="319.91" y="688.83" width="30.51" height="11.47" fill="#2ecc71" stroke="#2ecc71" stroke-width="1"/>
<text x="335.16" y="802" font-size="11" fill="#555555" text-anchor="middle">02-21</text>
<text x="335.16" y="818" font-size="11" fill="#555555" text-anchor="middle">03:00</text>
<line x1="389.64" y1="670.60" x2="389.64" y2="696.81" stroke="#2ecc71" stroke-width="2"/>
<rect x="374.39" y="675.37" width="30.51" height="13.47" fill="#2ecc71" stroke="#2ecc71" stroke-width="1"/>
<text x="389.64" y="802" font-size="11" fill="#555555" text-anchor="middle">02-21</text>
<text x="389.64" y="818" font-size="11" fill="#555555" text-anchor="middle">03:15</text>
<line x1="444.12" y1="663.36" x2="444.12" y2="693.71" stroke="#e74c3c" stroke-width="2"/>
<rect x="428.87" y="675.20" width="30.51" height="16.69" fill="#e74c3c" stroke="#e74c3c" stroke-width="1"/>
<text x="444.12" y="802" font-size="11" fill="#555555" text-anchor="middle">02-21</text>
<text x="444.12" y="818" font-size="11" fill="#555555" text-anchor="middle">03:30</text>
<line x1="498.60" y1="681.58" x2="498.60" y2="696.53" stroke="#2ecc71" stroke-width="2"/>
<rect x="483.35" y="684.73" width="30.51" height="7.12" fill="#2ecc71" stroke="#2ecc71" stroke-width="1"/>
<text x="498.60" y="802" font-size="11" fill="#555555" text-anchor="middle">02-21</text>
<text x="498.60" y="818" font-size="11" fill="#555555" text-anchor="middle">03:45</text>
<line x1="553.08" y1="677.79" x2="553.08" y2="688.23" stroke="#2ecc71" stroke-width="2"/>
<rect x="537.83" y="680.81" width="30.51" height="3.91" fill="#2ecc71" stroke="#2ecc71" stroke-width="1"/>
<text x="553.08" y="802" font-size="11" fill="#555555" text-anchor="middle">02-21</text>
<text x="553.08" y="818" font-size="11" fill="#555555" text-anchor="middle">04:00</text>
<line x1="607.56" y1="623.18" x2="607.56" y2="680.91" stroke="#2ecc71" stroke-width="2"/>
<rect x="592.31" y="635.81" width="30.51" height="45.00" fill="#2ecc71" stroke="#2ecc71" stroke-width="1"/>
<text x="607.56" y="802" font-size="11" fill="#555555" text-anchor="middle">02-21</text>
<text x="607.56" y="818" font-size="11" fill="#555555" text-anchor="middle">04:15</text>
<line x1="662.04" y1="564.39" x2="662.04" y2="643.03" stroke="#2ecc71" stroke-width="2"/>
<rect x="646.79" y="572.28" width="30.51" height="63.56" fill="#2ecc71" stroke="#2ecc71" stroke-width="1"/>
<text x="662.04" y="802" font-size="11" fill="#555555" text-anchor="middle">02-21</text>
<text x="662.04" y="818" font-size="11" fill="#555555" text-anchor="middle">04:30</text>
<line x1="716.52" y1="80.00" x2="716.52" y2="590.25" stroke="#2ecc71" stroke-width="2"/>
<rect x="701.27" y="430.67" width="30.51" height="141.71" fill="#2ecc71" stroke="#2ecc71" stroke-width="1"/>
<text x="716.52" y="802" font-size="11" fill="#555555" text-anchor="middle">02-21</text>
<text x="716.52" y="818" font-size="11" fill="#555555" text-anchor="middle">04:45</text>
<line x1="771.00" y1="420.95" x2="771.00" y2="537.12" stroke="#e74c3c" stroke-width="2"/>
<rect x="755.75" y="431.05" width="30.51" height="7.11" fill="#e74c3c" stroke="#e74c3c" stroke-width="1"/>
<text x="771.00" y="802" font-size="11" fill="#555555" text-anchor="middle">02-21</text>
<text x="771.00" y="818" font-size="11" fill="#555555" text-anchor="middle">05:00</text>
<line x1="825.48" y1="405.75" x2="825.48" y2="498.55" stroke="#e74c3c" stroke-width="2"/>
<rect x="810.23" y="438.37" width="30.51" height="25.37" fill="#e74c3c" stroke="#e74c3c" stroke-width="1"/>
<text x="825.48" y="802" font-size="11" fill="#555555" text-anchor="middle">02-21</text>
<text x="825.48" y="818" font-size="11" fill="#555555" text-anchor="middle">05:15</text>
<line x1="879.96" y1="436.04" x2="879.96" y2="498.22" stroke="#e74c3c" stroke-width="2"/>
<rect x="864.71" y="463.87" width="30.51" height="6.45" fill="#e74c3c" stroke="#e74c3c" stroke-width="1"/>
<text x="879.96" y="802" font-size="11" fill="#555555" text-anchor="middle">02-21</text>
<text x="879.96" y="818" font-size="11" fill="#555555" text-anchor="middle">05:30</text>
<line x1="934.44" y1="456.63" x2="934.44" y2="510.23" stroke="#2ecc71" stroke-width="2"/>
<rect x="919.19" y="462.49" width="30.51" height="7.83" fill="#2ecc71" stroke="#2ecc71" stroke-width="1"/>
<text x="934.44" y="802" font-size="11" fill="#555555" text-anchor="middle">02-21</text>
<text x="934.44" y="818" font-size="11" fill="#555555" text-anchor="middle">05:45</text>
<line x1="988.92" y1="328.07" x2="988.92" y2="478.56" stroke="#2ecc71" stroke-width="2"/>
<rect x="973.67" y="358.24" width="30.51" height="104.35" fill="#2ecc71" stroke="#2ecc71" stroke-width="1"/>
<text x="988.92" y="802" font-size="11" fill="#555555" text-anchor="middle">02-21</text>
<text x="988.92" y="818" font-size="11" fill="#555555" text-anchor="middle">06:00</text>
<line x1="1043.40" y1="317.64" x2="1043.40" y2="393.59" stroke="#2ecc71" stroke-width="2"/>
<rect x="1028.15" y="354.54" width="30.51" height="3.70" fill="#2ecc71" stroke="#2ecc71" stroke-width="1"/>
<text x="1043.40" y="802" font-size="11" fill="#555555" text-anchor="middle">02-21</text>
<text x="1043.40" y="818" font-size="11" fill="#555555" text-anchor="middle">06:15</text>
<line x1="1097.88" y1="350.41" x2="1097.88" y2="439.82" stroke="#e74c3c" stroke-width="2"/>
<rect x="1082.63" y="354.12" width="30.51" height="56.63" fill="#e74c3c" stroke="#e74c3c" stroke-width="1"/>
<text x="1097.88" y="802" font-size="11" fill="#555555" text-anchor="middle">02-21</text>
<text x="1097.88" y="818" font-size="11" fill="#555555" text-anchor="middle">06:30</text>
<line x1="1152.36" y1="406.85" x2="1152.36" y2="465.90" stroke="#e74c3c" stroke-width="2"/>
<rect x="1137.11" y="410.98" width="30.51" height="24.88" fill="#e74c3c" stroke="#e74c3c" stroke-width="1"/>
<text x="1152.36" y="802" font-size="11" fill="#555555" text-anchor="middle">02-21</text>
<text x="1152.36" y="818" font-size="11" fill="#555555" text-anchor="middle">06:45</text>
<line x1="1206.84" y1="433.89" x2="1206.84" y2="478.18" stroke="#e74c3c" stroke-width="2"/>
<rect x="1191.59" y="435.85" width="30.51" height="25.47" fill="#e74c3c" stroke="#e74c3c" stroke-width="1"/>
<text x="1206.84" y="802" font-size="11" fill="#555555" text-anchor="middle">02-21</text>
<text x="1206.84" y="818" font-size="11" fill="#555555" text-anchor="middle">07:00</text>
<line x1="1261.32" y1="412.02" x2="1261.32" y2="461.58" stroke="#2ecc71" stroke-width="2"/>
<rect x="1246.07" y="435.61" width="30.51" height="25.72" fill="#2ecc71" stroke="#2ecc71" stroke-width="1"/>
<text x="1261.32" y="802" font-size="11" fill="#555555" text-anchor="middle">02-21</text>
<text x="1261.32" y="818" font-size="11" fill="#555555" text-anchor="middle">07:15</text>
<line x1="1315.80" y1="410.51" x2="1315.80" y2="455.99" stroke="#e74c3c" stroke-width="2"/>
<rect x="1300.55" y="435.69" width="30.51" height="15.74" fill="#e74c3c" stroke="#e74c3c" stroke-width="1"/>
<text x="1315.80" y="802" font-size="11" fill="#555555" text-anchor="middle">02-21</text>
<text x="1315.80" y="818" font-size="11" fill="#555555" text-anchor="middle">07:30</text>
<line x1="1370.28" y1="438.94" x2="1370.28" y2="498.72" stroke="#e74c3c" stroke-width="2"/>
<rect x="1355.03" y="451.44" width="30.51" height="20.55" fill="#e74c3c" stroke="#e74c3c" stroke-width="1"/>
<text x="1370.28" y="802" font-size="11" fill="#555555" text-anchor="middle">02-21</text>
<text x="1370.28" y="818" font-size="11" fill="#555555" text-anchor="middle">07:45</text>
<line x1="1424.76" y1="445.93" x2="1424.76" y2="511.09" stroke="#e74c3c" stroke-width="2"/>
<rect x="1409.51" y="472.14" width="30.51" height="8.29" fill="#e74c3c" stroke="#e74c3c" stroke-width="1"/>
<text x="1424.76" y="802" font-size="11" fill="#555555" text-anchor="middle">02-21</text>
<text x="1424.76" y="818" font-size="11" fill="#555555" text-anchor="middle">08:00</text>
<line x1="716.52" y1="80.00" x2="786.52" y2="104.00" stroke="#f39c12" stroke-width="2"/>
<rect x="786.52" y="52.00" width="280" height="90" rx="10" fill="#fff8dc" stroke="#f39c12"/>
<text x="798.52" y="76.00" font-size="13" fill="#111111">15m定位时间 2025-02-21 04:45:00</text>
<text x="798.52" y="96.00" font-size="13" fill="#111111">该15m最高价 9.000000</text>
<text x="798.52" y="116.00" font-size="13" fill="#111111">10倍价横线已标出</text>
<text x="798.52" y="136.00" font-size="13" fill="#111111">竖线高亮首次触达10倍价的15m</text>
</svg>