<svg xmlns="http://www.w3.org/2000/svg" width="1500" height="860" viewBox="0 0 1500 860">
<rect width="100%" height="100%" fill="#fcfcfc"/>
<text x="90" y="38" font-size="28" font-weight="700" fill="#111111">JTO-USDT-SWAP 15m - 10倍命中定位图</text>
<text x="90" y="68" font-size="16" fill="#555555">1H命中时间: 2025-02-21 13:00:00 | 10倍价: 3.284832 | 命中倍数: 16.3062x</text>
<line x1="90" y1="80.00" x2="1452" y2="80.00" stroke="#d9d9d9" stroke-dasharray="4 4" stroke-width="1"/>
<text x="12" y="84.00" font-size="12" fill="#555555">3.624000</text>
<line x1="90" y1="210.00" x2="1452" y2="210.00" stroke="#d9d9d9" stroke-dasharray="4 4" stroke-width="1"/>
<text x="12" y="214.00" font-size="12" fill="#555555">3.436000</text>
<line x1="90" y1="340.00" x2="1452" y2="340.00" stroke="#d9d9d9" stroke-dasharray="4 4" stroke-width="1"/>
<text x="12" y="344.00" font-size="12" fill="#555555">3.248000</text>
<line x1="90" y1="470.00" x2="1452" y2="470.00" stroke="#d9d9d9" stroke-dasharray="4 4" stroke-width="1"/>
<text x="12" y="474.00" font-size="12" fill="#555555">3.060000</text>
<line x1="90" y1="600.00" x2="1452" y2="600.00" stroke="#d9d9d9" stroke-dasharray="4 4" stroke-width="1"/>
<text x="12" y="604.00" font-size="12" fill="#555555">2.872000</text>
<line x1="90" y1="730.00" x2="1452" y2="730.00" stroke="#d9d9d9" stroke-dasharray="4 4" stroke-width="1"/>
<text x="12" y="734.00" font-size="12" fill="#555555">2.684000</text>
<rect x="525.84" y="80" width="54.48" height="650.00" fill="#f1c40f" opacity="0.16"/>
<line x1="553.08" y1="80" x2="553.08" y2="730" stroke="#f39c12" stroke-width="2" stroke-dasharray="6 4"/>
<line x1="90" y1="314.53" x2="1452" y2="314.53" stroke="#8e44ad" stroke-width="2" stroke-dasharray="8 4"/>
<text x="1444" y="306.53" font-size="13" fill="#8e44ad" text-anchor="end">10倍价 3.284832</text>
<line x1="117.24" y1="718.94" x2="117.24" y2="730.00" stroke="#2ecc71" stroke-width="2"/>
<rect x="101.99" y="722.39" width="30.51" height="5.53" fill="#2ecc71" stroke="#2ecc71" stroke-width="1"/>
<text x="117.24" y="802" font-size="11" fill="#555555" text-anchor="middle">02-21</text>
<text x="117.24" y="818" font-size="11" fill="#555555" text-anchor="middle">11:00</text>
<line x1="171.72" y1="712.02" x2="171.72" y2="724.47" stroke="#2ecc71" stroke-width="2"/>
<rect x="156.47" y="717.55" width="30.51" height="5.53" fill="#2ecc71" stroke="#2ecc71" stroke-width="1"/>
<text x="171.72" y="802" font-size="11" fill="#555555" text-anchor="middle">02-21</text>
<text x="171.72" y="818" font-size="11" fill="#555555" text-anchor="middle">11:15</text>
<line x1="226.20" y1="718.24" x2="226.20" y2="724.47" stroke="#e74c3c" stroke-width="2"/>
<rect x="210.95" y="718.24" width="30.51" height="3.46" fill="#e74c3c" stroke="#e74c3c" stroke-width="1"/>
<text x="226.20" y="802" font-size="11" fill="#555555" text-anchor="middle">02-21</text>
<text x="226.20" y="818" font-size="11" fill="#555555" text-anchor="middle">11:30</text>
<line x1="280.68" y1="713.40" x2="280.68" y2="724.47" stroke="#2ecc71" stroke-width="2"/>
<rect x="265.43" y="714.79" width="30.51" height="6.22" fill="#2ecc71" stroke="#2ecc71" stroke-width="1"/>
<text x="280.68" y="802" font-size="11" fill="#555555" text-anchor="middle">02-21</text>
<text x="280.68" y="818" font-size="11" fill="#555555" text-anchor="middle">11:45</text>
<line x1="335.16" y1="700.27" x2="335.16" y2="715.48" stroke="#2ecc71" stroke-width="2"/>
<rect x="319.91" y="702.34" width="30.51" height="11.76" fill="#2ecc71" stroke="#2ecc71" stroke-width="1"/>
<text x="335.16" y="802" font-size="11" fill="#555555" text-anchor="middle">02-21</text>
<text x="335.16" y="818" font-size="11" fill="#555555" text-anchor="middle">12:00</text>
<line x1="389.64" y1="687.82" x2="389.64" y2="701.65" stroke="#2ecc71" stroke-width="2"/>
<rect x="374.39" y="689.89" width="30.51" height="11.76" fill="#2ecc71" stroke="#2ecc71" stroke-width="1"/>
<text x="389.64" y="802" font-size="11" fill="#555555" text-anchor="middle">02-21</text>
<text x="389.64" y="818" font-size="11" fill="#555555" text-anchor="middle">12:15</text>
<line x1="444.12" y1="679.52" x2="444.12" y2="699.57" stroke="#2ecc71" stroke-width="2"/>
<rect x="428.87" y="679.52" width="30.51" height="10.37" fill="#2ecc71" stroke="#2ecc71" stroke-width="1"/>
<text x="444.12" y="802" font-size="11" fill="#555555" text-anchor="middle">02-21</text>
<text x="444.12" y="818" font-size="11" fill="#555555" text-anchor="middle">12:30</text>
<line x1="498.60" y1="678.83" x2="498.60" y2="691.28" stroke="#e74c3c" stroke-width="2"/>
<rect x="483.35" y="680.21" width="30.51" height="6.22" fill="#e74c3c" stroke="#e74c3c" stroke-width="1"/>
<text x="498.60" y="802" font-size="11" fill="#555555" text-anchor="middle">02-21</text>
<text x="498.60" y="818" font-size="11" fill="#555555" text-anchor="middle">12:45</text>
<line x1="553.08" y1="80.00" x2="553.08" y2="686.44" stroke="#2ecc71" stroke-width="2"/>
<rect x="537.83" y="319.95" width="30.51" height="366.49" fill="#2ecc71" stroke="#2ecc71" stroke-width="1"/>
<text x="553.08" y="802" font-size="11" fill="#555555" text-anchor="middle">02-21</text>
<text x="553.08" y="818" font-size="11" fill="#555555" text-anchor="middle">13:00</text>
<line x1="607.56" y1="300.59" x2="607.56" y2="391.86" stroke="#2ecc71" stroke-width="2"/>
<rect x="592.31" y="304.04" width="30.51" height="13.83" fill="#2ecc71" stroke="#2ecc71" stroke-width="1"/>
<text x="607.56" y="802" font-size="11" fill="#555555" text-anchor="middle">02-21</text>
<text x="607.56" y="818" font-size="11" fill="#555555" text-anchor="middle">13:15</text>
<line x1="662.04" y1="291.60" x2="662.04" y2="445.11" stroke="#e74c3c" stroke-width="2"/>
<rect x="646.79" y="303.35" width="30.51" height="134.84" fill="#e74c3c" stroke="#e74c3c" stroke-width="1"/>
<text x="662.04" y="802" font-size="11" fill="#555555" text-anchor="middle">02-21</text>
<text x="662.04" y="818" font-size="11" fill="#555555" text-anchor="middle">13:30</text>
<line x1="716.52" y1="387.02" x2="716.52" y2="462.39" stroke="#e74c3c" stroke-width="2"/>
<rect x="701.27" y="438.19" width="30.51" height="18.67" fill="#e74c3c" stroke="#e74c3c" stroke-width="1"/>
<text x="716.52" y="802" font-size="11" fill="#555555" text-anchor="middle">02-21</text>
<text x="716.52" y="818" font-size="11" fill="#555555" text-anchor="middle">13:45</text>
<line x1="771.00" y1="449.95" x2="771.00" y2="494.20" stroke="#e74c3c" stroke-width="2"/>
<rect x="755.75" y="457.55" width="30.51" height="2.07" fill="#e74c3c" stroke="#e74c3c" stroke-width="1"/>
<text x="771.00" y="802" font-size="11" fill="#555555" text-anchor="middle">02-21</text>
<text x="771.00" y="818" font-size="11" fill="#555555" text-anchor="middle">14:00</text>
<line x1="825.48" y1="423.67" x2="825.48" y2="478.99" stroke="#2ecc71" stroke-width="2"/>
<rect x="810.23" y="430.59" width="30.51" height="29.04" fill="#2ecc71" stroke="#2ecc71" stroke-width="1"/>
<text x="825.48" y="802" font-size="11" fill="#555555" text-anchor="middle">02-21</text>
<text x="825.48" y="818" font-size="11" fill="#555555" text-anchor="middle">14:15</text>
<line x1="879.96" y1="431.28" x2="879.96" y2="472.07" stroke="#e74c3c" stroke-width="2"/>
<rect x="864.71" y="431.97" width="30.51" height="34.57" fill="#e74c3c" stroke="#e74c3c" stroke-width="1"/>
<text x="879.96" y="802" font-size="11" fill="#555555" text-anchor="middle">02-21</text>
<text x="879.96" y="818" font-size="11" fill="#555555" text-anchor="middle">14:30</text>
<line x1="934.44" y1="462.39" x2="934.44" y2="533.62" stroke="#e74c3c" stroke-width="2"/>
<rect x="919.19" y="466.54" width="30.51" height="56.70" fill="#e74c3c" stroke="#e74c3c" stroke-width="1"/>
<text x="934.44" y="802" font-size="11" fill="#555555" text-anchor="middle">02-21</text>
<text x="934.44" y="818" font-size="11" fill="#555555" text-anchor="middle">14:45</text>
<line x1="988.92" y1="517.02" x2="988.92" y2="547.45" stroke="#e74c3c" stroke-width="2"/>
<rect x="973.67" y="522.55" width="30.51" height="1.20" fill="#e74c3c" stroke="#e74c3c" stroke-width="1"/>
<text x="988.92" y="802" font-size="11" fill="#555555" text-anchor="middle">02-21</text>
<text x="988.92" y="818" font-size="11" fill="#555555" text-anchor="middle">15:00</text>
<line x1="1043.40" y1="508.72" x2="1043.40" y2="532.93" stroke="#2ecc71" stroke-width="2"/>
<rect x="1028.15" y="519.10" width="30.51" height="4.84" fill="#2ecc71" stroke="#2ecc71" stroke-width="1"/>
<text x="1043.40" y="802" font-size="11" fill="#555555" text-anchor="middle">02-21</text>
<text x="1043.40" y="818" font-size="11" fill="#555555" text-anchor="middle">15:15</text>
<line x1="1097.88" y1="494.89" x2="1097.88" y2="526.01" stroke="#2ecc71" stroke-width="2"/>
<rect x="1082.63" y="511.49" width="30.51" height="6.22" fill="#2ecc71" stroke="#2ecc71" stroke-width="1"/>
<text x="1097.88" y="802" font-size="11" fill="#555555" text-anchor="middle">02-21</text>
<text x="1097.88" y="818" font-size="11" fill="#555555" text-anchor="middle">15:30</text>
<line x1="1152.36" y1="493.51" x2="1152.36" y2="512.18" stroke="#2ecc71" stroke-width="2"/>
<rect x="1137.11" y="494.20" width="30.51" height="17.98" fill="#2ecc71" stroke="#2ecc71" stroke-width="1"/>
<text x="1152.36" y="802" font-size="11" fill="#555555" text-anchor="middle">02-21</text>
<text x="1152.36" y="818" font-size="11" fill="#555555" text-anchor="middle">15:45</text>
<line x1="1206.84" y1="400.85" x2="1206.84" y2="519.79" stroke="#2ecc71" stroke-width="2"/>
<rect x="1191.59" y="404.31" width="30.51" height="91.28" fill="#2ecc71" stroke="#2ecc71" stroke-width="1"/>
<text x="1206.84" y="802" font-size="11" fill="#555555" text-anchor="middle">02-21</text>
<text x="1206.84" y="818" font-size="11" fill="#555555" text-anchor="middle">16:00</text>
<line x1="1261.32" y1="405.00" x2="1261.32" y2="475.53" stroke="#e74c3c" stroke-width="2"/>
<rect x="1246.07" y="405.00" width="30.51" height="40.11" fill="#e74c3c" stroke="#e74c3c" stroke-width="1"/>
<text x="1261.32" y="802" font-size="11" fill="#555555" text-anchor="middle">02-21</text>
<text x="1261.32" y="818" font-size="11" fill="#555555" text-anchor="middle">16:15</text>
<line x1="1315.80" y1="413.30" x2="1315.80" y2="452.02" stroke="#2ecc71" stroke-width="2"/>
<rect x="1300.55" y="434.73" width="30.51" height="10.37" fill="#2ecc71" stroke="#2ecc71" stroke-width="1"/>
<text x="1315.80" y="802" font-size="11" fill="#555555" text-anchor="middle">02-21</text>
<text x="1315.80" y="818" font-size="11" fill="#555555" text-anchor="middle">16:30</text>
<line x1="1370.28" y1="381.49" x2="1370.28" y2="442.34" stroke="#2ecc71" stroke-width="2"/>
<rect x="1355.03" y="391.86" width="30.51" height="42.18" fill="#2ecc71" stroke="#2ecc71" stroke-width="1"/>
<text x="1370.28" y="802" font-size="11" fill="#555555" text-anchor="middle">02-21</text>
<text x="1370.28" y="818" font-size="11" fill="#555555" text-anchor="middle">16:45</text>
<line x1="1424.76" y1="374.57" x2="1424.76" y2="416.76" stroke="#e74c3c" stroke-width="2"/>
<rect x="1409.51" y="390.48" width="30.51" height="15.21" fill="#e74c3c" stroke="#e74c3c" stroke-width="1"/>
<text x="1424.76" y="802" font-size="11" fill="#555555" text-anchor="middle">02-21</text>
<text x="1424.76" y="818" font-size="11" fill="#555555" text-anchor="middle">17:00</text>
<line x1="553.08" y1="80.00" x2="623.08" y2="104.00" stroke="#f39c12" stroke-width="2"/>
<rect x="623.08" y="52.00" width="280" height="90" rx="10" fill="#fff8dc" stroke="#f39c12"/>
<text x="635.08" y="76.00" font-size="13" fill="#111111">15m定位时间 2025-02-21 13:00:00</text>
<text x="635.08" y="96.00" font-size="13" fill="#111111">该15m最高价 3.624000</text>
<text x="635.08" y="116.00" font-size="13" fill="#111111">10倍价横线已标出</text>
<text x="635.08" y="136.00" font-size="13" fill="#111111">竖线高亮首次触达10倍价的15m</text>
</svg>