<svg xmlns="http://www.w3.org/2000/svg" width="1500" height="860" viewBox="0 0 1500 860">
<rect width="100%" height="100%" fill="#fcfcfc"/>
<text x="90" y="38" font-size="28" font-weight="700" fill="#111111">KAITO-USDT-SWAP 15m - 10倍命中定位图</text>
<text x="90" y="68" font-size="16" fill="#555555">1H命中时间: 2025-02-21 05:00:00 | 10倍价: 2.097211 | 命中倍数: 10.4085x</text>
<line x1="90" y1="80.00" x2="1452" y2="80.00" stroke="#d9d9d9" stroke-dasharray="4 4" stroke-width="1"/>
<text x="12" y="84.00" font-size="12" fill="#555555">2.132300</text>
<line x1="90" y1="210.00" x2="1452" y2="210.00" stroke="#d9d9d9" stroke-dasharray="4 4" stroke-width="1"/>
<text x="12" y="214.00" font-size="12" fill="#555555">1.943340</text>
<line x1="90" y1="340.00" x2="1452" y2="340.00" stroke="#d9d9d9" stroke-dasharray="4 4" stroke-width="1"/>
<text x="12" y="344.00" font-size="12" fill="#555555">1.754380</text>
<line x1="90" y1="470.00" x2="1452" y2="470.00" stroke="#d9d9d9" stroke-dasharray="4 4" stroke-width="1"/>
<text x="12" y="474.00" font-size="12" fill="#555555">1.565420</text>
<line x1="90" y1="600.00" x2="1452" y2="600.00" stroke="#d9d9d9" stroke-dasharray="4 4" stroke-width="1"/>
<text x="12" y="604.00" font-size="12" fill="#555555">1.376460</text>
<line x1="90" y1="730.00" x2="1452" y2="730.00" stroke="#d9d9d9" stroke-dasharray="4 4" stroke-width="1"/>
<text x="12" y="734.00" font-size="12" fill="#555555">1.187500</text>
<rect x="634.80" y="80" width="54.48" height="650.00" fill="#f1c40f" opacity="0.16"/>
<line x1="662.04" y1="80" x2="662.04" y2="730" stroke="#f39c12" stroke-width="2" stroke-dasharray="6 4"/>
<line x1="90" y1="104.14" x2="1452" y2="104.14" stroke="#8e44ad" stroke-width="2" stroke-dasharray="8 4"/>
<text x="1444" y="96.14" font-size="13" fill="#8e44ad" text-anchor="end">10倍价 2.097211</text>
<line x1="117.24" y1="641.18" x2="117.24" y2="707.30" stroke="#2ecc71" stroke-width="2"/>
<rect x="101.99" y="660.86" width="30.51" height="33.50" fill="#2ecc71" stroke="#2ecc71" stroke-width="1"/>
<text x="117.24" y="802" font-size="11" fill="#555555" text-anchor="middle">02-21</text>
<text x="117.24" y="818" font-size="11" fill="#555555" text-anchor="middle">03:00</text>
<line x1="171.72" y1="635.20" x2="171.72" y2="695.26" stroke="#e74c3c" stroke-width="2"/>
<rect x="156.47" y="660.86" width="30.51" height="14.79" fill="#e74c3c" stroke="#e74c3c" stroke-width="1"/>
<text x="171.72" y="802" font-size="11" fill="#555555" text-anchor="middle">02-21</text>
<text x="171.72" y="818" font-size="11" fill="#555555" text-anchor="middle">03:15</text>
<line x1="226.20" y1="671.87" x2="226.20" y2="725.32" stroke="#e74c3c" stroke-width="2"/>
<rect x="210.95" y="675.65" width="30.51" height="43.00" fill="#e74c3c" stroke="#e74c3c" stroke-width="1"/>
<text x="226.20" y="802" font-size="11" fill="#555555" text-anchor="middle">02-21</text>
<text x="226.20" y="818" font-size="11" fill="#555555" text-anchor="middle">03:30</text>
<line x1="280.68" y1="687.07" x2="280.68" y2="723.26" stroke="#2ecc71" stroke-width="2"/>
<rect x="265.43" y="700.62" width="30.51" height="17.20" fill="#2ecc71" stroke="#2ecc71" stroke-width="1"/>
<text x="280.68" y="802" font-size="11" fill="#555555" text-anchor="middle">02-21</text>
<text x="280.68" y="818" font-size="11" fill="#555555" text-anchor="middle">03:45</text>
<line x1="335.16" y1="681.36" x2="335.16" y2="706.68" stroke="#2ecc71" stroke-width="2"/>
<rect x="319.91" y="697.11" width="30.51" height="3.44" fill="#2ecc71" stroke="#2ecc71" stroke-width="1"/>
<text x="335.16" y="802" font-size="11" fill="#555555" text-anchor="middle">02-21</text>
<text x="335.16" y="818" font-size="11" fill="#555555" text-anchor="middle">04:00</text>
<line x1="389.64" y1="691.34" x2="389.64" y2="730.00" stroke="#e74c3c" stroke-width="2"/>
<rect x="374.39" y="697.18" width="30.51" height="19.33" fill="#e74c3c" stroke="#e74c3c" stroke-width="1"/>
<text x="389.64" y="802" font-size="11" fill="#555555" text-anchor="middle">02-21</text>
<text x="389.64" y="818" font-size="11" fill="#555555" text-anchor="middle">04:15</text>
<line x1="444.12" y1="697.11" x2="444.12" y2="729.04" stroke="#2ecc71" stroke-width="2"/>
<rect x="428.87" y="711.01" width="30.51" height="5.99" fill="#2ecc71" stroke="#2ecc71" stroke-width="1"/>
<text x="444.12" y="802" font-size="11" fill="#555555" text-anchor="middle">02-21</text>
<text x="444.12" y="818" font-size="11" fill="#555555" text-anchor="middle">04:30</text>
<line x1="498.60" y1="671.87" x2="498.60" y2="717.55" stroke="#2ecc71" stroke-width="2"/>
<rect x="483.35" y="686.52" width="30.51" height="24.56" fill="#2ecc71" stroke="#2ecc71" stroke-width="1"/>
<text x="498.60" y="802" font-size="11" fill="#555555" text-anchor="middle">02-21</text>
<text x="498.60" y="818" font-size="11" fill="#555555" text-anchor="middle">04:45</text>
<line x1="553.08" y1="364.62" x2="553.08" y2="695.12" stroke="#2ecc71" stroke-width="2"/>
<rect x="537.83" y="455.50" width="30.51" height="231.02" fill="#2ecc71" stroke="#2ecc71" stroke-width="1"/>
<text x="553.08" y="802" font-size="11" fill="#555555" text-anchor="middle">02-21</text>
<text x="553.08" y="818" font-size="11" fill="#555555" text-anchor="middle">05:00</text>
<line x1="607.56" y1="171.02" x2="607.56" y2="473.38" stroke="#2ecc71" stroke-width="2"/>
<rect x="592.31" y="250.27" width="30.51" height="205.22" fill="#2ecc71" stroke="#2ecc71" stroke-width="1"/>
<text x="607.56" y="802" font-size="11" fill="#555555" text-anchor="middle">02-21</text>
<text x="607.56" y="818" font-size="11" fill="#555555" text-anchor="middle">05:15</text>
<line x1="662.04" y1="80.00" x2="662.04" y2="365.37" stroke="#e74c3c" stroke-width="2"/>
<rect x="646.79" y="251.51" width="30.51" height="53.18" fill="#e74c3c" stroke="#e74c3c" stroke-width="1"/>
<text x="662.04" y="802" font-size="11" fill="#555555" text-anchor="middle">02-21</text>
<text x="662.04" y="818" font-size="11" fill="#555555" text-anchor="middle">05:30</text>
<line x1="716.52" y1="285.50" x2="716.52" y2="425.50" stroke="#e74c3c" stroke-width="2"/>
<rect x="701.27" y="306.07" width="30.51" height="80.36" fill="#e74c3c" stroke="#e74c3c" stroke-width="1"/>
<text x="716.52" y="802" font-size="11" fill="#555555" text-anchor="middle">02-21</text>
<text x="716.52" y="818" font-size="11" fill="#555555" text-anchor="middle">05:45</text>
<line x1="771.00" y1="250.07" x2="771.00" y2="393.30" stroke="#2ecc71" stroke-width="2"/>
<rect x="755.75" y="298.02" width="30.51" height="88.40" fill="#2ecc71" stroke="#2ecc71" stroke-width="1"/>
<text x="771.00" y="802" font-size="11" fill="#555555" text-anchor="middle">02-21</text>
<text x="771.00" y="818" font-size="11" fill="#555555" text-anchor="middle">06:00</text>
<line x1="825.48" y1="228.67" x2="825.48" y2="316.87" stroke="#2ecc71" stroke-width="2"/>
<rect x="810.23" y="249.79" width="30.51" height="47.20" fill="#2ecc71" stroke="#2ecc71" stroke-width="1"/>
<text x="825.48" y="802" font-size="11" fill="#555555" text-anchor="middle">02-21</text>
<text x="825.48" y="818" font-size="11" fill="#555555" text-anchor="middle">06:15</text>
<line x1="879.96" y1="241.40" x2="879.96" y2="345.28" stroke="#e74c3c" stroke-width="2"/>
<rect x="864.71" y="250.14" width="30.51" height="55.38" fill="#e74c3c" stroke="#e74c3c" stroke-width="1"/>
<text x="879.96" y="802" font-size="11" fill="#555555" text-anchor="middle">02-21</text>
<text x="879.96" y="818" font-size="11" fill="#555555" text-anchor="middle">06:30</text>
<line x1="934.44" y1="287.63" x2="934.44" y2="398.05" stroke="#e74c3c" stroke-width="2"/>
<rect x="919.19" y="305.59" width="30.51" height="47.54" fill="#e74c3c" stroke="#e74c3c" stroke-width="1"/>
<text x="934.44" y="802" font-size="11" fill="#555555" text-anchor="middle">02-21</text>
<text x="934.44" y="818" font-size="11" fill="#555555" text-anchor="middle">06:45</text>
<line x1="988.92" y1="282.47" x2="988.92" y2="372.60" stroke="#2ecc71" stroke-width="2"/>
<rect x="973.67" y="316.87" width="30.51" height="36.26" fill="#2ecc71" stroke="#2ecc71" stroke-width="1"/>
<text x="988.92" y="802" font-size="11" fill="#555555" text-anchor="middle">02-21</text>
<text x="988.92" y="818" font-size="11" fill="#555555" text-anchor="middle">07:00</text>
<line x1="1043.40" y1="296.64" x2="1043.40" y2="368.33" stroke="#e74c3c" stroke-width="2"/>
<rect x="1028.15" y="317.08" width="30.51" height="38.05" fill="#e74c3c" stroke="#e74c3c" stroke-width="1"/>
<text x="1043.40" y="802" font-size="11" fill="#555555" text-anchor="middle">02-21</text>
<text x="1043.40" y="818" font-size="11" fill="#555555" text-anchor="middle">07:15</text>
<line x1="1097.88" y1="311.92" x2="1097.88" y2="363.72" stroke="#2ecc71" stroke-width="2"/>
<rect x="1082.63" y="335.86" width="30.51" height="19.81" fill="#2ecc71" stroke="#2ecc71" stroke-width="1"/>
<text x="1097.88" y="802" font-size="11" fill="#555555" text-anchor="middle">02-21</text>
<text x="1097.88" y="818" font-size="11" fill="#555555" text-anchor="middle">07:30</text>
<line x1="1152.36" y1="326.43" x2="1152.36" y2="459.97" stroke="#e74c3c" stroke-width="2"/>
<rect x="1137.11" y="336.06" width="30.51" height="83.93" fill="#e74c3c" stroke="#e74c3c" stroke-width="1"/>
<text x="1152.36" y="802" font-size="11" fill="#555555" text-anchor="middle">02-21</text>
<text x="1152.36" y="818" font-size="11" fill="#555555" text-anchor="middle">07:45</text>
<line x1="1206.84" y1="416.49" x2="1206.84" y2="543.63" stroke="#e74c3c" stroke-width="2"/>
<rect x="1191.59" y="419.38" width="30.51" height="99.69" fill="#e74c3c" stroke="#e74c3c" stroke-width="1"/>
<text x="1206.84" y="802" font-size="11" fill="#555555" text-anchor="middle">02-21</text>
<text x="1206.84" y="818" font-size="11" fill="#555555" text-anchor="middle">08:00</text>
<line x1="1261.32" y1="450.89" x2="1261.32" y2="592.13" stroke="#e74c3c" stroke-width="2"/>
<rect x="1246.07" y="519.07" width="30.51" height="66.32" fill="#e74c3c" stroke="#e74c3c" stroke-width="1"/>
<text x="1261.32" y="802" font-size="11" fill="#555555" text-anchor="middle">02-21</text>
<text x="1261.32" y="818" font-size="11" fill="#555555" text-anchor="middle">08:15</text>
<line x1="1315.80" y1="527.73" x2="1315.80" y2="601.21" stroke="#2ecc71" stroke-width="2"/>
<rect x="1300.55" y="572.38" width="30.51" height="13.97" fill="#2ecc71" stroke="#2ecc71" stroke-width="1"/>
<text x="1315.80" y="802" font-size="11" fill="#555555" text-anchor="middle">02-21</text>
<text x="1315.80" y="818" font-size="11" fill="#555555" text-anchor="middle">08:30</text>
<line x1="1370.28" y1="542.87" x2="1370.28" y2="641.94" stroke="#e74c3c" stroke-width="2"/>
<rect x="1355.03" y="573.28" width="30.51" height="48.02" fill="#e74c3c" stroke="#e74c3c" stroke-width="1"/>
<text x="1370.28" y="802" font-size="11" fill="#555555" text-anchor="middle">02-21</text>
<text x="1370.28" y="818" font-size="11" fill="#555555" text-anchor="middle">08:45</text>
<line x1="1424.76" y1="553.74" x2="1424.76" y2="645.72" stroke="#2ecc71" stroke-width="2"/>
<rect x="1409.51" y="583.53" width="30.51" height="37.22" fill="#2ecc71" stroke="#2ecc71" stroke-width="1"/>
<text x="1424.76" y="802" font-size="11" fill="#555555" text-anchor="middle">02-21</text>
<text x="1424.76" y="818" font-size="11" fill="#555555" text-anchor="middle">09:00</text>
<line x1="662.04" y1="80.00" x2="732.04" y2="104.00" stroke="#f39c12" stroke-width="2"/>
<rect x="732.04" y="52.00" width="280" height="90" rx="10" fill="#fff8dc" stroke="#f39c12"/>
<text x="744.04" y="76.00" font-size="13" fill="#111111">15m定位时间 2025-02-21 05:30:00</text>
<text x="744.04" y="96.00" font-size="13" fill="#111111">该15m最高价 2.132300</text>
<text x="744.04" y="116.00" font-size="13" fill="#111111">10倍价横线已标出</text>
<text x="744.04" y="136.00" font-size="13" fill="#111111">竖线高亮首次触达10倍价的15m</text>
</svg>