<svg xmlns="http://www.w3.org/2000/svg" width="1500" height="860" viewBox="0 0 1500 860">
<rect width="100%" height="100%" fill="#fcfcfc"/>
<text x="90" y="38" font-size="28" font-weight="700" fill="#111111">LAYER-USDT-SWAP 15m - 10倍命中定位图</text>
<text x="90" y="68" font-size="16" fill="#555555">1H命中时间: 2025-11-22 00:00:00 | 10倍价: 0.242492 | 命中倍数: 19.9623x</text>
<line x1="90" y1="80.00" x2="1452" y2="80.00" stroke="#d9d9d9" stroke-dasharray="4 4" stroke-width="1"/>
<text x="12" y="84.00" font-size="12" fill="#555555">0.291000</text>
<line x1="90" y1="210.00" x2="1452" y2="210.00" stroke="#d9d9d9" stroke-dasharray="4 4" stroke-width="1"/>
<text x="12" y="214.00" font-size="12" fill="#555555">0.270960</text>
<line x1="90" y1="340.00" x2="1452" y2="340.00" stroke="#d9d9d9" stroke-dasharray="4 4" stroke-width="1"/>
<text x="12" y="344.00" font-size="12" fill="#555555">0.250920</text>
<line x1="90" y1="470.00" x2="1452" y2="470.00" stroke="#d9d9d9" stroke-dasharray="4 4" stroke-width="1"/>
<text x="12" y="474.00" font-size="12" fill="#555555">0.230880</text>
<line x1="90" y1="600.00" x2="1452" y2="600.00" stroke="#d9d9d9" stroke-dasharray="4 4" stroke-width="1"/>
<text x="12" y="604.00" font-size="12" fill="#555555">0.210840</text>
<line x1="90" y1="730.00" x2="1452" y2="730.00" stroke="#d9d9d9" stroke-dasharray="4 4" stroke-width="1"/>
<text x="12" y="734.00" font-size="12" fill="#555555">0.190800</text>
<rect x="580.32" y="80" width="54.48" height="650.00" fill="#f1c40f" opacity="0.16"/>
<line x1="607.56" y1="80" x2="607.56" y2="730" stroke="#f39c12" stroke-width="2" stroke-dasharray="6 4"/>
<line x1="90" y1="394.67" x2="1452" y2="394.67" stroke="#8e44ad" stroke-width="2" stroke-dasharray="8 4"/>
<text x="1444" y="386.67" font-size="13" fill="#8e44ad" text-anchor="end">10倍价 0.242492</text>
<line x1="117.24" y1="717.03" x2="117.24" y2="728.05" stroke="#e74c3c" stroke-width="2"/>
<rect x="101.99" y="721.57" width="30.51" height="4.54" fill="#e74c3c" stroke="#e74c3c" stroke-width="1"/>
<text x="117.24" y="802" font-size="11" fill="#555555" text-anchor="middle">11-21</text>
<text x="117.24" y="818" font-size="11" fill="#555555" text-anchor="middle">22:00</text>
<line x1="171.72" y1="717.67" x2="171.72" y2="730.00" stroke="#2ecc71" stroke-width="2"/>
<rect x="156.47" y="720.92" width="30.51" height="5.19" fill="#2ecc71" stroke="#2ecc71" stroke-width="1"/>
<text x="171.72" y="802" font-size="11" fill="#555555" text-anchor="middle">11-21</text>
<text x="171.72" y="818" font-size="11" fill="#555555" text-anchor="middle">22:15</text>
<line x1="226.20" y1="698.21" x2="226.20" y2="721.57" stroke="#2ecc71" stroke-width="2"/>
<rect x="210.95" y="711.19" width="30.51" height="9.73" fill="#2ecc71" stroke="#2ecc71" stroke-width="1"/>
<text x="226.20" y="802" font-size="11" fill="#555555" text-anchor="middle">11-21</text>
<text x="226.20" y="818" font-size="11" fill="#555555" text-anchor="middle">22:30</text>
<line x1="280.68" y1="703.40" x2="280.68" y2="716.38" stroke="#2ecc71" stroke-width="2"/>
<rect x="265.43" y="707.94" width="30.51" height="1.95" fill="#2ecc71" stroke="#2ecc71" stroke-width="1"/>
<text x="280.68" y="802" font-size="11" fill="#555555" text-anchor="middle">11-21</text>
<text x="280.68" y="818" font-size="11" fill="#555555" text-anchor="middle">22:45</text>
<line x1="335.16" y1="705.35" x2="335.16" y2="716.38" stroke="#e74c3c" stroke-width="2"/>
<rect x="319.91" y="707.30" width="30.51" height="4.54" fill="#e74c3c" stroke="#e74c3c" stroke-width="1"/>
<text x="335.16" y="802" font-size="11" fill="#555555" text-anchor="middle">11-21</text>
<text x="335.16" y="818" font-size="11" fill="#555555" text-anchor="middle">23:00</text>
<line x1="389.64" y1="702.11" x2="389.64" y2="719.62" stroke="#2ecc71" stroke-width="2"/>
<rect x="374.39" y="705.35" width="30.51" height="7.14" fill="#2ecc71" stroke="#2ecc71" stroke-width="1"/>
<text x="389.64" y="802" font-size="11" fill="#555555" text-anchor="middle">11-21</text>
<text x="389.64" y="818" font-size="11" fill="#555555" text-anchor="middle">23:15</text>
<line x1="444.12" y1="695.62" x2="444.12" y2="712.49" stroke="#2ecc71" stroke-width="2"/>
<rect x="428.87" y="700.81" width="30.51" height="5.19" fill="#2ecc71" stroke="#2ecc71" stroke-width="1"/>
<text x="444.12" y="802" font-size="11" fill="#555555" text-anchor="middle">11-21</text>
<text x="444.12" y="818" font-size="11" fill="#555555" text-anchor="middle">23:30</text>
<line x1="498.60" y1="688.48" x2="498.60" y2="704.05" stroke="#2ecc71" stroke-width="2"/>
<rect x="483.35" y="688.48" width="30.51" height="11.03" fill="#2ecc71" stroke="#2ecc71" stroke-width="1"/>
<text x="498.60" y="802" font-size="11" fill="#555555" text-anchor="middle">11-21</text>
<text x="498.60" y="818" font-size="11" fill="#555555" text-anchor="middle">23:45</text>
<line x1="553.08" y1="682.00" x2="553.08" y2="710.54" stroke="#2ecc71" stroke-width="2"/>
<rect x="537.83" y="683.94" width="30.51" height="5.19" fill="#2ecc71" stroke="#2ecc71" stroke-width="1"/>
<text x="553.08" y="802" font-size="11" fill="#555555" text-anchor="middle">11-22</text>
<text x="553.08" y="818" font-size="11" fill="#555555" text-anchor="middle">00:00</text>
<line x1="607.56" y1="80.00" x2="607.56" y2="685.24" stroke="#2ecc71" stroke-width="2"/>
<rect x="592.31" y="565.23" width="30.51" height="118.71" fill="#2ecc71" stroke="#2ecc71" stroke-width="1"/>
<text x="607.56" y="802" font-size="11" fill="#555555" text-anchor="middle">11-22</text>
<text x="607.56" y="818" font-size="11" fill="#555555" text-anchor="middle">00:15</text>
<line x1="662.04" y1="489.98" x2="662.04" y2="618.42" stroke="#2ecc71" stroke-width="2"/>
<rect x="646.79" y="558.09" width="30.51" height="7.14" fill="#2ecc71" stroke="#2ecc71" stroke-width="1"/>
<text x="662.04" y="802" font-size="11" fill="#555555" text-anchor="middle">11-22</text>
<text x="662.04" y="818" font-size="11" fill="#555555" text-anchor="middle">00:30</text>
<line x1="716.52" y1="477.01" x2="716.52" y2="602.21" stroke="#2ecc71" stroke-width="2"/>
<rect x="701.27" y="492.57" width="30.51" height="65.52" fill="#2ecc71" stroke="#2ecc71" stroke-width="1"/>
<text x="716.52" y="802" font-size="11" fill="#555555" text-anchor="middle">11-22</text>
<text x="716.52" y="818" font-size="11" fill="#555555" text-anchor="middle">00:45</text>
<line x1="771.00" y1="391.38" x2="771.00" y2="537.34" stroke="#2ecc71" stroke-width="2"/>
<rect x="755.75" y="459.49" width="30.51" height="35.03" fill="#2ecc71" stroke="#2ecc71" stroke-width="1"/>
<text x="771.00" y="802" font-size="11" fill="#555555" text-anchor="middle">11-22</text>
<text x="771.00" y="818" font-size="11" fill="#555555" text-anchor="middle">01:00</text>
<line x1="825.48" y1="220.77" x2="825.48" y2="462.09" stroke="#2ecc71" stroke-width="2"/>
<rect x="810.23" y="400.46" width="30.51" height="59.03" fill="#2ecc71" stroke="#2ecc71" stroke-width="1"/>
<text x="825.48" y="802" font-size="11" fill="#555555" text-anchor="middle">11-22</text>
<text x="825.48" y="818" font-size="11" fill="#555555" text-anchor="middle">01:15</text>
<line x1="879.96" y1="388.13" x2="879.96" y2="454.30" stroke="#e74c3c" stroke-width="2"/>
<rect x="864.71" y="401.11" width="30.51" height="47.36" fill="#e74c3c" stroke="#e74c3c" stroke-width="1"/>
<text x="879.96" y="802" font-size="11" fill="#555555" text-anchor="middle">11-22</text>
<text x="879.96" y="818" font-size="11" fill="#555555" text-anchor="middle">01:30</text>
<line x1="934.44" y1="409.54" x2="934.44" y2="492.57" stroke="#e74c3c" stroke-width="2"/>
<rect x="919.19" y="448.46" width="30.51" height="28.54" fill="#e74c3c" stroke="#e74c3c" stroke-width="1"/>
<text x="934.44" y="802" font-size="11" fill="#555555" text-anchor="middle">11-22</text>
<text x="934.44" y="818" font-size="11" fill="#555555" text-anchor="middle">01:45</text>
<line x1="988.92" y1="469.87" x2="988.92" y2="525.66" stroke="#e74c3c" stroke-width="2"/>
<rect x="973.67" y="476.36" width="30.51" height="46.71" fill="#e74c3c" stroke="#e74c3c" stroke-width="1"/>
<text x="988.92" y="802" font-size="11" fill="#555555" text-anchor="middle">11-22</text>
<text x="988.92" y="818" font-size="11" fill="#555555" text-anchor="middle">02:00</text>
<line x1="1043.40" y1="512.04" x2="1043.40" y2="544.47" stroke="#e74c3c" stroke-width="2"/>
<rect x="1028.15" y="523.06" width="30.51" height="3.24" fill="#e74c3c" stroke="#e74c3c" stroke-width="1"/>
<text x="1043.40" y="802" font-size="11" fill="#555555" text-anchor="middle">11-22</text>
<text x="1043.40" y="818" font-size="11" fill="#555555" text-anchor="middle">02:15</text>
<line x1="1097.88" y1="504.25" x2="1097.88" y2="539.28" stroke="#2ecc71" stroke-width="2"/>
<rect x="1082.63" y="513.98" width="30.51" height="13.62" fill="#2ecc71" stroke="#2ecc71" stroke-width="1"/>
<text x="1097.88" y="802" font-size="11" fill="#555555" text-anchor="middle">11-22</text>
<text x="1097.88" y="818" font-size="11" fill="#555555" text-anchor="middle">02:30</text>
<line x1="1152.36" y1="471.82" x2="1152.36" y2="513.33" stroke="#2ecc71" stroke-width="2"/>
<rect x="1137.11" y="484.14" width="30.51" height="29.19" fill="#2ecc71" stroke="#2ecc71" stroke-width="1"/>
<text x="1152.36" y="802" font-size="11" fill="#555555" text-anchor="middle">11-22</text>
<text x="1152.36" y="818" font-size="11" fill="#555555" text-anchor="middle">02:45</text>
<line x1="1206.84" y1="481.55" x2="1206.84" y2="592.48" stroke="#e74c3c" stroke-width="2"/>
<rect x="1191.59" y="483.49" width="30.51" height="98.60" fill="#e74c3c" stroke="#e74c3c" stroke-width="1"/>
<text x="1206.84" y="802" font-size="11" fill="#555555" text-anchor="middle">11-22</text>
<text x="1206.84" y="818" font-size="11" fill="#555555" text-anchor="middle">03:00</text>
<line x1="1261.32" y1="552.26" x2="1261.32" y2="585.99" stroke="#2ecc71" stroke-width="2"/>
<rect x="1246.07" y="558.09" width="30.51" height="24.00" fill="#2ecc71" stroke="#2ecc71" stroke-width="1"/>
<text x="1261.32" y="802" font-size="11" fill="#555555" text-anchor="middle">11-22</text>
<text x="1261.32" y="818" font-size="11" fill="#555555" text-anchor="middle">03:15</text>
<line x1="1315.80" y1="523.71" x2="1315.80" y2="561.99" stroke="#2ecc71" stroke-width="2"/>
<rect x="1300.55" y="525.01" width="30.51" height="32.44" fill="#2ecc71" stroke="#2ecc71" stroke-width="1"/>
<text x="1315.80" y="802" font-size="11" fill="#555555" text-anchor="middle">11-22</text>
<text x="1315.80" y="818" font-size="11" fill="#555555" text-anchor="middle">03:30</text>
<line x1="1370.28" y1="517.23" x2="1370.28" y2="540.58" stroke="#e74c3c" stroke-width="2"/>
<rect x="1355.03" y="524.36" width="30.51" height="15.57" fill="#e74c3c" stroke="#e74c3c" stroke-width="1"/>
<text x="1370.28" y="802" font-size="11" fill="#555555" text-anchor="middle">11-22</text>
<text x="1370.28" y="818" font-size="11" fill="#555555" text-anchor="middle">03:45</text>
<line x1="1424.76" y1="528.90" x2="1424.76" y2="578.85" stroke="#e74c3c" stroke-width="2"/>
<rect x="1409.51" y="537.34" width="30.51" height="34.38" fill="#e74c3c" stroke="#e74c3c" stroke-width="1"/>
<text x="1424.76" y="802" font-size="11" fill="#555555" text-anchor="middle">11-22</text>
<text x="1424.76" y="818" font-size="11" fill="#555555" text-anchor="middle">04:00</text>
<line x1="607.56" y1="80.00" x2="677.56" y2="104.00" stroke="#f39c12" stroke-width="2"/>
<rect x="677.56" y="52.00" width="280" height="90" rx="10" fill="#fff8dc" stroke="#f39c12"/>
<text x="689.56" y="76.00" font-size="13" fill="#111111">15m定位时间 2025-11-22 00:15:00</text>
<text x="689.56" y="96.00" font-size="13" fill="#111111">该15m最高价 0.291000</text>
<text x="689.56" y="116.00" font-size="13" fill="#111111">10倍价横线已标出</text>
<text x="689.56" y="136.00" font-size="13" fill="#111111">竖线高亮首次触达10倍价的15m</text>
</svg>