<svg xmlns="http://www.w3.org/2000/svg" width="1500" height="860" viewBox="0 0 1500 860">
<rect width="100%" height="100%" fill="#fcfcfc"/>
<text x="90" y="38" font-size="28" font-weight="700" fill="#111111">LRC-USDT-SWAP 15m - 10倍命中定位图</text>
<text x="90" y="68" font-size="16" fill="#555555">1H命中时间: 2026-04-29 00:00:00 | 10倍价: 0.019118 | 命中倍数: 11.9409x</text>
<line x1="90" y1="80.00" x2="1452" y2="80.00" stroke="#d9d9d9" stroke-dasharray="4 4" stroke-width="1"/>
<text x="12" y="84.00" font-size="12" fill="#555555">0.019550</text>
<line x1="90" y1="210.00" x2="1452" y2="210.00" stroke="#d9d9d9" stroke-dasharray="4 4" stroke-width="1"/>
<text x="12" y="214.00" font-size="12" fill="#555555">0.018968</text>
<line x1="90" y1="340.00" x2="1452" y2="340.00" stroke="#d9d9d9" stroke-dasharray="4 4" stroke-width="1"/>
<text x="12" y="344.00" font-size="12" fill="#555555">0.018386</text>
<line x1="90" y1="470.00" x2="1452" y2="470.00" stroke="#d9d9d9" stroke-dasharray="4 4" stroke-width="1"/>
<text x="12" y="474.00" font-size="12" fill="#555555">0.017804</text>
<line x1="90" y1="600.00" x2="1452" y2="600.00" stroke="#d9d9d9" stroke-dasharray="4 4" stroke-width="1"/>
<text x="12" y="604.00" font-size="12" fill="#555555">0.017222</text>
<line x1="90" y1="730.00" x2="1452" y2="730.00" stroke="#d9d9d9" stroke-dasharray="4 4" stroke-width="1"/>
<text x="12" y="734.00" font-size="12" fill="#555555">0.016640</text>
<rect x="689.28" y="80" width="54.48" height="650.00" fill="#f1c40f" opacity="0.16"/>
<line x1="716.52" y1="80" x2="716.52" y2="730" stroke="#f39c12" stroke-width="2" stroke-dasharray="6 4"/>
<line x1="90" y1="176.58" x2="1452" y2="176.58" stroke="#8e44ad" stroke-width="2" stroke-dasharray="8 4"/>
<text x="1444" y="168.58" font-size="13" fill="#8e44ad" text-anchor="end">10倍价 0.019118</text>
<line x1="117.24" y1="712.13" x2="117.24" y2="716.60" stroke="#e74c3c" stroke-width="2"/>
<rect x="101.99" y="712.13" width="30.51" height="2.23" fill="#e74c3c" stroke="#e74c3c" stroke-width="1"/>
<text x="117.24" y="802" font-size="11" fill="#555555" text-anchor="middle">04-28</text>
<text x="117.24" y="818" font-size="11" fill="#555555" text-anchor="middle">22:00</text>
<line x1="171.72" y1="714.36" x2="171.72" y2="730.00" stroke="#e74c3c" stroke-width="2"/>
<rect x="156.47" y="714.36" width="30.51" height="8.93" fill="#e74c3c" stroke="#e74c3c" stroke-width="1"/>
<text x="171.72" y="802" font-size="11" fill="#555555" text-anchor="middle">04-28</text>
<text x="171.72" y="818" font-size="11" fill="#555555" text-anchor="middle">22:15</text>
<line x1="226.20" y1="714.36" x2="226.20" y2="723.30" stroke="#2ecc71" stroke-width="2"/>
<rect x="210.95" y="716.60" width="30.51" height="4.47" fill="#2ecc71" stroke="#2ecc71" stroke-width="1"/>
<text x="226.20" y="802" font-size="11" fill="#555555" text-anchor="middle">04-28</text>
<text x="226.20" y="818" font-size="11" fill="#555555" text-anchor="middle">22:30</text>
<line x1="280.68" y1="714.36" x2="280.68" y2="718.83" stroke="#2ecc71" stroke-width="2"/>
<rect x="265.43" y="714.36" width="30.51" height="2.23" fill="#2ecc71" stroke="#2ecc71" stroke-width="1"/>
<text x="280.68" y="802" font-size="11" fill="#555555" text-anchor="middle">04-28</text>
<text x="280.68" y="818" font-size="11" fill="#555555" text-anchor="middle">22:45</text>
<line x1="335.16" y1="700.96" x2="335.16" y2="712.13" stroke="#2ecc71" stroke-width="2"/>
<rect x="319.91" y="705.43" width="30.51" height="6.70" fill="#2ecc71" stroke="#2ecc71" stroke-width="1"/>
<text x="335.16" y="802" font-size="11" fill="#555555" text-anchor="middle">04-28</text>
<text x="335.16" y="818" font-size="11" fill="#555555" text-anchor="middle">23:00</text>
<line x1="389.64" y1="694.26" x2="389.64" y2="709.90" stroke="#2ecc71" stroke-width="2"/>
<rect x="374.39" y="696.49" width="30.51" height="8.93" fill="#2ecc71" stroke="#2ecc71" stroke-width="1"/>
<text x="389.64" y="802" font-size="11" fill="#555555" text-anchor="middle">04-28</text>
<text x="389.64" y="818" font-size="11" fill="#555555" text-anchor="middle">23:15</text>
<line x1="444.12" y1="685.33" x2="444.12" y2="698.73" stroke="#2ecc71" stroke-width="2"/>
<rect x="428.87" y="692.03" width="30.51" height="2.23" fill="#2ecc71" stroke="#2ecc71" stroke-width="1"/>
<text x="444.12" y="802" font-size="11" fill="#555555" text-anchor="middle">04-28</text>
<text x="444.12" y="818" font-size="11" fill="#555555" text-anchor="middle">23:30</text>
<line x1="498.60" y1="662.99" x2="498.60" y2="698.73" stroke="#2ecc71" stroke-width="2"/>
<rect x="483.35" y="665.22" width="30.51" height="26.80" fill="#2ecc71" stroke="#2ecc71" stroke-width="1"/>
<text x="498.60" y="802" font-size="11" fill="#555555" text-anchor="middle">04-28</text>
<text x="498.60" y="818" font-size="11" fill="#555555" text-anchor="middle">23:45</text>
<line x1="553.08" y1="595.98" x2="553.08" y2="674.16" stroke="#2ecc71" stroke-width="2"/>
<rect x="537.83" y="600.45" width="30.51" height="64.78" fill="#2ecc71" stroke="#2ecc71" stroke-width="1"/>
<text x="553.08" y="802" font-size="11" fill="#555555" text-anchor="middle">04-29</text>
<text x="553.08" y="818" font-size="11" fill="#555555" text-anchor="middle">00:00</text>
<line x1="607.56" y1="520.03" x2="607.56" y2="651.82" stroke="#2ecc71" stroke-width="2"/>
<rect x="592.31" y="544.60" width="30.51" height="58.08" fill="#2ecc71" stroke="#2ecc71" stroke-width="1"/>
<text x="607.56" y="802" font-size="11" fill="#555555" text-anchor="middle">04-29</text>
<text x="607.56" y="818" font-size="11" fill="#555555" text-anchor="middle">00:15</text>
<line x1="662.04" y1="287.73" x2="662.04" y2="544.60" stroke="#2ecc71" stroke-width="2"/>
<rect x="646.79" y="441.86" width="30.51" height="100.52" fill="#2ecc71" stroke="#2ecc71" stroke-width="1"/>
<text x="662.04" y="802" font-size="11" fill="#555555" text-anchor="middle">04-29</text>
<text x="662.04" y="818" font-size="11" fill="#555555" text-anchor="middle">00:30</text>
<line x1="716.52" y1="80.00" x2="716.52" y2="457.49" stroke="#2ecc71" stroke-width="2"/>
<rect x="701.27" y="334.64" width="30.51" height="107.22" fill="#2ecc71" stroke="#2ecc71" stroke-width="1"/>
<text x="716.52" y="802" font-size="11" fill="#555555" text-anchor="middle">04-29</text>
<text x="716.52" y="818" font-size="11" fill="#555555" text-anchor="middle">00:45</text>
<line x1="771.00" y1="327.94" x2="771.00" y2="493.23" stroke="#e74c3c" stroke-width="2"/>
<rect x="755.75" y="336.87" width="30.51" height="91.58" fill="#e74c3c" stroke="#e74c3c" stroke-width="1"/>
<text x="771.00" y="802" font-size="11" fill="#555555" text-anchor="middle">04-29</text>
<text x="771.00" y="818" font-size="11" fill="#555555" text-anchor="middle">01:00</text>
<line x1="825.48" y1="368.14" x2="825.48" y2="571.41" stroke="#e74c3c" stroke-width="2"/>
<rect x="810.23" y="430.69" width="30.51" height="60.31" fill="#e74c3c" stroke="#e74c3c" stroke-width="1"/>
<text x="825.48" y="802" font-size="11" fill="#555555" text-anchor="middle">04-29</text>
<text x="825.48" y="818" font-size="11" fill="#555555" text-anchor="middle">01:15</text>
<line x1="879.96" y1="401.65" x2="879.96" y2="522.27" stroke="#2ecc71" stroke-width="2"/>
<rect x="864.71" y="439.62" width="30.51" height="53.61" fill="#2ecc71" stroke="#2ecc71" stroke-width="1"/>
<text x="879.96" y="802" font-size="11" fill="#555555" text-anchor="middle">04-29</text>
<text x="879.96" y="818" font-size="11" fill="#555555" text-anchor="middle">01:30</text>
<line x1="934.44" y1="392.71" x2="934.44" y2="459.73" stroke="#2ecc71" stroke-width="2"/>
<rect x="919.19" y="426.22" width="30.51" height="11.17" fill="#2ecc71" stroke="#2ecc71" stroke-width="1"/>
<text x="934.44" y="802" font-size="11" fill="#555555" text-anchor="middle">04-29</text>
<text x="934.44" y="818" font-size="11" fill="#555555" text-anchor="middle">01:45</text>
<line x1="988.92" y1="327.94" x2="988.92" y2="432.92" stroke="#2ecc71" stroke-width="2"/>
<rect x="973.67" y="343.57" width="30.51" height="82.65" fill="#2ecc71" stroke="#2ecc71" stroke-width="1"/>
<text x="988.92" y="802" font-size="11" fill="#555555" text-anchor="middle">04-29</text>
<text x="988.92" y="818" font-size="11" fill="#555555" text-anchor="middle">02:00</text>
<line x1="1043.40" y1="319.00" x2="1043.40" y2="444.09" stroke="#e74c3c" stroke-width="2"/>
<rect x="1028.15" y="341.34" width="30.51" height="58.08" fill="#e74c3c" stroke="#e74c3c" stroke-width="1"/>
<text x="1043.40" y="802" font-size="11" fill="#555555" text-anchor="middle">04-29</text>
<text x="1043.40" y="818" font-size="11" fill="#555555" text-anchor="middle">02:15</text>
<line x1="1097.88" y1="256.46" x2="1097.88" y2="410.58" stroke="#2ecc71" stroke-width="2"/>
<rect x="1082.63" y="354.74" width="30.51" height="44.67" fill="#2ecc71" stroke="#2ecc71" stroke-width="1"/>
<text x="1097.88" y="802" font-size="11" fill="#555555" text-anchor="middle">04-29</text>
<text x="1097.88" y="818" font-size="11" fill="#555555" text-anchor="middle">02:30</text>
<line x1="1152.36" y1="323.47" x2="1152.36" y2="386.01" stroke="#2ecc71" stroke-width="2"/>
<rect x="1137.11" y="332.41" width="30.51" height="22.34" fill="#2ecc71" stroke="#2ecc71" stroke-width="1"/>
<text x="1152.36" y="802" font-size="11" fill="#555555" text-anchor="middle">04-29</text>
<text x="1152.36" y="818" font-size="11" fill="#555555" text-anchor="middle">02:45</text>
<line x1="1206.84" y1="263.16" x2="1206.84" y2="330.17" stroke="#2ecc71" stroke-width="2"/>
<rect x="1191.59" y="312.30" width="30.51" height="17.87" fill="#2ecc71" stroke="#2ecc71" stroke-width="1"/>
<text x="1206.84" y="802" font-size="11" fill="#555555" text-anchor="middle">04-29</text>
<text x="1206.84" y="818" font-size="11" fill="#555555" text-anchor="middle">03:00</text>
<line x1="1261.32" y1="276.56" x2="1261.32" y2="363.68" stroke="#2ecc71" stroke-width="2"/>
<rect x="1246.07" y="278.80" width="30.51" height="33.51" fill="#2ecc71" stroke="#2ecc71" stroke-width="1"/>
<text x="1261.32" y="802" font-size="11" fill="#555555" text-anchor="middle">04-29</text>
<text x="1261.32" y="818" font-size="11" fill="#555555" text-anchor="middle">03:15</text>
<line x1="1315.80" y1="231.89" x2="1315.80" y2="325.70" stroke="#e74c3c" stroke-width="2"/>
<rect x="1300.55" y="281.03" width="30.51" height="35.74" fill="#e74c3c" stroke="#e74c3c" stroke-width="1"/>
<text x="1315.80" y="802" font-size="11" fill="#555555" text-anchor="middle">04-29</text>
<text x="1315.80" y="818" font-size="11" fill="#555555" text-anchor="middle">03:30</text>
<line x1="1370.28" y1="287.73" x2="1370.28" y2="352.51" stroke="#e74c3c" stroke-width="2"/>
<rect x="1355.03" y="321.24" width="30.51" height="22.34" fill="#e74c3c" stroke="#e74c3c" stroke-width="1"/>
<text x="1370.28" y="802" font-size="11" fill="#555555" text-anchor="middle">04-29</text>
<text x="1370.28" y="818" font-size="11" fill="#555555" text-anchor="middle">03:45</text>
<line x1="1424.76" y1="327.94" x2="1424.76" y2="403.88" stroke="#e74c3c" stroke-width="2"/>
<rect x="1409.51" y="343.57" width="30.51" height="2.23" fill="#e74c3c" stroke="#e74c3c" stroke-width="1"/>
<text x="1424.76" y="802" font-size="11" fill="#555555" text-anchor="middle">04-29</text>
<text x="1424.76" y="818" font-size="11" fill="#555555" text-anchor="middle">04:00</text>
<line x1="716.52" y1="80.00" x2="786.52" y2="104.00" stroke="#f39c12" stroke-width="2"/>
<rect x="786.52" y="52.00" width="280" height="90" rx="10" fill="#fff8dc" stroke="#f39c12"/>
<text x="798.52" y="76.00" font-size="13" fill="#111111">15m定位时间 2026-04-29 00:45:00</text>
<text x="798.52" y="96.00" font-size="13" fill="#111111">该15m最高价 0.019550</text>
<text x="798.52" y="116.00" font-size="13" fill="#111111">10倍价横线已标出</text>
<text x="798.52" y="136.00" font-size="13" fill="#111111">竖线高亮首次触达10倍价的15m</text>
</svg>