<svg xmlns="http://www.w3.org/2000/svg" width="1500" height="860" viewBox="0 0 1500 860">
<rect width="100%" height="100%" fill="#fcfcfc"/>
<text x="90" y="38" font-size="28" font-weight="700" fill="#111111">MAGIC-USDT-SWAP 15m - 10倍命中定位图</text>
<text x="90" y="68" font-size="16" fill="#555555">1H命中时间: 2025-12-09 06:00:00 | 10倍价: 0.114964 | 命中倍数: 17.5794x</text>
<line x1="90" y1="80.00" x2="1452" y2="80.00" stroke="#d9d9d9" stroke-dasharray="4 4" stroke-width="1"/>
<text x="12" y="84.00" font-size="12" fill="#555555">0.128300</text>
<line x1="90" y1="210.00" x2="1452" y2="210.00" stroke="#d9d9d9" stroke-dasharray="4 4" stroke-width="1"/>
<text x="12" y="214.00" font-size="12" fill="#555555">0.121782</text>
<line x1="90" y1="340.00" x2="1452" y2="340.00" stroke="#d9d9d9" stroke-dasharray="4 4" stroke-width="1"/>
<text x="12" y="344.00" font-size="12" fill="#555555">0.115264</text>
<line x1="90" y1="470.00" x2="1452" y2="470.00" stroke="#d9d9d9" stroke-dasharray="4 4" stroke-width="1"/>
<text x="12" y="474.00" font-size="12" fill="#555555">0.108746</text>
<line x1="90" y1="600.00" x2="1452" y2="600.00" stroke="#d9d9d9" stroke-dasharray="4 4" stroke-width="1"/>
<text x="12" y="604.00" font-size="12" fill="#555555">0.102228</text>
<line x1="90" y1="730.00" x2="1452" y2="730.00" stroke="#d9d9d9" stroke-dasharray="4 4" stroke-width="1"/>
<text x="12" y="734.00" font-size="12" fill="#555555">0.095710</text>
<rect x="525.84" y="80" width="54.48" height="650.00" fill="#f1c40f" opacity="0.16"/>
<line x1="553.08" y1="80" x2="553.08" y2="730" stroke="#f39c12" stroke-width="2" stroke-dasharray="6 4"/>
<line x1="90" y1="345.97" x2="1452" y2="345.97" stroke="#8e44ad" stroke-width="2" stroke-dasharray="8 4"/>
<text x="1444" y="337.97" font-size="13" fill="#8e44ad" text-anchor="end">10倍价 0.114964</text>
<line x1="117.24" y1="718.03" x2="117.24" y2="726.61" stroke="#2ecc71" stroke-width="2"/>
<rect x="101.99" y="722.82" width="30.51" height="2.59" fill="#2ecc71" stroke="#2ecc71" stroke-width="1"/>
<text x="117.24" y="802" font-size="11" fill="#555555" text-anchor="middle">12-09</text>
<text x="117.24" y="818" font-size="11" fill="#555555" text-anchor="middle">04:00</text>
<line x1="171.72" y1="717.83" x2="171.72" y2="724.61" stroke="#e74c3c" stroke-width="2"/>
<rect x="156.47" y="722.82" width="30.51" height="1.20" fill="#e74c3c" stroke="#e74c3c" stroke-width="1"/>
<text x="171.72" y="802" font-size="11" fill="#555555" text-anchor="middle">12-09</text>
<text x="171.72" y="818" font-size="11" fill="#555555" text-anchor="middle">04:15</text>
<line x1="226.20" y1="718.23" x2="226.20" y2="730.00" stroke="#2ecc71" stroke-width="2"/>
<rect x="210.95" y="719.03" width="30.51" height="4.39" fill="#2ecc71" stroke="#2ecc71" stroke-width="1"/>
<text x="226.20" y="802" font-size="11" fill="#555555" text-anchor="middle">12-09</text>
<text x="226.20" y="818" font-size="11" fill="#555555" text-anchor="middle">04:30</text>
<line x1="280.68" y1="706.47" x2="280.68" y2="719.83" stroke="#2ecc71" stroke-width="2"/>
<rect x="265.43" y="712.05" width="30.51" height="6.58" fill="#2ecc71" stroke="#2ecc71" stroke-width="1"/>
<text x="280.68" y="802" font-size="11" fill="#555555" text-anchor="middle">12-09</text>
<text x="280.68" y="818" font-size="11" fill="#555555" text-anchor="middle">04:45</text>
<line x1="335.16" y1="707.26" x2="335.16" y2="718.83" stroke="#e74c3c" stroke-width="2"/>
<rect x="319.91" y="711.25" width="30.51" height="7.18" fill="#e74c3c" stroke="#e74c3c" stroke-width="1"/>
<text x="335.16" y="802" font-size="11" fill="#555555" text-anchor="middle">12-09</text>
<text x="335.16" y="818" font-size="11" fill="#555555" text-anchor="middle">05:00</text>
<line x1="389.64" y1="710.06" x2="389.64" y2="718.83" stroke="#2ecc71" stroke-width="2"/>
<rect x="374.39" y="711.45" width="30.51" height="6.18" fill="#2ecc71" stroke="#2ecc71" stroke-width="1"/>
<text x="389.64" y="802" font-size="11" fill="#555555" text-anchor="middle">12-09</text>
<text x="389.64" y="818" font-size="11" fill="#555555" text-anchor="middle">05:15</text>
<line x1="444.12" y1="704.47" x2="444.12" y2="711.65" stroke="#2ecc71" stroke-width="2"/>
<rect x="428.87" y="705.67" width="30.51" height="5.98" fill="#2ecc71" stroke="#2ecc71" stroke-width="1"/>
<text x="444.12" y="802" font-size="11" fill="#555555" text-anchor="middle">12-09</text>
<text x="444.12" y="818" font-size="11" fill="#555555" text-anchor="middle">05:30</text>
<line x1="498.60" y1="684.13" x2="498.60" y2="708.26" stroke="#2ecc71" stroke-width="2"/>
<rect x="483.35" y="689.71" width="30.51" height="16.35" fill="#2ecc71" stroke="#2ecc71" stroke-width="1"/>
<text x="498.60" y="802" font-size="11" fill="#555555" text-anchor="middle">12-09</text>
<text x="498.60" y="818" font-size="11" fill="#555555" text-anchor="middle">05:45</text>
<line x1="553.08" y1="80.00" x2="553.08" y2="696.89" stroke="#2ecc71" stroke-width="2"/>
<rect x="537.83" y="539.53" width="30.51" height="150.18" fill="#2ecc71" stroke="#2ecc71" stroke-width="1"/>
<text x="553.08" y="802" font-size="11" fill="#555555" text-anchor="middle">12-09</text>
<text x="553.08" y="818" font-size="11" fill="#555555" text-anchor="middle">06:00</text>
<line x1="607.56" y1="488.47" x2="607.56" y2="599.56" stroke="#e74c3c" stroke-width="2"/>
<rect x="592.31" y="538.73" width="30.51" height="26.93" fill="#e74c3c" stroke="#e74c3c" stroke-width="1"/>
<text x="607.56" y="802" font-size="11" fill="#555555" text-anchor="middle">12-09</text>
<text x="607.56" y="818" font-size="11" fill="#555555" text-anchor="middle">06:15</text>
<line x1="662.04" y1="399.52" x2="662.04" y2="574.63" stroke="#2ecc71" stroke-width="2"/>
<rect x="646.79" y="474.91" width="30.51" height="89.35" fill="#2ecc71" stroke="#2ecc71" stroke-width="1"/>
<text x="662.04" y="802" font-size="11" fill="#555555" text-anchor="middle">12-09</text>
<text x="662.04" y="818" font-size="11" fill="#555555" text-anchor="middle">06:30</text>
<line x1="716.52" y1="392.53" x2="716.52" y2="528.36" stroke="#2ecc71" stroke-width="2"/>
<rect x="701.27" y="432.42" width="30.51" height="41.68" fill="#2ecc71" stroke="#2ecc71" stroke-width="1"/>
<text x="716.52" y="802" font-size="11" fill="#555555" text-anchor="middle">12-09</text>
<text x="716.52" y="818" font-size="11" fill="#555555" text-anchor="middle">06:45</text>
<line x1="771.00" y1="370.79" x2="771.00" y2="519.78" stroke="#e74c3c" stroke-width="2"/>
<rect x="755.75" y="432.42" width="30.51" height="22.34" fill="#e74c3c" stroke="#e74c3c" stroke-width="1"/>
<text x="771.00" y="802" font-size="11" fill="#555555" text-anchor="middle">12-09</text>
<text x="771.00" y="818" font-size="11" fill="#555555" text-anchor="middle">07:00</text>
<line x1="825.48" y1="398.52" x2="825.48" y2="473.91" stroke="#2ecc71" stroke-width="2"/>
<rect x="810.23" y="408.89" width="30.51" height="45.47" fill="#2ecc71" stroke="#2ecc71" stroke-width="1"/>
<text x="825.48" y="802" font-size="11" fill="#555555" text-anchor="middle">12-09</text>
<text x="825.48" y="818" font-size="11" fill="#555555" text-anchor="middle">07:15</text>
<line x1="879.96" y1="328.11" x2="879.96" y2="499.84" stroke="#e74c3c" stroke-width="2"/>
<rect x="864.71" y="410.09" width="30.51" height="69.61" fill="#e74c3c" stroke="#e74c3c" stroke-width="1"/>
<text x="879.96" y="802" font-size="11" fill="#555555" text-anchor="middle">12-09</text>
<text x="879.96" y="818" font-size="11" fill="#555555" text-anchor="middle">07:30</text>
<line x1="934.44" y1="432.03" x2="934.44" y2="524.57" stroke="#2ecc71" stroke-width="2"/>
<rect x="919.19" y="474.11" width="30.51" height="4.99" fill="#2ecc71" stroke="#2ecc71" stroke-width="1"/>
<text x="934.44" y="802" font-size="11" fill="#555555" text-anchor="middle">12-09</text>
<text x="934.44" y="818" font-size="11" fill="#555555" text-anchor="middle">07:45</text>
<line x1="988.92" y1="473.31" x2="988.92" y2="553.09" stroke="#e74c3c" stroke-width="2"/>
<rect x="973.67" y="475.11" width="30.51" height="25.53" fill="#e74c3c" stroke="#e74c3c" stroke-width="1"/>
<text x="988.92" y="802" font-size="11" fill="#555555" text-anchor="middle">12-09</text>
<text x="988.92" y="818" font-size="11" fill="#555555" text-anchor="middle">08:00</text>
<line x1="1043.40" y1="484.88" x2="1043.40" y2="526.16" stroke="#2ecc71" stroke-width="2"/>
<rect x="1028.15" y="495.05" width="30.51" height="5.58" fill="#2ecc71" stroke="#2ecc71" stroke-width="1"/>
<text x="1043.40" y="802" font-size="11" fill="#555555" text-anchor="middle">12-09</text>
<text x="1043.40" y="818" font-size="11" fill="#555555" text-anchor="middle">08:15</text>
<line x1="1097.88" y1="475.50" x2="1097.88" y2="552.89" stroke="#e74c3c" stroke-width="2"/>
<rect x="1082.63" y="494.45" width="30.51" height="42.28" fill="#e74c3c" stroke="#e74c3c" stroke-width="1"/>
<text x="1097.88" y="802" font-size="11" fill="#555555" text-anchor="middle">12-09</text>
<text x="1097.88" y="818" font-size="11" fill="#555555" text-anchor="middle">08:30</text>
<line x1="1152.36" y1="503.63" x2="1152.36" y2="546.51" stroke="#e74c3c" stroke-width="2"/>
<rect x="1137.11" y="535.74" width="30.51" height="1.60" fill="#e74c3c" stroke="#e74c3c" stroke-width="1"/>
<text x="1152.36" y="802" font-size="11" fill="#555555" text-anchor="middle">12-09</text>
<text x="1152.36" y="818" font-size="11" fill="#555555" text-anchor="middle">08:45</text>
<line x1="1206.84" y1="502.23" x2="1206.84" y2="564.26" stroke="#e74c3c" stroke-width="2"/>
<rect x="1191.59" y="536.74" width="30.51" height="19.55" fill="#e74c3c" stroke="#e74c3c" stroke-width="1"/>
<text x="1206.84" y="802" font-size="11" fill="#555555" text-anchor="middle">12-09</text>
<text x="1206.84" y="818" font-size="11" fill="#555555" text-anchor="middle">09:00</text>
<line x1="1261.32" y1="521.18" x2="1261.32" y2="563.86" stroke="#2ecc71" stroke-width="2"/>
<rect x="1246.07" y="543.92" width="30.51" height="11.17" fill="#2ecc71" stroke="#2ecc71" stroke-width="1"/>
<text x="1261.32" y="802" font-size="11" fill="#555555" text-anchor="middle">12-09</text>
<text x="1261.32" y="818" font-size="11" fill="#555555" text-anchor="middle">09:15</text>
<line x1="1315.80" y1="516.39" x2="1315.80" y2="554.49" stroke="#2ecc71" stroke-width="2"/>
<rect x="1300.55" y="524.17" width="30.51" height="20.74" fill="#2ecc71" stroke="#2ecc71" stroke-width="1"/>
<text x="1315.80" y="802" font-size="11" fill="#555555" text-anchor="middle">12-09</text>
<text x="1315.80" y="818" font-size="11" fill="#555555" text-anchor="middle">09:30</text>
<line x1="1370.28" y1="466.13" x2="1370.28" y2="528.96" stroke="#2ecc71" stroke-width="2"/>
<rect x="1355.03" y="473.51" width="30.51" height="49.66" fill="#2ecc71" stroke="#2ecc71" stroke-width="1"/>
<text x="1370.28" y="802" font-size="11" fill="#555555" text-anchor="middle">12-09</text>
<text x="1370.28" y="818" font-size="11" fill="#555555" text-anchor="middle">09:45</text>
<line x1="1424.76" y1="451.37" x2="1424.76" y2="492.66" stroke="#e74c3c" stroke-width="2"/>
<rect x="1409.51" y="473.91" width="30.51" height="14.16" fill="#e74c3c" stroke="#e74c3c" stroke-width="1"/>
<text x="1424.76" y="802" font-size="11" fill="#555555" text-anchor="middle">12-09</text>
<text x="1424.76" y="818" font-size="11" fill="#555555" text-anchor="middle">10:00</text>
<line x1="553.08" y1="80.00" x2="623.08" y2="104.00" stroke="#f39c12" stroke-width="2"/>
<rect x="623.08" y="52.00" width="280" height="90" rx="10" fill="#fff8dc" stroke="#f39c12"/>
<text x="635.08" y="76.00" font-size="13" fill="#111111">15m定位时间 2025-12-09 06:00:00</text>
<text x="635.08" y="96.00" font-size="13" fill="#111111">该15m最高价 0.128300</text>
<text x="635.08" y="116.00" font-size="13" fill="#111111">10倍价横线已标出</text>
<text x="635.08" y="136.00" font-size="13" fill="#111111">竖线高亮首次触达10倍价的15m</text>
</svg>