<svg xmlns="http://www.w3.org/2000/svg" width="1500" height="860" viewBox="0 0 1500 860">
<rect width="100%" height="100%" fill="#fcfcfc"/>
<text x="90" y="38" font-size="28" font-weight="700" fill="#111111">MMT-USDT-SWAP 15m - 10倍命中定位图</text>
<text x="90" y="68" font-size="16" fill="#555555">1H命中时间: 2026-04-05 20:00:00 | 10倍价: 0.146769 | 命中倍数: 12.7672x</text>
<line x1="90" y1="80.00" x2="1452" y2="80.00" stroke="#d9d9d9" stroke-dasharray="4 4" stroke-width="1"/>
<text x="12" y="84.00" font-size="12" fill="#555555">0.159400</text>
<line x1="90" y1="210.00" x2="1452" y2="210.00" stroke="#d9d9d9" stroke-dasharray="4 4" stroke-width="1"/>
<text x="12" y="214.00" font-size="12" fill="#555555">0.150180</text>
<line x1="90" y1="340.00" x2="1452" y2="340.00" stroke="#d9d9d9" stroke-dasharray="4 4" stroke-width="1"/>
<text x="12" y="344.00" font-size="12" fill="#555555">0.140960</text>
<line x1="90" y1="470.00" x2="1452" y2="470.00" stroke="#d9d9d9" stroke-dasharray="4 4" stroke-width="1"/>
<text x="12" y="474.00" font-size="12" fill="#555555">0.131740</text>
<line x1="90" y1="600.00" x2="1452" y2="600.00" stroke="#d9d9d9" stroke-dasharray="4 4" stroke-width="1"/>
<text x="12" y="604.00" font-size="12" fill="#555555">0.122520</text>
<line x1="90" y1="730.00" x2="1452" y2="730.00" stroke="#d9d9d9" stroke-dasharray="4 4" stroke-width="1"/>
<text x="12" y="734.00" font-size="12" fill="#555555">0.113300</text>
<rect x="580.32" y="80" width="54.48" height="650.00" fill="#f1c40f" opacity="0.16"/>
<line x1="607.56" y1="80" x2="607.56" y2="730" stroke="#f39c12" stroke-width="2" stroke-dasharray="6 4"/>
<line x1="90" y1="258.10" x2="1452" y2="258.10" stroke="#8e44ad" stroke-width="2" stroke-dasharray="8 4"/>
<text x="1444" y="250.10" font-size="13" fill="#8e44ad" text-anchor="end">10倍价 0.146769</text>
<line x1="117.24" y1="701.80" x2="117.24" y2="718.72" stroke="#e74c3c" stroke-width="2"/>
<rect x="101.99" y="707.44" width="30.51" height="7.05" fill="#e74c3c" stroke="#e74c3c" stroke-width="1"/>
<text x="117.24" y="802" font-size="11" fill="#555555" text-anchor="middle">04-05</text>
<text x="117.24" y="818" font-size="11" fill="#555555" text-anchor="middle">18:00</text>
<line x1="171.72" y1="707.44" x2="171.72" y2="721.54" stroke="#e74c3c" stroke-width="2"/>
<rect x="156.47" y="715.90" width="30.51" height="4.23" fill="#e74c3c" stroke="#e74c3c" stroke-width="1"/>
<text x="171.72" y="802" font-size="11" fill="#555555" text-anchor="middle">04-05</text>
<text x="171.72" y="818" font-size="11" fill="#555555" text-anchor="middle">18:15</text>
<line x1="226.20" y1="701.80" x2="226.20" y2="730.00" stroke="#2ecc71" stroke-width="2"/>
<rect x="210.95" y="703.21" width="30.51" height="15.51" fill="#2ecc71" stroke="#2ecc71" stroke-width="1"/>
<text x="226.20" y="802" font-size="11" fill="#555555" text-anchor="middle">04-05</text>
<text x="226.20" y="818" font-size="11" fill="#555555" text-anchor="middle">18:30</text>
<line x1="280.68" y1="693.34" x2="280.68" y2="714.49" stroke="#2ecc71" stroke-width="2"/>
<rect x="265.43" y="703.21" width="30.51" height="1.20" fill="#2ecc71" stroke="#2ecc71" stroke-width="1"/>
<text x="280.68" y="802" font-size="11" fill="#555555" text-anchor="middle">04-05</text>
<text x="280.68" y="818" font-size="11" fill="#555555" text-anchor="middle">18:45</text>
<line x1="335.16" y1="690.52" x2="335.16" y2="707.44" stroke="#2ecc71" stroke-width="2"/>
<rect x="319.91" y="690.52" width="30.51" height="12.69" fill="#2ecc71" stroke="#2ecc71" stroke-width="1"/>
<text x="335.16" y="802" font-size="11" fill="#555555" text-anchor="middle">04-05</text>
<text x="335.16" y="818" font-size="11" fill="#555555" text-anchor="middle">19:00</text>
<line x1="389.64" y1="670.78" x2="389.64" y2="700.39" stroke="#2ecc71" stroke-width="2"/>
<rect x="374.39" y="672.19" width="30.51" height="19.74" fill="#2ecc71" stroke="#2ecc71" stroke-width="1"/>
<text x="389.64" y="802" font-size="11" fill="#555555" text-anchor="middle">04-05</text>
<text x="389.64" y="818" font-size="11" fill="#555555" text-anchor="middle">19:15</text>
<line x1="444.12" y1="667.96" x2="444.12" y2="693.34" stroke="#e74c3c" stroke-width="2"/>
<rect x="428.87" y="672.19" width="30.51" height="12.69" fill="#e74c3c" stroke="#e74c3c" stroke-width="1"/>
<text x="444.12" y="802" font-size="11" fill="#555555" text-anchor="middle">04-05</text>
<text x="444.12" y="818" font-size="11" fill="#555555" text-anchor="middle">19:30</text>
<line x1="498.60" y1="665.14" x2="498.60" y2="689.11" stroke="#2ecc71" stroke-width="2"/>
<rect x="483.35" y="679.24" width="30.51" height="5.64" fill="#2ecc71" stroke="#2ecc71" stroke-width="1"/>
<text x="498.60" y="802" font-size="11" fill="#555555" text-anchor="middle">04-05</text>
<text x="498.60" y="818" font-size="11" fill="#555555" text-anchor="middle">19:45</text>
<line x1="553.08" y1="466.33" x2="553.08" y2="687.70" stroke="#2ecc71" stroke-width="2"/>
<rect x="537.83" y="500.17" width="30.51" height="177.66" fill="#2ecc71" stroke="#2ecc71" stroke-width="1"/>
<text x="553.08" y="802" font-size="11" fill="#555555" text-anchor="middle">04-05</text>
<text x="553.08" y="818" font-size="11" fill="#555555" text-anchor="middle">20:00</text>
<line x1="607.56" y1="252.02" x2="607.56" y2="507.22" stroke="#2ecc71" stroke-width="2"/>
<rect x="592.31" y="301.37" width="30.51" height="200.22" fill="#2ecc71" stroke="#2ecc71" stroke-width="1"/>
<text x="607.56" y="802" font-size="11" fill="#555555" text-anchor="middle">04-05</text>
<text x="607.56" y="818" font-size="11" fill="#555555" text-anchor="middle">20:15</text>
<line x1="662.04" y1="244.97" x2="662.04" y2="383.15" stroke="#2ecc71" stroke-width="2"/>
<rect x="646.79" y="284.45" width="30.51" height="18.33" fill="#2ecc71" stroke="#2ecc71" stroke-width="1"/>
<text x="662.04" y="802" font-size="11" fill="#555555" text-anchor="middle">04-05</text>
<text x="662.04" y="818" font-size="11" fill="#555555" text-anchor="middle">20:30</text>
<line x1="716.52" y1="139.22" x2="716.52" y2="285.86" stroke="#2ecc71" stroke-width="2"/>
<rect x="701.27" y="184.34" width="30.51" height="98.70" fill="#2ecc71" stroke="#2ecc71" stroke-width="1"/>
<text x="716.52" y="802" font-size="11" fill="#555555" text-anchor="middle">04-05</text>
<text x="716.52" y="818" font-size="11" fill="#555555" text-anchor="middle">20:45</text>
<line x1="771.00" y1="99.74" x2="771.00" y2="230.87" stroke="#e74c3c" stroke-width="2"/>
<rect x="755.75" y="185.75" width="30.51" height="31.02" fill="#e74c3c" stroke="#e74c3c" stroke-width="1"/>
<text x="771.00" y="802" font-size="11" fill="#555555" text-anchor="middle">04-05</text>
<text x="771.00" y="818" font-size="11" fill="#555555" text-anchor="middle">21:00</text>
<line x1="825.48" y1="80.00" x2="825.48" y2="246.38" stroke="#e74c3c" stroke-width="2"/>
<rect x="810.23" y="215.36" width="30.51" height="4.23" fill="#e74c3c" stroke="#e74c3c" stroke-width="1"/>
<text x="825.48" y="802" font-size="11" fill="#555555" text-anchor="middle">04-05</text>
<text x="825.48" y="818" font-size="11" fill="#555555" text-anchor="middle">21:15</text>
<line x1="879.96" y1="144.86" x2="879.96" y2="225.23" stroke="#2ecc71" stroke-width="2"/>
<rect x="864.71" y="205.49" width="30.51" height="14.10" fill="#2ecc71" stroke="#2ecc71" stroke-width="1"/>
<text x="879.96" y="802" font-size="11" fill="#555555" text-anchor="middle">04-05</text>
<text x="879.96" y="818" font-size="11" fill="#555555" text-anchor="middle">21:30</text>
<line x1="934.44" y1="161.78" x2="934.44" y2="226.64" stroke="#2ecc71" stroke-width="2"/>
<rect x="919.19" y="192.80" width="30.51" height="14.10" fill="#2ecc71" stroke="#2ecc71" stroke-width="1"/>
<text x="934.44" y="802" font-size="11" fill="#555555" text-anchor="middle">04-05</text>
<text x="934.44" y="818" font-size="11" fill="#555555" text-anchor="middle">21:45</text>
<line x1="988.92" y1="119.48" x2="988.92" y2="197.03" stroke="#2ecc71" stroke-width="2"/>
<rect x="973.67" y="156.14" width="30.51" height="36.66" fill="#2ecc71" stroke="#2ecc71" stroke-width="1"/>
<text x="988.92" y="802" font-size="11" fill="#555555" text-anchor="middle">04-05</text>
<text x="988.92" y="818" font-size="11" fill="#555555" text-anchor="middle">22:00</text>
<line x1="1043.40" y1="130.76" x2="1043.40" y2="257.66" stroke="#e74c3c" stroke-width="2"/>
<rect x="1028.15" y="156.14" width="30.51" height="66.27" fill="#e74c3c" stroke="#e74c3c" stroke-width="1"/>
<text x="1043.40" y="802" font-size="11" fill="#555555" text-anchor="middle">04-05</text>
<text x="1043.40" y="818" font-size="11" fill="#555555" text-anchor="middle">22:15</text>
<line x1="1097.88" y1="205.49" x2="1097.88" y2="321.11" stroke="#e74c3c" stroke-width="2"/>
<rect x="1082.63" y="222.41" width="30.51" height="33.84" fill="#e74c3c" stroke="#e74c3c" stroke-width="1"/>
<text x="1097.88" y="802" font-size="11" fill="#555555" text-anchor="middle">04-05</text>
<text x="1097.88" y="818" font-size="11" fill="#555555" text-anchor="middle">22:30</text>
<line x1="1152.36" y1="213.95" x2="1152.36" y2="261.89" stroke="#2ecc71" stroke-width="2"/>
<rect x="1137.11" y="249.20" width="30.51" height="8.46" fill="#2ecc71" stroke="#2ecc71" stroke-width="1"/>
<text x="1152.36" y="802" font-size="11" fill="#555555" text-anchor="middle">04-05</text>
<text x="1152.36" y="818" font-size="11" fill="#555555" text-anchor="middle">22:45</text>
<line x1="1206.84" y1="222.41" x2="1206.84" y2="290.09" stroke="#e74c3c" stroke-width="2"/>
<rect x="1191.59" y="249.20" width="30.51" height="21.15" fill="#e74c3c" stroke="#e74c3c" stroke-width="1"/>
<text x="1206.84" y="802" font-size="11" fill="#555555" text-anchor="middle">04-05</text>
<text x="1206.84" y="818" font-size="11" fill="#555555" text-anchor="middle">23:00</text>
<line x1="1261.32" y1="229.46" x2="1261.32" y2="319.70" stroke="#2ecc71" stroke-width="2"/>
<rect x="1246.07" y="259.07" width="30.51" height="11.28" fill="#2ecc71" stroke="#2ecc71" stroke-width="1"/>
<text x="1261.32" y="802" font-size="11" fill="#555555" text-anchor="middle">04-05</text>
<text x="1261.32" y="818" font-size="11" fill="#555555" text-anchor="middle">23:15</text>
<line x1="1315.80" y1="243.56" x2="1315.80" y2="285.86" stroke="#e74c3c" stroke-width="2"/>
<rect x="1300.55" y="257.66" width="30.51" height="8.46" fill="#e74c3c" stroke="#e74c3c" stroke-width="1"/>
<text x="1315.80" y="802" font-size="11" fill="#555555" text-anchor="middle">04-05</text>
<text x="1315.80" y="818" font-size="11" fill="#555555" text-anchor="middle">23:30</text>
<line x1="1370.28" y1="170.24" x2="1370.28" y2="277.40" stroke="#2ecc71" stroke-width="2"/>
<rect x="1355.03" y="192.80" width="30.51" height="71.91" fill="#2ecc71" stroke="#2ecc71" stroke-width="1"/>
<text x="1370.28" y="802" font-size="11" fill="#555555" text-anchor="middle">04-05</text>
<text x="1370.28" y="818" font-size="11" fill="#555555" text-anchor="middle">23:45</text>
<line x1="1424.76" y1="192.80" x2="1424.76" y2="309.83" stroke="#e74c3c" stroke-width="2"/>
<rect x="1409.51" y="194.21" width="30.51" height="80.37" fill="#e74c3c" stroke="#e74c3c" stroke-width="1"/>
<text x="1424.76" y="802" font-size="11" fill="#555555" text-anchor="middle">04-06</text>
<text x="1424.76" y="818" font-size="11" fill="#555555" text-anchor="middle">00:00</text>
<line x1="607.56" y1="252.02" x2="677.56" y2="162.02" stroke="#f39c12" stroke-width="2"/>
<rect x="677.56" y="110.02" width="280" height="90" rx="10" fill="#fff8dc" stroke="#f39c12"/>
<text x="689.56" y="134.02" font-size="13" fill="#111111">15m定位时间 2026-04-05 20:15:00</text>
<text x="689.56" y="154.02" font-size="13" fill="#111111">该15m最高价 0.147200</text>
<text x="689.56" y="174.02" font-size="13" fill="#111111">10倍价横线已标出</text>
<text x="689.56" y="194.02" font-size="13" fill="#111111">竖线高亮首次触达10倍价的15m</text>
</svg>