<svg xmlns="http://www.w3.org/2000/svg" width="1500" height="860" viewBox="0 0 1500 860">
<rect width="100%" height="100%" fill="#fcfcfc"/>
<text x="90" y="38" font-size="28" font-weight="700" fill="#111111">MON-USDT-SWAP 15m - 10倍命中定位图</text>
<text x="90" y="68" font-size="16" fill="#555555">1H命中时间: 2025-11-05 05:00:00 | 10倍价: 0.073944 | 命中倍数: 11.8870x</text>
<line x1="90" y1="80.00" x2="1452" y2="80.00" stroke="#d9d9d9" stroke-dasharray="4 4" stroke-width="1"/>
<text x="12" y="84.00" font-size="12" fill="#555555">0.080000</text>
<line x1="90" y1="210.00" x2="1452" y2="210.00" stroke="#d9d9d9" stroke-dasharray="4 4" stroke-width="1"/>
<text x="12" y="214.00" font-size="12" fill="#555555">0.072074</text>
<line x1="90" y1="340.00" x2="1452" y2="340.00" stroke="#d9d9d9" stroke-dasharray="4 4" stroke-width="1"/>
<text x="12" y="344.00" font-size="12" fill="#555555">0.064148</text>
<line x1="90" y1="470.00" x2="1452" y2="470.00" stroke="#d9d9d9" stroke-dasharray="4 4" stroke-width="1"/>
<text x="12" y="474.00" font-size="12" fill="#555555">0.056222</text>
<line x1="90" y1="600.00" x2="1452" y2="600.00" stroke="#d9d9d9" stroke-dasharray="4 4" stroke-width="1"/>
<text x="12" y="604.00" font-size="12" fill="#555555">0.048296</text>
<line x1="90" y1="730.00" x2="1452" y2="730.00" stroke="#d9d9d9" stroke-dasharray="4 4" stroke-width="1"/>
<text x="12" y="734.00" font-size="12" fill="#555555">0.040370</text>
<rect x="525.84" y="80" width="54.48" height="650.00" fill="#f1c40f" opacity="0.16"/>
<line x1="553.08" y1="80" x2="553.08" y2="730" stroke="#f39c12" stroke-width="2" stroke-dasharray="6 4"/>
<line x1="90" y1="179.33" x2="1452" y2="179.33" stroke="#8e44ad" stroke-width="2" stroke-dasharray="8 4"/>
<text x="1444" y="171.33" font-size="13" fill="#8e44ad" text-anchor="end">10倍价 0.073944</text>
<line x1="117.24" y1="676.37" x2="117.24" y2="693.42" stroke="#e74c3c" stroke-width="2"/>
<rect x="101.99" y="676.37" width="30.51" height="13.94" fill="#e74c3c" stroke="#e74c3c" stroke-width="1"/>
<text x="117.24" y="802" font-size="11" fill="#555555" text-anchor="middle">11-05</text>
<text x="117.24" y="818" font-size="11" fill="#555555" text-anchor="middle">03:00</text>
<line x1="171.72" y1="682.76" x2="171.72" y2="695.88" stroke="#2ecc71" stroke-width="2"/>
<rect x="156.47" y="687.85" width="30.51" height="1.97" fill="#2ecc71" stroke="#2ecc71" stroke-width="1"/>
<text x="171.72" y="802" font-size="11" fill="#555555" text-anchor="middle">11-05</text>
<text x="171.72" y="818" font-size="11" fill="#555555" text-anchor="middle">03:15</text>
<line x1="226.20" y1="688.50" x2="226.20" y2="699.98" stroke="#e74c3c" stroke-width="2"/>
<rect x="210.95" y="688.50" width="30.51" height="8.20" fill="#e74c3c" stroke="#e74c3c" stroke-width="1"/>
<text x="226.20" y="802" font-size="11" fill="#555555" text-anchor="middle">11-05</text>
<text x="226.20" y="818" font-size="11" fill="#555555" text-anchor="middle">03:30</text>
<line x1="280.68" y1="692.77" x2="280.68" y2="704.25" stroke="#e74c3c" stroke-width="2"/>
<rect x="265.43" y="696.54" width="30.51" height="6.07" fill="#e74c3c" stroke="#e74c3c" stroke-width="1"/>
<text x="280.68" y="802" font-size="11" fill="#555555" text-anchor="middle">11-05</text>
<text x="280.68" y="818" font-size="11" fill="#555555" text-anchor="middle">03:45</text>
<line x1="335.16" y1="700.15" x2="335.16" y2="711.14" stroke="#e74c3c" stroke-width="2"/>
<rect x="319.91" y="701.95" width="30.51" height="7.22" fill="#e74c3c" stroke="#e74c3c" stroke-width="1"/>
<text x="335.16" y="802" font-size="11" fill="#555555" text-anchor="middle">11-05</text>
<text x="335.16" y="818" font-size="11" fill="#555555" text-anchor="middle">04:00</text>
<line x1="389.64" y1="705.23" x2="389.64" y2="730.00" stroke="#2ecc71" stroke-width="2"/>
<rect x="374.39" y="706.38" width="30.51" height="2.62" fill="#2ecc71" stroke="#2ecc71" stroke-width="1"/>
<text x="389.64" y="802" font-size="11" fill="#555555" text-anchor="middle">11-05</text>
<text x="389.64" y="818" font-size="11" fill="#555555" text-anchor="middle">04:15</text>
<line x1="444.12" y1="690.64" x2="444.12" y2="714.25" stroke="#2ecc71" stroke-width="2"/>
<rect x="428.87" y="695.56" width="30.51" height="10.33" fill="#2ecc71" stroke="#2ecc71" stroke-width="1"/>
<text x="444.12" y="802" font-size="11" fill="#555555" text-anchor="middle">11-05</text>
<text x="444.12" y="818" font-size="11" fill="#555555" text-anchor="middle">04:30</text>
<line x1="498.60" y1="678.50" x2="498.60" y2="695.06" stroke="#2ecc71" stroke-width="2"/>
<rect x="483.35" y="686.21" width="30.51" height="8.86" fill="#2ecc71" stroke="#2ecc71" stroke-width="1"/>
<text x="498.60" y="802" font-size="11" fill="#555555" text-anchor="middle">11-05</text>
<text x="498.60" y="818" font-size="11" fill="#555555" text-anchor="middle">04:45</text>
<line x1="553.08" y1="80.00" x2="553.08" y2="693.92" stroke="#2ecc71" stroke-width="2"/>
<rect x="537.83" y="420.01" width="30.51" height="266.69" fill="#2ecc71" stroke="#2ecc71" stroke-width="1"/>
<text x="553.08" y="802" font-size="11" fill="#555555" text-anchor="middle">11-05</text>
<text x="553.08" y="818" font-size="11" fill="#555555" text-anchor="middle">05:00</text>
<line x1="607.56" y1="375.72" x2="607.56" y2="705.73" stroke="#e74c3c" stroke-width="2"/>
<rect x="592.31" y="417.88" width="30.51" height="115.47" fill="#e74c3c" stroke="#e74c3c" stroke-width="1"/>
<text x="607.56" y="802" font-size="11" fill="#555555" text-anchor="middle">11-05</text>
<text x="607.56" y="818" font-size="11" fill="#555555" text-anchor="middle">05:15</text>
<line x1="662.04" y1="400.98" x2="662.04" y2="628.97" stroke="#2ecc71" stroke-width="2"/>
<rect x="646.79" y="516.12" width="30.51" height="17.22" fill="#2ecc71" stroke="#2ecc71" stroke-width="1"/>
<text x="662.04" y="802" font-size="11" fill="#555555" text-anchor="middle">11-05</text>
<text x="662.04" y="818" font-size="11" fill="#555555" text-anchor="middle">05:30</text>
<line x1="716.52" y1="444.28" x2="716.52" y2="583.04" stroke="#e74c3c" stroke-width="2"/>
<rect x="701.27" y="514.65" width="30.51" height="17.06" fill="#e74c3c" stroke="#e74c3c" stroke-width="1"/>
<text x="716.52" y="802" font-size="11" fill="#555555" text-anchor="middle">11-05</text>
<text x="716.52" y="818" font-size="11" fill="#555555" text-anchor="middle">05:45</text>
<line x1="771.00" y1="488.89" x2="771.00" y2="578.94" stroke="#e74c3c" stroke-width="2"/>
<rect x="755.75" y="531.54" width="30.51" height="35.43" fill="#e74c3c" stroke="#e74c3c" stroke-width="1"/>
<text x="771.00" y="802" font-size="11" fill="#555555" text-anchor="middle">11-05</text>
<text x="771.00" y="818" font-size="11" fill="#555555" text-anchor="middle">06:00</text>
<line x1="825.48" y1="518.42" x2="825.48" y2="579.27" stroke="#2ecc71" stroke-width="2"/>
<rect x="810.23" y="533.84" width="30.51" height="32.64" fill="#2ecc71" stroke="#2ecc71" stroke-width="1"/>
<text x="825.48" y="802" font-size="11" fill="#555555" text-anchor="middle">11-05</text>
<text x="825.48" y="818" font-size="11" fill="#555555" text-anchor="middle">06:15</text>
<line x1="879.96" y1="475.77" x2="879.96" y2="546.14" stroke="#2ecc71" stroke-width="2"/>
<rect x="864.71" y="501.69" width="30.51" height="31.98" fill="#2ecc71" stroke="#2ecc71" stroke-width="1"/>
<text x="879.96" y="802" font-size="11" fill="#555555" text-anchor="middle">11-05</text>
<text x="879.96" y="818" font-size="11" fill="#555555" text-anchor="middle">06:30</text>
<line x1="934.44" y1="475.45" x2="934.44" y2="550.89" stroke="#e74c3c" stroke-width="2"/>
<rect x="919.19" y="501.85" width="30.51" height="22.47" fill="#e74c3c" stroke="#e74c3c" stroke-width="1"/>
<text x="934.44" y="802" font-size="11" fill="#555555" text-anchor="middle">11-05</text>
<text x="934.44" y="818" font-size="11" fill="#555555" text-anchor="middle">06:45</text>
<line x1="988.92" y1="514.97" x2="988.92" y2="541.71" stroke="#2ecc71" stroke-width="2"/>
<rect x="973.67" y="522.52" width="30.51" height="3.44" fill="#2ecc71" stroke="#2ecc71" stroke-width="1"/>
<text x="988.92" y="802" font-size="11" fill="#555555" text-anchor="middle">11-05</text>
<text x="988.92" y="818" font-size="11" fill="#555555" text-anchor="middle">07:00</text>
<line x1="1043.40" y1="488.57" x2="1043.40" y2="534.33" stroke="#2ecc71" stroke-width="2"/>
<rect x="1028.15" y="491.03" width="30.51" height="32.97" fill="#2ecc71" stroke="#2ecc71" stroke-width="1"/>
<text x="1043.40" y="802" font-size="11" fill="#555555" text-anchor="middle">11-05</text>
<text x="1043.40" y="818" font-size="11" fill="#555555" text-anchor="middle">07:15</text>
<line x1="1097.88" y1="443.63" x2="1097.88" y2="511.20" stroke="#2ecc71" stroke-width="2"/>
<rect x="1082.63" y="449.86" width="30.51" height="40.35" fill="#2ecc71" stroke="#2ecc71" stroke-width="1"/>
<text x="1097.88" y="802" font-size="11" fill="#555555" text-anchor="middle">11-05</text>
<text x="1097.88" y="818" font-size="11" fill="#555555" text-anchor="middle">07:30</text>
<line x1="1152.36" y1="309.62" x2="1152.36" y2="545.48" stroke="#2ecc71" stroke-width="2"/>
<rect x="1137.11" y="392.45" width="30.51" height="57.41" fill="#2ecc71" stroke="#2ecc71" stroke-width="1"/>
<text x="1152.36" y="802" font-size="11" fill="#555555" text-anchor="middle">11-05</text>
<text x="1152.36" y="818" font-size="11" fill="#555555" text-anchor="middle">07:45</text>
<line x1="1206.84" y1="350.63" x2="1206.84" y2="466.10" stroke="#e74c3c" stroke-width="2"/>
<rect x="1191.59" y="390.32" width="30.51" height="65.28" fill="#e74c3c" stroke="#e74c3c" stroke-width="1"/>
<text x="1206.84" y="802" font-size="11" fill="#555555" text-anchor="middle">11-05</text>
<text x="1206.84" y="818" font-size="11" fill="#555555" text-anchor="middle">08:00</text>
<line x1="1261.32" y1="440.18" x2="1261.32" y2="517.43" stroke="#e74c3c" stroke-width="2"/>
<rect x="1246.07" y="456.58" width="30.51" height="20.99" fill="#e74c3c" stroke="#e74c3c" stroke-width="1"/>
<text x="1261.32" y="802" font-size="11" fill="#555555" text-anchor="middle">11-05</text>
<text x="1261.32" y="818" font-size="11" fill="#555555" text-anchor="middle">08:15</text>
<line x1="1315.80" y1="475.28" x2="1315.80" y2="513.17" stroke="#e74c3c" stroke-width="2"/>
<rect x="1300.55" y="477.25" width="30.51" height="28.05" fill="#e74c3c" stroke="#e74c3c" stroke-width="1"/>
<text x="1315.80" y="802" font-size="11" fill="#555555" text-anchor="middle">11-05</text>
<text x="1315.80" y="818" font-size="11" fill="#555555" text-anchor="middle">08:30</text>
<line x1="1370.28" y1="375.56" x2="1370.28" y2="506.94" stroke="#2ecc71" stroke-width="2"/>
<rect x="1355.03" y="386.55" width="30.51" height="118.75" fill="#2ecc71" stroke="#2ecc71" stroke-width="1"/>
<text x="1370.28" y="802" font-size="11" fill="#555555" text-anchor="middle">11-05</text>
<text x="1370.28" y="818" font-size="11" fill="#555555" text-anchor="middle">08:45</text>
<line x1="1424.76" y1="377.20" x2="1424.76" y2="455.76" stroke="#e74c3c" stroke-width="2"/>
<rect x="1409.51" y="385.24" width="30.51" height="62.98" fill="#e74c3c" stroke="#e74c3c" stroke-width="1"/>
<text x="1424.76" y="802" font-size="11" fill="#555555" text-anchor="middle">11-05</text>
<text x="1424.76" y="818" font-size="11" fill="#555555" text-anchor="middle">09:00</text>
<line x1="553.08" y1="80.00" x2="623.08" y2="104.00" stroke="#f39c12" stroke-width="2"/>
<rect x="623.08" y="52.00" width="280" height="90" rx="10" fill="#fff8dc" stroke="#f39c12"/>
<text x="635.08" y="76.00" font-size="13" fill="#111111">15m定位时间 2025-11-05 05:00:00</text>
<text x="635.08" y="96.00" font-size="13" fill="#111111">该15m最高价 0.080000</text>
<text x="635.08" y="116.00" font-size="13" fill="#111111">10倍价横线已标出</text>
<text x="635.08" y="136.00" font-size="13" fill="#111111">竖线高亮首次触达10倍价的15m</text>
</svg>