<svg xmlns="http://www.w3.org/2000/svg" width="1500" height="860" viewBox="0 0 1500 860">
<rect width="100%" height="100%" fill="#fcfcfc"/>
<text x="90" y="38" font-size="28" font-weight="700" fill="#111111">MOODENG-USDT-SWAP 15m - 10倍命中定位图</text>
<text x="90" y="68" font-size="16" fill="#555555">1H命中时间: 2025-12-07 05:00:00 | 10倍价: 0.109319 | 命中倍数: 37.1238x</text>
<line x1="90" y1="80.00" x2="1452" y2="80.00" stroke="#d9d9d9" stroke-dasharray="4 4" stroke-width="1"/>
<text x="12" y="84.00" font-size="12" fill="#555555">0.210000</text>
<line x1="90" y1="210.00" x2="1452" y2="210.00" stroke="#d9d9d9" stroke-dasharray="4 4" stroke-width="1"/>
<text x="12" y="214.00" font-size="12" fill="#555555">0.182440</text>
<line x1="90" y1="340.00" x2="1452" y2="340.00" stroke="#d9d9d9" stroke-dasharray="4 4" stroke-width="1"/>
<text x="12" y="344.00" font-size="12" fill="#555555">0.154880</text>
<line x1="90" y1="470.00" x2="1452" y2="470.00" stroke="#d9d9d9" stroke-dasharray="4 4" stroke-width="1"/>
<text x="12" y="474.00" font-size="12" fill="#555555">0.127320</text>
<line x1="90" y1="600.00" x2="1452" y2="600.00" stroke="#d9d9d9" stroke-dasharray="4 4" stroke-width="1"/>
<text x="12" y="604.00" font-size="12" fill="#555555">0.099760</text>
<line x1="90" y1="730.00" x2="1452" y2="730.00" stroke="#d9d9d9" stroke-dasharray="4 4" stroke-width="1"/>
<text x="12" y="734.00" font-size="12" fill="#555555">0.072200</text>
<rect x="525.84" y="80" width="54.48" height="650.00" fill="#f1c40f" opacity="0.16"/>
<line x1="553.08" y1="80" x2="553.08" y2="730" stroke="#f39c12" stroke-width="2" stroke-dasharray="6 4"/>
<line x1="90" y1="554.91" x2="1452" y2="554.91" stroke="#8e44ad" stroke-width="2" stroke-dasharray="8 4"/>
<text x="1444" y="546.91" font-size="13" fill="#8e44ad" text-anchor="end">10倍价 0.109319</text>
<line x1="117.24" y1="724.39" x2="117.24" y2="728.16" stroke="#e74c3c" stroke-width="2"/>
<rect x="101.99" y="725.52" width="30.51" height="1.20" fill="#e74c3c" stroke="#e74c3c" stroke-width="1"/>
<text x="117.24" y="802" font-size="11" fill="#555555" text-anchor="middle">12-07</text>
<text x="117.24" y="818" font-size="11" fill="#555555" text-anchor="middle">03:00</text>
<line x1="171.72" y1="725.42" x2="171.72" y2="726.84" stroke="#2ecc71" stroke-width="2"/>
<rect x="156.47" y="726.13" width="30.51" height="1.20" fill="#2ecc71" stroke="#2ecc71" stroke-width="1"/>
<text x="171.72" y="802" font-size="11" fill="#555555" text-anchor="middle">12-07</text>
<text x="171.72" y="818" font-size="11" fill="#555555" text-anchor="middle">03:15</text>
<line x1="226.20" y1="725.90" x2="226.20" y2="729.10" stroke="#e74c3c" stroke-width="2"/>
<rect x="210.95" y="726.13" width="30.51" height="2.36" fill="#e74c3c" stroke="#e74c3c" stroke-width="1"/>
<text x="226.20" y="802" font-size="11" fill="#555555" text-anchor="middle">12-07</text>
<text x="226.20" y="818" font-size="11" fill="#555555" text-anchor="middle">03:30</text>
<line x1="280.68" y1="727.31" x2="280.68" y2="728.49" stroke="#2ecc71" stroke-width="2"/>
<rect x="265.43" y="727.45" width="30.51" height="1.20" fill="#2ecc71" stroke="#2ecc71" stroke-width="1"/>
<text x="280.68" y="802" font-size="11" fill="#555555" text-anchor="middle">12-07</text>
<text x="280.68" y="818" font-size="11" fill="#555555" text-anchor="middle">03:45</text>
<line x1="335.16" y1="723.73" x2="335.16" y2="727.59" stroke="#2ecc71" stroke-width="2"/>
<rect x="319.91" y="724.91" width="30.51" height="2.55" fill="#2ecc71" stroke="#2ecc71" stroke-width="1"/>
<text x="335.16" y="802" font-size="11" fill="#555555" text-anchor="middle">12-07</text>
<text x="335.16" y="818" font-size="11" fill="#555555" text-anchor="middle">04:00</text>
<line x1="389.64" y1="720.09" x2="389.64" y2="725.09" stroke="#2ecc71" stroke-width="2"/>
<rect x="374.39" y="721.75" width="30.51" height="3.25" fill="#2ecc71" stroke="#2ecc71" stroke-width="1"/>
<text x="389.64" y="802" font-size="11" fill="#555555" text-anchor="middle">12-07</text>
<text x="389.64" y="818" font-size="11" fill="#555555" text-anchor="middle">04:15</text>
<line x1="444.12" y1="721.37" x2="444.12" y2="724.29" stroke="#e74c3c" stroke-width="2"/>
<rect x="428.87" y="721.79" width="30.51" height="1.56" fill="#e74c3c" stroke="#e74c3c" stroke-width="1"/>
<text x="444.12" y="802" font-size="11" fill="#555555" text-anchor="middle">12-07</text>
<text x="444.12" y="818" font-size="11" fill="#555555" text-anchor="middle">04:30</text>
<line x1="498.60" y1="710.66" x2="498.60" y2="723.73" stroke="#2ecc71" stroke-width="2"/>
<rect x="483.35" y="715.75" width="30.51" height="7.59" fill="#2ecc71" stroke="#2ecc71" stroke-width="1"/>
<text x="498.60" y="802" font-size="11" fill="#555555" text-anchor="middle">12-07</text>
<text x="498.60" y="818" font-size="11" fill="#555555" text-anchor="middle">04:45</text>
<line x1="553.08" y1="80.00" x2="553.08" y2="717.55" stroke="#2ecc71" stroke-width="2"/>
<rect x="537.83" y="676.70" width="30.51" height="39.10" fill="#2ecc71" stroke="#2ecc71" stroke-width="1"/>
<text x="553.08" y="802" font-size="11" fill="#555555" text-anchor="middle">12-07</text>
<text x="553.08" y="818" font-size="11" fill="#555555" text-anchor="middle">05:00</text>
<line x1="607.56" y1="674.48" x2="607.56" y2="730.00" stroke="#e74c3c" stroke-width="2"/>
<rect x="592.31" y="676.65" width="30.51" height="15.14" fill="#e74c3c" stroke="#e74c3c" stroke-width="1"/>
<text x="607.56" y="802" font-size="11" fill="#555555" text-anchor="middle">12-07</text>
<text x="607.56" y="818" font-size="11" fill="#555555" text-anchor="middle">05:15</text>
<line x1="662.04" y1="675.61" x2="662.04" y2="699.01" stroke="#2ecc71" stroke-width="2"/>
<rect x="646.79" y="677.31" width="30.51" height="14.91" fill="#2ecc71" stroke="#2ecc71" stroke-width="1"/>
<text x="662.04" y="802" font-size="11" fill="#555555" text-anchor="middle">12-07</text>
<text x="662.04" y="818" font-size="11" fill="#555555" text-anchor="middle">05:30</text>
<line x1="716.52" y1="649.43" x2="716.52" y2="678.77" stroke="#2ecc71" stroke-width="2"/>
<rect x="701.27" y="660.66" width="30.51" height="17.22" fill="#2ecc71" stroke="#2ecc71" stroke-width="1"/>
<text x="716.52" y="802" font-size="11" fill="#555555" text-anchor="middle">12-07</text>
<text x="716.52" y="818" font-size="11" fill="#555555" text-anchor="middle">05:45</text>
<line x1="771.00" y1="637.36" x2="771.00" y2="673.54" stroke="#2ecc71" stroke-width="2"/>
<rect x="755.75" y="639.76" width="30.51" height="20.90" fill="#2ecc71" stroke="#2ecc71" stroke-width="1"/>
<text x="771.00" y="802" font-size="11" fill="#555555" text-anchor="middle">12-07</text>
<text x="771.00" y="818" font-size="11" fill="#555555" text-anchor="middle">06:00</text>
<line x1="825.48" y1="635.19" x2="825.48" y2="665.24" stroke="#e74c3c" stroke-width="2"/>
<rect x="810.23" y="639.58" width="30.51" height="19.95" fill="#e74c3c" stroke="#e74c3c" stroke-width="1"/>
<text x="825.48" y="802" font-size="11" fill="#555555" text-anchor="middle">12-07</text>
<text x="825.48" y="818" font-size="11" fill="#555555" text-anchor="middle">06:15</text>
<line x1="879.96" y1="648.58" x2="879.96" y2="663.68" stroke="#2ecc71" stroke-width="2"/>
<rect x="864.71" y="650.47" width="30.51" height="9.10" fill="#2ecc71" stroke="#2ecc71" stroke-width="1"/>
<text x="879.96" y="802" font-size="11" fill="#555555" text-anchor="middle">12-07</text>
<text x="879.96" y="818" font-size="11" fill="#555555" text-anchor="middle">06:30</text>
<line x1="934.44" y1="645.38" x2="934.44" y2="664.34" stroke="#e74c3c" stroke-width="2"/>
<rect x="919.19" y="650.47" width="30.51" height="6.51" fill="#e74c3c" stroke="#e74c3c" stroke-width="1"/>
<text x="934.44" y="802" font-size="11" fill="#555555" text-anchor="middle">12-07</text>
<text x="934.44" y="818" font-size="11" fill="#555555" text-anchor="middle">06:45</text>
<line x1="988.92" y1="644.86" x2="988.92" y2="660.47" stroke="#2ecc71" stroke-width="2"/>
<rect x="973.67" y="645.52" width="30.51" height="11.51" fill="#2ecc71" stroke="#2ecc71" stroke-width="1"/>
<text x="988.92" y="802" font-size="11" fill="#555555" text-anchor="middle">12-07</text>
<text x="988.92" y="818" font-size="11" fill="#555555" text-anchor="middle">07:00</text>
<line x1="1043.40" y1="617.08" x2="1043.40" y2="649.58" stroke="#2ecc71" stroke-width="2"/>
<rect x="1028.15" y="620.90" width="30.51" height="24.48" fill="#2ecc71" stroke="#2ecc71" stroke-width="1"/>
<text x="1043.40" y="802" font-size="11" fill="#555555" text-anchor="middle">12-07</text>
<text x="1043.40" y="818" font-size="11" fill="#555555" text-anchor="middle">07:15</text>
<line x1="1097.88" y1="588.11" x2="1097.88" y2="628.07" stroke="#2ecc71" stroke-width="2"/>
<rect x="1082.63" y="589.25" width="30.51" height="31.65" fill="#2ecc71" stroke="#2ecc71" stroke-width="1"/>
<text x="1097.88" y="802" font-size="11" fill="#555555" text-anchor="middle">12-07</text>
<text x="1097.88" y="818" font-size="11" fill="#555555" text-anchor="middle">07:30</text>
<line x1="1152.36" y1="562.69" x2="1152.36" y2="630.94" stroke="#e74c3c" stroke-width="2"/>
<rect x="1137.11" y="589.25" width="30.51" height="9.10" fill="#e74c3c" stroke="#e74c3c" stroke-width="1"/>
<text x="1152.36" y="802" font-size="11" fill="#555555" text-anchor="middle">12-07</text>
<text x="1152.36" y="818" font-size="11" fill="#555555" text-anchor="middle">07:45</text>
<line x1="1206.84" y1="553.96" x2="1206.84" y2="614.01" stroke="#2ecc71" stroke-width="2"/>
<rect x="1191.59" y="573.58" width="30.51" height="25.47" fill="#2ecc71" stroke="#2ecc71" stroke-width="1"/>
<text x="1206.84" y="802" font-size="11" fill="#555555" text-anchor="middle">12-07</text>
<text x="1206.84" y="818" font-size="11" fill="#555555" text-anchor="middle">08:00</text>
<line x1="1261.32" y1="528.11" x2="1261.32" y2="583.96" stroke="#2ecc71" stroke-width="2"/>
<rect x="1246.07" y="539.15" width="30.51" height="34.81" fill="#2ecc71" stroke="#2ecc71" stroke-width="1"/>
<text x="1261.32" y="802" font-size="11" fill="#555555" text-anchor="middle">12-07</text>
<text x="1261.32" y="818" font-size="11" fill="#555555" text-anchor="middle">08:15</text>
<line x1="1315.80" y1="490.28" x2="1315.80" y2="558.40" stroke="#2ecc71" stroke-width="2"/>
<rect x="1300.55" y="505.14" width="30.51" height="34.10" fill="#2ecc71" stroke="#2ecc71" stroke-width="1"/>
<text x="1315.80" y="802" font-size="11" fill="#555555" text-anchor="middle">12-07</text>
<text x="1315.80" y="818" font-size="11" fill="#555555" text-anchor="middle">08:30</text>
<line x1="1370.28" y1="486.27" x2="1370.28" y2="541.89" stroke="#e74c3c" stroke-width="2"/>
<rect x="1355.03" y="504.95" width="30.51" height="10.66" fill="#e74c3c" stroke="#e74c3c" stroke-width="1"/>
<text x="1370.28" y="802" font-size="11" fill="#555555" text-anchor="middle">12-07</text>
<text x="1370.28" y="818" font-size="11" fill="#555555" text-anchor="middle">08:45</text>
<line x1="1424.76" y1="510.28" x2="1424.76" y2="584.06" stroke="#e74c3c" stroke-width="2"/>
<rect x="1409.51" y="515.99" width="30.51" height="43.30" fill="#e74c3c" stroke="#e74c3c" stroke-width="1"/>
<text x="1424.76" y="802" font-size="11" fill="#555555" text-anchor="middle">12-07</text>
<text x="1424.76" y="818" font-size="11" fill="#555555" text-anchor="middle">09:00</text>
<line x1="553.08" y1="80.00" x2="623.08" y2="104.00" stroke="#f39c12" stroke-width="2"/>
<rect x="623.08" y="52.00" width="280" height="90" rx="10" fill="#fff8dc" stroke="#f39c12"/>
<text x="635.08" y="76.00" font-size="13" fill="#111111">15m定位时间 2025-12-07 05:00:00</text>
<text x="635.08" y="96.00" font-size="13" fill="#111111">该15m最高价 0.210000</text>
<text x="635.08" y="116.00" font-size="13" fill="#111111">10倍价横线已标出</text>
<text x="635.08" y="136.00" font-size="13" fill="#111111">竖线高亮首次触达10倍价的15m</text>
</svg>