<svg xmlns="http://www.w3.org/2000/svg" width="1500" height="860" viewBox="0 0 1500 860">
<rect width="100%" height="100%" fill="#fcfcfc"/>
<text x="90" y="38" font-size="28" font-weight="700" fill="#111111">MOVE-USDT-SWAP 15m - 10倍命中定位图</text>
<text x="90" y="68" font-size="16" fill="#555555">1H命中时间: 2026-02-12 16:00:00 | 10倍价: 0.028732 | 命中倍数: 10.3033x</text>
<line x1="90" y1="80.00" x2="1452" y2="80.00" stroke="#d9d9d9" stroke-dasharray="4 4" stroke-width="1"/>
<text x="12" y="84.00" font-size="12" fill="#555555">0.028910</text>
<line x1="90" y1="210.00" x2="1452" y2="210.00" stroke="#d9d9d9" stroke-dasharray="4 4" stroke-width="1"/>
<text x="12" y="214.00" font-size="12" fill="#555555">0.027578</text>
<line x1="90" y1="340.00" x2="1452" y2="340.00" stroke="#d9d9d9" stroke-dasharray="4 4" stroke-width="1"/>
<text x="12" y="344.00" font-size="12" fill="#555555">0.026246</text>
<line x1="90" y1="470.00" x2="1452" y2="470.00" stroke="#d9d9d9" stroke-dasharray="4 4" stroke-width="1"/>
<text x="12" y="474.00" font-size="12" fill="#555555">0.024914</text>
<line x1="90" y1="600.00" x2="1452" y2="600.00" stroke="#d9d9d9" stroke-dasharray="4 4" stroke-width="1"/>
<text x="12" y="604.00" font-size="12" fill="#555555">0.023582</text>
<line x1="90" y1="730.00" x2="1452" y2="730.00" stroke="#d9d9d9" stroke-dasharray="4 4" stroke-width="1"/>
<text x="12" y="734.00" font-size="12" fill="#555555">0.022250</text>
<rect x="689.28" y="80" width="54.48" height="650.00" fill="#f1c40f" opacity="0.16"/>
<line x1="716.52" y1="80" x2="716.52" y2="730" stroke="#f39c12" stroke-width="2" stroke-dasharray="6 4"/>
<line x1="90" y1="97.38" x2="1452" y2="97.38" stroke="#8e44ad" stroke-width="2" stroke-dasharray="8 4"/>
<text x="1444" y="89.38" font-size="13" fill="#8e44ad" text-anchor="end">10倍价 0.028732</text>
<line x1="117.24" y1="715.36" x2="117.24" y2="730.00" stroke="#2ecc71" stroke-width="2"/>
<rect x="101.99" y="720.24" width="30.51" height="9.76" fill="#2ecc71" stroke="#2ecc71" stroke-width="1"/>
<text x="117.24" y="802" font-size="11" fill="#555555" text-anchor="middle">02-12</text>
<text x="117.24" y="818" font-size="11" fill="#555555" text-anchor="middle">14:00</text>
<line x1="171.72" y1="677.30" x2="171.72" y2="721.22" stroke="#2ecc71" stroke-width="2"/>
<rect x="156.47" y="684.13" width="30.51" height="37.09" fill="#2ecc71" stroke="#2ecc71" stroke-width="1"/>
<text x="171.72" y="802" font-size="11" fill="#555555" text-anchor="middle">02-12</text>
<text x="171.72" y="818" font-size="11" fill="#555555" text-anchor="middle">14:15</text>
<line x1="226.20" y1="679.25" x2="226.20" y2="698.77" stroke="#e74c3c" stroke-width="2"/>
<rect x="210.95" y="683.15" width="30.51" height="9.76" fill="#e74c3c" stroke="#e74c3c" stroke-width="1"/>
<text x="226.20" y="802" font-size="11" fill="#555555" text-anchor="middle">02-12</text>
<text x="226.20" y="818" font-size="11" fill="#555555" text-anchor="middle">14:30</text>
<line x1="280.68" y1="686.08" x2="280.68" y2="701.70" stroke="#e74c3c" stroke-width="2"/>
<rect x="265.43" y="690.96" width="30.51" height="4.88" fill="#e74c3c" stroke="#e74c3c" stroke-width="1"/>
<text x="280.68" y="802" font-size="11" fill="#555555" text-anchor="middle">02-12</text>
<text x="280.68" y="818" font-size="11" fill="#555555" text-anchor="middle">14:45</text>
<line x1="335.16" y1="687.06" x2="335.16" y2="710.48" stroke="#e74c3c" stroke-width="2"/>
<rect x="319.91" y="696.82" width="30.51" height="3.90" fill="#e74c3c" stroke="#e74c3c" stroke-width="1"/>
<text x="335.16" y="802" font-size="11" fill="#555555" text-anchor="middle">02-12</text>
<text x="335.16" y="818" font-size="11" fill="#555555" text-anchor="middle">15:00</text>
<line x1="389.64" y1="687.06" x2="389.64" y2="701.70" stroke="#2ecc71" stroke-width="2"/>
<rect x="374.39" y="689.01" width="30.51" height="10.74" fill="#2ecc71" stroke="#2ecc71" stroke-width="1"/>
<text x="389.64" y="802" font-size="11" fill="#555555" text-anchor="middle">02-12</text>
<text x="389.64" y="818" font-size="11" fill="#555555" text-anchor="middle">15:15</text>
<line x1="444.12" y1="664.61" x2="444.12" y2="692.91" stroke="#2ecc71" stroke-width="2"/>
<rect x="428.87" y="689.98" width="30.51" height="1.20" fill="#2ecc71" stroke="#2ecc71" stroke-width="1"/>
<text x="444.12" y="802" font-size="11" fill="#555555" text-anchor="middle">02-12</text>
<text x="444.12" y="818" font-size="11" fill="#555555" text-anchor="middle">15:30</text>
<line x1="498.60" y1="653.87" x2="498.60" y2="690.96" stroke="#2ecc71" stroke-width="2"/>
<rect x="483.35" y="667.54" width="30.51" height="23.42" fill="#2ecc71" stroke="#2ecc71" stroke-width="1"/>
<text x="498.60" y="802" font-size="11" fill="#555555" text-anchor="middle">02-12</text>
<text x="498.60" y="818" font-size="11" fill="#555555" text-anchor="middle">15:45</text>
<line x1="553.08" y1="646.07" x2="553.08" y2="670.47" stroke="#2ecc71" stroke-width="2"/>
<rect x="537.83" y="652.90" width="30.51" height="16.59" fill="#2ecc71" stroke="#2ecc71" stroke-width="1"/>
<text x="553.08" y="802" font-size="11" fill="#555555" text-anchor="middle">02-12</text>
<text x="553.08" y="818" font-size="11" fill="#555555" text-anchor="middle">16:00</text>
<line x1="607.56" y1="623.62" x2="607.56" y2="653.87" stroke="#2ecc71" stroke-width="2"/>
<rect x="592.31" y="648.99" width="30.51" height="3.90" fill="#2ecc71" stroke="#2ecc71" stroke-width="1"/>
<text x="607.56" y="802" font-size="11" fill="#555555" text-anchor="middle">02-12</text>
<text x="607.56" y="818" font-size="11" fill="#555555" text-anchor="middle">16:15</text>
<line x1="662.04" y1="482.10" x2="662.04" y2="664.61" stroke="#2ecc71" stroke-width="2"/>
<rect x="646.79" y="578.72" width="30.51" height="71.25" fill="#2ecc71" stroke="#2ecc71" stroke-width="1"/>
<text x="662.04" y="802" font-size="11" fill="#555555" text-anchor="middle">02-12</text>
<text x="662.04" y="818" font-size="11" fill="#555555" text-anchor="middle">16:30</text>
<line x1="716.52" y1="80.00" x2="716.52" y2="603.12" stroke="#2ecc71" stroke-width="2"/>
<rect x="701.27" y="497.72" width="30.51" height="81.01" fill="#2ecc71" stroke="#2ecc71" stroke-width="1"/>
<text x="716.52" y="802" font-size="11" fill="#555555" text-anchor="middle">02-12</text>
<text x="716.52" y="818" font-size="11" fill="#555555" text-anchor="middle">16:45</text>
<line x1="771.00" y1="456.73" x2="771.00" y2="554.32" stroke="#e74c3c" stroke-width="2"/>
<rect x="755.75" y="497.72" width="30.51" height="40.99" fill="#e74c3c" stroke="#e74c3c" stroke-width="1"/>
<text x="771.00" y="802" font-size="11" fill="#555555" text-anchor="middle">02-12</text>
<text x="771.00" y="818" font-size="11" fill="#555555" text-anchor="middle">17:00</text>
<line x1="825.48" y1="472.34" x2="825.48" y2="570.92" stroke="#2ecc71" stroke-width="2"/>
<rect x="810.23" y="502.60" width="30.51" height="35.14" fill="#2ecc71" stroke="#2ecc71" stroke-width="1"/>
<text x="825.48" y="802" font-size="11" fill="#555555" text-anchor="middle">02-12</text>
<text x="825.48" y="818" font-size="11" fill="#555555" text-anchor="middle">17:15</text>
<line x1="879.96" y1="436.23" x2="879.96" y2="529.92" stroke="#2ecc71" stroke-width="2"/>
<rect x="864.71" y="470.39" width="30.51" height="33.18" fill="#2ecc71" stroke="#2ecc71" stroke-width="1"/>
<text x="879.96" y="802" font-size="11" fill="#555555" text-anchor="middle">02-12</text>
<text x="879.96" y="818" font-size="11" fill="#555555" text-anchor="middle">17:30</text>
<line x1="934.44" y1="437.21" x2="934.44" y2="505.53" stroke="#e74c3c" stroke-width="2"/>
<rect x="919.19" y="469.41" width="30.51" height="16.59" fill="#e74c3c" stroke="#e74c3c" stroke-width="1"/>
<text x="934.44" y="802" font-size="11" fill="#555555" text-anchor="middle">02-12</text>
<text x="934.44" y="818" font-size="11" fill="#555555" text-anchor="middle">17:45</text>
<line x1="988.92" y1="380.60" x2="988.92" y2="499.67" stroke="#2ecc71" stroke-width="2"/>
<rect x="973.67" y="393.29" width="30.51" height="93.69" fill="#2ecc71" stroke="#2ecc71" stroke-width="1"/>
<text x="988.92" y="802" font-size="11" fill="#555555" text-anchor="middle">02-12</text>
<text x="988.92" y="818" font-size="11" fill="#555555" text-anchor="middle">18:00</text>
<line x1="1043.40" y1="317.16" x2="1043.40" y2="416.71" stroke="#2ecc71" stroke-width="2"/>
<rect x="1028.15" y="354.25" width="30.51" height="38.06" fill="#2ecc71" stroke="#2ecc71" stroke-width="1"/>
<text x="1043.40" y="802" font-size="11" fill="#555555" text-anchor="middle">02-12</text>
<text x="1043.40" y="818" font-size="11" fill="#555555" text-anchor="middle">18:15</text>
<line x1="1097.88" y1="204.92" x2="1097.88" y2="359.13" stroke="#2ecc71" stroke-width="2"/>
<rect x="1082.63" y="250.80" width="30.51" height="103.45" fill="#2ecc71" stroke="#2ecc71" stroke-width="1"/>
<text x="1097.88" y="802" font-size="11" fill="#555555" text-anchor="middle">02-12</text>
<text x="1097.88" y="818" font-size="11" fill="#555555" text-anchor="middle">18:30</text>
<line x1="1152.36" y1="223.47" x2="1152.36" y2="352.30" stroke="#e74c3c" stroke-width="2"/>
<rect x="1137.11" y="250.80" width="30.51" height="96.62" fill="#e74c3c" stroke="#e74c3c" stroke-width="1"/>
<text x="1152.36" y="802" font-size="11" fill="#555555" text-anchor="middle">02-12</text>
<text x="1152.36" y="818" font-size="11" fill="#555555" text-anchor="middle">18:45</text>
<line x1="1206.84" y1="305.45" x2="1206.84" y2="407.93" stroke="#2ecc71" stroke-width="2"/>
<rect x="1191.59" y="338.63" width="30.51" height="9.76" fill="#2ecc71" stroke="#2ecc71" stroke-width="1"/>
<text x="1206.84" y="802" font-size="11" fill="#555555" text-anchor="middle">02-12</text>
<text x="1206.84" y="818" font-size="11" fill="#555555" text-anchor="middle">19:00</text>
<line x1="1261.32" y1="208.83" x2="1261.32" y2="347.42" stroke="#2ecc71" stroke-width="2"/>
<rect x="1246.07" y="244.94" width="30.51" height="94.67" fill="#2ecc71" stroke="#2ecc71" stroke-width="1"/>
<text x="1261.32" y="802" font-size="11" fill="#555555" text-anchor="middle">02-12</text>
<text x="1261.32" y="818" font-size="11" fill="#555555" text-anchor="middle">19:15</text>
<line x1="1315.80" y1="230.30" x2="1315.80" y2="317.16" stroke="#e74c3c" stroke-width="2"/>
<rect x="1300.55" y="243.96" width="30.51" height="53.68" fill="#e74c3c" stroke="#e74c3c" stroke-width="1"/>
<text x="1315.80" y="802" font-size="11" fill="#555555" text-anchor="middle">02-12</text>
<text x="1315.80" y="818" font-size="11" fill="#555555" text-anchor="middle">19:30</text>
<line x1="1370.28" y1="284.95" x2="1370.28" y2="357.18" stroke="#e74c3c" stroke-width="2"/>
<rect x="1355.03" y="298.62" width="30.51" height="44.89" fill="#e74c3c" stroke="#e74c3c" stroke-width="1"/>
<text x="1370.28" y="802" font-size="11" fill="#555555" text-anchor="middle">02-12</text>
<text x="1370.28" y="818" font-size="11" fill="#555555" text-anchor="middle">19:45</text>
<line x1="1424.76" y1="316.19" x2="1424.76" y2="401.10" stroke="#e74c3c" stroke-width="2"/>
<rect x="1409.51" y="343.51" width="30.51" height="28.30" fill="#e74c3c" stroke="#e74c3c" stroke-width="1"/>
<text x="1424.76" y="802" font-size="11" fill="#555555" text-anchor="middle">02-12</text>
<text x="1424.76" y="818" font-size="11" fill="#555555" text-anchor="middle">20:00</text>
<line x1="716.52" y1="80.00" x2="786.52" y2="104.00" stroke="#f39c12" stroke-width="2"/>
<rect x="786.52" y="52.00" width="280" height="90" rx="10" fill="#fff8dc" stroke="#f39c12"/>
<text x="798.52" y="76.00" font-size="13" fill="#111111">15m定位时间 2026-02-12 16:45:00</text>
<text x="798.52" y="96.00" font-size="13" fill="#111111">该15m最高价 0.028910</text>
<text x="798.52" y="116.00" font-size="13" fill="#111111">10倍价横线已标出</text>
<text x="798.52" y="136.00" font-size="13" fill="#111111">竖线高亮首次触达10倍价的15m</text>
</svg>