<svg xmlns="http://www.w3.org/2000/svg" width="1500" height="860" viewBox="0 0 1500 860">
<rect width="100%" height="100%" fill="#fcfcfc"/>
<text x="90" y="38" font-size="28" font-weight="700" fill="#111111">MOVE-USDT-SWAP 15m - 10倍命中定位图</text>
<text x="90" y="68" font-size="16" fill="#555555">1H命中时间: 2025-12-14 17:00:00 | 10倍价: 0.047026 | 命中倍数: 12.1988x</text>
<line x1="90" y1="80.00" x2="1452" y2="80.00" stroke="#d9d9d9" stroke-dasharray="4 4" stroke-width="1"/>
<text x="12" y="84.00" font-size="12" fill="#555555">0.048720</text>
<line x1="90" y1="210.00" x2="1452" y2="210.00" stroke="#d9d9d9" stroke-dasharray="4 4" stroke-width="1"/>
<text x="12" y="214.00" font-size="12" fill="#555555">0.046704</text>
<line x1="90" y1="340.00" x2="1452" y2="340.00" stroke="#d9d9d9" stroke-dasharray="4 4" stroke-width="1"/>
<text x="12" y="344.00" font-size="12" fill="#555555">0.044688</text>
<line x1="90" y1="470.00" x2="1452" y2="470.00" stroke="#d9d9d9" stroke-dasharray="4 4" stroke-width="1"/>
<text x="12" y="474.00" font-size="12" fill="#555555">0.042672</text>
<line x1="90" y1="600.00" x2="1452" y2="600.00" stroke="#d9d9d9" stroke-dasharray="4 4" stroke-width="1"/>
<text x="12" y="604.00" font-size="12" fill="#555555">0.040656</text>
<line x1="90" y1="730.00" x2="1452" y2="730.00" stroke="#d9d9d9" stroke-dasharray="4 4" stroke-width="1"/>
<text x="12" y="734.00" font-size="12" fill="#555555">0.038640</text>
<rect x="525.84" y="80" width="54.48" height="650.00" fill="#f1c40f" opacity="0.16"/>
<line x1="553.08" y1="80" x2="553.08" y2="730" stroke="#f39c12" stroke-width="2" stroke-dasharray="6 4"/>
<line x1="90" y1="189.26" x2="1452" y2="189.26" stroke="#8e44ad" stroke-width="2" stroke-dasharray="8 4"/>
<text x="1444" y="181.26" font-size="13" fill="#8e44ad" text-anchor="end">10倍价 0.047026</text>
<line x1="117.24" y1="714.52" x2="117.24" y2="721.62" stroke="#e74c3c" stroke-width="2"/>
<rect x="101.99" y="715.17" width="30.51" height="1.93" fill="#e74c3c" stroke="#e74c3c" stroke-width="1"/>
<text x="117.24" y="802" font-size="11" fill="#555555" text-anchor="middle">12-14</text>
<text x="117.24" y="818" font-size="11" fill="#555555" text-anchor="middle">15:00</text>
<line x1="171.72" y1="711.94" x2="171.72" y2="724.84" stroke="#e74c3c" stroke-width="2"/>
<rect x="156.47" y="716.46" width="30.51" height="1.29" fill="#e74c3c" stroke="#e74c3c" stroke-width="1"/>
<text x="171.72" y="802" font-size="11" fill="#555555" text-anchor="middle">12-14</text>
<text x="171.72" y="818" font-size="11" fill="#555555" text-anchor="middle">15:15</text>
<line x1="226.20" y1="712.59" x2="226.20" y2="719.68" stroke="#2ecc71" stroke-width="2"/>
<rect x="210.95" y="715.81" width="30.51" height="2.58" fill="#2ecc71" stroke="#2ecc71" stroke-width="1"/>
<text x="226.20" y="802" font-size="11" fill="#555555" text-anchor="middle">12-14</text>
<text x="226.20" y="818" font-size="11" fill="#555555" text-anchor="middle">15:30</text>
<line x1="280.68" y1="699.05" x2="280.68" y2="718.39" stroke="#2ecc71" stroke-width="2"/>
<rect x="265.43" y="715.81" width="30.51" height="1.20" fill="#2ecc71" stroke="#2ecc71" stroke-width="1"/>
<text x="280.68" y="802" font-size="11" fill="#555555" text-anchor="middle">12-14</text>
<text x="280.68" y="818" font-size="11" fill="#555555" text-anchor="middle">15:45</text>
<line x1="335.16" y1="705.50" x2="335.16" y2="730.00" stroke="#2ecc71" stroke-width="2"/>
<rect x="319.91" y="711.30" width="30.51" height="5.80" fill="#2ecc71" stroke="#2ecc71" stroke-width="1"/>
<text x="335.16" y="802" font-size="11" fill="#555555" text-anchor="middle">12-14</text>
<text x="335.16" y="818" font-size="11" fill="#555555" text-anchor="middle">16:00</text>
<line x1="389.64" y1="710.65" x2="389.64" y2="729.36" stroke="#e74c3c" stroke-width="2"/>
<rect x="374.39" y="710.65" width="30.51" height="16.12" fill="#e74c3c" stroke="#e74c3c" stroke-width="1"/>
<text x="389.64" y="802" font-size="11" fill="#555555" text-anchor="middle">12-14</text>
<text x="389.64" y="818" font-size="11" fill="#555555" text-anchor="middle">16:15</text>
<line x1="444.12" y1="703.56" x2="444.12" y2="727.42" stroke="#2ecc71" stroke-width="2"/>
<rect x="428.87" y="722.26" width="30.51" height="5.16" fill="#2ecc71" stroke="#2ecc71" stroke-width="1"/>
<text x="444.12" y="802" font-size="11" fill="#555555" text-anchor="middle">12-14</text>
<text x="444.12" y="818" font-size="11" fill="#555555" text-anchor="middle">16:30</text>
<line x1="498.60" y1="680.99" x2="498.60" y2="725.49" stroke="#2ecc71" stroke-width="2"/>
<rect x="483.35" y="680.99" width="30.51" height="41.27" fill="#2ecc71" stroke="#2ecc71" stroke-width="1"/>
<text x="498.60" y="802" font-size="11" fill="#555555" text-anchor="middle">12-14</text>
<text x="498.60" y="818" font-size="11" fill="#555555" text-anchor="middle">16:45</text>
<line x1="553.08" y1="80.00" x2="553.08" y2="686.15" stroke="#2ecc71" stroke-width="2"/>
<rect x="537.83" y="358.57" width="30.51" height="323.71" fill="#2ecc71" stroke="#2ecc71" stroke-width="1"/>
<text x="553.08" y="802" font-size="11" fill="#555555" text-anchor="middle">12-14</text>
<text x="553.08" y="818" font-size="11" fill="#555555" text-anchor="middle">17:00</text>
<line x1="607.56" y1="203.81" x2="607.56" y2="502.37" stroke="#e74c3c" stroke-width="2"/>
<rect x="592.31" y="355.99" width="30.51" height="105.75" fill="#e74c3c" stroke="#e74c3c" stroke-width="1"/>
<text x="607.56" y="802" font-size="11" fill="#555555" text-anchor="middle">12-14</text>
<text x="607.56" y="818" font-size="11" fill="#555555" text-anchor="middle">17:15</text>
<line x1="662.04" y1="341.81" x2="662.04" y2="466.26" stroke="#2ecc71" stroke-width="2"/>
<rect x="646.79" y="359.22" width="30.51" height="102.53" fill="#2ecc71" stroke="#2ecc71" stroke-width="1"/>
<text x="662.04" y="802" font-size="11" fill="#555555" text-anchor="middle">12-14</text>
<text x="662.04" y="818" font-size="11" fill="#555555" text-anchor="middle">17:30</text>
<line x1="716.52" y1="222.51" x2="716.52" y2="399.84" stroke="#2ecc71" stroke-width="2"/>
<rect x="701.27" y="239.92" width="30.51" height="119.30" fill="#2ecc71" stroke="#2ecc71" stroke-width="1"/>
<text x="716.52" y="802" font-size="11" fill="#555555" text-anchor="middle">12-14</text>
<text x="716.52" y="818" font-size="11" fill="#555555" text-anchor="middle">17:45</text>
<line x1="771.00" y1="136.10" x2="771.00" y2="295.38" stroke="#2ecc71" stroke-width="2"/>
<rect x="755.75" y="180.60" width="30.51" height="62.55" fill="#2ecc71" stroke="#2ecc71" stroke-width="1"/>
<text x="771.00" y="802" font-size="11" fill="#555555" text-anchor="middle">12-14</text>
<text x="771.00" y="818" font-size="11" fill="#555555" text-anchor="middle">18:00</text>
<line x1="825.48" y1="111.60" x2="825.48" y2="242.50" stroke="#e74c3c" stroke-width="2"/>
<rect x="810.23" y="180.60" width="30.51" height="23.86" fill="#e74c3c" stroke="#e74c3c" stroke-width="1"/>
<text x="825.48" y="802" font-size="11" fill="#555555" text-anchor="middle">12-14</text>
<text x="825.48" y="818" font-size="11" fill="#555555" text-anchor="middle">18:15</text>
<line x1="879.96" y1="152.22" x2="879.96" y2="259.91" stroke="#e74c3c" stroke-width="2"/>
<rect x="864.71" y="203.81" width="30.51" height="18.70" fill="#e74c3c" stroke="#e74c3c" stroke-width="1"/>
<text x="879.96" y="802" font-size="11" fill="#555555" text-anchor="middle">12-14</text>
<text x="879.96" y="818" font-size="11" fill="#555555" text-anchor="middle">18:30</text>
<line x1="934.44" y1="195.43" x2="934.44" y2="268.29" stroke="#e74c3c" stroke-width="2"/>
<rect x="919.19" y="221.22" width="30.51" height="31.60" fill="#e74c3c" stroke="#e74c3c" stroke-width="1"/>
<text x="934.44" y="802" font-size="11" fill="#555555" text-anchor="middle">12-14</text>
<text x="934.44" y="818" font-size="11" fill="#555555" text-anchor="middle">18:45</text>
<line x1="988.92" y1="136.75" x2="988.92" y2="290.86" stroke="#2ecc71" stroke-width="2"/>
<rect x="973.67" y="185.75" width="30.51" height="69.00" fill="#2ecc71" stroke="#2ecc71" stroke-width="1"/>
<text x="988.92" y="802" font-size="11" fill="#555555" text-anchor="middle">12-14</text>
<text x="988.92" y="818" font-size="11" fill="#555555" text-anchor="middle">19:00</text>
<line x1="1043.40" y1="178.02" x2="1043.40" y2="294.73" stroke="#e74c3c" stroke-width="2"/>
<rect x="1028.15" y="185.11" width="30.51" height="50.94" fill="#e74c3c" stroke="#e74c3c" stroke-width="1"/>
<text x="1043.40" y="802" font-size="11" fill="#555555" text-anchor="middle">12-14</text>
<text x="1043.40" y="818" font-size="11" fill="#555555" text-anchor="middle">19:15</text>
<line x1="1097.88" y1="198.01" x2="1097.88" y2="266.36" stroke="#e74c3c" stroke-width="2"/>
<rect x="1082.63" y="234.76" width="30.51" height="29.02" fill="#e74c3c" stroke="#e74c3c" stroke-width="1"/>
<text x="1097.88" y="802" font-size="11" fill="#555555" text-anchor="middle">12-14</text>
<text x="1097.88" y="818" font-size="11" fill="#555555" text-anchor="middle">19:30</text>
<line x1="1152.36" y1="261.85" x2="1152.36" y2="328.91" stroke="#e74c3c" stroke-width="2"/>
<rect x="1137.11" y="264.42" width="30.51" height="47.72" fill="#e74c3c" stroke="#e74c3c" stroke-width="1"/>
<text x="1152.36" y="802" font-size="11" fill="#555555" text-anchor="middle">12-14</text>
<text x="1152.36" y="818" font-size="11" fill="#555555" text-anchor="middle">19:45</text>
<line x1="1206.84" y1="308.27" x2="1206.84" y2="381.79" stroke="#e74c3c" stroke-width="2"/>
<rect x="1191.59" y="313.43" width="30.51" height="25.79" fill="#e74c3c" stroke="#e74c3c" stroke-width="1"/>
<text x="1206.84" y="802" font-size="11" fill="#555555" text-anchor="middle">12-14</text>
<text x="1206.84" y="818" font-size="11" fill="#555555" text-anchor="middle">20:00</text>
<line x1="1261.32" y1="295.38" x2="1261.32" y2="352.77" stroke="#2ecc71" stroke-width="2"/>
<rect x="1246.07" y="312.79" width="30.51" height="26.44" fill="#2ecc71" stroke="#2ecc71" stroke-width="1"/>
<text x="1261.32" y="802" font-size="11" fill="#555555" text-anchor="middle">12-14</text>
<text x="1261.32" y="818" font-size="11" fill="#555555" text-anchor="middle">20:15</text>
<line x1="1315.80" y1="294.73" x2="1315.80" y2="339.23" stroke="#e74c3c" stroke-width="2"/>
<rect x="1300.55" y="312.79" width="30.51" height="20.63" fill="#e74c3c" stroke="#e74c3c" stroke-width="1"/>
<text x="1315.80" y="802" font-size="11" fill="#555555" text-anchor="middle">12-14</text>
<text x="1315.80" y="818" font-size="11" fill="#555555" text-anchor="middle">20:30</text>
<line x1="1370.28" y1="322.46" x2="1370.28" y2="448.85" stroke="#e74c3c" stroke-width="2"/>
<rect x="1355.03" y="334.07" width="30.51" height="98.02" fill="#e74c3c" stroke="#e74c3c" stroke-width="1"/>
<text x="1370.28" y="802" font-size="11" fill="#555555" text-anchor="middle">12-14</text>
<text x="1370.28" y="818" font-size="11" fill="#555555" text-anchor="middle">20:45</text>
<line x1="1424.76" y1="394.04" x2="1424.76" y2="446.27" stroke="#2ecc71" stroke-width="2"/>
<rect x="1409.51" y="412.09" width="30.51" height="21.28" fill="#2ecc71" stroke="#2ecc71" stroke-width="1"/>
<text x="1424.76" y="802" font-size="11" fill="#555555" text-anchor="middle">12-14</text>
<text x="1424.76" y="818" font-size="11" fill="#555555" text-anchor="middle">21:00</text>
<line x1="553.08" y1="80.00" x2="623.08" y2="104.00" stroke="#f39c12" stroke-width="2"/>
<rect x="623.08" y="52.00" width="280" height="90" rx="10" fill="#fff8dc" stroke="#f39c12"/>
<text x="635.08" y="76.00" font-size="13" fill="#111111">15m定位时间 2025-12-14 17:00:00</text>
<text x="635.08" y="96.00" font-size="13" fill="#111111">该15m最高价 0.048720</text>
<text x="635.08" y="116.00" font-size="13" fill="#111111">10倍价横线已标出</text>
<text x="635.08" y="136.00" font-size="13" fill="#111111">竖线高亮首次触达10倍价的15m</text>
</svg>