<svg xmlns="http://www.w3.org/2000/svg" width="1500" height="860" viewBox="0 0 1500 860">
<rect width="100%" height="100%" fill="#fcfcfc"/>
<text x="90" y="38" font-size="28" font-weight="700" fill="#111111">MUBARAK-USDT-SWAP 15m - 10倍命中定位图</text>
<text x="90" y="68" font-size="16" fill="#555555">1H命中时间: 2026-01-01 03:00:00 | 10倍价: 0.019676 | 命中倍数: 14.8305x</text>
<line x1="90" y1="80.00" x2="1452" y2="80.00" stroke="#d9d9d9" stroke-dasharray="4 4" stroke-width="1"/>
<text x="12" y="84.00" font-size="12" fill="#555555">0.025600</text>
<line x1="90" y1="210.00" x2="1452" y2="210.00" stroke="#d9d9d9" stroke-dasharray="4 4" stroke-width="1"/>
<text x="12" y="214.00" font-size="12" fill="#555555">0.023572</text>
<line x1="90" y1="340.00" x2="1452" y2="340.00" stroke="#d9d9d9" stroke-dasharray="4 4" stroke-width="1"/>
<text x="12" y="344.00" font-size="12" fill="#555555">0.021544</text>
<line x1="90" y1="470.00" x2="1452" y2="470.00" stroke="#d9d9d9" stroke-dasharray="4 4" stroke-width="1"/>
<text x="12" y="474.00" font-size="12" fill="#555555">0.019516</text>
<line x1="90" y1="600.00" x2="1452" y2="600.00" stroke="#d9d9d9" stroke-dasharray="4 4" stroke-width="1"/>
<text x="12" y="604.00" font-size="12" fill="#555555">0.017488</text>
<line x1="90" y1="730.00" x2="1452" y2="730.00" stroke="#d9d9d9" stroke-dasharray="4 4" stroke-width="1"/>
<text x="12" y="734.00" font-size="12" fill="#555555">0.015460</text>
<rect x="689.28" y="80" width="54.48" height="650.00" fill="#f1c40f" opacity="0.16"/>
<line x1="716.52" y1="80" x2="716.52" y2="730" stroke="#f39c12" stroke-width="2" stroke-dasharray="6 4"/>
<line x1="90" y1="459.74" x2="1452" y2="459.74" stroke="#8e44ad" stroke-width="2" stroke-dasharray="8 4"/>
<text x="1444" y="451.74" font-size="13" fill="#8e44ad" text-anchor="end">10倍价 0.019676</text>
<line x1="117.24" y1="713.97" x2="117.24" y2="728.72" stroke="#2ecc71" stroke-width="2"/>
<rect x="101.99" y="723.59" width="30.51" height="2.56" fill="#2ecc71" stroke="#2ecc71" stroke-width="1"/>
<text x="117.24" y="802" font-size="11" fill="#555555" text-anchor="middle">01-01</text>
<text x="117.24" y="818" font-size="11" fill="#555555" text-anchor="middle">01:00</text>
<line x1="171.72" y1="721.03" x2="171.72" y2="725.51" stroke="#2ecc71" stroke-width="2"/>
<rect x="156.47" y="722.31" width="30.51" height="2.56" fill="#2ecc71" stroke="#2ecc71" stroke-width="1"/>
<text x="171.72" y="802" font-size="11" fill="#555555" text-anchor="middle">01-01</text>
<text x="171.72" y="818" font-size="11" fill="#555555" text-anchor="middle">01:15</text>
<line x1="226.20" y1="719.74" x2="226.20" y2="730.00" stroke="#e74c3c" stroke-width="2"/>
<rect x="210.95" y="722.31" width="30.51" height="7.69" fill="#e74c3c" stroke="#e74c3c" stroke-width="1"/>
<text x="226.20" y="802" font-size="11" fill="#555555" text-anchor="middle">01-01</text>
<text x="226.20" y="818" font-size="11" fill="#555555" text-anchor="middle">01:30</text>
<line x1="280.68" y1="722.31" x2="280.68" y2="730.00" stroke="#2ecc71" stroke-width="2"/>
<rect x="265.43" y="723.59" width="30.51" height="3.85" fill="#2ecc71" stroke="#2ecc71" stroke-width="1"/>
<text x="280.68" y="802" font-size="11" fill="#555555" text-anchor="middle">01-01</text>
<text x="280.68" y="818" font-size="11" fill="#555555" text-anchor="middle">01:45</text>
<line x1="335.16" y1="704.36" x2="335.16" y2="722.31" stroke="#2ecc71" stroke-width="2"/>
<rect x="319.91" y="711.41" width="30.51" height="10.90" fill="#2ecc71" stroke="#2ecc71" stroke-width="1"/>
<text x="335.16" y="802" font-size="11" fill="#555555" text-anchor="middle">01-01</text>
<text x="335.16" y="818" font-size="11" fill="#555555" text-anchor="middle">02:00</text>
<line x1="389.64" y1="698.59" x2="389.64" y2="709.49" stroke="#2ecc71" stroke-width="2"/>
<rect x="374.39" y="705.00" width="30.51" height="4.49" fill="#2ecc71" stroke="#2ecc71" stroke-width="1"/>
<text x="389.64" y="802" font-size="11" fill="#555555" text-anchor="middle">01-01</text>
<text x="389.64" y="818" font-size="11" fill="#555555" text-anchor="middle">02:15</text>
<line x1="444.12" y1="702.44" x2="444.12" y2="714.62" stroke="#e74c3c" stroke-width="2"/>
<rect x="428.87" y="705.64" width="30.51" height="8.97" fill="#e74c3c" stroke="#e74c3c" stroke-width="1"/>
<text x="444.12" y="802" font-size="11" fill="#555555" text-anchor="middle">01-01</text>
<text x="444.12" y="818" font-size="11" fill="#555555" text-anchor="middle">02:30</text>
<line x1="498.60" y1="701.15" x2="498.60" y2="716.54" stroke="#2ecc71" stroke-width="2"/>
<rect x="483.35" y="703.72" width="30.51" height="10.26" fill="#2ecc71" stroke="#2ecc71" stroke-width="1"/>
<text x="498.60" y="802" font-size="11" fill="#555555" text-anchor="middle">01-01</text>
<text x="498.60" y="818" font-size="11" fill="#555555" text-anchor="middle">02:45</text>
<line x1="553.08" y1="665.90" x2="553.08" y2="701.79" stroke="#2ecc71" stroke-width="2"/>
<rect x="537.83" y="674.23" width="30.51" height="27.56" fill="#2ecc71" stroke="#2ecc71" stroke-width="1"/>
<text x="553.08" y="802" font-size="11" fill="#555555" text-anchor="middle">01-01</text>
<text x="553.08" y="818" font-size="11" fill="#555555" text-anchor="middle">03:00</text>
<line x1="607.56" y1="505.00" x2="607.56" y2="675.51" stroke="#2ecc71" stroke-width="2"/>
<rect x="592.31" y="518.46" width="30.51" height="155.13" fill="#2ecc71" stroke="#2ecc71" stroke-width="1"/>
<text x="607.56" y="802" font-size="11" fill="#555555" text-anchor="middle">01-01</text>
<text x="607.56" y="818" font-size="11" fill="#555555" text-anchor="middle">03:15</text>
<line x1="662.04" y1="461.41" x2="662.04" y2="560.77" stroke="#2ecc71" stroke-width="2"/>
<rect x="646.79" y="472.95" width="30.51" height="46.79" fill="#2ecc71" stroke="#2ecc71" stroke-width="1"/>
<text x="662.04" y="802" font-size="11" fill="#555555" text-anchor="middle">01-01</text>
<text x="662.04" y="818" font-size="11" fill="#555555" text-anchor="middle">03:30</text>
<line x1="716.52" y1="342.82" x2="716.52" y2="481.28" stroke="#2ecc71" stroke-width="2"/>
<rect x="701.27" y="410.77" width="30.51" height="62.82" fill="#2ecc71" stroke="#2ecc71" stroke-width="1"/>
<text x="716.52" y="802" font-size="11" fill="#555555" text-anchor="middle">01-01</text>
<text x="716.52" y="818" font-size="11" fill="#555555" text-anchor="middle">03:45</text>
<line x1="771.00" y1="313.33" x2="771.00" y2="457.56" stroke="#2ecc71" stroke-width="2"/>
<rect x="755.75" y="374.23" width="30.51" height="36.54" fill="#2ecc71" stroke="#2ecc71" stroke-width="1"/>
<text x="771.00" y="802" font-size="11" fill="#555555" text-anchor="middle">01-01</text>
<text x="771.00" y="818" font-size="11" fill="#555555" text-anchor="middle">04:00</text>
<line x1="825.48" y1="80.00" x2="825.48" y2="440.90" stroke="#2ecc71" stroke-width="2"/>
<rect x="810.23" y="213.33" width="30.51" height="160.26" fill="#2ecc71" stroke="#2ecc71" stroke-width="1"/>
<text x="825.48" y="802" font-size="11" fill="#555555" text-anchor="middle">01-01</text>
<text x="825.48" y="818" font-size="11" fill="#555555" text-anchor="middle">04:15</text>
<line x1="879.96" y1="215.90" x2="879.96" y2="579.36" stroke="#e74c3c" stroke-width="2"/>
<rect x="864.71" y="215.90" width="30.51" height="330.13" fill="#e74c3c" stroke="#e74c3c" stroke-width="1"/>
<text x="879.96" y="802" font-size="11" fill="#555555" text-anchor="middle">01-01</text>
<text x="879.96" y="818" font-size="11" fill="#555555" text-anchor="middle">04:30</text>
<line x1="934.44" y1="524.23" x2="934.44" y2="620.38" stroke="#e74c3c" stroke-width="2"/>
<rect x="919.19" y="544.74" width="30.51" height="9.62" fill="#e74c3c" stroke="#e74c3c" stroke-width="1"/>
<text x="934.44" y="802" font-size="11" fill="#555555" text-anchor="middle">01-01</text>
<text x="934.44" y="818" font-size="11" fill="#555555" text-anchor="middle">04:45</text>
<line x1="988.92" y1="547.95" x2="988.92" y2="614.62" stroke="#e74c3c" stroke-width="2"/>
<rect x="973.67" y="554.36" width="30.51" height="14.74" fill="#e74c3c" stroke="#e74c3c" stroke-width="1"/>
<text x="988.92" y="802" font-size="11" fill="#555555" text-anchor="middle">01-01</text>
<text x="988.92" y="818" font-size="11" fill="#555555" text-anchor="middle">05:00</text>
<line x1="1043.40" y1="525.51" x2="1043.40" y2="581.28" stroke="#2ecc71" stroke-width="2"/>
<rect x="1028.15" y="563.33" width="30.51" height="4.49" fill="#2ecc71" stroke="#2ecc71" stroke-width="1"/>
<text x="1043.40" y="802" font-size="11" fill="#555555" text-anchor="middle">01-01</text>
<text x="1043.40" y="818" font-size="11" fill="#555555" text-anchor="middle">05:15</text>
<line x1="1097.88" y1="542.18" x2="1097.88" y2="567.82" stroke="#2ecc71" stroke-width="2"/>
<rect x="1082.63" y="546.67" width="30.51" height="18.59" fill="#2ecc71" stroke="#2ecc71" stroke-width="1"/>
<text x="1097.88" y="802" font-size="11" fill="#555555" text-anchor="middle">01-01</text>
<text x="1097.88" y="818" font-size="11" fill="#555555" text-anchor="middle">05:30</text>
<line x1="1152.36" y1="545.38" x2="1152.36" y2="560.13" stroke="#e74c3c" stroke-width="2"/>
<rect x="1137.11" y="546.03" width="30.51" height="6.41" fill="#e74c3c" stroke="#e74c3c" stroke-width="1"/>
<text x="1152.36" y="802" font-size="11" fill="#555555" text-anchor="middle">01-01</text>
<text x="1152.36" y="818" font-size="11" fill="#555555" text-anchor="middle">05:45</text>
<line x1="1206.84" y1="519.74" x2="1206.84" y2="556.92" stroke="#2ecc71" stroke-width="2"/>
<rect x="1191.59" y="542.82" width="30.51" height="10.90" fill="#2ecc71" stroke="#2ecc71" stroke-width="1"/>
<text x="1206.84" y="802" font-size="11" fill="#555555" text-anchor="middle">01-01</text>
<text x="1206.84" y="818" font-size="11" fill="#555555" text-anchor="middle">06:00</text>
<line x1="1261.32" y1="453.08" x2="1261.32" y2="554.36" stroke="#2ecc71" stroke-width="2"/>
<rect x="1246.07" y="492.82" width="30.51" height="52.56" fill="#2ecc71" stroke="#2ecc71" stroke-width="1"/>
<text x="1261.32" y="802" font-size="11" fill="#555555" text-anchor="middle">01-01</text>
<text x="1261.32" y="818" font-size="11" fill="#555555" text-anchor="middle">06:15</text>
<line x1="1315.80" y1="471.67" x2="1315.80" y2="522.95" stroke="#e74c3c" stroke-width="2"/>
<rect x="1300.55" y="492.18" width="30.51" height="8.97" fill="#e74c3c" stroke="#e74c3c" stroke-width="1"/>
<text x="1315.80" y="802" font-size="11" fill="#555555" text-anchor="middle">01-01</text>
<text x="1315.80" y="818" font-size="11" fill="#555555" text-anchor="middle">06:30</text>
<line x1="1370.28" y1="499.87" x2="1370.28" y2="538.33" stroke="#e74c3c" stroke-width="2"/>
<rect x="1355.03" y="502.44" width="30.51" height="24.36" fill="#e74c3c" stroke="#e74c3c" stroke-width="1"/>
<text x="1370.28" y="802" font-size="11" fill="#555555" text-anchor="middle">01-01</text>
<text x="1370.28" y="818" font-size="11" fill="#555555" text-anchor="middle">06:45</text>
<line x1="1424.76" y1="512.05" x2="1424.76" y2="537.05" stroke="#2ecc71" stroke-width="2"/>
<rect x="1409.51" y="516.54" width="30.51" height="10.90" fill="#2ecc71" stroke="#2ecc71" stroke-width="1"/>
<text x="1424.76" y="802" font-size="11" fill="#555555" text-anchor="middle">01-01</text>
<text x="1424.76" y="818" font-size="11" fill="#555555" text-anchor="middle">07:00</text>
<line x1="716.52" y1="342.82" x2="786.52" y2="252.82" stroke="#f39c12" stroke-width="2"/>
<rect x="786.52" y="200.82" width="280" height="90" rx="10" fill="#fff8dc" stroke="#f39c12"/>
<text x="798.52" y="224.82" font-size="13" fill="#111111">15m定位时间 2026-01-01 03:45:00</text>
<text x="798.52" y="244.82" font-size="13" fill="#111111">该15m最高价 0.021500</text>
<text x="798.52" y="264.82" font-size="13" fill="#111111">10倍价横线已标出</text>
<text x="798.52" y="284.82" font-size="13" fill="#111111">竖线高亮首次触达10倍价的15m</text>
</svg>