<svg xmlns="http://www.w3.org/2000/svg" width="1500" height="860" viewBox="0 0 1500 860">
<rect width="100%" height="100%" fill="#fcfcfc"/>
<text x="90" y="38" font-size="28" font-weight="700" fill="#111111">ONT-USDT-SWAP 15m - 10倍命中定位图</text>
<text x="90" y="68" font-size="16" fill="#555555">1H命中时间: 2026-03-30 08:00:00 | 10倍价: 0.074362 | 命中倍数: 21.7885x</text>
<line x1="90" y1="80.00" x2="1452" y2="80.00" stroke="#d9d9d9" stroke-dasharray="4 4" stroke-width="1"/>
<text x="12" y="84.00" font-size="12" fill="#555555">0.093320</text>
<line x1="90" y1="210.00" x2="1452" y2="210.00" stroke="#d9d9d9" stroke-dasharray="4 4" stroke-width="1"/>
<text x="12" y="214.00" font-size="12" fill="#555555">0.086258</text>
<line x1="90" y1="340.00" x2="1452" y2="340.00" stroke="#d9d9d9" stroke-dasharray="4 4" stroke-width="1"/>
<text x="12" y="344.00" font-size="12" fill="#555555">0.079196</text>
<line x1="90" y1="470.00" x2="1452" y2="470.00" stroke="#d9d9d9" stroke-dasharray="4 4" stroke-width="1"/>
<text x="12" y="474.00" font-size="12" fill="#555555">0.072134</text>
<line x1="90" y1="600.00" x2="1452" y2="600.00" stroke="#d9d9d9" stroke-dasharray="4 4" stroke-width="1"/>
<text x="12" y="604.00" font-size="12" fill="#555555">0.065072</text>
<line x1="90" y1="730.00" x2="1452" y2="730.00" stroke="#d9d9d9" stroke-dasharray="4 4" stroke-width="1"/>
<text x="12" y="734.00" font-size="12" fill="#555555">0.058010</text>
<rect x="580.32" y="80" width="54.48" height="650.00" fill="#f1c40f" opacity="0.16"/>
<line x1="607.56" y1="80" x2="607.56" y2="730" stroke="#f39c12" stroke-width="2" stroke-dasharray="6 4"/>
<line x1="90" y1="428.99" x2="1452" y2="428.99" stroke="#8e44ad" stroke-width="2" stroke-dasharray="8 4"/>
<text x="1444" y="420.99" font-size="13" fill="#8e44ad" text-anchor="end">10倍价 0.074362</text>
<line x1="117.24" y1="696.68" x2="117.24" y2="705.89" stroke="#e74c3c" stroke-width="2"/>
<rect x="101.99" y="697.60" width="30.51" height="6.07" fill="#e74c3c" stroke="#e74c3c" stroke-width="1"/>
<text x="117.24" y="802" font-size="11" fill="#555555" text-anchor="middle">03-30</text>
<text x="117.24" y="818" font-size="11" fill="#555555" text-anchor="middle">06:00</text>
<line x1="171.72" y1="698.71" x2="171.72" y2="705.15" stroke="#2ecc71" stroke-width="2"/>
<rect x="156.47" y="699.07" width="30.51" height="4.60" fill="#2ecc71" stroke="#2ecc71" stroke-width="1"/>
<text x="171.72" y="802" font-size="11" fill="#555555" text-anchor="middle">03-30</text>
<text x="171.72" y="818" font-size="11" fill="#555555" text-anchor="middle">06:15</text>
<line x1="226.20" y1="699.07" x2="226.20" y2="721.53" stroke="#e74c3c" stroke-width="2"/>
<rect x="210.95" y="699.07" width="30.51" height="17.12" fill="#e74c3c" stroke="#e74c3c" stroke-width="1"/>
<text x="226.20" y="802" font-size="11" fill="#555555" text-anchor="middle">03-30</text>
<text x="226.20" y="818" font-size="11" fill="#555555" text-anchor="middle">06:30</text>
<line x1="280.68" y1="712.88" x2="280.68" y2="730.00" stroke="#2ecc71" stroke-width="2"/>
<rect x="265.43" y="714.35" width="30.51" height="1.84" fill="#2ecc71" stroke="#2ecc71" stroke-width="1"/>
<text x="280.68" y="802" font-size="11" fill="#555555" text-anchor="middle">03-30</text>
<text x="280.68" y="818" font-size="11" fill="#555555" text-anchor="middle">06:45</text>
<line x1="335.16" y1="703.68" x2="335.16" y2="718.59" stroke="#2ecc71" stroke-width="2"/>
<rect x="319.91" y="712.70" width="30.51" height="1.66" fill="#2ecc71" stroke="#2ecc71" stroke-width="1"/>
<text x="335.16" y="802" font-size="11" fill="#555555" text-anchor="middle">03-30</text>
<text x="335.16" y="818" font-size="11" fill="#555555" text-anchor="middle">07:00</text>
<line x1="389.64" y1="704.23" x2="389.64" y2="712.88" stroke="#2ecc71" stroke-width="2"/>
<rect x="374.39" y="708.65" width="30.51" height="3.87" fill="#2ecc71" stroke="#2ecc71" stroke-width="1"/>
<text x="389.64" y="802" font-size="11" fill="#555555" text-anchor="middle">03-30</text>
<text x="389.64" y="818" font-size="11" fill="#555555" text-anchor="middle">07:15</text>
<line x1="444.12" y1="698.34" x2="444.12" y2="709.75" stroke="#2ecc71" stroke-width="2"/>
<rect x="428.87" y="699.26" width="30.51" height="9.20" fill="#2ecc71" stroke="#2ecc71" stroke-width="1"/>
<text x="444.12" y="802" font-size="11" fill="#555555" text-anchor="middle">03-30</text>
<text x="444.12" y="818" font-size="11" fill="#555555" text-anchor="middle">07:30</text>
<line x1="498.60" y1="689.50" x2="498.60" y2="712.33" stroke="#2ecc71" stroke-width="2"/>
<rect x="483.35" y="695.02" width="30.51" height="4.23" fill="#2ecc71" stroke="#2ecc71" stroke-width="1"/>
<text x="498.60" y="802" font-size="11" fill="#555555" text-anchor="middle">03-30</text>
<text x="498.60" y="818" font-size="11" fill="#555555" text-anchor="middle">07:45</text>
<line x1="553.08" y1="634.64" x2="553.08" y2="725.03" stroke="#2ecc71" stroke-width="2"/>
<rect x="537.83" y="635.20" width="30.51" height="59.83" fill="#2ecc71" stroke="#2ecc71" stroke-width="1"/>
<text x="553.08" y="802" font-size="11" fill="#555555" text-anchor="middle">03-30</text>
<text x="553.08" y="818" font-size="11" fill="#555555" text-anchor="middle">08:00</text>
<line x1="607.56" y1="242.36" x2="607.56" y2="637.04" stroke="#2ecc71" stroke-width="2"/>
<rect x="592.31" y="257.64" width="30.51" height="377.37" fill="#2ecc71" stroke="#2ecc71" stroke-width="1"/>
<text x="607.56" y="802" font-size="11" fill="#555555" text-anchor="middle">03-30</text>
<text x="607.56" y="818" font-size="11" fill="#555555" text-anchor="middle">08:15</text>
<line x1="662.04" y1="80.00" x2="662.04" y2="397.18" stroke="#e74c3c" stroke-width="2"/>
<rect x="646.79" y="257.27" width="30.51" height="116.16" fill="#e74c3c" stroke="#e74c3c" stroke-width="1"/>
<text x="662.04" y="802" font-size="11" fill="#555555" text-anchor="middle">03-30</text>
<text x="662.04" y="818" font-size="11" fill="#555555" text-anchor="middle">08:30</text>
<line x1="716.52" y1="367.54" x2="716.52" y2="440.80" stroke="#e74c3c" stroke-width="2"/>
<rect x="701.27" y="373.43" width="30.51" height="48.23" fill="#e74c3c" stroke="#e74c3c" stroke-width="1"/>
<text x="716.52" y="802" font-size="11" fill="#555555" text-anchor="middle">03-30</text>
<text x="716.52" y="818" font-size="11" fill="#555555" text-anchor="middle">08:45</text>
<line x1="771.00" y1="399.02" x2="771.00" y2="471.91" stroke="#e74c3c" stroke-width="2"/>
<rect x="755.75" y="422.03" width="30.51" height="22.83" fill="#e74c3c" stroke="#e74c3c" stroke-width="1"/>
<text x="771.00" y="802" font-size="11" fill="#555555" text-anchor="middle">03-30</text>
<text x="771.00" y="818" font-size="11" fill="#555555" text-anchor="middle">09:00</text>
<line x1="825.48" y1="387.79" x2="825.48" y2="464.18" stroke="#e74c3c" stroke-width="2"/>
<rect x="810.23" y="445.04" width="30.51" height="2.02" fill="#e74c3c" stroke="#e74c3c" stroke-width="1"/>
<text x="825.48" y="802" font-size="11" fill="#555555" text-anchor="middle">03-30</text>
<text x="825.48" y="818" font-size="11" fill="#555555" text-anchor="middle">09:15</text>
<line x1="879.96" y1="436.39" x2="879.96" y2="468.79" stroke="#e74c3c" stroke-width="2"/>
<rect x="864.71" y="446.88" width="30.51" height="6.81" fill="#e74c3c" stroke="#e74c3c" stroke-width="1"/>
<text x="879.96" y="802" font-size="11" fill="#555555" text-anchor="middle">03-30</text>
<text x="879.96" y="818" font-size="11" fill="#555555" text-anchor="middle">09:30</text>
<line x1="934.44" y1="432.70" x2="934.44" y2="465.10" stroke="#2ecc71" stroke-width="2"/>
<rect x="919.19" y="435.65" width="30.51" height="18.22" fill="#2ecc71" stroke="#2ecc71" stroke-width="1"/>
<text x="934.44" y="802" font-size="11" fill="#555555" text-anchor="middle">03-30</text>
<text x="934.44" y="818" font-size="11" fill="#555555" text-anchor="middle">09:45</text>
<line x1="988.92" y1="422.03" x2="988.92" y2="460.69" stroke="#e74c3c" stroke-width="2"/>
<rect x="973.67" y="435.65" width="30.51" height="11.60" fill="#e74c3c" stroke="#e74c3c" stroke-width="1"/>
<text x="988.92" y="802" font-size="11" fill="#555555" text-anchor="middle">03-30</text>
<text x="988.92" y="818" font-size="11" fill="#555555" text-anchor="middle">10:00</text>
<line x1="1043.40" y1="442.09" x2="1043.40" y2="459.40" stroke="#2ecc71" stroke-width="2"/>
<rect x="1028.15" y="444.30" width="30.51" height="2.95" fill="#2ecc71" stroke="#2ecc71" stroke-width="1"/>
<text x="1043.40" y="802" font-size="11" fill="#555555" text-anchor="middle">03-30</text>
<text x="1043.40" y="818" font-size="11" fill="#555555" text-anchor="middle">10:15</text>
<line x1="1097.88" y1="437.86" x2="1097.88" y2="465.10" stroke="#2ecc71" stroke-width="2"/>
<rect x="1082.63" y="443.38" width="30.51" height="1.20" fill="#2ecc71" stroke="#2ecc71" stroke-width="1"/>
<text x="1097.88" y="802" font-size="11" fill="#555555" text-anchor="middle">03-30</text>
<text x="1097.88" y="818" font-size="11" fill="#555555" text-anchor="middle">10:30</text>
<line x1="1152.36" y1="408.77" x2="1152.36" y2="449.82" stroke="#2ecc71" stroke-width="2"/>
<rect x="1137.11" y="420.92" width="30.51" height="22.46" fill="#2ecc71" stroke="#2ecc71" stroke-width="1"/>
<text x="1152.36" y="802" font-size="11" fill="#555555" text-anchor="middle">03-30</text>
<text x="1152.36" y="818" font-size="11" fill="#555555" text-anchor="middle">10:45</text>
<line x1="1206.84" y1="371.22" x2="1206.84" y2="427.92" stroke="#2ecc71" stroke-width="2"/>
<rect x="1191.59" y="394.78" width="30.51" height="26.88" fill="#2ecc71" stroke="#2ecc71" stroke-width="1"/>
<text x="1206.84" y="802" font-size="11" fill="#555555" text-anchor="middle">03-30</text>
<text x="1206.84" y="818" font-size="11" fill="#555555" text-anchor="middle">11:00</text>
<line x1="1261.32" y1="364.78" x2="1261.32" y2="484.43" stroke="#e74c3c" stroke-width="2"/>
<rect x="1246.07" y="394.97" width="30.51" height="76.95" fill="#e74c3c" stroke="#e74c3c" stroke-width="1"/>
<text x="1261.32" y="802" font-size="11" fill="#555555" text-anchor="middle">03-30</text>
<text x="1261.32" y="818" font-size="11" fill="#555555" text-anchor="middle">11:15</text>
<line x1="1315.80" y1="456.27" x2="1315.80" y2="483.33" stroke="#2ecc71" stroke-width="2"/>
<rect x="1300.55" y="468.60" width="30.51" height="3.31" fill="#2ecc71" stroke="#2ecc71" stroke-width="1"/>
<text x="1315.80" y="802" font-size="11" fill="#555555" text-anchor="middle">03-30</text>
<text x="1315.80" y="818" font-size="11" fill="#555555" text-anchor="middle">11:30</text>
<line x1="1370.28" y1="457.00" x2="1370.28" y2="472.28" stroke="#2ecc71" stroke-width="2"/>
<rect x="1355.03" y="463.45" width="30.51" height="4.97" fill="#2ecc71" stroke="#2ecc71" stroke-width="1"/>
<text x="1370.28" y="802" font-size="11" fill="#555555" text-anchor="middle">03-30</text>
<text x="1370.28" y="818" font-size="11" fill="#555555" text-anchor="middle">11:45</text>
<line x1="1424.76" y1="459.95" x2="1424.76" y2="471.18" stroke="#e74c3c" stroke-width="2"/>
<rect x="1409.51" y="463.63" width="30.51" height="1.20" fill="#e74c3c" stroke="#e74c3c" stroke-width="1"/>
<text x="1424.76" y="802" font-size="11" fill="#555555" text-anchor="middle">03-30</text>
<text x="1424.76" y="818" font-size="11" fill="#555555" text-anchor="middle">12:00</text>
<line x1="607.56" y1="242.36" x2="677.56" y2="152.36" stroke="#f39c12" stroke-width="2"/>
<rect x="677.56" y="100.36" width="280" height="90" rx="10" fill="#fff8dc" stroke="#f39c12"/>
<text x="689.56" y="124.36" font-size="13" fill="#111111">15m定位时间 2026-03-30 08:15:00</text>
<text x="689.56" y="144.36" font-size="13" fill="#111111">该15m最高价 0.084500</text>
<text x="689.56" y="164.36" font-size="13" fill="#111111">10倍价横线已标出</text>
<text x="689.56" y="184.36" font-size="13" fill="#111111">竖线高亮首次触达10倍价的15m</text>
</svg>