<svg xmlns="http://www.w3.org/2000/svg" width="1500" height="860" viewBox="0 0 1500 860">
<rect width="100%" height="100%" fill="#fcfcfc"/>
<text x="90" y="38" font-size="28" font-weight="700" fill="#111111">ORDER-USDT-SWAP 15m - 10倍命中定位图</text>
<text x="90" y="68" font-size="16" fill="#555555">1H命中时间: 2025-10-24 14:00:00 | 10倍价: 0.287958 | 命中倍数: 29.4366x</text>
<line x1="90" y1="80.00" x2="1452" y2="80.00" stroke="#d9d9d9" stroke-dasharray="4 4" stroke-width="1"/>
<text x="12" y="84.00" font-size="12" fill="#555555">0.394000</text>
<line x1="90" y1="210.00" x2="1452" y2="210.00" stroke="#d9d9d9" stroke-dasharray="4 4" stroke-width="1"/>
<text x="12" y="214.00" font-size="12" fill="#555555">0.360040</text>
<line x1="90" y1="340.00" x2="1452" y2="340.00" stroke="#d9d9d9" stroke-dasharray="4 4" stroke-width="1"/>
<text x="12" y="344.00" font-size="12" fill="#555555">0.326080</text>
<line x1="90" y1="470.00" x2="1452" y2="470.00" stroke="#d9d9d9" stroke-dasharray="4 4" stroke-width="1"/>
<text x="12" y="474.00" font-size="12" fill="#555555">0.292120</text>
<line x1="90" y1="600.00" x2="1452" y2="600.00" stroke="#d9d9d9" stroke-dasharray="4 4" stroke-width="1"/>
<text x="12" y="604.00" font-size="12" fill="#555555">0.258160</text>
<line x1="90" y1="730.00" x2="1452" y2="730.00" stroke="#d9d9d9" stroke-dasharray="4 4" stroke-width="1"/>
<text x="12" y="734.00" font-size="12" fill="#555555">0.224200</text>
<rect x="580.32" y="80" width="54.48" height="650.00" fill="#f1c40f" opacity="0.16"/>
<line x1="607.56" y1="80" x2="607.56" y2="730" stroke="#f39c12" stroke-width="2" stroke-dasharray="6 4"/>
<line x1="90" y1="485.93" x2="1452" y2="485.93" stroke="#8e44ad" stroke-width="2" stroke-dasharray="8 4"/>
<text x="1444" y="477.93" font-size="13" fill="#8e44ad" text-anchor="end">10倍价 0.287958</text>
<line x1="117.24" y1="720.81" x2="117.24" y2="729.62" stroke="#2ecc71" stroke-width="2"/>
<rect x="101.99" y="725.02" width="30.51" height="1.20" fill="#2ecc71" stroke="#2ecc71" stroke-width="1"/>
<text x="117.24" y="802" font-size="11" fill="#555555" text-anchor="middle">10-24</text>
<text x="117.24" y="818" font-size="11" fill="#555555" text-anchor="middle">12:00</text>
<line x1="171.72" y1="723.11" x2="171.72" y2="730.00" stroke="#2ecc71" stroke-width="2"/>
<rect x="156.47" y="724.26" width="30.51" height="1.20" fill="#2ecc71" stroke="#2ecc71" stroke-width="1"/>
<text x="171.72" y="802" font-size="11" fill="#555555" text-anchor="middle">10-24</text>
<text x="171.72" y="818" font-size="11" fill="#555555" text-anchor="middle">12:15</text>
<line x1="226.20" y1="712.01" x2="226.20" y2="725.02" stroke="#2ecc71" stroke-width="2"/>
<rect x="210.95" y="714.31" width="30.51" height="9.95" fill="#2ecc71" stroke="#2ecc71" stroke-width="1"/>
<text x="226.20" y="802" font-size="11" fill="#555555" text-anchor="middle">10-24</text>
<text x="226.20" y="818" font-size="11" fill="#555555" text-anchor="middle">12:30</text>
<line x1="280.68" y1="698.61" x2="280.68" y2="714.69" stroke="#2ecc71" stroke-width="2"/>
<rect x="265.43" y="698.61" width="30.51" height="15.31" fill="#2ecc71" stroke="#2ecc71" stroke-width="1"/>
<text x="280.68" y="802" font-size="11" fill="#555555" text-anchor="middle">10-24</text>
<text x="280.68" y="818" font-size="11" fill="#555555" text-anchor="middle">12:45</text>
<line x1="335.16" y1="691.72" x2="335.16" y2="707.80" stroke="#e74c3c" stroke-width="2"/>
<rect x="319.91" y="698.99" width="30.51" height="6.12" fill="#e74c3c" stroke="#e74c3c" stroke-width="1"/>
<text x="335.16" y="802" font-size="11" fill="#555555" text-anchor="middle">10-24</text>
<text x="335.16" y="818" font-size="11" fill="#555555" text-anchor="middle">13:00</text>
<line x1="389.64" y1="700.14" x2="389.64" y2="709.33" stroke="#2ecc71" stroke-width="2"/>
<rect x="374.39" y="700.91" width="30.51" height="3.45" fill="#2ecc71" stroke="#2ecc71" stroke-width="1"/>
<text x="389.64" y="802" font-size="11" fill="#555555" text-anchor="middle">10-24</text>
<text x="389.64" y="818" font-size="11" fill="#555555" text-anchor="middle">13:15</text>
<line x1="444.12" y1="690.19" x2="444.12" y2="701.67" stroke="#2ecc71" stroke-width="2"/>
<rect x="428.87" y="692.87" width="30.51" height="8.80" fill="#2ecc71" stroke="#2ecc71" stroke-width="1"/>
<text x="444.12" y="802" font-size="11" fill="#555555" text-anchor="middle">10-24</text>
<text x="444.12" y="818" font-size="11" fill="#555555" text-anchor="middle">13:30</text>
<line x1="498.60" y1="688.66" x2="498.60" y2="693.63" stroke="#2ecc71" stroke-width="2"/>
<rect x="483.35" y="689.81" width="30.51" height="2.30" fill="#2ecc71" stroke="#2ecc71" stroke-width="1"/>
<text x="498.60" y="802" font-size="11" fill="#555555" text-anchor="middle">10-24</text>
<text x="498.60" y="818" font-size="11" fill="#555555" text-anchor="middle">13:45</text>
<line x1="553.08" y1="684.06" x2="553.08" y2="694.78" stroke="#2ecc71" stroke-width="2"/>
<rect x="537.83" y="684.06" width="30.51" height="5.74" fill="#2ecc71" stroke="#2ecc71" stroke-width="1"/>
<text x="553.08" y="802" font-size="11" fill="#555555" text-anchor="middle">10-24</text>
<text x="553.08" y="818" font-size="11" fill="#555555" text-anchor="middle">14:00</text>
<line x1="607.56" y1="80.00" x2="607.56" y2="684.45" stroke="#2ecc71" stroke-width="2"/>
<rect x="592.31" y="485.01" width="30.51" height="199.06" fill="#2ecc71" stroke="#2ecc71" stroke-width="1"/>
<text x="607.56" y="802" font-size="11" fill="#555555" text-anchor="middle">10-24</text>
<text x="607.56" y="818" font-size="11" fill="#555555" text-anchor="middle">14:15</text>
<line x1="662.04" y1="460.12" x2="662.04" y2="525.97" stroke="#2ecc71" stroke-width="2"/>
<rect x="646.79" y="463.57" width="30.51" height="22.59" fill="#2ecc71" stroke="#2ecc71" stroke-width="1"/>
<text x="662.04" y="802" font-size="11" fill="#555555" text-anchor="middle">10-24</text>
<text x="662.04" y="818" font-size="11" fill="#555555" text-anchor="middle">14:30</text>
<line x1="716.52" y1="439.84" x2="716.52" y2="512.57" stroke="#e74c3c" stroke-width="2"/>
<rect x="701.27" y="463.57" width="30.51" height="13.02" fill="#e74c3c" stroke="#e74c3c" stroke-width="1"/>
<text x="716.52" y="802" font-size="11" fill="#555555" text-anchor="middle">10-24</text>
<text x="716.52" y="818" font-size="11" fill="#555555" text-anchor="middle">14:45</text>
<line x1="771.00" y1="344.90" x2="771.00" y2="489.60" stroke="#2ecc71" stroke-width="2"/>
<rect x="755.75" y="465.48" width="30.51" height="11.87" fill="#2ecc71" stroke="#2ecc71" stroke-width="1"/>
<text x="771.00" y="802" font-size="11" fill="#555555" text-anchor="middle">10-24</text>
<text x="771.00" y="818" font-size="11" fill="#555555" text-anchor="middle">15:00</text>
<line x1="825.48" y1="389.69" x2="825.48" y2="485.39" stroke="#2ecc71" stroke-width="2"/>
<rect x="810.23" y="409.98" width="30.51" height="56.65" fill="#2ecc71" stroke="#2ecc71" stroke-width="1"/>
<text x="825.48" y="802" font-size="11" fill="#555555" text-anchor="middle">10-24</text>
<text x="825.48" y="818" font-size="11" fill="#555555" text-anchor="middle">15:15</text>
<line x1="879.96" y1="363.27" x2="879.96" y2="412.27" stroke="#2ecc71" stroke-width="2"/>
<rect x="864.71" y="387.39" width="30.51" height="22.20" fill="#2ecc71" stroke="#2ecc71" stroke-width="1"/>
<text x="879.96" y="802" font-size="11" fill="#555555" text-anchor="middle">10-24</text>
<text x="879.96" y="818" font-size="11" fill="#555555" text-anchor="middle">15:30</text>
<line x1="934.44" y1="344.13" x2="934.44" y2="414.95" stroke="#e74c3c" stroke-width="2"/>
<rect x="919.19" y="387.01" width="30.51" height="11.48" fill="#e74c3c" stroke="#e74c3c" stroke-width="1"/>
<text x="934.44" y="802" font-size="11" fill="#555555" text-anchor="middle">10-24</text>
<text x="934.44" y="818" font-size="11" fill="#555555" text-anchor="middle">15:45</text>
<line x1="988.92" y1="379.35" x2="988.92" y2="447.87" stroke="#2ecc71" stroke-width="2"/>
<rect x="973.67" y="389.31" width="30.51" height="9.19" fill="#2ecc71" stroke="#2ecc71" stroke-width="1"/>
<text x="988.92" y="802" font-size="11" fill="#555555" text-anchor="middle">10-24</text>
<text x="988.92" y="818" font-size="11" fill="#555555" text-anchor="middle">16:00</text>
<line x1="1043.40" y1="381.65" x2="1043.40" y2="439.84" stroke="#e74c3c" stroke-width="2"/>
<rect x="1028.15" y="390.07" width="30.51" height="44.79" fill="#e74c3c" stroke="#e74c3c" stroke-width="1"/>
<text x="1043.40" y="802" font-size="11" fill="#555555" text-anchor="middle">10-24</text>
<text x="1043.40" y="818" font-size="11" fill="#555555" text-anchor="middle">16:15</text>
<line x1="1097.88" y1="408.06" x2="1097.88" y2="449.79" stroke="#2ecc71" stroke-width="2"/>
<rect x="1082.63" y="431.03" width="30.51" height="3.83" fill="#2ecc71" stroke="#2ecc71" stroke-width="1"/>
<text x="1097.88" y="802" font-size="11" fill="#555555" text-anchor="middle">10-24</text>
<text x="1097.88" y="818" font-size="11" fill="#555555" text-anchor="middle">16:30</text>
<line x1="1152.36" y1="413.42" x2="1152.36" y2="469.69" stroke="#e74c3c" stroke-width="2"/>
<rect x="1137.11" y="430.65" width="30.51" height="35.60" fill="#e74c3c" stroke="#e74c3c" stroke-width="1"/>
<text x="1152.36" y="802" font-size="11" fill="#555555" text-anchor="middle">10-24</text>
<text x="1152.36" y="818" font-size="11" fill="#555555" text-anchor="middle">16:45</text>
<line x1="1206.84" y1="451.70" x2="1206.84" y2="499.55" stroke="#2ecc71" stroke-width="2"/>
<rect x="1191.59" y="457.83" width="30.51" height="8.80" fill="#2ecc71" stroke="#2ecc71" stroke-width="1"/>
<text x="1206.84" y="802" font-size="11" fill="#555555" text-anchor="middle">10-24</text>
<text x="1206.84" y="818" font-size="11" fill="#555555" text-anchor="middle">17:00</text>
<line x1="1261.32" y1="455.53" x2="1261.32" y2="491.51" stroke="#e74c3c" stroke-width="2"/>
<rect x="1246.07" y="457.83" width="30.51" height="3.83" fill="#e74c3c" stroke="#e74c3c" stroke-width="1"/>
<text x="1261.32" y="802" font-size="11" fill="#555555" text-anchor="middle">10-24</text>
<text x="1261.32" y="818" font-size="11" fill="#555555" text-anchor="middle">17:15</text>
<line x1="1315.80" y1="457.83" x2="1315.80" y2="485.77" stroke="#e74c3c" stroke-width="2"/>
<rect x="1300.55" y="461.27" width="30.51" height="14.93" fill="#e74c3c" stroke="#e74c3c" stroke-width="1"/>
<text x="1315.80" y="802" font-size="11" fill="#555555" text-anchor="middle">10-24</text>
<text x="1315.80" y="818" font-size="11" fill="#555555" text-anchor="middle">17:30</text>
<line x1="1370.28" y1="438.69" x2="1370.28" y2="484.24" stroke="#2ecc71" stroke-width="2"/>
<rect x="1355.03" y="472.76" width="30.51" height="3.83" fill="#2ecc71" stroke="#2ecc71" stroke-width="1"/>
<text x="1370.28" y="802" font-size="11" fill="#555555" text-anchor="middle">10-24</text>
<text x="1370.28" y="818" font-size="11" fill="#555555" text-anchor="middle">17:45</text>
<line x1="1424.76" y1="452.85" x2="1424.76" y2="490.37" stroke="#2ecc71" stroke-width="2"/>
<rect x="1409.51" y="460.89" width="30.51" height="12.25" fill="#2ecc71" stroke="#2ecc71" stroke-width="1"/>
<text x="1424.76" y="802" font-size="11" fill="#555555" text-anchor="middle">10-24</text>
<text x="1424.76" y="818" font-size="11" fill="#555555" text-anchor="middle">18:00</text>
<line x1="607.56" y1="80.00" x2="677.56" y2="104.00" stroke="#f39c12" stroke-width="2"/>
<rect x="677.56" y="52.00" width="280" height="90" rx="10" fill="#fff8dc" stroke="#f39c12"/>
<text x="689.56" y="76.00" font-size="13" fill="#111111">15m定位时间 2025-10-24 14:15:00</text>
<text x="689.56" y="96.00" font-size="13" fill="#111111">该15m最高价 0.394000</text>
<text x="689.56" y="116.00" font-size="13" fill="#111111">10倍价横线已标出</text>
<text x="689.56" y="136.00" font-size="13" fill="#111111">竖线高亮首次触达10倍价的15m</text>
</svg>