<svg xmlns="http://www.w3.org/2000/svg" width="1500" height="860" viewBox="0 0 1500 860">
<rect width="100%" height="100%" fill="#fcfcfc"/>
<text x="90" y="38" font-size="28" font-weight="700" fill="#111111">ORDI-USDT-SWAP 15m - 10倍命中定位图</text>
<text x="90" y="68" font-size="16" fill="#555555">1H命中时间: 2023-11-07 14:00:00 | 10倍价: 9.622605 | 命中倍数: 11.5532x</text>
<line x1="90" y1="80.00" x2="1452" y2="80.00" stroke="#d9d9d9" stroke-dasharray="4 4" stroke-width="1"/>
<text x="12" y="84.00" font-size="12" fill="#555555">11.990000</text>
<line x1="90" y1="210.00" x2="1452" y2="210.00" stroke="#d9d9d9" stroke-dasharray="4 4" stroke-width="1"/>
<text x="12" y="214.00" font-size="12" fill="#555555">11.056200</text>
<line x1="90" y1="340.00" x2="1452" y2="340.00" stroke="#d9d9d9" stroke-dasharray="4 4" stroke-width="1"/>
<text x="12" y="344.00" font-size="12" fill="#555555">10.122400</text>
<line x1="90" y1="470.00" x2="1452" y2="470.00" stroke="#d9d9d9" stroke-dasharray="4 4" stroke-width="1"/>
<text x="12" y="474.00" font-size="12" fill="#555555">9.188600</text>
<line x1="90" y1="600.00" x2="1452" y2="600.00" stroke="#d9d9d9" stroke-dasharray="4 4" stroke-width="1"/>
<text x="12" y="604.00" font-size="12" fill="#555555">8.254800</text>
<line x1="90" y1="730.00" x2="1452" y2="730.00" stroke="#d9d9d9" stroke-dasharray="4 4" stroke-width="1"/>
<text x="12" y="734.00" font-size="12" fill="#555555">7.321000</text>
<rect x="634.80" y="80" width="54.48" height="650.00" fill="#f1c40f" opacity="0.16"/>
<line x1="662.04" y1="80" x2="662.04" y2="730" stroke="#f39c12" stroke-width="2" stroke-dasharray="6 4"/>
<line x1="90" y1="409.58" x2="1452" y2="409.58" stroke="#8e44ad" stroke-width="2" stroke-dasharray="8 4"/>
<text x="1444" y="401.58" font-size="13" fill="#8e44ad" text-anchor="end">10倍价 9.622605</text>
<line x1="117.24" y1="710.09" x2="117.24" y2="722.62" stroke="#e74c3c" stroke-width="2"/>
<rect x="101.99" y="712.88" width="30.51" height="8.07" fill="#e74c3c" stroke="#e74c3c" stroke-width="1"/>
<text x="117.24" y="802" font-size="11" fill="#555555" text-anchor="middle">11-07</text>
<text x="117.24" y="818" font-size="11" fill="#555555" text-anchor="middle">12:00</text>
<line x1="171.72" y1="713.99" x2="171.72" y2="722.76" stroke="#2ecc71" stroke-width="2"/>
<rect x="156.47" y="716.08" width="30.51" height="4.04" fill="#2ecc71" stroke="#2ecc71" stroke-width="1"/>
<text x="171.72" y="802" font-size="11" fill="#555555" text-anchor="middle">11-07</text>
<text x="171.72" y="818" font-size="11" fill="#555555" text-anchor="middle">12:15</text>
<line x1="226.20" y1="713.02" x2="226.20" y2="724.57" stroke="#e74c3c" stroke-width="2"/>
<rect x="210.95" y="715.94" width="30.51" height="8.35" fill="#e74c3c" stroke="#e74c3c" stroke-width="1"/>
<text x="226.20" y="802" font-size="11" fill="#555555" text-anchor="middle">11-07</text>
<text x="226.20" y="818" font-size="11" fill="#555555" text-anchor="middle">12:30</text>
<line x1="280.68" y1="713.85" x2="280.68" y2="724.43" stroke="#2ecc71" stroke-width="2"/>
<rect x="265.43" y="721.37" width="30.51" height="2.92" fill="#2ecc71" stroke="#2ecc71" stroke-width="1"/>
<text x="280.68" y="802" font-size="11" fill="#555555" text-anchor="middle">11-07</text>
<text x="280.68" y="818" font-size="11" fill="#555555" text-anchor="middle">12:45</text>
<line x1="335.16" y1="720.25" x2="335.16" y2="730.00" stroke="#e74c3c" stroke-width="2"/>
<rect x="319.91" y="721.65" width="30.51" height="6.13" fill="#e74c3c" stroke="#e74c3c" stroke-width="1"/>
<text x="335.16" y="802" font-size="11" fill="#555555" text-anchor="middle">11-07</text>
<text x="335.16" y="818" font-size="11" fill="#555555" text-anchor="middle">13:00</text>
<line x1="389.64" y1="723.74" x2="389.64" y2="729.86" stroke="#2ecc71" stroke-width="2"/>
<rect x="374.39" y="727.91" width="30.51" height="1.20" fill="#2ecc71" stroke="#2ecc71" stroke-width="1"/>
<text x="389.64" y="802" font-size="11" fill="#555555" text-anchor="middle">11-07</text>
<text x="389.64" y="818" font-size="11" fill="#555555" text-anchor="middle">13:15</text>
<line x1="444.12" y1="709.26" x2="444.12" y2="729.30" stroke="#2ecc71" stroke-width="2"/>
<rect x="428.87" y="712.18" width="30.51" height="15.45" fill="#2ecc71" stroke="#2ecc71" stroke-width="1"/>
<text x="444.12" y="802" font-size="11" fill="#555555" text-anchor="middle">11-07</text>
<text x="444.12" y="818" font-size="11" fill="#555555" text-anchor="middle">13:30</text>
<line x1="498.60" y1="699.93" x2="498.60" y2="712.88" stroke="#2ecc71" stroke-width="2"/>
<rect x="483.35" y="707.45" width="30.51" height="4.45" fill="#2ecc71" stroke="#2ecc71" stroke-width="1"/>
<text x="498.60" y="802" font-size="11" fill="#555555" text-anchor="middle">11-07</text>
<text x="498.60" y="818" font-size="11" fill="#555555" text-anchor="middle">13:45</text>
<line x1="553.08" y1="702.99" x2="553.08" y2="714.69" stroke="#e74c3c" stroke-width="2"/>
<rect x="537.83" y="706.61" width="30.51" height="1.20" fill="#e74c3c" stroke="#e74c3c" stroke-width="1"/>
<text x="553.08" y="802" font-size="11" fill="#555555" text-anchor="middle">11-07</text>
<text x="553.08" y="818" font-size="11" fill="#555555" text-anchor="middle">14:00</text>
<line x1="607.56" y1="702.99" x2="607.56" y2="713.99" stroke="#2ecc71" stroke-width="2"/>
<rect x="592.31" y="705.78" width="30.51" height="1.20" fill="#2ecc71" stroke="#2ecc71" stroke-width="1"/>
<text x="607.56" y="802" font-size="11" fill="#555555" text-anchor="middle">11-07</text>
<text x="607.56" y="818" font-size="11" fill="#555555" text-anchor="middle">14:15</text>
<line x1="662.04" y1="365.53" x2="662.04" y2="707.03" stroke="#2ecc71" stroke-width="2"/>
<rect x="646.79" y="375.28" width="30.51" height="331.06" fill="#2ecc71" stroke="#2ecc71" stroke-width="1"/>
<text x="662.04" y="802" font-size="11" fill="#555555" text-anchor="middle">11-07</text>
<text x="662.04" y="818" font-size="11" fill="#555555" text-anchor="middle">14:30</text>
<line x1="716.52" y1="362.19" x2="716.52" y2="552.64" stroke="#e74c3c" stroke-width="2"/>
<rect x="701.27" y="374.44" width="30.51" height="33.69" fill="#e74c3c" stroke="#e74c3c" stroke-width="1"/>
<text x="716.52" y="802" font-size="11" fill="#555555" text-anchor="middle">11-07</text>
<text x="716.52" y="818" font-size="11" fill="#555555" text-anchor="middle">14:45</text>
<line x1="771.00" y1="200.70" x2="771.00" y2="415.65" stroke="#2ecc71" stroke-width="2"/>
<rect x="755.75" y="231.47" width="30.51" height="177.36" fill="#2ecc71" stroke="#2ecc71" stroke-width="1"/>
<text x="771.00" y="802" font-size="11" fill="#555555" text-anchor="middle">11-07</text>
<text x="771.00" y="818" font-size="11" fill="#555555" text-anchor="middle">15:00</text>
<line x1="825.48" y1="102.00" x2="825.48" y2="238.57" stroke="#2ecc71" stroke-width="2"/>
<rect x="810.23" y="175.08" width="30.51" height="55.96" fill="#2ecc71" stroke="#2ecc71" stroke-width="1"/>
<text x="825.48" y="802" font-size="11" fill="#555555" text-anchor="middle">11-07</text>
<text x="825.48" y="818" font-size="11" fill="#555555" text-anchor="middle">15:15</text>
<line x1="879.96" y1="80.00" x2="879.96" y2="287.29" stroke="#e74c3c" stroke-width="2"/>
<rect x="864.71" y="175.08" width="30.51" height="52.07" fill="#e74c3c" stroke="#e74c3c" stroke-width="1"/>
<text x="879.96" y="802" font-size="11" fill="#555555" text-anchor="middle">11-07</text>
<text x="879.96" y="818" font-size="11" fill="#555555" text-anchor="middle">15:30</text>
<line x1="934.44" y1="203.90" x2="934.44" y2="265.02" stroke="#e74c3c" stroke-width="2"/>
<rect x="919.19" y="226.59" width="30.51" height="17.40" fill="#e74c3c" stroke="#e74c3c" stroke-width="1"/>
<text x="934.44" y="802" font-size="11" fill="#555555" text-anchor="middle">11-07</text>
<text x="934.44" y="818" font-size="11" fill="#555555" text-anchor="middle">15:45</text>
<line x1="988.92" y1="215.04" x2="988.92" y2="262.37" stroke="#2ecc71" stroke-width="2"/>
<rect x="973.67" y="229.24" width="30.51" height="14.76" fill="#2ecc71" stroke="#2ecc71" stroke-width="1"/>
<text x="988.92" y="802" font-size="11" fill="#555555" text-anchor="middle">11-07</text>
<text x="988.92" y="818" font-size="11" fill="#555555" text-anchor="middle">16:00</text>
<line x1="1043.40" y1="150.72" x2="1043.40" y2="233.42" stroke="#2ecc71" stroke-width="2"/>
<rect x="1028.15" y="170.07" width="30.51" height="59.72" fill="#2ecc71" stroke="#2ecc71" stroke-width="1"/>
<text x="1043.40" y="802" font-size="11" fill="#555555" text-anchor="middle">11-07</text>
<text x="1043.40" y="818" font-size="11" fill="#555555" text-anchor="middle">16:15</text>
<line x1="1097.88" y1="149.61" x2="1097.88" y2="248.73" stroke="#e74c3c" stroke-width="2"/>
<rect x="1082.63" y="169.93" width="30.51" height="70.03" fill="#e74c3c" stroke="#e74c3c" stroke-width="1"/>
<text x="1097.88" y="802" font-size="11" fill="#555555" text-anchor="middle">11-07</text>
<text x="1097.88" y="818" font-size="11" fill="#555555" text-anchor="middle">16:30</text>
<line x1="1152.36" y1="200.42" x2="1152.36" y2="264.18" stroke="#2ecc71" stroke-width="2"/>
<rect x="1137.11" y="219.08" width="30.51" height="21.02" fill="#2ecc71" stroke="#2ecc71" stroke-width="1"/>
<text x="1152.36" y="802" font-size="11" fill="#555555" text-anchor="middle">11-07</text>
<text x="1152.36" y="818" font-size="11" fill="#555555" text-anchor="middle">16:45</text>
<line x1="1206.84" y1="204.04" x2="1206.84" y2="257.92" stroke="#e74c3c" stroke-width="2"/>
<rect x="1191.59" y="218.80" width="30.51" height="35.78" fill="#e74c3c" stroke="#e74c3c" stroke-width="1"/>
<text x="1206.84" y="802" font-size="11" fill="#555555" text-anchor="middle">11-07</text>
<text x="1206.84" y="818" font-size="11" fill="#555555" text-anchor="middle">17:00</text>
<line x1="1261.32" y1="183.02" x2="1261.32" y2="257.92" stroke="#2ecc71" stroke-width="2"/>
<rect x="1246.07" y="206.83" width="30.51" height="46.92" fill="#2ecc71" stroke="#2ecc71" stroke-width="1"/>
<text x="1261.32" y="802" font-size="11" fill="#555555" text-anchor="middle">11-07</text>
<text x="1261.32" y="818" font-size="11" fill="#555555" text-anchor="middle">17:15</text>
<line x1="1315.80" y1="205.29" x2="1315.80" y2="286.18" stroke="#e74c3c" stroke-width="2"/>
<rect x="1300.55" y="206.97" width="30.51" height="22.83" fill="#e74c3c" stroke="#e74c3c" stroke-width="1"/>
<text x="1315.80" y="802" font-size="11" fill="#555555" text-anchor="middle">11-07</text>
<text x="1315.80" y="818" font-size="11" fill="#555555" text-anchor="middle">17:30</text>
<line x1="1370.28" y1="223.53" x2="1370.28" y2="252.91" stroke="#e74c3c" stroke-width="2"/>
<rect x="1355.03" y="229.52" width="30.51" height="18.10" fill="#e74c3c" stroke="#e74c3c" stroke-width="1"/>
<text x="1370.28" y="802" font-size="11" fill="#555555" text-anchor="middle">11-07</text>
<text x="1370.28" y="818" font-size="11" fill="#555555" text-anchor="middle">17:45</text>
<line x1="1424.76" y1="244.83" x2="1424.76" y2="315.14" stroke="#e74c3c" stroke-width="2"/>
<rect x="1409.51" y="248.17" width="30.51" height="40.37" fill="#e74c3c" stroke="#e74c3c" stroke-width="1"/>
<text x="1424.76" y="802" font-size="11" fill="#555555" text-anchor="middle">11-07</text>
<text x="1424.76" y="818" font-size="11" fill="#555555" text-anchor="middle">18:00</text>
<line x1="662.04" y1="365.53" x2="732.04" y2="275.53" stroke="#f39c12" stroke-width="2"/>
<rect x="732.04" y="223.53" width="280" height="90" rx="10" fill="#fff8dc" stroke="#f39c12"/>
<text x="744.04" y="247.53" font-size="13" fill="#111111">15m定位时间 2023-11-07 14:30:00</text>
<text x="744.04" y="267.53" font-size="13" fill="#111111">该15m最高价 9.939000</text>
<text x="744.04" y="287.53" font-size="13" fill="#111111">10倍价横线已标出</text>
<text x="744.04" y="307.53" font-size="13" fill="#111111">竖线高亮首次触达10倍价的15m</text>
</svg>