<svg xmlns="http://www.w3.org/2000/svg" width="1500" height="860" viewBox="0 0 1500 860">
<rect width="100%" height="100%" fill="#fcfcfc"/>
<text x="90" y="38" font-size="28" font-weight="700" fill="#111111">PEOPLE-USDT-SWAP 15m - 10倍命中定位图</text>
<text x="90" y="68" font-size="16" fill="#555555">1H命中时间: 2025-11-08 00:00:00 | 10倍价: 0.016583 | 命中倍数: 11.0714x</text>
<line x1="90" y1="80.00" x2="1452" y2="80.00" stroke="#d9d9d9" stroke-dasharray="4 4" stroke-width="1"/>
<text x="12" y="84.00" font-size="12" fill="#555555">0.017610</text>
<line x1="90" y1="210.00" x2="1452" y2="210.00" stroke="#d9d9d9" stroke-dasharray="4 4" stroke-width="1"/>
<text x="12" y="214.00" font-size="12" fill="#555555">0.016148</text>
<line x1="90" y1="340.00" x2="1452" y2="340.00" stroke="#d9d9d9" stroke-dasharray="4 4" stroke-width="1"/>
<text x="12" y="344.00" font-size="12" fill="#555555">0.014686</text>
<line x1="90" y1="470.00" x2="1452" y2="470.00" stroke="#d9d9d9" stroke-dasharray="4 4" stroke-width="1"/>
<text x="12" y="474.00" font-size="12" fill="#555555">0.013224</text>
<line x1="90" y1="600.00" x2="1452" y2="600.00" stroke="#d9d9d9" stroke-dasharray="4 4" stroke-width="1"/>
<text x="12" y="604.00" font-size="12" fill="#555555">0.011762</text>
<line x1="90" y1="730.00" x2="1452" y2="730.00" stroke="#d9d9d9" stroke-dasharray="4 4" stroke-width="1"/>
<text x="12" y="734.00" font-size="12" fill="#555555">0.010300</text>
<rect x="689.28" y="80" width="54.48" height="650.00" fill="#f1c40f" opacity="0.16"/>
<line x1="716.52" y1="80" x2="716.52" y2="730" stroke="#f39c12" stroke-width="2" stroke-dasharray="6 4"/>
<line x1="90" y1="171.36" x2="1452" y2="171.36" stroke="#8e44ad" stroke-width="2" stroke-dasharray="8 4"/>
<text x="1444" y="163.36" font-size="13" fill="#8e44ad" text-anchor="end">10倍价 0.016583</text>
<line x1="117.24" y1="703.32" x2="117.24" y2="716.66" stroke="#2ecc71" stroke-width="2"/>
<rect x="101.99" y="708.66" width="30.51" height="1.78" fill="#2ecc71" stroke="#2ecc71" stroke-width="1"/>
<text x="117.24" y="802" font-size="11" fill="#555555" text-anchor="middle">11-07</text>
<text x="117.24" y="818" font-size="11" fill="#555555" text-anchor="middle">22:00</text>
<line x1="171.72" y1="709.55" x2="171.72" y2="717.55" stroke="#e74c3c" stroke-width="2"/>
<rect x="156.47" y="709.55" width="30.51" height="3.56" fill="#e74c3c" stroke="#e74c3c" stroke-width="1"/>
<text x="171.72" y="802" font-size="11" fill="#555555" text-anchor="middle">11-07</text>
<text x="171.72" y="818" font-size="11" fill="#555555" text-anchor="middle">22:15</text>
<line x1="226.20" y1="696.21" x2="226.20" y2="730.00" stroke="#2ecc71" stroke-width="2"/>
<rect x="210.95" y="696.21" width="30.51" height="16.89" fill="#2ecc71" stroke="#2ecc71" stroke-width="1"/>
<text x="226.20" y="802" font-size="11" fill="#555555" text-anchor="middle">11-07</text>
<text x="226.20" y="818" font-size="11" fill="#555555" text-anchor="middle">22:30</text>
<line x1="280.68" y1="687.32" x2="280.68" y2="704.21" stroke="#2ecc71" stroke-width="2"/>
<rect x="265.43" y="691.76" width="30.51" height="4.45" fill="#2ecc71" stroke="#2ecc71" stroke-width="1"/>
<text x="280.68" y="802" font-size="11" fill="#555555" text-anchor="middle">11-07</text>
<text x="280.68" y="818" font-size="11" fill="#555555" text-anchor="middle">22:45</text>
<line x1="335.16" y1="671.31" x2="335.16" y2="697.99" stroke="#2ecc71" stroke-width="2"/>
<rect x="319.91" y="671.31" width="30.51" height="19.56" fill="#2ecc71" stroke="#2ecc71" stroke-width="1"/>
<text x="335.16" y="802" font-size="11" fill="#555555" text-anchor="middle">11-07</text>
<text x="335.16" y="818" font-size="11" fill="#555555" text-anchor="middle">23:00</text>
<line x1="389.64" y1="658.86" x2="389.64" y2="673.98" stroke="#2ecc71" stroke-width="2"/>
<rect x="374.39" y="661.53" width="30.51" height="10.67" fill="#2ecc71" stroke="#2ecc71" stroke-width="1"/>
<text x="389.64" y="802" font-size="11" fill="#555555" text-anchor="middle">11-07</text>
<text x="389.64" y="818" font-size="11" fill="#555555" text-anchor="middle">23:15</text>
<line x1="444.12" y1="657.98" x2="444.12" y2="673.09" stroke="#e74c3c" stroke-width="2"/>
<rect x="428.87" y="661.53" width="30.51" height="9.78" fill="#e74c3c" stroke="#e74c3c" stroke-width="1"/>
<text x="444.12" y="802" font-size="11" fill="#555555" text-anchor="middle">11-07</text>
<text x="444.12" y="818" font-size="11" fill="#555555" text-anchor="middle">23:30</text>
<line x1="498.60" y1="650.86" x2="498.60" y2="672.20" stroke="#2ecc71" stroke-width="2"/>
<rect x="483.35" y="657.98" width="30.51" height="12.45" fill="#2ecc71" stroke="#2ecc71" stroke-width="1"/>
<text x="498.60" y="802" font-size="11" fill="#555555" text-anchor="middle">11-07</text>
<text x="498.60" y="818" font-size="11" fill="#555555" text-anchor="middle">23:45</text>
<line x1="553.08" y1="644.64" x2="553.08" y2="658.86" stroke="#2ecc71" stroke-width="2"/>
<rect x="537.83" y="656.20" width="30.51" height="1.78" fill="#2ecc71" stroke="#2ecc71" stroke-width="1"/>
<text x="553.08" y="802" font-size="11" fill="#555555" text-anchor="middle">11-08</text>
<text x="553.08" y="818" font-size="11" fill="#555555" text-anchor="middle">00:00</text>
<line x1="607.56" y1="617.96" x2="607.56" y2="657.09" stroke="#2ecc71" stroke-width="2"/>
<rect x="592.31" y="619.74" width="30.51" height="35.57" fill="#2ecc71" stroke="#2ecc71" stroke-width="1"/>
<text x="607.56" y="802" font-size="11" fill="#555555" text-anchor="middle">11-08</text>
<text x="607.56" y="818" font-size="11" fill="#555555" text-anchor="middle">00:15</text>
<line x1="662.04" y1="591.29" x2="662.04" y2="624.19" stroke="#2ecc71" stroke-width="2"/>
<rect x="646.79" y="593.06" width="30.51" height="26.68" fill="#2ecc71" stroke="#2ecc71" stroke-width="1"/>
<text x="662.04" y="802" font-size="11" fill="#555555" text-anchor="middle">11-08</text>
<text x="662.04" y="818" font-size="11" fill="#555555" text-anchor="middle">00:30</text>
<line x1="716.52" y1="119.12" x2="716.52" y2="597.51" stroke="#2ecc71" stroke-width="2"/>
<rect x="701.27" y="144.91" width="30.51" height="448.15" fill="#2ecc71" stroke="#2ecc71" stroke-width="1"/>
<text x="716.52" y="802" font-size="11" fill="#555555" text-anchor="middle">11-08</text>
<text x="716.52" y="818" font-size="11" fill="#555555" text-anchor="middle">00:45</text>
<line x1="771.00" y1="80.00" x2="771.00" y2="418.78" stroke="#e74c3c" stroke-width="2"/>
<rect x="755.75" y="144.02" width="30.51" height="233.86" fill="#e74c3c" stroke="#e74c3c" stroke-width="1"/>
<text x="771.00" y="802" font-size="11" fill="#555555" text-anchor="middle">11-08</text>
<text x="771.00" y="818" font-size="11" fill="#555555" text-anchor="middle">01:00</text>
<line x1="825.48" y1="304.97" x2="825.48" y2="430.34" stroke="#2ecc71" stroke-width="2"/>
<rect x="810.23" y="348.54" width="30.51" height="30.23" fill="#2ecc71" stroke="#2ecc71" stroke-width="1"/>
<text x="825.48" y="802" font-size="11" fill="#555555" text-anchor="middle">11-08</text>
<text x="825.48" y="818" font-size="11" fill="#555555" text-anchor="middle">01:15</text>
<line x1="879.96" y1="260.51" x2="879.96" y2="349.43" stroke="#2ecc71" stroke-width="2"/>
<rect x="864.71" y="321.86" width="30.51" height="25.79" fill="#2ecc71" stroke="#2ecc71" stroke-width="1"/>
<text x="879.96" y="802" font-size="11" fill="#555555" text-anchor="middle">11-08</text>
<text x="879.96" y="818" font-size="11" fill="#555555" text-anchor="middle">01:30</text>
<line x1="934.44" y1="314.75" x2="934.44" y2="399.22" stroke="#e74c3c" stroke-width="2"/>
<rect x="919.19" y="322.75" width="30.51" height="30.23" fill="#e74c3c" stroke="#e74c3c" stroke-width="1"/>
<text x="934.44" y="802" font-size="11" fill="#555555" text-anchor="middle">11-08</text>
<text x="934.44" y="818" font-size="11" fill="#555555" text-anchor="middle">01:45</text>
<line x1="988.92" y1="329.86" x2="988.92" y2="387.66" stroke="#2ecc71" stroke-width="2"/>
<rect x="973.67" y="346.76" width="30.51" height="5.34" fill="#2ecc71" stroke="#2ecc71" stroke-width="1"/>
<text x="988.92" y="802" font-size="11" fill="#555555" text-anchor="middle">11-08</text>
<text x="988.92" y="818" font-size="11" fill="#555555" text-anchor="middle">02:00</text>
<line x1="1043.40" y1="329.86" x2="1043.40" y2="416.11" stroke="#e74c3c" stroke-width="2"/>
<rect x="1028.15" y="346.76" width="30.51" height="43.57" fill="#e74c3c" stroke="#e74c3c" stroke-width="1"/>
<text x="1043.40" y="802" font-size="11" fill="#555555" text-anchor="middle">11-08</text>
<text x="1043.40" y="818" font-size="11" fill="#555555" text-anchor="middle">02:15</text>
<line x1="1097.88" y1="377.88" x2="1097.88" y2="407.22" stroke="#e74c3c" stroke-width="2"/>
<rect x="1082.63" y="390.33" width="30.51" height="1.20" fill="#e74c3c" stroke="#e74c3c" stroke-width="1"/>
<text x="1097.88" y="802" font-size="11" fill="#555555" text-anchor="middle">11-08</text>
<text x="1097.88" y="818" font-size="11" fill="#555555" text-anchor="middle">02:30</text>
<line x1="1152.36" y1="344.09" x2="1152.36" y2="393.00" stroke="#2ecc71" stroke-width="2"/>
<rect x="1137.11" y="378.77" width="30.51" height="11.56" fill="#2ecc71" stroke="#2ecc71" stroke-width="1"/>
<text x="1152.36" y="802" font-size="11" fill="#555555" text-anchor="middle">11-08</text>
<text x="1152.36" y="818" font-size="11" fill="#555555" text-anchor="middle">02:45</text>
<line x1="1206.84" y1="358.32" x2="1206.84" y2="402.78" stroke="#2ecc71" stroke-width="2"/>
<rect x="1191.59" y="362.76" width="30.51" height="16.89" fill="#2ecc71" stroke="#2ecc71" stroke-width="1"/>
<text x="1206.84" y="802" font-size="11" fill="#555555" text-anchor="middle">11-08</text>
<text x="1206.84" y="818" font-size="11" fill="#555555" text-anchor="middle">03:00</text>
<line x1="1261.32" y1="340.53" x2="1261.32" y2="376.10" stroke="#2ecc71" stroke-width="2"/>
<rect x="1246.07" y="342.31" width="30.51" height="20.45" fill="#2ecc71" stroke="#2ecc71" stroke-width="1"/>
<text x="1261.32" y="802" font-size="11" fill="#555555" text-anchor="middle">11-08</text>
<text x="1261.32" y="818" font-size="11" fill="#555555" text-anchor="middle">03:15</text>
<line x1="1315.80" y1="339.64" x2="1315.80" y2="380.55" stroke="#e74c3c" stroke-width="2"/>
<rect x="1300.55" y="341.42" width="30.51" height="30.23" fill="#e74c3c" stroke="#e74c3c" stroke-width="1"/>
<text x="1315.80" y="802" font-size="11" fill="#555555" text-anchor="middle">11-08</text>
<text x="1315.80" y="818" font-size="11" fill="#555555" text-anchor="middle">03:30</text>
<line x1="1370.28" y1="370.77" x2="1370.28" y2="416.11" stroke="#e74c3c" stroke-width="2"/>
<rect x="1355.03" y="372.54" width="30.51" height="24.90" fill="#e74c3c" stroke="#e74c3c" stroke-width="1"/>
<text x="1370.28" y="802" font-size="11" fill="#555555" text-anchor="middle">11-08</text>
<text x="1370.28" y="818" font-size="11" fill="#555555" text-anchor="middle">03:45</text>
<line x1="1424.76" y1="391.22" x2="1424.76" y2="423.23" stroke="#e74c3c" stroke-width="2"/>
<rect x="1409.51" y="398.33" width="30.51" height="9.78" fill="#e74c3c" stroke="#e74c3c" stroke-width="1"/>
<text x="1424.76" y="802" font-size="11" fill="#555555" text-anchor="middle">11-08</text>
<text x="1424.76" y="818" font-size="11" fill="#555555" text-anchor="middle">04:00</text>
<line x1="716.52" y1="119.12" x2="786.52" y2="104.00" stroke="#f39c12" stroke-width="2"/>
<rect x="786.52" y="52.00" width="280" height="90" rx="10" fill="#fff8dc" stroke="#f39c12"/>
<text x="798.52" y="76.00" font-size="13" fill="#111111">15m定位时间 2025-11-08 00:45:00</text>
<text x="798.52" y="96.00" font-size="13" fill="#111111">该15m最高价 0.017170</text>
<text x="798.52" y="116.00" font-size="13" fill="#111111">10倍价横线已标出</text>
<text x="798.52" y="136.00" font-size="13" fill="#111111">竖线高亮首次触达10倍价的15m</text>
</svg>