<svg xmlns="http://www.w3.org/2000/svg" width="1500" height="860" viewBox="0 0 1500 860">
<rect width="100%" height="100%" fill="#fcfcfc"/>
<text x="90" y="38" font-size="28" font-weight="700" fill="#111111">PEOPLE-USDT-SWAP 15m - 10倍命中定位图</text>
<text x="90" y="68" font-size="16" fill="#555555">1H命中时间: 2025-04-20 14:00:00 | 10倍价: 0.016202 | 命中倍数: 12.7833x</text>
<line x1="90" y1="80.00" x2="1452" y2="80.00" stroke="#d9d9d9" stroke-dasharray="4 4" stroke-width="1"/>
<text x="12" y="84.00" font-size="12" fill="#555555">0.017440</text>
<line x1="90" y1="210.00" x2="1452" y2="210.00" stroke="#d9d9d9" stroke-dasharray="4 4" stroke-width="1"/>
<text x="12" y="214.00" font-size="12" fill="#555555">0.016330</text>
<line x1="90" y1="340.00" x2="1452" y2="340.00" stroke="#d9d9d9" stroke-dasharray="4 4" stroke-width="1"/>
<text x="12" y="344.00" font-size="12" fill="#555555">0.015220</text>
<line x1="90" y1="470.00" x2="1452" y2="470.00" stroke="#d9d9d9" stroke-dasharray="4 4" stroke-width="1"/>
<text x="12" y="474.00" font-size="12" fill="#555555">0.014110</text>
<line x1="90" y1="600.00" x2="1452" y2="600.00" stroke="#d9d9d9" stroke-dasharray="4 4" stroke-width="1"/>
<text x="12" y="604.00" font-size="12" fill="#555555">0.013000</text>
<line x1="90" y1="730.00" x2="1452" y2="730.00" stroke="#d9d9d9" stroke-dasharray="4 4" stroke-width="1"/>
<text x="12" y="734.00" font-size="12" fill="#555555">0.011890</text>
<rect x="634.80" y="80" width="54.48" height="650.00" fill="#f1c40f" opacity="0.16"/>
<line x1="662.04" y1="80" x2="662.04" y2="730" stroke="#f39c12" stroke-width="2" stroke-dasharray="6 4"/>
<line x1="90" y1="224.96" x2="1452" y2="224.96" stroke="#8e44ad" stroke-width="2" stroke-dasharray="8 4"/>
<text x="1444" y="216.96" font-size="13" fill="#8e44ad" text-anchor="end">10倍价 0.016202</text>
<line x1="117.24" y1="720.63" x2="117.24" y2="730.00" stroke="#2ecc71" stroke-width="2"/>
<rect x="101.99" y="724.14" width="30.51" height="3.51" fill="#2ecc71" stroke="#2ecc71" stroke-width="1"/>
<text x="117.24" y="802" font-size="11" fill="#555555" text-anchor="middle">04-20</text>
<text x="117.24" y="818" font-size="11" fill="#555555" text-anchor="middle">12:00</text>
<line x1="171.72" y1="705.41" x2="171.72" y2="725.32" stroke="#2ecc71" stroke-width="2"/>
<rect x="156.47" y="708.92" width="30.51" height="15.23" fill="#2ecc71" stroke="#2ecc71" stroke-width="1"/>
<text x="171.72" y="802" font-size="11" fill="#555555" text-anchor="middle">04-20</text>
<text x="171.72" y="818" font-size="11" fill="#555555" text-anchor="middle">12:15</text>
<line x1="226.20" y1="698.38" x2="226.20" y2="708.92" stroke="#2ecc71" stroke-width="2"/>
<rect x="210.95" y="705.41" width="30.51" height="3.51" fill="#2ecc71" stroke="#2ecc71" stroke-width="1"/>
<text x="226.20" y="802" font-size="11" fill="#555555" text-anchor="middle">04-20</text>
<text x="226.20" y="818" font-size="11" fill="#555555" text-anchor="middle">12:30</text>
<line x1="280.68" y1="696.04" x2="280.68" y2="706.58" stroke="#e74c3c" stroke-width="2"/>
<rect x="265.43" y="704.23" width="30.51" height="1.20" fill="#e74c3c" stroke="#e74c3c" stroke-width="1"/>
<text x="280.68" y="802" font-size="11" fill="#555555" text-anchor="middle">04-20</text>
<text x="280.68" y="818" font-size="11" fill="#555555" text-anchor="middle">12:45</text>
<line x1="335.16" y1="671.44" x2="335.16" y2="706.58" stroke="#2ecc71" stroke-width="2"/>
<rect x="319.91" y="674.95" width="30.51" height="30.45" fill="#2ecc71" stroke="#2ecc71" stroke-width="1"/>
<text x="335.16" y="802" font-size="11" fill="#555555" text-anchor="middle">04-20</text>
<text x="335.16" y="818" font-size="11" fill="#555555" text-anchor="middle">13:00</text>
<line x1="389.64" y1="662.07" x2="389.64" y2="686.67" stroke="#e74c3c" stroke-width="2"/>
<rect x="374.39" y="676.13" width="30.51" height="10.54" fill="#e74c3c" stroke="#e74c3c" stroke-width="1"/>
<text x="389.64" y="802" font-size="11" fill="#555555" text-anchor="middle">04-20</text>
<text x="389.64" y="818" font-size="11" fill="#555555" text-anchor="middle">13:15</text>
<line x1="444.12" y1="686.67" x2="444.12" y2="701.89" stroke="#e74c3c" stroke-width="2"/>
<rect x="428.87" y="687.84" width="30.51" height="12.88" fill="#e74c3c" stroke="#e74c3c" stroke-width="1"/>
<text x="444.12" y="802" font-size="11" fill="#555555" text-anchor="middle">04-20</text>
<text x="444.12" y="818" font-size="11" fill="#555555" text-anchor="middle">13:30</text>
<line x1="498.60" y1="671.44" x2="498.60" y2="704.23" stroke="#2ecc71" stroke-width="2"/>
<rect x="483.35" y="677.30" width="30.51" height="23.42" fill="#2ecc71" stroke="#2ecc71" stroke-width="1"/>
<text x="498.60" y="802" font-size="11" fill="#555555" text-anchor="middle">04-20</text>
<text x="498.60" y="818" font-size="11" fill="#555555" text-anchor="middle">13:45</text>
<line x1="553.08" y1="392.70" x2="553.08" y2="678.47" stroke="#2ecc71" stroke-width="2"/>
<rect x="537.83" y="431.35" width="30.51" height="247.12" fill="#2ecc71" stroke="#2ecc71" stroke-width="1"/>
<text x="553.08" y="802" font-size="11" fill="#555555" text-anchor="middle">04-20</text>
<text x="553.08" y="818" font-size="11" fill="#555555" text-anchor="middle">14:00</text>
<line x1="607.56" y1="391.53" x2="607.56" y2="508.65" stroke="#e74c3c" stroke-width="2"/>
<rect x="592.31" y="431.35" width="30.51" height="11.71" fill="#e74c3c" stroke="#e74c3c" stroke-width="1"/>
<text x="607.56" y="802" font-size="11" fill="#555555" text-anchor="middle">04-20</text>
<text x="607.56" y="818" font-size="11" fill="#555555" text-anchor="middle">14:15</text>
<line x1="662.04" y1="166.67" x2="662.04" y2="464.14" stroke="#2ecc71" stroke-width="2"/>
<rect x="646.79" y="210.00" width="30.51" height="234.23" fill="#2ecc71" stroke="#2ecc71" stroke-width="1"/>
<text x="662.04" y="802" font-size="11" fill="#555555" text-anchor="middle">04-20</text>
<text x="662.04" y="818" font-size="11" fill="#555555" text-anchor="middle">14:30</text>
<line x1="716.52" y1="98.74" x2="716.52" y2="225.23" stroke="#2ecc71" stroke-width="2"/>
<rect x="701.27" y="138.56" width="30.51" height="70.27" fill="#2ecc71" stroke="#2ecc71" stroke-width="1"/>
<text x="716.52" y="802" font-size="11" fill="#555555" text-anchor="middle">04-20</text>
<text x="716.52" y="818" font-size="11" fill="#555555" text-anchor="middle">14:45</text>
<line x1="771.00" y1="80.00" x2="771.00" y2="259.19" stroke="#e74c3c" stroke-width="2"/>
<rect x="755.75" y="138.56" width="30.51" height="108.92" fill="#e74c3c" stroke="#e74c3c" stroke-width="1"/>
<text x="771.00" y="802" font-size="11" fill="#555555" text-anchor="middle">04-20</text>
<text x="771.00" y="818" font-size="11" fill="#555555" text-anchor="middle">15:00</text>
<line x1="825.48" y1="233.42" x2="825.48" y2="426.67" stroke="#e74c3c" stroke-width="2"/>
<rect x="810.23" y="246.31" width="30.51" height="162.79" fill="#e74c3c" stroke="#e74c3c" stroke-width="1"/>
<text x="825.48" y="802" font-size="11" fill="#555555" text-anchor="middle">04-20</text>
<text x="825.48" y="818" font-size="11" fill="#555555" text-anchor="middle">15:15</text>
<line x1="879.96" y1="399.73" x2="879.96" y2="495.77" stroke="#e74c3c" stroke-width="2"/>
<rect x="864.71" y="410.27" width="30.51" height="67.93" fill="#e74c3c" stroke="#e74c3c" stroke-width="1"/>
<text x="879.96" y="802" font-size="11" fill="#555555" text-anchor="middle">04-20</text>
<text x="879.96" y="818" font-size="11" fill="#555555" text-anchor="middle">15:30</text>
<line x1="934.44" y1="471.17" x2="934.44" y2="596.49" stroke="#e74c3c" stroke-width="2"/>
<rect x="919.19" y="478.20" width="30.51" height="103.06" fill="#e74c3c" stroke="#e74c3c" stroke-width="1"/>
<text x="934.44" y="802" font-size="11" fill="#555555" text-anchor="middle">04-20</text>
<text x="934.44" y="818" font-size="11" fill="#555555" text-anchor="middle">15:45</text>
<line x1="988.92" y1="563.69" x2="988.92" y2="612.88" stroke="#2ecc71" stroke-width="2"/>
<rect x="973.67" y="578.92" width="30.51" height="2.34" fill="#2ecc71" stroke="#2ecc71" stroke-width="1"/>
<text x="988.92" y="802" font-size="11" fill="#555555" text-anchor="middle">04-20</text>
<text x="988.92" y="818" font-size="11" fill="#555555" text-anchor="middle">16:00</text>
<line x1="1043.40" y1="561.35" x2="1043.40" y2="635.14" stroke="#e74c3c" stroke-width="2"/>
<rect x="1028.15" y="580.09" width="30.51" height="16.40" fill="#e74c3c" stroke="#e74c3c" stroke-width="1"/>
<text x="1043.40" y="802" font-size="11" fill="#555555" text-anchor="middle">04-20</text>
<text x="1043.40" y="818" font-size="11" fill="#555555" text-anchor="middle">16:15</text>
<line x1="1097.88" y1="590.63" x2="1097.88" y2="611.71" stroke="#e74c3c" stroke-width="2"/>
<rect x="1082.63" y="596.49" width="30.51" height="8.20" fill="#e74c3c" stroke="#e74c3c" stroke-width="1"/>
<text x="1097.88" y="802" font-size="11" fill="#555555" text-anchor="middle">04-20</text>
<text x="1097.88" y="818" font-size="11" fill="#555555" text-anchor="middle">16:30</text>
<line x1="1152.36" y1="578.92" x2="1152.36" y2="611.71" stroke="#2ecc71" stroke-width="2"/>
<rect x="1137.11" y="595.32" width="30.51" height="9.37" fill="#2ecc71" stroke="#2ecc71" stroke-width="1"/>
<text x="1152.36" y="802" font-size="11" fill="#555555" text-anchor="middle">04-20</text>
<text x="1152.36" y="818" font-size="11" fill="#555555" text-anchor="middle">16:45</text>
<line x1="1206.84" y1="569.55" x2="1206.84" y2="607.03" stroke="#2ecc71" stroke-width="2"/>
<rect x="1191.59" y="582.43" width="30.51" height="12.88" fill="#2ecc71" stroke="#2ecc71" stroke-width="1"/>
<text x="1206.84" y="802" font-size="11" fill="#555555" text-anchor="middle">04-20</text>
<text x="1206.84" y="818" font-size="11" fill="#555555" text-anchor="middle">17:00</text>
<line x1="1261.32" y1="566.04" x2="1261.32" y2="597.66" stroke="#e74c3c" stroke-width="2"/>
<rect x="1246.07" y="582.43" width="30.51" height="8.20" fill="#e74c3c" stroke="#e74c3c" stroke-width="1"/>
<text x="1261.32" y="802" font-size="11" fill="#555555" text-anchor="middle">04-20</text>
<text x="1261.32" y="818" font-size="11" fill="#555555" text-anchor="middle">17:15</text>
<line x1="1315.80" y1="584.77" x2="1315.80" y2="615.23" stroke="#e74c3c" stroke-width="2"/>
<rect x="1300.55" y="589.46" width="30.51" height="24.59" fill="#e74c3c" stroke="#e74c3c" stroke-width="1"/>
<text x="1315.80" y="802" font-size="11" fill="#555555" text-anchor="middle">04-20</text>
<text x="1315.80" y="818" font-size="11" fill="#555555" text-anchor="middle">17:30</text>
<line x1="1370.28" y1="610.54" x2="1370.28" y2="673.78" stroke="#e74c3c" stroke-width="2"/>
<rect x="1355.03" y="614.05" width="30.51" height="52.70" fill="#e74c3c" stroke="#e74c3c" stroke-width="1"/>
<text x="1370.28" y="802" font-size="11" fill="#555555" text-anchor="middle">04-20</text>
<text x="1370.28" y="818" font-size="11" fill="#555555" text-anchor="middle">17:45</text>
<line x1="1424.76" y1="663.24" x2="1424.76" y2="704.23" stroke="#e74c3c" stroke-width="2"/>
<rect x="1409.51" y="667.93" width="30.51" height="21.08" fill="#e74c3c" stroke="#e74c3c" stroke-width="1"/>
<text x="1424.76" y="802" font-size="11" fill="#555555" text-anchor="middle">04-20</text>
<text x="1424.76" y="818" font-size="11" fill="#555555" text-anchor="middle">18:00</text>
<line x1="662.04" y1="166.67" x2="732.04" y2="104.00" stroke="#f39c12" stroke-width="2"/>
<rect x="732.04" y="52.00" width="280" height="90" rx="10" fill="#fff8dc" stroke="#f39c12"/>
<text x="744.04" y="76.00" font-size="13" fill="#111111">15m定位时间 2025-04-20 14:30:00</text>
<text x="744.04" y="96.00" font-size="13" fill="#111111">该15m最高价 0.016700</text>
<text x="744.04" y="116.00" font-size="13" fill="#111111">10倍价横线已标出</text>
<text x="744.04" y="136.00" font-size="13" fill="#111111">竖线高亮首次触达10倍价的15m</text>
</svg>