<svg xmlns="http://www.w3.org/2000/svg" width="1500" height="860" viewBox="0 0 1500 860">
<rect width="100%" height="100%" fill="#fcfcfc"/>
<text x="90" y="38" font-size="28" font-weight="700" fill="#111111">PIEVERSE-USDT-SWAP 15m - 10倍命中定位图</text>
<text x="90" y="68" font-size="16" fill="#555555">1H命中时间: 2025-11-21 02:00:00 | 10倍价: 0.547046 | 命中倍数: 10.9630x</text>
<line x1="90" y1="80.00" x2="1452" y2="80.00" stroke="#d9d9d9" stroke-dasharray="4 4" stroke-width="1"/>
<text x="12" y="84.00" font-size="12" fill="#555555">0.615700</text>
<line x1="90" y1="210.00" x2="1452" y2="210.00" stroke="#d9d9d9" stroke-dasharray="4 4" stroke-width="1"/>
<text x="12" y="214.00" font-size="12" fill="#555555">0.543000</text>
<line x1="90" y1="340.00" x2="1452" y2="340.00" stroke="#d9d9d9" stroke-dasharray="4 4" stroke-width="1"/>
<text x="12" y="344.00" font-size="12" fill="#555555">0.470300</text>
<line x1="90" y1="470.00" x2="1452" y2="470.00" stroke="#d9d9d9" stroke-dasharray="4 4" stroke-width="1"/>
<text x="12" y="474.00" font-size="12" fill="#555555">0.397600</text>
<line x1="90" y1="600.00" x2="1452" y2="600.00" stroke="#d9d9d9" stroke-dasharray="4 4" stroke-width="1"/>
<text x="12" y="604.00" font-size="12" fill="#555555">0.324900</text>
<line x1="90" y1="730.00" x2="1452" y2="730.00" stroke="#d9d9d9" stroke-dasharray="4 4" stroke-width="1"/>
<text x="12" y="734.00" font-size="12" fill="#555555">0.252200</text>
<rect x="689.28" y="80" width="54.48" height="650.00" fill="#f1c40f" opacity="0.16"/>
<line x1="716.52" y1="80" x2="716.52" y2="730" stroke="#f39c12" stroke-width="2" stroke-dasharray="6 4"/>
<line x1="90" y1="202.76" x2="1452" y2="202.76" stroke="#8e44ad" stroke-width="2" stroke-dasharray="8 4"/>
<text x="1444" y="194.76" font-size="13" fill="#8e44ad" text-anchor="end">10倍价 0.547046</text>
<line x1="117.24" y1="709.79" x2="117.24" y2="730.00" stroke="#e74c3c" stroke-width="2"/>
<rect x="101.99" y="710.51" width="30.51" height="7.69" fill="#e74c3c" stroke="#e74c3c" stroke-width="1"/>
<text x="117.24" y="802" font-size="11" fill="#555555" text-anchor="middle">11-21</text>
<text x="117.24" y="818" font-size="11" fill="#555555" text-anchor="middle">00:00</text>
<line x1="171.72" y1="713.91" x2="171.72" y2="724.81" stroke="#2ecc71" stroke-width="2"/>
<rect x="156.47" y="716.59" width="30.51" height="1.43" fill="#2ecc71" stroke="#2ecc71" stroke-width="1"/>
<text x="171.72" y="802" font-size="11" fill="#555555" text-anchor="middle">11-21</text>
<text x="171.72" y="818" font-size="11" fill="#555555" text-anchor="middle">00:15</text>
<line x1="226.20" y1="704.97" x2="226.20" y2="720.52" stroke="#2ecc71" stroke-width="2"/>
<rect x="210.95" y="708.18" width="30.51" height="8.40" fill="#2ecc71" stroke="#2ecc71" stroke-width="1"/>
<text x="226.20" y="802" font-size="11" fill="#555555" text-anchor="middle">11-21</text>
<text x="226.20" y="818" font-size="11" fill="#555555" text-anchor="middle">00:30</text>
<line x1="280.68" y1="665.80" x2="280.68" y2="708.18" stroke="#2ecc71" stroke-width="2"/>
<rect x="265.43" y="670.10" width="30.51" height="38.09" fill="#2ecc71" stroke="#2ecc71" stroke-width="1"/>
<text x="280.68" y="802" font-size="11" fill="#555555" text-anchor="middle">11-21</text>
<text x="280.68" y="818" font-size="11" fill="#555555" text-anchor="middle">00:45</text>
<line x1="335.16" y1="656.51" x2="335.16" y2="683.33" stroke="#e74c3c" stroke-width="2"/>
<rect x="319.91" y="670.10" width="30.51" height="3.58" fill="#e74c3c" stroke="#e74c3c" stroke-width="1"/>
<text x="335.16" y="802" font-size="11" fill="#555555" text-anchor="middle">11-21</text>
<text x="335.16" y="818" font-size="11" fill="#555555" text-anchor="middle">01:00</text>
<line x1="389.64" y1="670.81" x2="389.64" y2="685.65" stroke="#e74c3c" stroke-width="2"/>
<rect x="374.39" y="673.85" width="30.51" height="2.68" fill="#e74c3c" stroke="#e74c3c" stroke-width="1"/>
<text x="389.64" y="802" font-size="11" fill="#555555" text-anchor="middle">11-21</text>
<text x="389.64" y="818" font-size="11" fill="#555555" text-anchor="middle">01:15</text>
<line x1="444.12" y1="655.25" x2="444.12" y2="677.07" stroke="#2ecc71" stroke-width="2"/>
<rect x="428.87" y="666.70" width="30.51" height="10.01" fill="#2ecc71" stroke="#2ecc71" stroke-width="1"/>
<text x="444.12" y="802" font-size="11" fill="#555555" text-anchor="middle">11-21</text>
<text x="444.12" y="818" font-size="11" fill="#555555" text-anchor="middle">01:30</text>
<line x1="498.60" y1="643.09" x2="498.60" y2="666.88" stroke="#2ecc71" stroke-width="2"/>
<rect x="483.35" y="647.03" width="30.51" height="19.85" fill="#2ecc71" stroke="#2ecc71" stroke-width="1"/>
<text x="498.60" y="802" font-size="11" fill="#555555" text-anchor="middle">11-21</text>
<text x="498.60" y="818" font-size="11" fill="#555555" text-anchor="middle">01:45</text>
<line x1="553.08" y1="602.68" x2="553.08" y2="647.57" stroke="#2ecc71" stroke-width="2"/>
<rect x="537.83" y="610.55" width="30.51" height="36.48" fill="#2ecc71" stroke="#2ecc71" stroke-width="1"/>
<text x="553.08" y="802" font-size="11" fill="#555555" text-anchor="middle">11-21</text>
<text x="553.08" y="818" font-size="11" fill="#555555" text-anchor="middle">02:00</text>
<line x1="607.56" y1="588.56" x2="607.56" y2="617.17" stroke="#2ecc71" stroke-width="2"/>
<rect x="592.31" y="595.71" width="30.51" height="15.02" fill="#2ecc71" stroke="#2ecc71" stroke-width="1"/>
<text x="607.56" y="802" font-size="11" fill="#555555" text-anchor="middle">11-21</text>
<text x="607.56" y="818" font-size="11" fill="#555555" text-anchor="middle">02:15</text>
<line x1="662.04" y1="466.24" x2="662.04" y2="595.89" stroke="#2ecc71" stroke-width="2"/>
<rect x="646.79" y="489.13" width="30.51" height="106.40" fill="#2ecc71" stroke="#2ecc71" stroke-width="1"/>
<text x="662.04" y="802" font-size="11" fill="#555555" text-anchor="middle">11-21</text>
<text x="662.04" y="818" font-size="11" fill="#555555" text-anchor="middle">02:30</text>
<line x1="716.52" y1="159.93" x2="716.52" y2="488.95" stroke="#2ecc71" stroke-width="2"/>
<rect x="701.27" y="259.17" width="30.51" height="229.78" fill="#2ecc71" stroke="#2ecc71" stroke-width="1"/>
<text x="716.52" y="802" font-size="11" fill="#555555" text-anchor="middle">11-21</text>
<text x="716.52" y="818" font-size="11" fill="#555555" text-anchor="middle">02:45</text>
<line x1="771.00" y1="80.00" x2="771.00" y2="389.17" stroke="#e74c3c" stroke-width="2"/>
<rect x="755.75" y="258.46" width="30.51" height="26.11" fill="#e74c3c" stroke="#e74c3c" stroke-width="1"/>
<text x="771.00" y="802" font-size="11" fill="#555555" text-anchor="middle">11-21</text>
<text x="771.00" y="818" font-size="11" fill="#555555" text-anchor="middle">03:00</text>
<line x1="825.48" y1="198.56" x2="825.48" y2="342.68" stroke="#2ecc71" stroke-width="2"/>
<rect x="810.23" y="239.15" width="30.51" height="45.60" fill="#2ecc71" stroke="#2ecc71" stroke-width="1"/>
<text x="825.48" y="802" font-size="11" fill="#555555" text-anchor="middle">11-21</text>
<text x="825.48" y="818" font-size="11" fill="#555555" text-anchor="middle">03:15</text>
<line x1="879.96" y1="220.37" x2="879.96" y2="329.81" stroke="#e74c3c" stroke-width="2"/>
<rect x="864.71" y="238.25" width="30.51" height="1.20" fill="#e74c3c" stroke="#e74c3c" stroke-width="1"/>
<text x="879.96" y="802" font-size="11" fill="#555555" text-anchor="middle">11-21</text>
<text x="879.96" y="818" font-size="11" fill="#555555" text-anchor="middle">03:30</text>
<line x1="934.44" y1="176.92" x2="934.44" y2="339.46" stroke="#e74c3c" stroke-width="2"/>
<rect x="919.19" y="238.97" width="30.51" height="49.89" fill="#e74c3c" stroke="#e74c3c" stroke-width="1"/>
<text x="934.44" y="802" font-size="11" fill="#555555" text-anchor="middle">11-21</text>
<text x="934.44" y="818" font-size="11" fill="#555555" text-anchor="middle">03:45</text>
<line x1="988.92" y1="267.22" x2="988.92" y2="312.46" stroke="#2ecc71" stroke-width="2"/>
<rect x="973.67" y="280.28" width="30.51" height="8.58" fill="#2ecc71" stroke="#2ecc71" stroke-width="1"/>
<text x="988.92" y="802" font-size="11" fill="#555555" text-anchor="middle">11-21</text>
<text x="988.92" y="818" font-size="11" fill="#555555" text-anchor="middle">04:00</text>
<line x1="1043.40" y1="244.87" x2="1043.40" y2="294.40" stroke="#2ecc71" stroke-width="2"/>
<rect x="1028.15" y="270.98" width="30.51" height="9.30" fill="#2ecc71" stroke="#2ecc71" stroke-width="1"/>
<text x="1043.40" y="802" font-size="11" fill="#555555" text-anchor="middle">11-21</text>
<text x="1043.40" y="818" font-size="11" fill="#555555" text-anchor="middle">04:15</text>
<line x1="1097.88" y1="221.44" x2="1097.88" y2="289.22" stroke="#2ecc71" stroke-width="2"/>
<rect x="1082.63" y="234.86" width="30.51" height="36.66" fill="#2ecc71" stroke="#2ecc71" stroke-width="1"/>
<text x="1097.88" y="802" font-size="11" fill="#555555" text-anchor="middle">11-21</text>
<text x="1097.88" y="818" font-size="11" fill="#555555" text-anchor="middle">04:30</text>
<line x1="1152.36" y1="225.38" x2="1152.36" y2="271.51" stroke="#e74c3c" stroke-width="2"/>
<rect x="1137.11" y="234.32" width="30.51" height="7.51" fill="#e74c3c" stroke="#e74c3c" stroke-width="1"/>
<text x="1152.36" y="802" font-size="11" fill="#555555" text-anchor="middle">11-21</text>
<text x="1152.36" y="818" font-size="11" fill="#555555" text-anchor="middle">04:45</text>
<line x1="1206.84" y1="235.75" x2="1206.84" y2="286.89" stroke="#e74c3c" stroke-width="2"/>
<rect x="1191.59" y="241.11" width="30.51" height="34.87" fill="#e74c3c" stroke="#e74c3c" stroke-width="1"/>
<text x="1206.84" y="802" font-size="11" fill="#555555" text-anchor="middle">11-21</text>
<text x="1206.84" y="818" font-size="11" fill="#555555" text-anchor="middle">05:00</text>
<line x1="1261.32" y1="274.37" x2="1261.32" y2="350.55" stroke="#e74c3c" stroke-width="2"/>
<rect x="1246.07" y="276.16" width="30.51" height="57.76" fill="#e74c3c" stroke="#e74c3c" stroke-width="1"/>
<text x="1261.32" y="802" font-size="11" fill="#555555" text-anchor="middle">11-21</text>
<text x="1261.32" y="818" font-size="11" fill="#555555" text-anchor="middle">05:15</text>
<line x1="1315.80" y1="329.45" x2="1315.80" y2="510.41" stroke="#e74c3c" stroke-width="2"/>
<rect x="1300.55" y="333.92" width="30.51" height="172.74" fill="#e74c3c" stroke="#e74c3c" stroke-width="1"/>
<text x="1315.80" y="802" font-size="11" fill="#555555" text-anchor="middle">11-21</text>
<text x="1315.80" y="818" font-size="11" fill="#555555" text-anchor="middle">05:30</text>
<line x1="1370.28" y1="451.58" x2="1370.28" y2="544.92" stroke="#2ecc71" stroke-width="2"/>
<rect x="1355.03" y="502.19" width="30.51" height="5.19" fill="#2ecc71" stroke="#2ecc71" stroke-width="1"/>
<text x="1370.28" y="802" font-size="11" fill="#555555" text-anchor="middle">11-21</text>
<text x="1370.28" y="818" font-size="11" fill="#555555" text-anchor="middle">05:45</text>
<line x1="1424.76" y1="475.54" x2="1424.76" y2="520.78" stroke="#e74c3c" stroke-width="2"/>
<rect x="1409.51" y="502.19" width="30.51" height="5.01" fill="#e74c3c" stroke="#e74c3c" stroke-width="1"/>
<text x="1424.76" y="802" font-size="11" fill="#555555" text-anchor="middle">11-21</text>
<text x="1424.76" y="818" font-size="11" fill="#555555" text-anchor="middle">06:00</text>
<line x1="716.52" y1="159.93" x2="786.52" y2="104.00" stroke="#f39c12" stroke-width="2"/>
<rect x="786.52" y="52.00" width="280" height="90" rx="10" fill="#fff8dc" stroke="#f39c12"/>
<text x="798.52" y="76.00" font-size="13" fill="#111111">15m定位时间 2025-11-21 02:45:00</text>
<text x="798.52" y="96.00" font-size="13" fill="#111111">该15m最高价 0.571000</text>
<text x="798.52" y="116.00" font-size="13" fill="#111111">10倍价横线已标出</text>
<text x="798.52" y="136.00" font-size="13" fill="#111111">竖线高亮首次触达10倍价的15m</text>
</svg>