<svg xmlns="http://www.w3.org/2000/svg" width="1500" height="860" viewBox="0 0 1500 860">
<rect width="100%" height="100%" fill="#fcfcfc"/>
<text x="90" y="38" font-size="28" font-weight="700" fill="#111111">PUMP-USDT-SWAP 15m - 10倍命中定位图</text>
<text x="90" y="68" font-size="16" fill="#555555">1H命中时间: 2026-04-29 05:00:00 | 10倍价: 0.002011 | 命中倍数: 10.8460x</text>
<line x1="90" y1="80.00" x2="1452" y2="80.00" stroke="#d9d9d9" stroke-dasharray="4 4" stroke-width="1"/>
<text x="12" y="84.00" font-size="12" fill="#555555">0.002030</text>
<line x1="90" y1="210.00" x2="1452" y2="210.00" stroke="#d9d9d9" stroke-dasharray="4 4" stroke-width="1"/>
<text x="12" y="214.00" font-size="12" fill="#555555">0.001980</text>
<line x1="90" y1="340.00" x2="1452" y2="340.00" stroke="#d9d9d9" stroke-dasharray="4 4" stroke-width="1"/>
<text x="12" y="344.00" font-size="12" fill="#555555">0.001930</text>
<line x1="90" y1="470.00" x2="1452" y2="470.00" stroke="#d9d9d9" stroke-dasharray="4 4" stroke-width="1"/>
<text x="12" y="474.00" font-size="12" fill="#555555">0.001881</text>
<line x1="90" y1="600.00" x2="1452" y2="600.00" stroke="#d9d9d9" stroke-dasharray="4 4" stroke-width="1"/>
<text x="12" y="604.00" font-size="12" fill="#555555">0.001831</text>
<line x1="90" y1="730.00" x2="1452" y2="730.00" stroke="#d9d9d9" stroke-dasharray="4 4" stroke-width="1"/>
<text x="12" y="734.00" font-size="12" fill="#555555">0.001781</text>
<rect x="525.84" y="80" width="54.48" height="650.00" fill="#f1c40f" opacity="0.16"/>
<line x1="553.08" y1="80" x2="553.08" y2="730" stroke="#f39c12" stroke-width="2" stroke-dasharray="6 4"/>
<line x1="90" y1="129.07" x2="1452" y2="129.07" stroke="#8e44ad" stroke-width="2" stroke-dasharray="8 4"/>
<text x="1444" y="121.07" font-size="13" fill="#8e44ad" text-anchor="end">10倍价 0.002011</text>
<line x1="117.24" y1="706.51" x2="117.24" y2="727.39" stroke="#e74c3c" stroke-width="2"/>
<rect x="101.99" y="709.12" width="30.51" height="18.27" fill="#e74c3c" stroke="#e74c3c" stroke-width="1"/>
<text x="117.24" y="802" font-size="11" fill="#555555" text-anchor="middle">04-29</text>
<text x="117.24" y="818" font-size="11" fill="#555555" text-anchor="middle">03:00</text>
<line x1="171.72" y1="701.29" x2="171.72" y2="730.00" stroke="#2ecc71" stroke-width="2"/>
<rect x="156.47" y="703.90" width="30.51" height="20.88" fill="#2ecc71" stroke="#2ecc71" stroke-width="1"/>
<text x="171.72" y="802" font-size="11" fill="#555555" text-anchor="middle">04-29</text>
<text x="171.72" y="818" font-size="11" fill="#555555" text-anchor="middle">03:15</text>
<line x1="226.20" y1="690.84" x2="226.20" y2="719.56" stroke="#2ecc71" stroke-width="2"/>
<rect x="210.95" y="696.06" width="30.51" height="7.83" fill="#2ecc71" stroke="#2ecc71" stroke-width="1"/>
<text x="226.20" y="802" font-size="11" fill="#555555" text-anchor="middle">04-29</text>
<text x="226.20" y="818" font-size="11" fill="#555555" text-anchor="middle">03:30</text>
<line x1="280.68" y1="683.01" x2="280.68" y2="698.67" stroke="#2ecc71" stroke-width="2"/>
<rect x="265.43" y="685.62" width="30.51" height="7.83" fill="#2ecc71" stroke="#2ecc71" stroke-width="1"/>
<text x="280.68" y="802" font-size="11" fill="#555555" text-anchor="middle">04-29</text>
<text x="280.68" y="818" font-size="11" fill="#555555" text-anchor="middle">03:45</text>
<line x1="335.16" y1="662.13" x2="335.16" y2="688.23" stroke="#2ecc71" stroke-width="2"/>
<rect x="319.91" y="675.18" width="30.51" height="10.44" fill="#2ecc71" stroke="#2ecc71" stroke-width="1"/>
<text x="335.16" y="802" font-size="11" fill="#555555" text-anchor="middle">04-29</text>
<text x="335.16" y="818" font-size="11" fill="#555555" text-anchor="middle">04:00</text>
<line x1="389.64" y1="664.74" x2="389.64" y2="677.79" stroke="#2ecc71" stroke-width="2"/>
<rect x="374.39" y="672.57" width="30.51" height="2.61" fill="#2ecc71" stroke="#2ecc71" stroke-width="1"/>
<text x="389.64" y="802" font-size="11" fill="#555555" text-anchor="middle">04-29</text>
<text x="389.64" y="818" font-size="11" fill="#555555" text-anchor="middle">04:15</text>
<line x1="444.12" y1="649.08" x2="444.12" y2="675.18" stroke="#2ecc71" stroke-width="2"/>
<rect x="428.87" y="649.08" width="30.51" height="23.49" fill="#2ecc71" stroke="#2ecc71" stroke-width="1"/>
<text x="444.12" y="802" font-size="11" fill="#555555" text-anchor="middle">04-29</text>
<text x="444.12" y="818" font-size="11" fill="#555555" text-anchor="middle">04:30</text>
<line x1="498.60" y1="630.80" x2="498.60" y2="649.08" stroke="#2ecc71" stroke-width="2"/>
<rect x="483.35" y="638.63" width="30.51" height="10.44" fill="#2ecc71" stroke="#2ecc71" stroke-width="1"/>
<text x="498.60" y="802" font-size="11" fill="#555555" text-anchor="middle">04-29</text>
<text x="498.60" y="818" font-size="11" fill="#555555" text-anchor="middle">04:45</text>
<line x1="553.08" y1="80.00" x2="553.08" y2="643.86" stroke="#2ecc71" stroke-width="2"/>
<rect x="537.83" y="471.57" width="30.51" height="167.07" fill="#2ecc71" stroke="#2ecc71" stroke-width="1"/>
<text x="553.08" y="802" font-size="11" fill="#555555" text-anchor="middle">04-29</text>
<text x="553.08" y="818" font-size="11" fill="#555555" text-anchor="middle">05:00</text>
<line x1="607.56" y1="408.92" x2="607.56" y2="562.93" stroke="#e74c3c" stroke-width="2"/>
<rect x="592.31" y="474.18" width="30.51" height="36.55" fill="#e74c3c" stroke="#e74c3c" stroke-width="1"/>
<text x="607.56" y="802" font-size="11" fill="#555555" text-anchor="middle">04-29</text>
<text x="607.56" y="818" font-size="11" fill="#555555" text-anchor="middle">05:15</text>
<line x1="662.04" y1="502.89" x2="662.04" y2="672.57" stroke="#e74c3c" stroke-width="2"/>
<rect x="646.79" y="510.72" width="30.51" height="140.96" fill="#e74c3c" stroke="#e74c3c" stroke-width="1"/>
<text x="662.04" y="802" font-size="11" fill="#555555" text-anchor="middle">04-29</text>
<text x="662.04" y="818" font-size="11" fill="#555555" text-anchor="middle">05:30</text>
<line x1="716.52" y1="604.70" x2="716.52" y2="709.12" stroke="#2ecc71" stroke-width="2"/>
<rect x="701.27" y="617.75" width="30.51" height="33.94" fill="#2ecc71" stroke="#2ecc71" stroke-width="1"/>
<text x="716.52" y="802" font-size="11" fill="#555555" text-anchor="middle">04-29</text>
<text x="716.52" y="818" font-size="11" fill="#555555" text-anchor="middle">05:45</text>
<line x1="771.00" y1="602.09" x2="771.00" y2="672.57" stroke="#e74c3c" stroke-width="2"/>
<rect x="755.75" y="620.36" width="30.51" height="10.44" fill="#e74c3c" stroke="#e74c3c" stroke-width="1"/>
<text x="771.00" y="802" font-size="11" fill="#555555" text-anchor="middle">04-29</text>
<text x="771.00" y="818" font-size="11" fill="#555555" text-anchor="middle">06:00</text>
<line x1="825.48" y1="583.82" x2="825.48" y2="643.86" stroke="#2ecc71" stroke-width="2"/>
<rect x="810.23" y="591.65" width="30.51" height="39.16" fill="#2ecc71" stroke="#2ecc71" stroke-width="1"/>
<text x="825.48" y="802" font-size="11" fill="#555555" text-anchor="middle">04-29</text>
<text x="825.48" y="818" font-size="11" fill="#555555" text-anchor="middle">06:15</text>
<line x1="879.96" y1="542.05" x2="879.96" y2="609.92" stroke="#2ecc71" stroke-width="2"/>
<rect x="864.71" y="555.10" width="30.51" height="36.55" fill="#2ecc71" stroke="#2ecc71" stroke-width="1"/>
<text x="879.96" y="802" font-size="11" fill="#555555" text-anchor="middle">04-29</text>
<text x="879.96" y="818" font-size="11" fill="#555555" text-anchor="middle">06:30</text>
<line x1="934.44" y1="500.28" x2="934.44" y2="562.93" stroke="#2ecc71" stroke-width="2"/>
<rect x="919.19" y="510.72" width="30.51" height="44.38" fill="#2ecc71" stroke="#2ecc71" stroke-width="1"/>
<text x="934.44" y="802" font-size="11" fill="#555555" text-anchor="middle">04-29</text>
<text x="934.44" y="818" font-size="11" fill="#555555" text-anchor="middle">06:45</text>
<line x1="988.92" y1="458.51" x2="988.92" y2="529.00" stroke="#2ecc71" stroke-width="2"/>
<rect x="973.67" y="458.51" width="30.51" height="52.21" fill="#2ecc71" stroke="#2ecc71" stroke-width="1"/>
<text x="988.92" y="802" font-size="11" fill="#555555" text-anchor="middle">04-29</text>
<text x="988.92" y="818" font-size="11" fill="#555555" text-anchor="middle">07:00</text>
<line x1="1043.40" y1="448.07" x2="1043.40" y2="487.23" stroke="#e74c3c" stroke-width="2"/>
<rect x="1028.15" y="461.12" width="30.51" height="5.22" fill="#e74c3c" stroke="#e74c3c" stroke-width="1"/>
<text x="1043.40" y="802" font-size="11" fill="#555555" text-anchor="middle">04-29</text>
<text x="1043.40" y="818" font-size="11" fill="#555555" text-anchor="middle">07:15</text>
<line x1="1097.88" y1="437.63" x2="1097.88" y2="487.23" stroke="#e74c3c" stroke-width="2"/>
<rect x="1082.63" y="463.73" width="30.51" height="5.22" fill="#e74c3c" stroke="#e74c3c" stroke-width="1"/>
<text x="1097.88" y="802" font-size="11" fill="#555555" text-anchor="middle">04-29</text>
<text x="1097.88" y="818" font-size="11" fill="#555555" text-anchor="middle">07:30</text>
<line x1="1152.36" y1="403.69" x2="1152.36" y2="479.40" stroke="#2ecc71" stroke-width="2"/>
<rect x="1137.11" y="421.97" width="30.51" height="44.38" fill="#2ecc71" stroke="#2ecc71" stroke-width="1"/>
<text x="1152.36" y="802" font-size="11" fill="#555555" text-anchor="middle">04-29</text>
<text x="1152.36" y="818" font-size="11" fill="#555555" text-anchor="middle">07:45</text>
<line x1="1206.84" y1="309.72" x2="1206.84" y2="427.19" stroke="#2ecc71" stroke-width="2"/>
<rect x="1191.59" y="325.38" width="30.51" height="93.98" fill="#2ecc71" stroke="#2ecc71" stroke-width="1"/>
<text x="1206.84" y="802" font-size="11" fill="#555555" text-anchor="middle">04-29</text>
<text x="1206.84" y="818" font-size="11" fill="#555555" text-anchor="middle">08:00</text>
<line x1="1261.32" y1="322.77" x2="1261.32" y2="390.64" stroke="#e74c3c" stroke-width="2"/>
<rect x="1246.07" y="322.77" width="30.51" height="54.82" fill="#e74c3c" stroke="#e74c3c" stroke-width="1"/>
<text x="1261.32" y="802" font-size="11" fill="#555555" text-anchor="middle">04-29</text>
<text x="1261.32" y="818" font-size="11" fill="#555555" text-anchor="middle">08:15</text>
<line x1="1315.80" y1="351.49" x2="1315.80" y2="450.68" stroke="#e74c3c" stroke-width="2"/>
<rect x="1300.55" y="374.98" width="30.51" height="2.61" fill="#e74c3c" stroke="#e74c3c" stroke-width="1"/>
<text x="1315.80" y="802" font-size="11" fill="#555555" text-anchor="middle">04-29</text>
<text x="1315.80" y="818" font-size="11" fill="#555555" text-anchor="middle">08:30</text>
<line x1="1370.28" y1="372.37" x2="1370.28" y2="442.85" stroke="#e74c3c" stroke-width="2"/>
<rect x="1355.03" y="374.98" width="30.51" height="60.04" fill="#e74c3c" stroke="#e74c3c" stroke-width="1"/>
<text x="1370.28" y="802" font-size="11" fill="#555555" text-anchor="middle">04-29</text>
<text x="1370.28" y="818" font-size="11" fill="#555555" text-anchor="middle">08:45</text>
<line x1="1424.76" y1="374.98" x2="1424.76" y2="440.24" stroke="#2ecc71" stroke-width="2"/>
<rect x="1409.51" y="388.03" width="30.51" height="46.99" fill="#2ecc71" stroke="#2ecc71" stroke-width="1"/>
<text x="1424.76" y="802" font-size="11" fill="#555555" text-anchor="middle">04-29</text>
<text x="1424.76" y="818" font-size="11" fill="#555555" text-anchor="middle">09:00</text>
<line x1="553.08" y1="80.00" x2="623.08" y2="104.00" stroke="#f39c12" stroke-width="2"/>
<rect x="623.08" y="52.00" width="280" height="90" rx="10" fill="#fff8dc" stroke="#f39c12"/>
<text x="635.08" y="76.00" font-size="13" fill="#111111">15m定位时间 2026-04-29 05:00:00</text>
<text x="635.08" y="96.00" font-size="13" fill="#111111">该15m最高价 0.002030</text>
<text x="635.08" y="116.00" font-size="13" fill="#111111">10倍价横线已标出</text>
<text x="635.08" y="136.00" font-size="13" fill="#111111">竖线高亮首次触达10倍价的15m</text>
</svg>