<svg xmlns="http://www.w3.org/2000/svg" width="1500" height="860" viewBox="0 0 1500 860">
<rect width="100%" height="100%" fill="#fcfcfc"/>
<text x="90" y="38" font-size="28" font-weight="700" fill="#111111">RENDER-USDT-SWAP 15m - 10倍命中定位图</text>
<text x="90" y="68" font-size="16" fill="#555555">1H命中时间: 2024-12-05 11:00:00 | 10倍价: 11.689216 | 命中倍数: 10.5045x</text>
<line x1="90" y1="80.00" x2="1452" y2="80.00" stroke="#d9d9d9" stroke-dasharray="4 4" stroke-width="1"/>
<text x="12" y="84.00" font-size="12" fill="#555555">11.850000</text>
<line x1="90" y1="210.00" x2="1452" y2="210.00" stroke="#d9d9d9" stroke-dasharray="4 4" stroke-width="1"/>
<text x="12" y="214.00" font-size="12" fill="#555555">11.115400</text>
<line x1="90" y1="340.00" x2="1452" y2="340.00" stroke="#d9d9d9" stroke-dasharray="4 4" stroke-width="1"/>
<text x="12" y="344.00" font-size="12" fill="#555555">10.380800</text>
<line x1="90" y1="470.00" x2="1452" y2="470.00" stroke="#d9d9d9" stroke-dasharray="4 4" stroke-width="1"/>
<text x="12" y="474.00" font-size="12" fill="#555555">9.646200</text>
<line x1="90" y1="600.00" x2="1452" y2="600.00" stroke="#d9d9d9" stroke-dasharray="4 4" stroke-width="1"/>
<text x="12" y="604.00" font-size="12" fill="#555555">8.911600</text>
<line x1="90" y1="730.00" x2="1452" y2="730.00" stroke="#d9d9d9" stroke-dasharray="4 4" stroke-width="1"/>
<text x="12" y="734.00" font-size="12" fill="#555555">8.177000</text>
<rect x="634.80" y="80" width="54.48" height="650.00" fill="#f1c40f" opacity="0.16"/>
<line x1="662.04" y1="80" x2="662.04" y2="730" stroke="#f39c12" stroke-width="2" stroke-dasharray="6 4"/>
<line x1="90" y1="108.45" x2="1452" y2="108.45" stroke="#8e44ad" stroke-width="2" stroke-dasharray="8 4"/>
<text x="1444" y="100.45" font-size="13" fill="#8e44ad" text-anchor="end">10倍价 11.689216</text>
<line x1="117.24" y1="661.34" x2="117.24" y2="724.87" stroke="#e74c3c" stroke-width="2"/>
<rect x="101.99" y="662.40" width="30.51" height="60.70" fill="#e74c3c" stroke="#e74c3c" stroke-width="1"/>
<text x="117.24" y="802" font-size="11" fill="#555555" text-anchor="middle">12-05</text>
<text x="117.24" y="818" font-size="11" fill="#555555" text-anchor="middle">09:00</text>
<line x1="171.72" y1="700.80" x2="171.72" y2="730.00" stroke="#2ecc71" stroke-width="2"/>
<rect x="156.47" y="711.06" width="30.51" height="11.15" fill="#2ecc71" stroke="#2ecc71" stroke-width="1"/>
<text x="171.72" y="802" font-size="11" fill="#555555" text-anchor="middle">12-05</text>
<text x="171.72" y="818" font-size="11" fill="#555555" text-anchor="middle">09:15</text>
<line x1="226.20" y1="695.14" x2="226.20" y2="718.50" stroke="#2ecc71" stroke-width="2"/>
<rect x="210.95" y="700.45" width="30.51" height="10.79" fill="#2ecc71" stroke="#2ecc71" stroke-width="1"/>
<text x="226.20" y="802" font-size="11" fill="#555555" text-anchor="middle">12-05</text>
<text x="226.20" y="818" font-size="11" fill="#555555" text-anchor="middle">09:30</text>
<line x1="280.68" y1="696.20" x2="280.68" y2="712.13" stroke="#e74c3c" stroke-width="2"/>
<rect x="265.43" y="700.45" width="30.51" height="8.14" fill="#e74c3c" stroke="#e74c3c" stroke-width="1"/>
<text x="280.68" y="802" font-size="11" fill="#555555" text-anchor="middle">12-05</text>
<text x="280.68" y="818" font-size="11" fill="#555555" text-anchor="middle">09:45</text>
<line x1="335.16" y1="695.31" x2="335.16" y2="710.53" stroke="#2ecc71" stroke-width="2"/>
<rect x="319.91" y="696.20" width="30.51" height="12.56" fill="#2ecc71" stroke="#2ecc71" stroke-width="1"/>
<text x="335.16" y="802" font-size="11" fill="#555555" text-anchor="middle">12-05</text>
<text x="335.16" y="818" font-size="11" fill="#555555" text-anchor="middle">10:00</text>
<line x1="389.64" y1="689.12" x2="389.64" y2="699.92" stroke="#2ecc71" stroke-width="2"/>
<rect x="374.39" y="689.12" width="30.51" height="7.43" fill="#2ecc71" stroke="#2ecc71" stroke-width="1"/>
<text x="389.64" y="802" font-size="11" fill="#555555" text-anchor="middle">12-05</text>
<text x="389.64" y="818" font-size="11" fill="#555555" text-anchor="middle">10:15</text>
<line x1="444.12" y1="657.09" x2="444.12" y2="689.47" stroke="#2ecc71" stroke-width="2"/>
<rect x="428.87" y="657.80" width="30.51" height="31.32" fill="#2ecc71" stroke="#2ecc71" stroke-width="1"/>
<text x="444.12" y="802" font-size="11" fill="#555555" text-anchor="middle">12-05</text>
<text x="444.12" y="818" font-size="11" fill="#555555" text-anchor="middle">10:30</text>
<line x1="498.60" y1="655.50" x2="498.60" y2="683.28" stroke="#e74c3c" stroke-width="2"/>
<rect x="483.35" y="657.09" width="30.51" height="14.69" fill="#e74c3c" stroke="#e74c3c" stroke-width="1"/>
<text x="498.60" y="802" font-size="11" fill="#555555" text-anchor="middle">12-05</text>
<text x="498.60" y="818" font-size="11" fill="#555555" text-anchor="middle">10:45</text>
<line x1="553.08" y1="204.41" x2="553.08" y2="672.49" stroke="#2ecc71" stroke-width="2"/>
<rect x="537.83" y="354.30" width="30.51" height="318.01" fill="#2ecc71" stroke="#2ecc71" stroke-width="1"/>
<text x="553.08" y="802" font-size="11" fill="#555555" text-anchor="middle">12-05</text>
<text x="553.08" y="818" font-size="11" fill="#555555" text-anchor="middle">11:00</text>
<line x1="607.56" y1="231.13" x2="607.56" y2="361.91" stroke="#2ecc71" stroke-width="2"/>
<rect x="592.31" y="250.42" width="30.51" height="104.59" fill="#2ecc71" stroke="#2ecc71" stroke-width="1"/>
<text x="607.56" y="802" font-size="11" fill="#555555" text-anchor="middle">12-05</text>
<text x="607.56" y="818" font-size="11" fill="#555555" text-anchor="middle">11:15</text>
<line x1="662.04" y1="80.00" x2="662.04" y2="263.16" stroke="#2ecc71" stroke-width="2"/>
<rect x="646.79" y="228.83" width="30.51" height="20.17" fill="#2ecc71" stroke="#2ecc71" stroke-width="1"/>
<text x="662.04" y="802" font-size="11" fill="#555555" text-anchor="middle">12-05</text>
<text x="662.04" y="818" font-size="11" fill="#555555" text-anchor="middle">11:30</text>
<line x1="716.52" y1="185.65" x2="716.52" y2="284.40" stroke="#e74c3c" stroke-width="2"/>
<rect x="701.27" y="228.12" width="30.51" height="14.87" fill="#e74c3c" stroke="#e74c3c" stroke-width="1"/>
<text x="716.52" y="802" font-size="11" fill="#555555" text-anchor="middle">12-05</text>
<text x="716.52" y="818" font-size="11" fill="#555555" text-anchor="middle">11:45</text>
<line x1="771.00" y1="145.48" x2="771.00" y2="344.92" stroke="#e74c3c" stroke-width="2"/>
<rect x="755.75" y="243.69" width="30.51" height="70.26" fill="#e74c3c" stroke="#e74c3c" stroke-width="1"/>
<text x="771.00" y="802" font-size="11" fill="#555555" text-anchor="middle">12-05</text>
<text x="771.00" y="818" font-size="11" fill="#555555" text-anchor="middle">12:00</text>
<line x1="825.48" y1="294.48" x2="825.48" y2="417.65" stroke="#e74c3c" stroke-width="2"/>
<rect x="810.23" y="313.42" width="30.51" height="75.74" fill="#e74c3c" stroke="#e74c3c" stroke-width="1"/>
<text x="825.48" y="802" font-size="11" fill="#555555" text-anchor="middle">12-05</text>
<text x="825.48" y="818" font-size="11" fill="#555555" text-anchor="middle">12:15</text>
<line x1="879.96" y1="379.61" x2="879.96" y2="442.43" stroke="#e74c3c" stroke-width="2"/>
<rect x="864.71" y="389.52" width="30.51" height="11.50" fill="#e74c3c" stroke="#e74c3c" stroke-width="1"/>
<text x="879.96" y="802" font-size="11" fill="#555555" text-anchor="middle">12-05</text>
<text x="879.96" y="818" font-size="11" fill="#555555" text-anchor="middle">12:30</text>
<line x1="934.44" y1="398.19" x2="934.44" y2="460.48" stroke="#e74c3c" stroke-width="2"/>
<rect x="919.19" y="401.02" width="30.51" height="56.45" fill="#e74c3c" stroke="#e74c3c" stroke-width="1"/>
<text x="934.44" y="802" font-size="11" fill="#555555" text-anchor="middle">12-05</text>
<text x="934.44" y="818" font-size="11" fill="#555555" text-anchor="middle">12:45</text>
<line x1="988.92" y1="441.90" x2="988.92" y2="492.16" stroke="#e74c3c" stroke-width="2"/>
<rect x="973.67" y="457.29" width="30.51" height="11.68" fill="#e74c3c" stroke="#e74c3c" stroke-width="1"/>
<text x="988.92" y="802" font-size="11" fill="#555555" text-anchor="middle">12-05</text>
<text x="988.92" y="818" font-size="11" fill="#555555" text-anchor="middle">13:00</text>
<line x1="1043.40" y1="453.22" x2="1043.40" y2="474.81" stroke="#2ecc71" stroke-width="2"/>
<rect x="1028.15" y="461.36" width="30.51" height="7.61" fill="#2ecc71" stroke="#2ecc71" stroke-width="1"/>
<text x="1043.40" y="802" font-size="11" fill="#555555" text-anchor="middle">12-05</text>
<text x="1043.40" y="818" font-size="11" fill="#555555" text-anchor="middle">13:15</text>
<line x1="1097.88" y1="414.64" x2="1097.88" y2="465.97" stroke="#e74c3c" stroke-width="2"/>
<rect x="1082.63" y="461.36" width="30.51" height="1.24" fill="#e74c3c" stroke="#e74c3c" stroke-width="1"/>
<text x="1097.88" y="802" font-size="11" fill="#555555" text-anchor="middle">12-05</text>
<text x="1097.88" y="818" font-size="11" fill="#555555" text-anchor="middle">13:30</text>
<line x1="1152.36" y1="446.14" x2="1152.36" y2="470.04" stroke="#2ecc71" stroke-width="2"/>
<rect x="1137.11" y="449.86" width="30.51" height="12.74" fill="#2ecc71" stroke="#2ecc71" stroke-width="1"/>
<text x="1152.36" y="802" font-size="11" fill="#555555" text-anchor="middle">12-05</text>
<text x="1152.36" y="818" font-size="11" fill="#555555" text-anchor="middle">13:45</text>
<line x1="1206.84" y1="419.78" x2="1206.84" y2="466.85" stroke="#e74c3c" stroke-width="2"/>
<rect x="1191.59" y="449.33" width="30.51" height="17.52" fill="#e74c3c" stroke="#e74c3c" stroke-width="1"/>
<text x="1206.84" y="802" font-size="11" fill="#555555" text-anchor="middle">12-05</text>
<text x="1206.84" y="818" font-size="11" fill="#555555" text-anchor="middle">14:00</text>
<line x1="1261.32" y1="450.75" x2="1261.32" y2="476.76" stroke="#2ecc71" stroke-width="2"/>
<rect x="1246.07" y="458.00" width="30.51" height="8.67" fill="#2ecc71" stroke="#2ecc71" stroke-width="1"/>
<text x="1261.32" y="802" font-size="11" fill="#555555" text-anchor="middle">12-05</text>
<text x="1261.32" y="818" font-size="11" fill="#555555" text-anchor="middle">14:15</text>
<line x1="1315.80" y1="448.98" x2="1315.80" y2="472.69" stroke="#2ecc71" stroke-width="2"/>
<rect x="1300.55" y="453.58" width="30.51" height="4.25" fill="#2ecc71" stroke="#2ecc71" stroke-width="1"/>
<text x="1315.80" y="802" font-size="11" fill="#555555" text-anchor="middle">12-05</text>
<text x="1315.80" y="818" font-size="11" fill="#555555" text-anchor="middle">14:30</text>
<line x1="1370.28" y1="444.73" x2="1370.28" y2="459.59" stroke="#2ecc71" stroke-width="2"/>
<rect x="1355.03" y="448.27" width="30.51" height="5.31" fill="#2ecc71" stroke="#2ecc71" stroke-width="1"/>
<text x="1370.28" y="802" font-size="11" fill="#555555" text-anchor="middle">12-05</text>
<text x="1370.28" y="818" font-size="11" fill="#555555" text-anchor="middle">14:45</text>
<line x1="1424.76" y1="423.67" x2="1424.76" y2="449.86" stroke="#2ecc71" stroke-width="2"/>
<rect x="1409.51" y="440.48" width="30.51" height="7.79" fill="#2ecc71" stroke="#2ecc71" stroke-width="1"/>
<text x="1424.76" y="802" font-size="11" fill="#555555" text-anchor="middle">12-05</text>
<text x="1424.76" y="818" font-size="11" fill="#555555" text-anchor="middle">15:00</text>
<line x1="662.04" y1="80.00" x2="732.04" y2="104.00" stroke="#f39c12" stroke-width="2"/>
<rect x="732.04" y="52.00" width="280" height="90" rx="10" fill="#fff8dc" stroke="#f39c12"/>
<text x="744.04" y="76.00" font-size="13" fill="#111111">15m定位时间 2024-12-05 11:30:00</text>
<text x="744.04" y="96.00" font-size="13" fill="#111111">该15m最高价 11.850000</text>
<text x="744.04" y="116.00" font-size="13" fill="#111111">10倍价横线已标出</text>
<text x="744.04" y="136.00" font-size="13" fill="#111111">竖线高亮首次触达10倍价的15m</text>
</svg>