<svg xmlns="http://www.w3.org/2000/svg" width="1500" height="860" viewBox="0 0 1500 860">
<rect width="100%" height="100%" fill="#fcfcfc"/>
<text x="90" y="38" font-size="28" font-weight="700" fill="#111111">RESOLV-USDT-SWAP 15m - 10倍命中定位图</text>
<text x="90" y="68" font-size="16" fill="#555555">1H命中时间: 2025-07-11 14:00:00 | 10倍价: 0.207377 | 命中倍数: 12.5119x</text>
<line x1="90" y1="80.00" x2="1452" y2="80.00" stroke="#d9d9d9" stroke-dasharray="4 4" stroke-width="1"/>
<text x="12" y="84.00" font-size="12" fill="#555555">0.262000</text>
<line x1="90" y1="210.00" x2="1452" y2="210.00" stroke="#d9d9d9" stroke-dasharray="4 4" stroke-width="1"/>
<text x="12" y="214.00" font-size="12" fill="#555555">0.241060</text>
<line x1="90" y1="340.00" x2="1452" y2="340.00" stroke="#d9d9d9" stroke-dasharray="4 4" stroke-width="1"/>
<text x="12" y="344.00" font-size="12" fill="#555555">0.220120</text>
<line x1="90" y1="470.00" x2="1452" y2="470.00" stroke="#d9d9d9" stroke-dasharray="4 4" stroke-width="1"/>
<text x="12" y="474.00" font-size="12" fill="#555555">0.199180</text>
<line x1="90" y1="600.00" x2="1452" y2="600.00" stroke="#d9d9d9" stroke-dasharray="4 4" stroke-width="1"/>
<text x="12" y="604.00" font-size="12" fill="#555555">0.178240</text>
<line x1="90" y1="730.00" x2="1452" y2="730.00" stroke="#d9d9d9" stroke-dasharray="4 4" stroke-width="1"/>
<text x="12" y="734.00" font-size="12" fill="#555555">0.157300</text>
<rect x="580.32" y="80" width="54.48" height="650.00" fill="#f1c40f" opacity="0.16"/>
<line x1="607.56" y1="80" x2="607.56" y2="730" stroke="#f39c12" stroke-width="2" stroke-dasharray="6 4"/>
<line x1="90" y1="419.11" x2="1452" y2="419.11" stroke="#8e44ad" stroke-width="2" stroke-dasharray="8 4"/>
<text x="1444" y="411.11" font-size="13" fill="#8e44ad" text-anchor="end">10倍价 0.207377</text>
<line x1="117.24" y1="716.34" x2="117.24" y2="730.00" stroke="#2ecc71" stroke-width="2"/>
<rect x="101.99" y="716.96" width="30.51" height="5.59" fill="#2ecc71" stroke="#2ecc71" stroke-width="1"/>
<text x="117.24" y="802" font-size="11" fill="#555555" text-anchor="middle">07-11</text>
<text x="117.24" y="818" font-size="11" fill="#555555" text-anchor="middle">12:00</text>
<line x1="171.72" y1="705.17" x2="171.72" y2="721.93" stroke="#2ecc71" stroke-width="2"/>
<rect x="156.47" y="705.79" width="30.51" height="11.17" fill="#2ecc71" stroke="#2ecc71" stroke-width="1"/>
<text x="171.72" y="802" font-size="11" fill="#555555" text-anchor="middle">07-11</text>
<text x="171.72" y="818" font-size="11" fill="#555555" text-anchor="middle">12:15</text>
<line x1="226.20" y1="697.10" x2="226.20" y2="715.10" stroke="#e74c3c" stroke-width="2"/>
<rect x="210.95" y="705.79" width="30.51" height="2.48" fill="#e74c3c" stroke="#e74c3c" stroke-width="1"/>
<text x="226.20" y="802" font-size="11" fill="#555555" text-anchor="middle">07-11</text>
<text x="226.20" y="818" font-size="11" fill="#555555" text-anchor="middle">12:30</text>
<line x1="280.68" y1="705.17" x2="280.68" y2="715.72" stroke="#e74c3c" stroke-width="2"/>
<rect x="265.43" y="708.27" width="30.51" height="1.86" fill="#e74c3c" stroke="#e74c3c" stroke-width="1"/>
<text x="280.68" y="802" font-size="11" fill="#555555" text-anchor="middle">07-11</text>
<text x="280.68" y="818" font-size="11" fill="#555555" text-anchor="middle">12:45</text>
<line x1="335.16" y1="695.85" x2="335.16" y2="712.00" stroke="#2ecc71" stroke-width="2"/>
<rect x="319.91" y="698.96" width="30.51" height="11.17" fill="#2ecc71" stroke="#2ecc71" stroke-width="1"/>
<text x="335.16" y="802" font-size="11" fill="#555555" text-anchor="middle">07-11</text>
<text x="335.16" y="818" font-size="11" fill="#555555" text-anchor="middle">13:00</text>
<line x1="389.64" y1="684.06" x2="389.64" y2="700.20" stroke="#2ecc71" stroke-width="2"/>
<rect x="374.39" y="688.40" width="30.51" height="10.55" fill="#2ecc71" stroke="#2ecc71" stroke-width="1"/>
<text x="389.64" y="802" font-size="11" fill="#555555" text-anchor="middle">07-11</text>
<text x="389.64" y="818" font-size="11" fill="#555555" text-anchor="middle">13:15</text>
<line x1="444.12" y1="685.30" x2="444.12" y2="708.27" stroke="#e74c3c" stroke-width="2"/>
<rect x="428.87" y="689.03" width="30.51" height="17.38" fill="#e74c3c" stroke="#e74c3c" stroke-width="1"/>
<text x="444.12" y="802" font-size="11" fill="#555555" text-anchor="middle">07-11</text>
<text x="444.12" y="818" font-size="11" fill="#555555" text-anchor="middle">13:30</text>
<line x1="498.60" y1="697.10" x2="498.60" y2="709.51" stroke="#2ecc71" stroke-width="2"/>
<rect x="483.35" y="699.58" width="30.51" height="7.45" fill="#2ecc71" stroke="#2ecc71" stroke-width="1"/>
<text x="498.60" y="802" font-size="11" fill="#555555" text-anchor="middle">07-11</text>
<text x="498.60" y="818" font-size="11" fill="#555555" text-anchor="middle">13:45</text>
<line x1="553.08" y1="670.40" x2="553.08" y2="701.44" stroke="#2ecc71" stroke-width="2"/>
<rect x="537.83" y="678.47" width="30.51" height="21.11" fill="#2ecc71" stroke="#2ecc71" stroke-width="1"/>
<text x="553.08" y="802" font-size="11" fill="#555555" text-anchor="middle">07-11</text>
<text x="553.08" y="818" font-size="11" fill="#555555" text-anchor="middle">14:00</text>
<line x1="607.56" y1="368.68" x2="607.56" y2="679.71" stroke="#2ecc71" stroke-width="2"/>
<rect x="592.31" y="438.83" width="30.51" height="239.64" fill="#2ecc71" stroke="#2ecc71" stroke-width="1"/>
<text x="607.56" y="802" font-size="11" fill="#555555" text-anchor="middle">07-11</text>
<text x="607.56" y="818" font-size="11" fill="#555555" text-anchor="middle">14:15</text>
<line x1="662.04" y1="414.62" x2="662.04" y2="491.60" stroke="#e74c3c" stroke-width="2"/>
<rect x="646.79" y="439.46" width="30.51" height="16.14" fill="#e74c3c" stroke="#e74c3c" stroke-width="1"/>
<text x="662.04" y="802" font-size="11" fill="#555555" text-anchor="middle">07-11</text>
<text x="662.04" y="818" font-size="11" fill="#555555" text-anchor="middle">14:30</text>
<line x1="716.52" y1="348.19" x2="716.52" y2="458.70" stroke="#2ecc71" stroke-width="2"/>
<rect x="701.27" y="366.20" width="30.51" height="90.64" fill="#2ecc71" stroke="#2ecc71" stroke-width="1"/>
<text x="716.52" y="802" font-size="11" fill="#555555" text-anchor="middle">07-11</text>
<text x="716.52" y="818" font-size="11" fill="#555555" text-anchor="middle">14:45</text>
<line x1="771.00" y1="242.66" x2="771.00" y2="414.00" stroke="#2ecc71" stroke-width="2"/>
<rect x="755.75" y="263.14" width="30.51" height="103.68" fill="#2ecc71" stroke="#2ecc71" stroke-width="1"/>
<text x="771.00" y="802" font-size="11" fill="#555555" text-anchor="middle">07-11</text>
<text x="771.00" y="818" font-size="11" fill="#555555" text-anchor="middle">15:00</text>
<line x1="825.48" y1="93.04" x2="825.48" y2="281.77" stroke="#2ecc71" stroke-width="2"/>
<rect x="810.23" y="215.96" width="30.51" height="47.80" fill="#2ecc71" stroke="#2ecc71" stroke-width="1"/>
<text x="825.48" y="802" font-size="11" fill="#555555" text-anchor="middle">07-11</text>
<text x="825.48" y="818" font-size="11" fill="#555555" text-anchor="middle">15:15</text>
<line x1="879.96" y1="135.87" x2="879.96" y2="263.14" stroke="#2ecc71" stroke-width="2"/>
<rect x="864.71" y="144.57" width="30.51" height="72.02" fill="#2ecc71" stroke="#2ecc71" stroke-width="1"/>
<text x="879.96" y="802" font-size="11" fill="#555555" text-anchor="middle">07-11</text>
<text x="879.96" y="818" font-size="11" fill="#555555" text-anchor="middle">15:30</text>
<line x1="934.44" y1="80.00" x2="934.44" y2="205.41" stroke="#e74c3c" stroke-width="2"/>
<rect x="919.19" y="145.19" width="30.51" height="21.11" fill="#e74c3c" stroke="#e74c3c" stroke-width="1"/>
<text x="934.44" y="802" font-size="11" fill="#555555" text-anchor="middle">07-11</text>
<text x="934.44" y="818" font-size="11" fill="#555555" text-anchor="middle">15:45</text>
<line x1="988.92" y1="157.60" x2="988.92" y2="328.95" stroke="#e74c3c" stroke-width="2"/>
<rect x="973.67" y="166.91" width="30.51" height="117.96" fill="#e74c3c" stroke="#e74c3c" stroke-width="1"/>
<text x="988.92" y="802" font-size="11" fill="#555555" text-anchor="middle">07-11</text>
<text x="988.92" y="818" font-size="11" fill="#555555" text-anchor="middle">16:00</text>
<line x1="1043.40" y1="208.51" x2="1043.40" y2="289.22" stroke="#2ecc71" stroke-width="2"/>
<rect x="1028.15" y="237.07" width="30.51" height="47.18" fill="#2ecc71" stroke="#2ecc71" stroke-width="1"/>
<text x="1043.40" y="802" font-size="11" fill="#555555" text-anchor="middle">07-11</text>
<text x="1043.40" y="818" font-size="11" fill="#555555" text-anchor="middle">16:15</text>
<line x1="1097.88" y1="204.79" x2="1097.88" y2="285.49" stroke="#2ecc71" stroke-width="2"/>
<rect x="1082.63" y="237.07" width="30.51" height="1.20" fill="#2ecc71" stroke="#2ecc71" stroke-width="1"/>
<text x="1097.88" y="802" font-size="11" fill="#555555" text-anchor="middle">07-11</text>
<text x="1097.88" y="818" font-size="11" fill="#555555" text-anchor="middle">16:30</text>
<line x1="1152.36" y1="178.09" x2="1152.36" y2="260.66" stroke="#e74c3c" stroke-width="2"/>
<rect x="1137.11" y="237.07" width="30.51" height="6.83" fill="#e74c3c" stroke="#e74c3c" stroke-width="1"/>
<text x="1152.36" y="802" font-size="11" fill="#555555" text-anchor="middle">07-11</text>
<text x="1152.36" y="818" font-size="11" fill="#555555" text-anchor="middle">16:45</text>
<line x1="1206.84" y1="203.54" x2="1206.84" y2="408.41" stroke="#2ecc71" stroke-width="2"/>
<rect x="1191.59" y="222.17" width="30.51" height="22.35" fill="#2ecc71" stroke="#2ecc71" stroke-width="1"/>
<text x="1206.84" y="802" font-size="11" fill="#555555" text-anchor="middle">07-11</text>
<text x="1206.84" y="818" font-size="11" fill="#555555" text-anchor="middle">17:00</text>
<line x1="1261.32" y1="86.21" x2="1261.32" y2="245.76" stroke="#e74c3c" stroke-width="2"/>
<rect x="1246.07" y="221.55" width="30.51" height="6.83" fill="#e74c3c" stroke="#e74c3c" stroke-width="1"/>
<text x="1261.32" y="802" font-size="11" fill="#555555" text-anchor="middle">07-11</text>
<text x="1261.32" y="818" font-size="11" fill="#555555" text-anchor="middle">17:15</text>
<line x1="1315.80" y1="202.92" x2="1315.80" y2="270.59" stroke="#e74c3c" stroke-width="2"/>
<rect x="1300.55" y="229.62" width="30.51" height="22.35" fill="#e74c3c" stroke="#e74c3c" stroke-width="1"/>
<text x="1315.80" y="802" font-size="11" fill="#555555" text-anchor="middle">07-11</text>
<text x="1315.80" y="818" font-size="11" fill="#555555" text-anchor="middle">17:30</text>
<line x1="1370.28" y1="244.52" x2="1370.28" y2="326.47" stroke="#e74c3c" stroke-width="2"/>
<rect x="1355.03" y="251.97" width="30.51" height="55.25" fill="#e74c3c" stroke="#e74c3c" stroke-width="1"/>
<text x="1370.28" y="802" font-size="11" fill="#555555" text-anchor="middle">07-11</text>
<text x="1370.28" y="818" font-size="11" fill="#555555" text-anchor="middle">17:45</text>
<line x1="1424.76" y1="307.22" x2="1424.76" y2="381.10" stroke="#e74c3c" stroke-width="2"/>
<rect x="1409.51" y="307.84" width="30.51" height="69.53" fill="#e74c3c" stroke="#e74c3c" stroke-width="1"/>
<text x="1424.76" y="802" font-size="11" fill="#555555" text-anchor="middle">07-11</text>
<text x="1424.76" y="818" font-size="11" fill="#555555" text-anchor="middle">18:00</text>
<line x1="607.56" y1="368.68" x2="677.56" y2="278.68" stroke="#f39c12" stroke-width="2"/>
<rect x="677.56" y="226.68" width="280" height="90" rx="10" fill="#fff8dc" stroke="#f39c12"/>
<text x="689.56" y="250.68" font-size="13" fill="#111111">15m定位时间 2025-07-11 14:15:00</text>
<text x="689.56" y="270.68" font-size="13" fill="#111111">该15m最高价 0.215500</text>
<text x="689.56" y="290.68" font-size="13" fill="#111111">10倍价横线已标出</text>
<text x="689.56" y="310.68" font-size="13" fill="#111111">竖线高亮首次触达10倍价的15m</text>
</svg>