<svg xmlns="http://www.w3.org/2000/svg" width="1500" height="860" viewBox="0 0 1500 860">
<rect width="100%" height="100%" fill="#fcfcfc"/>
<text x="90" y="38" font-size="28" font-weight="700" fill="#111111">ROBO-USDT-SWAP 15m - 10倍命中定位图</text>
<text x="90" y="68" font-size="16" fill="#555555">1H命中时间: 2026-03-18 11:00:00 | 10倍价: 0.036651 | 命中倍数: 11.8098x</text>
<line x1="90" y1="80.00" x2="1452" y2="80.00" stroke="#d9d9d9" stroke-dasharray="4 4" stroke-width="1"/>
<text x="12" y="84.00" font-size="12" fill="#555555">0.037880</text>
<line x1="90" y1="210.00" x2="1452" y2="210.00" stroke="#d9d9d9" stroke-dasharray="4 4" stroke-width="1"/>
<text x="12" y="214.00" font-size="12" fill="#555555">0.035904</text>
<line x1="90" y1="340.00" x2="1452" y2="340.00" stroke="#d9d9d9" stroke-dasharray="4 4" stroke-width="1"/>
<text x="12" y="344.00" font-size="12" fill="#555555">0.033928</text>
<line x1="90" y1="470.00" x2="1452" y2="470.00" stroke="#d9d9d9" stroke-dasharray="4 4" stroke-width="1"/>
<text x="12" y="474.00" font-size="12" fill="#555555">0.031952</text>
<line x1="90" y1="600.00" x2="1452" y2="600.00" stroke="#d9d9d9" stroke-dasharray="4 4" stroke-width="1"/>
<text x="12" y="604.00" font-size="12" fill="#555555">0.029976</text>
<line x1="90" y1="730.00" x2="1452" y2="730.00" stroke="#d9d9d9" stroke-dasharray="4 4" stroke-width="1"/>
<text x="12" y="734.00" font-size="12" fill="#555555">0.028000</text>
<rect x="525.84" y="80" width="54.48" height="650.00" fill="#f1c40f" opacity="0.16"/>
<line x1="553.08" y1="80" x2="553.08" y2="730" stroke="#f39c12" stroke-width="2" stroke-dasharray="6 4"/>
<line x1="90" y1="160.86" x2="1452" y2="160.86" stroke="#8e44ad" stroke-width="2" stroke-dasharray="8 4"/>
<text x="1444" y="152.86" font-size="13" fill="#8e44ad" text-anchor="end">10倍价 0.036651</text>
<line x1="117.24" y1="647.76" x2="117.24" y2="686.58" stroke="#2ecc71" stroke-width="2"/>
<rect x="101.99" y="650.39" width="30.51" height="20.39" fill="#2ecc71" stroke="#2ecc71" stroke-width="1"/>
<text x="117.24" y="802" font-size="11" fill="#555555" text-anchor="middle">03-18</text>
<text x="117.24" y="818" font-size="11" fill="#555555" text-anchor="middle">09:00</text>
<line x1="171.72" y1="649.08" x2="171.72" y2="665.53" stroke="#e74c3c" stroke-width="2"/>
<rect x="156.47" y="650.39" width="30.51" height="9.87" fill="#e74c3c" stroke="#e74c3c" stroke-width="1"/>
<text x="171.72" y="802" font-size="11" fill="#555555" text-anchor="middle">03-18</text>
<text x="171.72" y="818" font-size="11" fill="#555555" text-anchor="middle">09:15</text>
<line x1="226.20" y1="641.18" x2="226.20" y2="662.89" stroke="#2ecc71" stroke-width="2"/>
<rect x="210.95" y="643.16" width="30.51" height="17.11" fill="#2ecc71" stroke="#2ecc71" stroke-width="1"/>
<text x="226.20" y="802" font-size="11" fill="#555555" text-anchor="middle">03-18</text>
<text x="226.20" y="818" font-size="11" fill="#555555" text-anchor="middle">09:30</text>
<line x1="280.68" y1="621.45" x2="280.68" y2="649.08" stroke="#2ecc71" stroke-width="2"/>
<rect x="265.43" y="633.95" width="30.51" height="9.21" fill="#2ecc71" stroke="#2ecc71" stroke-width="1"/>
<text x="280.68" y="802" font-size="11" fill="#555555" text-anchor="middle">03-18</text>
<text x="280.68" y="818" font-size="11" fill="#555555" text-anchor="middle">09:45</text>
<line x1="335.16" y1="601.71" x2="335.16" y2="633.95" stroke="#2ecc71" stroke-width="2"/>
<rect x="319.91" y="601.71" width="30.51" height="32.24" fill="#2ecc71" stroke="#2ecc71" stroke-width="1"/>
<text x="335.16" y="802" font-size="11" fill="#555555" text-anchor="middle">03-18</text>
<text x="335.16" y="818" font-size="11" fill="#555555" text-anchor="middle">10:00</text>
<line x1="389.64" y1="589.87" x2="389.64" y2="626.71" stroke="#e74c3c" stroke-width="2"/>
<rect x="374.39" y="601.71" width="30.51" height="21.05" fill="#e74c3c" stroke="#e74c3c" stroke-width="1"/>
<text x="389.64" y="802" font-size="11" fill="#555555" text-anchor="middle">03-18</text>
<text x="389.64" y="818" font-size="11" fill="#555555" text-anchor="middle">10:15</text>
<line x1="444.12" y1="599.74" x2="444.12" y2="623.42" stroke="#2ecc71" stroke-width="2"/>
<rect x="428.87" y="608.29" width="30.51" height="15.13" fill="#2ecc71" stroke="#2ecc71" stroke-width="1"/>
<text x="444.12" y="802" font-size="11" fill="#555555" text-anchor="middle">03-18</text>
<text x="444.12" y="818" font-size="11" fill="#555555" text-anchor="middle">10:30</text>
<line x1="498.60" y1="599.08" x2="498.60" y2="610.26" stroke="#2ecc71" stroke-width="2"/>
<rect x="483.35" y="607.63" width="30.51" height="1.20" fill="#2ecc71" stroke="#2ecc71" stroke-width="1"/>
<text x="498.60" y="802" font-size="11" fill="#555555" text-anchor="middle">03-18</text>
<text x="498.60" y="818" font-size="11" fill="#555555" text-anchor="middle">10:45</text>
<line x1="553.08" y1="80.00" x2="553.08" y2="607.63" stroke="#2ecc71" stroke-width="2"/>
<rect x="537.83" y="186.58" width="30.51" height="421.05" fill="#2ecc71" stroke="#2ecc71" stroke-width="1"/>
<text x="553.08" y="802" font-size="11" fill="#555555" text-anchor="middle">03-18</text>
<text x="553.08" y="818" font-size="11" fill="#555555" text-anchor="middle">11:00</text>
<line x1="607.56" y1="164.87" x2="607.56" y2="383.29" stroke="#e74c3c" stroke-width="2"/>
<rect x="592.31" y="187.24" width="30.51" height="182.89" fill="#e74c3c" stroke="#e74c3c" stroke-width="1"/>
<text x="607.56" y="802" font-size="11" fill="#555555" text-anchor="middle">03-18</text>
<text x="607.56" y="818" font-size="11" fill="#555555" text-anchor="middle">11:15</text>
<line x1="662.04" y1="329.34" x2="662.04" y2="501.05" stroke="#e74c3c" stroke-width="2"/>
<rect x="646.79" y="370.13" width="30.51" height="44.08" fill="#e74c3c" stroke="#e74c3c" stroke-width="1"/>
<text x="662.04" y="802" font-size="11" fill="#555555" text-anchor="middle">03-18</text>
<text x="662.04" y="818" font-size="11" fill="#555555" text-anchor="middle">11:30</text>
<line x1="716.52" y1="397.76" x2="716.52" y2="444.47" stroke="#e74c3c" stroke-width="2"/>
<rect x="701.27" y="414.21" width="30.51" height="13.16" fill="#e74c3c" stroke="#e74c3c" stroke-width="1"/>
<text x="716.52" y="802" font-size="11" fill="#555555" text-anchor="middle">03-18</text>
<text x="716.52" y="818" font-size="11" fill="#555555" text-anchor="middle">11:45</text>
<line x1="771.00" y1="379.34" x2="771.00" y2="441.84" stroke="#2ecc71" stroke-width="2"/>
<rect x="755.75" y="413.55" width="30.51" height="13.16" fill="#2ecc71" stroke="#2ecc71" stroke-width="1"/>
<text x="771.00" y="802" font-size="11" fill="#555555" text-anchor="middle">03-18</text>
<text x="771.00" y="818" font-size="11" fill="#555555" text-anchor="middle">12:00</text>
<line x1="825.48" y1="414.21" x2="825.48" y2="583.29" stroke="#e74c3c" stroke-width="2"/>
<rect x="810.23" y="414.21" width="30.51" height="134.87" fill="#e74c3c" stroke="#e74c3c" stroke-width="1"/>
<text x="825.48" y="802" font-size="11" fill="#555555" text-anchor="middle">03-18</text>
<text x="825.48" y="818" font-size="11" fill="#555555" text-anchor="middle">12:15</text>
<line x1="879.96" y1="499.74" x2="879.96" y2="555.00" stroke="#2ecc71" stroke-width="2"/>
<rect x="864.71" y="527.37" width="30.51" height="21.71" fill="#2ecc71" stroke="#2ecc71" stroke-width="1"/>
<text x="879.96" y="802" font-size="11" fill="#555555" text-anchor="middle">03-18</text>
<text x="879.96" y="818" font-size="11" fill="#555555" text-anchor="middle">12:30</text>
<line x1="934.44" y1="511.58" x2="934.44" y2="545.79" stroke="#e74c3c" stroke-width="2"/>
<rect x="919.19" y="527.37" width="30.51" height="4.61" fill="#e74c3c" stroke="#e74c3c" stroke-width="1"/>
<text x="934.44" y="802" font-size="11" fill="#555555" text-anchor="middle">03-18</text>
<text x="934.44" y="818" font-size="11" fill="#555555" text-anchor="middle">12:45</text>
<line x1="988.92" y1="526.71" x2="988.92" y2="618.16" stroke="#e74c3c" stroke-width="2"/>
<rect x="973.67" y="531.97" width="30.51" height="76.97" fill="#e74c3c" stroke="#e74c3c" stroke-width="1"/>
<text x="988.92" y="802" font-size="11" fill="#555555" text-anchor="middle">03-18</text>
<text x="988.92" y="818" font-size="11" fill="#555555" text-anchor="middle">13:00</text>
<line x1="1043.40" y1="608.29" x2="1043.40" y2="730.00" stroke="#e74c3c" stroke-width="2"/>
<rect x="1028.15" y="608.95" width="30.51" height="88.82" fill="#e74c3c" stroke="#e74c3c" stroke-width="1"/>
<text x="1043.40" y="802" font-size="11" fill="#555555" text-anchor="middle">03-18</text>
<text x="1043.40" y="818" font-size="11" fill="#555555" text-anchor="middle">13:15</text>
<line x1="1097.88" y1="654.34" x2="1097.88" y2="698.42" stroke="#2ecc71" stroke-width="2"/>
<rect x="1082.63" y="662.24" width="30.51" height="35.53" fill="#2ecc71" stroke="#2ecc71" stroke-width="1"/>
<text x="1097.88" y="802" font-size="11" fill="#555555" text-anchor="middle">03-18</text>
<text x="1097.88" y="818" font-size="11" fill="#555555" text-anchor="middle">13:30</text>
<line x1="1152.36" y1="658.95" x2="1152.36" y2="700.39" stroke="#e74c3c" stroke-width="2"/>
<rect x="1137.11" y="661.58" width="30.51" height="30.26" fill="#e74c3c" stroke="#e74c3c" stroke-width="1"/>
<text x="1152.36" y="802" font-size="11" fill="#555555" text-anchor="middle">03-18</text>
<text x="1152.36" y="818" font-size="11" fill="#555555" text-anchor="middle">13:45</text>
<line x1="1206.84" y1="664.21" x2="1206.84" y2="695.13" stroke="#2ecc71" stroke-width="2"/>
<rect x="1191.59" y="668.82" width="30.51" height="23.03" fill="#2ecc71" stroke="#2ecc71" stroke-width="1"/>
<text x="1206.84" y="802" font-size="11" fill="#555555" text-anchor="middle">03-18</text>
<text x="1206.84" y="818" font-size="11" fill="#555555" text-anchor="middle">14:00</text>
<line x1="1261.32" y1="659.61" x2="1261.32" y2="687.89" stroke="#e74c3c" stroke-width="2"/>
<rect x="1246.07" y="668.82" width="30.51" height="11.18" fill="#e74c3c" stroke="#e74c3c" stroke-width="1"/>
<text x="1261.32" y="802" font-size="11" fill="#555555" text-anchor="middle">03-18</text>
<text x="1261.32" y="818" font-size="11" fill="#555555" text-anchor="middle">14:15</text>
<line x1="1315.80" y1="642.50" x2="1315.80" y2="689.87" stroke="#2ecc71" stroke-width="2"/>
<rect x="1300.55" y="660.92" width="30.51" height="19.74" fill="#2ecc71" stroke="#2ecc71" stroke-width="1"/>
<text x="1315.80" y="802" font-size="11" fill="#555555" text-anchor="middle">03-18</text>
<text x="1315.80" y="818" font-size="11" fill="#555555" text-anchor="middle">14:30</text>
<line x1="1370.28" y1="646.45" x2="1370.28" y2="666.84" stroke="#2ecc71" stroke-width="2"/>
<rect x="1355.03" y="652.37" width="30.51" height="8.55" fill="#2ecc71" stroke="#2ecc71" stroke-width="1"/>
<text x="1370.28" y="802" font-size="11" fill="#555555" text-anchor="middle">03-18</text>
<text x="1370.28" y="818" font-size="11" fill="#555555" text-anchor="middle">14:45</text>
<line x1="1424.76" y1="648.42" x2="1424.76" y2="676.71" stroke="#e74c3c" stroke-width="2"/>
<rect x="1409.51" y="651.71" width="30.51" height="5.26" fill="#e74c3c" stroke="#e74c3c" stroke-width="1"/>
<text x="1424.76" y="802" font-size="11" fill="#555555" text-anchor="middle">03-18</text>
<text x="1424.76" y="818" font-size="11" fill="#555555" text-anchor="middle">15:00</text>
<line x1="553.08" y1="80.00" x2="623.08" y2="104.00" stroke="#f39c12" stroke-width="2"/>
<rect x="623.08" y="52.00" width="280" height="90" rx="10" fill="#fff8dc" stroke="#f39c12"/>
<text x="635.08" y="76.00" font-size="13" fill="#111111">15m定位时间 2026-03-18 11:00:00</text>
<text x="635.08" y="96.00" font-size="13" fill="#111111">该15m最高价 0.037880</text>
<text x="635.08" y="116.00" font-size="13" fill="#111111">10倍价横线已标出</text>
<text x="635.08" y="136.00" font-size="13" fill="#111111">竖线高亮首次触达10倍价的15m</text>
</svg>