<svg xmlns="http://www.w3.org/2000/svg" width="1500" height="860" viewBox="0 0 1500 860">
<rect width="100%" height="100%" fill="#fcfcfc"/>
<text x="90" y="38" font-size="28" font-weight="700" fill="#111111">SHELL-USDT-SWAP 15m - 10倍命中定位图</text>
<text x="90" y="68" font-size="16" fill="#555555">1H命中时间: 2026-02-27 03:00:00 | 10倍价: 0.034304 | 命中倍数: 13.2770x</text>
<line x1="90" y1="80.00" x2="1452" y2="80.00" stroke="#d9d9d9" stroke-dasharray="4 4" stroke-width="1"/>
<text x="12" y="84.00" font-size="12" fill="#555555">0.035940</text>
<line x1="90" y1="210.00" x2="1452" y2="210.00" stroke="#d9d9d9" stroke-dasharray="4 4" stroke-width="1"/>
<text x="12" y="214.00" font-size="12" fill="#555555">0.034480</text>
<line x1="90" y1="340.00" x2="1452" y2="340.00" stroke="#d9d9d9" stroke-dasharray="4 4" stroke-width="1"/>
<text x="12" y="344.00" font-size="12" fill="#555555">0.033020</text>
<line x1="90" y1="470.00" x2="1452" y2="470.00" stroke="#d9d9d9" stroke-dasharray="4 4" stroke-width="1"/>
<text x="12" y="474.00" font-size="12" fill="#555555">0.031560</text>
<line x1="90" y1="600.00" x2="1452" y2="600.00" stroke="#d9d9d9" stroke-dasharray="4 4" stroke-width="1"/>
<text x="12" y="604.00" font-size="12" fill="#555555">0.030100</text>
<line x1="90" y1="730.00" x2="1452" y2="730.00" stroke="#d9d9d9" stroke-dasharray="4 4" stroke-width="1"/>
<text x="12" y="734.00" font-size="12" fill="#555555">0.028640</text>
<rect x="634.80" y="80" width="54.48" height="650.00" fill="#f1c40f" opacity="0.16"/>
<line x1="662.04" y1="80" x2="662.04" y2="730" stroke="#f39c12" stroke-width="2" stroke-dasharray="6 4"/>
<line x1="90" y1="225.71" x2="1452" y2="225.71" stroke="#8e44ad" stroke-width="2" stroke-dasharray="8 4"/>
<text x="1444" y="217.71" font-size="13" fill="#8e44ad" text-anchor="end">10倍价 0.034304</text>
<line x1="117.24" y1="697.05" x2="117.24" y2="730.00" stroke="#2ecc71" stroke-width="2"/>
<rect x="101.99" y="705.07" width="30.51" height="24.93" fill="#2ecc71" stroke="#2ecc71" stroke-width="1"/>
<text x="117.24" y="802" font-size="11" fill="#555555" text-anchor="middle">02-27</text>
<text x="117.24" y="818" font-size="11" fill="#555555" text-anchor="middle">01:00</text>
<line x1="171.72" y1="702.40" x2="171.72" y2="713.97" stroke="#2ecc71" stroke-width="2"/>
<rect x="156.47" y="704.18" width="30.51" height="4.45" fill="#2ecc71" stroke="#2ecc71" stroke-width="1"/>
<text x="171.72" y="802" font-size="11" fill="#555555" text-anchor="middle">02-27</text>
<text x="171.72" y="818" font-size="11" fill="#555555" text-anchor="middle">01:15</text>
<line x1="226.20" y1="701.51" x2="226.20" y2="714.86" stroke="#e74c3c" stroke-width="2"/>
<rect x="210.95" y="705.96" width="30.51" height="8.90" fill="#e74c3c" stroke="#e74c3c" stroke-width="1"/>
<text x="226.20" y="802" font-size="11" fill="#555555" text-anchor="middle">02-27</text>
<text x="226.20" y="818" font-size="11" fill="#555555" text-anchor="middle">01:30</text>
<line x1="280.68" y1="710.41" x2="280.68" y2="721.99" stroke="#e74c3c" stroke-width="2"/>
<rect x="265.43" y="714.86" width="30.51" height="1.78" fill="#e74c3c" stroke="#e74c3c" stroke-width="1"/>
<text x="280.68" y="802" font-size="11" fill="#555555" text-anchor="middle">02-27</text>
<text x="280.68" y="818" font-size="11" fill="#555555" text-anchor="middle">01:45</text>
<line x1="335.16" y1="705.07" x2="335.16" y2="718.42" stroke="#2ecc71" stroke-width="2"/>
<rect x="319.91" y="705.96" width="30.51" height="10.68" fill="#2ecc71" stroke="#2ecc71" stroke-width="1"/>
<text x="335.16" y="802" font-size="11" fill="#555555" text-anchor="middle">02-27</text>
<text x="335.16" y="818" font-size="11" fill="#555555" text-anchor="middle">02:00</text>
<line x1="389.64" y1="702.40" x2="389.64" y2="707.74" stroke="#2ecc71" stroke-width="2"/>
<rect x="374.39" y="702.40" width="30.51" height="3.56" fill="#2ecc71" stroke="#2ecc71" stroke-width="1"/>
<text x="389.64" y="802" font-size="11" fill="#555555" text-anchor="middle">02-27</text>
<text x="389.64" y="818" font-size="11" fill="#555555" text-anchor="middle">02:15</text>
<line x1="444.12" y1="684.59" x2="444.12" y2="709.52" stroke="#2ecc71" stroke-width="2"/>
<rect x="428.87" y="686.37" width="30.51" height="23.15" fill="#2ecc71" stroke="#2ecc71" stroke-width="1"/>
<text x="444.12" y="802" font-size="11" fill="#555555" text-anchor="middle">02-27</text>
<text x="444.12" y="818" font-size="11" fill="#555555" text-anchor="middle">02:30</text>
<line x1="498.60" y1="674.79" x2="498.60" y2="689.04" stroke="#2ecc71" stroke-width="2"/>
<rect x="483.35" y="674.79" width="30.51" height="12.47" fill="#2ecc71" stroke="#2ecc71" stroke-width="1"/>
<text x="498.60" y="802" font-size="11" fill="#555555" text-anchor="middle">02-27</text>
<text x="498.60" y="818" font-size="11" fill="#555555" text-anchor="middle">02:45</text>
<line x1="553.08" y1="373.84" x2="553.08" y2="670.34" stroke="#2ecc71" stroke-width="2"/>
<rect x="537.83" y="579.52" width="30.51" height="88.15" fill="#2ecc71" stroke="#2ecc71" stroke-width="1"/>
<text x="553.08" y="802" font-size="11" fill="#555555" text-anchor="middle">02-27</text>
<text x="553.08" y="818" font-size="11" fill="#555555" text-anchor="middle">03:00</text>
<line x1="607.56" y1="499.38" x2="607.56" y2="595.55" stroke="#2ecc71" stroke-width="2"/>
<rect x="592.31" y="566.16" width="30.51" height="11.58" fill="#2ecc71" stroke="#2ecc71" stroke-width="1"/>
<text x="607.56" y="802" font-size="11" fill="#555555" text-anchor="middle">02-27</text>
<text x="607.56" y="818" font-size="11" fill="#555555" text-anchor="middle">03:15</text>
<line x1="662.04" y1="80.00" x2="662.04" y2="580.41" stroke="#2ecc71" stroke-width="2"/>
<rect x="646.79" y="315.07" width="30.51" height="251.10" fill="#2ecc71" stroke="#2ecc71" stroke-width="1"/>
<text x="662.04" y="802" font-size="11" fill="#555555" text-anchor="middle">02-27</text>
<text x="662.04" y="818" font-size="11" fill="#555555" text-anchor="middle">03:30</text>
<line x1="716.52" y1="265.21" x2="716.52" y2="523.42" stroke="#e74c3c" stroke-width="2"/>
<rect x="701.27" y="328.42" width="30.51" height="160.27" fill="#e74c3c" stroke="#e74c3c" stroke-width="1"/>
<text x="716.52" y="802" font-size="11" fill="#555555" text-anchor="middle">02-27</text>
<text x="716.52" y="818" font-size="11" fill="#555555" text-anchor="middle">03:45</text>
<line x1="771.00" y1="471.78" x2="771.00" y2="593.77" stroke="#e74c3c" stroke-width="2"/>
<rect x="755.75" y="487.81" width="30.51" height="99.73" fill="#e74c3c" stroke="#e74c3c" stroke-width="1"/>
<text x="771.00" y="802" font-size="11" fill="#555555" text-anchor="middle">02-27</text>
<text x="771.00" y="818" font-size="11" fill="#555555" text-anchor="middle">04:00</text>
<line x1="825.48" y1="571.51" x2="825.48" y2="607.12" stroke="#e74c3c" stroke-width="2"/>
<rect x="810.23" y="584.86" width="30.51" height="6.23" fill="#e74c3c" stroke="#e74c3c" stroke-width="1"/>
<text x="825.48" y="802" font-size="11" fill="#555555" text-anchor="middle">02-27</text>
<text x="825.48" y="818" font-size="11" fill="#555555" text-anchor="middle">04:15</text>
<line x1="879.96" y1="544.79" x2="879.96" y2="599.11" stroke="#2ecc71" stroke-width="2"/>
<rect x="864.71" y="549.25" width="30.51" height="40.96" fill="#2ecc71" stroke="#2ecc71" stroke-width="1"/>
<text x="879.96" y="802" font-size="11" fill="#555555" text-anchor="middle">02-27</text>
<text x="879.96" y="818" font-size="11" fill="#555555" text-anchor="middle">04:30</text>
<line x1="934.44" y1="535.00" x2="934.44" y2="579.52" stroke="#e74c3c" stroke-width="2"/>
<rect x="919.19" y="551.92" width="30.51" height="23.15" fill="#e74c3c" stroke="#e74c3c" stroke-width="1"/>
<text x="934.44" y="802" font-size="11" fill="#555555" text-anchor="middle">02-27</text>
<text x="934.44" y="818" font-size="11" fill="#555555" text-anchor="middle">04:45</text>
<line x1="988.92" y1="550.14" x2="988.92" y2="576.85" stroke="#2ecc71" stroke-width="2"/>
<rect x="973.67" y="558.15" width="30.51" height="17.81" fill="#2ecc71" stroke="#2ecc71" stroke-width="1"/>
<text x="988.92" y="802" font-size="11" fill="#555555" text-anchor="middle">02-27</text>
<text x="988.92" y="818" font-size="11" fill="#555555" text-anchor="middle">05:00</text>
<line x1="1043.40" y1="510.96" x2="1043.40" y2="567.05" stroke="#e74c3c" stroke-width="2"/>
<rect x="1028.15" y="556.37" width="30.51" height="3.56" fill="#e74c3c" stroke="#e74c3c" stroke-width="1"/>
<text x="1043.40" y="802" font-size="11" fill="#555555" text-anchor="middle">02-27</text>
<text x="1043.40" y="818" font-size="11" fill="#555555" text-anchor="middle">05:15</text>
<line x1="1097.88" y1="526.10" x2="1097.88" y2="564.38" stroke="#2ecc71" stroke-width="2"/>
<rect x="1082.63" y="545.68" width="30.51" height="16.03" fill="#2ecc71" stroke="#2ecc71" stroke-width="1"/>
<text x="1097.88" y="802" font-size="11" fill="#555555" text-anchor="middle">02-27</text>
<text x="1097.88" y="818" font-size="11" fill="#555555" text-anchor="middle">05:30</text>
<line x1="1152.36" y1="536.78" x2="1152.36" y2="563.49" stroke="#e74c3c" stroke-width="2"/>
<rect x="1137.11" y="543.90" width="30.51" height="11.58" fill="#e74c3c" stroke="#e74c3c" stroke-width="1"/>
<text x="1152.36" y="802" font-size="11" fill="#555555" text-anchor="middle">02-27</text>
<text x="1152.36" y="818" font-size="11" fill="#555555" text-anchor="middle">05:45</text>
<line x1="1206.84" y1="548.36" x2="1206.84" y2="572.40" stroke="#e74c3c" stroke-width="2"/>
<rect x="1191.59" y="554.59" width="30.51" height="6.23" fill="#e74c3c" stroke="#e74c3c" stroke-width="1"/>
<text x="1206.84" y="802" font-size="11" fill="#555555" text-anchor="middle">02-27</text>
<text x="1206.84" y="818" font-size="11" fill="#555555" text-anchor="middle">06:00</text>
<line x1="1261.32" y1="550.14" x2="1261.32" y2="568.84" stroke="#2ecc71" stroke-width="2"/>
<rect x="1246.07" y="550.14" width="30.51" height="9.79" fill="#2ecc71" stroke="#2ecc71" stroke-width="1"/>
<text x="1261.32" y="802" font-size="11" fill="#555555" text-anchor="middle">02-27</text>
<text x="1261.32" y="818" font-size="11" fill="#555555" text-anchor="middle">06:15</text>
<line x1="1315.80" y1="527.88" x2="1315.80" y2="558.15" stroke="#e74c3c" stroke-width="2"/>
<rect x="1300.55" y="551.92" width="30.51" height="2.67" fill="#e74c3c" stroke="#e74c3c" stroke-width="1"/>
<text x="1315.80" y="802" font-size="11" fill="#555555" text-anchor="middle">02-27</text>
<text x="1315.80" y="818" font-size="11" fill="#555555" text-anchor="middle">06:30</text>
<line x1="1370.28" y1="526.10" x2="1370.28" y2="571.51" stroke="#2ecc71" stroke-width="2"/>
<rect x="1355.03" y="529.66" width="30.51" height="24.93" fill="#2ecc71" stroke="#2ecc71" stroke-width="1"/>
<text x="1370.28" y="802" font-size="11" fill="#555555" text-anchor="middle">02-27</text>
<text x="1370.28" y="818" font-size="11" fill="#555555" text-anchor="middle">06:45</text>
<line x1="1424.76" y1="509.18" x2="1424.76" y2="545.68" stroke="#2ecc71" stroke-width="2"/>
<rect x="1409.51" y="516.30" width="30.51" height="12.47" fill="#2ecc71" stroke="#2ecc71" stroke-width="1"/>
<text x="1424.76" y="802" font-size="11" fill="#555555" text-anchor="middle">02-27</text>
<text x="1424.76" y="818" font-size="11" fill="#555555" text-anchor="middle">07:00</text>
<line x1="662.04" y1="80.00" x2="732.04" y2="104.00" stroke="#f39c12" stroke-width="2"/>
<rect x="732.04" y="52.00" width="280" height="90" rx="10" fill="#fff8dc" stroke="#f39c12"/>
<text x="744.04" y="76.00" font-size="13" fill="#111111">15m定位时间 2026-02-27 03:30:00</text>
<text x="744.04" y="96.00" font-size="13" fill="#111111">该15m最高价 0.035940</text>
<text x="744.04" y="116.00" font-size="13" fill="#111111">10倍价横线已标出</text>
<text x="744.04" y="136.00" font-size="13" fill="#111111">竖线高亮首次触达10倍价的15m</text>
</svg>