<svg xmlns="http://www.w3.org/2000/svg" width="1500" height="860" viewBox="0 0 1500 860">
<rect width="100%" height="100%" fill="#fcfcfc"/>
<text x="90" y="38" font-size="28" font-weight="700" fill="#111111">TRB-USDT-SWAP 15m - 10倍命中定位图</text>
<text x="90" y="68" font-size="16" fill="#555555">1H命中时间: 2023-09-13 15:00:00 | 10倍价: 23.606921 | 命中倍数: 12.0779x</text>
<line x1="90" y1="80.00" x2="1452" y2="80.00" stroke="#d9d9d9" stroke-dasharray="4 4" stroke-width="1"/>
<text x="12" y="84.00" font-size="12" fill="#555555">26.459000</text>
<line x1="90" y1="210.00" x2="1452" y2="210.00" stroke="#d9d9d9" stroke-dasharray="4 4" stroke-width="1"/>
<text x="12" y="214.00" font-size="12" fill="#555555">24.263800</text>
<line x1="90" y1="340.00" x2="1452" y2="340.00" stroke="#d9d9d9" stroke-dasharray="4 4" stroke-width="1"/>
<text x="12" y="344.00" font-size="12" fill="#555555">22.068600</text>
<line x1="90" y1="470.00" x2="1452" y2="470.00" stroke="#d9d9d9" stroke-dasharray="4 4" stroke-width="1"/>
<text x="12" y="474.00" font-size="12" fill="#555555">19.873400</text>
<line x1="90" y1="600.00" x2="1452" y2="600.00" stroke="#d9d9d9" stroke-dasharray="4 4" stroke-width="1"/>
<text x="12" y="604.00" font-size="12" fill="#555555">17.678200</text>
<line x1="90" y1="730.00" x2="1452" y2="730.00" stroke="#d9d9d9" stroke-dasharray="4 4" stroke-width="1"/>
<text x="12" y="734.00" font-size="12" fill="#555555">15.483000</text>
<rect x="525.84" y="80" width="54.48" height="650.00" fill="#f1c40f" opacity="0.16"/>
<line x1="553.08" y1="80" x2="553.08" y2="730" stroke="#f39c12" stroke-width="2" stroke-dasharray="6 4"/>
<line x1="90" y1="248.90" x2="1452" y2="248.90" stroke="#8e44ad" stroke-width="2" stroke-dasharray="8 4"/>
<text x="1444" y="240.90" font-size="13" fill="#8e44ad" text-anchor="end">10倍价 23.606921</text>
<line x1="117.24" y1="80.00" x2="117.24" y2="132.17" stroke="#e74c3c" stroke-width="2"/>
<rect x="101.99" y="91.13" width="30.51" height="34.35" fill="#e74c3c" stroke="#e74c3c" stroke-width="1"/>
<text x="117.24" y="802" font-size="11" fill="#555555" text-anchor="middle">09-13</text>
<text x="117.24" y="818" font-size="11" fill="#555555" text-anchor="middle">13:00</text>
<line x1="171.72" y1="122.58" x2="171.72" y2="232.73" stroke="#e74c3c" stroke-width="2"/>
<rect x="156.47" y="125.54" width="30.51" height="99.08" fill="#e74c3c" stroke="#e74c3c" stroke-width="1"/>
<text x="171.72" y="802" font-size="11" fill="#555555" text-anchor="middle">09-13</text>
<text x="171.72" y="818" font-size="11" fill="#555555" text-anchor="middle">13:15</text>
<line x1="226.20" y1="216.15" x2="226.20" y2="284.84" stroke="#e74c3c" stroke-width="2"/>
<rect x="210.95" y="224.67" width="30.51" height="44.42" fill="#e74c3c" stroke="#e74c3c" stroke-width="1"/>
<text x="226.20" y="802" font-size="11" fill="#555555" text-anchor="middle">09-13</text>
<text x="226.20" y="818" font-size="11" fill="#555555" text-anchor="middle">13:30</text>
<line x1="280.68" y1="238.83" x2="280.68" y2="270.69" stroke="#2ecc71" stroke-width="2"/>
<rect x="265.43" y="240.13" width="30.51" height="28.96" fill="#2ecc71" stroke="#2ecc71" stroke-width="1"/>
<text x="280.68" y="802" font-size="11" fill="#555555" text-anchor="middle">09-13</text>
<text x="280.68" y="818" font-size="11" fill="#555555" text-anchor="middle">13:45</text>
<line x1="335.16" y1="218.16" x2="335.16" y2="255.23" stroke="#e74c3c" stroke-width="2"/>
<rect x="319.91" y="240.01" width="30.51" height="7.22" fill="#e74c3c" stroke="#e74c3c" stroke-width="1"/>
<text x="335.16" y="802" font-size="11" fill="#555555" text-anchor="middle">09-13</text>
<text x="335.16" y="818" font-size="11" fill="#555555" text-anchor="middle">14:00</text>
<line x1="389.64" y1="228.64" x2="389.64" y2="255.23" stroke="#2ecc71" stroke-width="2"/>
<rect x="374.39" y="228.70" width="30.51" height="18.54" fill="#2ecc71" stroke="#2ecc71" stroke-width="1"/>
<text x="389.64" y="802" font-size="11" fill="#555555" text-anchor="middle">09-13</text>
<text x="389.64" y="818" font-size="11" fill="#555555" text-anchor="middle">14:15</text>
<line x1="444.12" y1="213.66" x2="444.12" y2="236.34" stroke="#2ecc71" stroke-width="2"/>
<rect x="428.87" y="228.64" width="30.51" height="1.20" fill="#2ecc71" stroke="#2ecc71" stroke-width="1"/>
<text x="444.12" y="802" font-size="11" fill="#555555" text-anchor="middle">09-13</text>
<text x="444.12" y="818" font-size="11" fill="#555555" text-anchor="middle">14:30</text>
<line x1="498.60" y1="207.86" x2="498.60" y2="239.01" stroke="#2ecc71" stroke-width="2"/>
<rect x="483.35" y="217.98" width="30.51" height="10.72" fill="#2ecc71" stroke="#2ecc71" stroke-width="1"/>
<text x="498.60" y="802" font-size="11" fill="#555555" text-anchor="middle">09-13</text>
<text x="498.60" y="818" font-size="11" fill="#555555" text-anchor="middle">14:45</text>
<line x1="553.08" y1="192.76" x2="553.08" y2="223.14" stroke="#2ecc71" stroke-width="2"/>
<rect x="537.83" y="194.12" width="30.51" height="24.10" fill="#2ecc71" stroke="#2ecc71" stroke-width="1"/>
<text x="553.08" y="802" font-size="11" fill="#555555" text-anchor="middle">09-13</text>
<text x="553.08" y="818" font-size="11" fill="#555555" text-anchor="middle">15:00</text>
<line x1="607.56" y1="173.57" x2="607.56" y2="198.38" stroke="#2ecc71" stroke-width="2"/>
<rect x="592.31" y="177.83" width="30.51" height="16.29" fill="#2ecc71" stroke="#2ecc71" stroke-width="1"/>
<text x="607.56" y="802" font-size="11" fill="#555555" text-anchor="middle">09-13</text>
<text x="607.56" y="818" font-size="11" fill="#555555" text-anchor="middle">15:15</text>
<line x1="662.04" y1="173.86" x2="662.04" y2="730.00" stroke="#e74c3c" stroke-width="2"/>
<rect x="646.79" y="177.89" width="30.51" height="36.60" fill="#e74c3c" stroke="#e74c3c" stroke-width="1"/>
<text x="662.04" y="802" font-size="11" fill="#555555" text-anchor="middle">09-13</text>
<text x="662.04" y="818" font-size="11" fill="#555555" text-anchor="middle">15:30</text>
<line x1="716.52" y1="148.93" x2="716.52" y2="235.10" stroke="#2ecc71" stroke-width="2"/>
<rect x="701.27" y="186.89" width="30.51" height="27.77" fill="#2ecc71" stroke="#2ecc71" stroke-width="1"/>
<text x="716.52" y="802" font-size="11" fill="#555555" text-anchor="middle">09-13</text>
<text x="716.52" y="818" font-size="11" fill="#555555" text-anchor="middle">15:45</text>
<line x1="771.00" y1="169.96" x2="771.00" y2="233.26" stroke="#e74c3c" stroke-width="2"/>
<rect x="755.75" y="187.01" width="30.51" height="44.71" fill="#e74c3c" stroke="#e74c3c" stroke-width="1"/>
<text x="771.00" y="802" font-size="11" fill="#555555" text-anchor="middle">09-13</text>
<text x="771.00" y="818" font-size="11" fill="#555555" text-anchor="middle">16:00</text>
<line x1="825.48" y1="213.36" x2="825.48" y2="266.66" stroke="#e74c3c" stroke-width="2"/>
<rect x="810.23" y="231.90" width="30.51" height="22.80" fill="#e74c3c" stroke="#e74c3c" stroke-width="1"/>
<text x="825.48" y="802" font-size="11" fill="#555555" text-anchor="middle">09-13</text>
<text x="825.48" y="818" font-size="11" fill="#555555" text-anchor="middle">16:15</text>
<line x1="879.96" y1="242.91" x2="879.96" y2="287.63" stroke="#e74c3c" stroke-width="2"/>
<rect x="864.71" y="254.76" width="30.51" height="17.17" fill="#e74c3c" stroke="#e74c3c" stroke-width="1"/>
<text x="879.96" y="802" font-size="11" fill="#555555" text-anchor="middle">09-13</text>
<text x="879.96" y="818" font-size="11" fill="#555555" text-anchor="middle">16:30</text>
<line x1="934.44" y1="245.40" x2="934.44" y2="272.64" stroke="#2ecc71" stroke-width="2"/>
<rect x="919.19" y="257.01" width="30.51" height="14.86" fill="#2ecc71" stroke="#2ecc71" stroke-width="1"/>
<text x="934.44" y="802" font-size="11" fill="#555555" text-anchor="middle">09-13</text>
<text x="934.44" y="818" font-size="11" fill="#555555" text-anchor="middle">16:45</text>
<line x1="988.92" y1="220.77" x2="988.92" y2="258.19" stroke="#2ecc71" stroke-width="2"/>
<rect x="973.67" y="223.73" width="30.51" height="33.46" fill="#2ecc71" stroke="#2ecc71" stroke-width="1"/>
<text x="988.92" y="802" font-size="11" fill="#555555" text-anchor="middle">09-13</text>
<text x="988.92" y="818" font-size="11" fill="#555555" text-anchor="middle">17:00</text>
<line x1="1043.40" y1="203.89" x2="1043.40" y2="236.87" stroke="#2ecc71" stroke-width="2"/>
<rect x="1028.15" y="223.31" width="30.51" height="1.20" fill="#2ecc71" stroke="#2ecc71" stroke-width="1"/>
<text x="1043.40" y="802" font-size="11" fill="#555555" text-anchor="middle">09-13</text>
<text x="1043.40" y="818" font-size="11" fill="#555555" text-anchor="middle">17:15</text>
<line x1="1097.88" y1="209.75" x2="1097.88" y2="231.37" stroke="#2ecc71" stroke-width="2"/>
<rect x="1082.63" y="215.32" width="30.51" height="8.05" fill="#2ecc71" stroke="#2ecc71" stroke-width="1"/>
<text x="1097.88" y="802" font-size="11" fill="#555555" text-anchor="middle">09-13</text>
<text x="1097.88" y="818" font-size="11" fill="#555555" text-anchor="middle">17:30</text>
<line x1="1152.36" y1="191.69" x2="1152.36" y2="217.92" stroke="#2ecc71" stroke-width="2"/>
<rect x="1137.11" y="202.41" width="30.51" height="12.85" fill="#2ecc71" stroke="#2ecc71" stroke-width="1"/>
<text x="1152.36" y="802" font-size="11" fill="#555555" text-anchor="middle">09-13</text>
<text x="1152.36" y="818" font-size="11" fill="#555555" text-anchor="middle">17:45</text>
<line x1="1206.84" y1="200.22" x2="1206.84" y2="215.08" stroke="#2ecc71" stroke-width="2"/>
<rect x="1191.59" y="201.11" width="30.51" height="1.36" fill="#2ecc71" stroke="#2ecc71" stroke-width="1"/>
<text x="1206.84" y="802" font-size="11" fill="#555555" text-anchor="middle">09-13</text>
<text x="1206.84" y="818" font-size="11" fill="#555555" text-anchor="middle">18:00</text>
<line x1="1261.32" y1="198.26" x2="1261.32" y2="213.19" stroke="#e74c3c" stroke-width="2"/>
<rect x="1246.07" y="201.16" width="30.51" height="10.36" fill="#e74c3c" stroke="#e74c3c" stroke-width="1"/>
<text x="1261.32" y="802" font-size="11" fill="#555555" text-anchor="middle">09-13</text>
<text x="1261.32" y="818" font-size="11" fill="#555555" text-anchor="middle">18:15</text>
<line x1="1315.80" y1="204.60" x2="1315.80" y2="218.52" stroke="#2ecc71" stroke-width="2"/>
<rect x="1300.55" y="204.90" width="30.51" height="6.63" fill="#2ecc71" stroke="#2ecc71" stroke-width="1"/>
<text x="1315.80" y="802" font-size="11" fill="#555555" text-anchor="middle">09-13</text>
<text x="1315.80" y="818" font-size="11" fill="#555555" text-anchor="middle">18:30</text>
<line x1="1370.28" y1="194.41" x2="1370.28" y2="209.40" stroke="#2ecc71" stroke-width="2"/>
<rect x="1355.03" y="198.50" width="30.51" height="6.69" fill="#2ecc71" stroke="#2ecc71" stroke-width="1"/>
<text x="1370.28" y="802" font-size="11" fill="#555555" text-anchor="middle">09-13</text>
<text x="1370.28" y="818" font-size="11" fill="#555555" text-anchor="middle">18:45</text>
<line x1="1424.76" y1="177.06" x2="1424.76" y2="204.42" stroke="#2ecc71" stroke-width="2"/>
<rect x="1409.51" y="179.13" width="30.51" height="19.42" fill="#2ecc71" stroke="#2ecc71" stroke-width="1"/>
<text x="1424.76" y="802" font-size="11" fill="#555555" text-anchor="middle">09-13</text>
<text x="1424.76" y="818" font-size="11" fill="#555555" text-anchor="middle">19:00</text>
<line x1="553.08" y1="192.76" x2="623.08" y2="104.00" stroke="#f39c12" stroke-width="2"/>
<rect x="623.08" y="52.00" width="280" height="90" rx="10" fill="#fff8dc" stroke="#f39c12"/>
<text x="635.08" y="76.00" font-size="13" fill="#111111">15m定位时间 2023-09-13 15:00:00</text>
<text x="635.08" y="96.00" font-size="13" fill="#111111">该15m最高价 24.555000</text>
<text x="635.08" y="116.00" font-size="13" fill="#111111">10倍价横线已标出</text>
<text x="635.08" y="136.00" font-size="13" fill="#111111">竖线高亮首次触达10倍价的15m</text>
</svg>