<svg xmlns="http://www.w3.org/2000/svg" width="1500" height="860" viewBox="0 0 1500 860">
<rect width="100%" height="100%" fill="#fcfcfc"/>
<text x="90" y="38" font-size="28" font-weight="700" fill="#111111">TURBO-USDT-SWAP 15m - 10倍命中定位图</text>
<text x="90" y="68" font-size="16" fill="#555555">1H命中时间: 2024-03-02 11:00:00 | 10倍价: 0.001178 | 命中倍数: 10.3573x</text>
<line x1="90" y1="80.00" x2="1452" y2="80.00" stroke="#d9d9d9" stroke-dasharray="4 4" stroke-width="1"/>
<text x="12" y="84.00" font-size="12" fill="#555555">0.001190</text>
<line x1="90" y1="210.00" x2="1452" y2="210.00" stroke="#d9d9d9" stroke-dasharray="4 4" stroke-width="1"/>
<text x="12" y="214.00" font-size="12" fill="#555555">0.001113</text>
<line x1="90" y1="340.00" x2="1452" y2="340.00" stroke="#d9d9d9" stroke-dasharray="4 4" stroke-width="1"/>
<text x="12" y="344.00" font-size="12" fill="#555555">0.001035</text>
<line x1="90" y1="470.00" x2="1452" y2="470.00" stroke="#d9d9d9" stroke-dasharray="4 4" stroke-width="1"/>
<text x="12" y="474.00" font-size="12" fill="#555555">0.000958</text>
<line x1="90" y1="600.00" x2="1452" y2="600.00" stroke="#d9d9d9" stroke-dasharray="4 4" stroke-width="1"/>
<text x="12" y="604.00" font-size="12" fill="#555555">0.000880</text>
<line x1="90" y1="730.00" x2="1452" y2="730.00" stroke="#d9d9d9" stroke-dasharray="4 4" stroke-width="1"/>
<text x="12" y="734.00" font-size="12" fill="#555555">0.000803</text>
<rect x="580.32" y="80" width="54.48" height="650.00" fill="#f1c40f" opacity="0.16"/>
<line x1="607.56" y1="80" x2="607.56" y2="730" stroke="#f39c12" stroke-width="2" stroke-dasharray="6 4"/>
<line x1="90" y1="100.62" x2="1452" y2="100.62" stroke="#8e44ad" stroke-width="2" stroke-dasharray="8 4"/>
<text x="1444" y="92.62" font-size="13" fill="#8e44ad" text-anchor="end">10倍价 0.001178</text>
<line x1="117.24" y1="629.56" x2="117.24" y2="689.35" stroke="#e74c3c" stroke-width="2"/>
<rect x="101.99" y="654.42" width="30.51" height="27.88" fill="#e74c3c" stroke="#e74c3c" stroke-width="1"/>
<text x="117.24" y="802" font-size="11" fill="#555555" text-anchor="middle">03-02</text>
<text x="117.24" y="818" font-size="11" fill="#555555" text-anchor="middle">09:00</text>
<line x1="171.72" y1="655.93" x2="171.72" y2="703.80" stroke="#2ecc71" stroke-width="2"/>
<rect x="156.47" y="667.02" width="30.51" height="15.62" fill="#2ecc71" stroke="#2ecc71" stroke-width="1"/>
<text x="171.72" y="802" font-size="11" fill="#555555" text-anchor="middle">03-02</text>
<text x="171.72" y="818" font-size="11" fill="#555555" text-anchor="middle">09:15</text>
<line x1="226.20" y1="663.66" x2="226.20" y2="712.87" stroke="#e74c3c" stroke-width="2"/>
<rect x="210.95" y="666.68" width="30.51" height="42.66" fill="#e74c3c" stroke="#e74c3c" stroke-width="1"/>
<text x="226.20" y="802" font-size="11" fill="#555555" text-anchor="middle">03-02</text>
<text x="226.20" y="818" font-size="11" fill="#555555" text-anchor="middle">09:30</text>
<line x1="280.68" y1="697.42" x2="280.68" y2="730.00" stroke="#2ecc71" stroke-width="2"/>
<rect x="265.43" y="702.62" width="30.51" height="6.38" fill="#2ecc71" stroke="#2ecc71" stroke-width="1"/>
<text x="280.68" y="802" font-size="11" fill="#555555" text-anchor="middle">03-02</text>
<text x="280.68" y="818" font-size="11" fill="#555555" text-anchor="middle">09:45</text>
<line x1="335.16" y1="695.23" x2="335.16" y2="717.91" stroke="#e74c3c" stroke-width="2"/>
<rect x="319.91" y="702.79" width="30.51" height="9.24" fill="#e74c3c" stroke="#e74c3c" stroke-width="1"/>
<text x="335.16" y="802" font-size="11" fill="#555555" text-anchor="middle">03-02</text>
<text x="335.16" y="818" font-size="11" fill="#555555" text-anchor="middle">10:00</text>
<line x1="389.64" y1="699.94" x2="389.64" y2="723.95" stroke="#e74c3c" stroke-width="2"/>
<rect x="374.39" y="710.68" width="30.51" height="6.72" fill="#e74c3c" stroke="#e74c3c" stroke-width="1"/>
<text x="389.64" y="802" font-size="11" fill="#555555" text-anchor="middle">03-02</text>
<text x="389.64" y="818" font-size="11" fill="#555555" text-anchor="middle">10:15</text>
<line x1="444.12" y1="673.06" x2="444.12" y2="717.91" stroke="#2ecc71" stroke-width="2"/>
<rect x="428.87" y="676.25" width="30.51" height="40.98" fill="#2ecc71" stroke="#2ecc71" stroke-width="1"/>
<text x="444.12" y="802" font-size="11" fill="#555555" text-anchor="middle">03-02</text>
<text x="444.12" y="818" font-size="11" fill="#555555" text-anchor="middle">10:30</text>
<line x1="498.60" y1="667.35" x2="498.60" y2="689.52" stroke="#2ecc71" stroke-width="2"/>
<rect x="483.35" y="675.58" width="30.51" height="1.20" fill="#2ecc71" stroke="#2ecc71" stroke-width="1"/>
<text x="498.60" y="802" font-size="11" fill="#555555" text-anchor="middle">03-02</text>
<text x="498.60" y="818" font-size="11" fill="#555555" text-anchor="middle">10:45</text>
<line x1="553.08" y1="420.96" x2="553.08" y2="677.76" stroke="#2ecc71" stroke-width="2"/>
<rect x="537.83" y="461.77" width="30.51" height="213.98" fill="#2ecc71" stroke="#2ecc71" stroke-width="1"/>
<text x="553.08" y="802" font-size="11" fill="#555555" text-anchor="middle">03-02</text>
<text x="553.08" y="818" font-size="11" fill="#555555" text-anchor="middle">11:00</text>
<line x1="607.56" y1="80.00" x2="607.56" y2="489.32" stroke="#2ecc71" stroke-width="2"/>
<rect x="592.31" y="236.71" width="30.51" height="225.40" fill="#2ecc71" stroke="#2ecc71" stroke-width="1"/>
<text x="607.56" y="802" font-size="11" fill="#555555" text-anchor="middle">03-02</text>
<text x="607.56" y="818" font-size="11" fill="#555555" text-anchor="middle">11:15</text>
<line x1="662.04" y1="172.38" x2="662.04" y2="330.43" stroke="#e74c3c" stroke-width="2"/>
<rect x="646.79" y="237.21" width="30.51" height="74.24" fill="#e74c3c" stroke="#e74c3c" stroke-width="1"/>
<text x="662.04" y="802" font-size="11" fill="#555555" text-anchor="middle">03-02</text>
<text x="662.04" y="818" font-size="11" fill="#555555" text-anchor="middle">11:30</text>
<line x1="716.52" y1="292.97" x2="716.52" y2="417.43" stroke="#e74c3c" stroke-width="2"/>
<rect x="701.27" y="313.29" width="30.51" height="55.59" fill="#e74c3c" stroke="#e74c3c" stroke-width="1"/>
<text x="716.52" y="802" font-size="11" fill="#555555" text-anchor="middle">03-02</text>
<text x="716.52" y="818" font-size="11" fill="#555555" text-anchor="middle">11:45</text>
<line x1="771.00" y1="331.94" x2="771.00" y2="423.48" stroke="#2ecc71" stroke-width="2"/>
<rect x="755.75" y="334.63" width="30.51" height="34.43" fill="#2ecc71" stroke="#2ecc71" stroke-width="1"/>
<text x="771.00" y="802" font-size="11" fill="#555555" text-anchor="middle">03-02</text>
<text x="771.00" y="818" font-size="11" fill="#555555" text-anchor="middle">12:00</text>
<line x1="825.48" y1="325.05" x2="825.48" y2="373.93" stroke="#2ecc71" stroke-width="2"/>
<rect x="810.23" y="329.08" width="30.51" height="2.86" fill="#2ecc71" stroke="#2ecc71" stroke-width="1"/>
<text x="825.48" y="802" font-size="11" fill="#555555" text-anchor="middle">03-02</text>
<text x="825.48" y="818" font-size="11" fill="#555555" text-anchor="middle">12:15</text>
<line x1="879.96" y1="301.20" x2="879.96" y2="361.83" stroke="#e74c3c" stroke-width="2"/>
<rect x="864.71" y="328.58" width="30.51" height="7.22" fill="#e74c3c" stroke="#e74c3c" stroke-width="1"/>
<text x="879.96" y="802" font-size="11" fill="#555555" text-anchor="middle">03-02</text>
<text x="879.96" y="818" font-size="11" fill="#555555" text-anchor="middle">12:30</text>
<line x1="934.44" y1="310.27" x2="934.44" y2="365.87" stroke="#e74c3c" stroke-width="2"/>
<rect x="919.19" y="336.81" width="30.51" height="18.48" fill="#e74c3c" stroke="#e74c3c" stroke-width="1"/>
<text x="934.44" y="802" font-size="11" fill="#555555" text-anchor="middle">03-02</text>
<text x="934.44" y="818" font-size="11" fill="#555555" text-anchor="middle">12:45</text>
<line x1="988.92" y1="352.26" x2="988.92" y2="428.85" stroke="#e74c3c" stroke-width="2"/>
<rect x="973.67" y="354.95" width="30.51" height="28.39" fill="#e74c3c" stroke="#e74c3c" stroke-width="1"/>
<text x="988.92" y="802" font-size="11" fill="#555555" text-anchor="middle">03-02</text>
<text x="988.92" y="818" font-size="11" fill="#555555" text-anchor="middle">13:00</text>
<line x1="1043.40" y1="350.75" x2="1043.40" y2="411.72" stroke="#2ecc71" stroke-width="2"/>
<rect x="1028.15" y="358.14" width="30.51" height="26.37" fill="#2ecc71" stroke="#2ecc71" stroke-width="1"/>
<text x="1043.40" y="802" font-size="11" fill="#555555" text-anchor="middle">03-02</text>
<text x="1043.40" y="818" font-size="11" fill="#555555" text-anchor="middle">13:15</text>
<line x1="1097.88" y1="354.28" x2="1097.88" y2="411.21" stroke="#e74c3c" stroke-width="2"/>
<rect x="1082.63" y="358.81" width="30.51" height="36.45" fill="#e74c3c" stroke="#e74c3c" stroke-width="1"/>
<text x="1097.88" y="802" font-size="11" fill="#555555" text-anchor="middle">03-02</text>
<text x="1097.88" y="818" font-size="11" fill="#555555" text-anchor="middle">13:30</text>
<line x1="1152.36" y1="376.95" x2="1152.36" y2="422.30" stroke="#e74c3c" stroke-width="2"/>
<rect x="1137.11" y="394.75" width="30.51" height="17.80" fill="#e74c3c" stroke="#e74c3c" stroke-width="1"/>
<text x="1152.36" y="802" font-size="11" fill="#555555" text-anchor="middle">03-02</text>
<text x="1152.36" y="818" font-size="11" fill="#555555" text-anchor="middle">13:45</text>
<line x1="1206.84" y1="370.74" x2="1206.84" y2="445.48" stroke="#2ecc71" stroke-width="2"/>
<rect x="1191.59" y="380.31" width="30.51" height="31.24" fill="#2ecc71" stroke="#2ecc71" stroke-width="1"/>
<text x="1206.84" y="802" font-size="11" fill="#555555" text-anchor="middle">03-02</text>
<text x="1206.84" y="818" font-size="11" fill="#555555" text-anchor="middle">14:00</text>
<line x1="1261.32" y1="366.71" x2="1261.32" y2="414.91" stroke="#e74c3c" stroke-width="2"/>
<rect x="1246.07" y="380.14" width="30.51" height="19.99" fill="#e74c3c" stroke="#e74c3c" stroke-width="1"/>
<text x="1261.32" y="802" font-size="11" fill="#555555" text-anchor="middle">03-02</text>
<text x="1261.32" y="818" font-size="11" fill="#555555" text-anchor="middle">14:15</text>
<line x1="1315.80" y1="374.94" x2="1315.80" y2="419.44" stroke="#2ecc71" stroke-width="2"/>
<rect x="1300.55" y="389.04" width="30.51" height="12.43" fill="#2ecc71" stroke="#2ecc71" stroke-width="1"/>
<text x="1315.80" y="802" font-size="11" fill="#555555" text-anchor="middle">03-02</text>
<text x="1315.80" y="818" font-size="11" fill="#555555" text-anchor="middle">14:30</text>
<line x1="1370.28" y1="354.78" x2="1370.28" y2="413.73" stroke="#2ecc71" stroke-width="2"/>
<rect x="1355.03" y="362.84" width="30.51" height="26.20" fill="#2ecc71" stroke="#2ecc71" stroke-width="1"/>
<text x="1370.28" y="802" font-size="11" fill="#555555" text-anchor="middle">03-02</text>
<text x="1370.28" y="818" font-size="11" fill="#555555" text-anchor="middle">14:45</text>
<line x1="1424.76" y1="363.01" x2="1424.76" y2="415.92" stroke="#e74c3c" stroke-width="2"/>
<rect x="1409.51" y="363.18" width="30.51" height="27.55" fill="#e74c3c" stroke="#e74c3c" stroke-width="1"/>
<text x="1424.76" y="802" font-size="11" fill="#555555" text-anchor="middle">03-02</text>
<text x="1424.76" y="818" font-size="11" fill="#555555" text-anchor="middle">15:00</text>
<line x1="607.56" y1="80.00" x2="677.56" y2="104.00" stroke="#f39c12" stroke-width="2"/>
<rect x="677.56" y="52.00" width="280" height="90" rx="10" fill="#fff8dc" stroke="#f39c12"/>
<text x="689.56" y="76.00" font-size="13" fill="#111111">15m定位时间 2024-03-02 11:15:00</text>
<text x="689.56" y="96.00" font-size="13" fill="#111111">该15m最高价 0.001190</text>
<text x="689.56" y="116.00" font-size="13" fill="#111111">10倍价横线已标出</text>
<text x="689.56" y="136.00" font-size="13" fill="#111111">竖线高亮首次触达10倍价的15m</text>
</svg>