<svg xmlns="http://www.w3.org/2000/svg" width="1500" height="860" viewBox="0 0 1500 860">
<rect width="100%" height="100%" fill="#fcfcfc"/>
<text x="90" y="38" font-size="28" font-weight="700" fill="#111111">UMA-USDT-SWAP 15m - 10倍命中定位图</text>
<text x="90" y="68" font-size="16" fill="#555555">1H命中时间: 2025-03-22 22:00:00 | 10倍价: 1.551263 | 命中倍数: 14.8108x</text>
<line x1="90" y1="80.00" x2="1452" y2="80.00" stroke="#d9d9d9" stroke-dasharray="4 4" stroke-width="1"/>
<text x="12" y="84.00" font-size="12" fill="#555555">1.664000</text>
<line x1="90" y1="210.00" x2="1452" y2="210.00" stroke="#d9d9d9" stroke-dasharray="4 4" stroke-width="1"/>
<text x="12" y="214.00" font-size="12" fill="#555555">1.593400</text>
<line x1="90" y1="340.00" x2="1452" y2="340.00" stroke="#d9d9d9" stroke-dasharray="4 4" stroke-width="1"/>
<text x="12" y="344.00" font-size="12" fill="#555555">1.522800</text>
<line x1="90" y1="470.00" x2="1452" y2="470.00" stroke="#d9d9d9" stroke-dasharray="4 4" stroke-width="1"/>
<text x="12" y="474.00" font-size="12" fill="#555555">1.452200</text>
<line x1="90" y1="600.00" x2="1452" y2="600.00" stroke="#d9d9d9" stroke-dasharray="4 4" stroke-width="1"/>
<text x="12" y="604.00" font-size="12" fill="#555555">1.381600</text>
<line x1="90" y1="730.00" x2="1452" y2="730.00" stroke="#d9d9d9" stroke-dasharray="4 4" stroke-width="1"/>
<text x="12" y="734.00" font-size="12" fill="#555555">1.311000</text>
<rect x="634.80" y="80" width="54.48" height="650.00" fill="#f1c40f" opacity="0.16"/>
<line x1="662.04" y1="80" x2="662.04" y2="730" stroke="#f39c12" stroke-width="2" stroke-dasharray="6 4"/>
<line x1="90" y1="287.59" x2="1452" y2="287.59" stroke="#8e44ad" stroke-width="2" stroke-dasharray="8 4"/>
<text x="1444" y="279.59" font-size="13" fill="#8e44ad" text-anchor="end">10倍价 1.551263</text>
<line x1="117.24" y1="698.70" x2="117.24" y2="730.00" stroke="#2ecc71" stroke-width="2"/>
<rect x="101.99" y="704.22" width="30.51" height="18.41" fill="#2ecc71" stroke="#2ecc71" stroke-width="1"/>
<text x="117.24" y="802" font-size="11" fill="#555555" text-anchor="middle">03-22</text>
<text x="117.24" y="818" font-size="11" fill="#555555" text-anchor="middle">20:00</text>
<line x1="171.72" y1="669.24" x2="171.72" y2="704.22" stroke="#2ecc71" stroke-width="2"/>
<rect x="156.47" y="683.97" width="30.51" height="20.25" fill="#2ecc71" stroke="#2ecc71" stroke-width="1"/>
<text x="171.72" y="802" font-size="11" fill="#555555" text-anchor="middle">03-22</text>
<text x="171.72" y="818" font-size="11" fill="#555555" text-anchor="middle">20:15</text>
<line x1="226.20" y1="667.39" x2="226.20" y2="709.75" stroke="#e74c3c" stroke-width="2"/>
<rect x="210.95" y="685.81" width="30.51" height="23.94" fill="#e74c3c" stroke="#e74c3c" stroke-width="1"/>
<text x="226.20" y="802" font-size="11" fill="#555555" text-anchor="middle">03-22</text>
<text x="226.20" y="818" font-size="11" fill="#555555" text-anchor="middle">20:30</text>
<line x1="280.68" y1="687.65" x2="280.68" y2="717.11" stroke="#e74c3c" stroke-width="2"/>
<rect x="265.43" y="707.90" width="30.51" height="1.84" fill="#e74c3c" stroke="#e74c3c" stroke-width="1"/>
<text x="280.68" y="802" font-size="11" fill="#555555" text-anchor="middle">03-22</text>
<text x="280.68" y="818" font-size="11" fill="#555555" text-anchor="middle">20:45</text>
<line x1="335.16" y1="689.49" x2="335.16" y2="715.27" stroke="#2ecc71" stroke-width="2"/>
<rect x="319.91" y="702.38" width="30.51" height="9.21" fill="#2ecc71" stroke="#2ecc71" stroke-width="1"/>
<text x="335.16" y="802" font-size="11" fill="#555555" text-anchor="middle">03-22</text>
<text x="335.16" y="818" font-size="11" fill="#555555" text-anchor="middle">21:00</text>
<line x1="389.64" y1="672.92" x2="389.64" y2="700.54" stroke="#2ecc71" stroke-width="2"/>
<rect x="374.39" y="676.60" width="30.51" height="23.94" fill="#2ecc71" stroke="#2ecc71" stroke-width="1"/>
<text x="389.64" y="802" font-size="11" fill="#555555" text-anchor="middle">03-22</text>
<text x="389.64" y="818" font-size="11" fill="#555555" text-anchor="middle">21:15</text>
<line x1="444.12" y1="672.92" x2="444.12" y2="702.38" stroke="#e74c3c" stroke-width="2"/>
<rect x="428.87" y="674.76" width="30.51" height="25.78" fill="#e74c3c" stroke="#e74c3c" stroke-width="1"/>
<text x="444.12" y="802" font-size="11" fill="#555555" text-anchor="middle">03-22</text>
<text x="444.12" y="818" font-size="11" fill="#555555" text-anchor="middle">21:30</text>
<line x1="498.60" y1="676.60" x2="498.60" y2="700.54" stroke="#2ecc71" stroke-width="2"/>
<rect x="483.35" y="685.81" width="30.51" height="12.89" fill="#2ecc71" stroke="#2ecc71" stroke-width="1"/>
<text x="498.60" y="802" font-size="11" fill="#555555" text-anchor="middle">03-22</text>
<text x="498.60" y="818" font-size="11" fill="#555555" text-anchor="middle">21:45</text>
<line x1="553.08" y1="674.76" x2="553.08" y2="715.27" stroke="#2ecc71" stroke-width="2"/>
<rect x="537.83" y="678.44" width="30.51" height="9.21" fill="#2ecc71" stroke="#2ecc71" stroke-width="1"/>
<text x="553.08" y="802" font-size="11" fill="#555555" text-anchor="middle">03-22</text>
<text x="553.08" y="818" font-size="11" fill="#555555" text-anchor="middle">22:00</text>
<line x1="607.56" y1="584.53" x2="607.56" y2="680.28" stroke="#2ecc71" stroke-width="2"/>
<rect x="592.31" y="613.99" width="30.51" height="66.29" fill="#2ecc71" stroke="#2ecc71" stroke-width="1"/>
<text x="607.56" y="802" font-size="11" fill="#555555" text-anchor="middle">03-22</text>
<text x="607.56" y="818" font-size="11" fill="#555555" text-anchor="middle">22:15</text>
<line x1="662.04" y1="264.14" x2="662.04" y2="641.61" stroke="#2ecc71" stroke-width="2"/>
<rect x="646.79" y="313.85" width="30.51" height="301.98" fill="#2ecc71" stroke="#2ecc71" stroke-width="1"/>
<text x="662.04" y="802" font-size="11" fill="#555555" text-anchor="middle">03-22</text>
<text x="662.04" y="818" font-size="11" fill="#555555" text-anchor="middle">22:30</text>
<line x1="716.52" y1="81.84" x2="716.52" y2="352.52" stroke="#2ecc71" stroke-width="2"/>
<rect x="701.27" y="219.94" width="30.51" height="93.91" fill="#2ecc71" stroke="#2ecc71" stroke-width="1"/>
<text x="716.52" y="802" font-size="11" fill="#555555" text-anchor="middle">03-22</text>
<text x="716.52" y="818" font-size="11" fill="#555555" text-anchor="middle">22:45</text>
<line x1="771.00" y1="166.54" x2="771.00" y2="358.05" stroke="#e74c3c" stroke-width="2"/>
<rect x="755.75" y="218.10" width="30.51" height="84.70" fill="#e74c3c" stroke="#e74c3c" stroke-width="1"/>
<text x="771.00" y="802" font-size="11" fill="#555555" text-anchor="middle">03-22</text>
<text x="771.00" y="818" font-size="11" fill="#555555" text-anchor="middle">23:00</text>
<line x1="825.48" y1="238.36" x2="825.48" y2="380.14" stroke="#e74c3c" stroke-width="2"/>
<rect x="810.23" y="300.96" width="30.51" height="27.62" fill="#e74c3c" stroke="#e74c3c" stroke-width="1"/>
<text x="825.48" y="802" font-size="11" fill="#555555" text-anchor="middle">03-22</text>
<text x="825.48" y="818" font-size="11" fill="#555555" text-anchor="middle">23:15</text>
<line x1="879.96" y1="201.53" x2="879.96" y2="339.63" stroke="#2ecc71" stroke-width="2"/>
<rect x="864.71" y="253.09" width="30.51" height="79.18" fill="#2ecc71" stroke="#2ecc71" stroke-width="1"/>
<text x="879.96" y="802" font-size="11" fill="#555555" text-anchor="middle">03-22</text>
<text x="879.96" y="818" font-size="11" fill="#555555" text-anchor="middle">23:30</text>
<line x1="934.44" y1="225.47" x2="934.44" y2="328.58" stroke="#e74c3c" stroke-width="2"/>
<rect x="919.19" y="251.25" width="30.51" height="14.73" fill="#e74c3c" stroke="#e74c3c" stroke-width="1"/>
<text x="934.44" y="802" font-size="11" fill="#555555" text-anchor="middle">03-22</text>
<text x="934.44" y="818" font-size="11" fill="#555555" text-anchor="middle">23:45</text>
<line x1="988.92" y1="229.15" x2="988.92" y2="321.22" stroke="#2ecc71" stroke-width="2"/>
<rect x="973.67" y="249.41" width="30.51" height="18.41" fill="#2ecc71" stroke="#2ecc71" stroke-width="1"/>
<text x="988.92" y="802" font-size="11" fill="#555555" text-anchor="middle">03-23</text>
<text x="988.92" y="818" font-size="11" fill="#555555" text-anchor="middle">00:00</text>
<line x1="1043.40" y1="137.08" x2="1043.40" y2="300.96" stroke="#2ecc71" stroke-width="2"/>
<rect x="1028.15" y="245.72" width="30.51" height="5.52" fill="#2ecc71" stroke="#2ecc71" stroke-width="1"/>
<text x="1043.40" y="802" font-size="11" fill="#555555" text-anchor="middle">03-23</text>
<text x="1043.40" y="818" font-size="11" fill="#555555" text-anchor="middle">00:15</text>
<line x1="1097.88" y1="103.94" x2="1097.88" y2="273.34" stroke="#2ecc71" stroke-width="2"/>
<rect x="1082.63" y="138.92" width="30.51" height="106.80" fill="#2ecc71" stroke="#2ecc71" stroke-width="1"/>
<text x="1097.88" y="802" font-size="11" fill="#555555" text-anchor="middle">03-23</text>
<text x="1097.88" y="818" font-size="11" fill="#555555" text-anchor="middle">00:30</text>
<line x1="1152.36" y1="80.00" x2="1152.36" y2="236.52" stroke="#e74c3c" stroke-width="2"/>
<rect x="1137.11" y="138.92" width="30.51" height="47.88" fill="#e74c3c" stroke="#e74c3c" stroke-width="1"/>
<text x="1152.36" y="802" font-size="11" fill="#555555" text-anchor="middle">03-23</text>
<text x="1152.36" y="818" font-size="11" fill="#555555" text-anchor="middle">00:45</text>
<line x1="1206.84" y1="155.50" x2="1206.84" y2="242.04" stroke="#e74c3c" stroke-width="2"/>
<rect x="1191.59" y="186.80" width="30.51" height="38.67" fill="#e74c3c" stroke="#e74c3c" stroke-width="1"/>
<text x="1206.84" y="802" font-size="11" fill="#555555" text-anchor="middle">03-23</text>
<text x="1206.84" y="818" font-size="11" fill="#555555" text-anchor="middle">01:00</text>
<line x1="1261.32" y1="153.65" x2="1261.32" y2="232.83" stroke="#2ecc71" stroke-width="2"/>
<rect x="1246.07" y="199.69" width="30.51" height="25.78" fill="#2ecc71" stroke="#2ecc71" stroke-width="1"/>
<text x="1261.32" y="802" font-size="11" fill="#555555" text-anchor="middle">03-23</text>
<text x="1261.32" y="818" font-size="11" fill="#555555" text-anchor="middle">01:15</text>
<line x1="1315.80" y1="146.29" x2="1315.80" y2="284.39" stroke="#e74c3c" stroke-width="2"/>
<rect x="1300.55" y="199.69" width="30.51" height="75.50" fill="#e74c3c" stroke="#e74c3c" stroke-width="1"/>
<text x="1315.80" y="802" font-size="11" fill="#555555" text-anchor="middle">03-23</text>
<text x="1315.80" y="818" font-size="11" fill="#555555" text-anchor="middle">01:30</text>
<line x1="1370.28" y1="264.14" x2="1370.28" y2="317.54" stroke="#2ecc71" stroke-width="2"/>
<rect x="1355.03" y="271.50" width="30.51" height="1.84" fill="#2ecc71" stroke="#2ecc71" stroke-width="1"/>
<text x="1370.28" y="802" font-size="11" fill="#555555" text-anchor="middle">03-23</text>
<text x="1370.28" y="818" font-size="11" fill="#555555" text-anchor="middle">01:45</text>
<line x1="1424.76" y1="245.72" x2="1424.76" y2="297.28" stroke="#2ecc71" stroke-width="2"/>
<rect x="1409.51" y="271.50" width="30.51" height="1.84" fill="#2ecc71" stroke="#2ecc71" stroke-width="1"/>
<text x="1424.76" y="802" font-size="11" fill="#555555" text-anchor="middle">03-23</text>
<text x="1424.76" y="818" font-size="11" fill="#555555" text-anchor="middle">02:00</text>
<line x1="662.04" y1="264.14" x2="732.04" y2="174.14" stroke="#f39c12" stroke-width="2"/>
<rect x="732.04" y="122.14" width="280" height="90" rx="10" fill="#fff8dc" stroke="#f39c12"/>
<text x="744.04" y="146.14" font-size="13" fill="#111111">15m定位时间 2025-03-22 22:30:00</text>
<text x="744.04" y="166.14" font-size="13" fill="#111111">该15m最高价 1.564000</text>
<text x="744.04" y="186.14" font-size="13" fill="#111111">10倍价横线已标出</text>
<text x="744.04" y="206.14" font-size="13" fill="#111111">竖线高亮首次触达10倍价的15m</text>
</svg>