<svg xmlns="http://www.w3.org/2000/svg" width="1500" height="860" viewBox="0 0 1500 860">
<rect width="100%" height="100%" fill="#fcfcfc"/>
<text x="90" y="38" font-size="28" font-weight="700" fill="#111111">UMA-USDT-SWAP 15m - 10倍命中定位图</text>
<text x="90" y="68" font-size="16" fill="#555555">1H命中时间: 2025-11-09 16:00:00 | 10倍价: 1.190425 | 命中倍数: 14.3267x</text>
<line x1="90" y1="80.00" x2="1452" y2="80.00" stroke="#d9d9d9" stroke-dasharray="4 4" stroke-width="1"/>
<text x="12" y="84.00" font-size="12" fill="#555555">1.263600</text>
<line x1="90" y1="210.00" x2="1452" y2="210.00" stroke="#d9d9d9" stroke-dasharray="4 4" stroke-width="1"/>
<text x="12" y="214.00" font-size="12" fill="#555555">1.212500</text>
<line x1="90" y1="340.00" x2="1452" y2="340.00" stroke="#d9d9d9" stroke-dasharray="4 4" stroke-width="1"/>
<text x="12" y="344.00" font-size="12" fill="#555555">1.161400</text>
<line x1="90" y1="470.00" x2="1452" y2="470.00" stroke="#d9d9d9" stroke-dasharray="4 4" stroke-width="1"/>
<text x="12" y="474.00" font-size="12" fill="#555555">1.110300</text>
<line x1="90" y1="600.00" x2="1452" y2="600.00" stroke="#d9d9d9" stroke-dasharray="4 4" stroke-width="1"/>
<text x="12" y="604.00" font-size="12" fill="#555555">1.059200</text>
<line x1="90" y1="730.00" x2="1452" y2="730.00" stroke="#d9d9d9" stroke-dasharray="4 4" stroke-width="1"/>
<text x="12" y="734.00" font-size="12" fill="#555555">1.008100</text>
<rect x="634.80" y="80" width="54.48" height="650.00" fill="#f1c40f" opacity="0.16"/>
<line x1="662.04" y1="80" x2="662.04" y2="730" stroke="#f39c12" stroke-width="2" stroke-dasharray="6 4"/>
<line x1="90" y1="266.16" x2="1452" y2="266.16" stroke="#8e44ad" stroke-width="2" stroke-dasharray="8 4"/>
<text x="1444" y="258.16" font-size="13" fill="#8e44ad" text-anchor="end">10倍价 1.190425</text>
<line x1="117.24" y1="703.29" x2="117.24" y2="720.59" stroke="#2ecc71" stroke-width="2"/>
<rect x="101.99" y="703.54" width="30.51" height="11.96" fill="#2ecc71" stroke="#2ecc71" stroke-width="1"/>
<text x="117.24" y="802" font-size="11" fill="#555555" text-anchor="middle">11-09</text>
<text x="117.24" y="818" font-size="11" fill="#555555" text-anchor="middle">14:00</text>
<line x1="171.72" y1="689.04" x2="171.72" y2="709.14" stroke="#2ecc71" stroke-width="2"/>
<rect x="156.47" y="693.62" width="30.51" height="9.92" fill="#2ecc71" stroke="#2ecc71" stroke-width="1"/>
<text x="171.72" y="802" font-size="11" fill="#555555" text-anchor="middle">11-09</text>
<text x="171.72" y="818" font-size="11" fill="#555555" text-anchor="middle">14:15</text>
<line x1="226.20" y1="695.15" x2="226.20" y2="707.36" stroke="#e74c3c" stroke-width="2"/>
<rect x="210.95" y="695.15" width="30.51" height="11.45" fill="#e74c3c" stroke="#e74c3c" stroke-width="1"/>
<text x="226.20" y="802" font-size="11" fill="#555555" text-anchor="middle">11-09</text>
<text x="226.20" y="818" font-size="11" fill="#555555" text-anchor="middle">14:30</text>
<line x1="280.68" y1="704.81" x2="280.68" y2="721.60" stroke="#e74c3c" stroke-width="2"/>
<rect x="265.43" y="705.32" width="30.51" height="9.16" fill="#e74c3c" stroke="#e74c3c" stroke-width="1"/>
<text x="280.68" y="802" font-size="11" fill="#555555" text-anchor="middle">11-09</text>
<text x="280.68" y="818" font-size="11" fill="#555555" text-anchor="middle">14:45</text>
<line x1="335.16" y1="701.76" x2="335.16" y2="718.04" stroke="#2ecc71" stroke-width="2"/>
<rect x="319.91" y="702.27" width="30.51" height="12.72" fill="#2ecc71" stroke="#2ecc71" stroke-width="1"/>
<text x="335.16" y="802" font-size="11" fill="#555555" text-anchor="middle">11-09</text>
<text x="335.16" y="818" font-size="11" fill="#555555" text-anchor="middle">15:00</text>
<line x1="389.64" y1="691.08" x2="389.64" y2="709.14" stroke="#2ecc71" stroke-width="2"/>
<rect x="374.39" y="694.38" width="30.51" height="7.89" fill="#2ecc71" stroke="#2ecc71" stroke-width="1"/>
<text x="389.64" y="802" font-size="11" fill="#555555" text-anchor="middle">11-09</text>
<text x="389.64" y="818" font-size="11" fill="#555555" text-anchor="middle">15:15</text>
<line x1="444.12" y1="680.65" x2="444.12" y2="694.38" stroke="#2ecc71" stroke-width="2"/>
<rect x="428.87" y="686.75" width="30.51" height="5.34" fill="#2ecc71" stroke="#2ecc71" stroke-width="1"/>
<text x="444.12" y="802" font-size="11" fill="#555555" text-anchor="middle">11-09</text>
<text x="444.12" y="818" font-size="11" fill="#555555" text-anchor="middle">15:30</text>
<line x1="498.60" y1="675.56" x2="498.60" y2="687.26" stroke="#2ecc71" stroke-width="2"/>
<rect x="483.35" y="681.92" width="30.51" height="3.05" fill="#2ecc71" stroke="#2ecc71" stroke-width="1"/>
<text x="498.60" y="802" font-size="11" fill="#555555" text-anchor="middle">11-09</text>
<text x="498.60" y="818" font-size="11" fill="#555555" text-anchor="middle">15:45</text>
<line x1="553.08" y1="681.92" x2="553.08" y2="695.66" stroke="#e74c3c" stroke-width="2"/>
<rect x="537.83" y="682.17" width="30.51" height="4.32" fill="#e74c3c" stroke="#e74c3c" stroke-width="1"/>
<text x="553.08" y="802" font-size="11" fill="#555555" text-anchor="middle">11-09</text>
<text x="553.08" y="818" font-size="11" fill="#555555" text-anchor="middle">16:00</text>
<line x1="607.56" y1="684.46" x2="607.56" y2="696.42" stroke="#2ecc71" stroke-width="2"/>
<rect x="592.31" y="685.48" width="30.51" height="1.27" fill="#2ecc71" stroke="#2ecc71" stroke-width="1"/>
<text x="607.56" y="802" font-size="11" fill="#555555" text-anchor="middle">11-09</text>
<text x="607.56" y="818" font-size="11" fill="#555555" text-anchor="middle">16:15</text>
<line x1="662.04" y1="80.00" x2="662.04" y2="686.24" stroke="#2ecc71" stroke-width="2"/>
<rect x="646.79" y="243.33" width="30.51" height="441.14" fill="#2ecc71" stroke="#2ecc71" stroke-width="1"/>
<text x="662.04" y="802" font-size="11" fill="#555555" text-anchor="middle">11-09</text>
<text x="662.04" y="818" font-size="11" fill="#555555" text-anchor="middle">16:30</text>
<line x1="716.52" y1="241.04" x2="716.52" y2="458.04" stroke="#e74c3c" stroke-width="2"/>
<rect x="701.27" y="241.04" width="30.51" height="205.81" fill="#e74c3c" stroke="#e74c3c" stroke-width="1"/>
<text x="716.52" y="802" font-size="11" fill="#555555" text-anchor="middle">11-09</text>
<text x="716.52" y="818" font-size="11" fill="#555555" text-anchor="middle">16:45</text>
<line x1="771.00" y1="85.09" x2="771.00" y2="646.81" stroke="#e74c3c" stroke-width="2"/>
<rect x="755.75" y="447.61" width="30.51" height="135.09" fill="#e74c3c" stroke="#e74c3c" stroke-width="1"/>
<text x="771.00" y="802" font-size="11" fill="#555555" text-anchor="middle">11-09</text>
<text x="771.00" y="818" font-size="11" fill="#555555" text-anchor="middle">17:00</text>
<line x1="825.48" y1="563.62" x2="825.48" y2="630.02" stroke="#e74c3c" stroke-width="2"/>
<rect x="810.23" y="584.23" width="30.51" height="24.93" fill="#e74c3c" stroke="#e74c3c" stroke-width="1"/>
<text x="825.48" y="802" font-size="11" fill="#555555" text-anchor="middle">11-09</text>
<text x="825.48" y="818" font-size="11" fill="#555555" text-anchor="middle">17:15</text>
<line x1="879.96" y1="591.60" x2="879.96" y2="648.08" stroke="#e74c3c" stroke-width="2"/>
<rect x="864.71" y="609.16" width="30.51" height="32.31" fill="#e74c3c" stroke="#e74c3c" stroke-width="1"/>
<text x="879.96" y="802" font-size="11" fill="#555555" text-anchor="middle">11-09</text>
<text x="879.96" y="818" font-size="11" fill="#555555" text-anchor="middle">17:30</text>
<line x1="934.44" y1="639.43" x2="934.44" y2="668.94" stroke="#e74c3c" stroke-width="2"/>
<rect x="919.19" y="641.98" width="30.51" height="23.15" fill="#e74c3c" stroke="#e74c3c" stroke-width="1"/>
<text x="934.44" y="802" font-size="11" fill="#555555" text-anchor="middle">11-09</text>
<text x="934.44" y="818" font-size="11" fill="#555555" text-anchor="middle">17:45</text>
<line x1="988.92" y1="663.09" x2="988.92" y2="721.10" stroke="#e74c3c" stroke-width="2"/>
<rect x="973.67" y="665.38" width="30.51" height="41.98" fill="#e74c3c" stroke="#e74c3c" stroke-width="1"/>
<text x="988.92" y="802" font-size="11" fill="#555555" text-anchor="middle">11-09</text>
<text x="988.92" y="818" font-size="11" fill="#555555" text-anchor="middle">18:00</text>
<line x1="1043.40" y1="676.58" x2="1043.40" y2="730.00" stroke="#2ecc71" stroke-width="2"/>
<rect x="1028.15" y="685.48" width="30.51" height="21.37" fill="#2ecc71" stroke="#2ecc71" stroke-width="1"/>
<text x="1043.40" y="802" font-size="11" fill="#555555" text-anchor="middle">11-09</text>
<text x="1043.40" y="818" font-size="11" fill="#555555" text-anchor="middle">18:15</text>
<line x1="1097.88" y1="682.43" x2="1097.88" y2="707.36" stroke="#e74c3c" stroke-width="2"/>
<rect x="1082.63" y="686.75" width="30.51" height="14.50" fill="#e74c3c" stroke="#e74c3c" stroke-width="1"/>
<text x="1097.88" y="802" font-size="11" fill="#555555" text-anchor="middle">11-09</text>
<text x="1097.88" y="818" font-size="11" fill="#555555" text-anchor="middle">18:30</text>
<line x1="1152.36" y1="680.65" x2="1152.36" y2="710.67" stroke="#e74c3c" stroke-width="2"/>
<rect x="1137.11" y="699.73" width="30.51" height="1.53" fill="#e74c3c" stroke="#e74c3c" stroke-width="1"/>
<text x="1152.36" y="802" font-size="11" fill="#555555" text-anchor="middle">11-09</text>
<text x="1152.36" y="818" font-size="11" fill="#555555" text-anchor="middle">18:45</text>
<line x1="1206.84" y1="636.63" x2="1206.84" y2="701.51" stroke="#2ecc71" stroke-width="2"/>
<rect x="1191.59" y="641.21" width="30.51" height="60.29" fill="#2ecc71" stroke="#2ecc71" stroke-width="1"/>
<text x="1206.84" y="802" font-size="11" fill="#555555" text-anchor="middle">11-09</text>
<text x="1206.84" y="818" font-size="11" fill="#555555" text-anchor="middle">19:00</text>
<line x1="1261.32" y1="637.65" x2="1261.32" y2="650.63" stroke="#e74c3c" stroke-width="2"/>
<rect x="1246.07" y="641.21" width="30.51" height="1.20" fill="#e74c3c" stroke="#e74c3c" stroke-width="1"/>
<text x="1261.32" y="802" font-size="11" fill="#555555" text-anchor="middle">11-09</text>
<text x="1261.32" y="818" font-size="11" fill="#555555" text-anchor="middle">19:15</text>
<line x1="1315.80" y1="638.67" x2="1315.80" y2="687.01" stroke="#e74c3c" stroke-width="2"/>
<rect x="1300.55" y="641.21" width="30.51" height="26.97" fill="#e74c3c" stroke="#e74c3c" stroke-width="1"/>
<text x="1315.80" y="802" font-size="11" fill="#555555" text-anchor="middle">11-09</text>
<text x="1315.80" y="818" font-size="11" fill="#555555" text-anchor="middle">19:30</text>
<line x1="1370.28" y1="652.41" x2="1370.28" y2="684.46" stroke="#e74c3c" stroke-width="2"/>
<rect x="1355.03" y="667.67" width="30.51" height="10.18" fill="#e74c3c" stroke="#e74c3c" stroke-width="1"/>
<text x="1370.28" y="802" font-size="11" fill="#555555" text-anchor="middle">11-09</text>
<text x="1370.28" y="818" font-size="11" fill="#555555" text-anchor="middle">19:45</text>
<line x1="1424.76" y1="675.81" x2="1424.76" y2="692.60" stroke="#2ecc71" stroke-width="2"/>
<rect x="1409.51" y="678.10" width="30.51" height="1.20" fill="#2ecc71" stroke="#2ecc71" stroke-width="1"/>
<text x="1424.76" y="802" font-size="11" fill="#555555" text-anchor="middle">11-09</text>
<text x="1424.76" y="818" font-size="11" fill="#555555" text-anchor="middle">20:00</text>
<line x1="662.04" y1="80.00" x2="732.04" y2="104.00" stroke="#f39c12" stroke-width="2"/>
<rect x="732.04" y="52.00" width="280" height="90" rx="10" fill="#fff8dc" stroke="#f39c12"/>
<text x="744.04" y="76.00" font-size="13" fill="#111111">15m定位时间 2025-11-09 16:30:00</text>
<text x="744.04" y="96.00" font-size="13" fill="#111111">该15m最高价 1.263600</text>
<text x="744.04" y="116.00" font-size="13" fill="#111111">10倍价横线已标出</text>
<text x="744.04" y="136.00" font-size="13" fill="#111111">竖线高亮首次触达10倍价的15m</text>
</svg>