<svg xmlns="http://www.w3.org/2000/svg" width="1500" height="860" viewBox="0 0 1500 860">
<rect width="100%" height="100%" fill="#fcfcfc"/>
<text x="90" y="38" font-size="28" font-weight="700" fill="#111111">UMA-USDT-SWAP 15m - 10倍命中定位图</text>
<text x="90" y="68" font-size="16" fill="#555555">1H命中时间: 2025-06-06 22:00:00 | 10倍价: 1.290965 | 命中倍数: 15.3326x</text>
<line x1="90" y1="80.00" x2="1452" y2="80.00" stroke="#d9d9d9" stroke-dasharray="4 4" stroke-width="1"/>
<text x="12" y="84.00" font-size="12" fill="#555555">1.435000</text>
<line x1="90" y1="210.00" x2="1452" y2="210.00" stroke="#d9d9d9" stroke-dasharray="4 4" stroke-width="1"/>
<text x="12" y="214.00" font-size="12" fill="#555555">1.366600</text>
<line x1="90" y1="340.00" x2="1452" y2="340.00" stroke="#d9d9d9" stroke-dasharray="4 4" stroke-width="1"/>
<text x="12" y="344.00" font-size="12" fill="#555555">1.298200</text>
<line x1="90" y1="470.00" x2="1452" y2="470.00" stroke="#d9d9d9" stroke-dasharray="4 4" stroke-width="1"/>
<text x="12" y="474.00" font-size="12" fill="#555555">1.229800</text>
<line x1="90" y1="600.00" x2="1452" y2="600.00" stroke="#d9d9d9" stroke-dasharray="4 4" stroke-width="1"/>
<text x="12" y="604.00" font-size="12" fill="#555555">1.161400</text>
<line x1="90" y1="730.00" x2="1452" y2="730.00" stroke="#d9d9d9" stroke-dasharray="4 4" stroke-width="1"/>
<text x="12" y="734.00" font-size="12" fill="#555555">1.093000</text>
<rect x="689.28" y="80" width="54.48" height="650.00" fill="#f1c40f" opacity="0.16"/>
<line x1="716.52" y1="80" x2="716.52" y2="730" stroke="#f39c12" stroke-width="2" stroke-dasharray="6 4"/>
<line x1="90" y1="353.75" x2="1452" y2="353.75" stroke="#8e44ad" stroke-width="2" stroke-dasharray="8 4"/>
<text x="1444" y="345.75" font-size="13" fill="#8e44ad" text-anchor="end">10倍价 1.290965</text>
<line x1="117.24" y1="722.40" x2="117.24" y2="730.00" stroke="#2ecc71" stroke-width="2"/>
<rect x="101.99" y="728.10" width="30.51" height="1.90" fill="#2ecc71" stroke="#2ecc71" stroke-width="1"/>
<text x="117.24" y="802" font-size="11" fill="#555555" text-anchor="middle">06-06</text>
<text x="117.24" y="818" font-size="11" fill="#555555" text-anchor="middle">20:00</text>
<line x1="171.72" y1="724.30" x2="171.72" y2="730.00" stroke="#2ecc71" stroke-width="2"/>
<rect x="156.47" y="724.30" width="30.51" height="3.80" fill="#2ecc71" stroke="#2ecc71" stroke-width="1"/>
<text x="171.72" y="802" font-size="11" fill="#555555" text-anchor="middle">06-06</text>
<text x="171.72" y="818" font-size="11" fill="#555555" text-anchor="middle">20:15</text>
<line x1="226.20" y1="695.79" x2="226.20" y2="724.30" stroke="#2ecc71" stroke-width="2"/>
<rect x="210.95" y="720.50" width="30.51" height="1.90" fill="#2ecc71" stroke="#2ecc71" stroke-width="1"/>
<text x="226.20" y="802" font-size="11" fill="#555555" text-anchor="middle">06-06</text>
<text x="226.20" y="818" font-size="11" fill="#555555" text-anchor="middle">20:30</text>
<line x1="280.68" y1="710.99" x2="280.68" y2="720.50" stroke="#e74c3c" stroke-width="2"/>
<rect x="265.43" y="718.60" width="30.51" height="1.90" fill="#e74c3c" stroke="#e74c3c" stroke-width="1"/>
<text x="280.68" y="802" font-size="11" fill="#555555" text-anchor="middle">06-06</text>
<text x="280.68" y="818" font-size="11" fill="#555555" text-anchor="middle">20:45</text>
<line x1="335.16" y1="701.49" x2="335.16" y2="718.60" stroke="#2ecc71" stroke-width="2"/>
<rect x="319.91" y="703.39" width="30.51" height="15.20" fill="#2ecc71" stroke="#2ecc71" stroke-width="1"/>
<text x="335.16" y="802" font-size="11" fill="#555555" text-anchor="middle">06-06</text>
<text x="335.16" y="818" font-size="11" fill="#555555" text-anchor="middle">21:00</text>
<line x1="389.64" y1="703.39" x2="389.64" y2="710.99" stroke="#e74c3c" stroke-width="2"/>
<rect x="374.39" y="703.39" width="30.51" height="3.80" fill="#e74c3c" stroke="#e74c3c" stroke-width="1"/>
<text x="389.64" y="802" font-size="11" fill="#555555" text-anchor="middle">06-06</text>
<text x="389.64" y="818" font-size="11" fill="#555555" text-anchor="middle">21:15</text>
<line x1="444.12" y1="688.19" x2="444.12" y2="709.09" stroke="#2ecc71" stroke-width="2"/>
<rect x="428.87" y="693.89" width="30.51" height="13.30" fill="#2ecc71" stroke="#2ecc71" stroke-width="1"/>
<text x="444.12" y="802" font-size="11" fill="#555555" text-anchor="middle">06-06</text>
<text x="444.12" y="818" font-size="11" fill="#555555" text-anchor="middle">21:30</text>
<line x1="498.60" y1="684.39" x2="498.60" y2="697.69" stroke="#e74c3c" stroke-width="2"/>
<rect x="483.35" y="693.89" width="30.51" height="3.80" fill="#e74c3c" stroke="#e74c3c" stroke-width="1"/>
<text x="498.60" y="802" font-size="11" fill="#555555" text-anchor="middle">06-06</text>
<text x="498.60" y="818" font-size="11" fill="#555555" text-anchor="middle">21:45</text>
<line x1="553.08" y1="691.99" x2="553.08" y2="699.59" stroke="#2ecc71" stroke-width="2"/>
<rect x="537.83" y="693.89" width="30.51" height="1.90" fill="#2ecc71" stroke="#2ecc71" stroke-width="1"/>
<text x="553.08" y="802" font-size="11" fill="#555555" text-anchor="middle">06-06</text>
<text x="553.08" y="818" font-size="11" fill="#555555" text-anchor="middle">22:00</text>
<line x1="607.56" y1="686.29" x2="607.56" y2="697.69" stroke="#2ecc71" stroke-width="2"/>
<rect x="592.31" y="693.89" width="30.51" height="1.20" fill="#2ecc71" stroke="#2ecc71" stroke-width="1"/>
<text x="607.56" y="802" font-size="11" fill="#555555" text-anchor="middle">06-06</text>
<text x="607.56" y="818" font-size="11" fill="#555555" text-anchor="middle">22:15</text>
<line x1="662.04" y1="688.19" x2="662.04" y2="697.69" stroke="#2ecc71" stroke-width="2"/>
<rect x="646.79" y="688.19" width="30.51" height="5.70" fill="#2ecc71" stroke="#2ecc71" stroke-width="1"/>
<text x="662.04" y="802" font-size="11" fill="#555555" text-anchor="middle">06-06</text>
<text x="662.04" y="818" font-size="11" fill="#555555" text-anchor="middle">22:30</text>
<line x1="716.52" y1="169.33" x2="716.52" y2="693.89" stroke="#2ecc71" stroke-width="2"/>
<rect x="701.27" y="243.45" width="30.51" height="444.74" fill="#2ecc71" stroke="#2ecc71" stroke-width="1"/>
<text x="716.52" y="802" font-size="11" fill="#555555" text-anchor="middle">06-06</text>
<text x="716.52" y="818" font-size="11" fill="#555555" text-anchor="middle">22:45</text>
<line x1="771.00" y1="80.00" x2="771.00" y2="328.98" stroke="#2ecc71" stroke-width="2"/>
<rect x="755.75" y="232.05" width="30.51" height="13.30" fill="#2ecc71" stroke="#2ecc71" stroke-width="1"/>
<text x="771.00" y="802" font-size="11" fill="#555555" text-anchor="middle">06-06</text>
<text x="771.00" y="818" font-size="11" fill="#555555" text-anchor="middle">23:00</text>
<line x1="825.48" y1="213.04" x2="825.48" y2="401.20" stroke="#e74c3c" stroke-width="2"/>
<rect x="810.23" y="233.95" width="30.51" height="150.15" fill="#e74c3c" stroke="#e74c3c" stroke-width="1"/>
<text x="825.48" y="802" font-size="11" fill="#555555" text-anchor="middle">06-06</text>
<text x="825.48" y="818" font-size="11" fill="#555555" text-anchor="middle">23:15</text>
<line x1="879.96" y1="271.96" x2="879.96" y2="397.40" stroke="#2ecc71" stroke-width="2"/>
<rect x="864.71" y="281.46" width="30.51" height="100.73" fill="#2ecc71" stroke="#2ecc71" stroke-width="1"/>
<text x="879.96" y="802" font-size="11" fill="#555555" text-anchor="middle">06-06</text>
<text x="879.96" y="818" font-size="11" fill="#555555" text-anchor="middle">23:30</text>
<line x1="934.44" y1="140.82" x2="934.44" y2="298.57" stroke="#2ecc71" stroke-width="2"/>
<rect x="919.19" y="270.06" width="30.51" height="11.40" fill="#2ecc71" stroke="#2ecc71" stroke-width="1"/>
<text x="934.44" y="802" font-size="11" fill="#555555" text-anchor="middle">06-06</text>
<text x="934.44" y="818" font-size="11" fill="#555555" text-anchor="middle">23:45</text>
<line x1="988.92" y1="233.95" x2="988.92" y2="327.08" stroke="#e74c3c" stroke-width="2"/>
<rect x="973.67" y="268.16" width="30.51" height="32.31" fill="#e74c3c" stroke="#e74c3c" stroke-width="1"/>
<text x="988.92" y="802" font-size="11" fill="#555555" text-anchor="middle">06-07</text>
<text x="988.92" y="818" font-size="11" fill="#555555" text-anchor="middle">00:00</text>
<line x1="1043.40" y1="262.46" x2="1043.40" y2="357.49" stroke="#e74c3c" stroke-width="2"/>
<rect x="1028.15" y="298.57" width="30.51" height="26.61" fill="#e74c3c" stroke="#e74c3c" stroke-width="1"/>
<text x="1043.40" y="802" font-size="11" fill="#555555" text-anchor="middle">06-07</text>
<text x="1043.40" y="818" font-size="11" fill="#555555" text-anchor="middle">00:15</text>
<line x1="1097.88" y1="302.37" x2="1097.88" y2="378.39" stroke="#2ecc71" stroke-width="2"/>
<rect x="1082.63" y="311.87" width="30.51" height="11.40" fill="#2ecc71" stroke="#2ecc71" stroke-width="1"/>
<text x="1097.88" y="802" font-size="11" fill="#555555" text-anchor="middle">06-07</text>
<text x="1097.88" y="818" font-size="11" fill="#555555" text-anchor="middle">00:30</text>
<line x1="1152.36" y1="285.26" x2="1152.36" y2="368.89" stroke="#e74c3c" stroke-width="2"/>
<rect x="1137.11" y="309.97" width="30.51" height="34.21" fill="#e74c3c" stroke="#e74c3c" stroke-width="1"/>
<text x="1152.36" y="802" font-size="11" fill="#555555" text-anchor="middle">06-07</text>
<text x="1152.36" y="818" font-size="11" fill="#555555" text-anchor="middle">00:45</text>
<line x1="1206.84" y1="334.68" x2="1206.84" y2="437.31" stroke="#e74c3c" stroke-width="2"/>
<rect x="1191.59" y="344.18" width="30.51" height="28.51" fill="#e74c3c" stroke="#e74c3c" stroke-width="1"/>
<text x="1206.84" y="802" font-size="11" fill="#555555" text-anchor="middle">06-07</text>
<text x="1206.84" y="818" font-size="11" fill="#555555" text-anchor="middle">01:00</text>
<line x1="1261.32" y1="368.89" x2="1261.32" y2="406.90" stroke="#e74c3c" stroke-width="2"/>
<rect x="1246.07" y="372.69" width="30.51" height="24.71" fill="#e74c3c" stroke="#e74c3c" stroke-width="1"/>
<text x="1261.32" y="802" font-size="11" fill="#555555" text-anchor="middle">06-07</text>
<text x="1261.32" y="818" font-size="11" fill="#555555" text-anchor="middle">01:15</text>
<line x1="1315.80" y1="370.79" x2="1315.80" y2="414.50" stroke="#2ecc71" stroke-width="2"/>
<rect x="1300.55" y="389.80" width="30.51" height="9.50" fill="#2ecc71" stroke="#2ecc71" stroke-width="1"/>
<text x="1315.80" y="802" font-size="11" fill="#555555" text-anchor="middle">06-07</text>
<text x="1315.80" y="818" font-size="11" fill="#555555" text-anchor="middle">01:30</text>
<line x1="1370.28" y1="338.48" x2="1370.28" y2="412.60" stroke="#2ecc71" stroke-width="2"/>
<rect x="1355.03" y="384.09" width="30.51" height="3.80" fill="#2ecc71" stroke="#2ecc71" stroke-width="1"/>
<text x="1370.28" y="802" font-size="11" fill="#555555" text-anchor="middle">06-07</text>
<text x="1370.28" y="818" font-size="11" fill="#555555" text-anchor="middle">01:45</text>
<line x1="1424.76" y1="309.97" x2="1424.76" y2="387.89" stroke="#2ecc71" stroke-width="2"/>
<rect x="1409.51" y="363.19" width="30.51" height="22.81" fill="#2ecc71" stroke="#2ecc71" stroke-width="1"/>
<text x="1424.76" y="802" font-size="11" fill="#555555" text-anchor="middle">06-07</text>
<text x="1424.76" y="818" font-size="11" fill="#555555" text-anchor="middle">02:00</text>
<line x1="716.52" y1="169.33" x2="786.52" y2="104.00" stroke="#f39c12" stroke-width="2"/>
<rect x="786.52" y="52.00" width="280" height="90" rx="10" fill="#fff8dc" stroke="#f39c12"/>
<text x="798.52" y="76.00" font-size="13" fill="#111111">15m定位时间 2025-06-06 22:45:00</text>
<text x="798.52" y="96.00" font-size="13" fill="#111111">该15m最高价 1.388000</text>
<text x="798.52" y="116.00" font-size="13" fill="#111111">10倍价横线已标出</text>
<text x="798.52" y="136.00" font-size="13" fill="#111111">竖线高亮首次触达10倍价的15m</text>
</svg>