<svg xmlns="http://www.w3.org/2000/svg" width="1500" height="860" viewBox="0 0 1500 860">
<rect width="100%" height="100%" fill="#fcfcfc"/>
<text x="90" y="38" font-size="28" font-weight="700" fill="#111111">VANA-USDT-SWAP 15m - 10倍命中定位图</text>
<text x="90" y="68" font-size="16" fill="#555555">1H命中时间: 2026-02-09 21:00:00 | 10倍价: 1.648110 | 命中倍数: 22.5913x</text>
<line x1="90" y1="80.00" x2="1452" y2="80.00" stroke="#d9d9d9" stroke-dasharray="4 4" stroke-width="1"/>
<text x="12" y="84.00" font-size="12" fill="#555555">1.926000</text>
<line x1="90" y1="210.00" x2="1452" y2="210.00" stroke="#d9d9d9" stroke-dasharray="4 4" stroke-width="1"/>
<text x="12" y="214.00" font-size="12" fill="#555555">1.828600</text>
<line x1="90" y1="340.00" x2="1452" y2="340.00" stroke="#d9d9d9" stroke-dasharray="4 4" stroke-width="1"/>
<text x="12" y="344.00" font-size="12" fill="#555555">1.731200</text>
<line x1="90" y1="470.00" x2="1452" y2="470.00" stroke="#d9d9d9" stroke-dasharray="4 4" stroke-width="1"/>
<text x="12" y="474.00" font-size="12" fill="#555555">1.633800</text>
<line x1="90" y1="600.00" x2="1452" y2="600.00" stroke="#d9d9d9" stroke-dasharray="4 4" stroke-width="1"/>
<text x="12" y="604.00" font-size="12" fill="#555555">1.536400</text>
<line x1="90" y1="730.00" x2="1452" y2="730.00" stroke="#d9d9d9" stroke-dasharray="4 4" stroke-width="1"/>
<text x="12" y="734.00" font-size="12" fill="#555555">1.439000</text>
<rect x="634.80" y="80" width="54.48" height="650.00" fill="#f1c40f" opacity="0.16"/>
<line x1="662.04" y1="80" x2="662.04" y2="730" stroke="#f39c12" stroke-width="2" stroke-dasharray="6 4"/>
<line x1="90" y1="450.90" x2="1452" y2="450.90" stroke="#8e44ad" stroke-width="2" stroke-dasharray="8 4"/>
<text x="1444" y="442.90" font-size="13" fill="#8e44ad" text-anchor="end">10倍价 1.648110</text>
<line x1="117.24" y1="719.32" x2="117.24" y2="730.00" stroke="#2ecc71" stroke-width="2"/>
<rect x="101.99" y="727.33" width="30.51" height="2.67" fill="#2ecc71" stroke="#2ecc71" stroke-width="1"/>
<text x="117.24" y="802" font-size="11" fill="#555555" text-anchor="middle">02-09</text>
<text x="117.24" y="818" font-size="11" fill="#555555" text-anchor="middle">19:00</text>
<line x1="171.72" y1="724.66" x2="171.72" y2="730.00" stroke="#2ecc71" stroke-width="2"/>
<rect x="156.47" y="727.33" width="30.51" height="1.33" fill="#2ecc71" stroke="#2ecc71" stroke-width="1"/>
<text x="171.72" y="802" font-size="11" fill="#555555" text-anchor="middle">02-09</text>
<text x="171.72" y="818" font-size="11" fill="#555555" text-anchor="middle">19:15</text>
<line x1="226.20" y1="724.66" x2="226.20" y2="730.00" stroke="#2ecc71" stroke-width="2"/>
<rect x="210.95" y="726.00" width="30.51" height="1.20" fill="#2ecc71" stroke="#2ecc71" stroke-width="1"/>
<text x="226.20" y="802" font-size="11" fill="#555555" text-anchor="middle">02-09</text>
<text x="226.20" y="818" font-size="11" fill="#555555" text-anchor="middle">19:30</text>
<line x1="280.68" y1="726.00" x2="280.68" y2="728.67" stroke="#2ecc71" stroke-width="2"/>
<rect x="265.43" y="726.00" width="30.51" height="1.33" fill="#2ecc71" stroke="#2ecc71" stroke-width="1"/>
<text x="280.68" y="802" font-size="11" fill="#555555" text-anchor="middle">02-09</text>
<text x="280.68" y="818" font-size="11" fill="#555555" text-anchor="middle">19:45</text>
<line x1="335.16" y1="712.65" x2="335.16" y2="727.33" stroke="#2ecc71" stroke-width="2"/>
<rect x="319.91" y="712.65" width="30.51" height="14.68" fill="#2ecc71" stroke="#2ecc71" stroke-width="1"/>
<text x="335.16" y="802" font-size="11" fill="#555555" text-anchor="middle">02-09</text>
<text x="335.16" y="818" font-size="11" fill="#555555" text-anchor="middle">20:00</text>
<line x1="389.64" y1="705.98" x2="389.64" y2="715.32" stroke="#2ecc71" stroke-width="2"/>
<rect x="374.39" y="709.98" width="30.51" height="4.00" fill="#2ecc71" stroke="#2ecc71" stroke-width="1"/>
<text x="389.64" y="802" font-size="11" fill="#555555" text-anchor="middle">02-09</text>
<text x="389.64" y="818" font-size="11" fill="#555555" text-anchor="middle">20:15</text>
<line x1="444.12" y1="701.97" x2="444.12" y2="713.98" stroke="#2ecc71" stroke-width="2"/>
<rect x="428.87" y="703.31" width="30.51" height="8.01" fill="#2ecc71" stroke="#2ecc71" stroke-width="1"/>
<text x="444.12" y="802" font-size="11" fill="#555555" text-anchor="middle">02-09</text>
<text x="444.12" y="818" font-size="11" fill="#555555" text-anchor="middle">20:30</text>
<line x1="498.60" y1="704.64" x2="498.60" y2="707.31" stroke="#e74c3c" stroke-width="2"/>
<rect x="483.35" y="705.98" width="30.51" height="1.33" fill="#e74c3c" stroke="#e74c3c" stroke-width="1"/>
<text x="498.60" y="802" font-size="11" fill="#555555" text-anchor="middle">02-09</text>
<text x="498.60" y="818" font-size="11" fill="#555555" text-anchor="middle">20:45</text>
<line x1="553.08" y1="693.96" x2="553.08" y2="707.31" stroke="#2ecc71" stroke-width="2"/>
<rect x="537.83" y="695.30" width="30.51" height="10.68" fill="#2ecc71" stroke="#2ecc71" stroke-width="1"/>
<text x="553.08" y="802" font-size="11" fill="#555555" text-anchor="middle">02-09</text>
<text x="553.08" y="818" font-size="11" fill="#555555" text-anchor="middle">21:00</text>
<line x1="607.56" y1="692.63" x2="607.56" y2="700.64" stroke="#e74c3c" stroke-width="2"/>
<rect x="592.31" y="695.30" width="30.51" height="1.33" fill="#e74c3c" stroke="#e74c3c" stroke-width="1"/>
<text x="607.56" y="802" font-size="11" fill="#555555" text-anchor="middle">02-09</text>
<text x="607.56" y="818" font-size="11" fill="#555555" text-anchor="middle">21:15</text>
<line x1="662.04" y1="128.05" x2="662.04" y2="703.31" stroke="#2ecc71" stroke-width="2"/>
<rect x="646.79" y="322.92" width="30.51" height="375.05" fill="#2ecc71" stroke="#2ecc71" stroke-width="1"/>
<text x="662.04" y="802" font-size="11" fill="#555555" text-anchor="middle">02-09</text>
<text x="662.04" y="818" font-size="11" fill="#555555" text-anchor="middle">21:30</text>
<line x1="716.52" y1="289.55" x2="716.52" y2="484.41" stroke="#e74c3c" stroke-width="2"/>
<rect x="701.27" y="322.92" width="30.51" height="18.69" fill="#e74c3c" stroke="#e74c3c" stroke-width="1"/>
<text x="716.52" y="802" font-size="11" fill="#555555" text-anchor="middle">02-09</text>
<text x="716.52" y="818" font-size="11" fill="#555555" text-anchor="middle">21:45</text>
<line x1="771.00" y1="296.22" x2="771.00" y2="393.66" stroke="#2ecc71" stroke-width="2"/>
<rect x="755.75" y="321.58" width="30.51" height="22.69" fill="#2ecc71" stroke="#2ecc71" stroke-width="1"/>
<text x="771.00" y="802" font-size="11" fill="#555555" text-anchor="middle">02-09</text>
<text x="771.00" y="818" font-size="11" fill="#555555" text-anchor="middle">22:00</text>
<line x1="825.48" y1="210.80" x2="825.48" y2="342.94" stroke="#2ecc71" stroke-width="2"/>
<rect x="810.23" y="230.82" width="30.51" height="90.76" fill="#2ecc71" stroke="#2ecc71" stroke-width="1"/>
<text x="825.48" y="802" font-size="11" fill="#555555" text-anchor="middle">02-09</text>
<text x="825.48" y="818" font-size="11" fill="#555555" text-anchor="middle">22:15</text>
<line x1="879.96" y1="197.45" x2="879.96" y2="261.52" stroke="#2ecc71" stroke-width="2"/>
<rect x="864.71" y="205.46" width="30.51" height="24.02" fill="#2ecc71" stroke="#2ecc71" stroke-width="1"/>
<text x="879.96" y="802" font-size="11" fill="#555555" text-anchor="middle">02-09</text>
<text x="879.96" y="818" font-size="11" fill="#555555" text-anchor="middle">22:30</text>
<line x1="934.44" y1="196.12" x2="934.44" y2="333.59" stroke="#e74c3c" stroke-width="2"/>
<rect x="919.19" y="205.46" width="30.51" height="76.08" fill="#e74c3c" stroke="#e74c3c" stroke-width="1"/>
<text x="934.44" y="802" font-size="11" fill="#555555" text-anchor="middle">02-09</text>
<text x="934.44" y="818" font-size="11" fill="#555555" text-anchor="middle">22:45</text>
<line x1="988.92" y1="80.00" x2="988.92" y2="310.90" stroke="#2ecc71" stroke-width="2"/>
<rect x="973.67" y="198.79" width="30.51" height="85.42" fill="#2ecc71" stroke="#2ecc71" stroke-width="1"/>
<text x="988.92" y="802" font-size="11" fill="#555555" text-anchor="middle">02-09</text>
<text x="988.92" y="818" font-size="11" fill="#555555" text-anchor="middle">23:00</text>
<line x1="1043.40" y1="194.78" x2="1043.40" y2="274.87" stroke="#e74c3c" stroke-width="2"/>
<rect x="1028.15" y="198.79" width="30.51" height="58.73" fill="#e74c3c" stroke="#e74c3c" stroke-width="1"/>
<text x="1043.40" y="802" font-size="11" fill="#555555" text-anchor="middle">02-09</text>
<text x="1043.40" y="818" font-size="11" fill="#555555" text-anchor="middle">23:15</text>
<line x1="1097.88" y1="254.85" x2="1097.88" y2="344.27" stroke="#e74c3c" stroke-width="2"/>
<rect x="1082.63" y="258.85" width="30.51" height="61.40" fill="#e74c3c" stroke="#e74c3c" stroke-width="1"/>
<text x="1097.88" y="802" font-size="11" fill="#555555" text-anchor="middle">02-09</text>
<text x="1097.88" y="818" font-size="11" fill="#555555" text-anchor="middle">23:30</text>
<line x1="1152.36" y1="289.55" x2="1152.36" y2="352.28" stroke="#2ecc71" stroke-width="2"/>
<rect x="1137.11" y="310.90" width="30.51" height="8.01" fill="#2ecc71" stroke="#2ecc71" stroke-width="1"/>
<text x="1152.36" y="802" font-size="11" fill="#555555" text-anchor="middle">02-09</text>
<text x="1152.36" y="818" font-size="11" fill="#555555" text-anchor="middle">23:45</text>
<line x1="1206.84" y1="298.89" x2="1206.84" y2="425.69" stroke="#e74c3c" stroke-width="2"/>
<rect x="1191.59" y="312.24" width="30.51" height="70.74" fill="#e74c3c" stroke="#e74c3c" stroke-width="1"/>
<text x="1206.84" y="802" font-size="11" fill="#555555" text-anchor="middle">02-10</text>
<text x="1206.84" y="818" font-size="11" fill="#555555" text-anchor="middle">00:00</text>
<line x1="1261.32" y1="360.29" x2="1261.32" y2="413.68" stroke="#2ecc71" stroke-width="2"/>
<rect x="1246.07" y="372.30" width="30.51" height="12.01" fill="#2ecc71" stroke="#2ecc71" stroke-width="1"/>
<text x="1261.32" y="802" font-size="11" fill="#555555" text-anchor="middle">02-10</text>
<text x="1261.32" y="818" font-size="11" fill="#555555" text-anchor="middle">00:15</text>
<line x1="1315.80" y1="349.61" x2="1315.80" y2="381.64" stroke="#2ecc71" stroke-width="2"/>
<rect x="1300.55" y="370.97" width="30.51" height="1.33" fill="#2ecc71" stroke="#2ecc71" stroke-width="1"/>
<text x="1315.80" y="802" font-size="11" fill="#555555" text-anchor="middle">02-10</text>
<text x="1315.80" y="818" font-size="11" fill="#555555" text-anchor="middle">00:30</text>
<line x1="1370.28" y1="360.29" x2="1370.28" y2="396.32" stroke="#e74c3c" stroke-width="2"/>
<rect x="1355.03" y="369.63" width="30.51" height="20.02" fill="#e74c3c" stroke="#e74c3c" stroke-width="1"/>
<text x="1370.28" y="802" font-size="11" fill="#555555" text-anchor="middle">02-10</text>
<text x="1370.28" y="818" font-size="11" fill="#555555" text-anchor="middle">00:45</text>
<line x1="1424.76" y1="384.31" x2="1424.76" y2="417.68" stroke="#e74c3c" stroke-width="2"/>
<rect x="1409.51" y="388.32" width="30.51" height="8.01" fill="#e74c3c" stroke="#e74c3c" stroke-width="1"/>
<text x="1424.76" y="802" font-size="11" fill="#555555" text-anchor="middle">02-10</text>
<text x="1424.76" y="818" font-size="11" fill="#555555" text-anchor="middle">01:00</text>
<line x1="662.04" y1="128.05" x2="732.04" y2="104.00" stroke="#f39c12" stroke-width="2"/>
<rect x="732.04" y="52.00" width="280" height="90" rx="10" fill="#fff8dc" stroke="#f39c12"/>
<text x="744.04" y="76.00" font-size="13" fill="#111111">15m定位时间 2026-02-09 21:30:00</text>
<text x="744.04" y="96.00" font-size="13" fill="#111111">该15m最高价 1.890000</text>
<text x="744.04" y="116.00" font-size="13" fill="#111111">10倍价横线已标出</text>
<text x="744.04" y="136.00" font-size="13" fill="#111111">竖线高亮首次触达10倍价的15m</text>
</svg>