<svg xmlns="http://www.w3.org/2000/svg" width="1500" height="860" viewBox="0 0 1500 860">
<rect width="100%" height="100%" fill="#fcfcfc"/>
<text x="90" y="38" font-size="28" font-weight="700" fill="#111111">VIRTUAL-USDT-SWAP 15m - 10倍命中定位图</text>
<text x="90" y="68" font-size="16" fill="#555555">1H命中时间: 2025-04-11 18:00:00 | 10倍价: 0.566731 | 命中倍数: 12.3392x</text>
<line x1="90" y1="80.00" x2="1452" y2="80.00" stroke="#d9d9d9" stroke-dasharray="4 4" stroke-width="1"/>
<text x="12" y="84.00" font-size="12" fill="#555555">0.587300</text>
<line x1="90" y1="210.00" x2="1452" y2="210.00" stroke="#d9d9d9" stroke-dasharray="4 4" stroke-width="1"/>
<text x="12" y="214.00" font-size="12" fill="#555555">0.564000</text>
<line x1="90" y1="340.00" x2="1452" y2="340.00" stroke="#d9d9d9" stroke-dasharray="4 4" stroke-width="1"/>
<text x="12" y="344.00" font-size="12" fill="#555555">0.540700</text>
<line x1="90" y1="470.00" x2="1452" y2="470.00" stroke="#d9d9d9" stroke-dasharray="4 4" stroke-width="1"/>
<text x="12" y="474.00" font-size="12" fill="#555555">0.517400</text>
<line x1="90" y1="600.00" x2="1452" y2="600.00" stroke="#d9d9d9" stroke-dasharray="4 4" stroke-width="1"/>
<text x="12" y="604.00" font-size="12" fill="#555555">0.494100</text>
<line x1="90" y1="730.00" x2="1452" y2="730.00" stroke="#d9d9d9" stroke-dasharray="4 4" stroke-width="1"/>
<text x="12" y="734.00" font-size="12" fill="#555555">0.470800</text>
<rect x="525.84" y="80" width="54.48" height="650.00" fill="#f1c40f" opacity="0.16"/>
<line x1="553.08" y1="80" x2="553.08" y2="730" stroke="#f39c12" stroke-width="2" stroke-dasharray="6 4"/>
<line x1="90" y1="194.76" x2="1452" y2="194.76" stroke="#8e44ad" stroke-width="2" stroke-dasharray="8 4"/>
<text x="1444" y="186.76" font-size="13" fill="#8e44ad" text-anchor="end">10倍价 0.566731</text>
<line x1="117.24" y1="674.21" x2="117.24" y2="730.00" stroke="#e74c3c" stroke-width="2"/>
<rect x="101.99" y="697.08" width="30.51" height="6.70" fill="#e74c3c" stroke="#e74c3c" stroke-width="1"/>
<text x="117.24" y="802" font-size="11" fill="#555555" text-anchor="middle">04-11</text>
<text x="117.24" y="818" font-size="11" fill="#555555" text-anchor="middle">16:00</text>
<line x1="171.72" y1="698.20" x2="171.72" y2="720.52" stroke="#e74c3c" stroke-width="2"/>
<rect x="156.47" y="703.78" width="30.51" height="8.37" fill="#e74c3c" stroke="#e74c3c" stroke-width="1"/>
<text x="171.72" y="802" font-size="11" fill="#555555" text-anchor="middle">04-11</text>
<text x="171.72" y="818" font-size="11" fill="#555555" text-anchor="middle">16:15</text>
<line x1="226.20" y1="688.15" x2="226.20" y2="717.73" stroke="#2ecc71" stroke-width="2"/>
<rect x="210.95" y="702.66" width="30.51" height="10.04" fill="#2ecc71" stroke="#2ecc71" stroke-width="1"/>
<text x="226.20" y="802" font-size="11" fill="#555555" text-anchor="middle">04-11</text>
<text x="226.20" y="818" font-size="11" fill="#555555" text-anchor="middle">16:30</text>
<line x1="280.68" y1="698.20" x2="280.68" y2="716.05" stroke="#2ecc71" stroke-width="2"/>
<rect x="265.43" y="699.87" width="30.51" height="2.23" fill="#2ecc71" stroke="#2ecc71" stroke-width="1"/>
<text x="280.68" y="802" font-size="11" fill="#555555" text-anchor="middle">04-11</text>
<text x="280.68" y="818" font-size="11" fill="#555555" text-anchor="middle">16:45</text>
<line x1="335.16" y1="696.52" x2="335.16" y2="718.28" stroke="#e74c3c" stroke-width="2"/>
<rect x="319.91" y="698.76" width="30.51" height="17.85" fill="#e74c3c" stroke="#e74c3c" stroke-width="1"/>
<text x="335.16" y="802" font-size="11" fill="#555555" text-anchor="middle">04-11</text>
<text x="335.16" y="818" font-size="11" fill="#555555" text-anchor="middle">17:00</text>
<line x1="389.64" y1="692.62" x2="389.64" y2="716.61" stroke="#2ecc71" stroke-width="2"/>
<rect x="374.39" y="695.97" width="30.51" height="20.09" fill="#2ecc71" stroke="#2ecc71" stroke-width="1"/>
<text x="389.64" y="802" font-size="11" fill="#555555" text-anchor="middle">04-11</text>
<text x="389.64" y="818" font-size="11" fill="#555555" text-anchor="middle">17:15</text>
<line x1="444.12" y1="678.11" x2="444.12" y2="698.20" stroke="#2ecc71" stroke-width="2"/>
<rect x="428.87" y="680.34" width="30.51" height="15.06" fill="#2ecc71" stroke="#2ecc71" stroke-width="1"/>
<text x="444.12" y="802" font-size="11" fill="#555555" text-anchor="middle">04-11</text>
<text x="444.12" y="818" font-size="11" fill="#555555" text-anchor="middle">17:30</text>
<line x1="498.60" y1="669.74" x2="498.60" y2="693.73" stroke="#2ecc71" stroke-width="2"/>
<rect x="483.35" y="669.74" width="30.51" height="11.16" fill="#2ecc71" stroke="#2ecc71" stroke-width="1"/>
<text x="498.60" y="802" font-size="11" fill="#555555" text-anchor="middle">04-11</text>
<text x="498.60" y="818" font-size="11" fill="#555555" text-anchor="middle">17:45</text>
<line x1="553.08" y1="80.00" x2="553.08" y2="685.36" stroke="#2ecc71" stroke-width="2"/>
<rect x="537.83" y="497.34" width="30.51" height="172.96" fill="#2ecc71" stroke="#2ecc71" stroke-width="1"/>
<text x="553.08" y="802" font-size="11" fill="#555555" text-anchor="middle">04-11</text>
<text x="553.08" y="818" font-size="11" fill="#555555" text-anchor="middle">18:00</text>
<line x1="607.56" y1="352.83" x2="607.56" y2="500.69" stroke="#2ecc71" stroke-width="2"/>
<rect x="592.31" y="367.90" width="30.51" height="130.56" fill="#2ecc71" stroke="#2ecc71" stroke-width="1"/>
<text x="607.56" y="802" font-size="11" fill="#555555" text-anchor="middle">04-11</text>
<text x="607.56" y="818" font-size="11" fill="#555555" text-anchor="middle">18:15</text>
<line x1="662.04" y1="298.71" x2="662.04" y2="374.59" stroke="#2ecc71" stroke-width="2"/>
<rect x="646.79" y="309.87" width="30.51" height="58.58" fill="#2ecc71" stroke="#2ecc71" stroke-width="1"/>
<text x="662.04" y="802" font-size="11" fill="#555555" text-anchor="middle">04-11</text>
<text x="662.04" y="818" font-size="11" fill="#555555" text-anchor="middle">18:30</text>
<line x1="716.52" y1="307.64" x2="716.52" y2="391.33" stroke="#e74c3c" stroke-width="2"/>
<rect x="701.27" y="309.87" width="30.51" height="36.82" fill="#e74c3c" stroke="#e74c3c" stroke-width="1"/>
<text x="716.52" y="802" font-size="11" fill="#555555" text-anchor="middle">04-11</text>
<text x="716.52" y="818" font-size="11" fill="#555555" text-anchor="middle">18:45</text>
<line x1="771.00" y1="331.63" x2="771.00" y2="381.29" stroke="#e74c3c" stroke-width="2"/>
<rect x="755.75" y="345.58" width="30.51" height="30.69" fill="#e74c3c" stroke="#e74c3c" stroke-width="1"/>
<text x="771.00" y="802" font-size="11" fill="#555555" text-anchor="middle">04-11</text>
<text x="771.00" y="818" font-size="11" fill="#555555" text-anchor="middle">19:00</text>
<line x1="825.48" y1="362.88" x2="825.48" y2="448.80" stroke="#e74c3c" stroke-width="2"/>
<rect x="810.23" y="376.27" width="30.51" height="69.18" fill="#e74c3c" stroke="#e74c3c" stroke-width="1"/>
<text x="825.48" y="802" font-size="11" fill="#555555" text-anchor="middle">04-11</text>
<text x="825.48" y="818" font-size="11" fill="#555555" text-anchor="middle">19:15</text>
<line x1="879.96" y1="393.56" x2="879.96" y2="443.78" stroke="#2ecc71" stroke-width="2"/>
<rect x="864.71" y="419.23" width="30.51" height="23.99" fill="#2ecc71" stroke="#2ecc71" stroke-width="1"/>
<text x="879.96" y="802" font-size="11" fill="#555555" text-anchor="middle">04-11</text>
<text x="879.96" y="818" font-size="11" fill="#555555" text-anchor="middle">19:30</text>
<line x1="934.44" y1="382.96" x2="934.44" y2="423.13" stroke="#2ecc71" stroke-width="2"/>
<rect x="919.19" y="403.61" width="30.51" height="15.06" fill="#2ecc71" stroke="#2ecc71" stroke-width="1"/>
<text x="934.44" y="802" font-size="11" fill="#555555" text-anchor="middle">04-11</text>
<text x="934.44" y="818" font-size="11" fill="#555555" text-anchor="middle">19:45</text>
<line x1="988.92" y1="364.55" x2="988.92" y2="415.32" stroke="#2ecc71" stroke-width="2"/>
<rect x="973.67" y="367.34" width="30.51" height="37.38" fill="#2ecc71" stroke="#2ecc71" stroke-width="1"/>
<text x="988.92" y="802" font-size="11" fill="#555555" text-anchor="middle">04-11</text>
<text x="988.92" y="818" font-size="11" fill="#555555" text-anchor="middle">20:00</text>
<line x1="1043.40" y1="310.43" x2="1043.40" y2="370.69" stroke="#2ecc71" stroke-width="2"/>
<rect x="1028.15" y="326.61" width="30.51" height="40.73" fill="#2ecc71" stroke="#2ecc71" stroke-width="1"/>
<text x="1043.40" y="802" font-size="11" fill="#555555" text-anchor="middle">04-11</text>
<text x="1043.40" y="818" font-size="11" fill="#555555" text-anchor="middle">20:15</text>
<line x1="1097.88" y1="275.28" x2="1097.88" y2="337.77" stroke="#2ecc71" stroke-width="2"/>
<rect x="1082.63" y="289.79" width="30.51" height="39.06" fill="#2ecc71" stroke="#2ecc71" stroke-width="1"/>
<text x="1097.88" y="802" font-size="11" fill="#555555" text-anchor="middle">04-11</text>
<text x="1097.88" y="818" font-size="11" fill="#555555" text-anchor="middle">20:30</text>
<line x1="1152.36" y1="274.16" x2="1152.36" y2="329.40" stroke="#e74c3c" stroke-width="2"/>
<rect x="1137.11" y="288.67" width="30.51" height="22.32" fill="#e74c3c" stroke="#e74c3c" stroke-width="1"/>
<text x="1152.36" y="802" font-size="11" fill="#555555" text-anchor="middle">04-11</text>
<text x="1152.36" y="818" font-size="11" fill="#555555" text-anchor="middle">20:45</text>
<line x1="1206.84" y1="289.23" x2="1206.84" y2="334.98" stroke="#e74c3c" stroke-width="2"/>
<rect x="1191.59" y="310.43" width="30.51" height="16.74" fill="#e74c3c" stroke="#e74c3c" stroke-width="1"/>
<text x="1206.84" y="802" font-size="11" fill="#555555" text-anchor="middle">04-11</text>
<text x="1206.84" y="818" font-size="11" fill="#555555" text-anchor="middle">21:00</text>
<line x1="1261.32" y1="291.46" x2="1261.32" y2="377.38" stroke="#2ecc71" stroke-width="2"/>
<rect x="1246.07" y="293.13" width="30.51" height="35.15" fill="#2ecc71" stroke="#2ecc71" stroke-width="1"/>
<text x="1261.32" y="802" font-size="11" fill="#555555" text-anchor="middle">04-11</text>
<text x="1261.32" y="818" font-size="11" fill="#555555" text-anchor="middle">21:15</text>
<line x1="1315.80" y1="183.22" x2="1315.80" y2="328.28" stroke="#2ecc71" stroke-width="2"/>
<rect x="1300.55" y="233.43" width="30.51" height="56.91" fill="#2ecc71" stroke="#2ecc71" stroke-width="1"/>
<text x="1315.80" y="802" font-size="11" fill="#555555" text-anchor="middle">04-11</text>
<text x="1315.80" y="818" font-size="11" fill="#555555" text-anchor="middle">21:30</text>
<line x1="1370.28" y1="201.07" x2="1370.28" y2="267.47" stroke="#e74c3c" stroke-width="2"/>
<rect x="1355.03" y="235.11" width="30.51" height="5.02" fill="#e74c3c" stroke="#e74c3c" stroke-width="1"/>
<text x="1370.28" y="802" font-size="11" fill="#555555" text-anchor="middle">04-11</text>
<text x="1370.28" y="818" font-size="11" fill="#555555" text-anchor="middle">21:45</text>
<line x1="1424.76" y1="235.11" x2="1424.76" y2="352.83" stroke="#e74c3c" stroke-width="2"/>
<rect x="1409.51" y="241.80" width="30.51" height="14.51" fill="#e74c3c" stroke="#e74c3c" stroke-width="1"/>
<text x="1424.76" y="802" font-size="11" fill="#555555" text-anchor="middle">04-11</text>
<text x="1424.76" y="818" font-size="11" fill="#555555" text-anchor="middle">22:00</text>
<line x1="553.08" y1="80.00" x2="623.08" y2="104.00" stroke="#f39c12" stroke-width="2"/>
<rect x="623.08" y="52.00" width="280" height="90" rx="10" fill="#fff8dc" stroke="#f39c12"/>
<text x="635.08" y="76.00" font-size="13" fill="#111111">15m定位时间 2025-04-11 18:00:00</text>
<text x="635.08" y="96.00" font-size="13" fill="#111111">该15m最高价 0.587300</text>
<text x="635.08" y="116.00" font-size="13" fill="#111111">10倍价横线已标出</text>
<text x="635.08" y="136.00" font-size="13" fill="#111111">竖线高亮首次触达10倍价的15m</text>
</svg>