<svg xmlns="http://www.w3.org/2000/svg" width="1500" height="860" viewBox="0 0 1500 860">
<rect width="100%" height="100%" fill="#fcfcfc"/>
<text x="90" y="38" font-size="28" font-weight="700" fill="#111111">VIRTUAL-USDT-SWAP 15m - 10倍命中定位图</text>
<text x="90" y="68" font-size="16" fill="#555555">1H命中时间: 2025-01-31 16:00:00 | 10倍价: 2.599562 | 命中倍数: 11.5139x</text>
<line x1="90" y1="80.00" x2="1452" y2="80.00" stroke="#d9d9d9" stroke-dasharray="4 4" stroke-width="1"/>
<text x="12" y="84.00" font-size="12" fill="#555555">2.686500</text>
<line x1="90" y1="210.00" x2="1452" y2="210.00" stroke="#d9d9d9" stroke-dasharray="4 4" stroke-width="1"/>
<text x="12" y="214.00" font-size="12" fill="#555555">2.547360</text>
<line x1="90" y1="340.00" x2="1452" y2="340.00" stroke="#d9d9d9" stroke-dasharray="4 4" stroke-width="1"/>
<text x="12" y="344.00" font-size="12" fill="#555555">2.408220</text>
<line x1="90" y1="470.00" x2="1452" y2="470.00" stroke="#d9d9d9" stroke-dasharray="4 4" stroke-width="1"/>
<text x="12" y="474.00" font-size="12" fill="#555555">2.269080</text>
<line x1="90" y1="600.00" x2="1452" y2="600.00" stroke="#d9d9d9" stroke-dasharray="4 4" stroke-width="1"/>
<text x="12" y="604.00" font-size="12" fill="#555555">2.129940</text>
<line x1="90" y1="730.00" x2="1452" y2="730.00" stroke="#d9d9d9" stroke-dasharray="4 4" stroke-width="1"/>
<text x="12" y="734.00" font-size="12" fill="#555555">1.990800</text>
<rect x="580.32" y="80" width="54.48" height="650.00" fill="#f1c40f" opacity="0.16"/>
<line x1="607.56" y1="80" x2="607.56" y2="730" stroke="#f39c12" stroke-width="2" stroke-dasharray="6 4"/>
<line x1="90" y1="161.23" x2="1452" y2="161.23" stroke="#8e44ad" stroke-width="2" stroke-dasharray="8 4"/>
<text x="1444" y="153.23" font-size="13" fill="#8e44ad" text-anchor="end">10倍价 2.599562</text>
<line x1="117.24" y1="717.01" x2="117.24" y2="730.00" stroke="#e74c3c" stroke-width="2"/>
<rect x="101.99" y="722.43" width="30.51" height="2.43" fill="#e74c3c" stroke="#e74c3c" stroke-width="1"/>
<text x="117.24" y="802" font-size="11" fill="#555555" text-anchor="middle">01-31</text>
<text x="117.24" y="818" font-size="11" fill="#555555" text-anchor="middle">14:00</text>
<line x1="171.72" y1="717.57" x2="171.72" y2="729.72" stroke="#2ecc71" stroke-width="2"/>
<rect x="156.47" y="719.07" width="30.51" height="4.86" fill="#2ecc71" stroke="#2ecc71" stroke-width="1"/>
<text x="171.72" y="802" font-size="11" fill="#555555" text-anchor="middle">01-31</text>
<text x="171.72" y="818" font-size="11" fill="#555555" text-anchor="middle">14:15</text>
<line x1="226.20" y1="697.11" x2="226.20" y2="721.22" stroke="#2ecc71" stroke-width="2"/>
<rect x="210.95" y="702.90" width="30.51" height="16.44" fill="#2ecc71" stroke="#2ecc71" stroke-width="1"/>
<text x="226.20" y="802" font-size="11" fill="#555555" text-anchor="middle">01-31</text>
<text x="226.20" y="818" font-size="11" fill="#555555" text-anchor="middle">14:30</text>
<line x1="280.68" y1="690.95" x2="280.68" y2="708.14" stroke="#2ecc71" stroke-width="2"/>
<rect x="265.43" y="692.07" width="30.51" height="11.31" fill="#2ecc71" stroke="#2ecc71" stroke-width="1"/>
<text x="280.68" y="802" font-size="11" fill="#555555" text-anchor="middle">01-31</text>
<text x="280.68" y="818" font-size="11" fill="#555555" text-anchor="middle">14:45</text>
<line x1="335.16" y1="659.09" x2="335.16" y2="697.39" stroke="#2ecc71" stroke-width="2"/>
<rect x="319.91" y="663.66" width="30.51" height="28.50" fill="#2ecc71" stroke="#2ecc71" stroke-width="1"/>
<text x="335.16" y="802" font-size="11" fill="#555555" text-anchor="middle">01-31</text>
<text x="335.16" y="818" font-size="11" fill="#555555" text-anchor="middle">15:00</text>
<line x1="389.64" y1="644.60" x2="389.64" y2="666.93" stroke="#2ecc71" stroke-width="2"/>
<rect x="374.39" y="657.03" width="30.51" height="6.73" fill="#2ecc71" stroke="#2ecc71" stroke-width="1"/>
<text x="389.64" y="802" font-size="11" fill="#555555" text-anchor="middle">01-31</text>
<text x="389.64" y="818" font-size="11" fill="#555555" text-anchor="middle">15:15</text>
<line x1="444.12" y1="654.13" x2="444.12" y2="667.21" stroke="#e74c3c" stroke-width="2"/>
<rect x="428.87" y="656.66" width="30.51" height="9.06" fill="#e74c3c" stroke="#e74c3c" stroke-width="1"/>
<text x="444.12" y="802" font-size="11" fill="#555555" text-anchor="middle">01-31</text>
<text x="444.12" y="818" font-size="11" fill="#555555" text-anchor="middle">15:30</text>
<line x1="498.60" y1="651.80" x2="498.60" y2="671.98" stroke="#2ecc71" stroke-width="2"/>
<rect x="483.35" y="661.70" width="30.51" height="4.20" fill="#2ecc71" stroke="#2ecc71" stroke-width="1"/>
<text x="498.60" y="802" font-size="11" fill="#555555" text-anchor="middle">01-31</text>
<text x="498.60" y="818" font-size="11" fill="#555555" text-anchor="middle">15:45</text>
<line x1="553.08" y1="650.49" x2="553.08" y2="692.53" stroke="#e74c3c" stroke-width="2"/>
<rect x="537.83" y="661.05" width="30.51" height="30.83" fill="#e74c3c" stroke="#e74c3c" stroke-width="1"/>
<text x="553.08" y="802" font-size="11" fill="#555555" text-anchor="middle">01-31</text>
<text x="553.08" y="818" font-size="11" fill="#555555" text-anchor="middle">16:00</text>
<line x1="607.56" y1="80.00" x2="607.56" y2="697.77" stroke="#2ecc71" stroke-width="2"/>
<rect x="592.31" y="380.47" width="30.51" height="311.41" fill="#2ecc71" stroke="#2ecc71" stroke-width="1"/>
<text x="607.56" y="802" font-size="11" fill="#555555" text-anchor="middle">01-31</text>
<text x="607.56" y="818" font-size="11" fill="#555555" text-anchor="middle">16:15</text>
<line x1="662.04" y1="353.38" x2="662.04" y2="420.65" stroke="#e74c3c" stroke-width="2"/>
<rect x="646.79" y="383.09" width="30.51" height="18.78" fill="#e74c3c" stroke="#e74c3c" stroke-width="1"/>
<text x="662.04" y="802" font-size="11" fill="#555555" text-anchor="middle">01-31</text>
<text x="662.04" y="818" font-size="11" fill="#555555" text-anchor="middle">16:30</text>
<line x1="716.52" y1="393.37" x2="716.52" y2="466.62" stroke="#e74c3c" stroke-width="2"/>
<rect x="701.27" y="402.43" width="30.51" height="41.76" fill="#e74c3c" stroke="#e74c3c" stroke-width="1"/>
<text x="716.52" y="802" font-size="11" fill="#555555" text-anchor="middle">01-31</text>
<text x="716.52" y="818" font-size="11" fill="#555555" text-anchor="middle">16:45</text>
<line x1="771.00" y1="380.10" x2="771.00" y2="459.80" stroke="#2ecc71" stroke-width="2"/>
<rect x="755.75" y="385.99" width="30.51" height="59.24" fill="#2ecc71" stroke="#2ecc71" stroke-width="1"/>
<text x="771.00" y="802" font-size="11" fill="#555555" text-anchor="middle">01-31</text>
<text x="771.00" y="818" font-size="11" fill="#555555" text-anchor="middle">17:00</text>
<line x1="825.48" y1="374.12" x2="825.48" y2="425.32" stroke="#e74c3c" stroke-width="2"/>
<rect x="810.23" y="386.73" width="30.51" height="31.86" fill="#e74c3c" stroke="#e74c3c" stroke-width="1"/>
<text x="825.48" y="802" font-size="11" fill="#555555" text-anchor="middle">01-31</text>
<text x="825.48" y="818" font-size="11" fill="#555555" text-anchor="middle">17:15</text>
<line x1="879.96" y1="410.93" x2="879.96" y2="446.62" stroke="#e74c3c" stroke-width="2"/>
<rect x="864.71" y="419.34" width="30.51" height="10.93" fill="#e74c3c" stroke="#e74c3c" stroke-width="1"/>
<text x="879.96" y="802" font-size="11" fill="#555555" text-anchor="middle">01-31</text>
<text x="879.96" y="818" font-size="11" fill="#555555" text-anchor="middle">17:30</text>
<line x1="934.44" y1="428.68" x2="934.44" y2="483.06" stroke="#e74c3c" stroke-width="2"/>
<rect x="919.19" y="429.71" width="30.51" height="26.72" fill="#e74c3c" stroke="#e74c3c" stroke-width="1"/>
<text x="934.44" y="802" font-size="11" fill="#555555" text-anchor="middle">01-31</text>
<text x="934.44" y="818" font-size="11" fill="#555555" text-anchor="middle">17:45</text>
<line x1="988.92" y1="408.60" x2="988.92" y2="461.20" stroke="#2ecc71" stroke-width="2"/>
<rect x="973.67" y="415.42" width="30.51" height="40.74" fill="#2ecc71" stroke="#2ecc71" stroke-width="1"/>
<text x="988.92" y="802" font-size="11" fill="#555555" text-anchor="middle">01-31</text>
<text x="988.92" y="818" font-size="11" fill="#555555" text-anchor="middle">18:00</text>
<line x1="1043.40" y1="389.82" x2="1043.40" y2="425.60" stroke="#2ecc71" stroke-width="2"/>
<rect x="1028.15" y="398.51" width="30.51" height="17.57" fill="#2ecc71" stroke="#2ecc71" stroke-width="1"/>
<text x="1043.40" y="802" font-size="11" fill="#555555" text-anchor="middle">01-31</text>
<text x="1043.40" y="818" font-size="11" fill="#555555" text-anchor="middle">18:15</text>
<line x1="1097.88" y1="390.10" x2="1097.88" y2="440.08" stroke="#e74c3c" stroke-width="2"/>
<rect x="1082.63" y="398.97" width="30.51" height="3.08" fill="#e74c3c" stroke="#e74c3c" stroke-width="1"/>
<text x="1097.88" y="802" font-size="11" fill="#555555" text-anchor="middle">01-31</text>
<text x="1097.88" y="818" font-size="11" fill="#555555" text-anchor="middle">18:30</text>
<line x1="1152.36" y1="390.19" x2="1152.36" y2="472.97" stroke="#e74c3c" stroke-width="2"/>
<rect x="1137.11" y="401.87" width="30.51" height="48.68" fill="#e74c3c" stroke="#e74c3c" stroke-width="1"/>
<text x="1152.36" y="802" font-size="11" fill="#555555" text-anchor="middle">01-31</text>
<text x="1152.36" y="818" font-size="11" fill="#555555" text-anchor="middle">18:45</text>
<line x1="1206.84" y1="394.30" x2="1206.84" y2="486.43" stroke="#2ecc71" stroke-width="2"/>
<rect x="1191.59" y="437.84" width="30.51" height="13.64" fill="#2ecc71" stroke="#2ecc71" stroke-width="1"/>
<text x="1206.84" y="802" font-size="11" fill="#555555" text-anchor="middle">01-31</text>
<text x="1206.84" y="818" font-size="11" fill="#555555" text-anchor="middle">19:00</text>
<line x1="1261.32" y1="435.88" x2="1261.32" y2="544.17" stroke="#e74c3c" stroke-width="2"/>
<rect x="1246.07" y="439.62" width="30.51" height="69.42" fill="#e74c3c" stroke="#e74c3c" stroke-width="1"/>
<text x="1261.32" y="802" font-size="11" fill="#555555" text-anchor="middle">01-31</text>
<text x="1261.32" y="818" font-size="11" fill="#555555" text-anchor="middle">19:15</text>
<line x1="1315.80" y1="478.48" x2="1315.80" y2="525.95" stroke="#2ecc71" stroke-width="2"/>
<rect x="1300.55" y="489.98" width="30.51" height="19.15" fill="#2ecc71" stroke="#2ecc71" stroke-width="1"/>
<text x="1315.80" y="802" font-size="11" fill="#555555" text-anchor="middle">01-31</text>
<text x="1315.80" y="818" font-size="11" fill="#555555" text-anchor="middle">19:30</text>
<line x1="1370.28" y1="484.46" x2="1370.28" y2="518.10" stroke="#e74c3c" stroke-width="2"/>
<rect x="1355.03" y="490.54" width="30.51" height="1.40" fill="#e74c3c" stroke="#e74c3c" stroke-width="1"/>
<text x="1370.28" y="802" font-size="11" fill="#555555" text-anchor="middle">01-31</text>
<text x="1370.28" y="818" font-size="11" fill="#555555" text-anchor="middle">19:45</text>
<line x1="1424.76" y1="490.91" x2="1424.76" y2="534.36" stroke="#e74c3c" stroke-width="2"/>
<rect x="1409.51" y="490.91" width="30.51" height="15.32" fill="#e74c3c" stroke="#e74c3c" stroke-width="1"/>
<text x="1424.76" y="802" font-size="11" fill="#555555" text-anchor="middle">01-31</text>
<text x="1424.76" y="818" font-size="11" fill="#555555" text-anchor="middle">20:00</text>
<line x1="607.56" y1="80.00" x2="677.56" y2="104.00" stroke="#f39c12" stroke-width="2"/>
<rect x="677.56" y="52.00" width="280" height="90" rx="10" fill="#fff8dc" stroke="#f39c12"/>
<text x="689.56" y="76.00" font-size="13" fill="#111111">15m定位时间 2025-01-31 16:15:00</text>
<text x="689.56" y="96.00" font-size="13" fill="#111111">该15m最高价 2.686500</text>
<text x="689.56" y="116.00" font-size="13" fill="#111111">10倍价横线已标出</text>
<text x="689.56" y="136.00" font-size="13" fill="#111111">竖线高亮首次触达10倍价的15m</text>
</svg>