<svg xmlns="http://www.w3.org/2000/svg" width="1500" height="860" viewBox="0 0 1500 860">
<rect width="100%" height="100%" fill="#fcfcfc"/>
<text x="90" y="38" font-size="28" font-weight="700" fill="#111111">YGG-USDT-SWAP 15m - 10倍命中定位图</text>
<text x="90" y="68" font-size="16" fill="#555555">1H命中时间: 2025-10-15 13:00:00 | 10倍价: 0.252776 | 命中倍数: 10.8933x</text>
<line x1="90" y1="80.00" x2="1452" y2="80.00" stroke="#d9d9d9" stroke-dasharray="4 4" stroke-width="1"/>
<text x="12" y="84.00" font-size="12" fill="#555555">0.262100</text>
<line x1="90" y1="210.00" x2="1452" y2="210.00" stroke="#d9d9d9" stroke-dasharray="4 4" stroke-width="1"/>
<text x="12" y="214.00" font-size="12" fill="#555555">0.237900</text>
<line x1="90" y1="340.00" x2="1452" y2="340.00" stroke="#d9d9d9" stroke-dasharray="4 4" stroke-width="1"/>
<text x="12" y="344.00" font-size="12" fill="#555555">0.213700</text>
<line x1="90" y1="470.00" x2="1452" y2="470.00" stroke="#d9d9d9" stroke-dasharray="4 4" stroke-width="1"/>
<text x="12" y="474.00" font-size="12" fill="#555555">0.189500</text>
<line x1="90" y1="600.00" x2="1452" y2="600.00" stroke="#d9d9d9" stroke-dasharray="4 4" stroke-width="1"/>
<text x="12" y="604.00" font-size="12" fill="#555555">0.165300</text>
<line x1="90" y1="730.00" x2="1452" y2="730.00" stroke="#d9d9d9" stroke-dasharray="4 4" stroke-width="1"/>
<text x="12" y="734.00" font-size="12" fill="#555555">0.141100</text>
<rect x="525.84" y="80" width="54.48" height="650.00" fill="#f1c40f" opacity="0.16"/>
<line x1="553.08" y1="80" x2="553.08" y2="730" stroke="#f39c12" stroke-width="2" stroke-dasharray="6 4"/>
<line x1="90" y1="130.09" x2="1452" y2="130.09" stroke="#8e44ad" stroke-width="2" stroke-dasharray="8 4"/>
<text x="1444" y="122.09" font-size="13" fill="#8e44ad" text-anchor="end">10倍价 0.252776</text>
<line x1="117.24" y1="719.79" x2="117.24" y2="730.00" stroke="#e74c3c" stroke-width="2"/>
<rect x="101.99" y="722.48" width="30.51" height="3.22" fill="#e74c3c" stroke="#e74c3c" stroke-width="1"/>
<text x="117.24" y="802" font-size="11" fill="#555555" text-anchor="middle">10-15</text>
<text x="117.24" y="818" font-size="11" fill="#555555" text-anchor="middle">11:00</text>
<line x1="171.72" y1="718.72" x2="171.72" y2="727.31" stroke="#2ecc71" stroke-width="2"/>
<rect x="156.47" y="719.26" width="30.51" height="6.98" fill="#2ecc71" stroke="#2ecc71" stroke-width="1"/>
<text x="171.72" y="802" font-size="11" fill="#555555" text-anchor="middle">10-15</text>
<text x="171.72" y="818" font-size="11" fill="#555555" text-anchor="middle">11:15</text>
<line x1="226.20" y1="719.26" x2="226.20" y2="727.31" stroke="#e74c3c" stroke-width="2"/>
<rect x="210.95" y="719.26" width="30.51" height="5.37" fill="#e74c3c" stroke="#e74c3c" stroke-width="1"/>
<text x="226.20" y="802" font-size="11" fill="#555555" text-anchor="middle">10-15</text>
<text x="226.20" y="818" font-size="11" fill="#555555" text-anchor="middle">11:30</text>
<line x1="280.68" y1="715.50" x2="280.68" y2="728.93" stroke="#2ecc71" stroke-width="2"/>
<rect x="265.43" y="716.03" width="30.51" height="9.13" fill="#2ecc71" stroke="#2ecc71" stroke-width="1"/>
<text x="280.68" y="802" font-size="11" fill="#555555" text-anchor="middle">10-15</text>
<text x="280.68" y="818" font-size="11" fill="#555555" text-anchor="middle">11:45</text>
<line x1="335.16" y1="700.45" x2="335.16" y2="720.87" stroke="#2ecc71" stroke-width="2"/>
<rect x="319.91" y="700.99" width="30.51" height="15.58" fill="#2ecc71" stroke="#2ecc71" stroke-width="1"/>
<text x="335.16" y="802" font-size="11" fill="#555555" text-anchor="middle">10-15</text>
<text x="335.16" y="818" font-size="11" fill="#555555" text-anchor="middle">12:00</text>
<line x1="389.64" y1="675.74" x2="389.64" y2="707.98" stroke="#2ecc71" stroke-width="2"/>
<rect x="374.39" y="676.28" width="30.51" height="24.17" fill="#2ecc71" stroke="#2ecc71" stroke-width="1"/>
<text x="389.64" y="802" font-size="11" fill="#555555" text-anchor="middle">10-15</text>
<text x="389.64" y="818" font-size="11" fill="#555555" text-anchor="middle">12:15</text>
<line x1="444.12" y1="666.61" x2="444.12" y2="698.84" stroke="#e74c3c" stroke-width="2"/>
<rect x="428.87" y="676.82" width="30.51" height="20.95" fill="#e74c3c" stroke="#e74c3c" stroke-width="1"/>
<text x="444.12" y="802" font-size="11" fill="#555555" text-anchor="middle">10-15</text>
<text x="444.12" y="818" font-size="11" fill="#555555" text-anchor="middle">12:30</text>
<line x1="498.60" y1="685.95" x2="498.60" y2="698.84" stroke="#2ecc71" stroke-width="2"/>
<rect x="483.35" y="691.32" width="30.51" height="6.45" fill="#2ecc71" stroke="#2ecc71" stroke-width="1"/>
<text x="498.60" y="802" font-size="11" fill="#555555" text-anchor="middle">10-15</text>
<text x="498.60" y="818" font-size="11" fill="#555555" text-anchor="middle">12:45</text>
<line x1="553.08" y1="80.00" x2="553.08" y2="690.79" stroke="#2ecc71" stroke-width="2"/>
<rect x="537.83" y="398.02" width="30.51" height="292.77" fill="#2ecc71" stroke="#2ecc71" stroke-width="1"/>
<text x="553.08" y="802" font-size="11" fill="#555555" text-anchor="middle">10-15</text>
<text x="553.08" y="818" font-size="11" fill="#555555" text-anchor="middle">13:00</text>
<line x1="607.56" y1="390.50" x2="607.56" y2="481.28" stroke="#e74c3c" stroke-width="2"/>
<rect x="592.31" y="398.02" width="30.51" height="32.77" fill="#e74c3c" stroke="#e74c3c" stroke-width="1"/>
<text x="607.56" y="802" font-size="11" fill="#555555" text-anchor="middle">10-15</text>
<text x="607.56" y="818" font-size="11" fill="#555555" text-anchor="middle">13:15</text>
<line x1="662.04" y1="410.91" x2="662.04" y2="485.58" stroke="#e74c3c" stroke-width="2"/>
<rect x="646.79" y="430.79" width="30.51" height="15.58" fill="#e74c3c" stroke="#e74c3c" stroke-width="1"/>
<text x="662.04" y="802" font-size="11" fill="#555555" text-anchor="middle">10-15</text>
<text x="662.04" y="818" font-size="11" fill="#555555" text-anchor="middle">13:30</text>
<line x1="716.52" y1="389.96" x2="716.52" y2="463.55" stroke="#2ecc71" stroke-width="2"/>
<rect x="701.27" y="398.55" width="30.51" height="48.35" fill="#2ecc71" stroke="#2ecc71" stroke-width="1"/>
<text x="716.52" y="802" font-size="11" fill="#555555" text-anchor="middle">10-15</text>
<text x="716.52" y="818" font-size="11" fill="#555555" text-anchor="middle">13:45</text>
<line x1="771.00" y1="294.34" x2="771.00" y2="414.13" stroke="#2ecc71" stroke-width="2"/>
<rect x="755.75" y="374.38" width="30.51" height="24.71" fill="#2ecc71" stroke="#2ecc71" stroke-width="1"/>
<text x="771.00" y="802" font-size="11" fill="#555555" text-anchor="middle">10-15</text>
<text x="771.00" y="818" font-size="11" fill="#555555" text-anchor="middle">14:00</text>
<line x1="825.48" y1="363.64" x2="825.48" y2="457.11" stroke="#e74c3c" stroke-width="2"/>
<rect x="810.23" y="374.92" width="30.51" height="51.03" fill="#e74c3c" stroke="#e74c3c" stroke-width="1"/>
<text x="825.48" y="802" font-size="11" fill="#555555" text-anchor="middle">10-15</text>
<text x="825.48" y="818" font-size="11" fill="#555555" text-anchor="middle">14:15</text>
<line x1="879.96" y1="391.57" x2="879.96" y2="440.99" stroke="#2ecc71" stroke-width="2"/>
<rect x="864.71" y="410.37" width="30.51" height="15.58" fill="#2ecc71" stroke="#2ecc71" stroke-width="1"/>
<text x="879.96" y="802" font-size="11" fill="#555555" text-anchor="middle">10-15</text>
<text x="879.96" y="818" font-size="11" fill="#555555" text-anchor="middle">14:30</text>
<line x1="934.44" y1="405.00" x2="934.44" y2="446.36" stroke="#e74c3c" stroke-width="2"/>
<rect x="919.19" y="410.37" width="30.51" height="20.41" fill="#e74c3c" stroke="#e74c3c" stroke-width="1"/>
<text x="934.44" y="802" font-size="11" fill="#555555" text-anchor="middle">10-15</text>
<text x="934.44" y="818" font-size="11" fill="#555555" text-anchor="middle">14:45</text>
<line x1="988.92" y1="398.55" x2="988.92" y2="436.16" stroke="#2ecc71" stroke-width="2"/>
<rect x="973.67" y="413.06" width="30.51" height="18.26" fill="#2ecc71" stroke="#2ecc71" stroke-width="1"/>
<text x="988.92" y="802" font-size="11" fill="#555555" text-anchor="middle">10-15</text>
<text x="988.92" y="818" font-size="11" fill="#555555" text-anchor="middle">15:00</text>
<line x1="1043.40" y1="370.08" x2="1043.40" y2="428.10" stroke="#2ecc71" stroke-width="2"/>
<rect x="1028.15" y="377.07" width="30.51" height="35.45" fill="#2ecc71" stroke="#2ecc71" stroke-width="1"/>
<text x="1043.40" y="802" font-size="11" fill="#555555" text-anchor="middle">10-15</text>
<text x="1043.40" y="818" font-size="11" fill="#555555" text-anchor="middle">15:15</text>
<line x1="1097.88" y1="345.91" x2="1097.88" y2="391.03" stroke="#2ecc71" stroke-width="2"/>
<rect x="1082.63" y="357.19" width="30.51" height="19.88" fill="#2ecc71" stroke="#2ecc71" stroke-width="1"/>
<text x="1097.88" y="802" font-size="11" fill="#555555" text-anchor="middle">10-15</text>
<text x="1097.88" y="818" font-size="11" fill="#555555" text-anchor="middle">15:30</text>
<line x1="1152.36" y1="355.58" x2="1152.36" y2="397.48" stroke="#e74c3c" stroke-width="2"/>
<rect x="1137.11" y="357.73" width="30.51" height="26.32" fill="#e74c3c" stroke="#e74c3c" stroke-width="1"/>
<text x="1152.36" y="802" font-size="11" fill="#555555" text-anchor="middle">10-15</text>
<text x="1152.36" y="818" font-size="11" fill="#555555" text-anchor="middle">15:45</text>
<line x1="1206.84" y1="366.32" x2="1206.84" y2="409.83" stroke="#e74c3c" stroke-width="2"/>
<rect x="1191.59" y="383.51" width="30.51" height="11.82" fill="#e74c3c" stroke="#e74c3c" stroke-width="1"/>
<text x="1206.84" y="802" font-size="11" fill="#555555" text-anchor="middle">10-15</text>
<text x="1206.84" y="818" font-size="11" fill="#555555" text-anchor="middle">16:00</text>
<line x1="1261.32" y1="378.68" x2="1261.32" y2="411.98" stroke="#2ecc71" stroke-width="2"/>
<rect x="1246.07" y="392.64" width="30.51" height="2.15" fill="#2ecc71" stroke="#2ecc71" stroke-width="1"/>
<text x="1261.32" y="802" font-size="11" fill="#555555" text-anchor="middle">10-15</text>
<text x="1261.32" y="818" font-size="11" fill="#555555" text-anchor="middle">16:15</text>
<line x1="1315.80" y1="385.66" x2="1315.80" y2="429.17" stroke="#e74c3c" stroke-width="2"/>
<rect x="1300.55" y="392.64" width="30.51" height="29.55" fill="#e74c3c" stroke="#e74c3c" stroke-width="1"/>
<text x="1315.80" y="802" font-size="11" fill="#555555" text-anchor="middle">10-15</text>
<text x="1315.80" y="818" font-size="11" fill="#555555" text-anchor="middle">16:30</text>
<line x1="1370.28" y1="416.82" x2="1370.28" y2="433.47" stroke="#e74c3c" stroke-width="2"/>
<rect x="1355.03" y="421.65" width="30.51" height="3.76" fill="#e74c3c" stroke="#e74c3c" stroke-width="1"/>
<text x="1370.28" y="802" font-size="11" fill="#555555" text-anchor="middle">10-15</text>
<text x="1370.28" y="818" font-size="11" fill="#555555" text-anchor="middle">16:45</text>
<line x1="1424.76" y1="410.91" x2="1424.76" y2="430.25" stroke="#2ecc71" stroke-width="2"/>
<rect x="1409.51" y="423.26" width="30.51" height="2.15" fill="#2ecc71" stroke="#2ecc71" stroke-width="1"/>
<text x="1424.76" y="802" font-size="11" fill="#555555" text-anchor="middle">10-15</text>
<text x="1424.76" y="818" font-size="11" fill="#555555" text-anchor="middle">17:00</text>
<line x1="553.08" y1="80.00" x2="623.08" y2="104.00" stroke="#f39c12" stroke-width="2"/>
<rect x="623.08" y="52.00" width="280" height="90" rx="10" fill="#fff8dc" stroke="#f39c12"/>
<text x="635.08" y="76.00" font-size="13" fill="#111111">15m定位时间 2025-10-15 13:00:00</text>
<text x="635.08" y="96.00" font-size="13" fill="#111111">该15m最高价 0.262100</text>
<text x="635.08" y="116.00" font-size="13" fill="#111111">10倍价横线已标出</text>
<text x="635.08" y="136.00" font-size="13" fill="#111111">竖线高亮首次触达10倍价的15m</text>
</svg>