<svg xmlns="http://www.w3.org/2000/svg" width="1500" height="860" viewBox="0 0 1500 860">
<rect width="100%" height="100%" fill="#fcfcfc"/>
<text x="90" y="38" font-size="28" font-weight="700" fill="#111111">ZAMA-USDT-SWAP 15m - 10倍命中定位图</text>
<text x="90" y="68" font-size="16" fill="#555555">1H命中时间: 2026-04-14 13:00:00 | 10倍价: 0.033040 | 命中倍数: 10.3072x</text>
<line x1="90" y1="80.00" x2="1452" y2="80.00" stroke="#d9d9d9" stroke-dasharray="4 4" stroke-width="1"/>
<text x="12" y="84.00" font-size="12" fill="#555555">0.035050</text>
<line x1="90" y1="210.00" x2="1452" y2="210.00" stroke="#d9d9d9" stroke-dasharray="4 4" stroke-width="1"/>
<text x="12" y="214.00" font-size="12" fill="#555555">0.033322</text>
<line x1="90" y1="340.00" x2="1452" y2="340.00" stroke="#d9d9d9" stroke-dasharray="4 4" stroke-width="1"/>
<text x="12" y="344.00" font-size="12" fill="#555555">0.031594</text>
<line x1="90" y1="470.00" x2="1452" y2="470.00" stroke="#d9d9d9" stroke-dasharray="4 4" stroke-width="1"/>
<text x="12" y="474.00" font-size="12" fill="#555555">0.029866</text>
<line x1="90" y1="600.00" x2="1452" y2="600.00" stroke="#d9d9d9" stroke-dasharray="4 4" stroke-width="1"/>
<text x="12" y="604.00" font-size="12" fill="#555555">0.028138</text>
<line x1="90" y1="730.00" x2="1452" y2="730.00" stroke="#d9d9d9" stroke-dasharray="4 4" stroke-width="1"/>
<text x="12" y="734.00" font-size="12" fill="#555555">0.026410</text>
<rect x="634.80" y="80" width="54.48" height="650.00" fill="#f1c40f" opacity="0.16"/>
<line x1="662.04" y1="80" x2="662.04" y2="730" stroke="#f39c12" stroke-width="2" stroke-dasharray="6 4"/>
<line x1="90" y1="231.20" x2="1452" y2="231.20" stroke="#8e44ad" stroke-width="2" stroke-dasharray="8 4"/>
<text x="1444" y="223.20" font-size="13" fill="#8e44ad" text-anchor="end">10倍价 0.033040</text>
<line x1="117.24" y1="663.04" x2="117.24" y2="708.18" stroke="#e74c3c" stroke-width="2"/>
<rect x="101.99" y="663.04" width="30.51" height="40.63" fill="#e74c3c" stroke="#e74c3c" stroke-width="1"/>
<text x="117.24" y="802" font-size="11" fill="#555555" text-anchor="middle">04-14</text>
<text x="117.24" y="818" font-size="11" fill="#555555" text-anchor="middle">11:00</text>
<line x1="171.72" y1="693.14" x2="171.72" y2="716.46" stroke="#e74c3c" stroke-width="2"/>
<rect x="156.47" y="705.17" width="30.51" height="4.51" fill="#e74c3c" stroke="#e74c3c" stroke-width="1"/>
<text x="171.72" y="802" font-size="11" fill="#555555" text-anchor="middle">04-14</text>
<text x="171.72" y="818" font-size="11" fill="#555555" text-anchor="middle">11:15</text>
<line x1="226.20" y1="695.39" x2="226.20" y2="708.94" stroke="#2ecc71" stroke-width="2"/>
<rect x="210.95" y="704.42" width="30.51" height="4.51" fill="#2ecc71" stroke="#2ecc71" stroke-width="1"/>
<text x="226.20" y="802" font-size="11" fill="#555555" text-anchor="middle">04-14</text>
<text x="226.20" y="818" font-size="11" fill="#555555" text-anchor="middle">11:30</text>
<line x1="280.68" y1="698.40" x2="280.68" y2="713.45" stroke="#e74c3c" stroke-width="2"/>
<rect x="265.43" y="703.67" width="30.51" height="9.78" fill="#e74c3c" stroke="#e74c3c" stroke-width="1"/>
<text x="280.68" y="802" font-size="11" fill="#555555" text-anchor="middle">04-14</text>
<text x="280.68" y="818" font-size="11" fill="#555555" text-anchor="middle">11:45</text>
<line x1="335.16" y1="712.70" x2="335.16" y2="730.00" stroke="#e74c3c" stroke-width="2"/>
<rect x="319.91" y="713.45" width="30.51" height="4.51" fill="#e74c3c" stroke="#e74c3c" stroke-width="1"/>
<text x="335.16" y="802" font-size="11" fill="#555555" text-anchor="middle">04-14</text>
<text x="335.16" y="818" font-size="11" fill="#555555" text-anchor="middle">12:00</text>
<line x1="389.64" y1="686.37" x2="389.64" y2="717.21" stroke="#2ecc71" stroke-width="2"/>
<rect x="374.39" y="686.37" width="30.51" height="30.84" fill="#2ecc71" stroke="#2ecc71" stroke-width="1"/>
<text x="389.64" y="802" font-size="11" fill="#555555" text-anchor="middle">04-14</text>
<text x="389.64" y="818" font-size="11" fill="#555555" text-anchor="middle">12:15</text>
<line x1="444.12" y1="684.11" x2="444.12" y2="717.21" stroke="#e74c3c" stroke-width="2"/>
<rect x="428.87" y="686.37" width="30.51" height="18.06" fill="#e74c3c" stroke="#e74c3c" stroke-width="1"/>
<text x="444.12" y="802" font-size="11" fill="#555555" text-anchor="middle">04-14</text>
<text x="444.12" y="818" font-size="11" fill="#555555" text-anchor="middle">12:30</text>
<line x1="498.60" y1="687.87" x2="498.60" y2="705.93" stroke="#2ecc71" stroke-width="2"/>
<rect x="483.35" y="687.87" width="30.51" height="16.55" fill="#2ecc71" stroke="#2ecc71" stroke-width="1"/>
<text x="498.60" y="802" font-size="11" fill="#555555" text-anchor="middle">04-14</text>
<text x="498.60" y="818" font-size="11" fill="#555555" text-anchor="middle">12:45</text>
<line x1="553.08" y1="674.33" x2="553.08" y2="696.15" stroke="#2ecc71" stroke-width="2"/>
<rect x="537.83" y="676.59" width="30.51" height="10.53" fill="#2ecc71" stroke="#2ecc71" stroke-width="1"/>
<text x="553.08" y="802" font-size="11" fill="#555555" text-anchor="middle">04-14</text>
<text x="553.08" y="818" font-size="11" fill="#555555" text-anchor="middle">13:00</text>
<line x1="607.56" y1="648.00" x2="607.56" y2="677.34" stroke="#2ecc71" stroke-width="2"/>
<rect x="592.31" y="648.00" width="30.51" height="29.34" fill="#2ecc71" stroke="#2ecc71" stroke-width="1"/>
<text x="607.56" y="802" font-size="11" fill="#555555" text-anchor="middle">04-14</text>
<text x="607.56" y="818" font-size="11" fill="#555555" text-anchor="middle">13:15</text>
<line x1="662.04" y1="216.92" x2="662.04" y2="654.02" stroke="#2ecc71" stroke-width="2"/>
<rect x="646.79" y="389.95" width="30.51" height="257.29" fill="#2ecc71" stroke="#2ecc71" stroke-width="1"/>
<text x="662.04" y="802" font-size="11" fill="#555555" text-anchor="middle">04-14</text>
<text x="662.04" y="818" font-size="11" fill="#555555" text-anchor="middle">13:30</text>
<line x1="716.52" y1="361.37" x2="716.52" y2="491.52" stroke="#e74c3c" stroke-width="2"/>
<rect x="701.27" y="392.21" width="30.51" height="60.19" fill="#e74c3c" stroke="#e74c3c" stroke-width="1"/>
<text x="716.52" y="802" font-size="11" fill="#555555" text-anchor="middle">04-14</text>
<text x="716.52" y="818" font-size="11" fill="#555555" text-anchor="middle">13:45</text>
<line x1="771.00" y1="387.70" x2="771.00" y2="479.48" stroke="#2ecc71" stroke-width="2"/>
<rect x="755.75" y="394.47" width="30.51" height="57.93" fill="#2ecc71" stroke="#2ecc71" stroke-width="1"/>
<text x="771.00" y="802" font-size="11" fill="#555555" text-anchor="middle">04-14</text>
<text x="771.00" y="818" font-size="11" fill="#555555" text-anchor="middle">14:00</text>
<line x1="825.48" y1="385.44" x2="825.48" y2="620.16" stroke="#e74c3c" stroke-width="2"/>
<rect x="810.23" y="393.72" width="30.51" height="159.49" fill="#e74c3c" stroke="#e74c3c" stroke-width="1"/>
<text x="825.48" y="802" font-size="11" fill="#555555" text-anchor="middle">04-14</text>
<text x="825.48" y="818" font-size="11" fill="#555555" text-anchor="middle">14:15</text>
<line x1="879.96" y1="543.43" x2="879.96" y2="624.68" stroke="#e74c3c" stroke-width="2"/>
<rect x="864.71" y="554.71" width="30.51" height="58.68" fill="#e74c3c" stroke="#e74c3c" stroke-width="1"/>
<text x="879.96" y="802" font-size="11" fill="#555555" text-anchor="middle">04-14</text>
<text x="879.96" y="818" font-size="11" fill="#555555" text-anchor="middle">14:30</text>
<line x1="934.44" y1="581.04" x2="934.44" y2="627.69" stroke="#2ecc71" stroke-width="2"/>
<rect x="919.19" y="611.13" width="30.51" height="3.76" fill="#2ecc71" stroke="#2ecc71" stroke-width="1"/>
<text x="934.44" y="802" font-size="11" fill="#555555" text-anchor="middle">04-14</text>
<text x="934.44" y="818" font-size="11" fill="#555555" text-anchor="middle">14:45</text>
<line x1="988.92" y1="548.69" x2="988.92" y2="618.66" stroke="#2ecc71" stroke-width="2"/>
<rect x="973.67" y="591.57" width="30.51" height="21.06" fill="#2ecc71" stroke="#2ecc71" stroke-width="1"/>
<text x="988.92" y="802" font-size="11" fill="#555555" text-anchor="middle">04-14</text>
<text x="988.92" y="818" font-size="11" fill="#555555" text-anchor="middle">15:00</text>
<line x1="1043.40" y1="573.52" x2="1043.40" y2="669.81" stroke="#e74c3c" stroke-width="2"/>
<rect x="1028.15" y="591.57" width="30.51" height="76.74" fill="#e74c3c" stroke="#e74c3c" stroke-width="1"/>
<text x="1043.40" y="802" font-size="11" fill="#555555" text-anchor="middle">04-14</text>
<text x="1043.40" y="818" font-size="11" fill="#555555" text-anchor="middle">15:15</text>
<line x1="1097.88" y1="646.49" x2="1097.88" y2="681.10" stroke="#2ecc71" stroke-width="2"/>
<rect x="1082.63" y="657.03" width="30.51" height="10.53" fill="#2ecc71" stroke="#2ecc71" stroke-width="1"/>
<text x="1097.88" y="802" font-size="11" fill="#555555" text-anchor="middle">04-14</text>
<text x="1097.88" y="818" font-size="11" fill="#555555" text-anchor="middle">15:30</text>
<line x1="1152.36" y1="80.00" x2="1152.36" y2="673.58" stroke="#2ecc71" stroke-width="2"/>
<rect x="1137.11" y="357.60" width="30.51" height="298.67" fill="#2ecc71" stroke="#2ecc71" stroke-width="1"/>
<text x="1152.36" y="802" font-size="11" fill="#555555" text-anchor="middle">04-14</text>
<text x="1152.36" y="818" font-size="11" fill="#555555" text-anchor="middle">15:45</text>
<line x1="1206.84" y1="303.44" x2="1206.84" y2="398.23" stroke="#e74c3c" stroke-width="2"/>
<rect x="1191.59" y="356.85" width="30.51" height="24.07" fill="#e74c3c" stroke="#e74c3c" stroke-width="1"/>
<text x="1206.84" y="802" font-size="11" fill="#555555" text-anchor="middle">04-14</text>
<text x="1206.84" y="818" font-size="11" fill="#555555" text-anchor="middle">16:00</text>
<line x1="1261.32" y1="375.66" x2="1261.32" y2="527.63" stroke="#e74c3c" stroke-width="2"/>
<rect x="1246.07" y="380.93" width="30.51" height="124.13" fill="#e74c3c" stroke="#e74c3c" stroke-width="1"/>
<text x="1261.32" y="802" font-size="11" fill="#555555" text-anchor="middle">04-14</text>
<text x="1261.32" y="818" font-size="11" fill="#555555" text-anchor="middle">16:15</text>
<line x1="1315.80" y1="423.81" x2="1315.80" y2="513.33" stroke="#2ecc71" stroke-width="2"/>
<rect x="1300.55" y="429.83" width="30.51" height="75.23" fill="#2ecc71" stroke="#2ecc71" stroke-width="1"/>
<text x="1315.80" y="802" font-size="11" fill="#555555" text-anchor="middle">04-14</text>
<text x="1315.80" y="818" font-size="11" fill="#555555" text-anchor="middle">16:30</text>
<line x1="1370.28" y1="401.99" x2="1370.28" y2="485.50" stroke="#e74c3c" stroke-width="2"/>
<rect x="1355.03" y="430.58" width="30.51" height="52.66" fill="#e74c3c" stroke="#e74c3c" stroke-width="1"/>
<text x="1370.28" y="802" font-size="11" fill="#555555" text-anchor="middle">04-14</text>
<text x="1370.28" y="818" font-size="11" fill="#555555" text-anchor="middle">16:45</text>
<line x1="1424.76" y1="405.00" x2="1424.76" y2="484.75" stroke="#2ecc71" stroke-width="2"/>
<rect x="1409.51" y="414.03" width="30.51" height="69.97" fill="#2ecc71" stroke="#2ecc71" stroke-width="1"/>
<text x="1424.76" y="802" font-size="11" fill="#555555" text-anchor="middle">04-14</text>
<text x="1424.76" y="818" font-size="11" fill="#555555" text-anchor="middle">17:00</text>
<line x1="662.04" y1="216.92" x2="732.04" y2="126.92" stroke="#f39c12" stroke-width="2"/>
<rect x="732.04" y="74.92" width="280" height="90" rx="10" fill="#fff8dc" stroke="#f39c12"/>
<text x="744.04" y="98.92" font-size="13" fill="#111111">15m定位时间 2026-04-14 13:30:00</text>
<text x="744.04" y="118.92" font-size="13" fill="#111111">该15m最高价 0.033230</text>
<text x="744.04" y="138.92" font-size="13" fill="#111111">10倍价横线已标出</text>
<text x="744.04" y="158.92" font-size="13" fill="#111111">竖线高亮首次触达10倍价的15m</text>
</svg>