<svg xmlns="http://www.w3.org/2000/svg" width="1500" height="860" viewBox="0 0 1500 860">
<rect width="100%" height="100%" fill="#fcfcfc"/>
<text x="90" y="38" font-size="28" font-weight="700" fill="#111111">ZRX-USDT-SWAP 15m - 10倍命中定位图</text>
<text x="90" y="68" font-size="16" fill="#555555">1H命中时间: 2025-12-30 08:00:00 | 10倍价: 0.167126 | 命中倍数: 11.0437x</text>
<line x1="90" y1="80.00" x2="1452" y2="80.00" stroke="#d9d9d9" stroke-dasharray="4 4" stroke-width="1"/>
<text x="12" y="84.00" font-size="12" fill="#555555">0.170500</text>
<line x1="90" y1="210.00" x2="1452" y2="210.00" stroke="#d9d9d9" stroke-dasharray="4 4" stroke-width="1"/>
<text x="12" y="214.00" font-size="12" fill="#555555">0.163360</text>
<line x1="90" y1="340.00" x2="1452" y2="340.00" stroke="#d9d9d9" stroke-dasharray="4 4" stroke-width="1"/>
<text x="12" y="344.00" font-size="12" fill="#555555">0.156220</text>
<line x1="90" y1="470.00" x2="1452" y2="470.00" stroke="#d9d9d9" stroke-dasharray="4 4" stroke-width="1"/>
<text x="12" y="474.00" font-size="12" fill="#555555">0.149080</text>
<line x1="90" y1="600.00" x2="1452" y2="600.00" stroke="#d9d9d9" stroke-dasharray="4 4" stroke-width="1"/>
<text x="12" y="604.00" font-size="12" fill="#555555">0.141940</text>
<line x1="90" y1="730.00" x2="1452" y2="730.00" stroke="#d9d9d9" stroke-dasharray="4 4" stroke-width="1"/>
<text x="12" y="734.00" font-size="12" fill="#555555">0.134800</text>
<rect x="525.84" y="80" width="54.48" height="650.00" fill="#f1c40f" opacity="0.16"/>
<line x1="553.08" y1="80" x2="553.08" y2="730" stroke="#f39c12" stroke-width="2" stroke-dasharray="6 4"/>
<line x1="90" y1="141.43" x2="1452" y2="141.43" stroke="#8e44ad" stroke-width="2" stroke-dasharray="8 4"/>
<text x="1444" y="133.43" font-size="13" fill="#8e44ad" text-anchor="end">10倍价 0.167126</text>
<line x1="117.24" y1="682.66" x2="117.24" y2="711.79" stroke="#e74c3c" stroke-width="2"/>
<rect x="101.99" y="684.48" width="30.51" height="14.57" fill="#e74c3c" stroke="#e74c3c" stroke-width="1"/>
<text x="117.24" y="802" font-size="11" fill="#555555" text-anchor="middle">12-30</text>
<text x="117.24" y="818" font-size="11" fill="#555555" text-anchor="middle">06:00</text>
<line x1="171.72" y1="684.48" x2="171.72" y2="702.69" stroke="#2ecc71" stroke-width="2"/>
<rect x="156.47" y="691.76" width="30.51" height="7.28" fill="#2ecc71" stroke="#2ecc71" stroke-width="1"/>
<text x="171.72" y="802" font-size="11" fill="#555555" text-anchor="middle">12-30</text>
<text x="171.72" y="818" font-size="11" fill="#555555" text-anchor="middle">06:15</text>
<line x1="226.20" y1="693.59" x2="226.20" y2="708.15" stroke="#e74c3c" stroke-width="2"/>
<rect x="210.95" y="693.59" width="30.51" height="7.28" fill="#e74c3c" stroke="#e74c3c" stroke-width="1"/>
<text x="226.20" y="802" font-size="11" fill="#555555" text-anchor="middle">12-30</text>
<text x="226.20" y="818" font-size="11" fill="#555555" text-anchor="middle">06:30</text>
<line x1="280.68" y1="679.02" x2="280.68" y2="702.69" stroke="#2ecc71" stroke-width="2"/>
<rect x="265.43" y="682.66" width="30.51" height="18.21" fill="#2ecc71" stroke="#2ecc71" stroke-width="1"/>
<text x="280.68" y="802" font-size="11" fill="#555555" text-anchor="middle">12-30</text>
<text x="280.68" y="818" font-size="11" fill="#555555" text-anchor="middle">06:45</text>
<line x1="335.16" y1="662.63" x2="335.16" y2="695.41" stroke="#e74c3c" stroke-width="2"/>
<rect x="319.91" y="682.66" width="30.51" height="5.46" fill="#e74c3c" stroke="#e74c3c" stroke-width="1"/>
<text x="335.16" y="802" font-size="11" fill="#555555" text-anchor="middle">12-30</text>
<text x="335.16" y="818" font-size="11" fill="#555555" text-anchor="middle">07:00</text>
<line x1="389.64" y1="664.45" x2="389.64" y2="695.41" stroke="#2ecc71" stroke-width="2"/>
<rect x="374.39" y="679.02" width="30.51" height="9.10" fill="#2ecc71" stroke="#2ecc71" stroke-width="1"/>
<text x="389.64" y="802" font-size="11" fill="#555555" text-anchor="middle">12-30</text>
<text x="389.64" y="818" font-size="11" fill="#555555" text-anchor="middle">07:15</text>
<line x1="444.12" y1="671.74" x2="444.12" y2="688.12" stroke="#2ecc71" stroke-width="2"/>
<rect x="428.87" y="679.02" width="30.51" height="1.20" fill="#2ecc71" stroke="#2ecc71" stroke-width="1"/>
<text x="444.12" y="802" font-size="11" fill="#555555" text-anchor="middle">12-30</text>
<text x="444.12" y="818" font-size="11" fill="#555555" text-anchor="middle">07:30</text>
<line x1="498.60" y1="637.14" x2="498.60" y2="686.30" stroke="#2ecc71" stroke-width="2"/>
<rect x="483.35" y="657.17" width="30.51" height="21.85" fill="#2ecc71" stroke="#2ecc71" stroke-width="1"/>
<text x="498.60" y="802" font-size="11" fill="#555555" text-anchor="middle">12-30</text>
<text x="498.60" y="818" font-size="11" fill="#555555" text-anchor="middle">07:45</text>
<line x1="553.08" y1="80.00" x2="553.08" y2="730.00" stroke="#2ecc71" stroke-width="2"/>
<rect x="537.83" y="285.74" width="30.51" height="371.43" fill="#2ecc71" stroke="#2ecc71" stroke-width="1"/>
<text x="553.08" y="802" font-size="11" fill="#555555" text-anchor="middle">12-30</text>
<text x="553.08" y="818" font-size="11" fill="#555555" text-anchor="middle">08:00</text>
<line x1="607.56" y1="118.24" x2="607.56" y2="322.16" stroke="#2ecc71" stroke-width="2"/>
<rect x="592.31" y="256.61" width="30.51" height="30.95" fill="#2ecc71" stroke="#2ecc71" stroke-width="1"/>
<text x="607.56" y="802" font-size="11" fill="#555555" text-anchor="middle">12-30</text>
<text x="607.56" y="818" font-size="11" fill="#555555" text-anchor="middle">08:15</text>
<line x1="662.04" y1="194.71" x2="662.04" y2="294.85" stroke="#e74c3c" stroke-width="2"/>
<rect x="646.79" y="254.79" width="30.51" height="5.46" fill="#e74c3c" stroke="#e74c3c" stroke-width="1"/>
<text x="662.04" y="802" font-size="11" fill="#555555" text-anchor="middle">12-30</text>
<text x="662.04" y="818" font-size="11" fill="#555555" text-anchor="middle">08:30</text>
<line x1="716.52" y1="118.24" x2="716.52" y2="267.54" stroke="#2ecc71" stroke-width="2"/>
<rect x="701.27" y="185.60" width="30.51" height="74.65" fill="#2ecc71" stroke="#2ecc71" stroke-width="1"/>
<text x="716.52" y="802" font-size="11" fill="#555555" text-anchor="middle">12-30</text>
<text x="716.52" y="818" font-size="11" fill="#555555" text-anchor="middle">08:45</text>
<line x1="771.00" y1="151.01" x2="771.00" y2="338.54" stroke="#e74c3c" stroke-width="2"/>
<rect x="755.75" y="187.42" width="30.51" height="123.81" fill="#e74c3c" stroke="#e74c3c" stroke-width="1"/>
<text x="771.00" y="802" font-size="11" fill="#555555" text-anchor="middle">12-30</text>
<text x="771.00" y="818" font-size="11" fill="#555555" text-anchor="middle">09:00</text>
<line x1="825.48" y1="274.82" x2="825.48" y2="331.26" stroke="#2ecc71" stroke-width="2"/>
<rect x="810.23" y="294.85" width="30.51" height="16.39" fill="#2ecc71" stroke="#2ecc71" stroke-width="1"/>
<text x="825.48" y="802" font-size="11" fill="#555555" text-anchor="middle">12-30</text>
<text x="825.48" y="818" font-size="11" fill="#555555" text-anchor="middle">09:15</text>
<line x1="879.96" y1="276.64" x2="879.96" y2="364.03" stroke="#e74c3c" stroke-width="2"/>
<rect x="864.71" y="294.85" width="30.51" height="7.28" fill="#e74c3c" stroke="#e74c3c" stroke-width="1"/>
<text x="879.96" y="802" font-size="11" fill="#555555" text-anchor="middle">12-30</text>
<text x="879.96" y="818" font-size="11" fill="#555555" text-anchor="middle">09:30</text>
<line x1="934.44" y1="262.07" x2="934.44" y2="316.69" stroke="#2ecc71" stroke-width="2"/>
<rect x="919.19" y="293.03" width="30.51" height="12.75" fill="#2ecc71" stroke="#2ecc71" stroke-width="1"/>
<text x="934.44" y="802" font-size="11" fill="#555555" text-anchor="middle">12-30</text>
<text x="934.44" y="818" font-size="11" fill="#555555" text-anchor="middle">09:45</text>
<line x1="988.92" y1="201.99" x2="988.92" y2="327.62" stroke="#2ecc71" stroke-width="2"/>
<rect x="973.67" y="238.40" width="30.51" height="56.44" fill="#2ecc71" stroke="#2ecc71" stroke-width="1"/>
<text x="988.92" y="802" font-size="11" fill="#555555" text-anchor="middle">12-30</text>
<text x="988.92" y="818" font-size="11" fill="#555555" text-anchor="middle">10:00</text>
<line x1="1043.40" y1="178.32" x2="1043.40" y2="245.69" stroke="#2ecc71" stroke-width="2"/>
<rect x="1028.15" y="205.63" width="30.51" height="30.95" fill="#2ecc71" stroke="#2ecc71" stroke-width="1"/>
<text x="1043.40" y="802" font-size="11" fill="#555555" text-anchor="middle">12-30</text>
<text x="1043.40" y="818" font-size="11" fill="#555555" text-anchor="middle">10:15</text>
<line x1="1097.88" y1="194.71" x2="1097.88" y2="271.18" stroke="#e74c3c" stroke-width="2"/>
<rect x="1082.63" y="203.81" width="30.51" height="47.34" fill="#e74c3c" stroke="#e74c3c" stroke-width="1"/>
<text x="1097.88" y="802" font-size="11" fill="#555555" text-anchor="middle">12-30</text>
<text x="1097.88" y="818" font-size="11" fill="#555555" text-anchor="middle">10:30</text>
<line x1="1152.36" y1="214.73" x2="1152.36" y2="254.79" stroke="#2ecc71" stroke-width="2"/>
<rect x="1137.11" y="229.30" width="30.51" height="23.67" fill="#2ecc71" stroke="#2ecc71" stroke-width="1"/>
<text x="1152.36" y="802" font-size="11" fill="#555555" text-anchor="middle">12-30</text>
<text x="1152.36" y="818" font-size="11" fill="#555555" text-anchor="middle">10:45</text>
<line x1="1206.84" y1="218.38" x2="1206.84" y2="271.18" stroke="#e74c3c" stroke-width="2"/>
<rect x="1191.59" y="227.48" width="30.51" height="27.31" fill="#e74c3c" stroke="#e74c3c" stroke-width="1"/>
<text x="1206.84" y="802" font-size="11" fill="#555555" text-anchor="middle">12-30</text>
<text x="1206.84" y="818" font-size="11" fill="#555555" text-anchor="middle">11:00</text>
<line x1="1261.32" y1="185.60" x2="1261.32" y2="263.89" stroke="#2ecc71" stroke-width="2"/>
<rect x="1246.07" y="214.73" width="30.51" height="40.06" fill="#2ecc71" stroke="#2ecc71" stroke-width="1"/>
<text x="1261.32" y="802" font-size="11" fill="#555555" text-anchor="middle">12-30</text>
<text x="1261.32" y="818" font-size="11" fill="#555555" text-anchor="middle">11:15</text>
<line x1="1315.80" y1="171.04" x2="1315.80" y2="236.58" stroke="#2ecc71" stroke-width="2"/>
<rect x="1300.55" y="191.06" width="30.51" height="25.49" fill="#2ecc71" stroke="#2ecc71" stroke-width="1"/>
<text x="1315.80" y="802" font-size="11" fill="#555555" text-anchor="middle">12-30</text>
<text x="1315.80" y="818" font-size="11" fill="#555555" text-anchor="middle">11:30</text>
<line x1="1370.28" y1="165.57" x2="1370.28" y2="234.76" stroke="#e74c3c" stroke-width="2"/>
<rect x="1355.03" y="192.89" width="30.51" height="21.85" fill="#e74c3c" stroke="#e74c3c" stroke-width="1"/>
<text x="1370.28" y="802" font-size="11" fill="#555555" text-anchor="middle">12-30</text>
<text x="1370.28" y="818" font-size="11" fill="#555555" text-anchor="middle">11:45</text>
<line x1="1424.76" y1="180.14" x2="1424.76" y2="232.94" stroke="#e74c3c" stroke-width="2"/>
<rect x="1409.51" y="214.73" width="30.51" height="12.75" fill="#e74c3c" stroke="#e74c3c" stroke-width="1"/>
<text x="1424.76" y="802" font-size="11" fill="#555555" text-anchor="middle">12-30</text>
<text x="1424.76" y="818" font-size="11" fill="#555555" text-anchor="middle">12:00</text>
<line x1="553.08" y1="80.00" x2="623.08" y2="104.00" stroke="#f39c12" stroke-width="2"/>
<rect x="623.08" y="52.00" width="280" height="90" rx="10" fill="#fff8dc" stroke="#f39c12"/>
<text x="635.08" y="76.00" font-size="13" fill="#111111">15m定位时间 2025-12-30 08:00:00</text>
<text x="635.08" y="96.00" font-size="13" fill="#111111">该15m最高价 0.170500</text>
<text x="635.08" y="116.00" font-size="13" fill="#111111">10倍价横线已标出</text>
<text x="635.08" y="136.00" font-size="13" fill="#111111">竖线高亮首次触达10倍价的15m</text>
</svg>