<svg xmlns="http://www.w3.org/2000/svg" width="1500" height="740" viewBox="0 0 1500 740">
<rect width="100%" height="100%" fill="#fcfcfc"/>
<text x="48" y="58" font-size="30" font-weight="700" fill="#111111">第二根最高价相对10倍价 Top 10</text>
<text x="48" y="96" font-size="18" fill="#555555">统计10倍命中后第二根K线最高价，相对10倍价是上涨还是回落</text>
<line x1="860.00" y1="110" x2="860.00" y2="710" stroke="#999999" stroke-dasharray="4 4"/>
<text x="320" y="152" font-size="17" fill="#111111" text-anchor="end">VANA-USDT-SWAP 2026-02-09 21:00:00</text>
<rect x="340" y="130" width="1040.00" height="30" rx="8" fill="#efefef"/>
<rect x="860.00" y="130" width="490.00" height="30" rx="8" fill="#27ae60"/>
<text x="1360.00" y="152" font-size="16" fill="#333333">1.116x (11.58%)</text>
<text x="320" y="204" font-size="17" fill="#111111" text-anchor="end">UMA-USDT-SWAP 2025-06-06 22:00:00</text>
<rect x="340" y="182" width="1040.00" height="30" rx="8" fill="#efefef"/>
<rect x="860.00" y="182" width="472.01" height="30" rx="8" fill="#27ae60"/>
<text x="1342.01" y="204" font-size="16" fill="#333333">1.112x (11.16%)</text>
<text x="320" y="256" font-size="17" fill="#111111" text-anchor="end">APE-USDT-SWAP 2024-10-20 05:00:00</text>
<rect x="340" y="234" width="1040.00" height="30" rx="8" fill="#efefef"/>
<rect x="860.00" y="234" width="255.45" height="30" rx="8" fill="#27ae60"/>
<text x="1125.45" y="256" font-size="16" fill="#333333">1.060x (6.04%)</text>
<text x="320" y="308" font-size="17" fill="#111111" text-anchor="end">UMA-USDT-SWAP 2025-11-09 16:00:00</text>
<rect x="340" y="286" width="1040.00" height="30" rx="8" fill="#efefef"/>
<rect x="860.00" y="286" width="252.95" height="30" rx="8" fill="#27ae60"/>
<text x="1122.95" y="308" font-size="16" fill="#333333">1.060x (5.98%)</text>
<text x="320" y="360" font-size="17" fill="#111111" text-anchor="end">UMA-USDT-SWAP 2025-03-22 22:00:00</text>
<rect x="340" y="338" width="1040.00" height="30" rx="8" fill="#efefef"/>
<rect x="860.00" y="338" width="179.27" height="30" rx="8" fill="#27ae60"/>
<text x="1049.27" y="360" font-size="16" fill="#333333">1.042x (4.24%)</text>
<text x="320" y="412" font-size="17" fill="#111111" text-anchor="end">ZRX-USDT-SWAP 2025-12-30 08:00:00</text>
<rect x="340" y="390" width="1040.00" height="30" rx="8" fill="#efefef"/>
<rect x="846.68" y="390" width="13.32" height="30" rx="8" fill="#e74c3c"/>
<text x="870.00" y="412" font-size="16" fill="#333333">0.997x (-0.31%)</text>
<text x="320" y="464" font-size="17" fill="#111111" text-anchor="end">2Z-USDT-SWAP 2025-11-22 00:00:00</text>
<rect x="340" y="442" width="1040.00" height="30" rx="8" fill="#efefef"/>
<rect x="743.36" y="442" width="116.64" height="30" rx="8" fill="#e74c3c"/>
<text x="870.00" y="464" font-size="16" fill="#333333">0.972x (-2.76%)</text>
<text x="320" y="516" font-size="17" fill="#111111" text-anchor="end">VIRTUAL-USDT-SWAP 2025-04-11 18:00:00</text>
<rect x="340" y="494" width="1040.00" height="30" rx="8" fill="#efefef"/>
<rect x="676.88" y="494" width="183.12" height="30" rx="8" fill="#e74c3c"/>
<text x="870.00" y="516" font-size="16" fill="#333333">0.957x (-4.33%)</text>
<text x="320" y="568" font-size="17" fill="#111111" text-anchor="end">1INCH-USDT-SWAP 2023-11-08 15:00:00</text>
<rect x="340" y="546" width="1040.00" height="30" rx="8" fill="#efefef"/>
<rect x="640.03" y="546" width="219.97" height="30" rx="8" fill="#e74c3c"/>
<text x="870.00" y="568" font-size="16" fill="#333333">0.948x (-5.20%)</text>
<text x="320" y="620" font-size="17" fill="#111111" text-anchor="end">ZAMA-USDT-SWAP 2026-04-14 13:00:00</text>
<rect x="340" y="598" width="1040.00" height="30" rx="8" fill="#efefef"/>
<rect x="597.49" y="598" width="262.51" height="30" rx="8" fill="#e74c3c"/>
<text x="870.00" y="620" font-size="16" fill="#333333">0.938x (-6.21%)</text>
</svg>