<svg xmlns="http://www.w3.org/2000/svg" width="1500" height="740" viewBox="0 0 1500 740">
<rect width="100%" height="100%" fill="#fcfcfc"/>
<text x="48" y="58" font-size="30" font-weight="700" fill="#111111">成交量倍数 Top 10</text>
<text x="48" y="96" font-size="18" fill="#555555">按10倍命中事件的成交量倍数排序</text>
<text x="312" y="152" font-size="18" fill="#111111" text-anchor="end">VANA-USDT-SWAP 2026-02-09 21:00:00</text>
<rect x="330" y="130" width="1050.00" height="30" rx="8" fill="#efefef"/>
<rect x="330" y="130" width="1050.00" height="30" rx="8" fill="#9b59b6"/>
<text x="1392.00" y="152" font-size="17" fill="#333333">236.44x | 倍数 22.59x</text>
<text x="312" y="204" font-size="18" fill="#111111" text-anchor="end">VIRTUAL-USDT-SWAP 2025-04-11 18:00:00</text>
<rect x="330" y="182" width="1050.00" height="30" rx="8" fill="#efefef"/>
<rect x="330" y="182" width="514.65" height="30" rx="8" fill="#9b59b6"/>
<text x="856.65" y="204" font-size="17" fill="#333333">115.89x | 倍数 12.34x</text>
<text x="312" y="256" font-size="18" fill="#111111" text-anchor="end">UMA-USDT-SWAP 2025-11-09 16:00:00</text>
<rect x="330" y="234" width="1050.00" height="30" rx="8" fill="#efefef"/>
<rect x="330" y="234" width="478.34" height="30" rx="8" fill="#9b59b6"/>
<text x="820.34" y="256" font-size="17" fill="#333333">107.71x | 倍数 14.33x</text>
<text x="312" y="308" font-size="18" fill="#111111" text-anchor="end">UMA-USDT-SWAP 2025-06-06 22:00:00</text>
<rect x="330" y="286" width="1050.00" height="30" rx="8" fill="#efefef"/>
<rect x="330" y="286" width="440.37" height="30" rx="8" fill="#9b59b6"/>
<text x="782.37" y="308" font-size="17" fill="#333333">99.16x | 倍数 15.33x</text>
<text x="312" y="360" font-size="18" fill="#111111" text-anchor="end">1INCH-USDT-SWAP 2023-11-08 15:00:00</text>
<rect x="330" y="338" width="1050.00" height="30" rx="8" fill="#efefef"/>
<rect x="330" y="338" width="436.08" height="30" rx="8" fill="#9b59b6"/>
<text x="778.08" y="360" font-size="17" fill="#333333">98.20x | 倍数 10.92x</text>
<text x="312" y="412" font-size="18" fill="#111111" text-anchor="end">0G-USDT-SWAP 2026-04-13 00:00:00</text>
<rect x="330" y="390" width="1050.00" height="30" rx="8" fill="#efefef"/>
<rect x="330" y="390" width="332.32" height="30" rx="8" fill="#9b59b6"/>
<text x="674.32" y="412" font-size="17" fill="#333333">74.83x | 倍数 13.93x</text>
<text x="312" y="464" font-size="18" fill="#111111" text-anchor="end">APE-USDT-SWAP 2024-10-20 05:00:00</text>
<rect x="330" y="442" width="1050.00" height="30" rx="8" fill="#efefef"/>
<rect x="330" y="442" width="195.82" height="30" rx="8" fill="#9b59b6"/>
<text x="537.82" y="464" font-size="17" fill="#333333">44.10x | 倍数 15.40x</text>
<text x="312" y="516" font-size="18" fill="#111111" text-anchor="end">UMA-USDT-SWAP 2025-03-22 22:00:00</text>
<rect x="330" y="494" width="1050.00" height="30" rx="8" fill="#efefef"/>
<rect x="330" y="494" width="171.94" height="30" rx="8" fill="#9b59b6"/>
<text x="513.94" y="516" font-size="17" fill="#333333">38.72x | 倍数 14.81x</text>
<text x="312" y="568" font-size="18" fill="#111111" text-anchor="end">2Z-USDT-SWAP 2025-11-22 00:00:00</text>
<rect x="330" y="546" width="1050.00" height="30" rx="8" fill="#efefef"/>
<rect x="330" y="546" width="118.96" height="30" rx="8" fill="#9b59b6"/>
<text x="460.96" y="568" font-size="17" fill="#333333">26.79x | 倍数 14.93x</text>
<text x="312" y="620" font-size="18" fill="#111111" text-anchor="end">ANIME-USDT-SWAP 2025-11-22 04:00:00</text>
<rect x="330" y="598" width="1050.00" height="30" rx="8" fill="#efefef"/>
<rect x="330" y="598" width="79.21" height="30" rx="8" fill="#9b59b6"/>
<text x="421.21" y="620" font-size="17" fill="#333333">17.84x | 倍数 12.73x</text>
</svg>