<svg xmlns="http://www.w3.org/2000/svg" width="1400" height="760" viewBox="0 0 1400 760">
<rect width="100%" height="100%" fill="#fcfcfc"/>
<text x="90" y="36" font-size="26" font-weight="700" fill="#111111">VANA-USDT-SWAP 1H - 9倍命中</text>
<line x1="90" y1="70.00" x2="1360" y2="70.00" stroke="#d9d9d9" stroke-dasharray="4 4" stroke-width="1"/>
<text x="12" y="74.00" font-size="12" fill="#555555">1.768000</text>
<line x1="90" y1="186.00" x2="1360" y2="186.00" stroke="#d9d9d9" stroke-dasharray="4 4" stroke-width="1"/>
<text x="12" y="190.00" font-size="12" fill="#555555">1.693400</text>
<line x1="90" y1="302.00" x2="1360" y2="302.00" stroke="#d9d9d9" stroke-dasharray="4 4" stroke-width="1"/>
<text x="12" y="306.00" font-size="12" fill="#555555">1.618800</text>
<line x1="90" y1="418.00" x2="1360" y2="418.00" stroke="#d9d9d9" stroke-dasharray="4 4" stroke-width="1"/>
<text x="12" y="422.00" font-size="12" fill="#555555">1.544200</text>
<line x1="90" y1="534.00" x2="1360" y2="534.00" stroke="#d9d9d9" stroke-dasharray="4 4" stroke-width="1"/>
<text x="12" y="538.00" font-size="12" fill="#555555">1.469600</text>
<line x1="90" y1="650.00" x2="1360" y2="650.00" stroke="#d9d9d9" stroke-dasharray="4 4" stroke-width="1"/>
<text x="12" y="654.00" font-size="12" fill="#555555">1.395000</text>
<rect x="687.65" y="70" width="74.71" height="580.00" fill="#f1c40f" opacity="0.16"/>
<rect x="612.94" y="70" width="74.71" height="580.00" fill="#3498db" opacity="0.10"/>
<line x1="127.35" y1="594.02" x2="127.35" y2="650.00" stroke="#2ecc71" stroke-width="2"/>
<rect x="105.69" y="606.46" width="43.33" height="17.10" fill="#2ecc71" stroke="#2ecc71" stroke-width="1"/>
<text x="127.35" y="704" font-size="11" fill="#555555" text-anchor="middle">04-17</text>
<text x="127.35" y="720" font-size="11" fill="#555555" text-anchor="middle">08:00</text>
<line x1="202.06" y1="578.47" x2="202.06" y2="620.46" stroke="#e74c3c" stroke-width="2"/>
<rect x="180.39" y="608.02" width="43.33" height="6.22" fill="#e74c3c" stroke="#e74c3c" stroke-width="1"/>
<text x="202.06" y="704" font-size="11" fill="#555555" text-anchor="middle">04-17</text>
<text x="202.06" y="720" font-size="11" fill="#555555" text-anchor="middle">09:00</text>
<line x1="276.76" y1="608.02" x2="276.76" y2="637.56" stroke="#e74c3c" stroke-width="2"/>
<rect x="255.10" y="615.79" width="43.33" height="1.55" fill="#e74c3c" stroke="#e74c3c" stroke-width="1"/>
<text x="276.76" y="704" font-size="11" fill="#555555" text-anchor="middle">04-17</text>
<text x="276.76" y="720" font-size="11" fill="#555555" text-anchor="middle">10:00</text>
<line x1="351.47" y1="615.79" x2="351.47" y2="626.68" stroke="#e74c3c" stroke-width="2"/>
<rect x="329.81" y="617.35" width="43.33" height="9.33" fill="#e74c3c" stroke="#e74c3c" stroke-width="1"/>
<text x="351.47" y="704" font-size="11" fill="#555555" text-anchor="middle">04-17</text>
<text x="351.47" y="720" font-size="11" fill="#555555" text-anchor="middle">11:00</text>
<line x1="426.18" y1="601.80" x2="426.18" y2="628.23" stroke="#2ecc71" stroke-width="2"/>
<rect x="404.51" y="608.02" width="43.33" height="17.10" fill="#2ecc71" stroke="#2ecc71" stroke-width="1"/>
<text x="426.18" y="704" font-size="11" fill="#555555" text-anchor="middle">04-17</text>
<text x="426.18" y="720" font-size="11" fill="#555555" text-anchor="middle">12:00</text>
<line x1="500.88" y1="606.46" x2="500.88" y2="639.12" stroke="#e74c3c" stroke-width="2"/>
<rect x="479.22" y="606.46" width="43.33" height="31.10" fill="#e74c3c" stroke="#e74c3c" stroke-width="1"/>
<text x="500.88" y="704" font-size="11" fill="#555555" text-anchor="middle">04-17</text>
<text x="500.88" y="720" font-size="11" fill="#555555" text-anchor="middle">13:00</text>
<line x1="575.59" y1="570.70" x2="575.59" y2="634.45" stroke="#2ecc71" stroke-width="2"/>
<rect x="553.92" y="587.80" width="43.33" height="46.65" fill="#2ecc71" stroke="#2ecc71" stroke-width="1"/>
<text x="575.59" y="704" font-size="11" fill="#555555" text-anchor="middle">04-17</text>
<text x="575.59" y="720" font-size="11" fill="#555555" text-anchor="middle">14:00</text>
<line x1="650.29" y1="533.38" x2="650.29" y2="587.80" stroke="#2ecc71" stroke-width="2"/>
<rect x="628.63" y="534.93" width="43.33" height="51.31" fill="#2ecc71" stroke="#2ecc71" stroke-width="1"/>
<text x="650.29" y="704" font-size="11" fill="#555555" text-anchor="middle">04-17</text>
<text x="650.29" y="720" font-size="11" fill="#555555" text-anchor="middle">15:00</text>
<line x1="725.00" y1="70.00" x2="725.00" y2="573.81" stroke="#2ecc71" stroke-width="2"/>
<rect x="703.34" y="477.40" width="43.33" height="59.09" fill="#2ecc71" stroke="#2ecc71" stroke-width="1"/>
<text x="725.00" y="704" font-size="11" fill="#555555" text-anchor="middle">04-17</text>
<text x="725.00" y="720" font-size="11" fill="#555555" text-anchor="middle">16:00</text>
<line x1="799.71" y1="474.29" x2="799.71" y2="576.92" stroke="#e74c3c" stroke-width="2"/>
<rect x="778.04" y="474.29" width="43.33" height="52.87" fill="#e74c3c" stroke="#e74c3c" stroke-width="1"/>
<text x="799.71" y="704" font-size="11" fill="#555555" text-anchor="middle">04-17</text>
<text x="799.71" y="720" font-size="11" fill="#555555" text-anchor="middle">17:00</text>
<line x1="874.41" y1="502.28" x2="874.41" y2="567.59" stroke="#e74c3c" stroke-width="2"/>
<rect x="852.75" y="527.16" width="43.33" height="27.99" fill="#e74c3c" stroke="#e74c3c" stroke-width="1"/>
<text x="874.41" y="704" font-size="11" fill="#555555" text-anchor="middle">04-17</text>
<text x="874.41" y="720" font-size="11" fill="#555555" text-anchor="middle">18:00</text>
<line x1="949.12" y1="536.49" x2="949.12" y2="559.81" stroke="#2ecc71" stroke-width="2"/>
<rect x="927.45" y="548.93" width="43.33" height="4.66" fill="#2ecc71" stroke="#2ecc71" stroke-width="1"/>
<text x="949.12" y="704" font-size="11" fill="#555555" text-anchor="middle">04-17</text>
<text x="949.12" y="720" font-size="11" fill="#555555" text-anchor="middle">19:00</text>
<line x1="1023.82" y1="538.04" x2="1023.82" y2="556.70" stroke="#2ecc71" stroke-width="2"/>
<rect x="1002.16" y="538.04" width="43.33" height="10.88" fill="#2ecc71" stroke="#2ecc71" stroke-width="1"/>
<text x="1023.82" y="704" font-size="11" fill="#555555" text-anchor="middle">04-17</text>
<text x="1023.82" y="720" font-size="11" fill="#555555" text-anchor="middle">20:00</text>
<line x1="1098.53" y1="511.61" x2="1098.53" y2="558.26" stroke="#2ecc71" stroke-width="2"/>
<rect x="1076.86" y="514.72" width="43.33" height="23.32" fill="#2ecc71" stroke="#2ecc71" stroke-width="1"/>
<text x="1098.53" y="704" font-size="11" fill="#555555" text-anchor="middle">04-17</text>
<text x="1098.53" y="720" font-size="11" fill="#555555" text-anchor="middle">21:00</text>
<line x1="1173.24" y1="505.39" x2="1173.24" y2="533.38" stroke="#2ecc71" stroke-width="2"/>
<rect x="1151.57" y="514.72" width="43.33" height="1.20" fill="#2ecc71" stroke="#2ecc71" stroke-width="1"/>
<text x="1173.24" y="704" font-size="11" fill="#555555" text-anchor="middle">04-17</text>
<text x="1173.24" y="720" font-size="11" fill="#555555" text-anchor="middle">22:00</text>
<line x1="1247.94" y1="513.16" x2="1247.94" y2="547.37" stroke="#e74c3c" stroke-width="2"/>
<rect x="1226.28" y="513.16" width="43.33" height="23.32" fill="#e74c3c" stroke="#e74c3c" stroke-width="1"/>
<text x="1247.94" y="704" font-size="11" fill="#555555" text-anchor="middle">04-17</text>
<text x="1247.94" y="720" font-size="11" fill="#555555" text-anchor="middle">23:00</text>
<line x1="1322.65" y1="520.94" x2="1322.65" y2="559.81" stroke="#2ecc71" stroke-width="2"/>
<rect x="1300.98" y="528.71" width="43.33" height="9.33" fill="#2ecc71" stroke="#2ecc71" stroke-width="1"/>
<text x="1322.65" y="704" font-size="11" fill="#555555" text-anchor="middle">04-18</text>
<text x="1322.65" y="720" font-size="11" fill="#555555" text-anchor="middle">00:00</text>
<line x1="725.00" y1="70.00" x2="805.00" y2="90.00" stroke="#f1c40f" stroke-width="2"/>
<rect x="805.00" y="42.00" width="220" height="72" rx="8" fill="#fff8dc" stroke="#f1c40f"/>
<text x="815.00" y="66.00" font-size="12" fill="#111111">目标K线 2026-04-17 16:00</text>
<text x="815.00" y="84.00" font-size="12" fill="#111111">振幅 22.07%</text>
<text x="815.00" y="102.00" font-size="12" fill="#111111">倍数 9.06x</text>
<line x1="650.29" y1="533.38" x2="620.29" y2="493.38" stroke="#3498db" stroke-width="2"/>
<rect x="400.29" y="457.38" width="220" height="58" rx="8" fill="#eef6ff" stroke="#3498db"/>
<text x="410.29" y="479.38" font-size="12" fill="#111111">前一根涨幅 2.30%</text>
<text x="410.29" y="497.38" font-size="12" fill="#111111">前一根振幅 2.44%</text>
</svg>