<svg xmlns="http://www.w3.org/2000/svg" width="1400" height="760" viewBox="0 0 1400 760">
<rect width="100%" height="100%" fill="#fcfcfc"/>
<text x="90" y="36" font-size="26" font-weight="700" fill="#111111">AGLD-USDT-SWAP 4H - 10倍命中</text>
<line x1="90" y1="70.00" x2="1360" y2="70.00" stroke="#d9d9d9" stroke-dasharray="4 4" stroke-width="1"/>
<text x="12" y="74.00" font-size="12" fill="#555555">0.440300</text>
<line x1="90" y1="186.00" x2="1360" y2="186.00" stroke="#d9d9d9" stroke-dasharray="4 4" stroke-width="1"/>
<text x="12" y="190.00" font-size="12" fill="#555555">0.395840</text>
<line x1="90" y1="302.00" x2="1360" y2="302.00" stroke="#d9d9d9" stroke-dasharray="4 4" stroke-width="1"/>
<text x="12" y="306.00" font-size="12" fill="#555555">0.351380</text>
<line x1="90" y1="418.00" x2="1360" y2="418.00" stroke="#d9d9d9" stroke-dasharray="4 4" stroke-width="1"/>
<text x="12" y="422.00" font-size="12" fill="#555555">0.306920</text>
<line x1="90" y1="534.00" x2="1360" y2="534.00" stroke="#d9d9d9" stroke-dasharray="4 4" stroke-width="1"/>
<text x="12" y="538.00" font-size="12" fill="#555555">0.262460</text>
<line x1="90" y1="650.00" x2="1360" y2="650.00" stroke="#d9d9d9" stroke-dasharray="4 4" stroke-width="1"/>
<text x="12" y="654.00" font-size="12" fill="#555555">0.218000</text>
<rect x="687.65" y="70" width="74.71" height="580.00" fill="#f1c40f" opacity="0.16"/>
<rect x="612.94" y="70" width="74.71" height="580.00" fill="#3498db" opacity="0.10"/>
<line x1="127.35" y1="605.65" x2="127.35" y2="650.00" stroke="#2ecc71" stroke-width="2"/>
<rect x="105.69" y="606.95" width="43.33" height="42.53" fill="#2ecc71" stroke="#2ecc71" stroke-width="1"/>
<text x="127.35" y="704" font-size="11" fill="#555555" text-anchor="middle">02-21</text>
<text x="127.35" y="720" font-size="11" fill="#555555" text-anchor="middle">08:00</text>
<line x1="202.06" y1="589.73" x2="202.06" y2="628.87" stroke="#e74c3c" stroke-width="2"/>
<rect x="180.39" y="606.69" width="43.33" height="9.39" fill="#e74c3c" stroke="#e74c3c" stroke-width="1"/>
<text x="202.06" y="704" font-size="11" fill="#555555" text-anchor="middle">02-21</text>
<text x="202.06" y="720" font-size="11" fill="#555555" text-anchor="middle">12:00</text>
<line x1="276.76" y1="615.82" x2="276.76" y2="629.65" stroke="#e74c3c" stroke-width="2"/>
<rect x="255.10" y="616.34" width="43.33" height="7.83" fill="#e74c3c" stroke="#e74c3c" stroke-width="1"/>
<text x="276.76" y="704" font-size="11" fill="#555555" text-anchor="middle">02-21</text>
<text x="276.76" y="720" font-size="11" fill="#555555" text-anchor="middle">16:00</text>
<line x1="351.47" y1="489.80" x2="351.47" y2="633.04" stroke="#2ecc71" stroke-width="2"/>
<rect x="329.81" y="506.24" width="43.33" height="118.45" fill="#2ecc71" stroke="#2ecc71" stroke-width="1"/>
<text x="351.47" y="704" font-size="11" fill="#555555" text-anchor="middle">02-21</text>
<text x="351.47" y="720" font-size="11" fill="#555555" text-anchor="middle">20:00</text>
<line x1="426.18" y1="499.72" x2="426.18" y2="555.03" stroke="#e74c3c" stroke-width="2"/>
<rect x="404.51" y="506.76" width="43.33" height="19.31" fill="#e74c3c" stroke="#e74c3c" stroke-width="1"/>
<text x="426.18" y="704" font-size="11" fill="#555555" text-anchor="middle">02-22</text>
<text x="426.18" y="720" font-size="11" fill="#555555" text-anchor="middle">00:00</text>
<line x1="500.88" y1="501.54" x2="500.88" y2="533.90" stroke="#e74c3c" stroke-width="2"/>
<rect x="479.22" y="526.33" width="43.33" height="4.44" fill="#e74c3c" stroke="#e74c3c" stroke-width="1"/>
<text x="500.88" y="704" font-size="11" fill="#555555" text-anchor="middle">02-22</text>
<text x="500.88" y="720" font-size="11" fill="#555555" text-anchor="middle">04:00</text>
<line x1="575.59" y1="528.68" x2="575.59" y2="594.69" stroke="#e74c3c" stroke-width="2"/>
<rect x="553.92" y="530.76" width="43.33" height="56.10" fill="#e74c3c" stroke="#e74c3c" stroke-width="1"/>
<text x="575.59" y="704" font-size="11" fill="#555555" text-anchor="middle">02-22</text>
<text x="575.59" y="720" font-size="11" fill="#555555" text-anchor="middle">08:00</text>
<line x1="650.29" y1="559.73" x2="650.29" y2="592.08" stroke="#2ecc71" stroke-width="2"/>
<rect x="628.63" y="570.42" width="43.33" height="15.65" fill="#2ecc71" stroke="#2ecc71" stroke-width="1"/>
<text x="650.29" y="704" font-size="11" fill="#555555" text-anchor="middle">02-22</text>
<text x="650.29" y="720" font-size="11" fill="#555555" text-anchor="middle">12:00</text>
<line x1="725.00" y1="243.50" x2="725.00" y2="581.12" stroke="#2ecc71" stroke-width="2"/>
<rect x="703.34" y="295.43" width="43.33" height="275.26" fill="#2ecc71" stroke="#2ecc71" stroke-width="1"/>
<text x="725.00" y="704" font-size="11" fill="#555555" text-anchor="middle">02-22</text>
<text x="725.00" y="720" font-size="11" fill="#555555" text-anchor="middle">16:00</text>
<line x1="799.71" y1="193.93" x2="799.71" y2="369.52" stroke="#2ecc71" stroke-width="2"/>
<rect x="778.04" y="215.33" width="43.33" height="79.84" fill="#2ecc71" stroke="#2ecc71" stroke-width="1"/>
<text x="799.71" y="704" font-size="11" fill="#555555" text-anchor="middle">02-22</text>
<text x="799.71" y="720" font-size="11" fill="#555555" text-anchor="middle">20:00</text>
<line x1="874.41" y1="184.54" x2="874.41" y2="277.94" stroke="#2ecc71" stroke-width="2"/>
<rect x="852.75" y="208.80" width="43.33" height="6.26" fill="#2ecc71" stroke="#2ecc71" stroke-width="1"/>
<text x="874.41" y="704" font-size="11" fill="#555555" text-anchor="middle">02-23</text>
<text x="874.41" y="720" font-size="11" fill="#555555" text-anchor="middle">00:00</text>
<line x1="949.12" y1="164.71" x2="949.12" y2="254.72" stroke="#e74c3c" stroke-width="2"/>
<rect x="927.45" y="209.06" width="43.33" height="1.20" fill="#e74c3c" stroke="#e74c3c" stroke-width="1"/>
<text x="949.12" y="704" font-size="11" fill="#555555" text-anchor="middle">02-23</text>
<text x="949.12" y="720" font-size="11" fill="#555555" text-anchor="middle">04:00</text>
<line x1="1023.82" y1="197.58" x2="1023.82" y2="282.38" stroke="#e74c3c" stroke-width="2"/>
<rect x="1002.16" y="209.59" width="43.33" height="43.31" fill="#e74c3c" stroke="#e74c3c" stroke-width="1"/>
<text x="1023.82" y="704" font-size="11" fill="#555555" text-anchor="middle">02-23</text>
<text x="1023.82" y="720" font-size="11" fill="#555555" text-anchor="middle">08:00</text>
<line x1="1098.53" y1="70.00" x2="1098.53" y2="258.38" stroke="#2ecc71" stroke-width="2"/>
<rect x="1076.86" y="118.79" width="43.33" height="134.11" fill="#2ecc71" stroke="#2ecc71" stroke-width="1"/>
<text x="1098.53" y="704" font-size="11" fill="#555555" text-anchor="middle">02-23</text>
<text x="1098.53" y="720" font-size="11" fill="#555555" text-anchor="middle">12:00</text>
<line x1="1173.24" y1="116.96" x2="1173.24" y2="318.12" stroke="#e74c3c" stroke-width="2"/>
<rect x="1151.57" y="119.05" width="43.33" height="187.07" fill="#e74c3c" stroke="#e74c3c" stroke-width="1"/>
<text x="1173.24" y="704" font-size="11" fill="#555555" text-anchor="middle">02-23</text>
<text x="1173.24" y="720" font-size="11" fill="#555555" text-anchor="middle">16:00</text>
<line x1="1247.94" y1="302.47" x2="1247.94" y2="353.87" stroke="#e74c3c" stroke-width="2"/>
<rect x="1226.28" y="306.12" width="43.33" height="17.22" fill="#e74c3c" stroke="#e74c3c" stroke-width="1"/>
<text x="1247.94" y="704" font-size="11" fill="#555555" text-anchor="middle">02-23</text>
<text x="1247.94" y="720" font-size="11" fill="#555555" text-anchor="middle">20:00</text>
<line x1="1322.65" y1="321.52" x2="1322.65" y2="432.66" stroke="#e74c3c" stroke-width="2"/>
<rect x="1300.98" y="323.34" width="43.33" height="103.32" fill="#e74c3c" stroke="#e74c3c" stroke-width="1"/>
<text x="1322.65" y="704" font-size="11" fill="#555555" text-anchor="middle">02-24</text>
<text x="1322.65" y="720" font-size="11" fill="#555555" text-anchor="middle">00:00</text>
<line x1="725.00" y1="243.50" x2="805.00" y2="173.50" stroke="#f1c40f" stroke-width="2"/>
<rect x="805.00" y="125.50" width="220" height="72" rx="8" fill="#fff8dc" stroke="#f1c40f"/>
<text x="815.00" y="149.50" font-size="12" fill="#111111">目标K线 2026-02-22 16:00</text>
<text x="815.00" y="167.50" font-size="12" fill="#111111">振幅 52.09%</text>
<text x="815.00" y="185.50" font-size="12" fill="#111111">倍数 10.19x</text>
<line x1="650.29" y1="559.73" x2="620.29" y2="519.73" stroke="#3498db" stroke-width="2"/>
<rect x="400.29" y="483.73" width="220" height="58" rx="8" fill="#eef6ff" stroke="#3498db"/>
<text x="410.29" y="505.73" font-size="12" fill="#111111">前一根涨幅 2.47%</text>
<text x="410.29" y="523.73" font-size="12" fill="#111111">前一根振幅 5.11%</text>
</svg>