<svg xmlns="http://www.w3.org/2000/svg" width="1400" height="760" viewBox="0 0 1400 760">
<rect width="100%" height="100%" fill="#fcfcfc"/>
<text x="90" y="36" font-size="26" font-weight="700" fill="#111111">BCH-USDT-SWAP 4H - 10倍命中</text>
<line x1="90" y1="70.00" x2="1360" y2="70.00" stroke="#d9d9d9" stroke-dasharray="4 4" stroke-width="1"/>
<text x="12" y="74.00" font-size="12" fill="#555555">529.300000</text>
<line x1="90" y1="186.00" x2="1360" y2="186.00" stroke="#d9d9d9" stroke-dasharray="4 4" stroke-width="1"/>
<text x="12" y="190.00" font-size="12" fill="#555555">481.580000</text>
<line x1="90" y1="302.00" x2="1360" y2="302.00" stroke="#d9d9d9" stroke-dasharray="4 4" stroke-width="1"/>
<text x="12" y="306.00" font-size="12" fill="#555555">433.860000</text>
<line x1="90" y1="418.00" x2="1360" y2="418.00" stroke="#d9d9d9" stroke-dasharray="4 4" stroke-width="1"/>
<text x="12" y="422.00" font-size="12" fill="#555555">386.140000</text>
<line x1="90" y1="534.00" x2="1360" y2="534.00" stroke="#d9d9d9" stroke-dasharray="4 4" stroke-width="1"/>
<text x="12" y="538.00" font-size="12" fill="#555555">338.420000</text>
<line x1="90" y1="650.00" x2="1360" y2="650.00" stroke="#d9d9d9" stroke-dasharray="4 4" stroke-width="1"/>
<text x="12" y="654.00" font-size="12" fill="#555555">290.700000</text>
<rect x="687.65" y="70" width="74.71" height="580.00" fill="#f1c40f" opacity="0.16"/>
<rect x="612.94" y="70" width="74.71" height="580.00" fill="#3498db" opacity="0.10"/>
<line x1="127.35" y1="594.82" x2="127.35" y2="618.89" stroke="#e74c3c" stroke-width="2"/>
<rect x="105.69" y="596.52" width="43.33" height="8.99" fill="#e74c3c" stroke="#e74c3c" stroke-width="1"/>
<text x="127.35" y="704" font-size="11" fill="#555555" text-anchor="middle">03-01</text>
<text x="127.35" y="720" font-size="11" fill="#555555" text-anchor="middle">00:00</text>
<line x1="202.06" y1="604.30" x2="202.06" y2="650.00" stroke="#e74c3c" stroke-width="2"/>
<rect x="180.39" y="605.27" width="43.33" height="27.47" fill="#e74c3c" stroke="#e74c3c" stroke-width="1"/>
<text x="202.06" y="704" font-size="11" fill="#555555" text-anchor="middle">03-01</text>
<text x="202.06" y="720" font-size="11" fill="#555555" text-anchor="middle">04:00</text>
<line x1="276.76" y1="579.26" x2="276.76" y2="634.93" stroke="#2ecc71" stroke-width="2"/>
<rect x="255.10" y="584.85" width="43.33" height="47.89" fill="#2ecc71" stroke="#2ecc71" stroke-width="1"/>
<text x="276.76" y="704" font-size="11" fill="#555555" text-anchor="middle">03-01</text>
<text x="276.76" y="720" font-size="11" fill="#555555" text-anchor="middle">08:00</text>
<line x1="351.47" y1="579.26" x2="351.47" y2="598.95" stroke="#e74c3c" stroke-width="2"/>
<rect x="329.81" y="585.10" width="43.33" height="12.40" fill="#e74c3c" stroke="#e74c3c" stroke-width="1"/>
<text x="351.47" y="704" font-size="11" fill="#555555" text-anchor="middle">03-01</text>
<text x="351.47" y="720" font-size="11" fill="#555555" text-anchor="middle">12:00</text>
<line x1="426.18" y1="582.67" x2="426.18" y2="601.14" stroke="#2ecc71" stroke-width="2"/>
<rect x="404.51" y="595.06" width="43.33" height="2.19" fill="#2ecc71" stroke="#2ecc71" stroke-width="1"/>
<text x="426.18" y="704" font-size="11" fill="#555555" text-anchor="middle">03-01</text>
<text x="426.18" y="720" font-size="11" fill="#555555" text-anchor="middle">16:00</text>
<line x1="500.88" y1="588.74" x2="500.88" y2="604.79" stroke="#e74c3c" stroke-width="2"/>
<rect x="479.22" y="595.31" width="43.33" height="6.56" fill="#e74c3c" stroke="#e74c3c" stroke-width="1"/>
<text x="500.88" y="704" font-size="11" fill="#555555" text-anchor="middle">03-01</text>
<text x="500.88" y="720" font-size="11" fill="#555555" text-anchor="middle">20:00</text>
<line x1="575.59" y1="592.39" x2="575.59" y2="603.81" stroke="#2ecc71" stroke-width="2"/>
<rect x="553.92" y="598.95" width="43.33" height="2.92" fill="#2ecc71" stroke="#2ecc71" stroke-width="1"/>
<text x="575.59" y="704" font-size="11" fill="#555555" text-anchor="middle">03-02</text>
<text x="575.59" y="720" font-size="11" fill="#555555" text-anchor="middle">00:00</text>
<line x1="650.29" y1="585.10" x2="650.29" y2="600.17" stroke="#2ecc71" stroke-width="2"/>
<rect x="628.63" y="587.53" width="43.33" height="11.42" fill="#2ecc71" stroke="#2ecc71" stroke-width="1"/>
<text x="650.29" y="704" font-size="11" fill="#555555" text-anchor="middle">03-02</text>
<text x="650.29" y="720" font-size="11" fill="#555555" text-anchor="middle">04:00</text>
<line x1="725.00" y1="350.52" x2="725.00" y2="589.23" stroke="#2ecc71" stroke-width="2"/>
<rect x="703.34" y="375.56" width="43.33" height="212.21" fill="#2ecc71" stroke="#2ecc71" stroke-width="1"/>
<text x="725.00" y="704" font-size="11" fill="#555555" text-anchor="middle">03-02</text>
<text x="725.00" y="720" font-size="11" fill="#555555" text-anchor="middle">08:00</text>
<line x1="799.71" y1="341.28" x2="799.71" y2="409.35" stroke="#e74c3c" stroke-width="2"/>
<rect x="778.04" y="375.56" width="43.33" height="25.28" fill="#e74c3c" stroke="#e74c3c" stroke-width="1"/>
<text x="799.71" y="704" font-size="11" fill="#555555" text-anchor="middle">03-02</text>
<text x="799.71" y="720" font-size="11" fill="#555555" text-anchor="middle">12:00</text>
<line x1="874.41" y1="257.90" x2="874.41" y2="401.32" stroke="#2ecc71" stroke-width="2"/>
<rect x="852.75" y="278.08" width="43.33" height="122.51" fill="#2ecc71" stroke="#2ecc71" stroke-width="1"/>
<text x="874.41" y="704" font-size="11" fill="#555555" text-anchor="middle">03-02</text>
<text x="874.41" y="720" font-size="11" fill="#555555" text-anchor="middle">16:00</text>
<line x1="949.12" y1="232.38" x2="949.12" y2="300.69" stroke="#2ecc71" stroke-width="2"/>
<rect x="927.45" y="275.16" width="43.33" height="3.16" fill="#2ecc71" stroke="#2ecc71" stroke-width="1"/>
<text x="949.12" y="704" font-size="11" fill="#555555" text-anchor="middle">03-02</text>
<text x="949.12" y="720" font-size="11" fill="#555555" text-anchor="middle">20:00</text>
<line x1="1023.82" y1="222.41" x2="1023.82" y2="291.21" stroke="#2ecc71" stroke-width="2"/>
<rect x="1002.16" y="228.49" width="43.33" height="46.43" fill="#2ecc71" stroke="#2ecc71" stroke-width="1"/>
<text x="1023.82" y="704" font-size="11" fill="#555555" text-anchor="middle">03-03</text>
<text x="1023.82" y="720" font-size="11" fill="#555555" text-anchor="middle">00:00</text>
<line x1="1098.53" y1="124.69" x2="1098.53" y2="277.59" stroke="#2ecc71" stroke-width="2"/>
<rect x="1076.86" y="137.09" width="43.33" height="91.40" fill="#2ecc71" stroke="#2ecc71" stroke-width="1"/>
<text x="1098.53" y="704" font-size="11" fill="#555555" text-anchor="middle">03-03</text>
<text x="1098.53" y="720" font-size="11" fill="#555555" text-anchor="middle">04:00</text>
<line x1="1173.24" y1="70.00" x2="1173.24" y2="197.62" stroke="#2ecc71" stroke-width="2"/>
<rect x="1151.57" y="129.31" width="43.33" height="7.78" fill="#2ecc71" stroke="#2ecc71" stroke-width="1"/>
<text x="1173.24" y="704" font-size="11" fill="#555555" text-anchor="middle">03-03</text>
<text x="1173.24" y="720" font-size="11" fill="#555555" text-anchor="middle">08:00</text>
<line x1="1247.94" y1="118.13" x2="1247.94" y2="253.77" stroke="#e74c3c" stroke-width="2"/>
<rect x="1226.28" y="129.31" width="43.33" height="69.52" fill="#e74c3c" stroke="#e74c3c" stroke-width="1"/>
<text x="1247.94" y="704" font-size="11" fill="#555555" text-anchor="middle">03-03</text>
<text x="1247.94" y="720" font-size="11" fill="#555555" text-anchor="middle">12:00</text>
<line x1="1322.65" y1="166.50" x2="1322.65" y2="213.91" stroke="#2ecc71" stroke-width="2"/>
<rect x="1300.98" y="192.76" width="43.33" height="5.59" fill="#2ecc71" stroke="#2ecc71" stroke-width="1"/>
<text x="1322.65" y="704" font-size="11" fill="#555555" text-anchor="middle">03-03</text>
<text x="1322.65" y="720" font-size="11" fill="#555555" text-anchor="middle">16:00</text>
<line x1="725.00" y1="350.52" x2="805.00" y2="280.52" stroke="#f1c40f" stroke-width="2"/>
<rect x="805.00" y="232.52" width="220" height="72" rx="8" fill="#fff8dc" stroke="#f1c40f"/>
<text x="815.00" y="256.52" font-size="12" fill="#111111">目标K线 2024-03-02 08:00</text>
<text x="815.00" y="274.52" font-size="12" fill="#111111">振幅 31.05%</text>
<text x="815.00" y="292.52" font-size="12" fill="#111111">倍数 15.61x</text>
<line x1="650.29" y1="585.10" x2="620.29" y2="545.10" stroke="#3498db" stroke-width="2"/>
<rect x="400.29" y="509.10" width="220" height="58" rx="8" fill="#eef6ff" stroke="#3498db"/>
<text x="410.29" y="531.10" font-size="12" fill="#111111">前一根涨幅 1.51%</text>
<text x="410.29" y="549.10" font-size="12" fill="#111111">前一根振幅 1.99%</text>
</svg>