<svg xmlns="http://www.w3.org/2000/svg" width="1400" height="760" viewBox="0 0 1400 760">
<rect width="100%" height="100%" fill="#fcfcfc"/>
<text x="90" y="36" font-size="26" font-weight="700" fill="#111111">BERA-USDT-SWAP 4H - 10倍命中</text>
<line x1="90" y1="70.00" x2="1360" y2="70.00" stroke="#d9d9d9" stroke-dasharray="4 4" stroke-width="1"/>
<text x="12" y="74.00" font-size="12" fill="#555555">0.516500</text>
<line x1="90" y1="186.00" x2="1360" y2="186.00" stroke="#d9d9d9" stroke-dasharray="4 4" stroke-width="1"/>
<text x="12" y="190.00" font-size="12" fill="#555555">0.491420</text>
<line x1="90" y1="302.00" x2="1360" y2="302.00" stroke="#d9d9d9" stroke-dasharray="4 4" stroke-width="1"/>
<text x="12" y="306.00" font-size="12" fill="#555555">0.466340</text>
<line x1="90" y1="418.00" x2="1360" y2="418.00" stroke="#d9d9d9" stroke-dasharray="4 4" stroke-width="1"/>
<text x="12" y="422.00" font-size="12" fill="#555555">0.441260</text>
<line x1="90" y1="534.00" x2="1360" y2="534.00" stroke="#d9d9d9" stroke-dasharray="4 4" stroke-width="1"/>
<text x="12" y="538.00" font-size="12" fill="#555555">0.416180</text>
<line x1="90" y1="650.00" x2="1360" y2="650.00" stroke="#d9d9d9" stroke-dasharray="4 4" stroke-width="1"/>
<text x="12" y="654.00" font-size="12" fill="#555555">0.391100</text>
<rect x="687.65" y="70" width="74.71" height="580.00" fill="#f1c40f" opacity="0.16"/>
<rect x="612.94" y="70" width="74.71" height="580.00" fill="#3498db" opacity="0.10"/>
<line x1="127.35" y1="557.03" x2="127.35" y2="582.01" stroke="#e74c3c" stroke-width="2"/>
<rect x="105.69" y="563.51" width="43.33" height="8.79" fill="#e74c3c" stroke="#e74c3c" stroke-width="1"/>
<text x="127.35" y="704" font-size="11" fill="#555555" text-anchor="middle">04-03</text>
<text x="127.35" y="720" font-size="11" fill="#555555" text-anchor="middle">08:00</text>
<line x1="202.06" y1="539.92" x2="202.06" y2="576.92" stroke="#2ecc71" stroke-width="2"/>
<rect x="180.39" y="552.41" width="43.33" height="20.35" fill="#2ecc71" stroke="#2ecc71" stroke-width="1"/>
<text x="202.06" y="704" font-size="11" fill="#555555" text-anchor="middle">04-03</text>
<text x="202.06" y="720" font-size="11" fill="#555555" text-anchor="middle">12:00</text>
<line x1="276.76" y1="529.74" x2="276.76" y2="559.81" stroke="#e74c3c" stroke-width="2"/>
<rect x="255.10" y="552.87" width="43.33" height="5.09" fill="#e74c3c" stroke="#e74c3c" stroke-width="1"/>
<text x="276.76" y="704" font-size="11" fill="#555555" text-anchor="middle">04-03</text>
<text x="276.76" y="720" font-size="11" fill="#555555" text-anchor="middle">16:00</text>
<line x1="351.47" y1="551.95" x2="351.47" y2="591.72" stroke="#e74c3c" stroke-width="2"/>
<rect x="329.81" y="558.42" width="43.33" height="30.06" fill="#e74c3c" stroke="#e74c3c" stroke-width="1"/>
<text x="351.47" y="704" font-size="11" fill="#555555" text-anchor="middle">04-03</text>
<text x="351.47" y="720" font-size="11" fill="#555555" text-anchor="middle">20:00</text>
<line x1="426.18" y1="583.86" x2="426.18" y2="606.06" stroke="#e74c3c" stroke-width="2"/>
<rect x="404.51" y="588.95" width="43.33" height="9.25" fill="#e74c3c" stroke="#e74c3c" stroke-width="1"/>
<text x="426.18" y="704" font-size="11" fill="#555555" text-anchor="middle">04-04</text>
<text x="426.18" y="720" font-size="11" fill="#555555" text-anchor="middle">00:00</text>
<line x1="500.88" y1="593.57" x2="500.88" y2="612.07" stroke="#e74c3c" stroke-width="2"/>
<rect x="479.22" y="598.20" width="43.33" height="4.63" fill="#e74c3c" stroke="#e74c3c" stroke-width="1"/>
<text x="500.88" y="704" font-size="11" fill="#555555" text-anchor="middle">04-04</text>
<text x="500.88" y="720" font-size="11" fill="#555555" text-anchor="middle">04:00</text>
<line x1="575.59" y1="569.98" x2="575.59" y2="605.60" stroke="#2ecc71" stroke-width="2"/>
<rect x="553.92" y="581.08" width="43.33" height="21.28" fill="#2ecc71" stroke="#2ecc71" stroke-width="1"/>
<text x="575.59" y="704" font-size="11" fill="#555555" text-anchor="middle">04-04</text>
<text x="575.59" y="720" font-size="11" fill="#555555" text-anchor="middle">08:00</text>
<line x1="650.29" y1="556.57" x2="650.29" y2="594.50" stroke="#2ecc71" stroke-width="2"/>
<rect x="628.63" y="558.88" width="43.33" height="22.66" fill="#2ecc71" stroke="#2ecc71" stroke-width="1"/>
<text x="650.29" y="704" font-size="11" fill="#555555" text-anchor="middle">04-04</text>
<text x="650.29" y="720" font-size="11" fill="#555555" text-anchor="middle">12:00</text>
<line x1="725.00" y1="70.00" x2="725.00" y2="580.16" stroke="#2ecc71" stroke-width="2"/>
<rect x="703.34" y="165.74" width="43.33" height="393.60" fill="#2ecc71" stroke="#2ecc71" stroke-width="1"/>
<text x="725.00" y="704" font-size="11" fill="#555555" text-anchor="middle">04-04</text>
<text x="725.00" y="720" font-size="11" fill="#555555" text-anchor="middle">16:00</text>
<line x1="799.71" y1="159.27" x2="799.71" y2="515.41" stroke="#e74c3c" stroke-width="2"/>
<rect x="778.04" y="166.20" width="43.33" height="341.34" fill="#e74c3c" stroke="#e74c3c" stroke-width="1"/>
<text x="799.71" y="704" font-size="11" fill="#555555" text-anchor="middle">04-04</text>
<text x="799.71" y="720" font-size="11" fill="#555555" text-anchor="middle">20:00</text>
<line x1="874.41" y1="498.76" x2="874.41" y2="632.89" stroke="#e74c3c" stroke-width="2"/>
<rect x="852.75" y="507.54" width="43.33" height="92.50" fill="#e74c3c" stroke="#e74c3c" stroke-width="1"/>
<text x="874.41" y="704" font-size="11" fill="#555555" text-anchor="middle">04-05</text>
<text x="874.41" y="720" font-size="11" fill="#555555" text-anchor="middle">00:00</text>
<line x1="949.12" y1="578.77" x2="949.12" y2="607.45" stroke="#e74c3c" stroke-width="2"/>
<rect x="927.45" y="599.59" width="43.33" height="1.20" fill="#e74c3c" stroke="#e74c3c" stroke-width="1"/>
<text x="949.12" y="704" font-size="11" fill="#555555" text-anchor="middle">04-05</text>
<text x="949.12" y="720" font-size="11" fill="#555555" text-anchor="middle">04:00</text>
<line x1="1023.82" y1="584.32" x2="1023.82" y2="650.00" stroke="#e74c3c" stroke-width="2"/>
<rect x="1002.16" y="600.05" width="43.33" height="13.88" fill="#e74c3c" stroke="#e74c3c" stroke-width="1"/>
<text x="1023.82" y="704" font-size="11" fill="#555555" text-anchor="middle">04-05</text>
<text x="1023.82" y="720" font-size="11" fill="#555555" text-anchor="middle">08:00</text>
<line x1="1098.53" y1="586.17" x2="1098.53" y2="637.97" stroke="#e74c3c" stroke-width="2"/>
<rect x="1076.86" y="613.92" width="43.33" height="12.49" fill="#e74c3c" stroke="#e74c3c" stroke-width="1"/>
<text x="1098.53" y="704" font-size="11" fill="#555555" text-anchor="middle">04-05</text>
<text x="1098.53" y="720" font-size="11" fill="#555555" text-anchor="middle">12:00</text>
<line x1="1173.24" y1="523.73" x2="1173.24" y2="639.82" stroke="#2ecc71" stroke-width="2"/>
<rect x="1151.57" y="526.97" width="43.33" height="99.44" fill="#2ecc71" stroke="#2ecc71" stroke-width="1"/>
<text x="1173.24" y="704" font-size="11" fill="#555555" text-anchor="middle">04-05</text>
<text x="1173.24" y="720" font-size="11" fill="#555555" text-anchor="middle">16:00</text>
<line x1="1247.94" y1="525.58" x2="1247.94" y2="631.96" stroke="#e74c3c" stroke-width="2"/>
<rect x="1226.28" y="527.43" width="43.33" height="79.55" fill="#e74c3c" stroke="#e74c3c" stroke-width="1"/>
<text x="1247.94" y="704" font-size="11" fill="#555555" text-anchor="middle">04-05</text>
<text x="1247.94" y="720" font-size="11" fill="#555555" text-anchor="middle">20:00</text>
<line x1="1322.65" y1="598.66" x2="1322.65" y2="641.21" stroke="#e74c3c" stroke-width="2"/>
<rect x="1300.98" y="607.45" width="43.33" height="24.51" fill="#e74c3c" stroke="#e74c3c" stroke-width="1"/>
<text x="1322.65" y="704" font-size="11" fill="#555555" text-anchor="middle">04-06</text>
<text x="1322.65" y="720" font-size="11" fill="#555555" text-anchor="middle">00:00</text>
<line x1="725.00" y1="70.00" x2="805.00" y2="90.00" stroke="#f1c40f" stroke-width="2"/>
<rect x="805.00" y="42.00" width="220" height="72" rx="8" fill="#fff8dc" stroke="#f1c40f"/>
<text x="815.00" y="66.00" font-size="12" fill="#111111">目标K线 2026-04-04 16:00</text>
<text x="815.00" y="84.00" font-size="12" fill="#111111">振幅 26.86%</text>
<text x="815.00" y="102.00" font-size="12" fill="#111111">倍数 13.29x</text>
<line x1="650.29" y1="556.57" x2="620.29" y2="516.57" stroke="#3498db" stroke-width="2"/>
<rect x="400.29" y="480.57" width="220" height="58" rx="8" fill="#eef6ff" stroke="#3498db"/>
<text x="410.29" y="502.57" font-size="12" fill="#111111">前一根涨幅 1.21%</text>
<text x="410.29" y="520.57" font-size="12" fill="#111111">前一根振幅 2.02%</text>
</svg>