<svg xmlns="http://www.w3.org/2000/svg" width="1400" height="760" viewBox="0 0 1400 760">
<rect width="100%" height="100%" fill="#fcfcfc"/>
<text x="90" y="36" font-size="26" font-weight="700" fill="#111111">BIO-USDT-SWAP 4H - 10倍命中</text>
<line x1="90" y1="70.00" x2="1360" y2="70.00" stroke="#d9d9d9" stroke-dasharray="4 4" stroke-width="1"/>
<text x="12" y="74.00" font-size="12" fill="#555555">0.123970</text>
<line x1="90" y1="186.00" x2="1360" y2="186.00" stroke="#d9d9d9" stroke-dasharray="4 4" stroke-width="1"/>
<text x="12" y="190.00" font-size="12" fill="#555555">0.114758</text>
<line x1="90" y1="302.00" x2="1360" y2="302.00" stroke="#d9d9d9" stroke-dasharray="4 4" stroke-width="1"/>
<text x="12" y="306.00" font-size="12" fill="#555555">0.105546</text>
<line x1="90" y1="418.00" x2="1360" y2="418.00" stroke="#d9d9d9" stroke-dasharray="4 4" stroke-width="1"/>
<text x="12" y="422.00" font-size="12" fill="#555555">0.096334</text>
<line x1="90" y1="534.00" x2="1360" y2="534.00" stroke="#d9d9d9" stroke-dasharray="4 4" stroke-width="1"/>
<text x="12" y="538.00" font-size="12" fill="#555555">0.087122</text>
<line x1="90" y1="650.00" x2="1360" y2="650.00" stroke="#d9d9d9" stroke-dasharray="4 4" stroke-width="1"/>
<text x="12" y="654.00" font-size="12" fill="#555555">0.077910</text>
<rect x="687.65" y="70" width="74.71" height="580.00" fill="#f1c40f" opacity="0.16"/>
<rect x="612.94" y="70" width="74.71" height="580.00" fill="#3498db" opacity="0.10"/>
<line x1="127.35" y1="612.73" x2="127.35" y2="626.83" stroke="#e74c3c" stroke-width="2"/>
<rect x="105.69" y="618.90" width="43.33" height="2.27" fill="#e74c3c" stroke="#e74c3c" stroke-width="1"/>
<text x="127.35" y="704" font-size="11" fill="#555555" text-anchor="middle">10-19</text>
<text x="127.35" y="720" font-size="11" fill="#555555" text-anchor="middle">04:00</text>
<line x1="202.06" y1="619.15" x2="202.06" y2="635.90" stroke="#2ecc71" stroke-width="2"/>
<rect x="180.39" y="620.79" width="43.33" height="1.20" fill="#2ecc71" stroke="#2ecc71" stroke-width="1"/>
<text x="202.06" y="704" font-size="11" fill="#555555" text-anchor="middle">10-19</text>
<text x="202.06" y="720" font-size="11" fill="#555555" text-anchor="middle">08:00</text>
<line x1="276.76" y1="618.77" x2="276.76" y2="637.16" stroke="#e74c3c" stroke-width="2"/>
<rect x="255.10" y="620.66" width="43.33" height="11.58" fill="#e74c3c" stroke="#e74c3c" stroke-width="1"/>
<text x="276.76" y="704" font-size="11" fill="#555555" text-anchor="middle">10-19</text>
<text x="276.76" y="720" font-size="11" fill="#555555" text-anchor="middle">12:00</text>
<line x1="351.47" y1="590.94" x2="351.47" y2="650.00" stroke="#2ecc71" stroke-width="2"/>
<rect x="329.81" y="605.05" width="43.33" height="27.20" fill="#2ecc71" stroke="#2ecc71" stroke-width="1"/>
<text x="351.47" y="704" font-size="11" fill="#555555" text-anchor="middle">10-19</text>
<text x="351.47" y="720" font-size="11" fill="#555555" text-anchor="middle">16:00</text>
<line x1="426.18" y1="579.23" x2="426.18" y2="614.87" stroke="#2ecc71" stroke-width="2"/>
<rect x="404.51" y="595.22" width="43.33" height="9.70" fill="#2ecc71" stroke="#2ecc71" stroke-width="1"/>
<text x="426.18" y="704" font-size="11" fill="#555555" text-anchor="middle">10-19</text>
<text x="426.18" y="720" font-size="11" fill="#555555" text-anchor="middle">20:00</text>
<line x1="500.88" y1="567.77" x2="500.88" y2="605.93" stroke="#2ecc71" stroke-width="2"/>
<rect x="479.22" y="567.77" width="43.33" height="27.45" fill="#2ecc71" stroke="#2ecc71" stroke-width="1"/>
<text x="500.88" y="704" font-size="11" fill="#555555" text-anchor="middle">10-20</text>
<text x="500.88" y="720" font-size="11" fill="#555555" text-anchor="middle">00:00</text>
<line x1="575.59" y1="526.60" x2="575.59" y2="579.11" stroke="#e74c3c" stroke-width="2"/>
<rect x="553.92" y="567.90" width="43.33" height="8.69" fill="#e74c3c" stroke="#e74c3c" stroke-width="1"/>
<text x="575.59" y="704" font-size="11" fill="#555555" text-anchor="middle">10-20</text>
<text x="575.59" y="720" font-size="11" fill="#555555" text-anchor="middle">04:00</text>
<line x1="650.29" y1="559.71" x2="650.29" y2="608.45" stroke="#2ecc71" stroke-width="2"/>
<rect x="628.63" y="565.51" width="43.33" height="11.08" fill="#2ecc71" stroke="#2ecc71" stroke-width="1"/>
<text x="650.29" y="704" font-size="11" fill="#555555" text-anchor="middle">10-20</text>
<text x="650.29" y="720" font-size="11" fill="#555555" text-anchor="middle">08:00</text>
<line x1="725.00" y1="70.00" x2="725.00" y2="572.31" stroke="#2ecc71" stroke-width="2"/>
<rect x="703.34" y="296.28" width="43.33" height="269.22" fill="#2ecc71" stroke="#2ecc71" stroke-width="1"/>
<text x="725.00" y="704" font-size="11" fill="#555555" text-anchor="middle">10-20</text>
<text x="725.00" y="720" font-size="11" fill="#555555" text-anchor="middle">12:00</text>
<line x1="799.71" y1="206.88" x2="799.71" y2="369.57" stroke="#2ecc71" stroke-width="2"/>
<rect x="778.04" y="287.47" width="43.33" height="8.31" fill="#2ecc71" stroke="#2ecc71" stroke-width="1"/>
<text x="799.71" y="704" font-size="11" fill="#555555" text-anchor="middle">10-20</text>
<text x="799.71" y="720" font-size="11" fill="#555555" text-anchor="middle">16:00</text>
<line x1="874.41" y1="140.52" x2="874.41" y2="343.76" stroke="#2ecc71" stroke-width="2"/>
<rect x="852.75" y="280.17" width="43.33" height="6.93" fill="#2ecc71" stroke="#2ecc71" stroke-width="1"/>
<text x="874.41" y="704" font-size="11" fill="#555555" text-anchor="middle">10-20</text>
<text x="874.41" y="720" font-size="11" fill="#555555" text-anchor="middle">20:00</text>
<line x1="949.12" y1="247.05" x2="949.12" y2="339.35" stroke="#e74c3c" stroke-width="2"/>
<rect x="927.45" y="280.29" width="43.33" height="53.89" fill="#e74c3c" stroke="#e74c3c" stroke-width="1"/>
<text x="949.12" y="704" font-size="11" fill="#555555" text-anchor="middle">10-21</text>
<text x="949.12" y="720" font-size="11" fill="#555555" text-anchor="middle">00:00</text>
<line x1="1023.82" y1="320.33" x2="1023.82" y2="364.16" stroke="#e74c3c" stroke-width="2"/>
<rect x="1002.16" y="334.56" width="43.33" height="11.84" fill="#e74c3c" stroke="#e74c3c" stroke-width="1"/>
<text x="1023.82" y="704" font-size="11" fill="#555555" text-anchor="middle">10-21</text>
<text x="1023.82" y="720" font-size="11" fill="#555555" text-anchor="middle">04:00</text>
<line x1="1098.53" y1="346.15" x2="1098.53" y2="436.44" stroke="#e74c3c" stroke-width="2"/>
<rect x="1076.86" y="346.27" width="43.33" height="87.26" fill="#e74c3c" stroke="#e74c3c" stroke-width="1"/>
<text x="1098.53" y="704" font-size="11" fill="#555555" text-anchor="middle">10-21</text>
<text x="1098.53" y="720" font-size="11" fill="#555555" text-anchor="middle">08:00</text>
<line x1="1173.24" y1="432.66" x2="1173.24" y2="495.37" stroke="#e74c3c" stroke-width="2"/>
<rect x="1151.57" y="433.29" width="43.33" height="52.13" fill="#e74c3c" stroke="#e74c3c" stroke-width="1"/>
<text x="1173.24" y="704" font-size="11" fill="#555555" text-anchor="middle">10-21</text>
<text x="1173.24" y="720" font-size="11" fill="#555555" text-anchor="middle">12:00</text>
<line x1="1247.94" y1="464.39" x2="1247.94" y2="497.00" stroke="#e74c3c" stroke-width="2"/>
<rect x="1226.28" y="485.42" width="43.33" height="5.54" fill="#e74c3c" stroke="#e74c3c" stroke-width="1"/>
<text x="1247.94" y="704" font-size="11" fill="#555555" text-anchor="middle">10-21</text>
<text x="1247.94" y="720" font-size="11" fill="#555555" text-anchor="middle">16:00</text>
<line x1="1322.65" y1="421.45" x2="1322.65" y2="507.33" stroke="#2ecc71" stroke-width="2"/>
<rect x="1300.98" y="426.49" width="43.33" height="64.60" fill="#2ecc71" stroke="#2ecc71" stroke-width="1"/>
<text x="1322.65" y="704" font-size="11" fill="#555555" text-anchor="middle">10-21</text>
<text x="1322.65" y="720" font-size="11" fill="#555555" text-anchor="middle">20:00</text>
<line x1="725.00" y1="70.00" x2="805.00" y2="90.00" stroke="#f1c40f" stroke-width="2"/>
<rect x="805.00" y="42.00" width="220" height="72" rx="8" fill="#fff8dc" stroke="#f1c40f"/>
<text x="815.00" y="66.00" font-size="12" fill="#111111">目标K线 2025-10-20 12:00</text>
<text x="815.00" y="84.00" font-size="12" fill="#111111">振幅 47.14%</text>
<text x="815.00" y="102.00" font-size="12" fill="#111111">倍数 10.20x</text>
<line x1="650.29" y1="559.71" x2="620.29" y2="519.71" stroke="#3498db" stroke-width="2"/>
<rect x="400.29" y="483.71" width="220" height="58" rx="8" fill="#eef6ff" stroke="#3498db"/>
<text x="410.29" y="505.71" font-size="12" fill="#111111">前一根涨幅 1.05%</text>
<text x="410.29" y="523.71" font-size="12" fill="#111111">前一根振幅 4.62%</text>
</svg>