<svg xmlns="http://www.w3.org/2000/svg" width="1400" height="760" viewBox="0 0 1400 760">
<rect width="100%" height="100%" fill="#fcfcfc"/>
<text x="90" y="36" font-size="26" font-weight="700" fill="#111111">DOGE-USDT-SWAP 4H - 10倍命中</text>
<line x1="90" y1="70.00" x2="1360" y2="70.00" stroke="#d9d9d9" stroke-dasharray="4 4" stroke-width="1"/>
<text x="12" y="74.00" font-size="12" fill="#555555">0.083840</text>
<line x1="90" y1="186.00" x2="1360" y2="186.00" stroke="#d9d9d9" stroke-dasharray="4 4" stroke-width="1"/>
<text x="12" y="190.00" font-size="12" fill="#555555">0.068519</text>
<line x1="90" y1="302.00" x2="1360" y2="302.00" stroke="#d9d9d9" stroke-dasharray="4 4" stroke-width="1"/>
<text x="12" y="306.00" font-size="12" fill="#555555">0.053199</text>
<line x1="90" y1="418.00" x2="1360" y2="418.00" stroke="#d9d9d9" stroke-dasharray="4 4" stroke-width="1"/>
<text x="12" y="422.00" font-size="12" fill="#555555">0.037878</text>
<line x1="90" y1="534.00" x2="1360" y2="534.00" stroke="#d9d9d9" stroke-dasharray="4 4" stroke-width="1"/>
<text x="12" y="538.00" font-size="12" fill="#555555">0.022558</text>
<line x1="90" y1="650.00" x2="1360" y2="650.00" stroke="#d9d9d9" stroke-dasharray="4 4" stroke-width="1"/>
<text x="12" y="654.00" font-size="12" fill="#555555">0.007237</text>
<rect x="687.65" y="70" width="74.71" height="580.00" fill="#f1c40f" opacity="0.16"/>
<rect x="612.94" y="70" width="74.71" height="580.00" fill="#3498db" opacity="0.10"/>
<line x1="127.35" y1="641.98" x2="127.35" y2="643.59" stroke="#e74c3c" stroke-width="2"/>
<rect x="105.69" y="642.00" width="43.33" height="1.20" fill="#e74c3c" stroke="#e74c3c" stroke-width="1"/>
<text x="127.35" y="704" font-size="11" fill="#555555" text-anchor="middle">01-27</text>
<text x="127.35" y="720" font-size="11" fill="#555555" text-anchor="middle">04:00</text>
<line x1="202.06" y1="642.48" x2="202.06" y2="643.85" stroke="#e74c3c" stroke-width="2"/>
<rect x="180.39" y="642.51" width="43.33" height="1.20" fill="#e74c3c" stroke="#e74c3c" stroke-width="1"/>
<text x="202.06" y="704" font-size="11" fill="#555555" text-anchor="middle">01-27</text>
<text x="202.06" y="720" font-size="11" fill="#555555" text-anchor="middle">08:00</text>
<line x1="276.76" y1="643.25" x2="276.76" y2="644.37" stroke="#2ecc71" stroke-width="2"/>
<rect x="255.10" y="643.43" width="43.33" height="1.20" fill="#2ecc71" stroke="#2ecc71" stroke-width="1"/>
<text x="276.76" y="704" font-size="11" fill="#555555" text-anchor="middle">01-27</text>
<text x="276.76" y="720" font-size="11" fill="#555555" text-anchor="middle">12:00</text>
<line x1="351.47" y1="643.41" x2="351.47" y2="645.76" stroke="#e74c3c" stroke-width="2"/>
<rect x="329.81" y="643.41" width="43.33" height="2.30" fill="#e74c3c" stroke="#e74c3c" stroke-width="1"/>
<text x="351.47" y="704" font-size="11" fill="#555555" text-anchor="middle">01-27</text>
<text x="351.47" y="720" font-size="11" fill="#555555" text-anchor="middle">16:00</text>
<line x1="426.18" y1="645.44" x2="426.18" y2="650.00" stroke="#e74c3c" stroke-width="2"/>
<rect x="404.51" y="645.71" width="43.33" height="1.37" fill="#e74c3c" stroke="#e74c3c" stroke-width="1"/>
<text x="426.18" y="704" font-size="11" fill="#555555" text-anchor="middle">01-27</text>
<text x="426.18" y="720" font-size="11" fill="#555555" text-anchor="middle">20:00</text>
<line x1="500.88" y1="646.26" x2="500.88" y2="649.44" stroke="#e74c3c" stroke-width="2"/>
<rect x="479.22" y="647.15" width="43.33" height="1.48" fill="#e74c3c" stroke="#e74c3c" stroke-width="1"/>
<text x="500.88" y="704" font-size="11" fill="#555555" text-anchor="middle">01-28</text>
<text x="500.88" y="720" font-size="11" fill="#555555" text-anchor="middle">00:00</text>
<line x1="575.59" y1="647.28" x2="575.59" y2="648.85" stroke="#2ecc71" stroke-width="2"/>
<rect x="553.92" y="648.47" width="43.33" height="1.20" fill="#2ecc71" stroke="#2ecc71" stroke-width="1"/>
<text x="575.59" y="704" font-size="11" fill="#555555" text-anchor="middle">01-28</text>
<text x="575.59" y="720" font-size="11" fill="#555555" text-anchor="middle">04:00</text>
<line x1="650.29" y1="645.32" x2="650.29" y2="649.67" stroke="#2ecc71" stroke-width="2"/>
<rect x="628.63" y="645.34" width="43.33" height="3.20" fill="#2ecc71" stroke="#2ecc71" stroke-width="1"/>
<text x="650.29" y="704" font-size="11" fill="#555555" text-anchor="middle">01-28</text>
<text x="650.29" y="720" font-size="11" fill="#555555" text-anchor="middle">08:00</text>
<line x1="725.00" y1="590.43" x2="725.00" y2="645.31" stroke="#2ecc71" stroke-width="2"/>
<rect x="703.34" y="622.56" width="43.33" height="22.75" fill="#2ecc71" stroke="#2ecc71" stroke-width="1"/>
<text x="725.00" y="704" font-size="11" fill="#555555" text-anchor="middle">01-28</text>
<text x="725.00" y="720" font-size="11" fill="#555555" text-anchor="middle">12:00</text>
<line x1="799.71" y1="604.22" x2="799.71" y2="622.99" stroke="#2ecc71" stroke-width="2"/>
<rect x="778.04" y="608.68" width="43.33" height="14.20" fill="#2ecc71" stroke="#2ecc71" stroke-width="1"/>
<text x="799.71" y="704" font-size="11" fill="#555555" text-anchor="middle">01-28</text>
<text x="799.71" y="720" font-size="11" fill="#555555" text-anchor="middle">16:00</text>
<line x1="874.41" y1="497.58" x2="874.41" y2="619.19" stroke="#2ecc71" stroke-width="2"/>
<rect x="852.75" y="566.05" width="43.33" height="42.48" fill="#2ecc71" stroke="#2ecc71" stroke-width="1"/>
<text x="874.41" y="704" font-size="11" fill="#555555" text-anchor="middle">01-28</text>
<text x="874.41" y="720" font-size="11" fill="#555555" text-anchor="middle">20:00</text>
<line x1="949.12" y1="517.02" x2="949.12" y2="590.55" stroke="#2ecc71" stroke-width="2"/>
<rect x="927.45" y="539.18" width="43.33" height="26.86" fill="#2ecc71" stroke="#2ecc71" stroke-width="1"/>
<text x="949.12" y="704" font-size="11" fill="#555555" text-anchor="middle">01-29</text>
<text x="949.12" y="720" font-size="11" fill="#555555" text-anchor="middle">00:00</text>
<line x1="1023.82" y1="423.17" x2="1023.82" y2="544.48" stroke="#2ecc71" stroke-width="2"/>
<rect x="1002.16" y="431.26" width="43.33" height="107.92" fill="#2ecc71" stroke="#2ecc71" stroke-width="1"/>
<text x="1023.82" y="704" font-size="11" fill="#555555" text-anchor="middle">01-29</text>
<text x="1023.82" y="720" font-size="11" fill="#555555" text-anchor="middle">04:00</text>
<line x1="1098.53" y1="90.50" x2="1098.53" y2="463.66" stroke="#2ecc71" stroke-width="2"/>
<rect x="1076.86" y="93.95" width="43.33" height="337.91" fill="#2ecc71" stroke="#2ecc71" stroke-width="1"/>
<text x="1098.53" y="704" font-size="11" fill="#555555" text-anchor="middle">01-29</text>
<text x="1098.53" y="720" font-size="11" fill="#555555" text-anchor="middle">08:00</text>
<line x1="1173.24" y1="70.00" x2="1173.24" y2="395.21" stroke="#e74c3c" stroke-width="2"/>
<rect x="1151.57" y="91.43" width="43.33" height="224.93" fill="#e74c3c" stroke="#e74c3c" stroke-width="1"/>
<text x="1173.24" y="704" font-size="11" fill="#555555" text-anchor="middle">01-29</text>
<text x="1173.24" y="720" font-size="11" fill="#555555" text-anchor="middle">12:00</text>
<line x1="1247.94" y1="250.50" x2="1247.94" y2="438.01" stroke="#e74c3c" stroke-width="2"/>
<rect x="1226.28" y="315.90" width="43.33" height="11.39" fill="#e74c3c" stroke="#e74c3c" stroke-width="1"/>
<text x="1247.94" y="704" font-size="11" fill="#555555" text-anchor="middle">01-29</text>
<text x="1247.94" y="720" font-size="11" fill="#555555" text-anchor="middle">16:00</text>
<line x1="1322.65" y1="196.47" x2="1322.65" y2="338.92" stroke="#2ecc71" stroke-width="2"/>
<rect x="1300.98" y="290.03" width="43.33" height="37.12" fill="#2ecc71" stroke="#2ecc71" stroke-width="1"/>
<text x="1322.65" y="704" font-size="11" fill="#555555" text-anchor="middle">01-29</text>
<text x="1322.65" y="720" font-size="11" fill="#555555" text-anchor="middle">20:00</text>
<line x1="725.00" y1="590.43" x2="805.00" y2="520.43" stroke="#f1c40f" stroke-width="2"/>
<rect x="805.00" y="472.43" width="220" height="72" rx="8" fill="#fff8dc" stroke="#f1c40f"/>
<text x="815.00" y="496.43" font-size="12" fill="#111111">目标K线 2021-01-28 12:00</text>
<text x="815.00" y="514.43" font-size="12" fill="#111111">振幅 92.26%</text>
<text x="815.00" y="532.43" font-size="12" fill="#111111">倍数 11.94x</text>
<line x1="650.29" y1="645.32" x2="620.29" y2="605.32" stroke="#3498db" stroke-width="2"/>
<rect x="400.29" y="569.32" width="220" height="58" rx="8" fill="#eef6ff" stroke="#3498db"/>
<text x="410.29" y="591.32" font-size="12" fill="#111111">前一根涨幅 5.69%</text>
<text x="410.29" y="609.32" font-size="12" fill="#111111">前一根振幅 7.73%</text>
</svg>