<svg xmlns="http://www.w3.org/2000/svg" width="1400" height="760" viewBox="0 0 1400 760">
<rect width="100%" height="100%" fill="#fcfcfc"/>
<text x="90" y="36" font-size="26" font-weight="700" fill="#111111">GMX-USDT-SWAP 4H - 10倍命中</text>
<line x1="90" y1="70.00" x2="1360" y2="70.00" stroke="#d9d9d9" stroke-dasharray="4 4" stroke-width="1"/>
<text x="12" y="74.00" font-size="12" fill="#555555">36.900000</text>
<line x1="90" y1="186.00" x2="1360" y2="186.00" stroke="#d9d9d9" stroke-dasharray="4 4" stroke-width="1"/>
<text x="12" y="190.00" font-size="12" fill="#555555">34.586000</text>
<line x1="90" y1="302.00" x2="1360" y2="302.00" stroke="#d9d9d9" stroke-dasharray="4 4" stroke-width="1"/>
<text x="12" y="306.00" font-size="12" fill="#555555">32.272000</text>
<line x1="90" y1="418.00" x2="1360" y2="418.00" stroke="#d9d9d9" stroke-dasharray="4 4" stroke-width="1"/>
<text x="12" y="422.00" font-size="12" fill="#555555">29.958000</text>
<line x1="90" y1="534.00" x2="1360" y2="534.00" stroke="#d9d9d9" stroke-dasharray="4 4" stroke-width="1"/>
<text x="12" y="538.00" font-size="12" fill="#555555">27.644000</text>
<line x1="90" y1="650.00" x2="1360" y2="650.00" stroke="#d9d9d9" stroke-dasharray="4 4" stroke-width="1"/>
<text x="12" y="654.00" font-size="12" fill="#555555">25.330000</text>
<rect x="687.65" y="70" width="74.71" height="580.00" fill="#f1c40f" opacity="0.16"/>
<rect x="612.94" y="70" width="74.71" height="580.00" fill="#3498db" opacity="0.10"/>
<line x1="127.35" y1="629.45" x2="127.35" y2="649.50" stroke="#2ecc71" stroke-width="2"/>
<rect x="105.69" y="643.48" width="43.33" height="2.01" fill="#2ecc71" stroke="#2ecc71" stroke-width="1"/>
<text x="127.35" y="704" font-size="11" fill="#555555" text-anchor="middle">08-23</text>
<text x="127.35" y="720" font-size="11" fill="#555555" text-anchor="middle">08:00</text>
<line x1="202.06" y1="599.87" x2="202.06" y2="650.00" stroke="#2ecc71" stroke-width="2"/>
<rect x="180.39" y="610.40" width="43.33" height="33.09" fill="#2ecc71" stroke="#2ecc71" stroke-width="1"/>
<text x="202.06" y="704" font-size="11" fill="#555555" text-anchor="middle">08-23</text>
<text x="202.06" y="720" font-size="11" fill="#555555" text-anchor="middle">12:00</text>
<line x1="276.76" y1="600.87" x2="276.76" y2="616.91" stroke="#2ecc71" stroke-width="2"/>
<rect x="255.10" y="608.39" width="43.33" height="2.51" fill="#2ecc71" stroke="#2ecc71" stroke-width="1"/>
<text x="276.76" y="704" font-size="11" fill="#555555" text-anchor="middle">08-23</text>
<text x="276.76" y="720" font-size="11" fill="#555555" text-anchor="middle">16:00</text>
<line x1="351.47" y1="583.33" x2="351.47" y2="626.94" stroke="#2ecc71" stroke-width="2"/>
<rect x="329.81" y="589.84" width="43.33" height="18.05" fill="#2ecc71" stroke="#2ecc71" stroke-width="1"/>
<text x="351.47" y="704" font-size="11" fill="#555555" text-anchor="middle">08-23</text>
<text x="351.47" y="720" font-size="11" fill="#555555" text-anchor="middle">20:00</text>
<line x1="426.18" y1="542.22" x2="426.18" y2="594.36" stroke="#2ecc71" stroke-width="2"/>
<rect x="404.51" y="546.73" width="43.33" height="43.11" fill="#2ecc71" stroke="#2ecc71" stroke-width="1"/>
<text x="426.18" y="704" font-size="11" fill="#555555" text-anchor="middle">08-24</text>
<text x="426.18" y="720" font-size="11" fill="#555555" text-anchor="middle">00:00</text>
<line x1="500.88" y1="522.17" x2="500.88" y2="547.23" stroke="#2ecc71" stroke-width="2"/>
<rect x="479.22" y="537.71" width="43.33" height="8.02" fill="#2ecc71" stroke="#2ecc71" stroke-width="1"/>
<text x="500.88" y="704" font-size="11" fill="#555555" text-anchor="middle">08-24</text>
<text x="500.88" y="720" font-size="11" fill="#555555" text-anchor="middle">04:00</text>
<line x1="575.59" y1="531.19" x2="575.59" y2="573.30" stroke="#e74c3c" stroke-width="2"/>
<rect x="553.92" y="537.21" width="43.33" height="36.09" fill="#e74c3c" stroke="#e74c3c" stroke-width="1"/>
<text x="575.59" y="704" font-size="11" fill="#555555" text-anchor="middle">08-24</text>
<text x="575.59" y="720" font-size="11" fill="#555555" text-anchor="middle">08:00</text>
<line x1="650.29" y1="551.75" x2="650.29" y2="572.80" stroke="#2ecc71" stroke-width="2"/>
<rect x="628.63" y="552.75" width="43.33" height="20.05" fill="#2ecc71" stroke="#2ecc71" stroke-width="1"/>
<text x="650.29" y="704" font-size="11" fill="#555555" text-anchor="middle">08-24</text>
<text x="650.29" y="720" font-size="11" fill="#555555" text-anchor="middle">12:00</text>
<line x1="725.00" y1="70.00" x2="725.00" y2="556.76" stroke="#2ecc71" stroke-width="2"/>
<rect x="703.34" y="269.01" width="43.33" height="283.73" fill="#2ecc71" stroke="#2ecc71" stroke-width="1"/>
<text x="725.00" y="704" font-size="11" fill="#555555" text-anchor="middle">08-24</text>
<text x="725.00" y="720" font-size="11" fill="#555555" text-anchor="middle">16:00</text>
<line x1="799.71" y1="251.97" x2="799.71" y2="322.65" stroke="#e74c3c" stroke-width="2"/>
<rect x="778.04" y="269.52" width="43.33" height="49.63" fill="#e74c3c" stroke="#e74c3c" stroke-width="1"/>
<text x="799.71" y="704" font-size="11" fill="#555555" text-anchor="middle">08-24</text>
<text x="799.71" y="720" font-size="11" fill="#555555" text-anchor="middle">20:00</text>
<line x1="874.41" y1="229.91" x2="874.41" y2="333.18" stroke="#e74c3c" stroke-width="2"/>
<rect x="852.75" y="319.65" width="43.33" height="7.02" fill="#e74c3c" stroke="#e74c3c" stroke-width="1"/>
<text x="874.41" y="704" font-size="11" fill="#555555" text-anchor="middle">08-25</text>
<text x="874.41" y="720" font-size="11" fill="#555555" text-anchor="middle">00:00</text>
<line x1="949.12" y1="325.16" x2="949.12" y2="428.93" stroke="#e74c3c" stroke-width="2"/>
<rect x="927.45" y="327.17" width="43.33" height="73.19" fill="#e74c3c" stroke="#e74c3c" stroke-width="1"/>
<text x="949.12" y="704" font-size="11" fill="#555555" text-anchor="middle">08-25</text>
<text x="949.12" y="720" font-size="11" fill="#555555" text-anchor="middle">04:00</text>
<line x1="1023.82" y1="399.35" x2="1023.82" y2="465.02" stroke="#e74c3c" stroke-width="2"/>
<rect x="1002.16" y="400.86" width="43.33" height="48.12" fill="#e74c3c" stroke="#e74c3c" stroke-width="1"/>
<text x="1023.82" y="704" font-size="11" fill="#555555" text-anchor="middle">08-25</text>
<text x="1023.82" y="720" font-size="11" fill="#555555" text-anchor="middle">08:00</text>
<line x1="1098.53" y1="441.46" x2="1098.53" y2="495.60" stroke="#e74c3c" stroke-width="2"/>
<rect x="1076.86" y="448.98" width="43.33" height="36.09" fill="#e74c3c" stroke="#e74c3c" stroke-width="1"/>
<text x="1098.53" y="704" font-size="11" fill="#555555" text-anchor="middle">08-25</text>
<text x="1098.53" y="720" font-size="11" fill="#555555" text-anchor="middle">12:00</text>
<line x1="1173.24" y1="465.02" x2="1173.24" y2="495.10" stroke="#2ecc71" stroke-width="2"/>
<rect x="1151.57" y="485.07" width="43.33" height="1.20" fill="#2ecc71" stroke="#2ecc71" stroke-width="1"/>
<text x="1173.24" y="704" font-size="11" fill="#555555" text-anchor="middle">08-25</text>
<text x="1173.24" y="720" font-size="11" fill="#555555" text-anchor="middle">16:00</text>
<line x1="1247.94" y1="457.50" x2="1247.94" y2="486.58" stroke="#2ecc71" stroke-width="2"/>
<rect x="1226.28" y="476.05" width="43.33" height="9.52" fill="#2ecc71" stroke="#2ecc71" stroke-width="1"/>
<text x="1247.94" y="704" font-size="11" fill="#555555" text-anchor="middle">08-25</text>
<text x="1247.94" y="720" font-size="11" fill="#555555" text-anchor="middle">20:00</text>
<line x1="1322.65" y1="469.03" x2="1322.65" y2="506.13" stroke="#e74c3c" stroke-width="2"/>
<rect x="1300.98" y="476.05" width="43.33" height="25.57" fill="#e74c3c" stroke="#e74c3c" stroke-width="1"/>
<text x="1322.65" y="704" font-size="11" fill="#555555" text-anchor="middle">08-26</text>
<text x="1322.65" y="720" font-size="11" fill="#555555" text-anchor="middle">00:00</text>
<line x1="725.00" y1="70.00" x2="805.00" y2="90.00" stroke="#f1c40f" stroke-width="2"/>
<rect x="805.00" y="42.00" width="220" height="72" rx="8" fill="#fff8dc" stroke="#f1c40f"/>
<text x="815.00" y="66.00" font-size="12" fill="#111111">目标K线 2024-08-24 16:00</text>
<text x="815.00" y="84.00" font-size="12" fill="#111111">振幅 35.61%</text>
<text x="815.00" y="102.00" font-size="12" fill="#111111">倍数 22.78x</text>
<line x1="650.29" y1="551.75" x2="620.29" y2="511.75" stroke="#3498db" stroke-width="2"/>
<rect x="400.29" y="475.75" width="220" height="58" rx="8" fill="#eef6ff" stroke="#3498db"/>
<text x="410.29" y="497.75" font-size="12" fill="#111111">前一根涨幅 1.49%</text>
<text x="410.29" y="515.75" font-size="12" fill="#111111">前一根振幅 1.56%</text>
</svg>