<svg xmlns="http://www.w3.org/2000/svg" width="1400" height="760" viewBox="0 0 1400 760">
<rect width="100%" height="100%" fill="#fcfcfc"/>
<text x="90" y="36" font-size="26" font-weight="700" fill="#111111">IP-USDT-SWAP 4H - 10倍命中</text>
<line x1="90" y1="70.00" x2="1360" y2="70.00" stroke="#d9d9d9" stroke-dasharray="4 4" stroke-width="1"/>
<text x="12" y="74.00" font-size="12" fill="#555555">8.563900</text>
<line x1="90" y1="186.00" x2="1360" y2="186.00" stroke="#d9d9d9" stroke-dasharray="4 4" stroke-width="1"/>
<text x="12" y="190.00" font-size="12" fill="#555555">8.033920</text>
<line x1="90" y1="302.00" x2="1360" y2="302.00" stroke="#d9d9d9" stroke-dasharray="4 4" stroke-width="1"/>
<text x="12" y="306.00" font-size="12" fill="#555555">7.503940</text>
<line x1="90" y1="418.00" x2="1360" y2="418.00" stroke="#d9d9d9" stroke-dasharray="4 4" stroke-width="1"/>
<text x="12" y="422.00" font-size="12" fill="#555555">6.973960</text>
<line x1="90" y1="534.00" x2="1360" y2="534.00" stroke="#d9d9d9" stroke-dasharray="4 4" stroke-width="1"/>
<text x="12" y="538.00" font-size="12" fill="#555555">6.443980</text>
<line x1="90" y1="650.00" x2="1360" y2="650.00" stroke="#d9d9d9" stroke-dasharray="4 4" stroke-width="1"/>
<text x="12" y="654.00" font-size="12" fill="#555555">5.914000</text>
<rect x="687.65" y="70" width="74.71" height="580.00" fill="#f1c40f" opacity="0.16"/>
<rect x="612.94" y="70" width="74.71" height="580.00" fill="#3498db" opacity="0.10"/>
<line x1="127.35" y1="609.99" x2="127.35" y2="625.90" stroke="#2ecc71" stroke-width="2"/>
<rect x="105.69" y="615.26" width="43.33" height="1.31" fill="#2ecc71" stroke="#2ecc71" stroke-width="1"/>
<text x="127.35" y="704" font-size="11" fill="#555555" text-anchor="middle">08-29</text>
<text x="127.35" y="720" font-size="11" fill="#555555" text-anchor="middle">12:00</text>
<line x1="202.06" y1="597.97" x2="202.06" y2="628.62" stroke="#e74c3c" stroke-width="2"/>
<rect x="180.39" y="615.24" width="43.33" height="9.06" fill="#e74c3c" stroke="#e74c3c" stroke-width="1"/>
<text x="202.06" y="704" font-size="11" fill="#555555" text-anchor="middle">08-29</text>
<text x="202.06" y="720" font-size="11" fill="#555555" text-anchor="middle">16:00</text>
<line x1="276.76" y1="605.81" x2="276.76" y2="636.85" stroke="#e74c3c" stroke-width="2"/>
<rect x="255.10" y="624.24" width="43.33" height="3.37" fill="#e74c3c" stroke="#e74c3c" stroke-width="1"/>
<text x="276.76" y="704" font-size="11" fill="#555555" text-anchor="middle">08-29</text>
<text x="276.76" y="720" font-size="11" fill="#555555" text-anchor="middle">20:00</text>
<line x1="351.47" y1="619.38" x2="351.47" y2="640.17" stroke="#e74c3c" stroke-width="2"/>
<rect x="329.81" y="628.02" width="43.33" height="1.20" fill="#e74c3c" stroke="#e74c3c" stroke-width="1"/>
<text x="351.47" y="704" font-size="11" fill="#555555" text-anchor="middle">08-30</text>
<text x="351.47" y="720" font-size="11" fill="#555555" text-anchor="middle">00:00</text>
<line x1="426.18" y1="622.51" x2="426.18" y2="650.00" stroke="#2ecc71" stroke-width="2"/>
<rect x="404.51" y="627.48" width="43.33" height="1.44" fill="#2ecc71" stroke="#2ecc71" stroke-width="1"/>
<text x="426.18" y="704" font-size="11" fill="#555555" text-anchor="middle">08-30</text>
<text x="426.18" y="720" font-size="11" fill="#555555" text-anchor="middle">04:00</text>
<line x1="500.88" y1="618.39" x2="500.88" y2="645.86" stroke="#2ecc71" stroke-width="2"/>
<rect x="479.22" y="626.32" width="43.33" height="1.29" fill="#2ecc71" stroke="#2ecc71" stroke-width="1"/>
<text x="500.88" y="704" font-size="11" fill="#555555" text-anchor="middle">08-30</text>
<text x="500.88" y="720" font-size="11" fill="#555555" text-anchor="middle">08:00</text>
<line x1="575.59" y1="598.35" x2="575.59" y2="629.84" stroke="#2ecc71" stroke-width="2"/>
<rect x="553.92" y="600.91" width="43.33" height="25.43" fill="#2ecc71" stroke="#2ecc71" stroke-width="1"/>
<text x="575.59" y="704" font-size="11" fill="#555555" text-anchor="middle">08-30</text>
<text x="575.59" y="720" font-size="11" fill="#555555" text-anchor="middle">12:00</text>
<line x1="650.29" y1="568.01" x2="650.29" y2="602.88" stroke="#2ecc71" stroke-width="2"/>
<rect x="628.63" y="569.19" width="43.33" height="31.58" fill="#2ecc71" stroke="#2ecc71" stroke-width="1"/>
<text x="650.29" y="704" font-size="11" fill="#555555" text-anchor="middle">08-30</text>
<text x="650.29" y="720" font-size="11" fill="#555555" text-anchor="middle">16:00</text>
<line x1="725.00" y1="92.00" x2="725.00" y2="575.43" stroke="#2ecc71" stroke-width="2"/>
<rect x="703.34" y="111.74" width="43.33" height="457.19" fill="#2ecc71" stroke="#2ecc71" stroke-width="1"/>
<text x="725.00" y="704" font-size="11" fill="#555555" text-anchor="middle">08-30</text>
<text x="725.00" y="720" font-size="11" fill="#555555" text-anchor="middle">20:00</text>
<line x1="799.71" y1="70.00" x2="799.71" y2="338.52" stroke="#e74c3c" stroke-width="2"/>
<rect x="778.04" y="110.05" width="43.33" height="62.93" fill="#e74c3c" stroke="#e74c3c" stroke-width="1"/>
<text x="799.71" y="704" font-size="11" fill="#555555" text-anchor="middle">08-31</text>
<text x="799.71" y="720" font-size="11" fill="#555555" text-anchor="middle">00:00</text>
<line x1="874.41" y1="160.77" x2="874.41" y2="295.42" stroke="#e74c3c" stroke-width="2"/>
<rect x="852.75" y="172.46" width="43.33" height="56.78" fill="#e74c3c" stroke="#e74c3c" stroke-width="1"/>
<text x="874.41" y="704" font-size="11" fill="#555555" text-anchor="middle">08-31</text>
<text x="874.41" y="720" font-size="11" fill="#555555" text-anchor="middle">04:00</text>
<line x1="949.12" y1="127.98" x2="949.12" y2="276.49" stroke="#2ecc71" stroke-width="2"/>
<rect x="927.45" y="209.18" width="43.33" height="20.07" fill="#2ecc71" stroke="#2ecc71" stroke-width="1"/>
<text x="949.12" y="704" font-size="11" fill="#555555" text-anchor="middle">08-31</text>
<text x="949.12" y="720" font-size="11" fill="#555555" text-anchor="middle">08:00</text>
<line x1="1023.82" y1="183.42" x2="1023.82" y2="273.34" stroke="#e74c3c" stroke-width="2"/>
<rect x="1002.16" y="209.18" width="43.33" height="15.67" fill="#e74c3c" stroke="#e74c3c" stroke-width="1"/>
<text x="1023.82" y="704" font-size="11" fill="#555555" text-anchor="middle">08-31</text>
<text x="1023.82" y="720" font-size="11" fill="#555555" text-anchor="middle">12:00</text>
<line x1="1098.53" y1="220.98" x2="1098.53" y2="298.44" stroke="#e74c3c" stroke-width="2"/>
<rect x="1076.86" y="224.64" width="43.33" height="55.00" fill="#e74c3c" stroke="#e74c3c" stroke-width="1"/>
<text x="1098.53" y="704" font-size="11" fill="#555555" text-anchor="middle">08-31</text>
<text x="1098.53" y="720" font-size="11" fill="#555555" text-anchor="middle">16:00</text>
<line x1="1173.24" y1="204.70" x2="1173.24" y2="313.81" stroke="#2ecc71" stroke-width="2"/>
<rect x="1151.57" y="271.26" width="43.33" height="8.43" fill="#2ecc71" stroke="#2ecc71" stroke-width="1"/>
<text x="1173.24" y="704" font-size="11" fill="#555555" text-anchor="middle">08-31</text>
<text x="1173.24" y="720" font-size="11" fill="#555555" text-anchor="middle">20:00</text>
<line x1="1247.94" y1="217.41" x2="1247.94" y2="286.40" stroke="#2ecc71" stroke-width="2"/>
<rect x="1226.28" y="224.05" width="43.33" height="47.26" fill="#2ecc71" stroke="#2ecc71" stroke-width="1"/>
<text x="1247.94" y="704" font-size="11" fill="#555555" text-anchor="middle">09-01</text>
<text x="1247.94" y="720" font-size="11" fill="#555555" text-anchor="middle">00:00</text>
<line x1="1322.65" y1="183.05" x2="1322.65" y2="233.48" stroke="#2ecc71" stroke-width="2"/>
<rect x="1300.98" y="204.76" width="43.33" height="19.30" fill="#2ecc71" stroke="#2ecc71" stroke-width="1"/>
<text x="1322.65" y="704" font-size="11" fill="#555555" text-anchor="middle">09-01</text>
<text x="1322.65" y="720" font-size="11" fill="#555555" text-anchor="middle">04:00</text>
<line x1="725.00" y1="92.00" x2="805.00" y2="90.00" stroke="#f1c40f" stroke-width="2"/>
<rect x="805.00" y="42.00" width="220" height="72" rx="8" fill="#fff8dc" stroke="#f1c40f"/>
<text x="815.00" y="66.00" font-size="12" fill="#111111">目标K线 2025-08-30 20:00</text>
<text x="815.00" y="84.00" font-size="12" fill="#111111">振幅 35.15%</text>
<text x="815.00" y="102.00" font-size="12" fill="#111111">倍数 13.54x</text>
<line x1="650.29" y1="568.01" x2="620.29" y2="528.01" stroke="#3498db" stroke-width="2"/>
<rect x="400.29" y="492.01" width="220" height="58" rx="8" fill="#eef6ff" stroke="#3498db"/>
<text x="410.29" y="514.01" font-size="12" fill="#111111">前一根涨幅 2.35%</text>
<text x="410.29" y="532.01" font-size="12" fill="#111111">前一根振幅 2.59%</text>
</svg>