<svg xmlns="http://www.w3.org/2000/svg" width="1400" height="760" viewBox="0 0 1400 760">
<rect width="100%" height="100%" fill="#fcfcfc"/>
<text x="90" y="36" font-size="26" font-weight="700" fill="#111111">JELLYJELLY-USDT-SWAP 4H - 10倍命中</text>
<line x1="90" y1="70.00" x2="1360" y2="70.00" stroke="#d9d9d9" stroke-dasharray="4 4" stroke-width="1"/>
<text x="12" y="74.00" font-size="12" fill="#555555">0.096730</text>
<line x1="90" y1="186.00" x2="1360" y2="186.00" stroke="#d9d9d9" stroke-dasharray="4 4" stroke-width="1"/>
<text x="12" y="190.00" font-size="12" fill="#555555">0.087626</text>
<line x1="90" y1="302.00" x2="1360" y2="302.00" stroke="#d9d9d9" stroke-dasharray="4 4" stroke-width="1"/>
<text x="12" y="306.00" font-size="12" fill="#555555">0.078522</text>
<line x1="90" y1="418.00" x2="1360" y2="418.00" stroke="#d9d9d9" stroke-dasharray="4 4" stroke-width="1"/>
<text x="12" y="422.00" font-size="12" fill="#555555">0.069418</text>
<line x1="90" y1="534.00" x2="1360" y2="534.00" stroke="#d9d9d9" stroke-dasharray="4 4" stroke-width="1"/>
<text x="12" y="538.00" font-size="12" fill="#555555">0.060314</text>
<line x1="90" y1="650.00" x2="1360" y2="650.00" stroke="#d9d9d9" stroke-dasharray="4 4" stroke-width="1"/>
<text x="12" y="654.00" font-size="12" fill="#555555">0.051210</text>
<rect x="687.65" y="70" width="74.71" height="580.00" fill="#f1c40f" opacity="0.16"/>
<rect x="612.94" y="70" width="74.71" height="580.00" fill="#3498db" opacity="0.10"/>
<line x1="127.35" y1="172.06" x2="127.35" y2="229.14" stroke="#2ecc71" stroke-width="2"/>
<rect x="105.69" y="197.16" width="43.33" height="27.14" fill="#2ecc71" stroke="#2ecc71" stroke-width="1"/>
<text x="127.35" y="704" font-size="11" fill="#555555" text-anchor="middle">03-09</text>
<text x="127.35" y="720" font-size="11" fill="#555555" text-anchor="middle">00:00</text>
<line x1="202.06" y1="195.00" x2="202.06" y2="240.10" stroke="#e74c3c" stroke-width="2"/>
<rect x="180.39" y="197.16" width="43.33" height="22.43" fill="#e74c3c" stroke="#e74c3c" stroke-width="1"/>
<text x="202.06" y="704" font-size="11" fill="#555555" text-anchor="middle">03-09</text>
<text x="202.06" y="720" font-size="11" fill="#555555" text-anchor="middle">04:00</text>
<line x1="276.76" y1="204.81" x2="276.76" y2="311.20" stroke="#e74c3c" stroke-width="2"/>
<rect x="255.10" y="219.33" width="43.33" height="88.81" fill="#e74c3c" stroke="#e74c3c" stroke-width="1"/>
<text x="276.76" y="704" font-size="11" fill="#555555" text-anchor="middle">03-09</text>
<text x="276.76" y="720" font-size="11" fill="#555555" text-anchor="middle">08:00</text>
<line x1="351.47" y1="296.04" x2="351.47" y2="431.10" stroke="#e74c3c" stroke-width="2"/>
<rect x="329.81" y="308.14" width="43.33" height="107.16" fill="#e74c3c" stroke="#e74c3c" stroke-width="1"/>
<text x="351.47" y="704" font-size="11" fill="#555555" text-anchor="middle">03-09</text>
<text x="351.47" y="720" font-size="11" fill="#555555" text-anchor="middle">12:00</text>
<line x1="426.18" y1="345.22" x2="426.18" y2="428.93" stroke="#2ecc71" stroke-width="2"/>
<rect x="404.51" y="397.33" width="43.33" height="17.97" fill="#2ecc71" stroke="#2ecc71" stroke-width="1"/>
<text x="426.18" y="704" font-size="11" fill="#555555" text-anchor="middle">03-09</text>
<text x="426.18" y="720" font-size="11" fill="#555555" text-anchor="middle">16:00</text>
<line x1="500.88" y1="388.16" x2="500.88" y2="419.76" stroke="#e74c3c" stroke-width="2"/>
<rect x="479.22" y="397.46" width="43.33" height="12.61" fill="#e74c3c" stroke="#e74c3c" stroke-width="1"/>
<text x="500.88" y="704" font-size="11" fill="#555555" text-anchor="middle">03-09</text>
<text x="500.88" y="720" font-size="11" fill="#555555" text-anchor="middle">20:00</text>
<line x1="575.59" y1="399.37" x2="575.59" y2="427.91" stroke="#e74c3c" stroke-width="2"/>
<rect x="553.92" y="410.07" width="43.33" height="9.94" fill="#e74c3c" stroke="#e74c3c" stroke-width="1"/>
<text x="575.59" y="704" font-size="11" fill="#555555" text-anchor="middle">03-10</text>
<text x="575.59" y="720" font-size="11" fill="#555555" text-anchor="middle">00:00</text>
<line x1="650.29" y1="401.54" x2="650.29" y2="425.87" stroke="#2ecc71" stroke-width="2"/>
<rect x="628.63" y="407.91" width="43.33" height="11.98" fill="#2ecc71" stroke="#2ecc71" stroke-width="1"/>
<text x="650.29" y="704" font-size="11" fill="#555555" text-anchor="middle">03-10</text>
<text x="650.29" y="720" font-size="11" fill="#555555" text-anchor="middle">04:00</text>
<line x1="725.00" y1="70.00" x2="725.00" y2="446.26" stroke="#2ecc71" stroke-width="2"/>
<rect x="703.34" y="300.11" width="43.33" height="108.05" fill="#2ecc71" stroke="#2ecc71" stroke-width="1"/>
<text x="725.00" y="704" font-size="11" fill="#555555" text-anchor="middle">03-10</text>
<text x="725.00" y="720" font-size="11" fill="#555555" text-anchor="middle">08:00</text>
<line x1="799.71" y1="152.57" x2="799.71" y2="561.57" stroke="#e74c3c" stroke-width="2"/>
<rect x="778.04" y="300.62" width="43.33" height="229.60" fill="#e74c3c" stroke="#e74c3c" stroke-width="1"/>
<text x="799.71" y="704" font-size="11" fill="#555555" text-anchor="middle">03-10</text>
<text x="799.71" y="720" font-size="11" fill="#555555" text-anchor="middle">12:00</text>
<line x1="874.41" y1="525.51" x2="874.41" y2="620.69" stroke="#e74c3c" stroke-width="2"/>
<rect x="852.75" y="529.72" width="43.33" height="73.52" fill="#e74c3c" stroke="#e74c3c" stroke-width="1"/>
<text x="874.41" y="704" font-size="11" fill="#555555" text-anchor="middle">03-10</text>
<text x="874.41" y="720" font-size="11" fill="#555555" text-anchor="middle">16:00</text>
<line x1="949.12" y1="527.30" x2="949.12" y2="612.16" stroke="#2ecc71" stroke-width="2"/>
<rect x="927.45" y="545.14" width="43.33" height="58.10" fill="#2ecc71" stroke="#2ecc71" stroke-width="1"/>
<text x="949.12" y="704" font-size="11" fill="#555555" text-anchor="middle">03-10</text>
<text x="949.12" y="720" font-size="11" fill="#555555" text-anchor="middle">20:00</text>
<line x1="1023.82" y1="541.31" x2="1023.82" y2="609.99" stroke="#e74c3c" stroke-width="2"/>
<rect x="1002.16" y="544.88" width="43.33" height="53.90" fill="#e74c3c" stroke="#e74c3c" stroke-width="1"/>
<text x="1023.82" y="704" font-size="11" fill="#555555" text-anchor="middle">03-11</text>
<text x="1023.82" y="720" font-size="11" fill="#555555" text-anchor="middle">00:00</text>
<line x1="1098.53" y1="560.55" x2="1098.53" y2="650.00" stroke="#e74c3c" stroke-width="2"/>
<rect x="1076.86" y="598.40" width="43.33" height="18.60" fill="#e74c3c" stroke="#e74c3c" stroke-width="1"/>
<text x="1098.53" y="704" font-size="11" fill="#555555" text-anchor="middle">03-11</text>
<text x="1098.53" y="720" font-size="11" fill="#555555" text-anchor="middle">04:00</text>
<line x1="1173.24" y1="604.51" x2="1173.24" y2="624.90" stroke="#e74c3c" stroke-width="2"/>
<rect x="1151.57" y="616.87" width="43.33" height="1.66" fill="#e74c3c" stroke="#e74c3c" stroke-width="1"/>
<text x="1173.24" y="704" font-size="11" fill="#555555" text-anchor="middle">03-11</text>
<text x="1173.24" y="720" font-size="11" fill="#555555" text-anchor="middle">08:00</text>
<line x1="1247.94" y1="591.77" x2="1247.94" y2="635.09" stroke="#2ecc71" stroke-width="2"/>
<rect x="1226.28" y="592.28" width="43.33" height="26.38" fill="#2ecc71" stroke="#2ecc71" stroke-width="1"/>
<text x="1247.94" y="704" font-size="11" fill="#555555" text-anchor="middle">03-11</text>
<text x="1247.94" y="720" font-size="11" fill="#555555" text-anchor="middle">12:00</text>
<line x1="1322.65" y1="546.79" x2="1322.65" y2="611.52" stroke="#e74c3c" stroke-width="2"/>
<rect x="1300.98" y="592.41" width="43.33" height="7.39" fill="#e74c3c" stroke="#e74c3c" stroke-width="1"/>
<text x="1322.65" y="704" font-size="11" fill="#555555" text-anchor="middle">03-11</text>
<text x="1322.65" y="720" font-size="11" fill="#555555" text-anchor="middle">16:00</text>
<line x1="725.00" y1="70.00" x2="805.00" y2="90.00" stroke="#f1c40f" stroke-width="2"/>
<rect x="805.00" y="42.00" width="220" height="72" rx="8" fill="#fff8dc" stroke="#f1c40f"/>
<text x="815.00" y="66.00" font-size="12" fill="#111111">目标K线 2026-03-10 08:00</text>
<text x="815.00" y="84.00" font-size="12" fill="#111111">振幅 42.07%</text>
<text x="815.00" y="102.00" font-size="12" fill="#111111">倍数 15.26x</text>
<line x1="650.29" y1="401.54" x2="620.29" y2="361.54" stroke="#3498db" stroke-width="2"/>
<rect x="400.29" y="325.54" width="220" height="58" rx="8" fill="#eef6ff" stroke="#3498db"/>
<text x="410.29" y="347.54" font-size="12" fill="#111111">前一根涨幅 1.36%</text>
<text x="410.29" y="365.54" font-size="12" fill="#111111">前一根振幅 2.76%</text>
</svg>