<svg xmlns="http://www.w3.org/2000/svg" width="1400" height="760" viewBox="0 0 1400 760">
<rect width="100%" height="100%" fill="#fcfcfc"/>
<text x="90" y="36" font-size="26" font-weight="700" fill="#111111">KAITO-USDT-SWAP 4H - 10倍命中</text>
<line x1="90" y1="70.00" x2="1360" y2="70.00" stroke="#d9d9d9" stroke-dasharray="4 4" stroke-width="1"/>
<text x="12" y="74.00" font-size="12" fill="#555555">1.533800</text>
<line x1="90" y1="186.00" x2="1360" y2="186.00" stroke="#d9d9d9" stroke-dasharray="4 4" stroke-width="1"/>
<text x="12" y="190.00" font-size="12" fill="#555555">1.423500</text>
<line x1="90" y1="302.00" x2="1360" y2="302.00" stroke="#d9d9d9" stroke-dasharray="4 4" stroke-width="1"/>
<text x="12" y="306.00" font-size="12" fill="#555555">1.313200</text>
<line x1="90" y1="418.00" x2="1360" y2="418.00" stroke="#d9d9d9" stroke-dasharray="4 4" stroke-width="1"/>
<text x="12" y="422.00" font-size="12" fill="#555555">1.202900</text>
<line x1="90" y1="534.00" x2="1360" y2="534.00" stroke="#d9d9d9" stroke-dasharray="4 4" stroke-width="1"/>
<text x="12" y="538.00" font-size="12" fill="#555555">1.092600</text>
<line x1="90" y1="650.00" x2="1360" y2="650.00" stroke="#d9d9d9" stroke-dasharray="4 4" stroke-width="1"/>
<text x="12" y="654.00" font-size="12" fill="#555555">0.982300</text>
<rect x="687.65" y="70" width="74.71" height="580.00" fill="#f1c40f" opacity="0.16"/>
<rect x="612.94" y="70" width="74.71" height="580.00" fill="#3498db" opacity="0.10"/>
<line x1="127.35" y1="636.75" x2="127.35" y2="650.00" stroke="#e74c3c" stroke-width="2"/>
<rect x="105.69" y="640.01" width="43.33" height="4.63" fill="#e74c3c" stroke="#e74c3c" stroke-width="1"/>
<text x="127.35" y="704" font-size="11" fill="#555555" text-anchor="middle">09-08</text>
<text x="127.35" y="720" font-size="11" fill="#555555" text-anchor="middle">00:00</text>
<line x1="202.06" y1="627.49" x2="202.06" y2="648.11" stroke="#2ecc71" stroke-width="2"/>
<rect x="180.39" y="635.91" width="43.33" height="8.73" fill="#2ecc71" stroke="#2ecc71" stroke-width="1"/>
<text x="202.06" y="704" font-size="11" fill="#555555" text-anchor="middle">09-08</text>
<text x="202.06" y="720" font-size="11" fill="#555555" text-anchor="middle">04:00</text>
<line x1="276.76" y1="590.37" x2="276.76" y2="642.32" stroke="#2ecc71" stroke-width="2"/>
<rect x="255.10" y="614.98" width="43.33" height="21.03" fill="#2ecc71" stroke="#2ecc71" stroke-width="1"/>
<text x="276.76" y="704" font-size="11" fill="#555555" text-anchor="middle">09-08</text>
<text x="276.76" y="720" font-size="11" fill="#555555" text-anchor="middle">08:00</text>
<line x1="351.47" y1="607.20" x2="351.47" y2="643.48" stroke="#e74c3c" stroke-width="2"/>
<rect x="329.81" y="615.08" width="43.33" height="8.62" fill="#e74c3c" stroke="#e74c3c" stroke-width="1"/>
<text x="351.47" y="704" font-size="11" fill="#555555" text-anchor="middle">09-08</text>
<text x="351.47" y="720" font-size="11" fill="#555555" text-anchor="middle">12:00</text>
<line x1="426.18" y1="601.94" x2="426.18" y2="625.50" stroke="#2ecc71" stroke-width="2"/>
<rect x="404.51" y="614.66" width="43.33" height="9.25" fill="#2ecc71" stroke="#2ecc71" stroke-width="1"/>
<text x="426.18" y="704" font-size="11" fill="#555555" text-anchor="middle">09-08</text>
<text x="426.18" y="720" font-size="11" fill="#555555" text-anchor="middle">16:00</text>
<line x1="500.88" y1="571.44" x2="500.88" y2="616.98" stroke="#2ecc71" stroke-width="2"/>
<rect x="479.22" y="574.59" width="43.33" height="40.07" fill="#2ecc71" stroke="#2ecc71" stroke-width="1"/>
<text x="500.88" y="704" font-size="11" fill="#555555" text-anchor="middle">09-08</text>
<text x="500.88" y="720" font-size="11" fill="#555555" text-anchor="middle">20:00</text>
<line x1="575.59" y1="559.98" x2="575.59" y2="590.58" stroke="#2ecc71" stroke-width="2"/>
<rect x="553.92" y="567.86" width="43.33" height="6.94" fill="#2ecc71" stroke="#2ecc71" stroke-width="1"/>
<text x="575.59" y="704" font-size="11" fill="#555555" text-anchor="middle">09-09</text>
<text x="575.59" y="720" font-size="11" fill="#555555" text-anchor="middle">00:00</text>
<line x1="650.29" y1="536.00" x2="650.29" y2="577.22" stroke="#2ecc71" stroke-width="2"/>
<rect x="628.63" y="542.73" width="43.33" height="25.03" fill="#2ecc71" stroke="#2ecc71" stroke-width="1"/>
<text x="650.29" y="704" font-size="11" fill="#555555" text-anchor="middle">09-09</text>
<text x="650.29" y="720" font-size="11" fill="#555555" text-anchor="middle">04:00</text>
<line x1="725.00" y1="76.20" x2="725.00" y2="543.47" stroke="#2ecc71" stroke-width="2"/>
<rect x="703.34" y="187.89" width="43.33" height="354.73" fill="#2ecc71" stroke="#2ecc71" stroke-width="1"/>
<text x="725.00" y="704" font-size="11" fill="#555555" text-anchor="middle">09-09</text>
<text x="725.00" y="720" font-size="11" fill="#555555" text-anchor="middle">08:00</text>
<line x1="799.71" y1="169.38" x2="799.71" y2="262.67" stroke="#e74c3c" stroke-width="2"/>
<rect x="778.04" y="187.79" width="43.33" height="30.92" fill="#e74c3c" stroke="#e74c3c" stroke-width="1"/>
<text x="799.71" y="704" font-size="11" fill="#555555" text-anchor="middle">09-09</text>
<text x="799.71" y="720" font-size="11" fill="#555555" text-anchor="middle">12:00</text>
<line x1="874.41" y1="70.00" x2="874.41" y2="290.43" stroke="#e74c3c" stroke-width="2"/>
<rect x="852.75" y="219.02" width="43.33" height="43.22" fill="#e74c3c" stroke="#e74c3c" stroke-width="1"/>
<text x="874.41" y="704" font-size="11" fill="#555555" text-anchor="middle">09-09</text>
<text x="874.41" y="720" font-size="11" fill="#555555" text-anchor="middle">16:00</text>
<line x1="949.12" y1="262.04" x2="949.12" y2="402.01" stroke="#e74c3c" stroke-width="2"/>
<rect x="927.45" y="262.04" width="43.33" height="99.80" fill="#e74c3c" stroke="#e74c3c" stroke-width="1"/>
<text x="949.12" y="704" font-size="11" fill="#555555" text-anchor="middle">09-09</text>
<text x="949.12" y="720" font-size="11" fill="#555555" text-anchor="middle">20:00</text>
<line x1="1023.82" y1="354.48" x2="1023.82" y2="422.21" stroke="#e74c3c" stroke-width="2"/>
<rect x="1002.16" y="361.84" width="43.33" height="8.31" fill="#e74c3c" stroke="#e74c3c" stroke-width="1"/>
<text x="1023.82" y="704" font-size="11" fill="#555555" text-anchor="middle">09-10</text>
<text x="1023.82" y="720" font-size="11" fill="#555555" text-anchor="middle">00:00</text>
<line x1="1098.53" y1="325.77" x2="1098.53" y2="394.34" stroke="#2ecc71" stroke-width="2"/>
<rect x="1076.86" y="333.13" width="43.33" height="36.81" fill="#2ecc71" stroke="#2ecc71" stroke-width="1"/>
<text x="1098.53" y="704" font-size="11" fill="#555555" text-anchor="middle">09-10</text>
<text x="1098.53" y="720" font-size="11" fill="#555555" text-anchor="middle">04:00</text>
<line x1="1173.24" y1="143.09" x2="1173.24" y2="374.88" stroke="#2ecc71" stroke-width="2"/>
<rect x="1151.57" y="264.88" width="43.33" height="68.04" fill="#2ecc71" stroke="#2ecc71" stroke-width="1"/>
<text x="1173.24" y="704" font-size="11" fill="#555555" text-anchor="middle">09-10</text>
<text x="1173.24" y="720" font-size="11" fill="#555555" text-anchor="middle">08:00</text>
<line x1="1247.94" y1="264.88" x2="1247.94" y2="344.07" stroke="#e74c3c" stroke-width="2"/>
<rect x="1226.28" y="264.98" width="43.33" height="67.83" fill="#e74c3c" stroke="#e74c3c" stroke-width="1"/>
<text x="1247.94" y="704" font-size="11" fill="#555555" text-anchor="middle">09-10</text>
<text x="1247.94" y="720" font-size="11" fill="#555555" text-anchor="middle">12:00</text>
<line x1="1322.65" y1="277.08" x2="1322.65" y2="335.02" stroke="#2ecc71" stroke-width="2"/>
<rect x="1300.98" y="304.21" width="43.33" height="28.61" fill="#2ecc71" stroke="#2ecc71" stroke-width="1"/>
<text x="1322.65" y="704" font-size="11" fill="#555555" text-anchor="middle">09-10</text>
<text x="1322.65" y="720" font-size="11" fill="#555555" text-anchor="middle">16:00</text>
<line x1="725.00" y1="76.20" x2="805.00" y2="90.00" stroke="#f1c40f" stroke-width="2"/>
<rect x="805.00" y="42.00" width="220" height="72" rx="8" fill="#fff8dc" stroke="#f1c40f"/>
<text x="815.00" y="66.00" font-size="12" fill="#111111">目标K线 2025-09-09 08:00</text>
<text x="815.00" y="84.00" font-size="12" fill="#111111">振幅 40.97%</text>
<text x="815.00" y="102.00" font-size="12" fill="#111111">倍数 11.08x</text>
<line x1="650.29" y1="536.00" x2="620.29" y2="496.00" stroke="#3498db" stroke-width="2"/>
<rect x="400.29" y="460.00" width="220" height="58" rx="8" fill="#eef6ff" stroke="#3498db"/>
<text x="410.29" y="482.00" font-size="12" fill="#111111">前一根涨幅 2.24%</text>
<text x="410.29" y="500.00" font-size="12" fill="#111111">前一根振幅 3.70%</text>
</svg>