<svg xmlns="http://www.w3.org/2000/svg" width="1400" height="760" viewBox="0 0 1400 760">
<rect width="100%" height="100%" fill="#fcfcfc"/>
<text x="90" y="36" font-size="26" font-weight="700" fill="#111111">LPT-USDT-SWAP 4H - 10倍命中</text>
<line x1="90" y1="70.00" x2="1360" y2="70.00" stroke="#d9d9d9" stroke-dasharray="4 4" stroke-width="1"/>
<text x="12" y="74.00" font-size="12" fill="#555555">6.253000</text>
<line x1="90" y1="186.00" x2="1360" y2="186.00" stroke="#d9d9d9" stroke-dasharray="4 4" stroke-width="1"/>
<text x="12" y="190.00" font-size="12" fill="#555555">5.808600</text>
<line x1="90" y1="302.00" x2="1360" y2="302.00" stroke="#d9d9d9" stroke-dasharray="4 4" stroke-width="1"/>
<text x="12" y="306.00" font-size="12" fill="#555555">5.364200</text>
<line x1="90" y1="418.00" x2="1360" y2="418.00" stroke="#d9d9d9" stroke-dasharray="4 4" stroke-width="1"/>
<text x="12" y="422.00" font-size="12" fill="#555555">4.919800</text>
<line x1="90" y1="534.00" x2="1360" y2="534.00" stroke="#d9d9d9" stroke-dasharray="4 4" stroke-width="1"/>
<text x="12" y="538.00" font-size="12" fill="#555555">4.475400</text>
<line x1="90" y1="650.00" x2="1360" y2="650.00" stroke="#d9d9d9" stroke-dasharray="4 4" stroke-width="1"/>
<text x="12" y="654.00" font-size="12" fill="#555555">4.031000</text>
<rect x="687.65" y="70" width="74.71" height="580.00" fill="#f1c40f" opacity="0.16"/>
<rect x="612.94" y="70" width="74.71" height="580.00" fill="#3498db" opacity="0.10"/>
<line x1="127.35" y1="580.83" x2="127.35" y2="617.11" stroke="#2ecc71" stroke-width="2"/>
<rect x="105.69" y="584.74" width="43.33" height="26.89" fill="#2ecc71" stroke="#2ecc71" stroke-width="1"/>
<text x="127.35" y="704" font-size="11" fill="#555555" text-anchor="middle">04-21</text>
<text x="127.35" y="720" font-size="11" fill="#555555" text-anchor="middle">12:00</text>
<line x1="202.06" y1="576.65" x2="202.06" y2="609.80" stroke="#e74c3c" stroke-width="2"/>
<rect x="180.39" y="584.74" width="43.33" height="17.75" fill="#e74c3c" stroke="#e74c3c" stroke-width="1"/>
<text x="202.06" y="704" font-size="11" fill="#555555" text-anchor="middle">04-21</text>
<text x="202.06" y="720" font-size="11" fill="#555555" text-anchor="middle">16:00</text>
<line x1="276.76" y1="588.14" x2="276.76" y2="606.93" stroke="#2ecc71" stroke-width="2"/>
<rect x="255.10" y="597.53" width="43.33" height="4.96" fill="#2ecc71" stroke="#2ecc71" stroke-width="1"/>
<text x="276.76" y="704" font-size="11" fill="#555555" text-anchor="middle">04-21</text>
<text x="276.76" y="720" font-size="11" fill="#555555" text-anchor="middle">20:00</text>
<line x1="351.47" y1="589.70" x2="351.47" y2="629.64" stroke="#e74c3c" stroke-width="2"/>
<rect x="329.81" y="597.01" width="43.33" height="14.88" fill="#e74c3c" stroke="#e74c3c" stroke-width="1"/>
<text x="351.47" y="704" font-size="11" fill="#555555" text-anchor="middle">04-22</text>
<text x="351.47" y="720" font-size="11" fill="#555555" text-anchor="middle">00:00</text>
<line x1="426.18" y1="606.41" x2="426.18" y2="634.34" stroke="#e74c3c" stroke-width="2"/>
<rect x="404.51" y="611.37" width="43.33" height="16.71" fill="#e74c3c" stroke="#e74c3c" stroke-width="1"/>
<text x="426.18" y="704" font-size="11" fill="#555555" text-anchor="middle">04-22</text>
<text x="426.18" y="720" font-size="11" fill="#555555" text-anchor="middle">04:00</text>
<line x1="500.88" y1="604.32" x2="500.88" y2="650.00" stroke="#2ecc71" stroke-width="2"/>
<rect x="479.22" y="619.98" width="43.33" height="7.83" fill="#2ecc71" stroke="#2ecc71" stroke-width="1"/>
<text x="500.88" y="704" font-size="11" fill="#555555" text-anchor="middle">04-22</text>
<text x="500.88" y="720" font-size="11" fill="#555555" text-anchor="middle">08:00</text>
<line x1="575.59" y1="607.97" x2="575.59" y2="645.30" stroke="#2ecc71" stroke-width="2"/>
<rect x="553.92" y="617.89" width="43.33" height="2.09" fill="#2ecc71" stroke="#2ecc71" stroke-width="1"/>
<text x="575.59" y="704" font-size="11" fill="#555555" text-anchor="middle">04-22</text>
<text x="575.59" y="720" font-size="11" fill="#555555" text-anchor="middle">12:00</text>
<line x1="650.29" y1="592.05" x2="650.29" y2="623.64" stroke="#2ecc71" stroke-width="2"/>
<rect x="628.63" y="598.06" width="43.33" height="19.32" fill="#2ecc71" stroke="#2ecc71" stroke-width="1"/>
<text x="650.29" y="704" font-size="11" fill="#555555" text-anchor="middle">04-22</text>
<text x="650.29" y="720" font-size="11" fill="#555555" text-anchor="middle">16:00</text>
<line x1="725.00" y1="232.88" x2="725.00" y2="601.97" stroke="#2ecc71" stroke-width="2"/>
<rect x="703.34" y="304.92" width="43.33" height="293.39" fill="#2ecc71" stroke="#2ecc71" stroke-width="1"/>
<text x="725.00" y="704" font-size="11" fill="#555555" text-anchor="middle">04-22</text>
<text x="725.00" y="720" font-size="11" fill="#555555" text-anchor="middle">20:00</text>
<line x1="799.71" y1="149.87" x2="799.71" y2="346.95" stroke="#e74c3c" stroke-width="2"/>
<rect x="778.04" y="305.71" width="43.33" height="19.84" fill="#e74c3c" stroke="#e74c3c" stroke-width="1"/>
<text x="799.71" y="704" font-size="11" fill="#555555" text-anchor="middle">04-23</text>
<text x="799.71" y="720" font-size="11" fill="#555555" text-anchor="middle">00:00</text>
<line x1="874.41" y1="208.87" x2="874.41" y2="335.20" stroke="#2ecc71" stroke-width="2"/>
<rect x="852.75" y="260.03" width="43.33" height="66.04" fill="#2ecc71" stroke="#2ecc71" stroke-width="1"/>
<text x="874.41" y="704" font-size="11" fill="#555555" text-anchor="middle">04-23</text>
<text x="874.41" y="720" font-size="11" fill="#555555" text-anchor="middle">04:00</text>
<line x1="949.12" y1="226.62" x2="949.12" y2="314.58" stroke="#2ecc71" stroke-width="2"/>
<rect x="927.45" y="250.63" width="43.33" height="9.66" fill="#2ecc71" stroke="#2ecc71" stroke-width="1"/>
<text x="949.12" y="704" font-size="11" fill="#555555" text-anchor="middle">04-23</text>
<text x="949.12" y="720" font-size="11" fill="#555555" text-anchor="middle">08:00</text>
<line x1="1023.82" y1="70.00" x2="1023.82" y2="284.04" stroke="#2ecc71" stroke-width="2"/>
<rect x="1002.16" y="245.67" width="43.33" height="5.22" fill="#2ecc71" stroke="#2ecc71" stroke-width="1"/>
<text x="1023.82" y="704" font-size="11" fill="#555555" text-anchor="middle">04-23</text>
<text x="1023.82" y="720" font-size="11" fill="#555555" text-anchor="middle">12:00</text>
<line x1="1098.53" y1="197.12" x2="1098.53" y2="274.91" stroke="#e74c3c" stroke-width="2"/>
<rect x="1076.86" y="244.63" width="43.33" height="8.35" fill="#e74c3c" stroke="#e74c3c" stroke-width="1"/>
<text x="1098.53" y="704" font-size="11" fill="#555555" text-anchor="middle">04-23</text>
<text x="1098.53" y="720" font-size="11" fill="#555555" text-anchor="middle">16:00</text>
<line x1="1173.24" y1="210.69" x2="1173.24" y2="348.51" stroke="#e74c3c" stroke-width="2"/>
<rect x="1151.57" y="252.72" width="43.33" height="79.87" fill="#e74c3c" stroke="#e74c3c" stroke-width="1"/>
<text x="1173.24" y="704" font-size="11" fill="#555555" text-anchor="middle">04-23</text>
<text x="1173.24" y="720" font-size="11" fill="#555555" text-anchor="middle">20:00</text>
<line x1="1247.94" y1="322.67" x2="1247.94" y2="387.67" stroke="#e74c3c" stroke-width="2"/>
<rect x="1226.28" y="332.85" width="43.33" height="44.37" fill="#e74c3c" stroke="#e74c3c" stroke-width="1"/>
<text x="1247.94" y="704" font-size="11" fill="#555555" text-anchor="middle">04-24</text>
<text x="1247.94" y="720" font-size="11" fill="#555555" text-anchor="middle">00:00</text>
<line x1="1322.65" y1="352.69" x2="1322.65" y2="376.97" stroke="#2ecc71" stroke-width="2"/>
<rect x="1300.98" y="365.22" width="43.33" height="11.49" fill="#2ecc71" stroke="#2ecc71" stroke-width="1"/>
<text x="1322.65" y="704" font-size="11" fill="#555555" text-anchor="middle">04-24</text>
<text x="1322.65" y="720" font-size="11" fill="#555555" text-anchor="middle">04:00</text>
<line x1="725.00" y1="232.88" x2="805.00" y2="162.88" stroke="#f1c40f" stroke-width="2"/>
<rect x="805.00" y="114.88" width="220" height="72" rx="8" fill="#fff8dc" stroke="#f1c40f"/>
<text x="815.00" y="138.88" font-size="12" fill="#111111">目标K线 2025-04-22 20:00</text>
<text x="815.00" y="156.88" font-size="12" fill="#111111">振幅 33.44%</text>
<text x="815.00" y="174.88" font-size="12" fill="#111111">倍数 11.48x</text>
<line x1="650.29" y1="592.05" x2="620.29" y2="552.05" stroke="#3498db" stroke-width="2"/>
<rect x="400.29" y="516.05" width="220" height="58" rx="8" fill="#eef6ff" stroke="#3498db"/>
<text x="410.29" y="538.05" font-size="12" fill="#111111">前一根涨幅 1.78%</text>
<text x="410.29" y="556.05" font-size="12" fill="#111111">前一根振幅 2.91%</text>
</svg>