<svg xmlns="http://www.w3.org/2000/svg" width="1400" height="760" viewBox="0 0 1400 760">
<rect width="100%" height="100%" fill="#fcfcfc"/>
<text x="90" y="36" font-size="26" font-weight="700" fill="#111111">LRC-USDT-SWAP 4H - 10倍命中</text>
<line x1="90" y1="70.00" x2="1360" y2="70.00" stroke="#d9d9d9" stroke-dasharray="4 4" stroke-width="1"/>
<text x="12" y="74.00" font-size="12" fill="#555555">0.607400</text>
<line x1="90" y1="186.00" x2="1360" y2="186.00" stroke="#d9d9d9" stroke-dasharray="4 4" stroke-width="1"/>
<text x="12" y="190.00" font-size="12" fill="#555555">0.554326</text>
<line x1="90" y1="302.00" x2="1360" y2="302.00" stroke="#d9d9d9" stroke-dasharray="4 4" stroke-width="1"/>
<text x="12" y="306.00" font-size="12" fill="#555555">0.501252</text>
<line x1="90" y1="418.00" x2="1360" y2="418.00" stroke="#d9d9d9" stroke-dasharray="4 4" stroke-width="1"/>
<text x="12" y="422.00" font-size="12" fill="#555555">0.448178</text>
<line x1="90" y1="534.00" x2="1360" y2="534.00" stroke="#d9d9d9" stroke-dasharray="4 4" stroke-width="1"/>
<text x="12" y="538.00" font-size="12" fill="#555555">0.395104</text>
<line x1="90" y1="650.00" x2="1360" y2="650.00" stroke="#d9d9d9" stroke-dasharray="4 4" stroke-width="1"/>
<text x="12" y="654.00" font-size="12" fill="#555555">0.342030</text>
<rect x="687.65" y="70" width="74.71" height="580.00" fill="#f1c40f" opacity="0.16"/>
<rect x="612.94" y="70" width="74.71" height="580.00" fill="#3498db" opacity="0.10"/>
<line x1="127.35" y1="599.10" x2="127.35" y2="631.07" stroke="#2ecc71" stroke-width="2"/>
<rect x="105.69" y="599.10" width="43.33" height="26.01" fill="#2ecc71" stroke="#2ecc71" stroke-width="1"/>
<text x="127.35" y="704" font-size="11" fill="#555555" text-anchor="middle">08-21</text>
<text x="127.35" y="720" font-size="11" fill="#555555" text-anchor="middle">12:00</text>
<line x1="202.06" y1="598.81" x2="202.06" y2="650.00" stroke="#e74c3c" stroke-width="2"/>
<rect x="180.39" y="599.84" width="43.33" height="31.91" fill="#e74c3c" stroke="#e74c3c" stroke-width="1"/>
<text x="202.06" y="704" font-size="11" fill="#555555" text-anchor="middle">08-21</text>
<text x="202.06" y="720" font-size="11" fill="#555555" text-anchor="middle">16:00</text>
<line x1="276.76" y1="619.82" x2="276.76" y2="638.92" stroke="#2ecc71" stroke-width="2"/>
<rect x="255.10" y="630.02" width="43.33" height="2.62" fill="#2ecc71" stroke="#2ecc71" stroke-width="1"/>
<text x="276.76" y="704" font-size="11" fill="#555555" text-anchor="middle">08-21</text>
<text x="276.76" y="720" font-size="11" fill="#555555" text-anchor="middle">20:00</text>
<line x1="351.47" y1="605.63" x2="351.47" y2="636.12" stroke="#2ecc71" stroke-width="2"/>
<rect x="329.81" y="625.70" width="43.33" height="4.92" fill="#2ecc71" stroke="#2ecc71" stroke-width="1"/>
<text x="351.47" y="704" font-size="11" fill="#555555" text-anchor="middle">08-22</text>
<text x="351.47" y="720" font-size="11" fill="#555555" text-anchor="middle">00:00</text>
<line x1="426.18" y1="614.53" x2="426.18" y2="632.08" stroke="#e74c3c" stroke-width="2"/>
<rect x="404.51" y="626.68" width="43.33" height="3.54" fill="#e74c3c" stroke="#e74c3c" stroke-width="1"/>
<text x="426.18" y="704" font-size="11" fill="#555555" text-anchor="middle">08-22</text>
<text x="426.18" y="720" font-size="11" fill="#555555" text-anchor="middle">04:00</text>
<line x1="500.88" y1="613.50" x2="500.88" y2="632.23" stroke="#2ecc71" stroke-width="2"/>
<rect x="479.22" y="625.89" width="43.33" height="4.96" fill="#2ecc71" stroke="#2ecc71" stroke-width="1"/>
<text x="500.88" y="704" font-size="11" fill="#555555" text-anchor="middle">08-22</text>
<text x="500.88" y="720" font-size="11" fill="#555555" text-anchor="middle">08:00</text>
<line x1="575.59" y1="609.22" x2="575.59" y2="626.13" stroke="#2ecc71" stroke-width="2"/>
<rect x="553.92" y="612.45" width="43.33" height="13.68" fill="#2ecc71" stroke="#2ecc71" stroke-width="1"/>
<text x="575.59" y="704" font-size="11" fill="#555555" text-anchor="middle">08-22</text>
<text x="575.59" y="720" font-size="11" fill="#555555" text-anchor="middle">12:00</text>
<line x1="650.29" y1="599.95" x2="650.29" y2="619.10" stroke="#2ecc71" stroke-width="2"/>
<rect x="628.63" y="600.12" width="43.33" height="11.61" fill="#2ecc71" stroke="#2ecc71" stroke-width="1"/>
<text x="650.29" y="704" font-size="11" fill="#555555" text-anchor="middle">08-22</text>
<text x="650.29" y="720" font-size="11" fill="#555555" text-anchor="middle">16:00</text>
<line x1="725.00" y1="289.44" x2="725.00" y2="604.08" stroke="#2ecc71" stroke-width="2"/>
<rect x="703.34" y="337.52" width="43.33" height="263.22" fill="#2ecc71" stroke="#2ecc71" stroke-width="1"/>
<text x="725.00" y="704" font-size="11" fill="#555555" text-anchor="middle">08-22</text>
<text x="725.00" y="720" font-size="11" fill="#555555" text-anchor="middle">20:00</text>
<line x1="799.71" y1="70.00" x2="799.71" y2="362.04" stroke="#2ecc71" stroke-width="2"/>
<rect x="778.04" y="140.75" width="43.33" height="196.93" fill="#2ecc71" stroke="#2ecc71" stroke-width="1"/>
<text x="799.71" y="704" font-size="11" fill="#555555" text-anchor="middle">08-23</text>
<text x="799.71" y="720" font-size="11" fill="#555555" text-anchor="middle">00:00</text>
<line x1="874.41" y1="94.92" x2="874.41" y2="206.14" stroke="#e74c3c" stroke-width="2"/>
<rect x="852.75" y="140.25" width="43.33" height="39.21" fill="#e74c3c" stroke="#e74c3c" stroke-width="1"/>
<text x="874.41" y="704" font-size="11" fill="#555555" text-anchor="middle">08-23</text>
<text x="874.41" y="720" font-size="11" fill="#555555" text-anchor="middle">04:00</text>
<line x1="949.12" y1="138.19" x2="949.12" y2="282.01" stroke="#e74c3c" stroke-width="2"/>
<rect x="927.45" y="180.59" width="43.33" height="67.43" fill="#e74c3c" stroke="#e74c3c" stroke-width="1"/>
<text x="949.12" y="704" font-size="11" fill="#555555" text-anchor="middle">08-23</text>
<text x="949.12" y="720" font-size="11" fill="#555555" text-anchor="middle">08:00</text>
<line x1="1023.82" y1="193.12" x2="1023.82" y2="280.28" stroke="#e74c3c" stroke-width="2"/>
<rect x="1002.16" y="246.97" width="43.33" height="22.42" fill="#e74c3c" stroke="#e74c3c" stroke-width="1"/>
<text x="1023.82" y="704" font-size="11" fill="#555555" text-anchor="middle">08-23</text>
<text x="1023.82" y="720" font-size="11" fill="#555555" text-anchor="middle">12:00</text>
<line x1="1098.53" y1="247.47" x2="1098.53" y2="299.45" stroke="#e74c3c" stroke-width="2"/>
<rect x="1076.86" y="270.42" width="43.33" height="4.59" fill="#e74c3c" stroke="#e74c3c" stroke-width="1"/>
<text x="1098.53" y="704" font-size="11" fill="#555555" text-anchor="middle">08-23</text>
<text x="1098.53" y="720" font-size="11" fill="#555555" text-anchor="middle">16:00</text>
<line x1="1173.24" y1="275.32" x2="1173.24" y2="344.41" stroke="#e74c3c" stroke-width="2"/>
<rect x="1151.57" y="275.82" width="43.33" height="41.88" fill="#e74c3c" stroke="#e74c3c" stroke-width="1"/>
<text x="1173.24" y="704" font-size="11" fill="#555555" text-anchor="middle">08-23</text>
<text x="1173.24" y="720" font-size="11" fill="#555555" text-anchor="middle">20:00</text>
<line x1="1247.94" y1="279.95" x2="1247.94" y2="335.88" stroke="#2ecc71" stroke-width="2"/>
<rect x="1226.28" y="298.42" width="43.33" height="19.63" fill="#2ecc71" stroke="#2ecc71" stroke-width="1"/>
<text x="1247.94" y="704" font-size="11" fill="#555555" text-anchor="middle">08-24</text>
<text x="1247.94" y="720" font-size="11" fill="#555555" text-anchor="middle">00:00</text>
<line x1="1322.65" y1="258.73" x2="1322.65" y2="311.32" stroke="#2ecc71" stroke-width="2"/>
<rect x="1300.98" y="286.55" width="43.33" height="11.93" fill="#2ecc71" stroke="#2ecc71" stroke-width="1"/>
<text x="1322.65" y="704" font-size="11" fill="#555555" text-anchor="middle">08-24</text>
<text x="1322.65" y="720" font-size="11" fill="#555555" text-anchor="middle">04:00</text>
<line x1="725.00" y1="289.44" x2="805.00" y2="219.44" stroke="#f1c40f" stroke-width="2"/>
<rect x="805.00" y="171.44" width="220" height="72" rx="8" fill="#fff8dc" stroke="#f1c40f"/>
<text x="815.00" y="195.44" font-size="12" fill="#111111">目标K线 2021-08-22 20:00</text>
<text x="815.00" y="213.44" font-size="12" fill="#111111">振幅 39.49%</text>
<text x="815.00" y="231.44" font-size="12" fill="#111111">倍数 16.21x</text>
<line x1="650.29" y1="599.95" x2="620.29" y2="559.95" stroke="#3498db" stroke-width="2"/>
<rect x="400.29" y="523.95" width="220" height="58" rx="8" fill="#eef6ff" stroke="#3498db"/>
<text x="410.29" y="545.95" font-size="12" fill="#111111">前一根涨幅 1.48%</text>
<text x="410.29" y="563.95" font-size="12" fill="#111111">前一根振幅 2.44%</text>
</svg>