<svg xmlns="http://www.w3.org/2000/svg" width="1400" height="760" viewBox="0 0 1400 760">
<rect width="100%" height="100%" fill="#fcfcfc"/>
<text x="90" y="36" font-size="26" font-weight="700" fill="#111111">LUNA-USDT-SWAP 4H - 10倍命中</text>
<line x1="90" y1="70.00" x2="1360" y2="70.00" stroke="#d9d9d9" stroke-dasharray="4 4" stroke-width="1"/>
<text x="12" y="74.00" font-size="12" fill="#555555">0.828000</text>
<line x1="90" y1="186.00" x2="1360" y2="186.00" stroke="#d9d9d9" stroke-dasharray="4 4" stroke-width="1"/>
<text x="12" y="190.00" font-size="12" fill="#555555">0.777840</text>
<line x1="90" y1="302.00" x2="1360" y2="302.00" stroke="#d9d9d9" stroke-dasharray="4 4" stroke-width="1"/>
<text x="12" y="306.00" font-size="12" fill="#555555">0.727680</text>
<line x1="90" y1="418.00" x2="1360" y2="418.00" stroke="#d9d9d9" stroke-dasharray="4 4" stroke-width="1"/>
<text x="12" y="422.00" font-size="12" fill="#555555">0.677520</text>
<line x1="90" y1="534.00" x2="1360" y2="534.00" stroke="#d9d9d9" stroke-dasharray="4 4" stroke-width="1"/>
<text x="12" y="538.00" font-size="12" fill="#555555">0.627360</text>
<line x1="90" y1="650.00" x2="1360" y2="650.00" stroke="#d9d9d9" stroke-dasharray="4 4" stroke-width="1"/>
<text x="12" y="654.00" font-size="12" fill="#555555">0.577200</text>
<rect x="687.65" y="70" width="74.71" height="580.00" fill="#f1c40f" opacity="0.16"/>
<rect x="612.94" y="70" width="74.71" height="580.00" fill="#3498db" opacity="0.10"/>
<line x1="127.35" y1="506.85" x2="127.35" y2="560.04" stroke="#2ecc71" stroke-width="2"/>
<rect x="105.69" y="552.18" width="43.33" height="1.62" fill="#2ecc71" stroke="#2ecc71" stroke-width="1"/>
<text x="127.35" y="704" font-size="11" fill="#555555" text-anchor="middle">05-29</text>
<text x="127.35" y="720" font-size="11" fill="#555555" text-anchor="middle">12:00</text>
<line x1="202.06" y1="524.89" x2="202.06" y2="577.15" stroke="#2ecc71" stroke-width="2"/>
<rect x="180.39" y="540.61" width="43.33" height="11.56" fill="#2ecc71" stroke="#2ecc71" stroke-width="1"/>
<text x="202.06" y="704" font-size="11" fill="#555555" text-anchor="middle">05-29</text>
<text x="202.06" y="720" font-size="11" fill="#555555" text-anchor="middle">16:00</text>
<line x1="276.76" y1="535.99" x2="276.76" y2="580.85" stroke="#e74c3c" stroke-width="2"/>
<rect x="255.10" y="540.61" width="43.33" height="38.39" fill="#e74c3c" stroke="#e74c3c" stroke-width="1"/>
<text x="276.76" y="704" font-size="11" fill="#555555" text-anchor="middle">05-29</text>
<text x="276.76" y="720" font-size="11" fill="#555555" text-anchor="middle">20:00</text>
<line x1="351.47" y1="552.18" x2="351.47" y2="595.42" stroke="#e74c3c" stroke-width="2"/>
<rect x="329.81" y="579.70" width="43.33" height="9.94" fill="#e74c3c" stroke="#e74c3c" stroke-width="1"/>
<text x="351.47" y="704" font-size="11" fill="#555555" text-anchor="middle">05-30</text>
<text x="351.47" y="720" font-size="11" fill="#555555" text-anchor="middle">00:00</text>
<line x1="426.18" y1="577.85" x2="426.18" y2="594.04" stroke="#2ecc71" stroke-width="2"/>
<rect x="404.51" y="585.71" width="43.33" height="3.93" fill="#2ecc71" stroke="#2ecc71" stroke-width="1"/>
<text x="426.18" y="704" font-size="11" fill="#555555" text-anchor="middle">05-30</text>
<text x="426.18" y="720" font-size="11" fill="#555555" text-anchor="middle">04:00</text>
<line x1="500.88" y1="559.58" x2="500.88" y2="588.02" stroke="#2ecc71" stroke-width="2"/>
<rect x="479.22" y="569.06" width="43.33" height="16.88" fill="#2ecc71" stroke="#2ecc71" stroke-width="1"/>
<text x="500.88" y="704" font-size="11" fill="#555555" text-anchor="middle">05-30</text>
<text x="500.88" y="720" font-size="11" fill="#555555" text-anchor="middle">08:00</text>
<line x1="575.59" y1="563.97" x2="575.59" y2="638.21" stroke="#e74c3c" stroke-width="2"/>
<rect x="553.92" y="569.06" width="43.33" height="60.13" fill="#e74c3c" stroke="#e74c3c" stroke-width="1"/>
<text x="575.59" y="704" font-size="11" fill="#555555" text-anchor="middle">05-30</text>
<text x="575.59" y="720" font-size="11" fill="#555555" text-anchor="middle">12:00</text>
<line x1="650.29" y1="604.67" x2="650.29" y2="650.00" stroke="#2ecc71" stroke-width="2"/>
<rect x="628.63" y="612.07" width="43.33" height="17.81" fill="#2ecc71" stroke="#2ecc71" stroke-width="1"/>
<text x="650.29" y="704" font-size="11" fill="#555555" text-anchor="middle">05-30</text>
<text x="650.29" y="720" font-size="11" fill="#555555" text-anchor="middle">16:00</text>
<line x1="725.00" y1="70.00" x2="725.00" y2="613.23" stroke="#2ecc71" stroke-width="2"/>
<rect x="703.34" y="181.47" width="43.33" height="430.61" fill="#2ecc71" stroke="#2ecc71" stroke-width="1"/>
<text x="725.00" y="704" font-size="11" fill="#555555" text-anchor="middle">05-30</text>
<text x="725.00" y="720" font-size="11" fill="#555555" text-anchor="middle">20:00</text>
<line x1="799.71" y1="153.25" x2="799.71" y2="401.63" stroke="#e74c3c" stroke-width="2"/>
<rect x="778.04" y="180.77" width="43.33" height="190.56" fill="#e74c3c" stroke="#e74c3c" stroke-width="1"/>
<text x="799.71" y="704" font-size="11" fill="#555555" text-anchor="middle">05-31</text>
<text x="799.71" y="720" font-size="11" fill="#555555" text-anchor="middle">00:00</text>
<line x1="874.41" y1="365.55" x2="874.41" y2="458.52" stroke="#e74c3c" stroke-width="2"/>
<rect x="852.75" y="371.56" width="43.33" height="37.70" fill="#e74c3c" stroke="#e74c3c" stroke-width="1"/>
<text x="874.41" y="704" font-size="11" fill="#555555" text-anchor="middle">05-31</text>
<text x="874.41" y="720" font-size="11" fill="#555555" text-anchor="middle">04:00</text>
<line x1="949.12" y1="403.25" x2="949.12" y2="466.84" stroke="#e74c3c" stroke-width="2"/>
<rect x="927.45" y="409.49" width="43.33" height="9.94" fill="#e74c3c" stroke="#e74c3c" stroke-width="1"/>
<text x="949.12" y="704" font-size="11" fill="#555555" text-anchor="middle">05-31</text>
<text x="949.12" y="720" font-size="11" fill="#555555" text-anchor="middle">08:00</text>
<line x1="1023.82" y1="387.29" x2="1023.82" y2="448.57" stroke="#e74c3c" stroke-width="2"/>
<rect x="1002.16" y="418.97" width="43.33" height="10.64" fill="#e74c3c" stroke="#e74c3c" stroke-width="1"/>
<text x="1023.82" y="704" font-size="11" fill="#555555" text-anchor="middle">05-31</text>
<text x="1023.82" y="720" font-size="11" fill="#555555" text-anchor="middle">12:00</text>
<line x1="1098.53" y1="375.03" x2="1098.53" y2="431.23" stroke="#2ecc71" stroke-width="2"/>
<rect x="1076.86" y="393.30" width="43.33" height="36.31" fill="#2ecc71" stroke="#2ecc71" stroke-width="1"/>
<text x="1098.53" y="704" font-size="11" fill="#555555" text-anchor="middle">05-31</text>
<text x="1098.53" y="720" font-size="11" fill="#555555" text-anchor="middle">16:00</text>
<line x1="1173.24" y1="390.99" x2="1173.24" y2="446.95" stroke="#e74c3c" stroke-width="2"/>
<rect x="1151.57" y="394.00" width="43.33" height="43.25" fill="#e74c3c" stroke="#e74c3c" stroke-width="1"/>
<text x="1173.24" y="704" font-size="11" fill="#555555" text-anchor="middle">05-31</text>
<text x="1173.24" y="720" font-size="11" fill="#555555" text-anchor="middle">20:00</text>
<line x1="1247.94" y1="421.28" x2="1247.94" y2="497.60" stroke="#e74c3c" stroke-width="2"/>
<rect x="1226.28" y="437.01" width="43.33" height="6.71" fill="#e74c3c" stroke="#e74c3c" stroke-width="1"/>
<text x="1247.94" y="704" font-size="11" fill="#555555" text-anchor="middle">06-01</text>
<text x="1247.94" y="720" font-size="11" fill="#555555" text-anchor="middle">00:00</text>
<line x1="1322.65" y1="424.75" x2="1322.65" y2="448.80" stroke="#2ecc71" stroke-width="2"/>
<rect x="1300.98" y="443.02" width="43.33" height="1.20" fill="#2ecc71" stroke="#2ecc71" stroke-width="1"/>
<text x="1322.65" y="704" font-size="11" fill="#555555" text-anchor="middle">06-01</text>
<text x="1322.65" y="720" font-size="11" fill="#555555" text-anchor="middle">04:00</text>
<line x1="725.00" y1="70.00" x2="805.00" y2="90.00" stroke="#f1c40f" stroke-width="2"/>
<rect x="805.00" y="42.00" width="220" height="72" rx="8" fill="#fff8dc" stroke="#f1c40f"/>
<text x="815.00" y="66.00" font-size="12" fill="#111111">目标K线 2024-05-30 20:00</text>
<text x="815.00" y="84.00" font-size="12" fill="#111111">振幅 39.57%</text>
<text x="815.00" y="102.00" font-size="12" fill="#111111">倍数 11.83x</text>
<line x1="650.29" y1="604.67" x2="620.29" y2="564.67" stroke="#3498db" stroke-width="2"/>
<rect x="400.29" y="528.67" width="220" height="58" rx="8" fill="#eef6ff" stroke="#3498db"/>
<text x="410.29" y="550.67" font-size="12" fill="#111111">前一根涨幅 1.31%</text>
<text x="410.29" y="568.67" font-size="12" fill="#111111">前一根振幅 3.35%</text>
</svg>