<svg xmlns="http://www.w3.org/2000/svg" width="1400" height="760" viewBox="0 0 1400 760">
<rect width="100%" height="100%" fill="#fcfcfc"/>
<text x="90" y="36" font-size="26" font-weight="700" fill="#111111">MEME-USDT-SWAP 4H - 10倍命中</text>
<line x1="90" y1="70.00" x2="1360" y2="70.00" stroke="#d9d9d9" stroke-dasharray="4 4" stroke-width="1"/>
<text x="12" y="74.00" font-size="12" fill="#555555">0.002539</text>
<line x1="90" y1="186.00" x2="1360" y2="186.00" stroke="#d9d9d9" stroke-dasharray="4 4" stroke-width="1"/>
<text x="12" y="190.00" font-size="12" fill="#555555">0.002311</text>
<line x1="90" y1="302.00" x2="1360" y2="302.00" stroke="#d9d9d9" stroke-dasharray="4 4" stroke-width="1"/>
<text x="12" y="306.00" font-size="12" fill="#555555">0.002084</text>
<line x1="90" y1="418.00" x2="1360" y2="418.00" stroke="#d9d9d9" stroke-dasharray="4 4" stroke-width="1"/>
<text x="12" y="422.00" font-size="12" fill="#555555">0.001856</text>
<line x1="90" y1="534.00" x2="1360" y2="534.00" stroke="#d9d9d9" stroke-dasharray="4 4" stroke-width="1"/>
<text x="12" y="538.00" font-size="12" fill="#555555">0.001629</text>
<line x1="90" y1="650.00" x2="1360" y2="650.00" stroke="#d9d9d9" stroke-dasharray="4 4" stroke-width="1"/>
<text x="12" y="654.00" font-size="12" fill="#555555">0.001401</text>
<rect x="687.65" y="70" width="74.71" height="580.00" fill="#f1c40f" opacity="0.16"/>
<rect x="612.94" y="70" width="74.71" height="580.00" fill="#3498db" opacity="0.10"/>
<line x1="127.35" y1="613.30" x2="127.35" y2="635.73" stroke="#e74c3c" stroke-width="2"/>
<rect x="105.69" y="624.01" width="43.33" height="8.66" fill="#e74c3c" stroke="#e74c3c" stroke-width="1"/>
<text x="127.35" y="704" font-size="11" fill="#555555" text-anchor="middle">04-17</text>
<text x="127.35" y="720" font-size="11" fill="#555555" text-anchor="middle">04:00</text>
<line x1="202.06" y1="625.03" x2="202.06" y2="638.79" stroke="#e74c3c" stroke-width="2"/>
<rect x="180.39" y="632.16" width="43.33" height="4.59" fill="#e74c3c" stroke="#e74c3c" stroke-width="1"/>
<text x="202.06" y="704" font-size="11" fill="#555555" text-anchor="middle">04-17</text>
<text x="202.06" y="720" font-size="11" fill="#555555" text-anchor="middle">08:00</text>
<line x1="276.76" y1="619.93" x2="276.76" y2="639.30" stroke="#2ecc71" stroke-width="2"/>
<rect x="255.10" y="626.05" width="43.33" height="10.70" fill="#2ecc71" stroke="#2ecc71" stroke-width="1"/>
<text x="276.76" y="704" font-size="11" fill="#555555" text-anchor="middle">04-17</text>
<text x="276.76" y="720" font-size="11" fill="#555555" text-anchor="middle">12:00</text>
<line x1="351.47" y1="624.01" x2="351.47" y2="639.81" stroke="#e74c3c" stroke-width="2"/>
<rect x="329.81" y="625.54" width="43.33" height="6.63" fill="#e74c3c" stroke="#e74c3c" stroke-width="1"/>
<text x="351.47" y="704" font-size="11" fill="#555555" text-anchor="middle">04-17</text>
<text x="351.47" y="720" font-size="11" fill="#555555" text-anchor="middle">16:00</text>
<line x1="426.18" y1="626.05" x2="426.18" y2="650.00" stroke="#e74c3c" stroke-width="2"/>
<rect x="404.51" y="632.16" width="43.33" height="4.59" fill="#e74c3c" stroke="#e74c3c" stroke-width="1"/>
<text x="426.18" y="704" font-size="11" fill="#555555" text-anchor="middle">04-17</text>
<text x="426.18" y="720" font-size="11" fill="#555555" text-anchor="middle">20:00</text>
<line x1="500.88" y1="621.97" x2="500.88" y2="640.32" stroke="#2ecc71" stroke-width="2"/>
<rect x="479.22" y="635.22" width="43.33" height="1.53" fill="#2ecc71" stroke="#2ecc71" stroke-width="1"/>
<text x="500.88" y="704" font-size="11" fill="#555555" text-anchor="middle">04-18</text>
<text x="500.88" y="720" font-size="11" fill="#555555" text-anchor="middle">00:00</text>
<line x1="575.59" y1="629.10" x2="575.59" y2="644.39" stroke="#e74c3c" stroke-width="2"/>
<rect x="553.92" y="635.73" width="43.33" height="2.55" fill="#e74c3c" stroke="#e74c3c" stroke-width="1"/>
<text x="575.59" y="704" font-size="11" fill="#555555" text-anchor="middle">04-18</text>
<text x="575.59" y="720" font-size="11" fill="#555555" text-anchor="middle">04:00</text>
<line x1="650.29" y1="614.83" x2="650.29" y2="642.86" stroke="#2ecc71" stroke-width="2"/>
<rect x="628.63" y="614.83" width="43.33" height="23.44" fill="#2ecc71" stroke="#2ecc71" stroke-width="1"/>
<text x="650.29" y="704" font-size="11" fill="#555555" text-anchor="middle">04-18</text>
<text x="650.29" y="720" font-size="11" fill="#555555" text-anchor="middle">08:00</text>
<line x1="725.00" y1="228.00" x2="725.00" y2="615.34" stroke="#2ecc71" stroke-width="2"/>
<rect x="703.34" y="390.58" width="43.33" height="224.76" fill="#2ecc71" stroke="#2ecc71" stroke-width="1"/>
<text x="725.00" y="704" font-size="11" fill="#555555" text-anchor="middle">04-18</text>
<text x="725.00" y="720" font-size="11" fill="#555555" text-anchor="middle">12:00</text>
<line x1="799.71" y1="246.85" x2="799.71" y2="402.30" stroke="#2ecc71" stroke-width="2"/>
<rect x="778.04" y="371.72" width="43.33" height="18.86" fill="#2ecc71" stroke="#2ecc71" stroke-width="1"/>
<text x="799.71" y="704" font-size="11" fill="#555555" text-anchor="middle">04-18</text>
<text x="799.71" y="720" font-size="11" fill="#555555" text-anchor="middle">16:00</text>
<line x1="874.41" y1="331.97" x2="874.41" y2="453.78" stroke="#e74c3c" stroke-width="2"/>
<rect x="852.75" y="371.72" width="43.33" height="48.93" fill="#e74c3c" stroke="#e74c3c" stroke-width="1"/>
<text x="874.41" y="704" font-size="11" fill="#555555" text-anchor="middle">04-18</text>
<text x="874.41" y="720" font-size="11" fill="#555555" text-anchor="middle">20:00</text>
<line x1="949.12" y1="355.92" x2="949.12" y2="451.23" stroke="#2ecc71" stroke-width="2"/>
<rect x="927.45" y="407.91" width="43.33" height="13.25" fill="#2ecc71" stroke="#2ecc71" stroke-width="1"/>
<text x="949.12" y="704" font-size="11" fill="#555555" text-anchor="middle">04-19</text>
<text x="949.12" y="720" font-size="11" fill="#555555" text-anchor="middle">00:00</text>
<line x1="1023.82" y1="101.09" x2="1023.82" y2="439.51" stroke="#2ecc71" stroke-width="2"/>
<rect x="1002.16" y="114.34" width="43.33" height="294.08" fill="#2ecc71" stroke="#2ecc71" stroke-width="1"/>
<text x="1023.82" y="704" font-size="11" fill="#555555" text-anchor="middle">04-19</text>
<text x="1023.82" y="720" font-size="11" fill="#555555" text-anchor="middle">04:00</text>
<line x1="1098.53" y1="70.00" x2="1098.53" y2="339.61" stroke="#e74c3c" stroke-width="2"/>
<rect x="1076.86" y="114.34" width="43.33" height="218.14" fill="#e74c3c" stroke="#e74c3c" stroke-width="1"/>
<text x="1098.53" y="704" font-size="11" fill="#555555" text-anchor="middle">04-19</text>
<text x="1098.53" y="720" font-size="11" fill="#555555" text-anchor="middle">08:00</text>
<line x1="1173.24" y1="205.06" x2="1173.24" y2="340.63" stroke="#2ecc71" stroke-width="2"/>
<rect x="1151.57" y="321.78" width="43.33" height="11.21" fill="#2ecc71" stroke="#2ecc71" stroke-width="1"/>
<text x="1173.24" y="704" font-size="11" fill="#555555" text-anchor="middle">04-19</text>
<text x="1173.24" y="720" font-size="11" fill="#555555" text-anchor="middle">12:00</text>
<line x1="1247.94" y1="282.53" x2="1247.94" y2="356.43" stroke="#2ecc71" stroke-width="2"/>
<rect x="1226.28" y="321.78" width="43.33" height="1.20" fill="#2ecc71" stroke="#2ecc71" stroke-width="1"/>
<text x="1247.94" y="704" font-size="11" fill="#555555" text-anchor="middle">04-19</text>
<text x="1247.94" y="720" font-size="11" fill="#555555" text-anchor="middle">16:00</text>
<line x1="1322.65" y1="231.05" x2="1322.65" y2="337.57" stroke="#2ecc71" stroke-width="2"/>
<rect x="1300.98" y="282.02" width="43.33" height="39.75" fill="#2ecc71" stroke="#2ecc71" stroke-width="1"/>
<text x="1322.65" y="704" font-size="11" fill="#555555" text-anchor="middle">04-19</text>
<text x="1322.65" y="720" font-size="11" fill="#555555" text-anchor="middle">20:00</text>
<line x1="725.00" y1="228.00" x2="805.00" y2="158.00" stroke="#f1c40f" stroke-width="2"/>
<rect x="805.00" y="110.00" width="220" height="72" rx="8" fill="#fff8dc" stroke="#f1c40f"/>
<text x="815.00" y="134.00" font-size="12" fill="#111111">目标K线 2025-04-18 12:00</text>
<text x="815.00" y="152.00" font-size="12" fill="#111111">振幅 51.74%</text>
<text x="815.00" y="170.00" font-size="12" fill="#111111">倍数 13.39x</text>
<line x1="650.29" y1="614.83" x2="620.29" y2="574.83" stroke="#3498db" stroke-width="2"/>
<rect x="400.29" y="538.83" width="220" height="58" rx="8" fill="#eef6ff" stroke="#3498db"/>
<text x="410.29" y="560.83" font-size="12" fill="#111111">前一根涨幅 3.23%</text>
<text x="410.29" y="578.83" font-size="12" fill="#111111">前一根振幅 3.86%</text>
</svg>