<svg xmlns="http://www.w3.org/2000/svg" width="1400" height="760" viewBox="0 0 1400 760">
<rect width="100%" height="100%" fill="#fcfcfc"/>
<text x="90" y="36" font-size="26" font-weight="700" fill="#111111">MMT-USDT-SWAP 4H - 10倍命中</text>
<line x1="90" y1="70.00" x2="1360" y2="70.00" stroke="#d9d9d9" stroke-dasharray="4 4" stroke-width="1"/>
<text x="12" y="74.00" font-size="12" fill="#555555">0.541000</text>
<line x1="90" y1="186.00" x2="1360" y2="186.00" stroke="#d9d9d9" stroke-dasharray="4 4" stroke-width="1"/>
<text x="12" y="190.00" font-size="12" fill="#555555">0.475360</text>
<line x1="90" y1="302.00" x2="1360" y2="302.00" stroke="#d9d9d9" stroke-dasharray="4 4" stroke-width="1"/>
<text x="12" y="306.00" font-size="12" fill="#555555">0.409720</text>
<line x1="90" y1="418.00" x2="1360" y2="418.00" stroke="#d9d9d9" stroke-dasharray="4 4" stroke-width="1"/>
<text x="12" y="422.00" font-size="12" fill="#555555">0.344080</text>
<line x1="90" y1="534.00" x2="1360" y2="534.00" stroke="#d9d9d9" stroke-dasharray="4 4" stroke-width="1"/>
<text x="12" y="538.00" font-size="12" fill="#555555">0.278440</text>
<line x1="90" y1="650.00" x2="1360" y2="650.00" stroke="#d9d9d9" stroke-dasharray="4 4" stroke-width="1"/>
<text x="12" y="654.00" font-size="12" fill="#555555">0.212800</text>
<rect x="687.65" y="70" width="74.71" height="580.00" fill="#f1c40f" opacity="0.16"/>
<rect x="612.94" y="70" width="74.71" height="580.00" fill="#3498db" opacity="0.10"/>
<line x1="127.35" y1="511.45" x2="127.35" y2="532.83" stroke="#e74c3c" stroke-width="2"/>
<rect x="105.69" y="513.39" width="43.33" height="6.01" fill="#e74c3c" stroke="#e74c3c" stroke-width="1"/>
<text x="127.35" y="704" font-size="11" fill="#555555" text-anchor="middle">11-20</text>
<text x="127.35" y="720" font-size="11" fill="#555555" text-anchor="middle">12:00</text>
<line x1="202.06" y1="513.04" x2="202.06" y2="539.20" stroke="#2ecc71" stroke-width="2"/>
<rect x="180.39" y="513.39" width="43.33" height="6.01" fill="#2ecc71" stroke="#2ecc71" stroke-width="1"/>
<text x="202.06" y="704" font-size="11" fill="#555555" text-anchor="middle">11-20</text>
<text x="202.06" y="720" font-size="11" fill="#555555" text-anchor="middle">16:00</text>
<line x1="276.76" y1="512.86" x2="276.76" y2="535.48" stroke="#e74c3c" stroke-width="2"/>
<rect x="255.10" y="513.39" width="43.33" height="18.56" fill="#e74c3c" stroke="#e74c3c" stroke-width="1"/>
<text x="276.76" y="704" font-size="11" fill="#555555" text-anchor="middle">11-20</text>
<text x="276.76" y="720" font-size="11" fill="#555555" text-anchor="middle">20:00</text>
<line x1="351.47" y1="530.71" x2="351.47" y2="567.47" stroke="#e74c3c" stroke-width="2"/>
<rect x="329.81" y="532.13" width="43.33" height="24.74" fill="#e74c3c" stroke="#e74c3c" stroke-width="1"/>
<text x="351.47" y="704" font-size="11" fill="#555555" text-anchor="middle">11-21</text>
<text x="351.47" y="720" font-size="11" fill="#555555" text-anchor="middle">00:00</text>
<line x1="426.18" y1="536.90" x2="426.18" y2="563.05" stroke="#2ecc71" stroke-width="2"/>
<rect x="404.51" y="549.80" width="43.33" height="7.25" fill="#2ecc71" stroke="#2ecc71" stroke-width="1"/>
<text x="426.18" y="704" font-size="11" fill="#555555" text-anchor="middle">11-21</text>
<text x="426.18" y="720" font-size="11" fill="#555555" text-anchor="middle">04:00</text>
<line x1="500.88" y1="539.20" x2="500.88" y2="563.58" stroke="#e74c3c" stroke-width="2"/>
<rect x="479.22" y="549.80" width="43.33" height="7.25" fill="#e74c3c" stroke="#e74c3c" stroke-width="1"/>
<text x="500.88" y="704" font-size="11" fill="#555555" text-anchor="middle">11-21</text>
<text x="500.88" y="720" font-size="11" fill="#555555" text-anchor="middle">08:00</text>
<line x1="575.59" y1="544.14" x2="575.59" y2="650.00" stroke="#e74c3c" stroke-width="2"/>
<rect x="553.92" y="557.04" width="43.33" height="41.53" fill="#e74c3c" stroke="#e74c3c" stroke-width="1"/>
<text x="575.59" y="704" font-size="11" fill="#555555" text-anchor="middle">11-21</text>
<text x="575.59" y="720" font-size="11" fill="#555555" text-anchor="middle">12:00</text>
<line x1="650.29" y1="580.37" x2="650.29" y2="610.41" stroke="#2ecc71" stroke-width="2"/>
<rect x="628.63" y="581.61" width="43.33" height="16.97" fill="#2ecc71" stroke="#2ecc71" stroke-width="1"/>
<text x="650.29" y="704" font-size="11" fill="#555555" text-anchor="middle">11-21</text>
<text x="650.29" y="720" font-size="11" fill="#555555" text-anchor="middle">16:00</text>
<line x1="725.00" y1="224.63" x2="725.00" y2="598.22" stroke="#2ecc71" stroke-width="2"/>
<rect x="703.34" y="249.90" width="43.33" height="331.71" fill="#2ecc71" stroke="#2ecc71" stroke-width="1"/>
<text x="725.00" y="704" font-size="11" fill="#555555" text-anchor="middle">11-21</text>
<text x="725.00" y="720" font-size="11" fill="#555555" text-anchor="middle">20:00</text>
<line x1="799.71" y1="204.31" x2="799.71" y2="453.49" stroke="#e74c3c" stroke-width="2"/>
<rect x="778.04" y="250.08" width="43.33" height="181.67" fill="#e74c3c" stroke="#e74c3c" stroke-width="1"/>
<text x="799.71" y="704" font-size="11" fill="#555555" text-anchor="middle">11-22</text>
<text x="799.71" y="720" font-size="11" fill="#555555" text-anchor="middle">00:00</text>
<line x1="874.41" y1="424.68" x2="874.41" y2="497.31" stroke="#e74c3c" stroke-width="2"/>
<rect x="852.75" y="431.75" width="43.33" height="7.95" fill="#e74c3c" stroke="#e74c3c" stroke-width="1"/>
<text x="874.41" y="704" font-size="11" fill="#555555" text-anchor="middle">11-22</text>
<text x="874.41" y="720" font-size="11" fill="#555555" text-anchor="middle">04:00</text>
<line x1="949.12" y1="70.00" x2="949.12" y2="476.11" stroke="#2ecc71" stroke-width="2"/>
<rect x="927.45" y="205.72" width="43.33" height="234.16" fill="#2ecc71" stroke="#2ecc71" stroke-width="1"/>
<text x="949.12" y="704" font-size="11" fill="#555555" text-anchor="middle">11-22</text>
<text x="949.12" y="720" font-size="11" fill="#555555" text-anchor="middle">08:00</text>
<line x1="1023.82" y1="178.51" x2="1023.82" y2="364.59" stroke="#e74c3c" stroke-width="2"/>
<rect x="1002.16" y="205.72" width="43.33" height="18.56" fill="#e74c3c" stroke="#e74c3c" stroke-width="1"/>
<text x="1023.82" y="704" font-size="11" fill="#555555" text-anchor="middle">11-22</text>
<text x="1023.82" y="720" font-size="11" fill="#555555" text-anchor="middle">12:00</text>
<line x1="1098.53" y1="130.09" x2="1098.53" y2="287.90" stroke="#2ecc71" stroke-width="2"/>
<rect x="1076.86" y="197.95" width="43.33" height="26.15" fill="#2ecc71" stroke="#2ecc71" stroke-width="1"/>
<text x="1098.53" y="704" font-size="11" fill="#555555" text-anchor="middle">11-22</text>
<text x="1098.53" y="720" font-size="11" fill="#555555" text-anchor="middle">16:00</text>
<line x1="1173.24" y1="183.81" x2="1173.24" y2="341.44" stroke="#e74c3c" stroke-width="2"/>
<rect x="1151.57" y="197.95" width="43.33" height="132.89" fill="#e74c3c" stroke="#e74c3c" stroke-width="1"/>
<text x="1173.24" y="704" font-size="11" fill="#555555" text-anchor="middle">11-22</text>
<text x="1173.24" y="720" font-size="11" fill="#555555" text-anchor="middle">20:00</text>
<line x1="1247.94" y1="255.38" x2="1247.94" y2="339.68" stroke="#2ecc71" stroke-width="2"/>
<rect x="1226.28" y="284.89" width="43.33" height="45.95" fill="#2ecc71" stroke="#2ecc71" stroke-width="1"/>
<text x="1247.94" y="704" font-size="11" fill="#555555" text-anchor="middle">11-23</text>
<text x="1247.94" y="720" font-size="11" fill="#555555" text-anchor="middle">00:00</text>
<line x1="1322.65" y1="280.12" x2="1322.65" y2="331.72" stroke="#e74c3c" stroke-width="2"/>
<rect x="1300.98" y="284.89" width="43.33" height="39.06" fill="#e74c3c" stroke="#e74c3c" stroke-width="1"/>
<text x="1322.65" y="704" font-size="11" fill="#555555" text-anchor="middle">11-23</text>
<text x="1322.65" y="720" font-size="11" fill="#555555" text-anchor="middle">04:00</text>
<line x1="725.00" y1="224.63" x2="805.00" y2="154.63" stroke="#f1c40f" stroke-width="2"/>
<rect x="805.00" y="106.63" width="220" height="72" rx="8" fill="#fff8dc" stroke="#f1c40f"/>
<text x="815.00" y="130.63" font-size="12" fill="#111111">目标K线 2025-11-21 20:00</text>
<text x="815.00" y="148.63" font-size="12" fill="#111111">振幅 84.06%</text>
<text x="815.00" y="166.63" font-size="12" fill="#111111">倍数 11.96x</text>
<line x1="650.29" y1="580.37" x2="620.29" y2="540.37" stroke="#3498db" stroke-width="2"/>
<rect x="400.29" y="504.37" width="220" height="58" rx="8" fill="#eef6ff" stroke="#3498db"/>
<text x="410.29" y="526.37" font-size="12" fill="#111111">前一根涨幅 3.97%</text>
<text x="410.29" y="544.37" font-size="12" fill="#111111">前一根振幅 7.03%</text>
</svg>