<svg xmlns="http://www.w3.org/2000/svg" width="1400" height="760" viewBox="0 0 1400 760">
<rect width="100%" height="100%" fill="#fcfcfc"/>
<text x="90" y="36" font-size="26" font-weight="700" fill="#111111">NMR-USDT-SWAP 4H - 10倍命中</text>
<line x1="90" y1="70.00" x2="1360" y2="70.00" stroke="#d9d9d9" stroke-dasharray="4 4" stroke-width="1"/>
<text x="12" y="74.00" font-size="12" fill="#555555">21.000000</text>
<line x1="90" y1="186.00" x2="1360" y2="186.00" stroke="#d9d9d9" stroke-dasharray="4 4" stroke-width="1"/>
<text x="12" y="190.00" font-size="12" fill="#555555">19.934000</text>
<line x1="90" y1="302.00" x2="1360" y2="302.00" stroke="#d9d9d9" stroke-dasharray="4 4" stroke-width="1"/>
<text x="12" y="306.00" font-size="12" fill="#555555">18.868000</text>
<line x1="90" y1="418.00" x2="1360" y2="418.00" stroke="#d9d9d9" stroke-dasharray="4 4" stroke-width="1"/>
<text x="12" y="422.00" font-size="12" fill="#555555">17.802000</text>
<line x1="90" y1="534.00" x2="1360" y2="534.00" stroke="#d9d9d9" stroke-dasharray="4 4" stroke-width="1"/>
<text x="12" y="538.00" font-size="12" fill="#555555">16.736000</text>
<line x1="90" y1="650.00" x2="1360" y2="650.00" stroke="#d9d9d9" stroke-dasharray="4 4" stroke-width="1"/>
<text x="12" y="654.00" font-size="12" fill="#555555">15.670000</text>
<rect x="687.65" y="70" width="74.71" height="580.00" fill="#f1c40f" opacity="0.16"/>
<rect x="612.94" y="70" width="74.71" height="580.00" fill="#3498db" opacity="0.10"/>
<line x1="127.35" y1="458.48" x2="127.35" y2="568.39" stroke="#e74c3c" stroke-width="2"/>
<rect x="105.69" y="469.36" width="43.33" height="90.32" fill="#e74c3c" stroke="#e74c3c" stroke-width="1"/>
<text x="127.35" y="704" font-size="11" fill="#555555" text-anchor="middle">01-19</text>
<text x="127.35" y="720" font-size="11" fill="#555555" text-anchor="middle">00:00</text>
<line x1="202.06" y1="532.48" x2="202.06" y2="562.95" stroke="#2ecc71" stroke-width="2"/>
<rect x="180.39" y="542.27" width="43.33" height="18.50" fill="#2ecc71" stroke="#2ecc71" stroke-width="1"/>
<text x="202.06" y="704" font-size="11" fill="#555555" text-anchor="middle">01-19</text>
<text x="202.06" y="720" font-size="11" fill="#555555" text-anchor="middle">04:00</text>
<line x1="276.76" y1="534.65" x2="276.76" y2="591.24" stroke="#e74c3c" stroke-width="2"/>
<rect x="255.10" y="542.27" width="43.33" height="19.59" fill="#e74c3c" stroke="#e74c3c" stroke-width="1"/>
<text x="276.76" y="704" font-size="11" fill="#555555" text-anchor="middle">01-19</text>
<text x="276.76" y="720" font-size="11" fill="#555555" text-anchor="middle">08:00</text>
<line x1="351.47" y1="531.39" x2="351.47" y2="568.39" stroke="#2ecc71" stroke-width="2"/>
<rect x="329.81" y="547.71" width="43.33" height="13.06" fill="#2ecc71" stroke="#2ecc71" stroke-width="1"/>
<text x="351.47" y="704" font-size="11" fill="#555555" text-anchor="middle">01-19</text>
<text x="351.47" y="720" font-size="11" fill="#555555" text-anchor="middle">12:00</text>
<line x1="426.18" y1="531.39" x2="426.18" y2="554.24" stroke="#2ecc71" stroke-width="2"/>
<rect x="404.51" y="534.65" width="43.33" height="15.23" fill="#2ecc71" stroke="#2ecc71" stroke-width="1"/>
<text x="426.18" y="704" font-size="11" fill="#555555" text-anchor="middle">01-19</text>
<text x="426.18" y="720" font-size="11" fill="#555555" text-anchor="middle">16:00</text>
<line x1="500.88" y1="533.56" x2="500.88" y2="597.77" stroke="#e74c3c" stroke-width="2"/>
<rect x="479.22" y="536.83" width="43.33" height="54.41" fill="#e74c3c" stroke="#e74c3c" stroke-width="1"/>
<text x="500.88" y="704" font-size="11" fill="#555555" text-anchor="middle">01-19</text>
<text x="500.88" y="720" font-size="11" fill="#555555" text-anchor="middle">20:00</text>
<line x1="575.59" y1="549.89" x2="575.59" y2="650.00" stroke="#2ecc71" stroke-width="2"/>
<rect x="553.92" y="554.24" width="43.33" height="39.17" fill="#2ecc71" stroke="#2ecc71" stroke-width="1"/>
<text x="575.59" y="704" font-size="11" fill="#555555" text-anchor="middle">01-20</text>
<text x="575.59" y="720" font-size="11" fill="#555555" text-anchor="middle">00:00</text>
<line x1="650.29" y1="513.98" x2="650.29" y2="558.59" stroke="#2ecc71" stroke-width="2"/>
<rect x="628.63" y="525.95" width="43.33" height="28.29" fill="#2ecc71" stroke="#2ecc71" stroke-width="1"/>
<text x="650.29" y="704" font-size="11" fill="#555555" text-anchor="middle">01-20</text>
<text x="650.29" y="720" font-size="11" fill="#555555" text-anchor="middle">04:00</text>
<line x1="725.00" y1="71.09" x2="725.00" y2="540.09" stroke="#2ecc71" stroke-width="2"/>
<rect x="703.34" y="276.75" width="43.33" height="245.93" fill="#2ecc71" stroke="#2ecc71" stroke-width="1"/>
<text x="725.00" y="704" font-size="11" fill="#555555" text-anchor="middle">01-20</text>
<text x="725.00" y="720" font-size="11" fill="#555555" text-anchor="middle">08:00</text>
<line x1="799.71" y1="159.23" x2="799.71" y2="379.04" stroke="#e74c3c" stroke-width="2"/>
<rect x="778.04" y="274.58" width="43.33" height="56.59" fill="#e74c3c" stroke="#e74c3c" stroke-width="1"/>
<text x="799.71" y="704" font-size="11" fill="#555555" text-anchor="middle">01-20</text>
<text x="799.71" y="720" font-size="11" fill="#555555" text-anchor="middle">12:00</text>
<line x1="874.41" y1="70.00" x2="874.41" y2="338.78" stroke="#2ecc71" stroke-width="2"/>
<rect x="852.75" y="257.17" width="43.33" height="70.73" fill="#2ecc71" stroke="#2ecc71" stroke-width="1"/>
<text x="874.41" y="704" font-size="11" fill="#555555" text-anchor="middle">01-20</text>
<text x="874.41" y="720" font-size="11" fill="#555555" text-anchor="middle">16:00</text>
<line x1="949.12" y1="140.73" x2="949.12" y2="284.37" stroke="#2ecc71" stroke-width="2"/>
<rect x="927.45" y="240.84" width="43.33" height="16.32" fill="#2ecc71" stroke="#2ecc71" stroke-width="1"/>
<text x="949.12" y="704" font-size="11" fill="#555555" text-anchor="middle">01-20</text>
<text x="949.12" y="720" font-size="11" fill="#555555" text-anchor="middle">20:00</text>
<line x1="1023.82" y1="206.02" x2="1023.82" y2="336.60" stroke="#e74c3c" stroke-width="2"/>
<rect x="1002.16" y="241.93" width="43.33" height="65.29" fill="#e74c3c" stroke="#e74c3c" stroke-width="1"/>
<text x="1023.82" y="704" font-size="11" fill="#555555" text-anchor="middle">01-21</text>
<text x="1023.82" y="720" font-size="11" fill="#555555" text-anchor="middle">00:00</text>
<line x1="1098.53" y1="266.96" x2="1098.53" y2="340.96" stroke="#e74c3c" stroke-width="2"/>
<rect x="1076.86" y="307.22" width="43.33" height="17.41" fill="#e74c3c" stroke="#e74c3c" stroke-width="1"/>
<text x="1098.53" y="704" font-size="11" fill="#555555" text-anchor="middle">01-21</text>
<text x="1098.53" y="720" font-size="11" fill="#555555" text-anchor="middle">04:00</text>
<line x1="1173.24" y1="319.19" x2="1173.24" y2="374.69" stroke="#e74c3c" stroke-width="2"/>
<rect x="1151.57" y="324.63" width="43.33" height="20.68" fill="#e74c3c" stroke="#e74c3c" stroke-width="1"/>
<text x="1173.24" y="704" font-size="11" fill="#555555" text-anchor="middle">01-21</text>
<text x="1173.24" y="720" font-size="11" fill="#555555" text-anchor="middle">08:00</text>
<line x1="1247.94" y1="269.14" x2="1247.94" y2="364.90" stroke="#2ecc71" stroke-width="2"/>
<rect x="1226.28" y="287.64" width="43.33" height="57.67" fill="#2ecc71" stroke="#2ecc71" stroke-width="1"/>
<text x="1247.94" y="704" font-size="11" fill="#555555" text-anchor="middle">01-21</text>
<text x="1247.94" y="720" font-size="11" fill="#555555" text-anchor="middle">12:00</text>
<line x1="1322.65" y1="113.53" x2="1322.65" y2="310.49" stroke="#2ecc71" stroke-width="2"/>
<rect x="1300.98" y="272.40" width="43.33" height="15.23" fill="#2ecc71" stroke="#2ecc71" stroke-width="1"/>
<text x="1322.65" y="704" font-size="11" fill="#555555" text-anchor="middle">01-21</text>
<text x="1322.65" y="720" font-size="11" fill="#555555" text-anchor="middle">16:00</text>
<line x1="725.00" y1="71.09" x2="805.00" y2="90.00" stroke="#f1c40f" stroke-width="2"/>
<rect x="805.00" y="42.00" width="220" height="72" rx="8" fill="#fff8dc" stroke="#f1c40f"/>
<text x="815.00" y="66.00" font-size="12" fill="#111111">目标K线 2024-01-20 08:00</text>
<text x="815.00" y="84.00" font-size="12" fill="#111111">振幅 25.59%</text>
<text x="815.00" y="102.00" font-size="12" fill="#111111">倍数 10.33x</text>
<line x1="650.29" y1="513.98" x2="620.29" y2="473.98" stroke="#3498db" stroke-width="2"/>
<rect x="400.29" y="437.98" width="220" height="58" rx="8" fill="#eef6ff" stroke="#3498db"/>
<text x="410.29" y="459.98" font-size="12" fill="#111111">前一根涨幅 1.57%</text>
<text x="410.29" y="477.98" font-size="12" fill="#111111">前一根振幅 2.48%</text>
</svg>