<svg xmlns="http://www.w3.org/2000/svg" width="1400" height="760" viewBox="0 0 1400 760">
<rect width="100%" height="100%" fill="#fcfcfc"/>
<text x="90" y="36" font-size="26" font-weight="700" fill="#111111">QTUM-USDT-SWAP 4H - 10倍命中</text>
<line x1="90" y1="70.00" x2="1360" y2="70.00" stroke="#d9d9d9" stroke-dasharray="4 4" stroke-width="1"/>
<text x="12" y="74.00" font-size="12" fill="#555555">1.611000</text>
<line x1="90" y1="186.00" x2="1360" y2="186.00" stroke="#d9d9d9" stroke-dasharray="4 4" stroke-width="1"/>
<text x="12" y="190.00" font-size="12" fill="#555555">1.564600</text>
<line x1="90" y1="302.00" x2="1360" y2="302.00" stroke="#d9d9d9" stroke-dasharray="4 4" stroke-width="1"/>
<text x="12" y="306.00" font-size="12" fill="#555555">1.518200</text>
<line x1="90" y1="418.00" x2="1360" y2="418.00" stroke="#d9d9d9" stroke-dasharray="4 4" stroke-width="1"/>
<text x="12" y="422.00" font-size="12" fill="#555555">1.471800</text>
<line x1="90" y1="534.00" x2="1360" y2="534.00" stroke="#d9d9d9" stroke-dasharray="4 4" stroke-width="1"/>
<text x="12" y="538.00" font-size="12" fill="#555555">1.425400</text>
<line x1="90" y1="650.00" x2="1360" y2="650.00" stroke="#d9d9d9" stroke-dasharray="4 4" stroke-width="1"/>
<text x="12" y="654.00" font-size="12" fill="#555555">1.379000</text>
<rect x="687.65" y="70" width="74.71" height="580.00" fill="#f1c40f" opacity="0.16"/>
<rect x="612.94" y="70" width="74.71" height="580.00" fill="#3498db" opacity="0.10"/>
<line x1="127.35" y1="490.00" x2="127.35" y2="560.00" stroke="#2ecc71" stroke-width="2"/>
<rect x="105.69" y="530.00" width="43.33" height="5.00" fill="#2ecc71" stroke="#2ecc71" stroke-width="1"/>
<text x="127.35" y="704" font-size="11" fill="#555555" text-anchor="middle">12-12</text>
<text x="127.35" y="720" font-size="11" fill="#555555" text-anchor="middle">00:00</text>
<line x1="202.06" y1="445.00" x2="202.06" y2="530.00" stroke="#2ecc71" stroke-width="2"/>
<rect x="180.39" y="485.00" width="43.33" height="42.50" fill="#2ecc71" stroke="#2ecc71" stroke-width="1"/>
<text x="202.06" y="704" font-size="11" fill="#555555" text-anchor="middle">12-12</text>
<text x="202.06" y="720" font-size="11" fill="#555555" text-anchor="middle">04:00</text>
<line x1="276.76" y1="462.50" x2="276.76" y2="522.50" stroke="#2ecc71" stroke-width="2"/>
<rect x="255.10" y="472.50" width="43.33" height="10.00" fill="#2ecc71" stroke="#2ecc71" stroke-width="1"/>
<text x="276.76" y="704" font-size="11" fill="#555555" text-anchor="middle">12-12</text>
<text x="276.76" y="720" font-size="11" fill="#555555" text-anchor="middle">08:00</text>
<line x1="351.47" y1="447.50" x2="351.47" y2="492.50" stroke="#2ecc71" stroke-width="2"/>
<rect x="329.81" y="462.50" width="43.33" height="12.50" fill="#2ecc71" stroke="#2ecc71" stroke-width="1"/>
<text x="351.47" y="704" font-size="11" fill="#555555" text-anchor="middle">12-12</text>
<text x="351.47" y="720" font-size="11" fill="#555555" text-anchor="middle">12:00</text>
<line x1="426.18" y1="460.00" x2="426.18" y2="490.00" stroke="#e74c3c" stroke-width="2"/>
<rect x="404.51" y="462.50" width="43.33" height="10.00" fill="#e74c3c" stroke="#e74c3c" stroke-width="1"/>
<text x="426.18" y="704" font-size="11" fill="#555555" text-anchor="middle">12-12</text>
<text x="426.18" y="720" font-size="11" fill="#555555" text-anchor="middle">16:00</text>
<line x1="500.88" y1="465.00" x2="500.88" y2="635.00" stroke="#e74c3c" stroke-width="2"/>
<rect x="479.22" y="470.00" width="43.33" height="142.50" fill="#e74c3c" stroke="#e74c3c" stroke-width="1"/>
<text x="500.88" y="704" font-size="11" fill="#555555" text-anchor="middle">12-12</text>
<text x="500.88" y="720" font-size="11" fill="#555555" text-anchor="middle">20:00</text>
<line x1="575.59" y1="580.00" x2="575.59" y2="650.00" stroke="#2ecc71" stroke-width="2"/>
<rect x="553.92" y="610.00" width="43.33" height="5.00" fill="#2ecc71" stroke="#2ecc71" stroke-width="1"/>
<text x="575.59" y="704" font-size="11" fill="#555555" text-anchor="middle">12-13</text>
<text x="575.59" y="720" font-size="11" fill="#555555" text-anchor="middle">00:00</text>
<line x1="650.29" y1="562.50" x2="650.29" y2="610.00" stroke="#2ecc71" stroke-width="2"/>
<rect x="628.63" y="570.00" width="43.33" height="37.50" fill="#2ecc71" stroke="#2ecc71" stroke-width="1"/>
<text x="650.29" y="704" font-size="11" fill="#555555" text-anchor="middle">12-13</text>
<text x="650.29" y="720" font-size="11" fill="#555555" text-anchor="middle">04:00</text>
<line x1="725.00" y1="70.00" x2="725.00" y2="575.00" stroke="#2ecc71" stroke-width="2"/>
<rect x="703.34" y="380.00" width="43.33" height="187.50" fill="#2ecc71" stroke="#2ecc71" stroke-width="1"/>
<text x="725.00" y="704" font-size="11" fill="#555555" text-anchor="middle">12-13</text>
<text x="725.00" y="720" font-size="11" fill="#555555" text-anchor="middle">08:00</text>
<line x1="799.71" y1="207.50" x2="799.71" y2="400.00" stroke="#2ecc71" stroke-width="2"/>
<rect x="778.04" y="255.00" width="43.33" height="125.00" fill="#2ecc71" stroke="#2ecc71" stroke-width="1"/>
<text x="799.71" y="704" font-size="11" fill="#555555" text-anchor="middle">12-13</text>
<text x="799.71" y="720" font-size="11" fill="#555555" text-anchor="middle">12:00</text>
<line x1="874.41" y1="165.00" x2="874.41" y2="422.50" stroke="#e74c3c" stroke-width="2"/>
<rect x="852.75" y="257.50" width="43.33" height="52.50" fill="#e74c3c" stroke="#e74c3c" stroke-width="1"/>
<text x="874.41" y="704" font-size="11" fill="#555555" text-anchor="middle">12-13</text>
<text x="874.41" y="720" font-size="11" fill="#555555" text-anchor="middle">16:00</text>
<line x1="949.12" y1="195.00" x2="949.12" y2="317.50" stroke="#2ecc71" stroke-width="2"/>
<rect x="927.45" y="237.50" width="43.33" height="72.50" fill="#2ecc71" stroke="#2ecc71" stroke-width="1"/>
<text x="949.12" y="704" font-size="11" fill="#555555" text-anchor="middle">12-13</text>
<text x="949.12" y="720" font-size="11" fill="#555555" text-anchor="middle">20:00</text>
<line x1="1023.82" y1="205.00" x2="1023.82" y2="292.50" stroke="#e74c3c" stroke-width="2"/>
<rect x="1002.16" y="240.00" width="43.33" height="37.50" fill="#e74c3c" stroke="#e74c3c" stroke-width="1"/>
<text x="1023.82" y="704" font-size="11" fill="#555555" text-anchor="middle">12-14</text>
<text x="1023.82" y="720" font-size="11" fill="#555555" text-anchor="middle">00:00</text>
<line x1="1098.53" y1="270.00" x2="1098.53" y2="355.00" stroke="#e74c3c" stroke-width="2"/>
<rect x="1076.86" y="277.50" width="43.33" height="42.50" fill="#e74c3c" stroke="#e74c3c" stroke-width="1"/>
<text x="1098.53" y="704" font-size="11" fill="#555555" text-anchor="middle">12-14</text>
<text x="1098.53" y="720" font-size="11" fill="#555555" text-anchor="middle">04:00</text>
<line x1="1173.24" y1="220.00" x2="1173.24" y2="417.50" stroke="#e74c3c" stroke-width="2"/>
<rect x="1151.57" y="320.00" width="43.33" height="72.50" fill="#e74c3c" stroke="#e74c3c" stroke-width="1"/>
<text x="1173.24" y="704" font-size="11" fill="#555555" text-anchor="middle">12-14</text>
<text x="1173.24" y="720" font-size="11" fill="#555555" text-anchor="middle">08:00</text>
<line x1="1247.94" y1="387.50" x2="1247.94" y2="427.50" stroke="#e74c3c" stroke-width="2"/>
<rect x="1226.28" y="392.50" width="43.33" height="25.00" fill="#e74c3c" stroke="#e74c3c" stroke-width="1"/>
<text x="1247.94" y="704" font-size="11" fill="#555555" text-anchor="middle">12-14</text>
<text x="1247.94" y="720" font-size="11" fill="#555555" text-anchor="middle">12:00</text>
<line x1="1322.65" y1="405.00" x2="1322.65" y2="505.00" stroke="#e74c3c" stroke-width="2"/>
<rect x="1300.98" y="415.00" width="43.33" height="47.50" fill="#e74c3c" stroke="#e74c3c" stroke-width="1"/>
<text x="1322.65" y="704" font-size="11" fill="#555555" text-anchor="middle">12-14</text>
<text x="1322.65" y="720" font-size="11" fill="#555555" text-anchor="middle">16:00</text>
<line x1="725.00" y1="70.00" x2="805.00" y2="90.00" stroke="#f1c40f" stroke-width="2"/>
<rect x="805.00" y="42.00" width="220" height="72" rx="8" fill="#fff8dc" stroke="#f1c40f"/>
<text x="815.00" y="66.00" font-size="12" fill="#111111">目标K线 2025-12-13 08:00</text>
<text x="815.00" y="84.00" font-size="12" fill="#111111">振幅 14.31%</text>
<text x="815.00" y="102.00" font-size="12" fill="#111111">倍数 10.51x</text>
<line x1="650.29" y1="562.50" x2="620.29" y2="522.50" stroke="#3498db" stroke-width="2"/>
<rect x="400.29" y="486.50" width="220" height="58" rx="8" fill="#eef6ff" stroke="#3498db"/>
<text x="410.29" y="508.50" font-size="12" fill="#111111">前一根涨幅 1.07%</text>
<text x="410.29" y="526.50" font-size="12" fill="#111111">前一根振幅 1.36%</text>
</svg>