<svg xmlns="http://www.w3.org/2000/svg" width="1400" height="760" viewBox="0 0 1400 760">
<rect width="100%" height="100%" fill="#fcfcfc"/>
<text x="90" y="36" font-size="26" font-weight="700" fill="#111111">RAY-USDT-SWAP 4H - 10倍命中</text>
<line x1="90" y1="70.00" x2="1360" y2="70.00" stroke="#d9d9d9" stroke-dasharray="4 4" stroke-width="1"/>
<text x="12" y="74.00" font-size="12" fill="#555555">2.099800</text>
<line x1="90" y1="186.00" x2="1360" y2="186.00" stroke="#d9d9d9" stroke-dasharray="4 4" stroke-width="1"/>
<text x="12" y="190.00" font-size="12" fill="#555555">1.996860</text>
<line x1="90" y1="302.00" x2="1360" y2="302.00" stroke="#d9d9d9" stroke-dasharray="4 4" stroke-width="1"/>
<text x="12" y="306.00" font-size="12" fill="#555555">1.893920</text>
<line x1="90" y1="418.00" x2="1360" y2="418.00" stroke="#d9d9d9" stroke-dasharray="4 4" stroke-width="1"/>
<text x="12" y="422.00" font-size="12" fill="#555555">1.790980</text>
<line x1="90" y1="534.00" x2="1360" y2="534.00" stroke="#d9d9d9" stroke-dasharray="4 4" stroke-width="1"/>
<text x="12" y="538.00" font-size="12" fill="#555555">1.688040</text>
<line x1="90" y1="650.00" x2="1360" y2="650.00" stroke="#d9d9d9" stroke-dasharray="4 4" stroke-width="1"/>
<text x="12" y="654.00" font-size="12" fill="#555555">1.585100</text>
<rect x="687.65" y="70" width="74.71" height="580.00" fill="#f1c40f" opacity="0.16"/>
<rect x="612.94" y="70" width="74.71" height="580.00" fill="#3498db" opacity="0.10"/>
<line x1="127.35" y1="409.64" x2="127.35" y2="514.66" stroke="#e74c3c" stroke-width="2"/>
<rect x="105.69" y="442.54" width="43.33" height="41.92" fill="#e74c3c" stroke="#e74c3c" stroke-width="1"/>
<text x="127.35" y="704" font-size="11" fill="#555555" text-anchor="middle">03-17</text>
<text x="127.35" y="720" font-size="11" fill="#555555" text-anchor="middle">20:00</text>
<line x1="202.06" y1="433.98" x2="202.06" y2="496.18" stroke="#2ecc71" stroke-width="2"/>
<rect x="180.39" y="437.02" width="43.33" height="47.44" fill="#2ecc71" stroke="#2ecc71" stroke-width="1"/>
<text x="202.06" y="704" font-size="11" fill="#555555" text-anchor="middle">03-18</text>
<text x="202.06" y="720" font-size="11" fill="#555555" text-anchor="middle">00:00</text>
<line x1="276.76" y1="434.54" x2="276.76" y2="508.92" stroke="#e74c3c" stroke-width="2"/>
<rect x="255.10" y="436.57" width="43.33" height="47.10" fill="#e74c3c" stroke="#e74c3c" stroke-width="1"/>
<text x="276.76" y="704" font-size="11" fill="#555555" text-anchor="middle">03-18</text>
<text x="276.76" y="720" font-size="11" fill="#555555" text-anchor="middle">04:00</text>
<line x1="351.47" y1="479.84" x2="351.47" y2="568.19" stroke="#e74c3c" stroke-width="2"/>
<rect x="329.81" y="483.90" width="43.33" height="74.04" fill="#e74c3c" stroke="#e74c3c" stroke-width="1"/>
<text x="351.47" y="704" font-size="11" fill="#555555" text-anchor="middle">03-18</text>
<text x="351.47" y="720" font-size="11" fill="#555555" text-anchor="middle">08:00</text>
<line x1="426.18" y1="536.97" x2="426.18" y2="580.58" stroke="#2ecc71" stroke-width="2"/>
<rect x="404.51" y="550.05" width="43.33" height="7.78" fill="#2ecc71" stroke="#2ecc71" stroke-width="1"/>
<text x="426.18" y="704" font-size="11" fill="#555555" text-anchor="middle">03-18</text>
<text x="426.18" y="720" font-size="11" fill="#555555" text-anchor="middle">12:00</text>
<line x1="500.88" y1="528.86" x2="500.88" y2="581.15" stroke="#e74c3c" stroke-width="2"/>
<rect x="479.22" y="550.72" width="43.33" height="24.68" fill="#e74c3c" stroke="#e74c3c" stroke-width="1"/>
<text x="500.88" y="704" font-size="11" fill="#555555" text-anchor="middle">03-18</text>
<text x="500.88" y="720" font-size="11" fill="#555555" text-anchor="middle">16:00</text>
<line x1="575.59" y1="566.95" x2="575.59" y2="642.90" stroke="#e74c3c" stroke-width="2"/>
<rect x="553.92" y="575.96" width="43.33" height="61.19" fill="#e74c3c" stroke="#e74c3c" stroke-width="1"/>
<text x="575.59" y="704" font-size="11" fill="#555555" text-anchor="middle">03-18</text>
<text x="575.59" y="720" font-size="11" fill="#555555" text-anchor="middle">20:00</text>
<line x1="650.29" y1="606.50" x2="650.29" y2="650.00" stroke="#2ecc71" stroke-width="2"/>
<rect x="628.63" y="617.77" width="43.33" height="19.27" fill="#2ecc71" stroke="#2ecc71" stroke-width="1"/>
<text x="650.29" y="704" font-size="11" fill="#555555" text-anchor="middle">03-19</text>
<text x="650.29" y="720" font-size="11" fill="#555555" text-anchor="middle">00:00</text>
<line x1="725.00" y1="182.46" x2="725.00" y2="639.75" stroke="#2ecc71" stroke-width="2"/>
<rect x="703.34" y="242.52" width="43.33" height="375.59" fill="#2ecc71" stroke="#2ecc71" stroke-width="1"/>
<text x="725.00" y="704" font-size="11" fill="#555555" text-anchor="middle">03-19</text>
<text x="725.00" y="720" font-size="11" fill="#555555" text-anchor="middle">04:00</text>
<line x1="799.71" y1="70.00" x2="799.71" y2="337.86" stroke="#e74c3c" stroke-width="2"/>
<rect x="778.04" y="242.52" width="43.33" height="11.16" fill="#e74c3c" stroke="#e74c3c" stroke-width="1"/>
<text x="799.71" y="704" font-size="11" fill="#555555" text-anchor="middle">03-19</text>
<text x="799.71" y="720" font-size="11" fill="#555555" text-anchor="middle">08:00</text>
<line x1="874.41" y1="232.95" x2="874.41" y2="384.73" stroke="#e74c3c" stroke-width="2"/>
<rect x="852.75" y="253.68" width="43.33" height="118.66" fill="#e74c3c" stroke="#e74c3c" stroke-width="1"/>
<text x="874.41" y="704" font-size="11" fill="#555555" text-anchor="middle">03-19</text>
<text x="874.41" y="720" font-size="11" fill="#555555" text-anchor="middle">12:00</text>
<line x1="949.12" y1="300.22" x2="949.12" y2="393.19" stroke="#2ecc71" stroke-width="2"/>
<rect x="927.45" y="355.10" width="43.33" height="17.47" fill="#2ecc71" stroke="#2ecc71" stroke-width="1"/>
<text x="949.12" y="704" font-size="11" fill="#555555" text-anchor="middle">03-19</text>
<text x="949.12" y="720" font-size="11" fill="#555555" text-anchor="middle">16:00</text>
<line x1="1023.82" y1="319.38" x2="1023.82" y2="400.85" stroke="#2ecc71" stroke-width="2"/>
<rect x="1002.16" y="343.72" width="43.33" height="11.83" fill="#2ecc71" stroke="#2ecc71" stroke-width="1"/>
<text x="1023.82" y="704" font-size="11" fill="#555555" text-anchor="middle">03-19</text>
<text x="1023.82" y="720" font-size="11" fill="#555555" text-anchor="middle">20:00</text>
<line x1="1098.53" y1="285.68" x2="1098.53" y2="435.78" stroke="#2ecc71" stroke-width="2"/>
<rect x="1076.86" y="316.00" width="43.33" height="27.61" fill="#2ecc71" stroke="#2ecc71" stroke-width="1"/>
<text x="1098.53" y="704" font-size="11" fill="#555555" text-anchor="middle">03-20</text>
<text x="1098.53" y="720" font-size="11" fill="#555555" text-anchor="middle">00:00</text>
<line x1="1173.24" y1="255.14" x2="1173.24" y2="342.48" stroke="#2ecc71" stroke-width="2"/>
<rect x="1151.57" y="282.53" width="43.33" height="34.26" fill="#2ecc71" stroke="#2ecc71" stroke-width="1"/>
<text x="1173.24" y="704" font-size="11" fill="#555555" text-anchor="middle">03-20</text>
<text x="1173.24" y="720" font-size="11" fill="#555555" text-anchor="middle">04:00</text>
<line x1="1247.94" y1="226.75" x2="1247.94" y2="298.42" stroke="#2ecc71" stroke-width="2"/>
<rect x="1226.28" y="234.41" width="43.33" height="47.89" fill="#2ecc71" stroke="#2ecc71" stroke-width="1"/>
<text x="1247.94" y="704" font-size="11" fill="#555555" text-anchor="middle">03-20</text>
<text x="1247.94" y="720" font-size="11" fill="#555555" text-anchor="middle">08:00</text>
<line x1="1322.65" y1="232.72" x2="1322.65" y2="300.56" stroke="#e74c3c" stroke-width="2"/>
<rect x="1300.98" y="234.18" width="43.33" height="23.44" fill="#e74c3c" stroke="#e74c3c" stroke-width="1"/>
<text x="1322.65" y="704" font-size="11" fill="#555555" text-anchor="middle">03-20</text>
<text x="1322.65" y="720" font-size="11" fill="#555555" text-anchor="middle">12:00</text>
<line x1="725.00" y1="182.46" x2="805.00" y2="112.46" stroke="#f1c40f" stroke-width="2"/>
<rect x="805.00" y="64.46" width="220" height="72" rx="8" fill="#fff8dc" stroke="#f1c40f"/>
<text x="815.00" y="88.46" font-size="12" fill="#111111">目标K线 2025-03-19 04:00</text>
<text x="815.00" y="106.46" font-size="12" fill="#111111">振幅 25.15%</text>
<text x="815.00" y="124.46" font-size="12" fill="#111111">倍数 10.40x</text>
<line x1="650.29" y1="606.50" x2="620.29" y2="566.50" stroke="#3498db" stroke-width="2"/>
<rect x="400.29" y="530.50" width="220" height="58" rx="8" fill="#eef6ff" stroke="#3498db"/>
<text x="410.29" y="552.50" font-size="12" fill="#111111">前一根涨幅 1.07%</text>
<text x="410.29" y="570.50" font-size="12" fill="#111111">前一根振幅 2.42%</text>
</svg>