<svg xmlns="http://www.w3.org/2000/svg" width="1400" height="760" viewBox="0 0 1400 760">
<rect width="100%" height="100%" fill="#fcfcfc"/>
<text x="90" y="36" font-size="26" font-weight="700" fill="#111111">RLS-USDT-SWAP 4H - 10倍命中</text>
<line x1="90" y1="70.00" x2="1360" y2="70.00" stroke="#d9d9d9" stroke-dasharray="4 4" stroke-width="1"/>
<text x="12" y="74.00" font-size="12" fill="#555555">0.009477</text>
<line x1="90" y1="186.00" x2="1360" y2="186.00" stroke="#d9d9d9" stroke-dasharray="4 4" stroke-width="1"/>
<text x="12" y="190.00" font-size="12" fill="#555555">0.008812</text>
<line x1="90" y1="302.00" x2="1360" y2="302.00" stroke="#d9d9d9" stroke-dasharray="4 4" stroke-width="1"/>
<text x="12" y="306.00" font-size="12" fill="#555555">0.008148</text>
<line x1="90" y1="418.00" x2="1360" y2="418.00" stroke="#d9d9d9" stroke-dasharray="4 4" stroke-width="1"/>
<text x="12" y="422.00" font-size="12" fill="#555555">0.007483</text>
<line x1="90" y1="534.00" x2="1360" y2="534.00" stroke="#d9d9d9" stroke-dasharray="4 4" stroke-width="1"/>
<text x="12" y="538.00" font-size="12" fill="#555555">0.006819</text>
<line x1="90" y1="650.00" x2="1360" y2="650.00" stroke="#d9d9d9" stroke-dasharray="4 4" stroke-width="1"/>
<text x="12" y="654.00" font-size="12" fill="#555555">0.006154</text>
<rect x="687.65" y="70" width="74.71" height="580.00" fill="#f1c40f" opacity="0.16"/>
<rect x="612.94" y="70" width="74.71" height="580.00" fill="#3498db" opacity="0.10"/>
<line x1="127.35" y1="520.67" x2="127.35" y2="547.72" stroke="#2ecc71" stroke-width="2"/>
<rect x="105.69" y="533.58" width="43.33" height="6.98" fill="#2ecc71" stroke="#2ecc71" stroke-width="1"/>
<text x="127.35" y="704" font-size="11" fill="#555555" text-anchor="middle">02-01</text>
<text x="127.35" y="720" font-size="11" fill="#555555" text-anchor="middle">12:00</text>
<line x1="202.06" y1="526.77" x2="202.06" y2="570.23" stroke="#e74c3c" stroke-width="2"/>
<rect x="180.39" y="532.71" width="43.33" height="5.06" fill="#e74c3c" stroke="#e74c3c" stroke-width="1"/>
<text x="202.06" y="704" font-size="11" fill="#555555" text-anchor="middle">02-01</text>
<text x="202.06" y="720" font-size="11" fill="#555555" text-anchor="middle">16:00</text>
<line x1="276.76" y1="535.33" x2="276.76" y2="584.72" stroke="#e74c3c" stroke-width="2"/>
<rect x="255.10" y="537.94" width="43.33" height="42.76" fill="#e74c3c" stroke="#e74c3c" stroke-width="1"/>
<text x="276.76" y="704" font-size="11" fill="#555555" text-anchor="middle">02-01</text>
<text x="276.76" y="720" font-size="11" fill="#555555" text-anchor="middle">20:00</text>
<line x1="351.47" y1="565.35" x2="351.47" y2="600.26" stroke="#e74c3c" stroke-width="2"/>
<rect x="329.81" y="579.66" width="43.33" height="17.28" fill="#e74c3c" stroke="#e74c3c" stroke-width="1"/>
<text x="351.47" y="704" font-size="11" fill="#555555" text-anchor="middle">02-02</text>
<text x="351.47" y="720" font-size="11" fill="#555555" text-anchor="middle">00:00</text>
<line x1="426.18" y1="585.94" x2="426.18" y2="621.38" stroke="#e74c3c" stroke-width="2"/>
<rect x="404.51" y="596.42" width="43.33" height="22.69" fill="#e74c3c" stroke="#e74c3c" stroke-width="1"/>
<text x="426.18" y="704" font-size="11" fill="#555555" text-anchor="middle">02-02</text>
<text x="426.18" y="720" font-size="11" fill="#555555" text-anchor="middle">04:00</text>
<line x1="500.88" y1="580.01" x2="500.88" y2="650.00" stroke="#2ecc71" stroke-width="2"/>
<rect x="479.22" y="608.28" width="43.33" height="8.90" fill="#2ecc71" stroke="#2ecc71" stroke-width="1"/>
<text x="500.88" y="704" font-size="11" fill="#555555" text-anchor="middle">02-02</text>
<text x="500.88" y="720" font-size="11" fill="#555555" text-anchor="middle">08:00</text>
<line x1="575.59" y1="581.06" x2="575.59" y2="629.06" stroke="#2ecc71" stroke-width="2"/>
<rect x="553.92" y="589.78" width="43.33" height="17.28" fill="#2ecc71" stroke="#2ecc71" stroke-width="1"/>
<text x="575.59" y="704" font-size="11" fill="#555555" text-anchor="middle">02-02</text>
<text x="575.59" y="720" font-size="11" fill="#555555" text-anchor="middle">12:00</text>
<line x1="650.29" y1="563.95" x2="650.29" y2="591.18" stroke="#2ecc71" stroke-width="2"/>
<rect x="628.63" y="575.12" width="43.33" height="13.44" fill="#2ecc71" stroke="#2ecc71" stroke-width="1"/>
<text x="650.29" y="704" font-size="11" fill="#555555" text-anchor="middle">02-02</text>
<text x="650.29" y="720" font-size="11" fill="#555555" text-anchor="middle">16:00</text>
<line x1="725.00" y1="241.57" x2="725.00" y2="576.17" stroke="#2ecc71" stroke-width="2"/>
<rect x="703.34" y="370.56" width="43.33" height="203.17" fill="#2ecc71" stroke="#2ecc71" stroke-width="1"/>
<text x="725.00" y="704" font-size="11" fill="#555555" text-anchor="middle">02-02</text>
<text x="725.00" y="720" font-size="11" fill="#555555" text-anchor="middle">20:00</text>
<line x1="799.71" y1="106.13" x2="799.71" y2="514.21" stroke="#e74c3c" stroke-width="2"/>
<rect x="778.04" y="369.16" width="43.33" height="134.92" fill="#e74c3c" stroke="#e74c3c" stroke-width="1"/>
<text x="799.71" y="704" font-size="11" fill="#555555" text-anchor="middle">02-03</text>
<text x="799.71" y="720" font-size="11" fill="#555555" text-anchor="middle">00:00</text>
<line x1="874.41" y1="455.21" x2="874.41" y2="545.80" stroke="#2ecc71" stroke-width="2"/>
<rect x="852.75" y="490.64" width="43.33" height="13.61" fill="#2ecc71" stroke="#2ecc71" stroke-width="1"/>
<text x="874.41" y="704" font-size="11" fill="#555555" text-anchor="middle">02-03</text>
<text x="874.41" y="720" font-size="11" fill="#555555" text-anchor="middle">04:00</text>
<line x1="949.12" y1="450.67" x2="949.12" y2="519.44" stroke="#2ecc71" stroke-width="2"/>
<rect x="927.45" y="453.99" width="43.33" height="36.65" fill="#2ecc71" stroke="#2ecc71" stroke-width="1"/>
<text x="949.12" y="704" font-size="11" fill="#555555" text-anchor="middle">02-03</text>
<text x="949.12" y="720" font-size="11" fill="#555555" text-anchor="middle">08:00</text>
<line x1="1023.82" y1="428.33" x2="1023.82" y2="478.78" stroke="#e74c3c" stroke-width="2"/>
<rect x="1002.16" y="453.99" width="43.33" height="19.55" fill="#e74c3c" stroke="#e74c3c" stroke-width="1"/>
<text x="1023.82" y="704" font-size="11" fill="#555555" text-anchor="middle">02-03</text>
<text x="1023.82" y="720" font-size="11" fill="#555555" text-anchor="middle">12:00</text>
<line x1="1098.53" y1="451.37" x2="1098.53" y2="483.66" stroke="#2ecc71" stroke-width="2"/>
<rect x="1076.86" y="468.30" width="43.33" height="5.41" fill="#2ecc71" stroke="#2ecc71" stroke-width="1"/>
<text x="1098.53" y="704" font-size="11" fill="#555555" text-anchor="middle">02-03</text>
<text x="1098.53" y="720" font-size="11" fill="#555555" text-anchor="middle">16:00</text>
<line x1="1173.24" y1="391.68" x2="1173.24" y2="470.57" stroke="#2ecc71" stroke-width="2"/>
<rect x="1151.57" y="412.10" width="43.33" height="56.03" fill="#2ecc71" stroke="#2ecc71" stroke-width="1"/>
<text x="1173.24" y="704" font-size="11" fill="#555555" text-anchor="middle">02-03</text>
<text x="1173.24" y="720" font-size="11" fill="#555555" text-anchor="middle">20:00</text>
<line x1="1247.94" y1="70.00" x2="1247.94" y2="500.77" stroke="#e74c3c" stroke-width="2"/>
<rect x="1226.28" y="412.28" width="43.33" height="14.14" fill="#e74c3c" stroke="#e74c3c" stroke-width="1"/>
<text x="1247.94" y="704" font-size="11" fill="#555555" text-anchor="middle">02-04</text>
<text x="1247.94" y="720" font-size="11" fill="#555555" text-anchor="middle">00:00</text>
<line x1="1322.65" y1="353.45" x2="1322.65" y2="491.69" stroke="#e74c3c" stroke-width="2"/>
<rect x="1300.98" y="426.94" width="43.33" height="58.47" fill="#e74c3c" stroke="#e74c3c" stroke-width="1"/>
<text x="1322.65" y="704" font-size="11" fill="#555555" text-anchor="middle">02-04</text>
<text x="1322.65" y="720" font-size="11" fill="#555555" text-anchor="middle">04:00</text>
<line x1="725.00" y1="241.57" x2="805.00" y2="171.57" stroke="#f1c40f" stroke-width="2"/>
<rect x="805.00" y="123.57" width="220" height="72" rx="8" fill="#fff8dc" stroke="#f1c40f"/>
<text x="815.00" y="147.57" font-size="12" fill="#111111">目标K线 2026-02-02 20:00</text>
<text x="815.00" y="165.57" font-size="12" fill="#111111">振幅 29.09%</text>
<text x="815.00" y="183.57" font-size="12" fill="#111111">倍数 12.13x</text>
<line x1="650.29" y1="563.95" x2="620.29" y2="523.95" stroke="#3498db" stroke-width="2"/>
<rect x="400.29" y="487.95" width="220" height="58" rx="8" fill="#eef6ff" stroke="#3498db"/>
<text x="410.29" y="509.95" font-size="12" fill="#111111">前一根涨幅 1.18%</text>
<text x="410.29" y="527.95" font-size="12" fill="#111111">前一根振幅 2.40%</text>
</svg>