<svg xmlns="http://www.w3.org/2000/svg" width="1400" height="760" viewBox="0 0 1400 760">
<rect width="100%" height="100%" fill="#fcfcfc"/>
<text x="90" y="36" font-size="26" font-weight="700" fill="#111111">SOON-USDT-SWAP 4H - 10倍命中</text>
<line x1="90" y1="70.00" x2="1360" y2="70.00" stroke="#d9d9d9" stroke-dasharray="4 4" stroke-width="1"/>
<text x="12" y="74.00" font-size="12" fill="#555555">5.633720</text>
<line x1="90" y1="186.00" x2="1360" y2="186.00" stroke="#d9d9d9" stroke-dasharray="4 4" stroke-width="1"/>
<text x="12" y="190.00" font-size="12" fill="#555555">4.895574</text>
<line x1="90" y1="302.00" x2="1360" y2="302.00" stroke="#d9d9d9" stroke-dasharray="4 4" stroke-width="1"/>
<text x="12" y="306.00" font-size="12" fill="#555555">4.157428</text>
<line x1="90" y1="418.00" x2="1360" y2="418.00" stroke="#d9d9d9" stroke-dasharray="4 4" stroke-width="1"/>
<text x="12" y="422.00" font-size="12" fill="#555555">3.419282</text>
<line x1="90" y1="534.00" x2="1360" y2="534.00" stroke="#d9d9d9" stroke-dasharray="4 4" stroke-width="1"/>
<text x="12" y="538.00" font-size="12" fill="#555555">2.681136</text>
<line x1="90" y1="650.00" x2="1360" y2="650.00" stroke="#d9d9d9" stroke-dasharray="4 4" stroke-width="1"/>
<text x="12" y="654.00" font-size="12" fill="#555555">1.942990</text>
<rect x="687.65" y="70" width="74.71" height="580.00" fill="#f1c40f" opacity="0.16"/>
<rect x="612.94" y="70" width="74.71" height="580.00" fill="#3498db" opacity="0.10"/>
<line x1="127.35" y1="627.59" x2="127.35" y2="641.23" stroke="#2ecc71" stroke-width="2"/>
<rect x="105.69" y="636.95" width="43.33" height="3.22" fill="#2ecc71" stroke="#2ecc71" stroke-width="1"/>
<text x="127.35" y="704" font-size="11" fill="#555555" text-anchor="middle">11-13</text>
<text x="127.35" y="720" font-size="11" fill="#555555" text-anchor="middle">16:00</text>
<line x1="202.06" y1="628.89" x2="202.06" y2="643.34" stroke="#e74c3c" stroke-width="2"/>
<rect x="180.39" y="636.89" width="43.33" height="1.89" fill="#e74c3c" stroke="#e74c3c" stroke-width="1"/>
<text x="202.06" y="704" font-size="11" fill="#555555" text-anchor="middle">11-13</text>
<text x="202.06" y="720" font-size="11" fill="#555555" text-anchor="middle">20:00</text>
<line x1="276.76" y1="615.67" x2="276.76" y2="639.16" stroke="#2ecc71" stroke-width="2"/>
<rect x="255.10" y="634.70" width="43.33" height="4.14" fill="#2ecc71" stroke="#2ecc71" stroke-width="1"/>
<text x="276.76" y="704" font-size="11" fill="#555555" text-anchor="middle">11-14</text>
<text x="276.76" y="720" font-size="11" fill="#555555" text-anchor="middle">00:00</text>
<line x1="351.47" y1="621.91" x2="351.47" y2="637.50" stroke="#2ecc71" stroke-width="2"/>
<rect x="329.81" y="627.62" width="43.33" height="7.03" fill="#2ecc71" stroke="#2ecc71" stroke-width="1"/>
<text x="351.47" y="704" font-size="11" fill="#555555" text-anchor="middle">11-14</text>
<text x="351.47" y="720" font-size="11" fill="#555555" text-anchor="middle">04:00</text>
<line x1="426.18" y1="617.52" x2="426.18" y2="644.16" stroke="#e74c3c" stroke-width="2"/>
<rect x="404.51" y="627.67" width="43.33" height="13.39" fill="#e74c3c" stroke="#e74c3c" stroke-width="1"/>
<text x="426.18" y="704" font-size="11" fill="#555555" text-anchor="middle">11-14</text>
<text x="426.18" y="720" font-size="11" fill="#555555" text-anchor="middle">08:00</text>
<line x1="500.88" y1="618.05" x2="500.88" y2="650.00" stroke="#e74c3c" stroke-width="2"/>
<rect x="479.22" y="641.06" width="43.33" height="1.20" fill="#e74c3c" stroke="#e74c3c" stroke-width="1"/>
<text x="500.88" y="704" font-size="11" fill="#555555" text-anchor="middle">11-14</text>
<text x="500.88" y="720" font-size="11" fill="#555555" text-anchor="middle">12:00</text>
<line x1="575.59" y1="630.48" x2="575.59" y2="645.99" stroke="#e74c3c" stroke-width="2"/>
<rect x="553.92" y="641.11" width="43.33" height="1.20" fill="#e74c3c" stroke="#e74c3c" stroke-width="1"/>
<text x="575.59" y="704" font-size="11" fill="#555555" text-anchor="middle">11-14</text>
<text x="575.59" y="720" font-size="11" fill="#555555" text-anchor="middle">16:00</text>
<line x1="650.29" y1="623.28" x2="650.29" y2="643.29" stroke="#2ecc71" stroke-width="2"/>
<rect x="628.63" y="634.53" width="43.33" height="7.39" fill="#2ecc71" stroke="#2ecc71" stroke-width="1"/>
<text x="650.29" y="704" font-size="11" fill="#555555" text-anchor="middle">11-14</text>
<text x="650.29" y="720" font-size="11" fill="#555555" text-anchor="middle">20:00</text>
<line x1="725.00" y1="320.20" x2="725.00" y2="637.26" stroke="#2ecc71" stroke-width="2"/>
<rect x="703.34" y="373.02" width="43.33" height="261.53" fill="#2ecc71" stroke="#2ecc71" stroke-width="1"/>
<text x="725.00" y="704" font-size="11" fill="#555555" text-anchor="middle">11-15</text>
<text x="725.00" y="720" font-size="11" fill="#555555" text-anchor="middle">00:00</text>
<line x1="799.71" y1="70.00" x2="799.71" y2="593.90" stroke="#e74c3c" stroke-width="2"/>
<rect x="778.04" y="373.00" width="43.33" height="151.87" fill="#e74c3c" stroke="#e74c3c" stroke-width="1"/>
<text x="799.71" y="704" font-size="11" fill="#555555" text-anchor="middle">11-15</text>
<text x="799.71" y="720" font-size="11" fill="#555555" text-anchor="middle">04:00</text>
<line x1="874.41" y1="488.60" x2="874.41" y2="558.54" stroke="#2ecc71" stroke-width="2"/>
<rect x="852.75" y="512.26" width="43.33" height="12.87" fill="#2ecc71" stroke="#2ecc71" stroke-width="1"/>
<text x="874.41" y="704" font-size="11" fill="#555555" text-anchor="middle">11-15</text>
<text x="874.41" y="720" font-size="11" fill="#555555" text-anchor="middle">08:00</text>
<line x1="949.12" y1="499.29" x2="949.12" y2="550.43" stroke="#e74c3c" stroke-width="2"/>
<rect x="927.45" y="512.29" width="43.33" height="27.72" fill="#e74c3c" stroke="#e74c3c" stroke-width="1"/>
<text x="949.12" y="704" font-size="11" fill="#555555" text-anchor="middle">11-15</text>
<text x="949.12" y="720" font-size="11" fill="#555555" text-anchor="middle">12:00</text>
<line x1="1023.82" y1="526.45" x2="1023.82" y2="583.84" stroke="#e74c3c" stroke-width="2"/>
<rect x="1002.16" y="540.03" width="43.33" height="28.36" fill="#e74c3c" stroke="#e74c3c" stroke-width="1"/>
<text x="1023.82" y="704" font-size="11" fill="#555555" text-anchor="middle">11-15</text>
<text x="1023.82" y="720" font-size="11" fill="#555555" text-anchor="middle">16:00</text>
<line x1="1098.53" y1="538.89" x2="1098.53" y2="585.70" stroke="#2ecc71" stroke-width="2"/>
<rect x="1076.86" y="551.73" width="43.33" height="16.65" fill="#2ecc71" stroke="#2ecc71" stroke-width="1"/>
<text x="1098.53" y="704" font-size="11" fill="#555555" text-anchor="middle">11-15</text>
<text x="1098.53" y="720" font-size="11" fill="#555555" text-anchor="middle">20:00</text>
<line x1="1173.24" y1="526.01" x2="1173.24" y2="582.04" stroke="#2ecc71" stroke-width="2"/>
<rect x="1151.57" y="546.83" width="43.33" height="4.88" fill="#2ecc71" stroke="#2ecc71" stroke-width="1"/>
<text x="1173.24" y="704" font-size="11" fill="#555555" text-anchor="middle">11-16</text>
<text x="1173.24" y="720" font-size="11" fill="#555555" text-anchor="middle">00:00</text>
<line x1="1247.94" y1="537.54" x2="1247.94" y2="570.15" stroke="#e74c3c" stroke-width="2"/>
<rect x="1226.28" y="546.78" width="43.33" height="19.66" fill="#e74c3c" stroke="#e74c3c" stroke-width="1"/>
<text x="1247.94" y="704" font-size="11" fill="#555555" text-anchor="middle">11-16</text>
<text x="1247.94" y="720" font-size="11" fill="#555555" text-anchor="middle">04:00</text>
<line x1="1322.65" y1="552.12" x2="1322.65" y2="617.42" stroke="#e74c3c" stroke-width="2"/>
<rect x="1300.98" y="566.29" width="43.33" height="47.97" fill="#e74c3c" stroke="#e74c3c" stroke-width="1"/>
<text x="1322.65" y="704" font-size="11" fill="#555555" text-anchor="middle">11-16</text>
<text x="1322.65" y="720" font-size="11" fill="#555555" text-anchor="middle">08:00</text>
<line x1="725.00" y1="320.20" x2="805.00" y2="250.20" stroke="#f1c40f" stroke-width="2"/>
<rect x="805.00" y="202.20" width="220" height="72" rx="8" fill="#fff8dc" stroke="#f1c40f"/>
<text x="815.00" y="226.20" font-size="12" fill="#111111">目标K线 2025-11-15 00:00</text>
<text x="815.00" y="244.20" font-size="12" fill="#111111">振幅 98.84%</text>
<text x="815.00" y="262.20" font-size="12" fill="#111111">倍数 15.48x</text>
<line x1="650.29" y1="623.28" x2="620.29" y2="583.28" stroke="#3498db" stroke-width="2"/>
<rect x="400.29" y="547.28" width="220" height="58" rx="8" fill="#eef6ff" stroke="#3498db"/>
<text x="410.29" y="569.28" font-size="12" fill="#111111">前一根涨幅 2.36%</text>
<text x="410.29" y="587.28" font-size="12" fill="#111111">前一根振幅 6.38%</text>
</svg>