<svg xmlns="http://www.w3.org/2000/svg" width="1400" height="760" viewBox="0 0 1400 760">
<rect width="100%" height="100%" fill="#fcfcfc"/>
<text x="90" y="36" font-size="26" font-weight="700" fill="#111111">TRB-USDT-SWAP 4H - 10倍命中</text>
<line x1="90" y1="70.00" x2="1360" y2="70.00" stroke="#d9d9d9" stroke-dasharray="4 4" stroke-width="1"/>
<text x="12" y="74.00" font-size="12" fill="#555555">19.370000</text>
<line x1="90" y1="186.00" x2="1360" y2="186.00" stroke="#d9d9d9" stroke-dasharray="4 4" stroke-width="1"/>
<text x="12" y="190.00" font-size="12" fill="#555555">17.432000</text>
<line x1="90" y1="302.00" x2="1360" y2="302.00" stroke="#d9d9d9" stroke-dasharray="4 4" stroke-width="1"/>
<text x="12" y="306.00" font-size="12" fill="#555555">15.494000</text>
<line x1="90" y1="418.00" x2="1360" y2="418.00" stroke="#d9d9d9" stroke-dasharray="4 4" stroke-width="1"/>
<text x="12" y="422.00" font-size="12" fill="#555555">13.556000</text>
<line x1="90" y1="534.00" x2="1360" y2="534.00" stroke="#d9d9d9" stroke-dasharray="4 4" stroke-width="1"/>
<text x="12" y="538.00" font-size="12" fill="#555555">11.618000</text>
<line x1="90" y1="650.00" x2="1360" y2="650.00" stroke="#d9d9d9" stroke-dasharray="4 4" stroke-width="1"/>
<text x="12" y="654.00" font-size="12" fill="#555555">9.680000</text>
<rect x="687.65" y="70" width="74.71" height="580.00" fill="#f1c40f" opacity="0.16"/>
<rect x="612.94" y="70" width="74.71" height="580.00" fill="#3498db" opacity="0.10"/>
<line x1="127.35" y1="536.87" x2="127.35" y2="575.78" stroke="#e74c3c" stroke-width="2"/>
<rect x="105.69" y="558.42" width="43.33" height="8.98" fill="#e74c3c" stroke="#e74c3c" stroke-width="1"/>
<text x="127.35" y="704" font-size="11" fill="#555555" text-anchor="middle">06-06</text>
<text x="127.35" y="720" font-size="11" fill="#555555" text-anchor="middle">20:00</text>
<line x1="202.06" y1="562.61" x2="202.06" y2="584.76" stroke="#e74c3c" stroke-width="2"/>
<rect x="180.39" y="568.00" width="43.33" height="7.78" fill="#e74c3c" stroke="#e74c3c" stroke-width="1"/>
<text x="202.06" y="704" font-size="11" fill="#555555" text-anchor="middle">06-07</text>
<text x="202.06" y="720" font-size="11" fill="#555555" text-anchor="middle">00:00</text>
<line x1="276.76" y1="570.99" x2="276.76" y2="583.56" stroke="#2ecc71" stroke-width="2"/>
<rect x="255.10" y="570.99" width="43.33" height="4.19" fill="#2ecc71" stroke="#2ecc71" stroke-width="1"/>
<text x="276.76" y="704" font-size="11" fill="#555555" text-anchor="middle">06-07</text>
<text x="276.76" y="720" font-size="11" fill="#555555" text-anchor="middle">04:00</text>
<line x1="351.47" y1="572.79" x2="351.47" y2="650.00" stroke="#e74c3c" stroke-width="2"/>
<rect x="329.81" y="572.79" width="43.33" height="56.26" fill="#e74c3c" stroke="#e74c3c" stroke-width="1"/>
<text x="351.47" y="704" font-size="11" fill="#555555" text-anchor="middle">06-07</text>
<text x="351.47" y="720" font-size="11" fill="#555555" text-anchor="middle">08:00</text>
<line x1="426.18" y1="626.66" x2="426.18" y2="635.04" stroke="#e74c3c" stroke-width="2"/>
<rect x="404.51" y="629.65" width="43.33" height="1.20" fill="#e74c3c" stroke="#e74c3c" stroke-width="1"/>
<text x="426.18" y="704" font-size="11" fill="#555555" text-anchor="middle">06-07</text>
<text x="426.18" y="720" font-size="11" fill="#555555" text-anchor="middle">12:00</text>
<line x1="500.88" y1="625.46" x2="500.88" y2="647.61" stroke="#e74c3c" stroke-width="2"/>
<rect x="479.22" y="630.25" width="43.33" height="7.18" fill="#e74c3c" stroke="#e74c3c" stroke-width="1"/>
<text x="500.88" y="704" font-size="11" fill="#555555" text-anchor="middle">06-07</text>
<text x="500.88" y="720" font-size="11" fill="#555555" text-anchor="middle">16:00</text>
<line x1="575.59" y1="623.66" x2="575.59" y2="641.62" stroke="#2ecc71" stroke-width="2"/>
<rect x="553.92" y="631.44" width="43.33" height="6.58" fill="#2ecc71" stroke="#2ecc71" stroke-width="1"/>
<text x="575.59" y="704" font-size="11" fill="#555555" text-anchor="middle">06-07</text>
<text x="575.59" y="720" font-size="11" fill="#555555" text-anchor="middle">20:00</text>
<line x1="650.29" y1="606.31" x2="650.29" y2="635.04" stroke="#2ecc71" stroke-width="2"/>
<rect x="628.63" y="613.49" width="43.33" height="18.56" fill="#2ecc71" stroke="#2ecc71" stroke-width="1"/>
<text x="650.29" y="704" font-size="11" fill="#555555" text-anchor="middle">06-08</text>
<text x="650.29" y="720" font-size="11" fill="#555555" text-anchor="middle">00:00</text>
<line x1="725.00" y1="70.00" x2="725.00" y2="612.29" stroke="#2ecc71" stroke-width="2"/>
<rect x="703.34" y="374.66" width="43.33" height="237.63" fill="#2ecc71" stroke="#2ecc71" stroke-width="1"/>
<text x="725.00" y="704" font-size="11" fill="#555555" text-anchor="middle">06-08</text>
<text x="725.00" y="720" font-size="11" fill="#555555" text-anchor="middle">04:00</text>
<line x1="799.71" y1="366.28" x2="799.71" y2="490.78" stroke="#e74c3c" stroke-width="2"/>
<rect x="778.04" y="374.66" width="43.33" height="106.54" fill="#e74c3c" stroke="#e74c3c" stroke-width="1"/>
<text x="799.71" y="704" font-size="11" fill="#555555" text-anchor="middle">06-08</text>
<text x="799.71" y="720" font-size="11" fill="#555555" text-anchor="middle">08:00</text>
<line x1="874.41" y1="345.93" x2="874.41" y2="498.57" stroke="#2ecc71" stroke-width="2"/>
<rect x="852.75" y="445.89" width="43.33" height="35.91" fill="#2ecc71" stroke="#2ecc71" stroke-width="1"/>
<text x="874.41" y="704" font-size="11" fill="#555555" text-anchor="middle">06-08</text>
<text x="874.41" y="720" font-size="11" fill="#555555" text-anchor="middle">12:00</text>
<line x1="949.12" y1="326.78" x2="949.12" y2="459.66" stroke="#2ecc71" stroke-width="2"/>
<rect x="927.45" y="353.12" width="43.33" height="93.97" fill="#2ecc71" stroke="#2ecc71" stroke-width="1"/>
<text x="949.12" y="704" font-size="11" fill="#555555" text-anchor="middle">06-08</text>
<text x="949.12" y="720" font-size="11" fill="#555555" text-anchor="middle">16:00</text>
<line x1="1023.82" y1="290.87" x2="1023.82" y2="436.91" stroke="#e74c3c" stroke-width="2"/>
<rect x="1002.16" y="352.52" width="43.33" height="4.79" fill="#e74c3c" stroke="#e74c3c" stroke-width="1"/>
<text x="1023.82" y="704" font-size="11" fill="#555555" text-anchor="middle">06-08</text>
<text x="1023.82" y="720" font-size="11" fill="#555555" text-anchor="middle">20:00</text>
<line x1="1098.53" y1="328.58" x2="1098.53" y2="478.21" stroke="#e74c3c" stroke-width="2"/>
<rect x="1076.86" y="357.91" width="43.33" height="110.73" fill="#e74c3c" stroke="#e74c3c" stroke-width="1"/>
<text x="1098.53" y="704" font-size="11" fill="#555555" text-anchor="middle">06-09</text>
<text x="1098.53" y="720" font-size="11" fill="#555555" text-anchor="middle">00:00</text>
<line x1="1173.24" y1="439.31" x2="1173.24" y2="509.34" stroke="#e74c3c" stroke-width="2"/>
<rect x="1151.57" y="467.44" width="43.33" height="13.17" fill="#e74c3c" stroke="#e74c3c" stroke-width="1"/>
<text x="1173.24" y="704" font-size="11" fill="#555555" text-anchor="middle">06-09</text>
<text x="1173.24" y="720" font-size="11" fill="#555555" text-anchor="middle">04:00</text>
<line x1="1247.94" y1="445.89" x2="1247.94" y2="496.77" stroke="#2ecc71" stroke-width="2"/>
<rect x="1226.28" y="459.66" width="43.33" height="20.95" fill="#2ecc71" stroke="#2ecc71" stroke-width="1"/>
<text x="1247.94" y="704" font-size="11" fill="#555555" text-anchor="middle">06-09</text>
<text x="1247.94" y="720" font-size="11" fill="#555555" text-anchor="middle">08:00</text>
<line x1="1322.65" y1="447.69" x2="1322.65" y2="482.40" stroke="#2ecc71" stroke-width="2"/>
<rect x="1300.98" y="460.26" width="43.33" height="1.20" fill="#2ecc71" stroke="#2ecc71" stroke-width="1"/>
<text x="1322.65" y="704" font-size="11" fill="#555555" text-anchor="middle">06-09</text>
<text x="1322.65" y="720" font-size="11" fill="#555555" text-anchor="middle">12:00</text>
<line x1="725.00" y1="70.00" x2="805.00" y2="90.00" stroke="#f1c40f" stroke-width="2"/>
<rect x="805.00" y="42.00" width="220" height="72" rx="8" fill="#fff8dc" stroke="#f1c40f"/>
<text x="815.00" y="66.00" font-size="12" fill="#111111">目标K线 2022-06-08 04:00</text>
<text x="815.00" y="84.00" font-size="12" fill="#111111">振幅 87.88%</text>
<text x="815.00" y="102.00" font-size="12" fill="#111111">倍数 18.27x</text>
<line x1="650.29" y1="606.31" x2="620.29" y2="566.31" stroke="#3498db" stroke-width="2"/>
<rect x="400.29" y="530.31" width="220" height="58" rx="8" fill="#eef6ff" stroke="#3498db"/>
<text x="410.29" y="552.31" font-size="12" fill="#111111">前一根涨幅 3.11%</text>
<text x="410.29" y="570.31" font-size="12" fill="#111111">前一根振幅 4.81%</text>
</svg>