<svg xmlns="http://www.w3.org/2000/svg" width="1400" height="760" viewBox="0 0 1400 760">
<rect width="100%" height="100%" fill="#fcfcfc"/>
<text x="90" y="36" font-size="26" font-weight="700" fill="#111111">WAL-USDT-SWAP 4H - 10倍命中</text>
<line x1="90" y1="70.00" x2="1360" y2="70.00" stroke="#d9d9d9" stroke-dasharray="4 4" stroke-width="1"/>
<text x="12" y="74.00" font-size="12" fill="#555555">0.111100</text>
<line x1="90" y1="186.00" x2="1360" y2="186.00" stroke="#d9d9d9" stroke-dasharray="4 4" stroke-width="1"/>
<text x="12" y="190.00" font-size="12" fill="#555555">0.102300</text>
<line x1="90" y1="302.00" x2="1360" y2="302.00" stroke="#d9d9d9" stroke-dasharray="4 4" stroke-width="1"/>
<text x="12" y="306.00" font-size="12" fill="#555555">0.093500</text>
<line x1="90" y1="418.00" x2="1360" y2="418.00" stroke="#d9d9d9" stroke-dasharray="4 4" stroke-width="1"/>
<text x="12" y="422.00" font-size="12" fill="#555555">0.084700</text>
<line x1="90" y1="534.00" x2="1360" y2="534.00" stroke="#d9d9d9" stroke-dasharray="4 4" stroke-width="1"/>
<text x="12" y="538.00" font-size="12" fill="#555555">0.075900</text>
<line x1="90" y1="650.00" x2="1360" y2="650.00" stroke="#d9d9d9" stroke-dasharray="4 4" stroke-width="1"/>
<text x="12" y="654.00" font-size="12" fill="#555555">0.067100</text>
<rect x="687.65" y="70" width="74.71" height="580.00" fill="#f1c40f" opacity="0.16"/>
<rect x="612.94" y="70" width="74.71" height="580.00" fill="#3498db" opacity="0.10"/>
<line x1="127.35" y1="634.71" x2="127.35" y2="644.99" stroke="#2ecc71" stroke-width="2"/>
<rect x="105.69" y="637.08" width="43.33" height="7.91" fill="#2ecc71" stroke="#2ecc71" stroke-width="1"/>
<text x="127.35" y="704" font-size="11" fill="#555555" text-anchor="middle">04-15</text>
<text x="127.35" y="720" font-size="11" fill="#555555" text-anchor="middle">08:00</text>
<line x1="202.06" y1="634.45" x2="202.06" y2="650.00" stroke="#e74c3c" stroke-width="2"/>
<rect x="180.39" y="637.74" width="43.33" height="11.86" fill="#e74c3c" stroke="#e74c3c" stroke-width="1"/>
<text x="202.06" y="704" font-size="11" fill="#555555" text-anchor="middle">04-15</text>
<text x="202.06" y="720" font-size="11" fill="#555555" text-anchor="middle">12:00</text>
<line x1="276.76" y1="636.16" x2="276.76" y2="649.34" stroke="#2ecc71" stroke-width="2"/>
<rect x="255.10" y="638.53" width="43.33" height="10.28" fill="#2ecc71" stroke="#2ecc71" stroke-width="1"/>
<text x="276.76" y="704" font-size="11" fill="#555555" text-anchor="middle">04-15</text>
<text x="276.76" y="720" font-size="11" fill="#555555" text-anchor="middle">16:00</text>
<line x1="351.47" y1="628.78" x2="351.47" y2="640.64" stroke="#e74c3c" stroke-width="2"/>
<rect x="329.81" y="638.14" width="43.33" height="2.11" fill="#e74c3c" stroke="#e74c3c" stroke-width="1"/>
<text x="351.47" y="704" font-size="11" fill="#555555" text-anchor="middle">04-15</text>
<text x="351.47" y="720" font-size="11" fill="#555555" text-anchor="middle">20:00</text>
<line x1="426.18" y1="616.91" x2="426.18" y2="641.70" stroke="#2ecc71" stroke-width="2"/>
<rect x="404.51" y="620.08" width="43.33" height="19.64" fill="#2ecc71" stroke="#2ecc71" stroke-width="1"/>
<text x="426.18" y="704" font-size="11" fill="#555555" text-anchor="middle">04-16</text>
<text x="426.18" y="720" font-size="11" fill="#555555" text-anchor="middle">00:00</text>
<line x1="500.88" y1="615.07" x2="500.88" y2="627.46" stroke="#e74c3c" stroke-width="2"/>
<rect x="479.22" y="619.68" width="43.33" height="4.75" fill="#e74c3c" stroke="#e74c3c" stroke-width="1"/>
<text x="500.88" y="704" font-size="11" fill="#555555" text-anchor="middle">04-16</text>
<text x="500.88" y="720" font-size="11" fill="#555555" text-anchor="middle">04:00</text>
<line x1="575.59" y1="575.26" x2="575.59" y2="623.77" stroke="#2ecc71" stroke-width="2"/>
<rect x="553.92" y="580.66" width="43.33" height="42.45" fill="#2ecc71" stroke="#2ecc71" stroke-width="1"/>
<text x="575.59" y="704" font-size="11" fill="#555555" text-anchor="middle">04-16</text>
<text x="575.59" y="720" font-size="11" fill="#555555" text-anchor="middle">08:00</text>
<line x1="650.29" y1="547.71" x2="650.29" y2="591.87" stroke="#2ecc71" stroke-width="2"/>
<rect x="628.63" y="560.63" width="43.33" height="19.11" fill="#2ecc71" stroke="#2ecc71" stroke-width="1"/>
<text x="650.29" y="704" font-size="11" fill="#555555" text-anchor="middle">04-16</text>
<text x="650.29" y="720" font-size="11" fill="#555555" text-anchor="middle">12:00</text>
<line x1="725.00" y1="70.00" x2="725.00" y2="565.50" stroke="#2ecc71" stroke-width="2"/>
<rect x="703.34" y="452.01" width="43.33" height="108.88" fill="#2ecc71" stroke="#2ecc71" stroke-width="1"/>
<text x="725.00" y="704" font-size="11" fill="#555555" text-anchor="middle">04-16</text>
<text x="725.00" y="720" font-size="11" fill="#555555" text-anchor="middle">16:00</text>
<line x1="799.71" y1="434.35" x2="799.71" y2="498.41" stroke="#e74c3c" stroke-width="2"/>
<rect x="778.04" y="451.61" width="43.33" height="18.32" fill="#e74c3c" stroke="#e74c3c" stroke-width="1"/>
<text x="799.71" y="704" font-size="11" fill="#555555" text-anchor="middle">04-16</text>
<text x="799.71" y="720" font-size="11" fill="#555555" text-anchor="middle">20:00</text>
<line x1="874.41" y1="463.87" x2="874.41" y2="513.57" stroke="#e74c3c" stroke-width="2"/>
<rect x="852.75" y="469.94" width="43.33" height="17.40" fill="#e74c3c" stroke="#e74c3c" stroke-width="1"/>
<text x="874.41" y="704" font-size="11" fill="#555555" text-anchor="middle">04-17</text>
<text x="874.41" y="720" font-size="11" fill="#555555" text-anchor="middle">00:00</text>
<line x1="949.12" y1="486.02" x2="949.12" y2="508.16" stroke="#e74c3c" stroke-width="2"/>
<rect x="927.45" y="487.60" width="43.33" height="16.48" fill="#e74c3c" stroke="#e74c3c" stroke-width="1"/>
<text x="949.12" y="704" font-size="11" fill="#555555" text-anchor="middle">04-17</text>
<text x="949.12" y="720" font-size="11" fill="#555555" text-anchor="middle">04:00</text>
<line x1="1023.82" y1="499.46" x2="1023.82" y2="543.75" stroke="#e74c3c" stroke-width="2"/>
<rect x="1002.16" y="503.95" width="43.33" height="33.48" fill="#e74c3c" stroke="#e74c3c" stroke-width="1"/>
<text x="1023.82" y="704" font-size="11" fill="#555555" text-anchor="middle">04-17</text>
<text x="1023.82" y="720" font-size="11" fill="#555555" text-anchor="middle">08:00</text>
<line x1="1098.53" y1="521.35" x2="1098.53" y2="551.00" stroke="#e74c3c" stroke-width="2"/>
<rect x="1076.86" y="536.77" width="43.33" height="4.88" fill="#e74c3c" stroke="#e74c3c" stroke-width="1"/>
<text x="1098.53" y="704" font-size="11" fill="#555555" text-anchor="middle">04-17</text>
<text x="1098.53" y="720" font-size="11" fill="#555555" text-anchor="middle">12:00</text>
<line x1="1173.24" y1="538.61" x2="1173.24" y2="560.63" stroke="#e74c3c" stroke-width="2"/>
<rect x="1151.57" y="541.12" width="43.33" height="6.72" fill="#e74c3c" stroke="#e74c3c" stroke-width="1"/>
<text x="1173.24" y="704" font-size="11" fill="#555555" text-anchor="middle">04-17</text>
<text x="1173.24" y="720" font-size="11" fill="#555555" text-anchor="middle">16:00</text>
<line x1="1247.94" y1="531.63" x2="1247.94" y2="563.00" stroke="#e74c3c" stroke-width="2"/>
<rect x="1226.28" y="547.71" width="43.33" height="11.07" fill="#e74c3c" stroke="#e74c3c" stroke-width="1"/>
<text x="1247.94" y="704" font-size="11" fill="#555555" text-anchor="middle">04-17</text>
<text x="1247.94" y="720" font-size="11" fill="#555555" text-anchor="middle">20:00</text>
<line x1="1322.65" y1="549.95" x2="1322.65" y2="570.91" stroke="#e74c3c" stroke-width="2"/>
<rect x="1300.98" y="558.78" width="43.33" height="10.15" fill="#e74c3c" stroke="#e74c3c" stroke-width="1"/>
<text x="1322.65" y="704" font-size="11" fill="#555555" text-anchor="middle">04-18</text>
<text x="1322.65" y="720" font-size="11" fill="#555555" text-anchor="middle">00:00</text>
<line x1="725.00" y1="70.00" x2="805.00" y2="90.00" stroke="#f1c40f" stroke-width="2"/>
<rect x="805.00" y="42.00" width="220" height="72" rx="8" fill="#fff8dc" stroke="#f1c40f"/>
<text x="815.00" y="66.00" font-size="12" fill="#111111">目标K线 2026-04-16 16:00</text>
<text x="815.00" y="84.00" font-size="12" fill="#111111">振幅 50.89%</text>
<text x="815.00" y="102.00" font-size="12" fill="#111111">倍数 11.00x</text>
<line x1="650.29" y1="547.71" x2="620.29" y2="507.71" stroke="#3498db" stroke-width="2"/>
<rect x="400.29" y="471.71" width="220" height="58" rx="8" fill="#eef6ff" stroke="#3498db"/>
<text x="410.29" y="493.71" font-size="12" fill="#111111">前一根涨幅 2.00%</text>
<text x="410.29" y="511.71" font-size="12" fill="#111111">前一根振幅 4.63%</text>
</svg>