<svg xmlns="http://www.w3.org/2000/svg" width="1400" height="760" viewBox="0 0 1400 760">
<rect width="100%" height="100%" fill="#fcfcfc"/>
<text x="90" y="36" font-size="26" font-weight="700" fill="#111111">WCT-USDT-SWAP 4H - 10倍命中</text>
<line x1="90" y1="70.00" x2="1360" y2="70.00" stroke="#d9d9d9" stroke-dasharray="4 4" stroke-width="1"/>
<text x="12" y="74.00" font-size="12" fill="#555555">0.100480</text>
<line x1="90" y1="186.00" x2="1360" y2="186.00" stroke="#d9d9d9" stroke-dasharray="4 4" stroke-width="1"/>
<text x="12" y="190.00" font-size="12" fill="#555555">0.094536</text>
<line x1="90" y1="302.00" x2="1360" y2="302.00" stroke="#d9d9d9" stroke-dasharray="4 4" stroke-width="1"/>
<text x="12" y="306.00" font-size="12" fill="#555555">0.088592</text>
<line x1="90" y1="418.00" x2="1360" y2="418.00" stroke="#d9d9d9" stroke-dasharray="4 4" stroke-width="1"/>
<text x="12" y="422.00" font-size="12" fill="#555555">0.082648</text>
<line x1="90" y1="534.00" x2="1360" y2="534.00" stroke="#d9d9d9" stroke-dasharray="4 4" stroke-width="1"/>
<text x="12" y="538.00" font-size="12" fill="#555555">0.076704</text>
<line x1="90" y1="650.00" x2="1360" y2="650.00" stroke="#d9d9d9" stroke-dasharray="4 4" stroke-width="1"/>
<text x="12" y="654.00" font-size="12" fill="#555555">0.070760</text>
<rect x="687.65" y="70" width="74.71" height="580.00" fill="#f1c40f" opacity="0.16"/>
<rect x="612.94" y="70" width="74.71" height="580.00" fill="#3498db" opacity="0.10"/>
<line x1="127.35" y1="554.18" x2="127.35" y2="610.38" stroke="#2ecc71" stroke-width="2"/>
<rect x="105.69" y="564.52" width="43.33" height="42.15" fill="#2ecc71" stroke="#2ecc71" stroke-width="1"/>
<text x="127.35" y="704" font-size="11" fill="#555555" text-anchor="middle">12-29</text>
<text x="127.35" y="720" font-size="11" fill="#555555" text-anchor="middle">08:00</text>
<line x1="202.06" y1="542.08" x2="202.06" y2="576.04" stroke="#2ecc71" stroke-width="2"/>
<rect x="180.39" y="560.23" width="43.33" height="3.71" fill="#2ecc71" stroke="#2ecc71" stroke-width="1"/>
<text x="202.06" y="704" font-size="11" fill="#555555" text-anchor="middle">12-29</text>
<text x="202.06" y="720" font-size="11" fill="#555555" text-anchor="middle">12:00</text>
<line x1="276.76" y1="544.03" x2="276.76" y2="600.24" stroke="#e74c3c" stroke-width="2"/>
<rect x="255.10" y="559.84" width="43.33" height="38.06" fill="#e74c3c" stroke="#e74c3c" stroke-width="1"/>
<text x="276.76" y="704" font-size="11" fill="#555555" text-anchor="middle">12-29</text>
<text x="276.76" y="720" font-size="11" fill="#555555" text-anchor="middle">16:00</text>
<line x1="351.47" y1="589.31" x2="351.47" y2="628.14" stroke="#e74c3c" stroke-width="2"/>
<rect x="329.81" y="598.09" width="43.33" height="5.07" fill="#e74c3c" stroke="#e74c3c" stroke-width="1"/>
<text x="351.47" y="704" font-size="11" fill="#555555" text-anchor="middle">12-29</text>
<text x="351.47" y="720" font-size="11" fill="#555555" text-anchor="middle">20:00</text>
<line x1="426.18" y1="599.45" x2="426.18" y2="622.87" stroke="#e74c3c" stroke-width="2"/>
<rect x="404.51" y="603.36" width="43.33" height="9.56" fill="#e74c3c" stroke="#e74c3c" stroke-width="1"/>
<text x="426.18" y="704" font-size="11" fill="#555555" text-anchor="middle">12-30</text>
<text x="426.18" y="720" font-size="11" fill="#555555" text-anchor="middle">00:00</text>
<line x1="500.88" y1="608.43" x2="500.88" y2="624.43" stroke="#e74c3c" stroke-width="2"/>
<rect x="479.22" y="612.92" width="43.33" height="3.12" fill="#e74c3c" stroke="#e74c3c" stroke-width="1"/>
<text x="500.88" y="704" font-size="11" fill="#555555" text-anchor="middle">12-30</text>
<text x="500.88" y="720" font-size="11" fill="#555555" text-anchor="middle">04:00</text>
<line x1="575.59" y1="603.75" x2="575.59" y2="650.00" stroke="#e74c3c" stroke-width="2"/>
<rect x="553.92" y="616.04" width="43.33" height="21.27" fill="#e74c3c" stroke="#e74c3c" stroke-width="1"/>
<text x="575.59" y="704" font-size="11" fill="#555555" text-anchor="middle">12-30</text>
<text x="575.59" y="720" font-size="11" fill="#555555" text-anchor="middle">08:00</text>
<line x1="650.29" y1="617.21" x2="650.29" y2="647.07" stroke="#2ecc71" stroke-width="2"/>
<rect x="628.63" y="623.46" width="43.33" height="14.05" fill="#2ecc71" stroke="#2ecc71" stroke-width="1"/>
<text x="650.29" y="704" font-size="11" fill="#555555" text-anchor="middle">12-30</text>
<text x="650.29" y="720" font-size="11" fill="#555555" text-anchor="middle">12:00</text>
<line x1="725.00" y1="220.27" x2="725.00" y2="624.63" stroke="#2ecc71" stroke-width="2"/>
<rect x="703.34" y="246.62" width="43.33" height="377.82" fill="#2ecc71" stroke="#2ecc71" stroke-width="1"/>
<text x="725.00" y="704" font-size="11" fill="#555555" text-anchor="middle">12-30</text>
<text x="725.00" y="720" font-size="11" fill="#555555" text-anchor="middle">16:00</text>
<line x1="799.71" y1="70.00" x2="799.71" y2="307.31" stroke="#2ecc71" stroke-width="2"/>
<rect x="778.04" y="184.56" width="43.33" height="61.67" fill="#2ecc71" stroke="#2ecc71" stroke-width="1"/>
<text x="799.71" y="704" font-size="11" fill="#555555" text-anchor="middle">12-30</text>
<text x="799.71" y="720" font-size="11" fill="#555555" text-anchor="middle">20:00</text>
<line x1="874.41" y1="141.23" x2="874.41" y2="287.79" stroke="#e74c3c" stroke-width="2"/>
<rect x="852.75" y="184.56" width="43.33" height="12.49" fill="#e74c3c" stroke="#e74c3c" stroke-width="1"/>
<text x="874.41" y="704" font-size="11" fill="#555555" text-anchor="middle">12-31</text>
<text x="874.41" y="720" font-size="11" fill="#555555" text-anchor="middle">00:00</text>
<line x1="949.12" y1="116.06" x2="949.12" y2="266.33" stroke="#2ecc71" stroke-width="2"/>
<rect x="927.45" y="165.43" width="43.33" height="32.40" fill="#2ecc71" stroke="#2ecc71" stroke-width="1"/>
<text x="949.12" y="704" font-size="11" fill="#555555" text-anchor="middle">12-31</text>
<text x="949.12" y="720" font-size="11" fill="#555555" text-anchor="middle">04:00</text>
<line x1="1023.82" y1="159.58" x2="1023.82" y2="338.53" stroke="#e74c3c" stroke-width="2"/>
<rect x="1002.16" y="165.63" width="43.33" height="144.41" fill="#e74c3c" stroke="#e74c3c" stroke-width="1"/>
<text x="1023.82" y="704" font-size="11" fill="#555555" text-anchor="middle">12-31</text>
<text x="1023.82" y="720" font-size="11" fill="#555555" text-anchor="middle">08:00</text>
<line x1="1098.53" y1="258.32" x2="1098.53" y2="366.44" stroke="#e74c3c" stroke-width="2"/>
<rect x="1076.86" y="310.04" width="43.33" height="30.64" fill="#e74c3c" stroke="#e74c3c" stroke-width="1"/>
<text x="1098.53" y="704" font-size="11" fill="#555555" text-anchor="middle">12-31</text>
<text x="1098.53" y="720" font-size="11" fill="#555555" text-anchor="middle">12:00</text>
<line x1="1173.24" y1="325.07" x2="1173.24" y2="406.25" stroke="#e74c3c" stroke-width="2"/>
<rect x="1151.57" y="340.87" width="43.33" height="52.11" fill="#e74c3c" stroke="#e74c3c" stroke-width="1"/>
<text x="1173.24" y="704" font-size="11" fill="#555555" text-anchor="middle">12-31</text>
<text x="1173.24" y="720" font-size="11" fill="#555555" text-anchor="middle">16:00</text>
<line x1="1247.94" y1="391.81" x2="1247.94" y2="436.89" stroke="#e74c3c" stroke-width="2"/>
<rect x="1226.28" y="392.98" width="43.33" height="26.74" fill="#e74c3c" stroke="#e74c3c" stroke-width="1"/>
<text x="1247.94" y="704" font-size="11" fill="#555555" text-anchor="middle">12-31</text>
<text x="1247.94" y="720" font-size="11" fill="#555555" text-anchor="middle">20:00</text>
<line x1="1322.65" y1="406.45" x2="1322.65" y2="452.50" stroke="#e74c3c" stroke-width="2"/>
<rect x="1300.98" y="419.91" width="43.33" height="18.34" fill="#e74c3c" stroke="#e74c3c" stroke-width="1"/>
<text x="1322.65" y="704" font-size="11" fill="#555555" text-anchor="middle">01-01</text>
<text x="1322.65" y="720" font-size="11" fill="#555555" text-anchor="middle">00:00</text>
<line x1="725.00" y1="220.27" x2="805.00" y2="150.27" stroke="#f1c40f" stroke-width="2"/>
<rect x="805.00" y="102.27" width="220" height="72" rx="8" fill="#fff8dc" stroke="#f1c40f"/>
<text x="815.00" y="126.27" font-size="12" fill="#111111">目标K线 2025-12-30 16:00</text>
<text x="815.00" y="144.27" font-size="12" fill="#111111">振幅 28.75%</text>
<text x="815.00" y="162.27" font-size="12" fill="#111111">倍数 13.42x</text>
<line x1="650.29" y1="617.21" x2="620.29" y2="577.21" stroke="#3498db" stroke-width="2"/>
<rect x="400.29" y="541.21" width="220" height="58" rx="8" fill="#eef6ff" stroke="#3498db"/>
<text x="410.29" y="563.21" font-size="12" fill="#111111">前一根涨幅 1.01%</text>
<text x="410.29" y="581.21" font-size="12" fill="#111111">前一根振幅 2.14%</text>
</svg>