<svg xmlns="http://www.w3.org/2000/svg" width="1400" height="760" viewBox="0 0 1400 760">
<rect width="100%" height="100%" fill="#fcfcfc"/>
<text x="90" y="36" font-size="26" font-weight="700" fill="#111111">XTZ-USDT-SWAP 4H - 10倍命中</text>
<line x1="90" y1="70.00" x2="1360" y2="70.00" stroke="#d9d9d9" stroke-dasharray="4 4" stroke-width="1"/>
<text x="12" y="74.00" font-size="12" fill="#555555">0.715800</text>
<line x1="90" y1="186.00" x2="1360" y2="186.00" stroke="#d9d9d9" stroke-dasharray="4 4" stroke-width="1"/>
<text x="12" y="190.00" font-size="12" fill="#555555">0.675900</text>
<line x1="90" y1="302.00" x2="1360" y2="302.00" stroke="#d9d9d9" stroke-dasharray="4 4" stroke-width="1"/>
<text x="12" y="306.00" font-size="12" fill="#555555">0.636000</text>
<line x1="90" y1="418.00" x2="1360" y2="418.00" stroke="#d9d9d9" stroke-dasharray="4 4" stroke-width="1"/>
<text x="12" y="422.00" font-size="12" fill="#555555">0.596100</text>
<line x1="90" y1="534.00" x2="1360" y2="534.00" stroke="#d9d9d9" stroke-dasharray="4 4" stroke-width="1"/>
<text x="12" y="538.00" font-size="12" fill="#555555">0.556200</text>
<line x1="90" y1="650.00" x2="1360" y2="650.00" stroke="#d9d9d9" stroke-dasharray="4 4" stroke-width="1"/>
<text x="12" y="654.00" font-size="12" fill="#555555">0.516300</text>
<rect x="687.65" y="70" width="74.71" height="580.00" fill="#f1c40f" opacity="0.16"/>
<rect x="612.94" y="70" width="74.71" height="580.00" fill="#3498db" opacity="0.10"/>
<line x1="127.35" y1="622.38" x2="127.35" y2="643.31" stroke="#2ecc71" stroke-width="2"/>
<rect x="105.69" y="625.87" width="43.33" height="7.56" fill="#2ecc71" stroke="#2ecc71" stroke-width="1"/>
<text x="127.35" y="704" font-size="11" fill="#555555" text-anchor="middle">11-05</text>
<text x="127.35" y="720" font-size="11" fill="#555555" text-anchor="middle">12:00</text>
<line x1="202.06" y1="617.44" x2="202.06" y2="650.00" stroke="#2ecc71" stroke-width="2"/>
<rect x="180.39" y="620.06" width="43.33" height="4.36" fill="#2ecc71" stroke="#2ecc71" stroke-width="1"/>
<text x="202.06" y="704" font-size="11" fill="#555555" text-anchor="middle">11-05</text>
<text x="202.06" y="720" font-size="11" fill="#555555" text-anchor="middle">16:00</text>
<line x1="276.76" y1="594.76" x2="276.76" y2="628.20" stroke="#2ecc71" stroke-width="2"/>
<rect x="255.10" y="595.63" width="43.33" height="24.71" fill="#2ecc71" stroke="#2ecc71" stroke-width="1"/>
<text x="276.76" y="704" font-size="11" fill="#555555" text-anchor="middle">11-05</text>
<text x="276.76" y="720" font-size="11" fill="#555555" text-anchor="middle">20:00</text>
<line x1="351.47" y1="582.55" x2="351.47" y2="611.91" stroke="#2ecc71" stroke-width="2"/>
<rect x="329.81" y="586.91" width="43.33" height="7.85" fill="#2ecc71" stroke="#2ecc71" stroke-width="1"/>
<text x="351.47" y="704" font-size="11" fill="#555555" text-anchor="middle">11-06</text>
<text x="351.47" y="720" font-size="11" fill="#555555" text-anchor="middle">00:00</text>
<line x1="426.18" y1="581.97" x2="426.18" y2="602.03" stroke="#e74c3c" stroke-width="2"/>
<rect x="404.51" y="587.20" width="43.33" height="11.34" fill="#e74c3c" stroke="#e74c3c" stroke-width="1"/>
<text x="426.18" y="704" font-size="11" fill="#555555" text-anchor="middle">11-06</text>
<text x="426.18" y="720" font-size="11" fill="#555555" text-anchor="middle">04:00</text>
<line x1="500.88" y1="591.27" x2="500.88" y2="622.38" stroke="#2ecc71" stroke-width="2"/>
<rect x="479.22" y="596.80" width="43.33" height="1.45" fill="#2ecc71" stroke="#2ecc71" stroke-width="1"/>
<text x="500.88" y="704" font-size="11" fill="#555555" text-anchor="middle">11-06</text>
<text x="500.88" y="720" font-size="11" fill="#555555" text-anchor="middle">08:00</text>
<line x1="575.59" y1="588.66" x2="575.59" y2="626.74" stroke="#e74c3c" stroke-width="2"/>
<rect x="553.92" y="596.51" width="43.33" height="24.42" fill="#e74c3c" stroke="#e74c3c" stroke-width="1"/>
<text x="575.59" y="704" font-size="11" fill="#555555" text-anchor="middle">11-06</text>
<text x="575.59" y="720" font-size="11" fill="#555555" text-anchor="middle">12:00</text>
<line x1="650.29" y1="598.83" x2="650.29" y2="627.61" stroke="#2ecc71" stroke-width="2"/>
<rect x="628.63" y="601.74" width="43.33" height="18.90" fill="#2ecc71" stroke="#2ecc71" stroke-width="1"/>
<text x="650.29" y="704" font-size="11" fill="#555555" text-anchor="middle">11-06</text>
<text x="650.29" y="720" font-size="11" fill="#555555" text-anchor="middle">16:00</text>
<line x1="725.00" y1="291.82" x2="725.00" y2="617.44" stroke="#2ecc71" stroke-width="2"/>
<rect x="703.34" y="385.15" width="43.33" height="216.88" fill="#2ecc71" stroke="#2ecc71" stroke-width="1"/>
<text x="725.00" y="704" font-size="11" fill="#555555" text-anchor="middle">11-06</text>
<text x="725.00" y="720" font-size="11" fill="#555555" text-anchor="middle">20:00</text>
<line x1="799.71" y1="251.41" x2="799.71" y2="455.21" stroke="#e74c3c" stroke-width="2"/>
<rect x="778.04" y="385.15" width="43.33" height="18.03" fill="#e74c3c" stroke="#e74c3c" stroke-width="1"/>
<text x="799.71" y="704" font-size="11" fill="#555555" text-anchor="middle">11-07</text>
<text x="799.71" y="720" font-size="11" fill="#555555" text-anchor="middle">00:00</text>
<line x1="874.41" y1="382.82" x2="874.41" y2="435.15" stroke="#e74c3c" stroke-width="2"/>
<rect x="852.75" y="403.46" width="43.33" height="7.27" fill="#e74c3c" stroke="#e74c3c" stroke-width="1"/>
<text x="874.41" y="704" font-size="11" fill="#555555" text-anchor="middle">11-07</text>
<text x="874.41" y="720" font-size="11" fill="#555555" text-anchor="middle">04:00</text>
<line x1="949.12" y1="328.17" x2="949.12" y2="434.57" stroke="#2ecc71" stroke-width="2"/>
<rect x="927.45" y="347.93" width="43.33" height="62.80" fill="#2ecc71" stroke="#2ecc71" stroke-width="1"/>
<text x="949.12" y="704" font-size="11" fill="#555555" text-anchor="middle">11-07</text>
<text x="949.12" y="720" font-size="11" fill="#555555" text-anchor="middle">08:00</text>
<line x1="1023.82" y1="224.38" x2="1023.82" y2="358.40" stroke="#2ecc71" stroke-width="2"/>
<rect x="1002.16" y="262.46" width="43.33" height="85.76" fill="#2ecc71" stroke="#2ecc71" stroke-width="1"/>
<text x="1023.82" y="704" font-size="11" fill="#555555" text-anchor="middle">11-07</text>
<text x="1023.82" y="720" font-size="11" fill="#555555" text-anchor="middle">12:00</text>
<line x1="1098.53" y1="209.55" x2="1098.53" y2="329.91" stroke="#2ecc71" stroke-width="2"/>
<rect x="1076.86" y="237.17" width="43.33" height="24.71" fill="#2ecc71" stroke="#2ecc71" stroke-width="1"/>
<text x="1098.53" y="704" font-size="11" fill="#555555" text-anchor="middle">11-07</text>
<text x="1098.53" y="720" font-size="11" fill="#555555" text-anchor="middle">16:00</text>
<line x1="1173.24" y1="232.23" x2="1173.24" y2="382.53" stroke="#e74c3c" stroke-width="2"/>
<rect x="1151.57" y="238.33" width="43.33" height="28.78" fill="#e74c3c" stroke="#e74c3c" stroke-width="1"/>
<text x="1173.24" y="704" font-size="11" fill="#555555" text-anchor="middle">11-07</text>
<text x="1173.24" y="720" font-size="11" fill="#555555" text-anchor="middle">20:00</text>
<line x1="1247.94" y1="70.29" x2="1247.94" y2="273.22" stroke="#2ecc71" stroke-width="2"/>
<rect x="1226.28" y="125.82" width="43.33" height="141.58" fill="#2ecc71" stroke="#2ecc71" stroke-width="1"/>
<text x="1247.94" y="704" font-size="11" fill="#555555" text-anchor="middle">11-08</text>
<text x="1247.94" y="720" font-size="11" fill="#555555" text-anchor="middle">00:00</text>
<line x1="1322.65" y1="70.00" x2="1322.65" y2="149.66" stroke="#e74c3c" stroke-width="2"/>
<rect x="1300.98" y="126.40" width="43.33" height="1.74" fill="#e74c3c" stroke="#e74c3c" stroke-width="1"/>
<text x="1322.65" y="704" font-size="11" fill="#555555" text-anchor="middle">11-08</text>
<text x="1322.65" y="720" font-size="11" fill="#555555" text-anchor="middle">04:00</text>
<line x1="725.00" y1="291.82" x2="805.00" y2="221.82" stroke="#f1c40f" stroke-width="2"/>
<rect x="805.00" y="173.82" width="220" height="72" rx="8" fill="#fff8dc" stroke="#f1c40f"/>
<text x="815.00" y="197.82" font-size="12" fill="#111111">目标K线 2025-11-06 20:00</text>
<text x="815.00" y="215.82" font-size="12" fill="#111111">振幅 21.02%</text>
<text x="815.00" y="233.82" font-size="12" fill="#111111">倍数 11.18x</text>
<line x1="650.29" y1="598.83" x2="620.29" y2="558.83" stroke="#3498db" stroke-width="2"/>
<rect x="400.29" y="522.83" width="220" height="58" rx="8" fill="#eef6ff" stroke="#3498db"/>
<text x="410.29" y="544.83" font-size="12" fill="#111111">前一根涨幅 1.23%</text>
<text x="410.29" y="562.83" font-size="12" fill="#111111">前一根振幅 1.88%</text>
</svg>