<svg xmlns="http://www.w3.org/2000/svg" width="1400" height="760" viewBox="0 0 1400 760">
<rect width="100%" height="100%" fill="#fcfcfc"/>
<text x="90" y="36" font-size="26" font-weight="700" fill="#111111">ZETA-USDT-SWAP 4H - 10倍命中</text>
<line x1="90" y1="70.00" x2="1360" y2="70.00" stroke="#d9d9d9" stroke-dasharray="4 4" stroke-width="1"/>
<text x="12" y="74.00" font-size="12" fill="#555555">0.397800</text>
<line x1="90" y1="186.00" x2="1360" y2="186.00" stroke="#d9d9d9" stroke-dasharray="4 4" stroke-width="1"/>
<text x="12" y="190.00" font-size="12" fill="#555555">0.359880</text>
<line x1="90" y1="302.00" x2="1360" y2="302.00" stroke="#d9d9d9" stroke-dasharray="4 4" stroke-width="1"/>
<text x="12" y="306.00" font-size="12" fill="#555555">0.321960</text>
<line x1="90" y1="418.00" x2="1360" y2="418.00" stroke="#d9d9d9" stroke-dasharray="4 4" stroke-width="1"/>
<text x="12" y="422.00" font-size="12" fill="#555555">0.284040</text>
<line x1="90" y1="534.00" x2="1360" y2="534.00" stroke="#d9d9d9" stroke-dasharray="4 4" stroke-width="1"/>
<text x="12" y="538.00" font-size="12" fill="#555555">0.246120</text>
<line x1="90" y1="650.00" x2="1360" y2="650.00" stroke="#d9d9d9" stroke-dasharray="4 4" stroke-width="1"/>
<text x="12" y="654.00" font-size="12" fill="#555555">0.208200</text>
<rect x="687.65" y="70" width="74.71" height="580.00" fill="#f1c40f" opacity="0.16"/>
<rect x="612.94" y="70" width="74.71" height="580.00" fill="#3498db" opacity="0.10"/>
<line x1="127.35" y1="624.92" x2="127.35" y2="640.82" stroke="#e74c3c" stroke-width="2"/>
<rect x="105.69" y="629.50" width="43.33" height="3.06" fill="#e74c3c" stroke="#e74c3c" stroke-width="1"/>
<text x="127.35" y="704" font-size="11" fill="#555555" text-anchor="middle">03-21</text>
<text x="127.35" y="720" font-size="11" fill="#555555" text-anchor="middle">00:00</text>
<line x1="202.06" y1="627.67" x2="202.06" y2="637.46" stroke="#e74c3c" stroke-width="2"/>
<rect x="180.39" y="632.87" width="43.33" height="1.20" fill="#e74c3c" stroke="#e74c3c" stroke-width="1"/>
<text x="202.06" y="704" font-size="11" fill="#555555" text-anchor="middle">03-21</text>
<text x="202.06" y="720" font-size="11" fill="#555555" text-anchor="middle">04:00</text>
<line x1="276.76" y1="622.77" x2="276.76" y2="637.15" stroke="#2ecc71" stroke-width="2"/>
<rect x="255.10" y="629.20" width="43.33" height="4.59" fill="#2ecc71" stroke="#2ecc71" stroke-width="1"/>
<text x="276.76" y="704" font-size="11" fill="#555555" text-anchor="middle">03-21</text>
<text x="276.76" y="720" font-size="11" fill="#555555" text-anchor="middle">08:00</text>
<line x1="351.47" y1="620.33" x2="351.47" y2="635.93" stroke="#e74c3c" stroke-width="2"/>
<rect x="329.81" y="629.20" width="43.33" height="5.81" fill="#e74c3c" stroke="#e74c3c" stroke-width="1"/>
<text x="351.47" y="704" font-size="11" fill="#555555" text-anchor="middle">03-21</text>
<text x="351.47" y="720" font-size="11" fill="#555555" text-anchor="middle">12:00</text>
<line x1="426.18" y1="631.03" x2="426.18" y2="648.16" stroke="#e74c3c" stroke-width="2"/>
<rect x="404.51" y="635.01" width="43.33" height="9.18" fill="#e74c3c" stroke="#e74c3c" stroke-width="1"/>
<text x="426.18" y="704" font-size="11" fill="#555555" text-anchor="middle">03-21</text>
<text x="426.18" y="720" font-size="11" fill="#555555" text-anchor="middle">16:00</text>
<line x1="500.88" y1="638.38" x2="500.88" y2="650.00" stroke="#2ecc71" stroke-width="2"/>
<rect x="479.22" y="644.19" width="43.33" height="1.20" fill="#2ecc71" stroke="#2ecc71" stroke-width="1"/>
<text x="500.88" y="704" font-size="11" fill="#555555" text-anchor="middle">03-21</text>
<text x="500.88" y="720" font-size="11" fill="#555555" text-anchor="middle">20:00</text>
<line x1="575.59" y1="624.92" x2="575.59" y2="646.64" stroke="#2ecc71" stroke-width="2"/>
<rect x="553.92" y="627.67" width="43.33" height="16.82" fill="#2ecc71" stroke="#2ecc71" stroke-width="1"/>
<text x="575.59" y="704" font-size="11" fill="#555555" text-anchor="middle">03-22</text>
<text x="575.59" y="720" font-size="11" fill="#555555" text-anchor="middle">00:00</text>
<line x1="650.29" y1="619.72" x2="650.29" y2="630.42" stroke="#2ecc71" stroke-width="2"/>
<rect x="628.63" y="619.72" width="43.33" height="8.26" fill="#2ecc71" stroke="#2ecc71" stroke-width="1"/>
<text x="650.29" y="704" font-size="11" fill="#555555" text-anchor="middle">03-22</text>
<text x="650.29" y="720" font-size="11" fill="#555555" text-anchor="middle">04:00</text>
<line x1="725.00" y1="485.73" x2="725.00" y2="621.24" stroke="#2ecc71" stroke-width="2"/>
<rect x="703.34" y="518.46" width="43.33" height="101.26" fill="#2ecc71" stroke="#2ecc71" stroke-width="1"/>
<text x="725.00" y="704" font-size="11" fill="#555555" text-anchor="middle">03-22</text>
<text x="725.00" y="720" font-size="11" fill="#555555" text-anchor="middle">08:00</text>
<line x1="799.71" y1="373.15" x2="799.71" y2="518.77" stroke="#2ecc71" stroke-width="2"/>
<rect x="778.04" y="402.83" width="43.33" height="115.33" fill="#2ecc71" stroke="#2ecc71" stroke-width="1"/>
<text x="799.71" y="704" font-size="11" fill="#555555" text-anchor="middle">03-22</text>
<text x="799.71" y="720" font-size="11" fill="#555555" text-anchor="middle">12:00</text>
<line x1="874.41" y1="380.80" x2="874.41" y2="456.36" stroke="#e74c3c" stroke-width="2"/>
<rect x="852.75" y="403.13" width="43.33" height="12.24" fill="#e74c3c" stroke="#e74c3c" stroke-width="1"/>
<text x="874.41" y="704" font-size="11" fill="#555555" text-anchor="middle">03-22</text>
<text x="874.41" y="720" font-size="11" fill="#555555" text-anchor="middle">16:00</text>
<line x1="949.12" y1="354.80" x2="949.12" y2="445.35" stroke="#2ecc71" stroke-width="2"/>
<rect x="927.45" y="379.27" width="43.33" height="36.10" fill="#2ecc71" stroke="#2ecc71" stroke-width="1"/>
<text x="949.12" y="704" font-size="11" fill="#555555" text-anchor="middle">03-22</text>
<text x="949.12" y="720" font-size="11" fill="#555555" text-anchor="middle">20:00</text>
<line x1="1023.82" y1="292.39" x2="1023.82" y2="405.89" stroke="#e74c3c" stroke-width="2"/>
<rect x="1002.16" y="379.27" width="43.33" height="16.21" fill="#e74c3c" stroke="#e74c3c" stroke-width="1"/>
<text x="1023.82" y="704" font-size="11" fill="#555555" text-anchor="middle">03-23</text>
<text x="1023.82" y="720" font-size="11" fill="#555555" text-anchor="middle">00:00</text>
<line x1="1098.53" y1="191.75" x2="1098.53" y2="420.88" stroke="#2ecc71" stroke-width="2"/>
<rect x="1076.86" y="203.38" width="43.33" height="192.11" fill="#2ecc71" stroke="#2ecc71" stroke-width="1"/>
<text x="1098.53" y="704" font-size="11" fill="#555555" text-anchor="middle">03-23</text>
<text x="1098.53" y="720" font-size="11" fill="#555555" text-anchor="middle">04:00</text>
<line x1="1173.24" y1="70.00" x2="1173.24" y2="242.23" stroke="#2ecc71" stroke-width="2"/>
<rect x="1151.57" y="175.23" width="43.33" height="28.76" fill="#2ecc71" stroke="#2ecc71" stroke-width="1"/>
<text x="1173.24" y="704" font-size="11" fill="#555555" text-anchor="middle">03-23</text>
<text x="1173.24" y="720" font-size="11" fill="#555555" text-anchor="middle">08:00</text>
<line x1="1247.94" y1="170.64" x2="1247.94" y2="302.49" stroke="#e74c3c" stroke-width="2"/>
<rect x="1226.28" y="175.23" width="43.33" height="90.55" fill="#e74c3c" stroke="#e74c3c" stroke-width="1"/>
<text x="1247.94" y="704" font-size="11" fill="#555555" text-anchor="middle">03-23</text>
<text x="1247.94" y="720" font-size="11" fill="#555555" text-anchor="middle">12:00</text>
<line x1="1322.65" y1="238.55" x2="1322.65" y2="369.48" stroke="#e74c3c" stroke-width="2"/>
<rect x="1300.98" y="265.78" width="43.33" height="88.10" fill="#e74c3c" stroke="#e74c3c" stroke-width="1"/>
<text x="1322.65" y="704" font-size="11" fill="#555555" text-anchor="middle">03-23</text>
<text x="1322.65" y="720" font-size="11" fill="#555555" text-anchor="middle">16:00</text>
<line x1="725.00" y1="485.73" x2="805.00" y2="415.73" stroke="#f1c40f" stroke-width="2"/>
<rect x="805.00" y="367.73" width="220" height="72" rx="8" fill="#fff8dc" stroke="#f1c40f"/>
<text x="815.00" y="391.73" font-size="12" fill="#111111">目标K线 2025-03-22 08:00</text>
<text x="815.00" y="409.73" font-size="12" fill="#111111">振幅 20.31%</text>
<text x="815.00" y="427.73" font-size="12" fill="#111111">倍数 12.50x</text>
<line x1="650.29" y1="619.72" x2="620.29" y2="579.72" stroke="#3498db" stroke-width="2"/>
<rect x="400.29" y="543.72" width="220" height="58" rx="8" fill="#eef6ff" stroke="#3498db"/>
<text x="410.29" y="565.72" font-size="12" fill="#111111">前一根涨幅 1.25%</text>
<text x="410.29" y="583.72" font-size="12" fill="#111111">前一根振幅 1.62%</text>
</svg>