<svg xmlns="http://www.w3.org/2000/svg" width="1400" height="760" viewBox="0 0 1400 760">
<rect width="100%" height="100%" fill="#fcfcfc"/>
<text x="90" y="36" font-size="26" font-weight="700" fill="#111111">AIOT_USDT 1H - 10倍命中</text>
<line x1="90" y1="70.00" x2="1360" y2="70.00" stroke="#d9d9d9" stroke-dasharray="4 4" stroke-width="1"/>
<text x="12" y="74.00" font-size="12" fill="#555555">0.162520</text>
<line x1="90" y1="186.00" x2="1360" y2="186.00" stroke="#d9d9d9" stroke-dasharray="4 4" stroke-width="1"/>
<text x="12" y="190.00" font-size="12" fill="#555555">0.156440</text>
<line x1="90" y1="302.00" x2="1360" y2="302.00" stroke="#d9d9d9" stroke-dasharray="4 4" stroke-width="1"/>
<text x="12" y="306.00" font-size="12" fill="#555555">0.150360</text>
<line x1="90" y1="418.00" x2="1360" y2="418.00" stroke="#d9d9d9" stroke-dasharray="4 4" stroke-width="1"/>
<text x="12" y="422.00" font-size="12" fill="#555555">0.144280</text>
<line x1="90" y1="534.00" x2="1360" y2="534.00" stroke="#d9d9d9" stroke-dasharray="4 4" stroke-width="1"/>
<text x="12" y="538.00" font-size="12" fill="#555555">0.138200</text>
<line x1="90" y1="650.00" x2="1360" y2="650.00" stroke="#d9d9d9" stroke-dasharray="4 4" stroke-width="1"/>
<text x="12" y="654.00" font-size="12" fill="#555555">0.132120</text>
<rect x="687.65" y="70" width="74.71" height="580.00" fill="#f1c40f" opacity="0.16"/>
<rect x="612.94" y="70" width="74.71" height="580.00" fill="#3498db" opacity="0.10"/>
<line x1="127.35" y1="584.37" x2="127.35" y2="622.91" stroke="#e74c3c" stroke-width="2"/>
<rect x="105.69" y="616.99" width="43.33" height="1.20" fill="#e74c3c" stroke="#e74c3c" stroke-width="1"/>
<text x="127.35" y="704" font-size="11" fill="#555555" text-anchor="middle">06-04</text>
<text x="127.35" y="720" font-size="11" fill="#555555" text-anchor="middle">09:00</text>
<line x1="202.06" y1="598.49" x2="202.06" y2="626.72" stroke="#e74c3c" stroke-width="2"/>
<rect x="180.39" y="612.22" width="43.33" height="3.62" fill="#e74c3c" stroke="#e74c3c" stroke-width="1"/>
<text x="202.06" y="704" font-size="11" fill="#555555" text-anchor="middle">06-04</text>
<text x="202.06" y="720" font-size="11" fill="#555555" text-anchor="middle">10:00</text>
<line x1="276.76" y1="600.97" x2="276.76" y2="609.36" stroke="#2ecc71" stroke-width="2"/>
<rect x="255.10" y="604.40" width="43.33" height="4.96" fill="#2ecc71" stroke="#2ecc71" stroke-width="1"/>
<text x="276.76" y="704" font-size="11" fill="#555555" text-anchor="middle">06-04</text>
<text x="276.76" y="720" font-size="11" fill="#555555" text-anchor="middle">11:00</text>
<line x1="351.47" y1="598.30" x2="351.47" y2="631.49" stroke="#e74c3c" stroke-width="2"/>
<rect x="329.81" y="600.97" width="43.33" height="12.78" fill="#e74c3c" stroke="#e74c3c" stroke-width="1"/>
<text x="351.47" y="704" font-size="11" fill="#555555" text-anchor="middle">06-04</text>
<text x="351.47" y="720" font-size="11" fill="#555555" text-anchor="middle">12:00</text>
<line x1="426.18" y1="594.67" x2="426.18" y2="632.83" stroke="#e74c3c" stroke-width="2"/>
<rect x="404.51" y="615.09" width="43.33" height="1.53" fill="#e74c3c" stroke="#e74c3c" stroke-width="1"/>
<text x="426.18" y="704" font-size="11" fill="#555555" text-anchor="middle">06-04</text>
<text x="426.18" y="720" font-size="11" fill="#555555" text-anchor="middle">13:00</text>
<line x1="500.88" y1="623.29" x2="500.88" y2="649.05" stroke="#e74c3c" stroke-width="2"/>
<rect x="479.22" y="624.05" width="43.33" height="20.41" fill="#e74c3c" stroke="#e74c3c" stroke-width="1"/>
<text x="500.88" y="704" font-size="11" fill="#555555" text-anchor="middle">06-04</text>
<text x="500.88" y="720" font-size="11" fill="#555555" text-anchor="middle">14:00</text>
<line x1="575.59" y1="611.84" x2="575.59" y2="650.00" stroke="#2ecc71" stroke-width="2"/>
<rect x="553.92" y="629.78" width="43.33" height="6.87" fill="#2ecc71" stroke="#2ecc71" stroke-width="1"/>
<text x="575.59" y="704" font-size="11" fill="#555555" text-anchor="middle">06-04</text>
<text x="575.59" y="720" font-size="11" fill="#555555" text-anchor="middle">15:00</text>
<line x1="650.29" y1="602.68" x2="650.29" y2="640.08" stroke="#2ecc71" stroke-width="2"/>
<rect x="628.63" y="602.68" width="43.33" height="25.57" fill="#2ecc71" stroke="#2ecc71" stroke-width="1"/>
<text x="650.29" y="704" font-size="11" fill="#555555" text-anchor="middle">06-04</text>
<text x="650.29" y="720" font-size="11" fill="#555555" text-anchor="middle">16:00</text>
<line x1="725.00" y1="196.49" x2="725.00" y2="633.59" stroke="#2ecc71" stroke-width="2"/>
<rect x="703.34" y="289.79" width="43.33" height="314.04" fill="#2ecc71" stroke="#2ecc71" stroke-width="1"/>
<text x="725.00" y="704" font-size="11" fill="#555555" text-anchor="middle">06-04</text>
<text x="725.00" y="720" font-size="11" fill="#555555" text-anchor="middle">17:00</text>
<line x1="799.71" y1="70.00" x2="799.71" y2="292.27" stroke="#2ecc71" stroke-width="2"/>
<rect x="778.04" y="162.91" width="43.33" height="129.36" fill="#2ecc71" stroke="#2ecc71" stroke-width="1"/>
<text x="799.71" y="704" font-size="11" fill="#555555" text-anchor="middle">06-04</text>
<text x="799.71" y="720" font-size="11" fill="#555555" text-anchor="middle">18:00</text>
<line x1="874.41" y1="87.74" x2="874.41" y2="267.66" stroke="#e74c3c" stroke-width="2"/>
<rect x="852.75" y="161.20" width="43.33" height="74.60" fill="#e74c3c" stroke="#e74c3c" stroke-width="1"/>
<text x="874.41" y="704" font-size="11" fill="#555555" text-anchor="middle">06-04</text>
<text x="874.41" y="720" font-size="11" fill="#555555" text-anchor="middle">19:00</text>
<line x1="949.12" y1="216.53" x2="949.12" y2="492.03" stroke="#e74c3c" stroke-width="2"/>
<rect x="927.45" y="239.42" width="43.33" height="235.05" fill="#e74c3c" stroke="#e74c3c" stroke-width="1"/>
<text x="949.12" y="704" font-size="11" fill="#555555" text-anchor="middle">06-04</text>
<text x="949.12" y="720" font-size="11" fill="#555555" text-anchor="middle">20:00</text>
<line x1="1023.82" y1="475.24" x2="1023.82" y2="558.61" stroke="#e74c3c" stroke-width="2"/>
<rect x="1002.16" y="475.24" width="43.33" height="31.48" fill="#e74c3c" stroke="#e74c3c" stroke-width="1"/>
<text x="1023.82" y="704" font-size="11" fill="#555555" text-anchor="middle">06-04</text>
<text x="1023.82" y="720" font-size="11" fill="#555555" text-anchor="middle">21:00</text>
<line x1="1098.53" y1="457.68" x2="1098.53" y2="528.85" stroke="#2ecc71" stroke-width="2"/>
<rect x="1076.86" y="467.22" width="43.33" height="41.78" fill="#2ecc71" stroke="#2ecc71" stroke-width="1"/>
<text x="1098.53" y="704" font-size="11" fill="#555555" text-anchor="middle">06-04</text>
<text x="1098.53" y="720" font-size="11" fill="#555555" text-anchor="middle">22:00</text>
<line x1="1173.24" y1="423.34" x2="1173.24" y2="473.14" stroke="#e74c3c" stroke-width="2"/>
<rect x="1151.57" y="460.55" width="43.33" height="12.59" fill="#e74c3c" stroke="#e74c3c" stroke-width="1"/>
<text x="1173.24" y="704" font-size="11" fill="#555555" text-anchor="middle">06-04</text>
<text x="1173.24" y="720" font-size="11" fill="#555555" text-anchor="middle">23:00</text>
<line x1="1247.94" y1="440.51" x2="1247.94" y2="500.42" stroke="#2ecc71" stroke-width="2"/>
<rect x="1226.28" y="451.01" width="43.33" height="16.60" fill="#2ecc71" stroke="#2ecc71" stroke-width="1"/>
<text x="1247.94" y="704" font-size="11" fill="#555555" text-anchor="middle">06-05</text>
<text x="1247.94" y="720" font-size="11" fill="#555555" text-anchor="middle">00:00</text>
<line x1="1322.65" y1="449.10" x2="1322.65" y2="505.76" stroke="#e74c3c" stroke-width="2"/>
<rect x="1300.98" y="449.10" width="43.33" height="26.14" fill="#e74c3c" stroke="#e74c3c" stroke-width="1"/>
<text x="1322.65" y="704" font-size="11" fill="#555555" text-anchor="middle">06-05</text>
<text x="1322.65" y="720" font-size="11" fill="#555555" text-anchor="middle">01:00</text>
<line x1="725.00" y1="196.49" x2="805.00" y2="126.49" stroke="#f1c40f" stroke-width="2"/>
<rect x="805.00" y="78.49" width="220" height="72" rx="8" fill="#fff8dc" stroke="#f1c40f"/>
<text x="815.00" y="102.49" font-size="12" fill="#111111">目标K线 2025-06-04 17:00</text>
<text x="815.00" y="120.49" font-size="12" fill="#111111">振幅 17.03%</text>
<text x="815.00" y="138.49" font-size="12" fill="#111111">倍数 11.58x</text>
<line x1="650.29" y1="602.68" x2="620.29" y2="562.68" stroke="#3498db" stroke-width="2"/>
<rect x="400.29" y="526.68" width="220" height="58" rx="8" fill="#eef6ff" stroke="#3498db"/>
<text x="410.29" y="548.68" font-size="12" fill="#111111">前一根涨幅 1.01%</text>
<text x="410.29" y="566.68" font-size="12" fill="#111111">前一根振幅 1.47%</text>
</svg>