<svg xmlns="http://www.w3.org/2000/svg" width="1400" height="760" viewBox="0 0 1400 760">
<rect width="100%" height="100%" fill="#fcfcfc"/>
<text x="90" y="36" font-size="26" font-weight="700" fill="#111111">ALICE_USDT 1H - 10倍命中</text>
<line x1="90" y1="70.00" x2="1360" y2="70.00" stroke="#d9d9d9" stroke-dasharray="4 4" stroke-width="1"/>
<text x="12" y="74.00" font-size="12" fill="#555555">0.524000</text>
<line x1="90" y1="186.00" x2="1360" y2="186.00" stroke="#d9d9d9" stroke-dasharray="4 4" stroke-width="1"/>
<text x="12" y="190.00" font-size="12" fill="#555555">0.496460</text>
<line x1="90" y1="302.00" x2="1360" y2="302.00" stroke="#d9d9d9" stroke-dasharray="4 4" stroke-width="1"/>
<text x="12" y="306.00" font-size="12" fill="#555555">0.468920</text>
<line x1="90" y1="418.00" x2="1360" y2="418.00" stroke="#d9d9d9" stroke-dasharray="4 4" stroke-width="1"/>
<text x="12" y="422.00" font-size="12" fill="#555555">0.441380</text>
<line x1="90" y1="534.00" x2="1360" y2="534.00" stroke="#d9d9d9" stroke-dasharray="4 4" stroke-width="1"/>
<text x="12" y="538.00" font-size="12" fill="#555555">0.413840</text>
<line x1="90" y1="650.00" x2="1360" y2="650.00" stroke="#d9d9d9" stroke-dasharray="4 4" stroke-width="1"/>
<text x="12" y="654.00" font-size="12" fill="#555555">0.386300</text>
<rect x="687.65" y="70" width="74.71" height="580.00" fill="#f1c40f" opacity="0.16"/>
<rect x="612.94" y="70" width="74.71" height="580.00" fill="#3498db" opacity="0.10"/>
<line x1="127.35" y1="629.36" x2="127.35" y2="650.00" stroke="#2ecc71" stroke-width="2"/>
<rect x="105.69" y="629.36" width="43.33" height="7.58" fill="#2ecc71" stroke="#2ecc71" stroke-width="1"/>
<text x="127.35" y="704" font-size="11" fill="#555555" text-anchor="middle">04-14</text>
<text x="127.35" y="720" font-size="11" fill="#555555" text-anchor="middle">15:00</text>
<line x1="202.06" y1="623.46" x2="202.06" y2="640.31" stroke="#2ecc71" stroke-width="2"/>
<rect x="180.39" y="624.31" width="43.33" height="4.21" fill="#2ecc71" stroke="#2ecc71" stroke-width="1"/>
<text x="202.06" y="704" font-size="11" fill="#555555" text-anchor="middle">04-14</text>
<text x="202.06" y="720" font-size="11" fill="#555555" text-anchor="middle">16:00</text>
<line x1="276.76" y1="617.99" x2="276.76" y2="633.15" stroke="#e74c3c" stroke-width="2"/>
<rect x="255.10" y="623.89" width="43.33" height="9.27" fill="#e74c3c" stroke="#e74c3c" stroke-width="1"/>
<text x="276.76" y="704" font-size="11" fill="#555555" text-anchor="middle">04-14</text>
<text x="276.76" y="720" font-size="11" fill="#555555" text-anchor="middle">17:00</text>
<line x1="351.47" y1="609.56" x2="351.47" y2="624.73" stroke="#2ecc71" stroke-width="2"/>
<rect x="329.81" y="611.25" width="43.33" height="12.21" fill="#2ecc71" stroke="#2ecc71" stroke-width="1"/>
<text x="351.47" y="704" font-size="11" fill="#555555" text-anchor="middle">04-14</text>
<text x="351.47" y="720" font-size="11" fill="#555555" text-anchor="middle">18:00</text>
<line x1="426.18" y1="593.56" x2="426.18" y2="607.88" stroke="#e74c3c" stroke-width="2"/>
<rect x="404.51" y="593.56" width="43.33" height="14.32" fill="#e74c3c" stroke="#e74c3c" stroke-width="1"/>
<text x="426.18" y="704" font-size="11" fill="#555555" text-anchor="middle">04-14</text>
<text x="426.18" y="720" font-size="11" fill="#555555" text-anchor="middle">19:00</text>
<line x1="500.88" y1="598.19" x2="500.88" y2="607.88" stroke="#e74c3c" stroke-width="2"/>
<rect x="479.22" y="599.46" width="43.33" height="8.42" fill="#e74c3c" stroke="#e74c3c" stroke-width="1"/>
<text x="500.88" y="704" font-size="11" fill="#555555" text-anchor="middle">04-14</text>
<text x="500.88" y="720" font-size="11" fill="#555555" text-anchor="middle">20:00</text>
<line x1="575.59" y1="604.09" x2="575.59" y2="633.15" stroke="#e74c3c" stroke-width="2"/>
<rect x="553.92" y="604.09" width="43.33" height="29.06" fill="#e74c3c" stroke="#e74c3c" stroke-width="1"/>
<text x="575.59" y="704" font-size="11" fill="#555555" text-anchor="middle">04-14</text>
<text x="575.59" y="720" font-size="11" fill="#555555" text-anchor="middle">21:00</text>
<line x1="650.29" y1="604.93" x2="650.29" y2="632.73" stroke="#2ecc71" stroke-width="2"/>
<rect x="628.63" y="608.30" width="43.33" height="19.80" fill="#2ecc71" stroke="#2ecc71" stroke-width="1"/>
<text x="650.29" y="704" font-size="11" fill="#555555" text-anchor="middle">04-14</text>
<text x="650.29" y="720" font-size="11" fill="#555555" text-anchor="middle">22:00</text>
<line x1="725.00" y1="114.23" x2="725.00" y2="606.19" stroke="#2ecc71" stroke-width="2"/>
<rect x="703.34" y="174.46" width="43.33" height="431.74" fill="#2ecc71" stroke="#2ecc71" stroke-width="1"/>
<text x="725.00" y="704" font-size="11" fill="#555555" text-anchor="middle">04-14</text>
<text x="725.00" y="720" font-size="11" fill="#555555" text-anchor="middle">23:00</text>
<line x1="799.71" y1="70.00" x2="799.71" y2="301.24" stroke="#e74c3c" stroke-width="2"/>
<rect x="778.04" y="169.83" width="43.33" height="124.68" fill="#e74c3c" stroke="#e74c3c" stroke-width="1"/>
<text x="799.71" y="704" font-size="11" fill="#555555" text-anchor="middle">04-15</text>
<text x="799.71" y="720" font-size="11" fill="#555555" text-anchor="middle">00:00</text>
<line x1="874.41" y1="287.34" x2="874.41" y2="472.25" stroke="#e74c3c" stroke-width="2"/>
<rect x="852.75" y="297.45" width="43.33" height="57.71" fill="#e74c3c" stroke="#e74c3c" stroke-width="1"/>
<text x="874.41" y="704" font-size="11" fill="#555555" text-anchor="middle">04-15</text>
<text x="874.41" y="720" font-size="11" fill="#555555" text-anchor="middle">01:00</text>
<line x1="949.12" y1="321.88" x2="949.12" y2="416.65" stroke="#e74c3c" stroke-width="2"/>
<rect x="927.45" y="354.73" width="43.33" height="17.69" fill="#e74c3c" stroke="#e74c3c" stroke-width="1"/>
<text x="949.12" y="704" font-size="11" fill="#555555" text-anchor="middle">04-15</text>
<text x="949.12" y="720" font-size="11" fill="#555555" text-anchor="middle">02:00</text>
<line x1="1023.82" y1="339.99" x2="1023.82" y2="399.80" stroke="#e74c3c" stroke-width="2"/>
<rect x="1002.16" y="371.16" width="43.33" height="5.05" fill="#e74c3c" stroke="#e74c3c" stroke-width="1"/>
<text x="1023.82" y="704" font-size="11" fill="#555555" text-anchor="middle">04-15</text>
<text x="1023.82" y="720" font-size="11" fill="#555555" text-anchor="middle">03:00</text>
<line x1="1098.53" y1="293.66" x2="1098.53" y2="404.02" stroke="#2ecc71" stroke-width="2"/>
<rect x="1076.86" y="327.36" width="43.33" height="48.86" fill="#2ecc71" stroke="#2ecc71" stroke-width="1"/>
<text x="1098.53" y="704" font-size="11" fill="#555555" text-anchor="middle">04-15</text>
<text x="1098.53" y="720" font-size="11" fill="#555555" text-anchor="middle">04:00</text>
<line x1="1173.24" y1="309.24" x2="1173.24" y2="351.79" stroke="#e74c3c" stroke-width="2"/>
<rect x="1151.57" y="327.36" width="43.33" height="16.85" fill="#e74c3c" stroke="#e74c3c" stroke-width="1"/>
<text x="1173.24" y="704" font-size="11" fill="#555555" text-anchor="middle">04-15</text>
<text x="1173.24" y="720" font-size="11" fill="#555555" text-anchor="middle">05:00</text>
<line x1="1247.94" y1="308.82" x2="1247.94" y2="377.90" stroke="#2ecc71" stroke-width="2"/>
<rect x="1226.28" y="326.51" width="43.33" height="18.11" fill="#2ecc71" stroke="#2ecc71" stroke-width="1"/>
<text x="1247.94" y="704" font-size="11" fill="#555555" text-anchor="middle">04-15</text>
<text x="1247.94" y="720" font-size="11" fill="#555555" text-anchor="middle">06:00</text>
<line x1="1322.65" y1="283.55" x2="1322.65" y2="367.79" stroke="#e74c3c" stroke-width="2"/>
<rect x="1300.98" y="323.99" width="43.33" height="34.96" fill="#e74c3c" stroke="#e74c3c" stroke-width="1"/>
<text x="1322.65" y="704" font-size="11" fill="#555555" text-anchor="middle">04-15</text>
<text x="1322.65" y="720" font-size="11" fill="#555555" text-anchor="middle">07:00</text>
<line x1="725.00" y1="114.23" x2="805.00" y2="90.00" stroke="#f1c40f" stroke-width="2"/>
<rect x="805.00" y="42.00" width="220" height="72" rx="8" fill="#fff8dc" stroke="#f1c40f"/>
<text x="815.00" y="66.00" font-size="12" fill="#111111">目标K线 2025-04-14 23:00</text>
<text x="815.00" y="84.00" font-size="12" fill="#111111">振幅 29.44%</text>
<text x="815.00" y="102.00" font-size="12" fill="#111111">倍数 17.46x</text>
<line x1="650.29" y1="604.93" x2="620.29" y2="564.93" stroke="#3498db" stroke-width="2"/>
<rect x="400.29" y="528.93" width="220" height="58" rx="8" fill="#eef6ff" stroke="#3498db"/>
<text x="410.29" y="550.93" font-size="12" fill="#111111">前一根涨幅 1.20%</text>
<text x="410.29" y="568.93" font-size="12" fill="#111111">前一根振幅 1.69%</text>
</svg>