<svg xmlns="http://www.w3.org/2000/svg" width="1400" height="760" viewBox="0 0 1400 760">
<rect width="100%" height="100%" fill="#fcfcfc"/>
<text x="90" y="36" font-size="26" font-weight="700" fill="#111111">ALT_USDT 1H - 10倍命中</text>
<line x1="90" y1="70.00" x2="1360" y2="70.00" stroke="#d9d9d9" stroke-dasharray="4 4" stroke-width="1"/>
<text x="12" y="74.00" font-size="12" fill="#555555">0.053140</text>
<line x1="90" y1="186.00" x2="1360" y2="186.00" stroke="#d9d9d9" stroke-dasharray="4 4" stroke-width="1"/>
<text x="12" y="190.00" font-size="12" fill="#555555">0.047494</text>
<line x1="90" y1="302.00" x2="1360" y2="302.00" stroke="#d9d9d9" stroke-dasharray="4 4" stroke-width="1"/>
<text x="12" y="306.00" font-size="12" fill="#555555">0.041848</text>
<line x1="90" y1="418.00" x2="1360" y2="418.00" stroke="#d9d9d9" stroke-dasharray="4 4" stroke-width="1"/>
<text x="12" y="422.00" font-size="12" fill="#555555">0.036202</text>
<line x1="90" y1="534.00" x2="1360" y2="534.00" stroke="#d9d9d9" stroke-dasharray="4 4" stroke-width="1"/>
<text x="12" y="538.00" font-size="12" fill="#555555">0.030556</text>
<line x1="90" y1="650.00" x2="1360" y2="650.00" stroke="#d9d9d9" stroke-dasharray="4 4" stroke-width="1"/>
<text x="12" y="654.00" font-size="12" fill="#555555">0.024910</text>
<rect x="687.65" y="70" width="74.71" height="580.00" fill="#f1c40f" opacity="0.16"/>
<rect x="612.94" y="70" width="74.71" height="580.00" fill="#3498db" opacity="0.10"/>
<line x1="127.35" y1="642.19" x2="127.35" y2="650.00" stroke="#2ecc71" stroke-width="2"/>
<rect x="105.69" y="642.19" width="43.33" height="7.40" fill="#2ecc71" stroke="#2ecc71" stroke-width="1"/>
<text x="127.35" y="704" font-size="11" fill="#555555" text-anchor="middle">06-16</text>
<text x="127.35" y="720" font-size="11" fill="#555555" text-anchor="middle">09:00</text>
<line x1="202.06" y1="638.29" x2="202.06" y2="641.37" stroke="#e74c3c" stroke-width="2"/>
<rect x="180.39" y="638.49" width="43.33" height="2.88" fill="#e74c3c" stroke="#e74c3c" stroke-width="1"/>
<text x="202.06" y="704" font-size="11" fill="#555555" text-anchor="middle">06-16</text>
<text x="202.06" y="720" font-size="11" fill="#555555" text-anchor="middle">10:00</text>
<line x1="276.76" y1="641.99" x2="276.76" y2="643.43" stroke="#e74c3c" stroke-width="2"/>
<rect x="255.10" y="641.99" width="43.33" height="1.44" fill="#e74c3c" stroke="#e74c3c" stroke-width="1"/>
<text x="276.76" y="704" font-size="11" fill="#555555" text-anchor="middle">06-16</text>
<text x="276.76" y="720" font-size="11" fill="#555555" text-anchor="middle">11:00</text>
<line x1="351.47" y1="639.11" x2="351.47" y2="643.63" stroke="#2ecc71" stroke-width="2"/>
<rect x="329.81" y="640.96" width="43.33" height="2.67" fill="#2ecc71" stroke="#2ecc71" stroke-width="1"/>
<text x="351.47" y="704" font-size="11" fill="#555555" text-anchor="middle">06-16</text>
<text x="351.47" y="720" font-size="11" fill="#555555" text-anchor="middle">12:00</text>
<line x1="426.18" y1="635.00" x2="426.18" y2="641.99" stroke="#2ecc71" stroke-width="2"/>
<rect x="404.51" y="635.00" width="43.33" height="5.96" fill="#2ecc71" stroke="#2ecc71" stroke-width="1"/>
<text x="426.18" y="704" font-size="11" fill="#555555" text-anchor="middle">06-16</text>
<text x="426.18" y="720" font-size="11" fill="#555555" text-anchor="middle">13:00</text>
<line x1="500.88" y1="631.30" x2="500.88" y2="633.36" stroke="#2ecc71" stroke-width="2"/>
<rect x="479.22" y="631.30" width="43.33" height="2.05" fill="#2ecc71" stroke="#2ecc71" stroke-width="1"/>
<text x="500.88" y="704" font-size="11" fill="#555555" text-anchor="middle">06-16</text>
<text x="500.88" y="720" font-size="11" fill="#555555" text-anchor="middle">14:00</text>
<line x1="575.59" y1="626.58" x2="575.59" y2="630.28" stroke="#2ecc71" stroke-width="2"/>
<rect x="553.92" y="626.58" width="43.33" height="3.70" fill="#2ecc71" stroke="#2ecc71" stroke-width="1"/>
<text x="575.59" y="704" font-size="11" fill="#555555" text-anchor="middle">06-16</text>
<text x="575.59" y="720" font-size="11" fill="#555555" text-anchor="middle">15:00</text>
<line x1="650.29" y1="617.54" x2="650.29" y2="627.61" stroke="#2ecc71" stroke-width="2"/>
<rect x="628.63" y="620.21" width="43.33" height="7.40" fill="#2ecc71" stroke="#2ecc71" stroke-width="1"/>
<text x="650.29" y="704" font-size="11" fill="#555555" text-anchor="middle">06-16</text>
<text x="650.29" y="720" font-size="11" fill="#555555" text-anchor="middle">16:00</text>
<line x1="725.00" y1="70.00" x2="725.00" y2="617.54" stroke="#2ecc71" stroke-width="2"/>
<rect x="703.34" y="232.10" width="43.33" height="385.43" fill="#2ecc71" stroke="#2ecc71" stroke-width="1"/>
<text x="725.00" y="704" font-size="11" fill="#555555" text-anchor="middle">06-16</text>
<text x="725.00" y="720" font-size="11" fill="#555555" text-anchor="middle">17:00</text>
<line x1="799.71" y1="232.72" x2="799.71" y2="373.05" stroke="#e74c3c" stroke-width="2"/>
<rect x="778.04" y="233.13" width="43.33" height="114.44" fill="#e74c3c" stroke="#e74c3c" stroke-width="1"/>
<text x="799.71" y="704" font-size="11" fill="#555555" text-anchor="middle">06-16</text>
<text x="799.71" y="720" font-size="11" fill="#555555" text-anchor="middle">18:00</text>
<line x1="874.41" y1="311.62" x2="874.41" y2="360.51" stroke="#2ecc71" stroke-width="2"/>
<rect x="852.75" y="335.24" width="43.33" height="13.35" fill="#2ecc71" stroke="#2ecc71" stroke-width="1"/>
<text x="874.41" y="704" font-size="11" fill="#555555" text-anchor="middle">06-16</text>
<text x="874.41" y="720" font-size="11" fill="#555555" text-anchor="middle">19:00</text>
<line x1="949.12" y1="335.86" x2="949.12" y2="405.92" stroke="#e74c3c" stroke-width="2"/>
<rect x="927.45" y="335.86" width="43.33" height="57.32" fill="#e74c3c" stroke="#e74c3c" stroke-width="1"/>
<text x="949.12" y="704" font-size="11" fill="#555555" text-anchor="middle">06-16</text>
<text x="949.12" y="720" font-size="11" fill="#555555" text-anchor="middle">20:00</text>
<line x1="1023.82" y1="381.88" x2="1023.82" y2="413.11" stroke="#e74c3c" stroke-width="2"/>
<rect x="1002.16" y="392.98" width="43.33" height="1.20" fill="#e74c3c" stroke="#e74c3c" stroke-width="1"/>
<text x="1023.82" y="704" font-size="11" fill="#555555" text-anchor="middle">06-16</text>
<text x="1023.82" y="720" font-size="11" fill="#555555" text-anchor="middle">21:00</text>
<line x1="1098.53" y1="389.89" x2="1098.53" y2="421.94" stroke="#e74c3c" stroke-width="2"/>
<rect x="1076.86" y="394.41" width="43.33" height="4.93" fill="#e74c3c" stroke="#e74c3c" stroke-width="1"/>
<text x="1098.53" y="704" font-size="11" fill="#555555" text-anchor="middle">06-16</text>
<text x="1098.53" y="720" font-size="11" fill="#555555" text-anchor="middle">22:00</text>
<line x1="1173.24" y1="376.95" x2="1173.24" y2="435.50" stroke="#e74c3c" stroke-width="2"/>
<rect x="1151.57" y="400.58" width="43.33" height="30.61" fill="#e74c3c" stroke="#e74c3c" stroke-width="1"/>
<text x="1173.24" y="704" font-size="11" fill="#555555" text-anchor="middle">06-16</text>
<text x="1173.24" y="720" font-size="11" fill="#555555" text-anchor="middle">23:00</text>
<line x1="1247.94" y1="416.19" x2="1247.94" y2="439.00" stroke="#2ecc71" stroke-width="2"/>
<rect x="1226.28" y="417.84" width="43.33" height="14.18" fill="#2ecc71" stroke="#2ecc71" stroke-width="1"/>
<text x="1247.94" y="704" font-size="11" fill="#555555" text-anchor="middle">06-17</text>
<text x="1247.94" y="720" font-size="11" fill="#555555" text-anchor="middle">00:00</text>
<line x1="1322.65" y1="394.41" x2="1322.65" y2="422.36" stroke="#2ecc71" stroke-width="2"/>
<rect x="1300.98" y="408.80" width="43.33" height="9.25" fill="#2ecc71" stroke="#2ecc71" stroke-width="1"/>
<text x="1322.65" y="704" font-size="11" fill="#555555" text-anchor="middle">06-17</text>
<text x="1322.65" y="720" font-size="11" fill="#555555" text-anchor="middle">01:00</text>
<line x1="725.00" y1="70.00" x2="805.00" y2="90.00" stroke="#f1c40f" stroke-width="2"/>
<rect x="805.00" y="42.00" width="220" height="72" rx="8" fill="#fff8dc" stroke="#f1c40f"/>
<text x="815.00" y="66.00" font-size="12" fill="#111111">目标K线 2025-06-16 17:00</text>
<text x="815.00" y="84.00" font-size="12" fill="#111111">振幅 100.60%</text>
<text x="815.00" y="102.00" font-size="12" fill="#111111">倍数 53.38x</text>
<line x1="650.29" y1="617.54" x2="620.29" y2="577.54" stroke="#3498db" stroke-width="2"/>
<rect x="400.29" y="541.54" width="220" height="58" rx="8" fill="#eef6ff" stroke="#3498db"/>
<text x="410.29" y="563.54" font-size="12" fill="#111111">前一根涨幅 1.38%</text>
<text x="410.29" y="581.54" font-size="12" fill="#111111">前一根振幅 1.88%</text>
</svg>