<svg xmlns="http://www.w3.org/2000/svg" width="1400" height="760" viewBox="0 0 1400 760">
<rect width="100%" height="100%" fill="#fcfcfc"/>
<text x="90" y="36" font-size="26" font-weight="700" fill="#111111">BANANA_USDT 1H - 10倍命中</text>
<line x1="90" y1="70.00" x2="1360" y2="70.00" stroke="#d9d9d9" stroke-dasharray="4 4" stroke-width="1"/>
<text x="12" y="74.00" font-size="12" fill="#555555">19.390000</text>
<line x1="90" y1="186.00" x2="1360" y2="186.00" stroke="#d9d9d9" stroke-dasharray="4 4" stroke-width="1"/>
<text x="12" y="190.00" font-size="12" fill="#555555">17.794000</text>
<line x1="90" y1="302.00" x2="1360" y2="302.00" stroke="#d9d9d9" stroke-dasharray="4 4" stroke-width="1"/>
<text x="12" y="306.00" font-size="12" fill="#555555">16.198000</text>
<line x1="90" y1="418.00" x2="1360" y2="418.00" stroke="#d9d9d9" stroke-dasharray="4 4" stroke-width="1"/>
<text x="12" y="422.00" font-size="12" fill="#555555">14.602000</text>
<line x1="90" y1="534.00" x2="1360" y2="534.00" stroke="#d9d9d9" stroke-dasharray="4 4" stroke-width="1"/>
<text x="12" y="538.00" font-size="12" fill="#555555">13.006000</text>
<line x1="90" y1="650.00" x2="1360" y2="650.00" stroke="#d9d9d9" stroke-dasharray="4 4" stroke-width="1"/>
<text x="12" y="654.00" font-size="12" fill="#555555">11.410000</text>
<rect x="687.65" y="70" width="74.71" height="580.00" fill="#f1c40f" opacity="0.16"/>
<rect x="612.94" y="70" width="74.71" height="580.00" fill="#3498db" opacity="0.10"/>
<line x1="127.35" y1="630.38" x2="127.35" y2="642.73" stroke="#e74c3c" stroke-width="2"/>
<rect x="105.69" y="636.92" width="43.33" height="2.91" fill="#e74c3c" stroke="#e74c3c" stroke-width="1"/>
<text x="127.35" y="704" font-size="11" fill="#555555" text-anchor="middle">03-11</text>
<text x="127.35" y="720" font-size="11" fill="#555555" text-anchor="middle">18:00</text>
<line x1="202.06" y1="631.83" x2="202.06" y2="648.55" stroke="#2ecc71" stroke-width="2"/>
<rect x="180.39" y="636.19" width="43.33" height="4.36" fill="#2ecc71" stroke="#2ecc71" stroke-width="1"/>
<text x="202.06" y="704" font-size="11" fill="#555555" text-anchor="middle">03-11</text>
<text x="202.06" y="720" font-size="11" fill="#555555" text-anchor="middle">19:00</text>
<line x1="276.76" y1="631.83" x2="276.76" y2="641.28" stroke="#2ecc71" stroke-width="2"/>
<rect x="255.10" y="633.28" width="43.33" height="2.91" fill="#2ecc71" stroke="#2ecc71" stroke-width="1"/>
<text x="276.76" y="704" font-size="11" fill="#555555" text-anchor="middle">03-11</text>
<text x="276.76" y="720" font-size="11" fill="#555555" text-anchor="middle">20:00</text>
<line x1="351.47" y1="602.76" x2="351.47" y2="645.64" stroke="#2ecc71" stroke-width="2"/>
<rect x="329.81" y="618.02" width="43.33" height="14.54" fill="#2ecc71" stroke="#2ecc71" stroke-width="1"/>
<text x="351.47" y="704" font-size="11" fill="#555555" text-anchor="middle">03-11</text>
<text x="351.47" y="720" font-size="11" fill="#555555" text-anchor="middle">21:00</text>
<line x1="426.18" y1="612.21" x2="426.18" y2="650.00" stroke="#e74c3c" stroke-width="2"/>
<rect x="404.51" y="619.47" width="43.33" height="21.08" fill="#e74c3c" stroke="#e74c3c" stroke-width="1"/>
<text x="426.18" y="704" font-size="11" fill="#555555" text-anchor="middle">03-11</text>
<text x="426.18" y="720" font-size="11" fill="#555555" text-anchor="middle">22:00</text>
<line x1="500.88" y1="608.57" x2="500.88" y2="640.55" stroke="#2ecc71" stroke-width="2"/>
<rect x="479.22" y="611.48" width="43.33" height="29.07" fill="#2ecc71" stroke="#2ecc71" stroke-width="1"/>
<text x="500.88" y="704" font-size="11" fill="#555555" text-anchor="middle">03-11</text>
<text x="500.88" y="720" font-size="11" fill="#555555" text-anchor="middle">23:00</text>
<line x1="575.59" y1="598.40" x2="575.59" y2="618.75" stroke="#2ecc71" stroke-width="2"/>
<rect x="553.92" y="606.39" width="43.33" height="7.99" fill="#2ecc71" stroke="#2ecc71" stroke-width="1"/>
<text x="575.59" y="704" font-size="11" fill="#555555" text-anchor="middle">03-12</text>
<text x="575.59" y="720" font-size="11" fill="#555555" text-anchor="middle">00:00</text>
<line x1="650.29" y1="592.58" x2="650.29" y2="624.56" stroke="#2ecc71" stroke-width="2"/>
<rect x="628.63" y="593.31" width="43.33" height="13.08" fill="#2ecc71" stroke="#2ecc71" stroke-width="1"/>
<text x="650.29" y="704" font-size="11" fill="#555555" text-anchor="middle">03-12</text>
<text x="650.29" y="720" font-size="11" fill="#555555" text-anchor="middle">01:00</text>
<line x1="725.00" y1="70.00" x2="725.00" y2="594.04" stroke="#2ecc71" stroke-width="2"/>
<rect x="703.34" y="150.68" width="43.33" height="442.63" fill="#2ecc71" stroke="#2ecc71" stroke-width="1"/>
<text x="725.00" y="704" font-size="11" fill="#555555" text-anchor="middle">03-12</text>
<text x="725.00" y="720" font-size="11" fill="#555555" text-anchor="middle">02:00</text>
<line x1="799.71" y1="76.54" x2="799.71" y2="217.54" stroke="#e74c3c" stroke-width="2"/>
<rect x="778.04" y="150.68" width="43.33" height="30.53" fill="#e74c3c" stroke="#e74c3c" stroke-width="1"/>
<text x="799.71" y="704" font-size="11" fill="#555555" text-anchor="middle">03-12</text>
<text x="799.71" y="720" font-size="11" fill="#555555" text-anchor="middle">03:00</text>
<line x1="874.41" y1="162.31" x2="874.41" y2="288.05" stroke="#e74c3c" stroke-width="2"/>
<rect x="852.75" y="185.56" width="43.33" height="31.98" fill="#e74c3c" stroke="#e74c3c" stroke-width="1"/>
<text x="874.41" y="704" font-size="11" fill="#555555" text-anchor="middle">03-12</text>
<text x="874.41" y="720" font-size="11" fill="#555555" text-anchor="middle">04:00</text>
<line x1="949.12" y1="184.11" x2="949.12" y2="272.78" stroke="#e74c3c" stroke-width="2"/>
<rect x="927.45" y="215.36" width="43.33" height="45.06" fill="#e74c3c" stroke="#e74c3c" stroke-width="1"/>
<text x="949.12" y="704" font-size="11" fill="#555555" text-anchor="middle">03-12</text>
<text x="949.12" y="720" font-size="11" fill="#555555" text-anchor="middle">05:00</text>
<line x1="1023.82" y1="208.10" x2="1023.82" y2="275.69" stroke="#e74c3c" stroke-width="2"/>
<rect x="1002.16" y="258.97" width="43.33" height="2.18" fill="#e74c3c" stroke="#e74c3c" stroke-width="1"/>
<text x="1023.82" y="704" font-size="11" fill="#555555" text-anchor="middle">03-12</text>
<text x="1023.82" y="720" font-size="11" fill="#555555" text-anchor="middle">06:00</text>
<line x1="1098.53" y1="246.62" x2="1098.53" y2="304.76" stroke="#e74c3c" stroke-width="2"/>
<rect x="1076.86" y="264.79" width="43.33" height="23.98" fill="#e74c3c" stroke="#e74c3c" stroke-width="1"/>
<text x="1098.53" y="704" font-size="11" fill="#555555" text-anchor="middle">03-12</text>
<text x="1098.53" y="720" font-size="11" fill="#555555" text-anchor="middle">07:00</text>
<line x1="1173.24" y1="232.81" x2="1173.24" y2="325.84" stroke="#2ecc71" stroke-width="2"/>
<rect x="1151.57" y="286.59" width="43.33" height="2.18" fill="#2ecc71" stroke="#2ecc71" stroke-width="1"/>
<text x="1173.24" y="704" font-size="11" fill="#555555" text-anchor="middle">03-12</text>
<text x="1173.24" y="720" font-size="11" fill="#555555" text-anchor="middle">08:00</text>
<line x1="1247.94" y1="257.52" x2="1247.94" y2="298.95" stroke="#2ecc71" stroke-width="2"/>
<rect x="1226.28" y="272.06" width="43.33" height="15.99" fill="#2ecc71" stroke="#2ecc71" stroke-width="1"/>
<text x="1247.94" y="704" font-size="11" fill="#555555" text-anchor="middle">03-12</text>
<text x="1247.94" y="720" font-size="11" fill="#555555" text-anchor="middle">09:00</text>
<line x1="1322.65" y1="267.69" x2="1322.65" y2="366.54" stroke="#e74c3c" stroke-width="2"/>
<rect x="1300.98" y="274.96" width="43.33" height="82.13" fill="#e74c3c" stroke="#e74c3c" stroke-width="1"/>
<text x="1322.65" y="704" font-size="11" fill="#555555" text-anchor="middle">03-12</text>
<text x="1322.65" y="720" font-size="11" fill="#555555" text-anchor="middle">10:00</text>
<line x1="725.00" y1="70.00" x2="805.00" y2="90.00" stroke="#f1c40f" stroke-width="2"/>
<rect x="805.00" y="42.00" width="220" height="72" rx="8" fill="#fff8dc" stroke="#f1c40f"/>
<text x="815.00" y="66.00" font-size="12" fill="#111111">目标K线 2025-03-12 02:00</text>
<text x="815.00" y="84.00" font-size="12" fill="#111111">振幅 59.15%</text>
<text x="815.00" y="102.00" font-size="12" fill="#111111">倍数 16.14x</text>
<line x1="650.29" y1="592.58" x2="620.29" y2="552.58" stroke="#3498db" stroke-width="2"/>
<rect x="400.29" y="516.58" width="220" height="58" rx="8" fill="#eef6ff" stroke="#3498db"/>
<text x="410.29" y="538.58" font-size="12" fill="#111111">前一根涨幅 1.50%</text>
<text x="410.29" y="556.58" font-size="12" fill="#111111">前一根振幅 3.66%</text>
</svg>