<svg xmlns="http://www.w3.org/2000/svg" width="1400" height="760" viewBox="0 0 1400 760">
<rect width="100%" height="100%" fill="#fcfcfc"/>
<text x="90" y="36" font-size="26" font-weight="700" fill="#111111">BB_USDT 1H - 10倍命中</text>
<line x1="90" y1="70.00" x2="1360" y2="70.00" stroke="#d9d9d9" stroke-dasharray="4 4" stroke-width="1"/>
<text x="12" y="74.00" font-size="12" fill="#555555">0.124830</text>
<line x1="90" y1="186.00" x2="1360" y2="186.00" stroke="#d9d9d9" stroke-dasharray="4 4" stroke-width="1"/>
<text x="12" y="190.00" font-size="12" fill="#555555">0.117484</text>
<line x1="90" y1="302.00" x2="1360" y2="302.00" stroke="#d9d9d9" stroke-dasharray="4 4" stroke-width="1"/>
<text x="12" y="306.00" font-size="12" fill="#555555">0.110138</text>
<line x1="90" y1="418.00" x2="1360" y2="418.00" stroke="#d9d9d9" stroke-dasharray="4 4" stroke-width="1"/>
<text x="12" y="422.00" font-size="12" fill="#555555">0.102792</text>
<line x1="90" y1="534.00" x2="1360" y2="534.00" stroke="#d9d9d9" stroke-dasharray="4 4" stroke-width="1"/>
<text x="12" y="538.00" font-size="12" fill="#555555">0.095446</text>
<line x1="90" y1="650.00" x2="1360" y2="650.00" stroke="#d9d9d9" stroke-dasharray="4 4" stroke-width="1"/>
<text x="12" y="654.00" font-size="12" fill="#555555">0.088100</text>
<rect x="687.65" y="70" width="74.71" height="580.00" fill="#f1c40f" opacity="0.16"/>
<rect x="612.94" y="70" width="74.71" height="580.00" fill="#3498db" opacity="0.10"/>
<line x1="127.35" y1="638.79" x2="127.35" y2="650.00" stroke="#e74c3c" stroke-width="2"/>
<rect x="105.69" y="646.05" width="43.33" height="1.20" fill="#e74c3c" stroke="#e74c3c" stroke-width="1"/>
<text x="127.35" y="704" font-size="11" fill="#555555" text-anchor="middle">07-11</text>
<text x="127.35" y="720" font-size="11" fill="#555555" text-anchor="middle">03:00</text>
<line x1="202.06" y1="609.42" x2="202.06" y2="639.74" stroke="#2ecc71" stroke-width="2"/>
<rect x="180.39" y="610.52" width="43.33" height="28.74" fill="#2ecc71" stroke="#2ecc71" stroke-width="1"/>
<text x="202.06" y="704" font-size="11" fill="#555555" text-anchor="middle">07-11</text>
<text x="202.06" y="720" font-size="11" fill="#555555" text-anchor="middle">04:00</text>
<line x1="276.76" y1="557.15" x2="276.76" y2="612.42" stroke="#2ecc71" stroke-width="2"/>
<rect x="255.10" y="558.41" width="43.33" height="54.00" fill="#2ecc71" stroke="#2ecc71" stroke-width="1"/>
<text x="276.76" y="704" font-size="11" fill="#555555" text-anchor="middle">07-11</text>
<text x="276.76" y="720" font-size="11" fill="#555555" text-anchor="middle">05:00</text>
<line x1="351.47" y1="535.99" x2="351.47" y2="571.52" stroke="#2ecc71" stroke-width="2"/>
<rect x="329.81" y="541.83" width="43.33" height="13.74" fill="#2ecc71" stroke="#2ecc71" stroke-width="1"/>
<text x="351.47" y="704" font-size="11" fill="#555555" text-anchor="middle">07-11</text>
<text x="351.47" y="720" font-size="11" fill="#555555" text-anchor="middle">06:00</text>
<line x1="426.18" y1="500.62" x2="426.18" y2="542.78" stroke="#2ecc71" stroke-width="2"/>
<rect x="404.51" y="508.51" width="43.33" height="33.48" fill="#2ecc71" stroke="#2ecc71" stroke-width="1"/>
<text x="426.18" y="704" font-size="11" fill="#555555" text-anchor="middle">07-11</text>
<text x="426.18" y="720" font-size="11" fill="#555555" text-anchor="middle">07:00</text>
<line x1="500.88" y1="511.51" x2="500.88" y2="545.31" stroke="#e74c3c" stroke-width="2"/>
<rect x="479.22" y="511.51" width="43.33" height="7.42" fill="#e74c3c" stroke="#e74c3c" stroke-width="1"/>
<text x="500.88" y="704" font-size="11" fill="#555555" text-anchor="middle">07-11</text>
<text x="500.88" y="720" font-size="11" fill="#555555" text-anchor="middle">08:00</text>
<line x1="575.59" y1="490.99" x2="575.59" y2="523.51" stroke="#2ecc71" stroke-width="2"/>
<rect x="553.92" y="492.56" width="43.33" height="21.32" fill="#2ecc71" stroke="#2ecc71" stroke-width="1"/>
<text x="575.59" y="704" font-size="11" fill="#555555" text-anchor="middle">07-11</text>
<text x="575.59" y="720" font-size="11" fill="#555555" text-anchor="middle">09:00</text>
<line x1="650.29" y1="467.93" x2="650.29" y2="504.09" stroke="#2ecc71" stroke-width="2"/>
<rect x="628.63" y="476.14" width="43.33" height="18.79" fill="#2ecc71" stroke="#2ecc71" stroke-width="1"/>
<text x="650.29" y="704" font-size="11" fill="#555555" text-anchor="middle">07-11</text>
<text x="650.29" y="720" font-size="11" fill="#555555" text-anchor="middle">10:00</text>
<line x1="725.00" y1="70.00" x2="725.00" y2="470.77" stroke="#2ecc71" stroke-width="2"/>
<rect x="703.34" y="231.86" width="43.33" height="238.92" fill="#2ecc71" stroke="#2ecc71" stroke-width="1"/>
<text x="725.00" y="704" font-size="11" fill="#555555" text-anchor="middle">07-11</text>
<text x="725.00" y="720" font-size="11" fill="#555555" text-anchor="middle">11:00</text>
<line x1="799.71" y1="143.11" x2="799.71" y2="296.44" stroke="#2ecc71" stroke-width="2"/>
<rect x="778.04" y="208.80" width="43.33" height="31.58" fill="#2ecc71" stroke="#2ecc71" stroke-width="1"/>
<text x="799.71" y="704" font-size="11" fill="#555555" text-anchor="middle">07-11</text>
<text x="799.71" y="720" font-size="11" fill="#555555" text-anchor="middle">12:00</text>
<line x1="874.41" y1="206.12" x2="874.41" y2="334.66" stroke="#e74c3c" stroke-width="2"/>
<rect x="852.75" y="211.01" width="43.33" height="82.11" fill="#e74c3c" stroke="#e74c3c" stroke-width="1"/>
<text x="874.41" y="704" font-size="11" fill="#555555" text-anchor="middle">07-11</text>
<text x="874.41" y="720" font-size="11" fill="#555555" text-anchor="middle">13:00</text>
<line x1="949.12" y1="250.02" x2="949.12" y2="341.13" stroke="#e74c3c" stroke-width="2"/>
<rect x="927.45" y="292.81" width="43.33" height="13.26" fill="#e74c3c" stroke="#e74c3c" stroke-width="1"/>
<text x="949.12" y="704" font-size="11" fill="#555555" text-anchor="middle">07-11</text>
<text x="949.12" y="720" font-size="11" fill="#555555" text-anchor="middle">14:00</text>
<line x1="1023.82" y1="218.75" x2="1023.82" y2="333.39" stroke="#2ecc71" stroke-width="2"/>
<rect x="1002.16" y="279.86" width="43.33" height="26.53" fill="#2ecc71" stroke="#2ecc71" stroke-width="1"/>
<text x="1023.82" y="704" font-size="11" fill="#555555" text-anchor="middle">07-11</text>
<text x="1023.82" y="720" font-size="11" fill="#555555" text-anchor="middle">15:00</text>
<line x1="1098.53" y1="264.39" x2="1098.53" y2="323.76" stroke="#2ecc71" stroke-width="2"/>
<rect x="1076.86" y="270.07" width="43.33" height="10.74" fill="#2ecc71" stroke="#2ecc71" stroke-width="1"/>
<text x="1098.53" y="704" font-size="11" fill="#555555" text-anchor="middle">07-11</text>
<text x="1098.53" y="720" font-size="11" fill="#555555" text-anchor="middle">16:00</text>
<line x1="1173.24" y1="269.44" x2="1173.24" y2="314.44" stroke="#e74c3c" stroke-width="2"/>
<rect x="1151.57" y="269.44" width="43.33" height="30.48" fill="#e74c3c" stroke="#e74c3c" stroke-width="1"/>
<text x="1173.24" y="704" font-size="11" fill="#555555" text-anchor="middle">07-11</text>
<text x="1173.24" y="720" font-size="11" fill="#555555" text-anchor="middle">17:00</text>
<line x1="1247.94" y1="234.70" x2="1247.94" y2="315.55" stroke="#2ecc71" stroke-width="2"/>
<rect x="1226.28" y="293.76" width="43.33" height="8.53" fill="#2ecc71" stroke="#2ecc71" stroke-width="1"/>
<text x="1247.94" y="704" font-size="11" fill="#555555" text-anchor="middle">07-11</text>
<text x="1247.94" y="720" font-size="11" fill="#555555" text-anchor="middle">18:00</text>
<line x1="1322.65" y1="283.02" x2="1322.65" y2="332.76" stroke="#e74c3c" stroke-width="2"/>
<rect x="1300.98" y="295.97" width="43.33" height="13.58" fill="#e74c3c" stroke="#e74c3c" stroke-width="1"/>
<text x="1322.65" y="704" font-size="11" fill="#555555" text-anchor="middle">07-11</text>
<text x="1322.65" y="720" font-size="11" fill="#555555" text-anchor="middle">19:00</text>
<line x1="725.00" y1="70.00" x2="805.00" y2="90.00" stroke="#f1c40f" stroke-width="2"/>
<rect x="805.00" y="42.00" width="220" height="72" rx="8" fill="#fff8dc" stroke="#f1c40f"/>
<text x="815.00" y="66.00" font-size="12" fill="#111111">目标K线 2025-07-11 11:00</text>
<text x="815.00" y="84.00" font-size="12" fill="#111111">振幅 25.52%</text>
<text x="815.00" y="102.00" font-size="12" fill="#111111">倍数 10.91x</text>
<line x1="650.29" y1="467.93" x2="620.29" y2="427.93" stroke="#3498db" stroke-width="2"/>
<rect x="400.29" y="391.93" width="220" height="58" rx="8" fill="#eef6ff" stroke="#3498db"/>
<text x="410.29" y="413.93" font-size="12" fill="#111111">前一根涨幅 1.22%</text>
<text x="410.29" y="431.93" font-size="12" fill="#111111">前一根振幅 2.34%</text>
</svg>