<svg xmlns="http://www.w3.org/2000/svg" width="1400" height="760" viewBox="0 0 1400 760">
<rect width="100%" height="100%" fill="#fcfcfc"/>
<text x="90" y="36" font-size="26" font-weight="700" fill="#111111">BEL_USDT 1H - 10倍命中</text>
<line x1="90" y1="70.00" x2="1360" y2="70.00" stroke="#d9d9d9" stroke-dasharray="4 4" stroke-width="1"/>
<text x="12" y="74.00" font-size="12" fill="#555555">0.169500</text>
<line x1="90" y1="186.00" x2="1360" y2="186.00" stroke="#d9d9d9" stroke-dasharray="4 4" stroke-width="1"/>
<text x="12" y="190.00" font-size="12" fill="#555555">0.163740</text>
<line x1="90" y1="302.00" x2="1360" y2="302.00" stroke="#d9d9d9" stroke-dasharray="4 4" stroke-width="1"/>
<text x="12" y="306.00" font-size="12" fill="#555555">0.157980</text>
<line x1="90" y1="418.00" x2="1360" y2="418.00" stroke="#d9d9d9" stroke-dasharray="4 4" stroke-width="1"/>
<text x="12" y="422.00" font-size="12" fill="#555555">0.152220</text>
<line x1="90" y1="534.00" x2="1360" y2="534.00" stroke="#d9d9d9" stroke-dasharray="4 4" stroke-width="1"/>
<text x="12" y="538.00" font-size="12" fill="#555555">0.146460</text>
<line x1="90" y1="650.00" x2="1360" y2="650.00" stroke="#d9d9d9" stroke-dasharray="4 4" stroke-width="1"/>
<text x="12" y="654.00" font-size="12" fill="#555555">0.140700</text>
<rect x="687.65" y="70" width="74.71" height="580.00" fill="#f1c40f" opacity="0.16"/>
<rect x="612.94" y="70" width="74.71" height="580.00" fill="#3498db" opacity="0.10"/>
<line x1="127.35" y1="607.71" x2="127.35" y2="635.90" stroke="#e74c3c" stroke-width="2"/>
<rect x="105.69" y="609.72" width="43.33" height="12.08" fill="#e74c3c" stroke="#e74c3c" stroke-width="1"/>
<text x="127.35" y="704" font-size="11" fill="#555555" text-anchor="middle">01-10</text>
<text x="127.35" y="720" font-size="11" fill="#555555" text-anchor="middle">08:00</text>
<line x1="202.06" y1="609.72" x2="202.06" y2="621.81" stroke="#2ecc71" stroke-width="2"/>
<rect x="180.39" y="615.76" width="43.33" height="6.04" fill="#2ecc71" stroke="#2ecc71" stroke-width="1"/>
<text x="202.06" y="704" font-size="11" fill="#555555" text-anchor="middle">01-10</text>
<text x="202.06" y="720" font-size="11" fill="#555555" text-anchor="middle">09:00</text>
<line x1="276.76" y1="619.79" x2="276.76" y2="635.90" stroke="#e74c3c" stroke-width="2"/>
<rect x="255.10" y="619.79" width="43.33" height="10.07" fill="#e74c3c" stroke="#e74c3c" stroke-width="1"/>
<text x="276.76" y="704" font-size="11" fill="#555555" text-anchor="middle">01-10</text>
<text x="276.76" y="720" font-size="11" fill="#555555" text-anchor="middle">10:00</text>
<line x1="351.47" y1="629.86" x2="351.47" y2="633.89" stroke="#e74c3c" stroke-width="2"/>
<rect x="329.81" y="631.87" width="43.33" height="2.01" fill="#e74c3c" stroke="#e74c3c" stroke-width="1"/>
<text x="351.47" y="704" font-size="11" fill="#555555" text-anchor="middle">01-10</text>
<text x="351.47" y="720" font-size="11" fill="#555555" text-anchor="middle">11:00</text>
<line x1="426.18" y1="617.78" x2="426.18" y2="633.89" stroke="#e74c3c" stroke-width="2"/>
<rect x="404.51" y="617.78" width="43.33" height="14.10" fill="#e74c3c" stroke="#e74c3c" stroke-width="1"/>
<text x="426.18" y="704" font-size="11" fill="#555555" text-anchor="middle">01-10</text>
<text x="426.18" y="720" font-size="11" fill="#555555" text-anchor="middle">12:00</text>
<line x1="500.88" y1="635.90" x2="500.88" y2="645.97" stroke="#e74c3c" stroke-width="2"/>
<rect x="479.22" y="637.92" width="43.33" height="2.01" fill="#e74c3c" stroke="#e74c3c" stroke-width="1"/>
<text x="500.88" y="704" font-size="11" fill="#555555" text-anchor="middle">01-10</text>
<text x="500.88" y="720" font-size="11" fill="#555555" text-anchor="middle">13:00</text>
<line x1="575.59" y1="637.92" x2="575.59" y2="650.00" stroke="#e74c3c" stroke-width="2"/>
<rect x="553.92" y="637.92" width="43.33" height="12.08" fill="#e74c3c" stroke="#e74c3c" stroke-width="1"/>
<text x="575.59" y="704" font-size="11" fill="#555555" text-anchor="middle">01-10</text>
<text x="575.59" y="720" font-size="11" fill="#555555" text-anchor="middle">14:00</text>
<line x1="650.29" y1="605.69" x2="650.29" y2="641.94" stroke="#2ecc71" stroke-width="2"/>
<rect x="628.63" y="607.71" width="43.33" height="30.21" fill="#2ecc71" stroke="#2ecc71" stroke-width="1"/>
<text x="650.29" y="704" font-size="11" fill="#555555" text-anchor="middle">01-10</text>
<text x="650.29" y="720" font-size="11" fill="#555555" text-anchor="middle">15:00</text>
<line x1="725.00" y1="70.00" x2="725.00" y2="611.74" stroke="#2ecc71" stroke-width="2"/>
<rect x="703.34" y="253.26" width="43.33" height="358.47" fill="#2ecc71" stroke="#2ecc71" stroke-width="1"/>
<text x="725.00" y="704" font-size="11" fill="#555555" text-anchor="middle">01-10</text>
<text x="725.00" y="720" font-size="11" fill="#555555" text-anchor="middle">16:00</text>
<line x1="799.71" y1="233.13" x2="799.71" y2="456.67" stroke="#e74c3c" stroke-width="2"/>
<rect x="778.04" y="247.22" width="43.33" height="191.32" fill="#e74c3c" stroke="#e74c3c" stroke-width="1"/>
<text x="799.71" y="704" font-size="11" fill="#555555" text-anchor="middle">01-10</text>
<text x="799.71" y="720" font-size="11" fill="#555555" text-anchor="middle">17:00</text>
<line x1="874.41" y1="327.78" x2="874.41" y2="492.92" stroke="#e74c3c" stroke-width="2"/>
<rect x="852.75" y="432.50" width="43.33" height="24.17" fill="#e74c3c" stroke="#e74c3c" stroke-width="1"/>
<text x="874.41" y="704" font-size="11" fill="#555555" text-anchor="middle">01-10</text>
<text x="874.41" y="720" font-size="11" fill="#555555" text-anchor="middle">18:00</text>
<line x1="949.12" y1="438.54" x2="949.12" y2="466.74" stroke="#2ecc71" stroke-width="2"/>
<rect x="927.45" y="448.61" width="43.33" height="8.06" fill="#2ecc71" stroke="#2ecc71" stroke-width="1"/>
<text x="949.12" y="704" font-size="11" fill="#555555" text-anchor="middle">01-10</text>
<text x="949.12" y="720" font-size="11" fill="#555555" text-anchor="middle">19:00</text>
<line x1="1023.82" y1="402.29" x2="1023.82" y2="490.90" stroke="#e74c3c" stroke-width="2"/>
<rect x="1002.16" y="444.58" width="43.33" height="4.03" fill="#e74c3c" stroke="#e74c3c" stroke-width="1"/>
<text x="1023.82" y="704" font-size="11" fill="#555555" text-anchor="middle">01-10</text>
<text x="1023.82" y="720" font-size="11" fill="#555555" text-anchor="middle">20:00</text>
<line x1="1098.53" y1="426.46" x2="1098.53" y2="509.03" stroke="#e74c3c" stroke-width="2"/>
<rect x="1076.86" y="448.61" width="43.33" height="44.31" fill="#e74c3c" stroke="#e74c3c" stroke-width="1"/>
<text x="1098.53" y="704" font-size="11" fill="#555555" text-anchor="middle">01-10</text>
<text x="1098.53" y="720" font-size="11" fill="#555555" text-anchor="middle">21:00</text>
<line x1="1173.24" y1="444.58" x2="1173.24" y2="498.96" stroke="#2ecc71" stroke-width="2"/>
<rect x="1151.57" y="474.79" width="43.33" height="18.13" fill="#2ecc71" stroke="#2ecc71" stroke-width="1"/>
<text x="1173.24" y="704" font-size="11" fill="#555555" text-anchor="middle">01-10</text>
<text x="1173.24" y="720" font-size="11" fill="#555555" text-anchor="middle">22:00</text>
<line x1="1247.94" y1="480.83" x2="1247.94" y2="533.19" stroke="#e74c3c" stroke-width="2"/>
<rect x="1226.28" y="480.83" width="43.33" height="38.26" fill="#e74c3c" stroke="#e74c3c" stroke-width="1"/>
<text x="1247.94" y="704" font-size="11" fill="#555555" text-anchor="middle">01-10</text>
<text x="1247.94" y="720" font-size="11" fill="#555555" text-anchor="middle">23:00</text>
<line x1="1322.65" y1="519.10" x2="1322.65" y2="583.54" stroke="#e74c3c" stroke-width="2"/>
<rect x="1300.98" y="519.10" width="43.33" height="64.44" fill="#e74c3c" stroke="#e74c3c" stroke-width="1"/>
<text x="1322.65" y="704" font-size="11" fill="#555555" text-anchor="middle">01-11</text>
<text x="1322.65" y="720" font-size="11" fill="#555555" text-anchor="middle">00:00</text>
<line x1="725.00" y1="70.00" x2="805.00" y2="90.00" stroke="#f1c40f" stroke-width="2"/>
<rect x="805.00" y="42.00" width="220" height="72" rx="8" fill="#fff8dc" stroke="#f1c40f"/>
<text x="815.00" y="66.00" font-size="12" fill="#111111">目标K线 2026-01-10 16:00</text>
<text x="815.00" y="84.00" font-size="12" fill="#111111">振幅 18.86%</text>
<text x="815.00" y="102.00" font-size="12" fill="#111111">倍数 14.81x</text>
<line x1="650.29" y1="605.69" x2="620.29" y2="565.69" stroke="#3498db" stroke-width="2"/>
<rect x="400.29" y="529.69" width="220" height="58" rx="8" fill="#eef6ff" stroke="#3498db"/>
<text x="410.29" y="551.69" font-size="12" fill="#111111">前一根涨幅 1.06%</text>
<text x="410.29" y="569.69" font-size="12" fill="#111111">前一根振幅 1.27%</text>
</svg>