<svg xmlns="http://www.w3.org/2000/svg" width="1400" height="760" viewBox="0 0 1400 760">
<rect width="100%" height="100%" fill="#fcfcfc"/>
<text x="90" y="36" font-size="26" font-weight="700" fill="#111111">BMT_USDT 1H - 10倍命中</text>
<line x1="90" y1="70.00" x2="1360" y2="70.00" stroke="#d9d9d9" stroke-dasharray="4 4" stroke-width="1"/>
<text x="12" y="74.00" font-size="12" fill="#555555">0.153550</text>
<line x1="90" y1="186.00" x2="1360" y2="186.00" stroke="#d9d9d9" stroke-dasharray="4 4" stroke-width="1"/>
<text x="12" y="190.00" font-size="12" fill="#555555">0.140530</text>
<line x1="90" y1="302.00" x2="1360" y2="302.00" stroke="#d9d9d9" stroke-dasharray="4 4" stroke-width="1"/>
<text x="12" y="306.00" font-size="12" fill="#555555">0.127510</text>
<line x1="90" y1="418.00" x2="1360" y2="418.00" stroke="#d9d9d9" stroke-dasharray="4 4" stroke-width="1"/>
<text x="12" y="422.00" font-size="12" fill="#555555">0.114490</text>
<line x1="90" y1="534.00" x2="1360" y2="534.00" stroke="#d9d9d9" stroke-dasharray="4 4" stroke-width="1"/>
<text x="12" y="538.00" font-size="12" fill="#555555">0.101470</text>
<line x1="90" y1="650.00" x2="1360" y2="650.00" stroke="#d9d9d9" stroke-dasharray="4 4" stroke-width="1"/>
<text x="12" y="654.00" font-size="12" fill="#555555">0.088450</text>
<rect x="687.65" y="70" width="74.71" height="580.00" fill="#f1c40f" opacity="0.16"/>
<rect x="612.94" y="70" width="74.71" height="580.00" fill="#3498db" opacity="0.10"/>
<line x1="127.35" y1="618.46" x2="127.35" y2="637.44" stroke="#2ecc71" stroke-width="2"/>
<rect x="105.69" y="618.82" width="43.33" height="4.90" fill="#2ecc71" stroke="#2ecc71" stroke-width="1"/>
<text x="127.35" y="704" font-size="11" fill="#555555" text-anchor="middle">03-17</text>
<text x="127.35" y="720" font-size="11" fill="#555555" text-anchor="middle">04:00</text>
<line x1="202.06" y1="619.00" x2="202.06" y2="643.23" stroke="#e74c3c" stroke-width="2"/>
<rect x="180.39" y="619.00" width="43.33" height="7.13" fill="#e74c3c" stroke="#e74c3c" stroke-width="1"/>
<text x="202.06" y="704" font-size="11" fill="#555555" text-anchor="middle">03-17</text>
<text x="202.06" y="720" font-size="11" fill="#555555" text-anchor="middle">05:00</text>
<line x1="276.76" y1="620.78" x2="276.76" y2="643.23" stroke="#e74c3c" stroke-width="2"/>
<rect x="255.10" y="624.16" width="43.33" height="17.28" fill="#e74c3c" stroke="#e74c3c" stroke-width="1"/>
<text x="276.76" y="704" font-size="11" fill="#555555" text-anchor="middle">03-17</text>
<text x="276.76" y="720" font-size="11" fill="#555555" text-anchor="middle">06:00</text>
<line x1="351.47" y1="618.28" x2="351.47" y2="638.24" stroke="#2ecc71" stroke-width="2"/>
<rect x="329.81" y="620.60" width="43.33" height="17.64" fill="#2ecc71" stroke="#2ecc71" stroke-width="1"/>
<text x="351.47" y="704" font-size="11" fill="#555555" text-anchor="middle">03-17</text>
<text x="351.47" y="720" font-size="11" fill="#555555" text-anchor="middle">07:00</text>
<line x1="426.18" y1="620.51" x2="426.18" y2="646.97" stroke="#e74c3c" stroke-width="2"/>
<rect x="404.51" y="620.69" width="43.33" height="23.25" fill="#e74c3c" stroke="#e74c3c" stroke-width="1"/>
<text x="426.18" y="704" font-size="11" fill="#555555" text-anchor="middle">03-17</text>
<text x="426.18" y="720" font-size="11" fill="#555555" text-anchor="middle">08:00</text>
<line x1="500.88" y1="619.08" x2="500.88" y2="650.00" stroke="#2ecc71" stroke-width="2"/>
<rect x="479.22" y="625.59" width="43.33" height="15.68" fill="#2ecc71" stroke="#2ecc71" stroke-width="1"/>
<text x="500.88" y="704" font-size="11" fill="#555555" text-anchor="middle">03-17</text>
<text x="500.88" y="720" font-size="11" fill="#555555" text-anchor="middle">09:00</text>
<line x1="575.59" y1="622.02" x2="575.59" y2="640.11" stroke="#e74c3c" stroke-width="2"/>
<rect x="553.92" y="624.07" width="43.33" height="12.29" fill="#e74c3c" stroke="#e74c3c" stroke-width="1"/>
<text x="575.59" y="704" font-size="11" fill="#555555" text-anchor="middle">03-17</text>
<text x="575.59" y="720" font-size="11" fill="#555555" text-anchor="middle">10:00</text>
<line x1="650.29" y1="619.26" x2="650.29" y2="637.71" stroke="#2ecc71" stroke-width="2"/>
<rect x="628.63" y="627.37" width="43.33" height="9.89" fill="#2ecc71" stroke="#2ecc71" stroke-width="1"/>
<text x="650.29" y="704" font-size="11" fill="#555555" text-anchor="middle">03-17</text>
<text x="650.29" y="720" font-size="11" fill="#555555" text-anchor="middle">11:00</text>
<line x1="725.00" y1="337.46" x2="725.00" y2="626.92" stroke="#2ecc71" stroke-width="2"/>
<rect x="703.34" y="388.78" width="43.33" height="235.21" fill="#2ecc71" stroke="#2ecc71" stroke-width="1"/>
<text x="725.00" y="704" font-size="11" fill="#555555" text-anchor="middle">03-17</text>
<text x="725.00" y="720" font-size="11" fill="#555555" text-anchor="middle">12:00</text>
<line x1="799.71" y1="266.36" x2="799.71" y2="398.49" stroke="#2ecc71" stroke-width="2"/>
<rect x="778.04" y="374.25" width="43.33" height="15.32" fill="#2ecc71" stroke="#2ecc71" stroke-width="1"/>
<text x="799.71" y="704" font-size="11" fill="#555555" text-anchor="middle">03-17</text>
<text x="799.71" y="720" font-size="11" fill="#555555" text-anchor="middle">13:00</text>
<line x1="874.41" y1="166.93" x2="874.41" y2="377.02" stroke="#2ecc71" stroke-width="2"/>
<rect x="852.75" y="264.85" width="43.33" height="106.29" fill="#2ecc71" stroke="#2ecc71" stroke-width="1"/>
<text x="874.41" y="704" font-size="11" fill="#555555" text-anchor="middle">03-17</text>
<text x="874.41" y="720" font-size="11" fill="#555555" text-anchor="middle">14:00</text>
<line x1="949.12" y1="203.37" x2="949.12" y2="328.37" stroke="#e74c3c" stroke-width="2"/>
<rect x="927.45" y="259.86" width="43.33" height="52.65" fill="#e74c3c" stroke="#e74c3c" stroke-width="1"/>
<text x="949.12" y="704" font-size="11" fill="#555555" text-anchor="middle">03-17</text>
<text x="949.12" y="720" font-size="11" fill="#555555" text-anchor="middle">15:00</text>
<line x1="1023.82" y1="222.17" x2="1023.82" y2="322.58" stroke="#2ecc71" stroke-width="2"/>
<rect x="1002.16" y="238.30" width="43.33" height="76.53" fill="#2ecc71" stroke="#2ecc71" stroke-width="1"/>
<text x="1023.82" y="704" font-size="11" fill="#555555" text-anchor="middle">03-17</text>
<text x="1023.82" y="720" font-size="11" fill="#555555" text-anchor="middle">16:00</text>
<line x1="1098.53" y1="141.27" x2="1098.53" y2="273.67" stroke="#2ecc71" stroke-width="2"/>
<rect x="1076.86" y="201.86" width="43.33" height="39.38" fill="#2ecc71" stroke="#2ecc71" stroke-width="1"/>
<text x="1098.53" y="704" font-size="11" fill="#555555" text-anchor="middle">03-17</text>
<text x="1098.53" y="720" font-size="11" fill="#555555" text-anchor="middle">17:00</text>
<line x1="1173.24" y1="160.07" x2="1173.24" y2="241.86" stroke="#e74c3c" stroke-width="2"/>
<rect x="1151.57" y="198.92" width="43.33" height="30.02" fill="#e74c3c" stroke="#e74c3c" stroke-width="1"/>
<text x="1173.24" y="704" font-size="11" fill="#555555" text-anchor="middle">03-17</text>
<text x="1173.24" y="720" font-size="11" fill="#555555" text-anchor="middle">18:00</text>
<line x1="1247.94" y1="70.00" x2="1247.94" y2="319.91" stroke="#e74c3c" stroke-width="2"/>
<rect x="1226.28" y="228.32" width="43.33" height="61.47" fill="#e74c3c" stroke="#e74c3c" stroke-width="1"/>
<text x="1247.94" y="704" font-size="11" fill="#555555" text-anchor="middle">03-17</text>
<text x="1247.94" y="720" font-size="11" fill="#555555" text-anchor="middle">19:00</text>
<line x1="1322.65" y1="257.27" x2="1322.65" y2="346.99" stroke="#e74c3c" stroke-width="2"/>
<rect x="1300.98" y="289.71" width="43.33" height="2.85" fill="#e74c3c" stroke="#e74c3c" stroke-width="1"/>
<text x="1322.65" y="704" font-size="11" fill="#555555" text-anchor="middle">03-17</text>
<text x="1322.65" y="720" font-size="11" fill="#555555" text-anchor="middle">20:00</text>
<line x1="725.00" y1="337.46" x2="805.00" y2="267.46" stroke="#f1c40f" stroke-width="2"/>
<rect x="805.00" y="219.46" width="220" height="72" rx="8" fill="#fff8dc" stroke="#f1c40f"/>
<text x="815.00" y="243.46" font-size="12" fill="#111111">目标K线 2025-03-17 12:00</text>
<text x="815.00" y="261.46" font-size="12" fill="#111111">振幅 35.56%</text>
<text x="815.00" y="279.46" font-size="12" fill="#111111">倍数 15.44x</text>
<line x1="650.29" y1="619.26" x2="620.29" y2="579.26" stroke="#3498db" stroke-width="2"/>
<rect x="400.29" y="543.26" width="220" height="58" rx="8" fill="#eef6ff" stroke="#3498db"/>
<text x="410.29" y="565.26" font-size="12" fill="#111111">前一根涨幅 1.23%</text>
<text x="410.29" y="583.26" font-size="12" fill="#111111">前一根振幅 2.30%</text>
</svg>