<svg xmlns="http://www.w3.org/2000/svg" width="1400" height="760" viewBox="0 0 1400 760">
<rect width="100%" height="100%" fill="#fcfcfc"/>
<text x="90" y="36" font-size="26" font-weight="700" fill="#111111">BROCCOLI_USDT 1H - 10倍命中</text>
<line x1="90" y1="70.00" x2="1360" y2="70.00" stroke="#d9d9d9" stroke-dasharray="4 4" stroke-width="1"/>
<text x="12" y="74.00" font-size="12" fill="#555555">0.075450</text>
<line x1="90" y1="186.00" x2="1360" y2="186.00" stroke="#d9d9d9" stroke-dasharray="4 4" stroke-width="1"/>
<text x="12" y="190.00" font-size="12" fill="#555555">0.066384</text>
<line x1="90" y1="302.00" x2="1360" y2="302.00" stroke="#d9d9d9" stroke-dasharray="4 4" stroke-width="1"/>
<text x="12" y="306.00" font-size="12" fill="#555555">0.057318</text>
<line x1="90" y1="418.00" x2="1360" y2="418.00" stroke="#d9d9d9" stroke-dasharray="4 4" stroke-width="1"/>
<text x="12" y="422.00" font-size="12" fill="#555555">0.048252</text>
<line x1="90" y1="534.00" x2="1360" y2="534.00" stroke="#d9d9d9" stroke-dasharray="4 4" stroke-width="1"/>
<text x="12" y="538.00" font-size="12" fill="#555555">0.039186</text>
<line x1="90" y1="650.00" x2="1360" y2="650.00" stroke="#d9d9d9" stroke-dasharray="4 4" stroke-width="1"/>
<text x="12" y="654.00" font-size="12" fill="#555555">0.030120</text>
<rect x="687.65" y="70" width="74.71" height="580.00" fill="#f1c40f" opacity="0.16"/>
<rect x="612.94" y="70" width="74.71" height="580.00" fill="#3498db" opacity="0.10"/>
<line x1="127.35" y1="618.78" x2="127.35" y2="648.34" stroke="#e74c3c" stroke-width="2"/>
<rect x="105.69" y="619.55" width="43.33" height="17.66" fill="#e74c3c" stroke="#e74c3c" stroke-width="1"/>
<text x="127.35" y="704" font-size="11" fill="#555555" text-anchor="middle">03-19</text>
<text x="127.35" y="720" font-size="11" fill="#555555" text-anchor="middle">16:00</text>
<line x1="202.06" y1="632.47" x2="202.06" y2="645.52" stroke="#2ecc71" stroke-width="2"/>
<rect x="180.39" y="632.73" width="43.33" height="4.35" fill="#2ecc71" stroke="#2ecc71" stroke-width="1"/>
<text x="202.06" y="704" font-size="11" fill="#555555" text-anchor="middle">03-19</text>
<text x="202.06" y="720" font-size="11" fill="#555555" text-anchor="middle">17:00</text>
<line x1="276.76" y1="611.10" x2="276.76" y2="636.69" stroke="#2ecc71" stroke-width="2"/>
<rect x="255.10" y="623.26" width="43.33" height="9.98" fill="#2ecc71" stroke="#2ecc71" stroke-width="1"/>
<text x="276.76" y="704" font-size="11" fill="#555555" text-anchor="middle">03-19</text>
<text x="276.76" y="720" font-size="11" fill="#555555" text-anchor="middle">18:00</text>
<line x1="351.47" y1="619.16" x2="351.47" y2="640.79" stroke="#e74c3c" stroke-width="2"/>
<rect x="329.81" y="623.00" width="43.33" height="12.92" fill="#e74c3c" stroke="#e74c3c" stroke-width="1"/>
<text x="351.47" y="704" font-size="11" fill="#555555" text-anchor="middle">03-19</text>
<text x="351.47" y="720" font-size="11" fill="#555555" text-anchor="middle">19:00</text>
<line x1="426.18" y1="635.16" x2="426.18" y2="646.55" stroke="#e74c3c" stroke-width="2"/>
<rect x="404.51" y="636.31" width="43.33" height="2.69" fill="#e74c3c" stroke="#e74c3c" stroke-width="1"/>
<text x="426.18" y="704" font-size="11" fill="#555555" text-anchor="middle">03-19</text>
<text x="426.18" y="720" font-size="11" fill="#555555" text-anchor="middle">20:00</text>
<line x1="500.88" y1="633.37" x2="500.88" y2="650.00" stroke="#e74c3c" stroke-width="2"/>
<rect x="479.22" y="638.23" width="43.33" height="9.47" fill="#e74c3c" stroke="#e74c3c" stroke-width="1"/>
<text x="500.88" y="704" font-size="11" fill="#555555" text-anchor="middle">03-19</text>
<text x="500.88" y="720" font-size="11" fill="#555555" text-anchor="middle">21:00</text>
<line x1="575.59" y1="622.62" x2="575.59" y2="647.57" stroke="#2ecc71" stroke-width="2"/>
<rect x="553.92" y="628.25" width="43.33" height="19.06" fill="#2ecc71" stroke="#2ecc71" stroke-width="1"/>
<text x="575.59" y="704" font-size="11" fill="#555555" text-anchor="middle">03-19</text>
<text x="575.59" y="720" font-size="11" fill="#555555" text-anchor="middle">22:00</text>
<line x1="650.29" y1="612.64" x2="650.29" y2="635.67" stroke="#2ecc71" stroke-width="2"/>
<rect x="628.63" y="619.80" width="43.33" height="7.93" fill="#2ecc71" stroke="#2ecc71" stroke-width="1"/>
<text x="650.29" y="704" font-size="11" fill="#555555" text-anchor="middle">03-19</text>
<text x="650.29" y="720" font-size="11" fill="#555555" text-anchor="middle">23:00</text>
<line x1="725.00" y1="312.47" x2="725.00" y2="624.28" stroke="#2ecc71" stroke-width="2"/>
<rect x="703.34" y="333.45" width="43.33" height="287.38" fill="#2ecc71" stroke="#2ecc71" stroke-width="1"/>
<text x="725.00" y="704" font-size="11" fill="#555555" text-anchor="middle">03-20</text>
<text x="725.00" y="720" font-size="11" fill="#555555" text-anchor="middle">00:00</text>
<line x1="799.71" y1="135.25" x2="799.71" y2="356.87" stroke="#2ecc71" stroke-width="2"/>
<rect x="778.04" y="204.22" width="43.33" height="130.25" fill="#2ecc71" stroke="#2ecc71" stroke-width="1"/>
<text x="799.71" y="704" font-size="11" fill="#555555" text-anchor="middle">03-20</text>
<text x="799.71" y="720" font-size="11" fill="#555555" text-anchor="middle">01:00</text>
<line x1="874.41" y1="70.00" x2="874.41" y2="208.57" stroke="#2ecc71" stroke-width="2"/>
<rect x="852.75" y="114.27" width="43.33" height="90.33" fill="#2ecc71" stroke="#2ecc71" stroke-width="1"/>
<text x="874.41" y="704" font-size="11" fill="#555555" text-anchor="middle">03-20</text>
<text x="874.41" y="720" font-size="11" fill="#555555" text-anchor="middle">02:00</text>
<line x1="949.12" y1="89.96" x2="949.12" y2="188.48" stroke="#e74c3c" stroke-width="2"/>
<rect x="927.45" y="114.14" width="43.33" height="26.87" fill="#e74c3c" stroke="#e74c3c" stroke-width="1"/>
<text x="949.12" y="704" font-size="11" fill="#555555" text-anchor="middle">03-20</text>
<text x="949.12" y="720" font-size="11" fill="#555555" text-anchor="middle">03:00</text>
<line x1="1023.82" y1="72.94" x2="1023.82" y2="188.99" stroke="#2ecc71" stroke-width="2"/>
<rect x="1002.16" y="94.18" width="43.33" height="50.80" fill="#2ecc71" stroke="#2ecc71" stroke-width="1"/>
<text x="1023.82" y="704" font-size="11" fill="#555555" text-anchor="middle">03-20</text>
<text x="1023.82" y="720" font-size="11" fill="#555555" text-anchor="middle">04:00</text>
<line x1="1098.53" y1="72.43" x2="1098.53" y2="146.39" stroke="#2ecc71" stroke-width="2"/>
<rect x="1076.86" y="94.31" width="43.33" height="1.20" fill="#2ecc71" stroke="#2ecc71" stroke-width="1"/>
<text x="1098.53" y="704" font-size="11" fill="#555555" text-anchor="middle">03-20</text>
<text x="1098.53" y="720" font-size="11" fill="#555555" text-anchor="middle">05:00</text>
<line x1="1173.24" y1="87.27" x2="1173.24" y2="156.75" stroke="#e74c3c" stroke-width="2"/>
<rect x="1151.57" y="94.31" width="43.33" height="31.35" fill="#e74c3c" stroke="#e74c3c" stroke-width="1"/>
<text x="1173.24" y="704" font-size="11" fill="#555555" text-anchor="middle">03-20</text>
<text x="1173.24" y="720" font-size="11" fill="#555555" text-anchor="middle">06:00</text>
<line x1="1247.94" y1="121.82" x2="1247.94" y2="197.57" stroke="#e74c3c" stroke-width="2"/>
<rect x="1226.28" y="124.76" width="43.33" height="58.73" fill="#e74c3c" stroke="#e74c3c" stroke-width="1"/>
<text x="1247.94" y="704" font-size="11" fill="#555555" text-anchor="middle">03-20</text>
<text x="1247.94" y="720" font-size="11" fill="#555555" text-anchor="middle">07:00</text>
<line x1="1322.65" y1="169.67" x2="1322.65" y2="303.25" stroke="#e74c3c" stroke-width="2"/>
<rect x="1300.98" y="183.49" width="43.33" height="113.75" fill="#e74c3c" stroke="#e74c3c" stroke-width="1"/>
<text x="1322.65" y="704" font-size="11" fill="#555555" text-anchor="middle">03-20</text>
<text x="1322.65" y="720" font-size="11" fill="#555555" text-anchor="middle">08:00</text>
<line x1="725.00" y1="312.47" x2="805.00" y2="242.47" stroke="#f1c40f" stroke-width="2"/>
<rect x="805.00" y="194.47" width="220" height="72" rx="8" fill="#fff8dc" stroke="#f1c40f"/>
<text x="815.00" y="218.47" font-size="12" fill="#111111">目标K线 2025-03-20 00:00</text>
<text x="815.00" y="236.47" font-size="12" fill="#111111">振幅 75.22%</text>
<text x="815.00" y="254.47" font-size="12" fill="#111111">倍数 13.31x</text>
<line x1="650.29" y1="612.64" x2="620.29" y2="572.64" stroke="#3498db" stroke-width="2"/>
<rect x="400.29" y="536.64" width="220" height="58" rx="8" fill="#eef6ff" stroke="#3498db"/>
<text x="410.29" y="558.64" font-size="12" fill="#111111">前一根涨幅 1.95%</text>
<text x="410.29" y="576.64" font-size="12" fill="#111111">前一根振幅 5.65%</text>
</svg>