<svg xmlns="http://www.w3.org/2000/svg" width="1400" height="760" viewBox="0 0 1400 760">
<rect width="100%" height="100%" fill="#fcfcfc"/>
<text x="90" y="36" font-size="26" font-weight="700" fill="#111111">BTR_USDT 1H - 10倍命中</text>
<line x1="90" y1="70.00" x2="1360" y2="70.00" stroke="#d9d9d9" stroke-dasharray="4 4" stroke-width="1"/>
<text x="12" y="74.00" font-size="12" fill="#555555">0.176760</text>
<line x1="90" y1="186.00" x2="1360" y2="186.00" stroke="#d9d9d9" stroke-dasharray="4 4" stroke-width="1"/>
<text x="12" y="190.00" font-size="12" fill="#555555">0.160972</text>
<line x1="90" y1="302.00" x2="1360" y2="302.00" stroke="#d9d9d9" stroke-dasharray="4 4" stroke-width="1"/>
<text x="12" y="306.00" font-size="12" fill="#555555">0.145184</text>
<line x1="90" y1="418.00" x2="1360" y2="418.00" stroke="#d9d9d9" stroke-dasharray="4 4" stroke-width="1"/>
<text x="12" y="422.00" font-size="12" fill="#555555">0.129396</text>
<line x1="90" y1="534.00" x2="1360" y2="534.00" stroke="#d9d9d9" stroke-dasharray="4 4" stroke-width="1"/>
<text x="12" y="538.00" font-size="12" fill="#555555">0.113608</text>
<line x1="90" y1="650.00" x2="1360" y2="650.00" stroke="#d9d9d9" stroke-dasharray="4 4" stroke-width="1"/>
<text x="12" y="654.00" font-size="12" fill="#555555">0.097820</text>
<rect x="687.65" y="70" width="74.71" height="580.00" fill="#f1c40f" opacity="0.16"/>
<rect x="612.94" y="70" width="74.71" height="580.00" fill="#3498db" opacity="0.10"/>
<line x1="127.35" y1="617.97" x2="127.35" y2="650.00" stroke="#2ecc71" stroke-width="2"/>
<rect x="105.69" y="619.21" width="43.33" height="30.79" fill="#2ecc71" stroke="#2ecc71" stroke-width="1"/>
<text x="127.35" y="704" font-size="11" fill="#555555" text-anchor="middle">09-14</text>
<text x="127.35" y="720" font-size="11" fill="#555555" text-anchor="middle">12:00</text>
<line x1="202.06" y1="600.18" x2="202.06" y2="624.73" stroke="#2ecc71" stroke-width="2"/>
<rect x="180.39" y="607.39" width="43.33" height="13.08" fill="#2ecc71" stroke="#2ecc71" stroke-width="1"/>
<text x="202.06" y="704" font-size="11" fill="#555555" text-anchor="middle">09-14</text>
<text x="202.06" y="720" font-size="11" fill="#555555" text-anchor="middle">13:00</text>
<line x1="276.76" y1="597.47" x2="276.76" y2="612.09" stroke="#2ecc71" stroke-width="2"/>
<rect x="255.10" y="602.32" width="43.33" height="4.63" fill="#2ecc71" stroke="#2ecc71" stroke-width="1"/>
<text x="276.76" y="704" font-size="11" fill="#555555" text-anchor="middle">09-14</text>
<text x="276.76" y="720" font-size="11" fill="#555555" text-anchor="middle">14:00</text>
<line x1="351.47" y1="588.36" x2="351.47" y2="608.93" stroke="#2ecc71" stroke-width="2"/>
<rect x="329.81" y="598.72" width="43.33" height="2.50" fill="#2ecc71" stroke="#2ecc71" stroke-width="1"/>
<text x="351.47" y="704" font-size="11" fill="#555555" text-anchor="middle">09-14</text>
<text x="351.47" y="720" font-size="11" fill="#555555" text-anchor="middle">15:00</text>
<line x1="426.18" y1="574.76" x2="426.18" y2="605.70" stroke="#2ecc71" stroke-width="2"/>
<rect x="404.51" y="585.71" width="43.33" height="12.78" fill="#2ecc71" stroke="#2ecc71" stroke-width="1"/>
<text x="426.18" y="704" font-size="11" fill="#555555" text-anchor="middle">09-14</text>
<text x="426.18" y="720" font-size="11" fill="#555555" text-anchor="middle">16:00</text>
<line x1="500.88" y1="585.05" x2="500.88" y2="630.16" stroke="#e74c3c" stroke-width="2"/>
<rect x="479.22" y="586.59" width="43.33" height="19.62" fill="#e74c3c" stroke="#e74c3c" stroke-width="1"/>
<text x="500.88" y="704" font-size="11" fill="#555555" text-anchor="middle">09-14</text>
<text x="500.88" y="720" font-size="11" fill="#555555" text-anchor="middle">17:00</text>
<line x1="575.59" y1="589.68" x2="575.59" y2="609.44" stroke="#2ecc71" stroke-width="2"/>
<rect x="553.92" y="604.74" width="43.33" height="1.20" fill="#2ecc71" stroke="#2ecc71" stroke-width="1"/>
<text x="575.59" y="704" font-size="11" fill="#555555" text-anchor="middle">09-14</text>
<text x="575.59" y="720" font-size="11" fill="#555555" text-anchor="middle">18:00</text>
<line x1="650.29" y1="581.82" x2="650.29" y2="606.14" stroke="#2ecc71" stroke-width="2"/>
<rect x="628.63" y="587.91" width="43.33" height="16.31" fill="#2ecc71" stroke="#2ecc71" stroke-width="1"/>
<text x="650.29" y="704" font-size="11" fill="#555555" text-anchor="middle">09-14</text>
<text x="650.29" y="720" font-size="11" fill="#555555" text-anchor="middle">19:00</text>
<line x1="725.00" y1="320.47" x2="725.00" y2="590.41" stroke="#2ecc71" stroke-width="2"/>
<rect x="703.34" y="352.14" width="43.33" height="236.44" fill="#2ecc71" stroke="#2ecc71" stroke-width="1"/>
<text x="725.00" y="704" font-size="11" fill="#555555" text-anchor="middle">09-14</text>
<text x="725.00" y="720" font-size="11" fill="#555555" text-anchor="middle">20:00</text>
<line x1="799.71" y1="209.38" x2="799.71" y2="400.04" stroke="#2ecc71" stroke-width="2"/>
<rect x="778.04" y="251.92" width="43.33" height="99.41" fill="#2ecc71" stroke="#2ecc71" stroke-width="1"/>
<text x="799.71" y="704" font-size="11" fill="#555555" text-anchor="middle">09-14</text>
<text x="799.71" y="720" font-size="11" fill="#555555" text-anchor="middle">21:00</text>
<line x1="874.41" y1="70.00" x2="874.41" y2="266.62" stroke="#2ecc71" stroke-width="2"/>
<rect x="852.75" y="236.27" width="43.33" height="14.84" fill="#2ecc71" stroke="#2ecc71" stroke-width="1"/>
<text x="874.41" y="704" font-size="11" fill="#555555" text-anchor="middle">09-14</text>
<text x="874.41" y="720" font-size="11" fill="#555555" text-anchor="middle">22:00</text>
<line x1="949.12" y1="196.30" x2="949.12" y2="429.51" stroke="#e74c3c" stroke-width="2"/>
<rect x="927.45" y="235.98" width="43.33" height="180.30" fill="#e74c3c" stroke="#e74c3c" stroke-width="1"/>
<text x="949.12" y="704" font-size="11" fill="#555555" text-anchor="middle">09-14</text>
<text x="949.12" y="720" font-size="11" fill="#555555" text-anchor="middle">23:00</text>
<line x1="1023.82" y1="385.13" x2="1023.82" y2="495.78" stroke="#e74c3c" stroke-width="2"/>
<rect x="1002.16" y="415.77" width="43.33" height="62.45" fill="#e74c3c" stroke="#e74c3c" stroke-width="1"/>
<text x="1023.82" y="704" font-size="11" fill="#555555" text-anchor="middle">09-15</text>
<text x="1023.82" y="720" font-size="11" fill="#555555" text-anchor="middle">00:00</text>
<line x1="1098.53" y1="432.67" x2="1098.53" y2="498.06" stroke="#e74c3c" stroke-width="2"/>
<rect x="1076.86" y="475.06" width="43.33" height="6.10" fill="#e74c3c" stroke="#e74c3c" stroke-width="1"/>
<text x="1098.53" y="704" font-size="11" fill="#555555" text-anchor="middle">09-15</text>
<text x="1098.53" y="720" font-size="11" fill="#555555" text-anchor="middle">01:00</text>
<line x1="1173.24" y1="447.51" x2="1173.24" y2="595.41" stroke="#e74c3c" stroke-width="2"/>
<rect x="1151.57" y="479.84" width="43.33" height="66.27" fill="#e74c3c" stroke="#e74c3c" stroke-width="1"/>
<text x="1173.24" y="704" font-size="11" fill="#555555" text-anchor="middle">09-15</text>
<text x="1173.24" y="720" font-size="11" fill="#555555" text-anchor="middle">02:00</text>
<line x1="1247.94" y1="541.41" x2="1247.94" y2="599.45" stroke="#e74c3c" stroke-width="2"/>
<rect x="1226.28" y="547.14" width="43.33" height="34.97" fill="#e74c3c" stroke="#e74c3c" stroke-width="1"/>
<text x="1247.94" y="704" font-size="11" fill="#555555" text-anchor="middle">09-15</text>
<text x="1247.94" y="720" font-size="11" fill="#555555" text-anchor="middle">03:00</text>
<line x1="1322.65" y1="571.97" x2="1322.65" y2="608.78" stroke="#e74c3c" stroke-width="2"/>
<rect x="1300.98" y="583.58" width="43.33" height="20.57" fill="#e74c3c" stroke="#e74c3c" stroke-width="1"/>
<text x="1322.65" y="704" font-size="11" fill="#555555" text-anchor="middle">09-15</text>
<text x="1322.65" y="720" font-size="11" fill="#555555" text-anchor="middle">04:00</text>
<line x1="725.00" y1="320.47" x2="805.00" y2="250.47" stroke="#f1c40f" stroke-width="2"/>
<rect x="805.00" y="202.47" width="220" height="72" rx="8" fill="#fff8dc" stroke="#f1c40f"/>
<text x="815.00" y="226.47" font-size="12" fill="#111111">目标K线 2025-09-14 20:00</text>
<text x="815.00" y="244.47" font-size="12" fill="#111111">振幅 34.60%</text>
<text x="815.00" y="262.47" font-size="12" fill="#111111">倍数 10.88x</text>
<line x1="650.29" y1="581.82" x2="620.29" y2="541.82" stroke="#3498db" stroke-width="2"/>
<rect x="400.29" y="505.82" width="220" height="58" rx="8" fill="#eef6ff" stroke="#3498db"/>
<text x="410.29" y="527.82" font-size="12" fill="#111111">前一根涨幅 2.13%</text>
<text x="410.29" y="545.82" font-size="12" fill="#111111">前一根振幅 3.18%</text>
</svg>