<svg xmlns="http://www.w3.org/2000/svg" width="1400" height="760" viewBox="0 0 1400 760">
<rect width="100%" height="100%" fill="#fcfcfc"/>
<text x="90" y="36" font-size="26" font-weight="700" fill="#111111">BULLA_USDT 1H - 10倍命中</text>
<line x1="90" y1="70.00" x2="1360" y2="70.00" stroke="#d9d9d9" stroke-dasharray="4 4" stroke-width="1"/>
<text x="12" y="74.00" font-size="12" fill="#555555">0.009500</text>
<line x1="90" y1="186.00" x2="1360" y2="186.00" stroke="#d9d9d9" stroke-dasharray="4 4" stroke-width="1"/>
<text x="12" y="190.00" font-size="12" fill="#555555">0.008747</text>
<line x1="90" y1="302.00" x2="1360" y2="302.00" stroke="#d9d9d9" stroke-dasharray="4 4" stroke-width="1"/>
<text x="12" y="306.00" font-size="12" fill="#555555">0.007994</text>
<line x1="90" y1="418.00" x2="1360" y2="418.00" stroke="#d9d9d9" stroke-dasharray="4 4" stroke-width="1"/>
<text x="12" y="422.00" font-size="12" fill="#555555">0.007241</text>
<line x1="90" y1="534.00" x2="1360" y2="534.00" stroke="#d9d9d9" stroke-dasharray="4 4" stroke-width="1"/>
<text x="12" y="538.00" font-size="12" fill="#555555">0.006488</text>
<line x1="90" y1="650.00" x2="1360" y2="650.00" stroke="#d9d9d9" stroke-dasharray="4 4" stroke-width="1"/>
<text x="12" y="654.00" font-size="12" fill="#555555">0.005735</text>
<rect x="687.65" y="70" width="74.71" height="580.00" fill="#f1c40f" opacity="0.16"/>
<rect x="612.94" y="70" width="74.71" height="580.00" fill="#3498db" opacity="0.10"/>
<line x1="127.35" y1="638.45" x2="127.35" y2="650.00" stroke="#e74c3c" stroke-width="2"/>
<rect x="105.69" y="638.91" width="43.33" height="4.16" fill="#e74c3c" stroke="#e74c3c" stroke-width="1"/>
<text x="127.35" y="704" font-size="11" fill="#555555" text-anchor="middle">04-05</text>
<text x="127.35" y="720" font-size="11" fill="#555555" text-anchor="middle">14:00</text>
<line x1="202.06" y1="622.89" x2="202.06" y2="644.30" stroke="#2ecc71" stroke-width="2"/>
<rect x="180.39" y="637.37" width="43.33" height="6.78" fill="#2ecc71" stroke="#2ecc71" stroke-width="1"/>
<text x="202.06" y="704" font-size="11" fill="#555555" text-anchor="middle">04-05</text>
<text x="202.06" y="720" font-size="11" fill="#555555" text-anchor="middle">15:00</text>
<line x1="276.76" y1="560.65" x2="276.76" y2="636.60" stroke="#2ecc71" stroke-width="2"/>
<rect x="255.10" y="565.12" width="43.33" height="70.56" fill="#2ecc71" stroke="#2ecc71" stroke-width="1"/>
<text x="276.76" y="704" font-size="11" fill="#555555" text-anchor="middle">04-05</text>
<text x="276.76" y="720" font-size="11" fill="#555555" text-anchor="middle">16:00</text>
<line x1="351.47" y1="507.97" x2="351.47" y2="589.46" stroke="#e74c3c" stroke-width="2"/>
<rect x="329.81" y="562.96" width="43.33" height="1.20" fill="#e74c3c" stroke="#e74c3c" stroke-width="1"/>
<text x="351.47" y="704" font-size="11" fill="#555555" text-anchor="middle">04-05</text>
<text x="351.47" y="720" font-size="11" fill="#555555" text-anchor="middle">17:00</text>
<line x1="426.18" y1="562.19" x2="426.18" y2="589.61" stroke="#e74c3c" stroke-width="2"/>
<rect x="404.51" y="565.73" width="43.33" height="17.25" fill="#e74c3c" stroke="#e74c3c" stroke-width="1"/>
<text x="426.18" y="704" font-size="11" fill="#555555" text-anchor="middle">04-05</text>
<text x="426.18" y="720" font-size="11" fill="#555555" text-anchor="middle">18:00</text>
<line x1="500.88" y1="551.56" x2="500.88" y2="596.24" stroke="#2ecc71" stroke-width="2"/>
<rect x="479.22" y="563.73" width="43.33" height="19.56" fill="#2ecc71" stroke="#2ecc71" stroke-width="1"/>
<text x="500.88" y="704" font-size="11" fill="#555555" text-anchor="middle">04-05</text>
<text x="500.88" y="720" font-size="11" fill="#555555" text-anchor="middle">19:00</text>
<line x1="575.59" y1="558.80" x2="575.59" y2="593.77" stroke="#e74c3c" stroke-width="2"/>
<rect x="553.92" y="564.96" width="43.33" height="1.85" fill="#e74c3c" stroke="#e74c3c" stroke-width="1"/>
<text x="575.59" y="704" font-size="11" fill="#555555" text-anchor="middle">04-05</text>
<text x="575.59" y="720" font-size="11" fill="#555555" text-anchor="middle">20:00</text>
<line x1="650.29" y1="545.86" x2="650.29" y2="576.98" stroke="#2ecc71" stroke-width="2"/>
<rect x="628.63" y="547.25" width="43.33" height="24.03" fill="#2ecc71" stroke="#2ecc71" stroke-width="1"/>
<text x="650.29" y="704" font-size="11" fill="#555555" text-anchor="middle">04-05</text>
<text x="650.29" y="720" font-size="11" fill="#555555" text-anchor="middle">21:00</text>
<line x1="725.00" y1="154.11" x2="725.00" y2="549.10" stroke="#2ecc71" stroke-width="2"/>
<rect x="703.34" y="204.79" width="43.33" height="338.76" fill="#2ecc71" stroke="#2ecc71" stroke-width="1"/>
<text x="725.00" y="704" font-size="11" fill="#555555" text-anchor="middle">04-05</text>
<text x="725.00" y="720" font-size="11" fill="#555555" text-anchor="middle">22:00</text>
<line x1="799.71" y1="88.64" x2="799.71" y2="475.61" stroke="#e74c3c" stroke-width="2"/>
<rect x="778.04" y="204.79" width="43.33" height="71.17" fill="#e74c3c" stroke="#e74c3c" stroke-width="1"/>
<text x="799.71" y="704" font-size="11" fill="#555555" text-anchor="middle">04-05</text>
<text x="799.71" y="720" font-size="11" fill="#555555" text-anchor="middle">23:00</text>
<line x1="874.41" y1="70.00" x2="874.41" y2="325.57" stroke="#2ecc71" stroke-width="2"/>
<rect x="852.75" y="130.08" width="43.33" height="145.89" fill="#2ecc71" stroke="#2ecc71" stroke-width="1"/>
<text x="874.41" y="704" font-size="11" fill="#555555" text-anchor="middle">04-06</text>
<text x="874.41" y="720" font-size="11" fill="#555555" text-anchor="middle">00:00</text>
<line x1="949.12" y1="107.59" x2="949.12" y2="283.51" stroke="#e74c3c" stroke-width="2"/>
<rect x="927.45" y="126.23" width="43.33" height="115.85" fill="#e74c3c" stroke="#e74c3c" stroke-width="1"/>
<text x="949.12" y="704" font-size="11" fill="#555555" text-anchor="middle">04-06</text>
<text x="949.12" y="720" font-size="11" fill="#555555" text-anchor="middle">01:00</text>
<line x1="1023.82" y1="188.31" x2="1023.82" y2="277.20" stroke="#e74c3c" stroke-width="2"/>
<rect x="1002.16" y="243.46" width="43.33" height="9.09" fill="#e74c3c" stroke="#e74c3c" stroke-width="1"/>
<text x="1023.82" y="704" font-size="11" fill="#555555" text-anchor="middle">04-06</text>
<text x="1023.82" y="720" font-size="11" fill="#555555" text-anchor="middle">02:00</text>
<line x1="1098.53" y1="237.76" x2="1098.53" y2="281.67" stroke="#2ecc71" stroke-width="2"/>
<rect x="1076.86" y="247.16" width="43.33" height="8.01" fill="#2ecc71" stroke="#2ecc71" stroke-width="1"/>
<text x="1098.53" y="704" font-size="11" fill="#555555" text-anchor="middle">04-06</text>
<text x="1098.53" y="720" font-size="11" fill="#555555" text-anchor="middle">03:00</text>
<line x1="1173.24" y1="227.59" x2="1173.24" y2="367.16" stroke="#e74c3c" stroke-width="2"/>
<rect x="1151.57" y="249.16" width="43.33" height="51.76" fill="#e74c3c" stroke="#e74c3c" stroke-width="1"/>
<text x="1173.24" y="704" font-size="11" fill="#555555" text-anchor="middle">04-06</text>
<text x="1173.24" y="720" font-size="11" fill="#555555" text-anchor="middle">04:00</text>
<line x1="1247.94" y1="273.19" x2="1247.94" y2="377.79" stroke="#2ecc71" stroke-width="2"/>
<rect x="1226.28" y="290.60" width="43.33" height="8.63" fill="#2ecc71" stroke="#2ecc71" stroke-width="1"/>
<text x="1247.94" y="704" font-size="11" fill="#555555" text-anchor="middle">04-06</text>
<text x="1247.94" y="720" font-size="11" fill="#555555" text-anchor="middle">05:00</text>
<line x1="1322.65" y1="233.14" x2="1322.65" y2="303.08" stroke="#2ecc71" stroke-width="2"/>
<rect x="1300.98" y="271.81" width="43.33" height="19.41" fill="#2ecc71" stroke="#2ecc71" stroke-width="1"/>
<text x="1322.65" y="704" font-size="11" fill="#555555" text-anchor="middle">04-06</text>
<text x="1322.65" y="720" font-size="11" fill="#555555" text-anchor="middle">06:00</text>
<line x1="725.00" y1="154.11" x2="805.00" y2="90.00" stroke="#f1c40f" stroke-width="2"/>
<rect x="805.00" y="42.00" width="220" height="72" rx="8" fill="#fff8dc" stroke="#f1c40f"/>
<text x="815.00" y="66.00" font-size="12" fill="#111111">目标K线 2026-04-05 22:00</text>
<text x="815.00" y="84.00" font-size="12" fill="#111111">振幅 39.90%</text>
<text x="815.00" y="102.00" font-size="12" fill="#111111">倍数 12.34x</text>
<line x1="650.29" y1="545.86" x2="620.29" y2="505.86" stroke="#3498db" stroke-width="2"/>
<rect x="400.29" y="469.86" width="220" height="58" rx="8" fill="#eef6ff" stroke="#3498db"/>
<text x="410.29" y="491.86" font-size="12" fill="#111111">前一根涨幅 2.50%</text>
<text x="410.29" y="509.86" font-size="12" fill="#111111">前一根振幅 3.23%</text>
</svg>