<svg xmlns="http://www.w3.org/2000/svg" width="1400" height="760" viewBox="0 0 1400 760">
<rect width="100%" height="100%" fill="#fcfcfc"/>
<text x="90" y="36" font-size="26" font-weight="700" fill="#111111">C_USDT 1H - 10倍命中</text>
<line x1="90" y1="70.00" x2="1360" y2="70.00" stroke="#d9d9d9" stroke-dasharray="4 4" stroke-width="1"/>
<text x="12" y="74.00" font-size="12" fill="#555555">0.094660</text>
<line x1="90" y1="186.00" x2="1360" y2="186.00" stroke="#d9d9d9" stroke-dasharray="4 4" stroke-width="1"/>
<text x="12" y="190.00" font-size="12" fill="#555555">0.087996</text>
<line x1="90" y1="302.00" x2="1360" y2="302.00" stroke="#d9d9d9" stroke-dasharray="4 4" stroke-width="1"/>
<text x="12" y="306.00" font-size="12" fill="#555555">0.081332</text>
<line x1="90" y1="418.00" x2="1360" y2="418.00" stroke="#d9d9d9" stroke-dasharray="4 4" stroke-width="1"/>
<text x="12" y="422.00" font-size="12" fill="#555555">0.074668</text>
<line x1="90" y1="534.00" x2="1360" y2="534.00" stroke="#d9d9d9" stroke-dasharray="4 4" stroke-width="1"/>
<text x="12" y="538.00" font-size="12" fill="#555555">0.068004</text>
<line x1="90" y1="650.00" x2="1360" y2="650.00" stroke="#d9d9d9" stroke-dasharray="4 4" stroke-width="1"/>
<text x="12" y="654.00" font-size="12" fill="#555555">0.061340</text>
<rect x="687.65" y="70" width="74.71" height="580.00" fill="#f1c40f" opacity="0.16"/>
<rect x="612.94" y="70" width="74.71" height="580.00" fill="#3498db" opacity="0.10"/>
<line x1="127.35" y1="627.02" x2="127.35" y2="650.00" stroke="#e74c3c" stroke-width="2"/>
<rect x="105.69" y="627.37" width="43.33" height="11.14" fill="#e74c3c" stroke="#e74c3c" stroke-width="1"/>
<text x="127.35" y="704" font-size="11" fill="#555555" text-anchor="middle">03-27</text>
<text x="127.35" y="720" font-size="11" fill="#555555" text-anchor="middle">04:00</text>
<line x1="202.06" y1="614.14" x2="202.06" y2="639.56" stroke="#2ecc71" stroke-width="2"/>
<rect x="180.39" y="617.10" width="43.33" height="20.54" fill="#2ecc71" stroke="#2ecc71" stroke-width="1"/>
<text x="202.06" y="704" font-size="11" fill="#555555" text-anchor="middle">03-27</text>
<text x="202.06" y="720" font-size="11" fill="#555555" text-anchor="middle">05:00</text>
<line x1="276.76" y1="604.39" x2="276.76" y2="635.20" stroke="#e74c3c" stroke-width="2"/>
<rect x="255.10" y="614.49" width="43.33" height="14.27" fill="#e74c3c" stroke="#e74c3c" stroke-width="1"/>
<text x="276.76" y="704" font-size="11" fill="#555555" text-anchor="middle">03-27</text>
<text x="276.76" y="720" font-size="11" fill="#555555" text-anchor="middle">06:00</text>
<line x1="351.47" y1="627.55" x2="351.47" y2="647.74" stroke="#e74c3c" stroke-width="2"/>
<rect x="329.81" y="628.94" width="43.33" height="4.00" fill="#e74c3c" stroke="#e74c3c" stroke-width="1"/>
<text x="351.47" y="704" font-size="11" fill="#555555" text-anchor="middle">03-27</text>
<text x="351.47" y="720" font-size="11" fill="#555555" text-anchor="middle">07:00</text>
<line x1="426.18" y1="624.59" x2="426.18" y2="646.00" stroke="#e74c3c" stroke-width="2"/>
<rect x="404.51" y="632.24" width="43.33" height="2.44" fill="#e74c3c" stroke="#e74c3c" stroke-width="1"/>
<text x="426.18" y="704" font-size="11" fill="#555555" text-anchor="middle">03-27</text>
<text x="426.18" y="720" font-size="11" fill="#555555" text-anchor="middle">08:00</text>
<line x1="500.88" y1="617.62" x2="500.88" y2="641.30" stroke="#2ecc71" stroke-width="2"/>
<rect x="479.22" y="625.98" width="43.33" height="7.66" fill="#2ecc71" stroke="#2ecc71" stroke-width="1"/>
<text x="500.88" y="704" font-size="11" fill="#555555" text-anchor="middle">03-27</text>
<text x="500.88" y="720" font-size="11" fill="#555555" text-anchor="middle">09:00</text>
<line x1="575.59" y1="614.32" x2="575.59" y2="631.20" stroke="#e74c3c" stroke-width="2"/>
<rect x="553.92" y="625.28" width="43.33" height="3.66" fill="#e74c3c" stroke="#e74c3c" stroke-width="1"/>
<text x="575.59" y="704" font-size="11" fill="#555555" text-anchor="middle">03-27</text>
<text x="575.59" y="720" font-size="11" fill="#555555" text-anchor="middle">10:00</text>
<line x1="650.29" y1="612.75" x2="650.29" y2="636.94" stroke="#2ecc71" stroke-width="2"/>
<rect x="628.63" y="617.10" width="43.33" height="12.71" fill="#2ecc71" stroke="#2ecc71" stroke-width="1"/>
<text x="650.29" y="704" font-size="11" fill="#555555" text-anchor="middle">03-27</text>
<text x="650.29" y="720" font-size="11" fill="#555555" text-anchor="middle">11:00</text>
<line x1="725.00" y1="273.31" x2="725.00" y2="621.80" stroke="#2ecc71" stroke-width="2"/>
<rect x="703.34" y="304.99" width="43.33" height="311.41" fill="#2ecc71" stroke="#2ecc71" stroke-width="1"/>
<text x="725.00" y="704" font-size="11" fill="#555555" text-anchor="middle">03-27</text>
<text x="725.00" y="720" font-size="11" fill="#555555" text-anchor="middle">12:00</text>
<line x1="799.71" y1="223.88" x2="799.71" y2="383.15" stroke="#e74c3c" stroke-width="2"/>
<rect x="778.04" y="307.78" width="43.33" height="30.81" fill="#e74c3c" stroke="#e74c3c" stroke-width="1"/>
<text x="799.71" y="704" font-size="11" fill="#555555" text-anchor="middle">03-27</text>
<text x="799.71" y="720" font-size="11" fill="#555555" text-anchor="middle">13:00</text>
<line x1="874.41" y1="238.15" x2="874.41" y2="376.88" stroke="#e74c3c" stroke-width="2"/>
<rect x="852.75" y="338.94" width="43.33" height="20.37" fill="#e74c3c" stroke="#e74c3c" stroke-width="1"/>
<text x="874.41" y="704" font-size="11" fill="#555555" text-anchor="middle">03-27</text>
<text x="874.41" y="720" font-size="11" fill="#555555" text-anchor="middle">14:00</text>
<line x1="949.12" y1="133.01" x2="949.12" y2="386.63" stroke="#2ecc71" stroke-width="2"/>
<rect x="927.45" y="196.37" width="43.33" height="162.93" fill="#2ecc71" stroke="#2ecc71" stroke-width="1"/>
<text x="949.12" y="704" font-size="11" fill="#555555" text-anchor="middle">03-27</text>
<text x="949.12" y="720" font-size="11" fill="#555555" text-anchor="middle">15:00</text>
<line x1="1023.82" y1="158.43" x2="1023.82" y2="283.76" stroke="#e74c3c" stroke-width="2"/>
<rect x="1002.16" y="199.16" width="43.33" height="54.66" fill="#e74c3c" stroke="#e74c3c" stroke-width="1"/>
<text x="1023.82" y="704" font-size="11" fill="#555555" text-anchor="middle">03-27</text>
<text x="1023.82" y="720" font-size="11" fill="#555555" text-anchor="middle">16:00</text>
<line x1="1098.53" y1="210.65" x2="1098.53" y2="272.62" stroke="#2ecc71" stroke-width="2"/>
<rect x="1076.86" y="240.59" width="43.33" height="14.27" fill="#2ecc71" stroke="#2ecc71" stroke-width="1"/>
<text x="1098.53" y="704" font-size="11" fill="#555555" text-anchor="middle">03-27</text>
<text x="1098.53" y="720" font-size="11" fill="#555555" text-anchor="middle">17:00</text>
<line x1="1173.24" y1="158.25" x2="1173.24" y2="252.08" stroke="#2ecc71" stroke-width="2"/>
<rect x="1151.57" y="213.43" width="43.33" height="28.55" fill="#2ecc71" stroke="#2ecc71" stroke-width="1"/>
<text x="1173.24" y="704" font-size="11" fill="#555555" text-anchor="middle">03-27</text>
<text x="1173.24" y="720" font-size="11" fill="#555555" text-anchor="middle">18:00</text>
<line x1="1247.94" y1="79.92" x2="1247.94" y2="219.35" stroke="#2ecc71" stroke-width="2"/>
<rect x="1226.28" y="157.03" width="43.33" height="53.79" fill="#2ecc71" stroke="#2ecc71" stroke-width="1"/>
<text x="1247.94" y="704" font-size="11" fill="#555555" text-anchor="middle">03-27</text>
<text x="1247.94" y="720" font-size="11" fill="#555555" text-anchor="middle">19:00</text>
<line x1="1322.65" y1="70.00" x2="1322.65" y2="189.41" stroke="#2ecc71" stroke-width="2"/>
<rect x="1300.98" y="108.99" width="43.33" height="49.26" fill="#2ecc71" stroke="#2ecc71" stroke-width="1"/>
<text x="1322.65" y="704" font-size="11" fill="#555555" text-anchor="middle">03-27</text>
<text x="1322.65" y="720" font-size="11" fill="#555555" text-anchor="middle">20:00</text>
<line x1="725.00" y1="273.31" x2="805.00" y2="203.31" stroke="#f1c40f" stroke-width="2"/>
<rect x="805.00" y="155.31" width="220" height="72" rx="8" fill="#fff8dc" stroke="#f1c40f"/>
<text x="815.00" y="179.31" font-size="12" fill="#111111">目标K线 2026-03-27 12:00</text>
<text x="815.00" y="197.31" font-size="12" fill="#111111">振幅 31.64%</text>
<text x="815.00" y="215.31" font-size="12" fill="#111111">倍数 14.23x</text>
<line x1="650.29" y1="612.75" x2="620.29" y2="572.75" stroke="#3498db" stroke-width="2"/>
<rect x="400.29" y="536.75" width="220" height="58" rx="8" fill="#eef6ff" stroke="#3498db"/>
<text x="410.29" y="558.75" font-size="12" fill="#111111">前一根涨幅 1.17%</text>
<text x="410.29" y="576.75" font-size="12" fill="#111111">前一根振幅 2.22%</text>
</svg>