<svg xmlns="http://www.w3.org/2000/svg" width="1400" height="760" viewBox="0 0 1400 760">
<rect width="100%" height="100%" fill="#fcfcfc"/>
<text x="90" y="36" font-size="26" font-weight="700" fill="#111111">C_USDT 1H - 10倍命中</text>
<line x1="90" y1="70.00" x2="1360" y2="70.00" stroke="#d9d9d9" stroke-dasharray="4 4" stroke-width="1"/>
<text x="12" y="74.00" font-size="12" fill="#555555">0.086570</text>
<line x1="90" y1="186.00" x2="1360" y2="186.00" stroke="#d9d9d9" stroke-dasharray="4 4" stroke-width="1"/>
<text x="12" y="190.00" font-size="12" fill="#555555">0.080688</text>
<line x1="90" y1="302.00" x2="1360" y2="302.00" stroke="#d9d9d9" stroke-dasharray="4 4" stroke-width="1"/>
<text x="12" y="306.00" font-size="12" fill="#555555">0.074806</text>
<line x1="90" y1="418.00" x2="1360" y2="418.00" stroke="#d9d9d9" stroke-dasharray="4 4" stroke-width="1"/>
<text x="12" y="422.00" font-size="12" fill="#555555">0.068924</text>
<line x1="90" y1="534.00" x2="1360" y2="534.00" stroke="#d9d9d9" stroke-dasharray="4 4" stroke-width="1"/>
<text x="12" y="538.00" font-size="12" fill="#555555">0.063042</text>
<line x1="90" y1="650.00" x2="1360" y2="650.00" stroke="#d9d9d9" stroke-dasharray="4 4" stroke-width="1"/>
<text x="12" y="654.00" font-size="12" fill="#555555">0.057160</text>
<rect x="687.65" y="70" width="74.71" height="580.00" fill="#f1c40f" opacity="0.16"/>
<rect x="612.94" y="70" width="74.71" height="580.00" fill="#3498db" opacity="0.10"/>
<line x1="127.35" y1="564.61" x2="127.35" y2="649.01" stroke="#e74c3c" stroke-width="2"/>
<rect x="105.69" y="577.62" width="43.33" height="38.85" fill="#e74c3c" stroke="#e74c3c" stroke-width="1"/>
<text x="127.35" y="704" font-size="11" fill="#555555" text-anchor="middle">03-14</text>
<text x="127.35" y="720" font-size="11" fill="#555555" text-anchor="middle">17:00</text>
<line x1="202.06" y1="581.17" x2="202.06" y2="639.94" stroke="#2ecc71" stroke-width="2"/>
<rect x="180.39" y="617.85" width="43.33" height="1.20" fill="#2ecc71" stroke="#2ecc71" stroke-width="1"/>
<text x="202.06" y="704" font-size="11" fill="#555555" text-anchor="middle">03-14</text>
<text x="202.06" y="720" font-size="11" fill="#555555" text-anchor="middle">18:00</text>
<line x1="276.76" y1="608.19" x2="276.76" y2="641.72" stroke="#2ecc71" stroke-width="2"/>
<rect x="255.10" y="614.50" width="43.33" height="6.71" fill="#2ecc71" stroke="#2ecc71" stroke-width="1"/>
<text x="276.76" y="704" font-size="11" fill="#555555" text-anchor="middle">03-14</text>
<text x="276.76" y="720" font-size="11" fill="#555555" text-anchor="middle">19:00</text>
<line x1="351.47" y1="566.97" x2="351.47" y2="650.00" stroke="#2ecc71" stroke-width="2"/>
<rect x="329.81" y="609.97" width="43.33" height="2.56" fill="#2ecc71" stroke="#2ecc71" stroke-width="1"/>
<text x="351.47" y="704" font-size="11" fill="#555555" text-anchor="middle">03-14</text>
<text x="351.47" y="720" font-size="11" fill="#555555" text-anchor="middle">20:00</text>
<line x1="426.18" y1="572.10" x2="426.18" y2="616.67" stroke="#2ecc71" stroke-width="2"/>
<rect x="404.51" y="572.10" width="43.33" height="40.03" fill="#2ecc71" stroke="#2ecc71" stroke-width="1"/>
<text x="426.18" y="704" font-size="11" fill="#555555" text-anchor="middle">03-14</text>
<text x="426.18" y="720" font-size="11" fill="#555555" text-anchor="middle">21:00</text>
<line x1="500.88" y1="568.75" x2="500.88" y2="604.25" stroke="#e74c3c" stroke-width="2"/>
<rect x="479.22" y="576.24" width="43.33" height="21.89" fill="#e74c3c" stroke="#e74c3c" stroke-width="1"/>
<text x="500.88" y="704" font-size="11" fill="#555555" text-anchor="middle">03-14</text>
<text x="500.88" y="720" font-size="11" fill="#555555" text-anchor="middle">22:00</text>
<line x1="575.59" y1="562.44" x2="575.59" y2="598.53" stroke="#2ecc71" stroke-width="2"/>
<rect x="553.92" y="588.67" width="43.33" height="7.49" fill="#2ecc71" stroke="#2ecc71" stroke-width="1"/>
<text x="575.59" y="704" font-size="11" fill="#555555" text-anchor="middle">03-14</text>
<text x="575.59" y="720" font-size="11" fill="#555555" text-anchor="middle">23:00</text>
<line x1="650.29" y1="553.96" x2="650.29" y2="586.70" stroke="#2ecc71" stroke-width="2"/>
<rect x="628.63" y="564.02" width="43.33" height="22.68" fill="#2ecc71" stroke="#2ecc71" stroke-width="1"/>
<text x="650.29" y="704" font-size="11" fill="#555555" text-anchor="middle">03-15</text>
<text x="650.29" y="720" font-size="11" fill="#555555" text-anchor="middle">00:00</text>
<line x1="725.00" y1="178.47" x2="725.00" y2="569.93" stroke="#2ecc71" stroke-width="2"/>
<rect x="703.34" y="258.93" width="43.33" height="308.24" fill="#2ecc71" stroke="#2ecc71" stroke-width="1"/>
<text x="725.00" y="704" font-size="11" fill="#555555" text-anchor="middle">03-15</text>
<text x="725.00" y="720" font-size="11" fill="#555555" text-anchor="middle">01:00</text>
<line x1="799.71" y1="70.00" x2="799.71" y2="330.12" stroke="#2ecc71" stroke-width="2"/>
<rect x="778.04" y="148.49" width="43.33" height="110.44" fill="#2ecc71" stroke="#2ecc71" stroke-width="1"/>
<text x="799.71" y="704" font-size="11" fill="#555555" text-anchor="middle">03-15</text>
<text x="799.71" y="720" font-size="11" fill="#555555" text-anchor="middle">02:00</text>
<line x1="874.41" y1="136.66" x2="874.41" y2="285.75" stroke="#e74c3c" stroke-width="2"/>
<rect x="852.75" y="148.29" width="43.33" height="84.21" fill="#e74c3c" stroke="#e74c3c" stroke-width="1"/>
<text x="874.41" y="704" font-size="11" fill="#555555" text-anchor="middle">03-15</text>
<text x="874.41" y="720" font-size="11" fill="#555555" text-anchor="middle">03:00</text>
<line x1="949.12" y1="234.47" x2="949.12" y2="341.56" stroke="#e74c3c" stroke-width="2"/>
<rect x="927.45" y="234.47" width="43.33" height="77.31" fill="#e74c3c" stroke="#e74c3c" stroke-width="1"/>
<text x="949.12" y="704" font-size="11" fill="#555555" text-anchor="middle">03-15</text>
<text x="949.12" y="720" font-size="11" fill="#555555" text-anchor="middle">04:00</text>
<line x1="1023.82" y1="191.29" x2="1023.82" y2="313.95" stroke="#2ecc71" stroke-width="2"/>
<rect x="1002.16" y="246.70" width="43.33" height="59.36" fill="#2ecc71" stroke="#2ecc71" stroke-width="1"/>
<text x="1023.82" y="704" font-size="11" fill="#555555" text-anchor="middle">03-15</text>
<text x="1023.82" y="720" font-size="11" fill="#555555" text-anchor="middle">05:00</text>
<line x1="1098.53" y1="220.08" x2="1098.53" y2="291.47" stroke="#2ecc71" stroke-width="2"/>
<rect x="1076.86" y="227.57" width="43.33" height="23.07" fill="#2ecc71" stroke="#2ecc71" stroke-width="1"/>
<text x="1098.53" y="704" font-size="11" fill="#555555" text-anchor="middle">03-15</text>
<text x="1098.53" y="720" font-size="11" fill="#555555" text-anchor="middle">06:00</text>
<line x1="1173.24" y1="202.33" x2="1173.24" y2="279.64" stroke="#e74c3c" stroke-width="2"/>
<rect x="1151.57" y="227.18" width="43.33" height="44.37" fill="#e74c3c" stroke="#e74c3c" stroke-width="1"/>
<text x="1173.24" y="704" font-size="11" fill="#555555" text-anchor="middle">03-15</text>
<text x="1173.24" y="720" font-size="11" fill="#555555" text-anchor="middle">07:00</text>
<line x1="1247.94" y1="219.29" x2="1247.94" y2="307.64" stroke="#e74c3c" stroke-width="2"/>
<rect x="1226.28" y="272.34" width="43.33" height="6.90" fill="#e74c3c" stroke="#e74c3c" stroke-width="1"/>
<text x="1247.94" y="704" font-size="11" fill="#555555" text-anchor="middle">03-15</text>
<text x="1247.94" y="720" font-size="11" fill="#555555" text-anchor="middle">08:00</text>
<line x1="1322.65" y1="221.46" x2="1322.65" y2="299.55" stroke="#2ecc71" stroke-width="2"/>
<rect x="1300.98" y="244.34" width="43.33" height="36.68" fill="#2ecc71" stroke="#2ecc71" stroke-width="1"/>
<text x="1322.65" y="704" font-size="11" fill="#555555" text-anchor="middle">03-15</text>
<text x="1322.65" y="720" font-size="11" fill="#555555" text-anchor="middle">09:00</text>
<line x1="725.00" y1="178.47" x2="805.00" y2="108.47" stroke="#f1c40f" stroke-width="2"/>
<rect x="805.00" y="60.47" width="220" height="72" rx="8" fill="#fff8dc" stroke="#f1c40f"/>
<text x="815.00" y="84.47" font-size="12" fill="#111111">目标K线 2026-03-15 01:00</text>
<text x="815.00" y="102.47" font-size="12" fill="#111111">振幅 32.35%</text>
<text x="815.00" y="120.47" font-size="12" fill="#111111">倍数 11.76x</text>
<line x1="650.29" y1="553.96" x2="620.29" y2="513.96" stroke="#3498db" stroke-width="2"/>
<rect x="400.29" y="477.96" width="220" height="58" rx="8" fill="#eef6ff" stroke="#3498db"/>
<text x="410.29" y="499.96" font-size="12" fill="#111111">前一根涨幅 1.90%</text>
<text x="410.29" y="517.96" font-size="12" fill="#111111">前一根振幅 2.75%</text>
</svg>