<svg xmlns="http://www.w3.org/2000/svg" width="1400" height="760" viewBox="0 0 1400 760">
<rect width="100%" height="100%" fill="#fcfcfc"/>
<text x="90" y="36" font-size="26" font-weight="700" fill="#111111">CROSS_USDT 1H - 10倍命中</text>
<line x1="90" y1="70.00" x2="1360" y2="70.00" stroke="#d9d9d9" stroke-dasharray="4 4" stroke-width="1"/>
<text x="12" y="74.00" font-size="12" fill="#555555">0.100770</text>
<line x1="90" y1="186.00" x2="1360" y2="186.00" stroke="#d9d9d9" stroke-dasharray="4 4" stroke-width="1"/>
<text x="12" y="190.00" font-size="12" fill="#555555">0.093354</text>
<line x1="90" y1="302.00" x2="1360" y2="302.00" stroke="#d9d9d9" stroke-dasharray="4 4" stroke-width="1"/>
<text x="12" y="306.00" font-size="12" fill="#555555">0.085938</text>
<line x1="90" y1="418.00" x2="1360" y2="418.00" stroke="#d9d9d9" stroke-dasharray="4 4" stroke-width="1"/>
<text x="12" y="422.00" font-size="12" fill="#555555">0.078522</text>
<line x1="90" y1="534.00" x2="1360" y2="534.00" stroke="#d9d9d9" stroke-dasharray="4 4" stroke-width="1"/>
<text x="12" y="538.00" font-size="12" fill="#555555">0.071106</text>
<line x1="90" y1="650.00" x2="1360" y2="650.00" stroke="#d9d9d9" stroke-dasharray="4 4" stroke-width="1"/>
<text x="12" y="654.00" font-size="12" fill="#555555">0.063690</text>
<rect x="687.65" y="70" width="74.71" height="580.00" fill="#f1c40f" opacity="0.16"/>
<rect x="612.94" y="70" width="74.71" height="580.00" fill="#3498db" opacity="0.10"/>
<line x1="127.35" y1="631.86" x2="127.35" y2="650.00" stroke="#2ecc71" stroke-width="2"/>
<rect x="105.69" y="632.95" width="43.33" height="12.98" fill="#2ecc71" stroke="#2ecc71" stroke-width="1"/>
<text x="127.35" y="704" font-size="11" fill="#555555" text-anchor="middle">04-11</text>
<text x="127.35" y="720" font-size="11" fill="#555555" text-anchor="middle">06:00</text>
<line x1="202.06" y1="615.12" x2="202.06" y2="638.89" stroke="#2ecc71" stroke-width="2"/>
<rect x="180.39" y="619.34" width="43.33" height="13.61" fill="#2ecc71" stroke="#2ecc71" stroke-width="1"/>
<text x="202.06" y="704" font-size="11" fill="#555555" text-anchor="middle">04-11</text>
<text x="202.06" y="720" font-size="11" fill="#555555" text-anchor="middle">07:00</text>
<line x1="276.76" y1="555.37" x2="276.76" y2="621.38" stroke="#2ecc71" stroke-width="2"/>
<rect x="255.10" y="603.07" width="43.33" height="16.27" fill="#2ecc71" stroke="#2ecc71" stroke-width="1"/>
<text x="276.76" y="704" font-size="11" fill="#555555" text-anchor="middle">04-11</text>
<text x="276.76" y="720" font-size="11" fill="#555555" text-anchor="middle">08:00</text>
<line x1="351.47" y1="593.38" x2="351.47" y2="625.91" stroke="#e74c3c" stroke-width="2"/>
<rect x="329.81" y="604.64" width="43.33" height="18.14" fill="#e74c3c" stroke="#e74c3c" stroke-width="1"/>
<text x="351.47" y="704" font-size="11" fill="#555555" text-anchor="middle">04-11</text>
<text x="351.47" y="720" font-size="11" fill="#555555" text-anchor="middle">09:00</text>
<line x1="426.18" y1="609.49" x2="426.18" y2="626.22" stroke="#2ecc71" stroke-width="2"/>
<rect x="404.51" y="618.25" width="43.33" height="1.72" fill="#2ecc71" stroke="#2ecc71" stroke-width="1"/>
<text x="426.18" y="704" font-size="11" fill="#555555" text-anchor="middle">04-11</text>
<text x="426.18" y="720" font-size="11" fill="#555555" text-anchor="middle">10:00</text>
<line x1="500.88" y1="595.88" x2="500.88" y2="629.51" stroke="#e74c3c" stroke-width="2"/>
<rect x="479.22" y="610.74" width="43.33" height="18.77" fill="#e74c3c" stroke="#e74c3c" stroke-width="1"/>
<text x="500.88" y="704" font-size="11" fill="#555555" text-anchor="middle">04-11</text>
<text x="500.88" y="720" font-size="11" fill="#555555" text-anchor="middle">11:00</text>
<line x1="575.59" y1="604.48" x2="575.59" y2="629.82" stroke="#2ecc71" stroke-width="2"/>
<rect x="553.92" y="615.12" width="43.33" height="14.70" fill="#2ecc71" stroke="#2ecc71" stroke-width="1"/>
<text x="575.59" y="704" font-size="11" fill="#555555" text-anchor="middle">04-11</text>
<text x="575.59" y="720" font-size="11" fill="#555555" text-anchor="middle">12:00</text>
<line x1="650.29" y1="598.85" x2="650.29" y2="615.90" stroke="#2ecc71" stroke-width="2"/>
<rect x="628.63" y="600.73" width="43.33" height="15.17" fill="#2ecc71" stroke="#2ecc71" stroke-width="1"/>
<text x="650.29" y="704" font-size="11" fill="#555555" text-anchor="middle">04-11</text>
<text x="650.29" y="720" font-size="11" fill="#555555" text-anchor="middle">13:00</text>
<line x1="725.00" y1="70.00" x2="725.00" y2="615.43" stroke="#2ecc71" stroke-width="2"/>
<rect x="703.34" y="115.83" width="43.33" height="485.21" fill="#2ecc71" stroke="#2ecc71" stroke-width="1"/>
<text x="725.00" y="704" font-size="11" fill="#555555" text-anchor="middle">04-11</text>
<text x="725.00" y="720" font-size="11" fill="#555555" text-anchor="middle">14:00</text>
<line x1="799.71" y1="93.78" x2="799.71" y2="454.16" stroke="#e74c3c" stroke-width="2"/>
<rect x="778.04" y="115.99" width="43.33" height="282.96" fill="#e74c3c" stroke="#e74c3c" stroke-width="1"/>
<text x="799.71" y="704" font-size="11" fill="#555555" text-anchor="middle">04-11</text>
<text x="799.71" y="720" font-size="11" fill="#555555" text-anchor="middle">15:00</text>
<line x1="874.41" y1="300.25" x2="874.41" y2="435.86" stroke="#2ecc71" stroke-width="2"/>
<rect x="852.75" y="384.09" width="43.33" height="17.99" fill="#2ecc71" stroke="#2ecc71" stroke-width="1"/>
<text x="874.41" y="704" font-size="11" fill="#555555" text-anchor="middle">04-11</text>
<text x="874.41" y="720" font-size="11" fill="#555555" text-anchor="middle">16:00</text>
<line x1="949.12" y1="308.85" x2="949.12" y2="417.41" stroke="#2ecc71" stroke-width="2"/>
<rect x="927.45" y="360.47" width="43.33" height="22.06" fill="#2ecc71" stroke="#2ecc71" stroke-width="1"/>
<text x="949.12" y="704" font-size="11" fill="#555555" text-anchor="middle">04-11</text>
<text x="949.12" y="720" font-size="11" fill="#555555" text-anchor="middle">17:00</text>
<line x1="1023.82" y1="291.02" x2="1023.82" y2="381.59" stroke="#2ecc71" stroke-width="2"/>
<rect x="1002.16" y="347.80" width="43.33" height="12.51" fill="#2ecc71" stroke="#2ecc71" stroke-width="1"/>
<text x="1023.82" y="704" font-size="11" fill="#555555" text-anchor="middle">04-11</text>
<text x="1023.82" y="720" font-size="11" fill="#555555" text-anchor="middle">18:00</text>
<line x1="1098.53" y1="337.94" x2="1098.53" y2="434.14" stroke="#e74c3c" stroke-width="2"/>
<rect x="1076.86" y="349.36" width="43.33" height="49.43" fill="#e74c3c" stroke="#e74c3c" stroke-width="1"/>
<text x="1098.53" y="704" font-size="11" fill="#555555" text-anchor="middle">04-11</text>
<text x="1098.53" y="720" font-size="11" fill="#555555" text-anchor="middle">19:00</text>
<line x1="1173.24" y1="375.95" x2="1173.24" y2="409.43" stroke="#2ecc71" stroke-width="2"/>
<rect x="1151.57" y="382.21" width="43.33" height="15.33" fill="#2ecc71" stroke="#2ecc71" stroke-width="1"/>
<text x="1173.24" y="704" font-size="11" fill="#555555" text-anchor="middle">04-11</text>
<text x="1173.24" y="720" font-size="11" fill="#555555" text-anchor="middle">20:00</text>
<line x1="1247.94" y1="331.53" x2="1247.94" y2="386.90" stroke="#2ecc71" stroke-width="2"/>
<rect x="1226.28" y="363.60" width="43.33" height="19.55" fill="#2ecc71" stroke="#2ecc71" stroke-width="1"/>
<text x="1247.94" y="704" font-size="11" fill="#555555" text-anchor="middle">04-11</text>
<text x="1247.94" y="720" font-size="11" fill="#555555" text-anchor="middle">21:00</text>
<line x1="1322.65" y1="334.03" x2="1322.65" y2="433.05" stroke="#e74c3c" stroke-width="2"/>
<rect x="1300.98" y="363.28" width="43.33" height="54.12" fill="#e74c3c" stroke="#e74c3c" stroke-width="1"/>
<text x="1322.65" y="704" font-size="11" fill="#555555" text-anchor="middle">04-11</text>
<text x="1322.65" y="720" font-size="11" fill="#555555" text-anchor="middle">22:00</text>
<line x1="725.00" y1="70.00" x2="805.00" y2="90.00" stroke="#f1c40f" stroke-width="2"/>
<rect x="805.00" y="42.00" width="220" height="72" rx="8" fill="#fff8dc" stroke="#f1c40f"/>
<text x="815.00" y="66.00" font-size="12" fill="#111111">目标K线 2026-04-11 14:00</text>
<text x="815.00" y="84.00" font-size="12" fill="#111111">振幅 52.18%</text>
<text x="815.00" y="102.00" font-size="12" fill="#111111">倍数 31.54x</text>
<line x1="650.29" y1="598.85" x2="620.29" y2="558.85" stroke="#3498db" stroke-width="2"/>
<rect x="400.29" y="522.85" width="220" height="58" rx="8" fill="#eef6ff" stroke="#3498db"/>
<text x="410.29" y="544.85" font-size="12" fill="#111111">前一根涨幅 1.47%</text>
<text x="410.29" y="562.85" font-size="12" fill="#111111">前一根振幅 1.65%</text>
</svg>