<svg xmlns="http://www.w3.org/2000/svg" width="1400" height="760" viewBox="0 0 1400 760">
<rect width="100%" height="100%" fill="#fcfcfc"/>
<text x="90" y="36" font-size="26" font-weight="700" fill="#111111">CTK_USDT 1H - 10倍命中</text>
<line x1="90" y1="70.00" x2="1360" y2="70.00" stroke="#d9d9d9" stroke-dasharray="4 4" stroke-width="1"/>
<text x="12" y="74.00" font-size="12" fill="#555555">0.402400</text>
<line x1="90" y1="186.00" x2="1360" y2="186.00" stroke="#d9d9d9" stroke-dasharray="4 4" stroke-width="1"/>
<text x="12" y="190.00" font-size="12" fill="#555555">0.388580</text>
<line x1="90" y1="302.00" x2="1360" y2="302.00" stroke="#d9d9d9" stroke-dasharray="4 4" stroke-width="1"/>
<text x="12" y="306.00" font-size="12" fill="#555555">0.374760</text>
<line x1="90" y1="418.00" x2="1360" y2="418.00" stroke="#d9d9d9" stroke-dasharray="4 4" stroke-width="1"/>
<text x="12" y="422.00" font-size="12" fill="#555555">0.360940</text>
<line x1="90" y1="534.00" x2="1360" y2="534.00" stroke="#d9d9d9" stroke-dasharray="4 4" stroke-width="1"/>
<text x="12" y="538.00" font-size="12" fill="#555555">0.347120</text>
<line x1="90" y1="650.00" x2="1360" y2="650.00" stroke="#d9d9d9" stroke-dasharray="4 4" stroke-width="1"/>
<text x="12" y="654.00" font-size="12" fill="#555555">0.333300</text>
<rect x="687.65" y="70" width="74.71" height="580.00" fill="#f1c40f" opacity="0.16"/>
<rect x="612.94" y="70" width="74.71" height="580.00" fill="#3498db" opacity="0.10"/>
<line x1="127.35" y1="561.87" x2="127.35" y2="597.12" stroke="#2ecc71" stroke-width="2"/>
<rect x="105.69" y="567.74" width="43.33" height="29.38" fill="#2ecc71" stroke="#2ecc71" stroke-width="1"/>
<text x="127.35" y="704" font-size="11" fill="#555555" text-anchor="middle">04-29</text>
<text x="127.35" y="720" font-size="11" fill="#555555" text-anchor="middle">15:00</text>
<line x1="202.06" y1="568.58" x2="202.06" y2="602.16" stroke="#e74c3c" stroke-width="2"/>
<rect x="180.39" y="572.78" width="43.33" height="25.18" fill="#e74c3c" stroke="#e74c3c" stroke-width="1"/>
<text x="202.06" y="704" font-size="11" fill="#555555" text-anchor="middle">04-29</text>
<text x="202.06" y="720" font-size="11" fill="#555555" text-anchor="middle">16:00</text>
<line x1="276.76" y1="599.64" x2="276.76" y2="623.14" stroke="#e74c3c" stroke-width="2"/>
<rect x="255.10" y="599.64" width="43.33" height="6.71" fill="#e74c3c" stroke="#e74c3c" stroke-width="1"/>
<text x="276.76" y="704" font-size="11" fill="#555555" text-anchor="middle">04-29</text>
<text x="276.76" y="720" font-size="11" fill="#555555" text-anchor="middle">17:00</text>
<line x1="351.47" y1="607.19" x2="351.47" y2="640.77" stroke="#e74c3c" stroke-width="2"/>
<rect x="329.81" y="615.59" width="43.33" height="21.82" fill="#e74c3c" stroke="#e74c3c" stroke-width="1"/>
<text x="351.47" y="704" font-size="11" fill="#555555" text-anchor="middle">04-29</text>
<text x="351.47" y="720" font-size="11" fill="#555555" text-anchor="middle">18:00</text>
<line x1="426.18" y1="623.98" x2="426.18" y2="647.48" stroke="#2ecc71" stroke-width="2"/>
<rect x="404.51" y="631.53" width="43.33" height="6.71" fill="#2ecc71" stroke="#2ecc71" stroke-width="1"/>
<text x="426.18" y="704" font-size="11" fill="#555555" text-anchor="middle">04-29</text>
<text x="426.18" y="720" font-size="11" fill="#555555" text-anchor="middle">19:00</text>
<line x1="500.88" y1="626.50" x2="500.88" y2="650.00" stroke="#e74c3c" stroke-width="2"/>
<rect x="479.22" y="631.53" width="43.33" height="8.39" fill="#e74c3c" stroke="#e74c3c" stroke-width="1"/>
<text x="500.88" y="704" font-size="11" fill="#555555" text-anchor="middle">04-29</text>
<text x="500.88" y="720" font-size="11" fill="#555555" text-anchor="middle">20:00</text>
<line x1="575.59" y1="620.62" x2="575.59" y2="645.80" stroke="#2ecc71" stroke-width="2"/>
<rect x="553.92" y="622.30" width="43.33" height="17.63" fill="#2ecc71" stroke="#2ecc71" stroke-width="1"/>
<text x="575.59" y="704" font-size="11" fill="#555555" text-anchor="middle">04-29</text>
<text x="575.59" y="720" font-size="11" fill="#555555" text-anchor="middle">21:00</text>
<line x1="650.29" y1="591.24" x2="650.29" y2="634.05" stroke="#2ecc71" stroke-width="2"/>
<rect x="628.63" y="594.60" width="43.33" height="35.25" fill="#2ecc71" stroke="#2ecc71" stroke-width="1"/>
<text x="650.29" y="704" font-size="11" fill="#555555" text-anchor="middle">04-29</text>
<text x="650.29" y="720" font-size="11" fill="#555555" text-anchor="middle">22:00</text>
<line x1="725.00" y1="119.52" x2="725.00" y2="601.32" stroke="#2ecc71" stroke-width="2"/>
<rect x="703.34" y="472.05" width="43.33" height="116.67" fill="#2ecc71" stroke="#2ecc71" stroke-width="1"/>
<text x="725.00" y="704" font-size="11" fill="#555555" text-anchor="middle">04-29</text>
<text x="725.00" y="720" font-size="11" fill="#555555" text-anchor="middle">23:00</text>
<line x1="799.71" y1="335.24" x2="799.71" y2="498.91" stroke="#2ecc71" stroke-width="2"/>
<rect x="778.04" y="335.24" width="43.33" height="160.32" fill="#2ecc71" stroke="#2ecc71" stroke-width="1"/>
<text x="799.71" y="704" font-size="11" fill="#555555" text-anchor="middle">04-30</text>
<text x="799.71" y="720" font-size="11" fill="#555555" text-anchor="middle">00:00</text>
<line x1="874.41" y1="322.65" x2="874.41" y2="449.39" stroke="#e74c3c" stroke-width="2"/>
<rect x="852.75" y="376.37" width="43.33" height="57.08" fill="#e74c3c" stroke="#e74c3c" stroke-width="1"/>
<text x="874.41" y="704" font-size="11" fill="#555555" text-anchor="middle">04-30</text>
<text x="874.41" y="720" font-size="11" fill="#555555" text-anchor="middle">01:00</text>
<line x1="949.12" y1="305.02" x2="949.12" y2="458.63" stroke="#2ecc71" stroke-width="2"/>
<rect x="927.45" y="332.72" width="43.33" height="109.96" fill="#2ecc71" stroke="#2ecc71" stroke-width="1"/>
<text x="949.12" y="704" font-size="11" fill="#555555" text-anchor="middle">04-30</text>
<text x="949.12" y="720" font-size="11" fill="#555555" text-anchor="middle">02:00</text>
<line x1="1023.82" y1="223.60" x2="1023.82" y2="343.63" stroke="#2ecc71" stroke-width="2"/>
<rect x="1002.16" y="310.90" width="43.33" height="30.22" fill="#2ecc71" stroke="#2ecc71" stroke-width="1"/>
<text x="1023.82" y="704" font-size="11" fill="#555555" text-anchor="middle">04-30</text>
<text x="1023.82" y="720" font-size="11" fill="#555555" text-anchor="middle">03:00</text>
<line x1="1098.53" y1="177.44" x2="1098.53" y2="366.30" stroke="#e74c3c" stroke-width="2"/>
<rect x="1076.86" y="273.13" width="43.33" height="17.63" fill="#e74c3c" stroke="#e74c3c" stroke-width="1"/>
<text x="1098.53" y="704" font-size="11" fill="#555555" text-anchor="middle">04-30</text>
<text x="1098.53" y="720" font-size="11" fill="#555555" text-anchor="middle">04:00</text>
<line x1="1173.24" y1="288.23" x2="1173.24" y2="377.21" stroke="#e74c3c" stroke-width="2"/>
<rect x="1151.57" y="291.59" width="43.33" height="41.13" fill="#e74c3c" stroke="#e74c3c" stroke-width="1"/>
<text x="1173.24" y="704" font-size="11" fill="#555555" text-anchor="middle">04-30</text>
<text x="1173.24" y="720" font-size="11" fill="#555555" text-anchor="middle">05:00</text>
<line x1="1247.94" y1="184.15" x2="1247.94" y2="368.81" stroke="#2ecc71" stroke-width="2"/>
<rect x="1226.28" y="202.62" width="43.33" height="123.39" fill="#2ecc71" stroke="#2ecc71" stroke-width="1"/>
<text x="1247.94" y="704" font-size="11" fill="#555555" text-anchor="middle">04-30</text>
<text x="1247.94" y="720" font-size="11" fill="#555555" text-anchor="middle">06:00</text>
<line x1="1322.65" y1="70.00" x2="1322.65" y2="311.74" stroke="#e74c3c" stroke-width="2"/>
<rect x="1300.98" y="203.46" width="43.33" height="43.65" fill="#e74c3c" stroke="#e74c3c" stroke-width="1"/>
<text x="1322.65" y="704" font-size="11" fill="#555555" text-anchor="middle">04-30</text>
<text x="1322.65" y="720" font-size="11" fill="#555555" text-anchor="middle">07:00</text>
<line x1="725.00" y1="119.52" x2="805.00" y2="90.00" stroke="#f1c40f" stroke-width="2"/>
<rect x="805.00" y="42.00" width="220" height="72" rx="8" fill="#fff8dc" stroke="#f1c40f"/>
<text x="815.00" y="66.00" font-size="12" fill="#111111">目标K线 2025-04-29 23:00</text>
<text x="815.00" y="84.00" font-size="12" fill="#111111">振幅 16.85%</text>
<text x="815.00" y="102.00" font-size="12" fill="#111111">倍数 11.09x</text>
<line x1="650.29" y1="591.24" x2="620.29" y2="551.24" stroke="#3498db" stroke-width="2"/>
<rect x="400.29" y="515.24" width="220" height="58" rx="8" fill="#eef6ff" stroke="#3498db"/>
<text x="410.29" y="537.24" font-size="12" fill="#111111">前一根涨幅 1.25%</text>
<text x="410.29" y="555.24" font-size="12" fill="#111111">前一根振幅 1.52%</text>
</svg>