<svg xmlns="http://www.w3.org/2000/svg" width="1400" height="760" viewBox="0 0 1400 760">
<rect width="100%" height="100%" fill="#fcfcfc"/>
<text x="90" y="36" font-size="26" font-weight="700" fill="#111111">D_USDT 1H - 10倍命中</text>
<line x1="90" y1="70.00" x2="1360" y2="70.00" stroke="#d9d9d9" stroke-dasharray="4 4" stroke-width="1"/>
<text x="12" y="74.00" font-size="12" fill="#555555">0.017620</text>
<line x1="90" y1="186.00" x2="1360" y2="186.00" stroke="#d9d9d9" stroke-dasharray="4 4" stroke-width="1"/>
<text x="12" y="190.00" font-size="12" fill="#555555">0.016508</text>
<line x1="90" y1="302.00" x2="1360" y2="302.00" stroke="#d9d9d9" stroke-dasharray="4 4" stroke-width="1"/>
<text x="12" y="306.00" font-size="12" fill="#555555">0.015396</text>
<line x1="90" y1="418.00" x2="1360" y2="418.00" stroke="#d9d9d9" stroke-dasharray="4 4" stroke-width="1"/>
<text x="12" y="422.00" font-size="12" fill="#555555">0.014284</text>
<line x1="90" y1="534.00" x2="1360" y2="534.00" stroke="#d9d9d9" stroke-dasharray="4 4" stroke-width="1"/>
<text x="12" y="538.00" font-size="12" fill="#555555">0.013172</text>
<line x1="90" y1="650.00" x2="1360" y2="650.00" stroke="#d9d9d9" stroke-dasharray="4 4" stroke-width="1"/>
<text x="12" y="654.00" font-size="12" fill="#555555">0.012060</text>
<rect x="687.65" y="70" width="74.71" height="580.00" fill="#f1c40f" opacity="0.16"/>
<rect x="612.94" y="70" width="74.71" height="580.00" fill="#3498db" opacity="0.10"/>
<line x1="127.35" y1="620.79" x2="127.35" y2="636.44" stroke="#e74c3c" stroke-width="2"/>
<rect x="105.69" y="628.09" width="43.33" height="1.20" fill="#e74c3c" stroke="#e74c3c" stroke-width="1"/>
<text x="127.35" y="704" font-size="11" fill="#555555" text-anchor="middle">01-20</text>
<text x="127.35" y="720" font-size="11" fill="#555555" text-anchor="middle">13:00</text>
<line x1="202.06" y1="635.40" x2="202.06" y2="646.87" stroke="#2ecc71" stroke-width="2"/>
<rect x="180.39" y="637.48" width="43.33" height="2.09" fill="#2ecc71" stroke="#2ecc71" stroke-width="1"/>
<text x="202.06" y="704" font-size="11" fill="#555555" text-anchor="middle">01-20</text>
<text x="202.06" y="720" font-size="11" fill="#555555" text-anchor="middle">14:00</text>
<line x1="276.76" y1="626.01" x2="276.76" y2="639.57" stroke="#e74c3c" stroke-width="2"/>
<rect x="255.10" y="633.31" width="43.33" height="4.17" fill="#e74c3c" stroke="#e74c3c" stroke-width="1"/>
<text x="276.76" y="704" font-size="11" fill="#555555" text-anchor="middle">01-20</text>
<text x="276.76" y="720" font-size="11" fill="#555555" text-anchor="middle">15:00</text>
<line x1="351.47" y1="634.35" x2="351.47" y2="650.00" stroke="#e74c3c" stroke-width="2"/>
<rect x="329.81" y="638.53" width="43.33" height="7.30" fill="#e74c3c" stroke="#e74c3c" stroke-width="1"/>
<text x="351.47" y="704" font-size="11" fill="#555555" text-anchor="middle">01-20</text>
<text x="351.47" y="720" font-size="11" fill="#555555" text-anchor="middle">16:00</text>
<line x1="426.18" y1="629.14" x2="426.18" y2="646.87" stroke="#2ecc71" stroke-width="2"/>
<rect x="404.51" y="634.35" width="43.33" height="11.47" fill="#2ecc71" stroke="#2ecc71" stroke-width="1"/>
<text x="426.18" y="704" font-size="11" fill="#555555" text-anchor="middle">01-20</text>
<text x="426.18" y="720" font-size="11" fill="#555555" text-anchor="middle">17:00</text>
<line x1="500.88" y1="620.79" x2="500.88" y2="634.35" stroke="#2ecc71" stroke-width="2"/>
<rect x="479.22" y="620.79" width="43.33" height="13.56" fill="#2ecc71" stroke="#2ecc71" stroke-width="1"/>
<text x="500.88" y="704" font-size="11" fill="#555555" text-anchor="middle">01-20</text>
<text x="500.88" y="720" font-size="11" fill="#555555" text-anchor="middle">18:00</text>
<line x1="575.59" y1="621.83" x2="575.59" y2="636.44" stroke="#e74c3c" stroke-width="2"/>
<rect x="553.92" y="621.83" width="43.33" height="14.60" fill="#e74c3c" stroke="#e74c3c" stroke-width="1"/>
<text x="575.59" y="704" font-size="11" fill="#555555" text-anchor="middle">01-20</text>
<text x="575.59" y="720" font-size="11" fill="#555555" text-anchor="middle">19:00</text>
<line x1="650.29" y1="614.53" x2="650.29" y2="635.40" stroke="#2ecc71" stroke-width="2"/>
<rect x="628.63" y="614.53" width="43.33" height="20.86" fill="#2ecc71" stroke="#2ecc71" stroke-width="1"/>
<text x="650.29" y="704" font-size="11" fill="#555555" text-anchor="middle">01-20</text>
<text x="650.29" y="720" font-size="11" fill="#555555" text-anchor="middle">20:00</text>
<line x1="725.00" y1="194.14" x2="725.00" y2="619.75" stroke="#2ecc71" stroke-width="2"/>
<rect x="703.34" y="295.32" width="43.33" height="308.78" fill="#2ecc71" stroke="#2ecc71" stroke-width="1"/>
<text x="725.00" y="704" font-size="11" fill="#555555" text-anchor="middle">01-20</text>
<text x="725.00" y="720" font-size="11" fill="#555555" text-anchor="middle">21:00</text>
<line x1="799.71" y1="70.00" x2="799.71" y2="351.65" stroke="#2ecc71" stroke-width="2"/>
<rect x="778.04" y="191.01" width="43.33" height="106.40" fill="#2ecc71" stroke="#2ecc71" stroke-width="1"/>
<text x="799.71" y="704" font-size="11" fill="#555555" text-anchor="middle">01-20</text>
<text x="799.71" y="720" font-size="11" fill="#555555" text-anchor="middle">22:00</text>
<line x1="874.41" y1="200.40" x2="874.41" y2="379.82" stroke="#e74c3c" stroke-width="2"/>
<rect x="852.75" y="200.40" width="43.33" height="158.56" fill="#e74c3c" stroke="#e74c3c" stroke-width="1"/>
<text x="874.41" y="704" font-size="11" fill="#555555" text-anchor="middle">01-20</text>
<text x="874.41" y="720" font-size="11" fill="#555555" text-anchor="middle">23:00</text>
<line x1="949.12" y1="293.24" x2="949.12" y2="382.95" stroke="#2ecc71" stroke-width="2"/>
<rect x="927.45" y="309.93" width="43.33" height="46.94" fill="#2ecc71" stroke="#2ecc71" stroke-width="1"/>
<text x="949.12" y="704" font-size="11" fill="#555555" text-anchor="middle">01-21</text>
<text x="949.12" y="720" font-size="11" fill="#555555" text-anchor="middle">00:00</text>
<line x1="1023.82" y1="301.58" x2="1023.82" y2="433.02" stroke="#e74c3c" stroke-width="2"/>
<rect x="1002.16" y="314.10" width="43.33" height="99.10" fill="#e74c3c" stroke="#e74c3c" stroke-width="1"/>
<text x="1023.82" y="704" font-size="11" fill="#555555" text-anchor="middle">01-21</text>
<text x="1023.82" y="720" font-size="11" fill="#555555" text-anchor="middle">01:00</text>
<line x1="1098.53" y1="368.35" x2="1098.53" y2="427.81" stroke="#2ecc71" stroke-width="2"/>
<rect x="1076.86" y="405.90" width="43.33" height="9.39" fill="#2ecc71" stroke="#2ecc71" stroke-width="1"/>
<text x="1098.53" y="704" font-size="11" fill="#555555" text-anchor="middle">01-21</text>
<text x="1098.53" y="720" font-size="11" fill="#555555" text-anchor="middle">02:00</text>
<line x1="1173.24" y1="290.11" x2="1173.24" y2="411.12" stroke="#2ecc71" stroke-width="2"/>
<rect x="1151.57" y="392.34" width="43.33" height="7.30" fill="#2ecc71" stroke="#2ecc71" stroke-width="1"/>
<text x="1173.24" y="704" font-size="11" fill="#555555" text-anchor="middle">01-21</text>
<text x="1173.24" y="720" font-size="11" fill="#555555" text-anchor="middle">03:00</text>
<line x1="1247.94" y1="361.04" x2="1247.94" y2="412.16" stroke="#e74c3c" stroke-width="2"/>
<rect x="1226.28" y="392.34" width="43.33" height="5.22" fill="#e74c3c" stroke="#e74c3c" stroke-width="1"/>
<text x="1247.94" y="704" font-size="11" fill="#555555" text-anchor="middle">01-21</text>
<text x="1247.94" y="720" font-size="11" fill="#555555" text-anchor="middle">04:00</text>
<line x1="1322.65" y1="397.55" x2="1322.65" y2="471.62" stroke="#e74c3c" stroke-width="2"/>
<rect x="1300.98" y="397.55" width="43.33" height="54.24" fill="#e74c3c" stroke="#e74c3c" stroke-width="1"/>
<text x="1322.65" y="704" font-size="11" fill="#555555" text-anchor="middle">01-21</text>
<text x="1322.65" y="720" font-size="11" fill="#555555" text-anchor="middle">05:00</text>
<line x1="725.00" y1="194.14" x2="805.00" y2="124.14" stroke="#f1c40f" stroke-width="2"/>
<rect x="805.00" y="76.14" width="220" height="72" rx="8" fill="#fff8dc" stroke="#f1c40f"/>
<text x="815.00" y="100.14" font-size="12" fill="#111111">目标K线 2026-01-20 21:00</text>
<text x="815.00" y="118.14" font-size="12" fill="#111111">振幅 32.64%</text>
<text x="815.00" y="136.14" font-size="12" fill="#111111">倍数 19.91x</text>
<line x1="650.29" y1="614.53" x2="620.29" y2="574.53" stroke="#3498db" stroke-width="2"/>
<rect x="400.29" y="538.53" width="220" height="58" rx="8" fill="#eef6ff" stroke="#3498db"/>
<text x="410.29" y="560.53" font-size="12" fill="#111111">前一根涨幅 1.64%</text>
<text x="410.29" y="578.53" font-size="12" fill="#111111">前一根振幅 1.64%</text>
</svg>