<svg xmlns="http://www.w3.org/2000/svg" width="1400" height="760" viewBox="0 0 1400 760">
<rect width="100%" height="100%" fill="#fcfcfc"/>
<text x="90" y="36" font-size="26" font-weight="700" fill="#111111">DAM_USDT 1H - 10倍命中</text>
<line x1="90" y1="70.00" x2="1360" y2="70.00" stroke="#d9d9d9" stroke-dasharray="4 4" stroke-width="1"/>
<text x="12" y="74.00" font-size="12" fill="#555555">0.085020</text>
<line x1="90" y1="186.00" x2="1360" y2="186.00" stroke="#d9d9d9" stroke-dasharray="4 4" stroke-width="1"/>
<text x="12" y="190.00" font-size="12" fill="#555555">0.079654</text>
<line x1="90" y1="302.00" x2="1360" y2="302.00" stroke="#d9d9d9" stroke-dasharray="4 4" stroke-width="1"/>
<text x="12" y="306.00" font-size="12" fill="#555555">0.074288</text>
<line x1="90" y1="418.00" x2="1360" y2="418.00" stroke="#d9d9d9" stroke-dasharray="4 4" stroke-width="1"/>
<text x="12" y="422.00" font-size="12" fill="#555555">0.068922</text>
<line x1="90" y1="534.00" x2="1360" y2="534.00" stroke="#d9d9d9" stroke-dasharray="4 4" stroke-width="1"/>
<text x="12" y="538.00" font-size="12" fill="#555555">0.063556</text>
<line x1="90" y1="650.00" x2="1360" y2="650.00" stroke="#d9d9d9" stroke-dasharray="4 4" stroke-width="1"/>
<text x="12" y="654.00" font-size="12" fill="#555555">0.058190</text>
<rect x="687.65" y="70" width="74.71" height="580.00" fill="#f1c40f" opacity="0.16"/>
<rect x="612.94" y="70" width="74.71" height="580.00" fill="#3498db" opacity="0.10"/>
<line x1="127.35" y1="499.76" x2="127.35" y2="643.30" stroke="#2ecc71" stroke-width="2"/>
<rect x="105.69" y="585.36" width="43.33" height="41.51" fill="#2ecc71" stroke="#2ecc71" stroke-width="1"/>
<text x="127.35" y="704" font-size="11" fill="#555555" text-anchor="middle">09-11</text>
<text x="127.35" y="720" font-size="11" fill="#555555" text-anchor="middle">14:00</text>
<line x1="202.06" y1="569.58" x2="202.06" y2="632.49" stroke="#e74c3c" stroke-width="2"/>
<rect x="180.39" y="575.85" width="43.33" height="44.32" fill="#e74c3c" stroke="#e74c3c" stroke-width="1"/>
<text x="202.06" y="704" font-size="11" fill="#555555" text-anchor="middle">09-11</text>
<text x="202.06" y="720" font-size="11" fill="#555555" text-anchor="middle">15:00</text>
<line x1="276.76" y1="592.50" x2="276.76" y2="650.00" stroke="#2ecc71" stroke-width="2"/>
<rect x="255.10" y="599.20" width="43.33" height="25.51" fill="#2ecc71" stroke="#2ecc71" stroke-width="1"/>
<text x="276.76" y="704" font-size="11" fill="#555555" text-anchor="middle">09-11</text>
<text x="276.76" y="720" font-size="11" fill="#555555" text-anchor="middle">16:00</text>
<line x1="351.47" y1="564.83" x2="351.47" y2="614.55" stroke="#2ecc71" stroke-width="2"/>
<rect x="329.81" y="572.61" width="43.33" height="30.05" fill="#2ecc71" stroke="#2ecc71" stroke-width="1"/>
<text x="351.47" y="704" font-size="11" fill="#555555" text-anchor="middle">09-11</text>
<text x="351.47" y="720" font-size="11" fill="#555555" text-anchor="middle">17:00</text>
<line x1="426.18" y1="538.89" x2="426.18" y2="589.25" stroke="#2ecc71" stroke-width="2"/>
<rect x="404.51" y="571.31" width="43.33" height="3.03" fill="#2ecc71" stroke="#2ecc71" stroke-width="1"/>
<text x="426.18" y="704" font-size="11" fill="#555555" text-anchor="middle">09-11</text>
<text x="426.18" y="720" font-size="11" fill="#555555" text-anchor="middle">18:00</text>
<line x1="500.88" y1="519.86" x2="500.88" y2="622.33" stroke="#e74c3c" stroke-width="2"/>
<rect x="479.22" y="562.88" width="43.33" height="52.75" fill="#e74c3c" stroke="#e74c3c" stroke-width="1"/>
<text x="500.88" y="704" font-size="11" fill="#555555" text-anchor="middle">09-11</text>
<text x="500.88" y="720" font-size="11" fill="#555555" text-anchor="middle">19:00</text>
<line x1="575.59" y1="541.48" x2="575.59" y2="633.14" stroke="#2ecc71" stroke-width="2"/>
<rect x="553.92" y="563.10" width="43.33" height="50.37" fill="#2ecc71" stroke="#2ecc71" stroke-width="1"/>
<text x="575.59" y="704" font-size="11" fill="#555555" text-anchor="middle">09-11</text>
<text x="575.59" y="720" font-size="11" fill="#555555" text-anchor="middle">20:00</text>
<line x1="650.29" y1="526.13" x2="650.29" y2="566.77" stroke="#2ecc71" stroke-width="2"/>
<rect x="628.63" y="534.35" width="43.33" height="22.27" fill="#2ecc71" stroke="#2ecc71" stroke-width="1"/>
<text x="650.29" y="704" font-size="11" fill="#555555" text-anchor="middle">09-11</text>
<text x="650.29" y="720" font-size="11" fill="#555555" text-anchor="middle">21:00</text>
<line x1="725.00" y1="121.45" x2="725.00" y2="554.23" stroke="#2ecc71" stroke-width="2"/>
<rect x="703.34" y="123.83" width="43.33" height="415.71" fill="#2ecc71" stroke="#2ecc71" stroke-width="1"/>
<text x="725.00" y="704" font-size="11" fill="#555555" text-anchor="middle">09-11</text>
<text x="725.00" y="720" font-size="11" fill="#555555" text-anchor="middle">22:00</text>
<line x1="799.71" y1="70.00" x2="799.71" y2="534.78" stroke="#e74c3c" stroke-width="2"/>
<rect x="778.04" y="131.18" width="43.33" height="395.82" fill="#e74c3c" stroke="#e74c3c" stroke-width="1"/>
<text x="799.71" y="704" font-size="11" fill="#555555" text-anchor="middle">09-11</text>
<text x="799.71" y="720" font-size="11" fill="#555555" text-anchor="middle">23:00</text>
<line x1="874.41" y1="433.82" x2="874.41" y2="539.97" stroke="#2ecc71" stroke-width="2"/>
<rect x="852.75" y="478.14" width="43.33" height="39.34" fill="#2ecc71" stroke="#2ecc71" stroke-width="1"/>
<text x="874.41" y="704" font-size="11" fill="#555555" text-anchor="middle">09-12</text>
<text x="874.41" y="720" font-size="11" fill="#555555" text-anchor="middle">00:00</text>
<line x1="949.12" y1="413.07" x2="949.12" y2="495.00" stroke="#2ecc71" stroke-width="2"/>
<rect x="927.45" y="421.72" width="43.33" height="49.29" fill="#2ecc71" stroke="#2ecc71" stroke-width="1"/>
<text x="949.12" y="704" font-size="11" fill="#555555" text-anchor="middle">09-12</text>
<text x="949.12" y="720" font-size="11" fill="#555555" text-anchor="middle">01:00</text>
<line x1="1023.82" y1="408.53" x2="1023.82" y2="462.79" stroke="#e74c3c" stroke-width="2"/>
<rect x="1002.16" y="421.72" width="43.33" height="36.53" fill="#e74c3c" stroke="#e74c3c" stroke-width="1"/>
<text x="1023.82" y="704" font-size="11" fill="#555555" text-anchor="middle">09-12</text>
<text x="1023.82" y="720" font-size="11" fill="#555555" text-anchor="middle">02:00</text>
<line x1="1098.53" y1="425.39" x2="1098.53" y2="487.65" stroke="#2ecc71" stroke-width="2"/>
<rect x="1076.86" y="443.77" width="43.33" height="14.92" fill="#2ecc71" stroke="#2ecc71" stroke-width="1"/>
<text x="1098.53" y="704" font-size="11" fill="#555555" text-anchor="middle">09-12</text>
<text x="1098.53" y="720" font-size="11" fill="#555555" text-anchor="middle">03:00</text>
<line x1="1173.24" y1="432.74" x2="1173.24" y2="489.38" stroke="#e74c3c" stroke-width="2"/>
<rect x="1151.57" y="441.82" width="43.33" height="28.32" fill="#e74c3c" stroke="#e74c3c" stroke-width="1"/>
<text x="1173.24" y="704" font-size="11" fill="#555555" text-anchor="middle">09-12</text>
<text x="1173.24" y="720" font-size="11" fill="#555555" text-anchor="middle">04:00</text>
<line x1="1247.94" y1="387.13" x2="1247.94" y2="487.87" stroke="#2ecc71" stroke-width="2"/>
<rect x="1226.28" y="420.20" width="43.33" height="58.37" fill="#2ecc71" stroke="#2ecc71" stroke-width="1"/>
<text x="1247.94" y="704" font-size="11" fill="#555555" text-anchor="middle">09-12</text>
<text x="1247.94" y="720" font-size="11" fill="#555555" text-anchor="middle">05:00</text>
<line x1="1322.65" y1="386.48" x2="1322.65" y2="452.63" stroke="#e74c3c" stroke-width="2"/>
<rect x="1300.98" y="423.88" width="43.33" height="26.16" fill="#e74c3c" stroke="#e74c3c" stroke-width="1"/>
<text x="1322.65" y="704" font-size="11" fill="#555555" text-anchor="middle">09-12</text>
<text x="1322.65" y="720" font-size="11" fill="#555555" text-anchor="middle">06:00</text>
<line x1="725.00" y1="121.45" x2="805.00" y2="90.00" stroke="#f1c40f" stroke-width="2"/>
<rect x="805.00" y="42.00" width="220" height="72" rx="8" fill="#fff8dc" stroke="#f1c40f"/>
<text x="815.00" y="66.00" font-size="12" fill="#111111">目标K线 2025-09-11 22:00</text>
<text x="815.00" y="84.00" font-size="12" fill="#111111">振幅 31.63%</text>
<text x="815.00" y="102.00" font-size="12" fill="#111111">倍数 10.52x</text>
<line x1="650.29" y1="526.13" x2="620.29" y2="486.13" stroke="#3498db" stroke-width="2"/>
<rect x="400.29" y="450.13" width="220" height="58" rx="8" fill="#eef6ff" stroke="#3498db"/>
<text x="410.29" y="472.13" font-size="12" fill="#111111">前一根涨幅 1.65%</text>
<text x="410.29" y="490.13" font-size="12" fill="#111111">前一根振幅 3.01%</text>
</svg>