<svg xmlns="http://www.w3.org/2000/svg" width="1400" height="760" viewBox="0 0 1400 760">
<rect width="100%" height="100%" fill="#fcfcfc"/>
<text x="90" y="36" font-size="26" font-weight="700" fill="#111111">DEGO_USDT 1H - 10倍命中</text>
<line x1="90" y1="70.00" x2="1360" y2="70.00" stroke="#d9d9d9" stroke-dasharray="4 4" stroke-width="1"/>
<text x="12" y="74.00" font-size="12" fill="#555555">0.708100</text>
<line x1="90" y1="186.00" x2="1360" y2="186.00" stroke="#d9d9d9" stroke-dasharray="4 4" stroke-width="1"/>
<text x="12" y="190.00" font-size="12" fill="#555555">0.639520</text>
<line x1="90" y1="302.00" x2="1360" y2="302.00" stroke="#d9d9d9" stroke-dasharray="4 4" stroke-width="1"/>
<text x="12" y="306.00" font-size="12" fill="#555555">0.570940</text>
<line x1="90" y1="418.00" x2="1360" y2="418.00" stroke="#d9d9d9" stroke-dasharray="4 4" stroke-width="1"/>
<text x="12" y="422.00" font-size="12" fill="#555555">0.502360</text>
<line x1="90" y1="534.00" x2="1360" y2="534.00" stroke="#d9d9d9" stroke-dasharray="4 4" stroke-width="1"/>
<text x="12" y="538.00" font-size="12" fill="#555555">0.433780</text>
<line x1="90" y1="650.00" x2="1360" y2="650.00" stroke="#d9d9d9" stroke-dasharray="4 4" stroke-width="1"/>
<text x="12" y="654.00" font-size="12" fill="#555555">0.365200</text>
<rect x="687.65" y="70" width="74.71" height="580.00" fill="#f1c40f" opacity="0.16"/>
<rect x="612.94" y="70" width="74.71" height="580.00" fill="#3498db" opacity="0.10"/>
<line x1="127.35" y1="581.67" x2="127.35" y2="650.00" stroke="#2ecc71" stroke-width="2"/>
<rect x="105.69" y="626.66" width="43.33" height="2.37" fill="#2ecc71" stroke="#2ecc71" stroke-width="1"/>
<text x="127.35" y="704" font-size="11" fill="#555555" text-anchor="middle">03-08</text>
<text x="127.35" y="720" font-size="11" fill="#555555" text-anchor="middle">06:00</text>
<line x1="202.06" y1="620.91" x2="202.06" y2="646.79" stroke="#e74c3c" stroke-width="2"/>
<rect x="180.39" y="624.80" width="43.33" height="18.61" fill="#e74c3c" stroke="#e74c3c" stroke-width="1"/>
<text x="202.06" y="704" font-size="11" fill="#555555" text-anchor="middle">03-08</text>
<text x="202.06" y="720" font-size="11" fill="#555555" text-anchor="middle">07:00</text>
<line x1="276.76" y1="567.96" x2="276.76" y2="646.96" stroke="#2ecc71" stroke-width="2"/>
<rect x="255.10" y="603.32" width="43.33" height="39.92" fill="#2ecc71" stroke="#2ecc71" stroke-width="1"/>
<text x="276.76" y="704" font-size="11" fill="#555555" text-anchor="middle">03-08</text>
<text x="276.76" y="720" font-size="11" fill="#555555" text-anchor="middle">08:00</text>
<line x1="351.47" y1="548.17" x2="351.47" y2="616.17" stroke="#2ecc71" stroke-width="2"/>
<rect x="329.81" y="561.03" width="43.33" height="43.30" fill="#2ecc71" stroke="#2ecc71" stroke-width="1"/>
<text x="351.47" y="704" font-size="11" fill="#555555" text-anchor="middle">03-08</text>
<text x="351.47" y="720" font-size="11" fill="#555555" text-anchor="middle">09:00</text>
<line x1="426.18" y1="521.11" x2="426.18" y2="575.07" stroke="#2ecc71" stroke-width="2"/>
<rect x="404.51" y="550.37" width="43.33" height="11.33" fill="#2ecc71" stroke="#2ecc71" stroke-width="1"/>
<text x="426.18" y="704" font-size="11" fill="#555555" text-anchor="middle">03-08</text>
<text x="426.18" y="720" font-size="11" fill="#555555" text-anchor="middle">10:00</text>
<line x1="500.88" y1="523.65" x2="500.88" y2="572.53" stroke="#e74c3c" stroke-width="2"/>
<rect x="479.22" y="551.56" width="43.33" height="3.89" fill="#e74c3c" stroke="#e74c3c" stroke-width="1"/>
<text x="500.88" y="704" font-size="11" fill="#555555" text-anchor="middle">03-08</text>
<text x="500.88" y="720" font-size="11" fill="#555555" text-anchor="middle">11:00</text>
<line x1="575.59" y1="545.98" x2="575.59" y2="606.19" stroke="#e74c3c" stroke-width="2"/>
<rect x="553.92" y="555.45" width="43.33" height="14.38" fill="#e74c3c" stroke="#e74c3c" stroke-width="1"/>
<text x="575.59" y="704" font-size="11" fill="#555555" text-anchor="middle">03-08</text>
<text x="575.59" y="720" font-size="11" fill="#555555" text-anchor="middle">12:00</text>
<line x1="650.29" y1="554.43" x2="650.29" y2="595.37" stroke="#2ecc71" stroke-width="2"/>
<rect x="628.63" y="556.46" width="43.33" height="14.72" fill="#2ecc71" stroke="#2ecc71" stroke-width="1"/>
<text x="650.29" y="704" font-size="11" fill="#555555" text-anchor="middle">03-08</text>
<text x="650.29" y="720" font-size="11" fill="#555555" text-anchor="middle">13:00</text>
<line x1="725.00" y1="70.00" x2="725.00" y2="562.89" stroke="#2ecc71" stroke-width="2"/>
<rect x="703.34" y="268.24" width="43.33" height="288.56" fill="#2ecc71" stroke="#2ecc71" stroke-width="1"/>
<text x="725.00" y="704" font-size="11" fill="#555555" text-anchor="middle">03-08</text>
<text x="725.00" y="720" font-size="11" fill="#555555" text-anchor="middle">14:00</text>
<line x1="799.71" y1="187.73" x2="799.71" y2="392.56" stroke="#e74c3c" stroke-width="2"/>
<rect x="778.04" y="268.41" width="43.33" height="31.80" fill="#e74c3c" stroke="#e74c3c" stroke-width="1"/>
<text x="799.71" y="704" font-size="11" fill="#555555" text-anchor="middle">03-08</text>
<text x="799.71" y="720" font-size="11" fill="#555555" text-anchor="middle">15:00</text>
<line x1="874.41" y1="235.93" x2="874.41" y2="350.44" stroke="#2ecc71" stroke-width="2"/>
<rect x="852.75" y="299.87" width="43.33" height="2.20" fill="#2ecc71" stroke="#2ecc71" stroke-width="1"/>
<text x="874.41" y="704" font-size="11" fill="#555555" text-anchor="middle">03-08</text>
<text x="874.41" y="720" font-size="11" fill="#555555" text-anchor="middle">16:00</text>
<line x1="949.12" y1="254.03" x2="949.12" y2="319.15" stroke="#e74c3c" stroke-width="2"/>
<rect x="927.45" y="300.55" width="43.33" height="2.88" fill="#e74c3c" stroke="#e74c3c" stroke-width="1"/>
<text x="949.12" y="704" font-size="11" fill="#555555" text-anchor="middle">03-08</text>
<text x="949.12" y="720" font-size="11" fill="#555555" text-anchor="middle">17:00</text>
<line x1="1023.82" y1="247.60" x2="1023.82" y2="325.24" stroke="#2ecc71" stroke-width="2"/>
<rect x="1002.16" y="284.31" width="43.33" height="19.11" fill="#2ecc71" stroke="#2ecc71" stroke-width="1"/>
<text x="1023.82" y="704" font-size="11" fill="#555555" text-anchor="middle">03-08</text>
<text x="1023.82" y="720" font-size="11" fill="#555555" text-anchor="middle">18:00</text>
<line x1="1098.53" y1="203.79" x2="1098.53" y2="296.66" stroke="#2ecc71" stroke-width="2"/>
<rect x="1076.86" y="280.42" width="43.33" height="3.89" fill="#2ecc71" stroke="#2ecc71" stroke-width="1"/>
<text x="1098.53" y="704" font-size="11" fill="#555555" text-anchor="middle">03-08</text>
<text x="1098.53" y="720" font-size="11" fill="#555555" text-anchor="middle">19:00</text>
<line x1="1173.24" y1="224.43" x2="1173.24" y2="380.38" stroke="#2ecc71" stroke-width="2"/>
<rect x="1151.57" y="241.18" width="43.33" height="39.41" fill="#2ecc71" stroke="#2ecc71" stroke-width="1"/>
<text x="1173.24" y="704" font-size="11" fill="#555555" text-anchor="middle">03-08</text>
<text x="1173.24" y="720" font-size="11" fill="#555555" text-anchor="middle">20:00</text>
<line x1="1247.94" y1="121.93" x2="1247.94" y2="241.01" stroke="#2ecc71" stroke-width="2"/>
<rect x="1226.28" y="194.66" width="43.33" height="46.35" fill="#2ecc71" stroke="#2ecc71" stroke-width="1"/>
<text x="1247.94" y="704" font-size="11" fill="#555555" text-anchor="middle">03-08</text>
<text x="1247.94" y="720" font-size="11" fill="#555555" text-anchor="middle">21:00</text>
<line x1="1322.65" y1="156.10" x2="1322.65" y2="211.24" stroke="#2ecc71" stroke-width="2"/>
<rect x="1300.98" y="189.76" width="43.33" height="5.58" fill="#2ecc71" stroke="#2ecc71" stroke-width="1"/>
<text x="1322.65" y="704" font-size="11" fill="#555555" text-anchor="middle">03-08</text>
<text x="1322.65" y="720" font-size="11" fill="#555555" text-anchor="middle">22:00</text>
<line x1="725.00" y1="70.00" x2="805.00" y2="90.00" stroke="#f1c40f" stroke-width="2"/>
<rect x="805.00" y="42.00" width="220" height="72" rx="8" fill="#fff8dc" stroke="#f1c40f"/>
<text x="815.00" y="66.00" font-size="12" fill="#111111">目标K线 2026-03-08 14:00</text>
<text x="815.00" y="84.00" font-size="12" fill="#111111">振幅 69.33%</text>
<text x="815.00" y="102.00" font-size="12" fill="#111111">倍数 11.80x</text>
<line x1="650.29" y1="554.43" x2="620.29" y2="514.43" stroke="#3498db" stroke-width="2"/>
<rect x="400.29" y="478.43" width="220" height="58" rx="8" fill="#eef6ff" stroke="#3498db"/>
<text x="410.29" y="500.43" font-size="12" fill="#111111">前一根涨幅 2.11%</text>
<text x="410.29" y="518.43" font-size="12" fill="#111111">前一根振幅 5.88%</text>
</svg>