<svg xmlns="http://www.w3.org/2000/svg" width="1400" height="760" viewBox="0 0 1400 760">
<rect width="100%" height="100%" fill="#fcfcfc"/>
<text x="90" y="36" font-size="26" font-weight="700" fill="#111111">DENT_USDT 1H - 10倍命中</text>
<line x1="90" y1="70.00" x2="1360" y2="70.00" stroke="#d9d9d9" stroke-dasharray="4 4" stroke-width="1"/>
<text x="12" y="74.00" font-size="12" fill="#555555">0.000129</text>
<line x1="90" y1="186.00" x2="1360" y2="186.00" stroke="#d9d9d9" stroke-dasharray="4 4" stroke-width="1"/>
<text x="12" y="190.00" font-size="12" fill="#555555">0.000117</text>
<line x1="90" y1="302.00" x2="1360" y2="302.00" stroke="#d9d9d9" stroke-dasharray="4 4" stroke-width="1"/>
<text x="12" y="306.00" font-size="12" fill="#555555">0.000105</text>
<line x1="90" y1="418.00" x2="1360" y2="418.00" stroke="#d9d9d9" stroke-dasharray="4 4" stroke-width="1"/>
<text x="12" y="422.00" font-size="12" fill="#555555">0.000093</text>
<line x1="90" y1="534.00" x2="1360" y2="534.00" stroke="#d9d9d9" stroke-dasharray="4 4" stroke-width="1"/>
<text x="12" y="538.00" font-size="12" fill="#555555">0.000081</text>
<line x1="90" y1="650.00" x2="1360" y2="650.00" stroke="#d9d9d9" stroke-dasharray="4 4" stroke-width="1"/>
<text x="12" y="654.00" font-size="12" fill="#555555">0.000069</text>
<rect x="687.65" y="70" width="74.71" height="580.00" fill="#f1c40f" opacity="0.16"/>
<rect x="612.94" y="70" width="74.71" height="580.00" fill="#3498db" opacity="0.10"/>
<line x1="127.35" y1="565.62" x2="127.35" y2="597.63" stroke="#e74c3c" stroke-width="2"/>
<rect x="105.69" y="580.17" width="43.33" height="14.55" fill="#e74c3c" stroke="#e74c3c" stroke-width="1"/>
<text x="127.35" y="704" font-size="11" fill="#555555" text-anchor="middle">04-21</text>
<text x="127.35" y="720" font-size="11" fill="#555555" text-anchor="middle">07:00</text>
<line x1="202.06" y1="578.23" x2="202.06" y2="598.60" stroke="#2ecc71" stroke-width="2"/>
<rect x="180.39" y="584.05" width="43.33" height="11.64" fill="#2ecc71" stroke="#2ecc71" stroke-width="1"/>
<text x="202.06" y="704" font-size="11" fill="#555555" text-anchor="middle">04-21</text>
<text x="202.06" y="720" font-size="11" fill="#555555" text-anchor="middle">08:00</text>
<line x1="276.76" y1="579.20" x2="276.76" y2="598.60" stroke="#2ecc71" stroke-width="2"/>
<rect x="255.10" y="580.17" width="43.33" height="2.91" fill="#2ecc71" stroke="#2ecc71" stroke-width="1"/>
<text x="276.76" y="704" font-size="11" fill="#555555" text-anchor="middle">04-21</text>
<text x="276.76" y="720" font-size="11" fill="#555555" text-anchor="middle">09:00</text>
<line x1="351.47" y1="566.59" x2="351.47" y2="595.69" stroke="#e74c3c" stroke-width="2"/>
<rect x="329.81" y="579.20" width="43.33" height="14.55" fill="#e74c3c" stroke="#e74c3c" stroke-width="1"/>
<text x="351.47" y="704" font-size="11" fill="#555555" text-anchor="middle">04-21</text>
<text x="351.47" y="720" font-size="11" fill="#555555" text-anchor="middle">10:00</text>
<line x1="426.18" y1="589.87" x2="426.18" y2="650.00" stroke="#e74c3c" stroke-width="2"/>
<rect x="404.51" y="594.72" width="43.33" height="30.07" fill="#e74c3c" stroke="#e74c3c" stroke-width="1"/>
<text x="426.18" y="704" font-size="11" fill="#555555" text-anchor="middle">04-21</text>
<text x="426.18" y="720" font-size="11" fill="#555555" text-anchor="middle">11:00</text>
<line x1="500.88" y1="613.14" x2="500.88" y2="649.03" stroke="#2ecc71" stroke-width="2"/>
<rect x="479.22" y="624.78" width="43.33" height="1.20" fill="#2ecc71" stroke="#2ecc71" stroke-width="1"/>
<text x="500.88" y="704" font-size="11" fill="#555555" text-anchor="middle">04-21</text>
<text x="500.88" y="720" font-size="11" fill="#555555" text-anchor="middle">12:00</text>
<line x1="575.59" y1="621.87" x2="575.59" y2="638.36" stroke="#e74c3c" stroke-width="2"/>
<rect x="553.92" y="625.75" width="43.33" height="3.88" fill="#e74c3c" stroke="#e74c3c" stroke-width="1"/>
<text x="575.59" y="704" font-size="11" fill="#555555" text-anchor="middle">04-21</text>
<text x="575.59" y="720" font-size="11" fill="#555555" text-anchor="middle">13:00</text>
<line x1="650.29" y1="609.26" x2="650.29" y2="636.42" stroke="#2ecc71" stroke-width="2"/>
<rect x="628.63" y="616.05" width="43.33" height="15.52" fill="#2ecc71" stroke="#2ecc71" stroke-width="1"/>
<text x="650.29" y="704" font-size="11" fill="#555555" text-anchor="middle">04-21</text>
<text x="650.29" y="720" font-size="11" fill="#555555" text-anchor="middle">14:00</text>
<line x1="725.00" y1="314.41" x2="725.00" y2="619.93" stroke="#2ecc71" stroke-width="2"/>
<rect x="703.34" y="388.13" width="43.33" height="226.96" fill="#2ecc71" stroke="#2ecc71" stroke-width="1"/>
<text x="725.00" y="704" font-size="11" fill="#555555" text-anchor="middle">04-21</text>
<text x="725.00" y="720" font-size="11" fill="#555555" text-anchor="middle">15:00</text>
<line x1="799.71" y1="261.07" x2="799.71" y2="521.97" stroke="#e74c3c" stroke-width="2"/>
<rect x="778.04" y="392.98" width="43.33" height="48.49" fill="#e74c3c" stroke="#e74c3c" stroke-width="1"/>
<text x="799.71" y="704" font-size="11" fill="#555555" text-anchor="middle">04-21</text>
<text x="799.71" y="720" font-size="11" fill="#555555" text-anchor="middle">16:00</text>
<line x1="874.41" y1="70.00" x2="874.41" y2="479.30" stroke="#2ecc71" stroke-width="2"/>
<rect x="852.75" y="407.53" width="43.33" height="33.95" fill="#2ecc71" stroke="#2ecc71" stroke-width="1"/>
<text x="874.41" y="704" font-size="11" fill="#555555" text-anchor="middle">04-21</text>
<text x="874.41" y="720" font-size="11" fill="#555555" text-anchor="middle">17:00</text>
<line x1="949.12" y1="378.43" x2="949.12" y2="524.88" stroke="#e74c3c" stroke-width="2"/>
<rect x="927.45" y="401.71" width="43.33" height="14.55" fill="#e74c3c" stroke="#e74c3c" stroke-width="1"/>
<text x="949.12" y="704" font-size="11" fill="#555555" text-anchor="middle">04-21</text>
<text x="949.12" y="720" font-size="11" fill="#555555" text-anchor="middle">18:00</text>
<line x1="1023.82" y1="254.28" x2="1023.82" y2="420.13" stroke="#2ecc71" stroke-width="2"/>
<rect x="1002.16" y="264.95" width="43.33" height="148.39" fill="#2ecc71" stroke="#2ecc71" stroke-width="1"/>
<text x="1023.82" y="704" font-size="11" fill="#555555" text-anchor="middle">04-21</text>
<text x="1023.82" y="720" font-size="11" fill="#555555" text-anchor="middle">19:00</text>
<line x1="1098.53" y1="247.49" x2="1098.53" y2="411.40" stroke="#e74c3c" stroke-width="2"/>
<rect x="1076.86" y="265.92" width="43.33" height="109.60" fill="#e74c3c" stroke="#e74c3c" stroke-width="1"/>
<text x="1098.53" y="704" font-size="11" fill="#555555" text-anchor="middle">04-21</text>
<text x="1098.53" y="720" font-size="11" fill="#555555" text-anchor="middle">20:00</text>
<line x1="1173.24" y1="274.65" x2="1173.24" y2="482.21" stroke="#e74c3c" stroke-width="2"/>
<rect x="1151.57" y="376.49" width="43.33" height="67.89" fill="#e74c3c" stroke="#e74c3c" stroke-width="1"/>
<text x="1173.24" y="704" font-size="11" fill="#555555" text-anchor="middle">04-21</text>
<text x="1173.24" y="720" font-size="11" fill="#555555" text-anchor="middle">21:00</text>
<line x1="1247.94" y1="401.71" x2="1247.94" y2="475.42" stroke="#2ecc71" stroke-width="2"/>
<rect x="1226.28" y="428.86" width="43.33" height="16.49" fill="#2ecc71" stroke="#2ecc71" stroke-width="1"/>
<text x="1247.94" y="704" font-size="11" fill="#555555" text-anchor="middle">04-21</text>
<text x="1247.94" y="720" font-size="11" fill="#555555" text-anchor="middle">22:00</text>
<line x1="1322.65" y1="376.49" x2="1322.65" y2="442.44" stroke="#2ecc71" stroke-width="2"/>
<rect x="1300.98" y="404.62" width="43.33" height="19.40" fill="#2ecc71" stroke="#2ecc71" stroke-width="1"/>
<text x="1322.65" y="704" font-size="11" fill="#555555" text-anchor="middle">04-21</text>
<text x="1322.65" y="720" font-size="11" fill="#555555" text-anchor="middle">23:00</text>
<line x1="725.00" y1="314.41" x2="805.00" y2="244.41" stroke="#f1c40f" stroke-width="2"/>
<rect x="805.00" y="196.41" width="220" height="72" rx="8" fill="#fff8dc" stroke="#f1c40f"/>
<text x="815.00" y="220.41" font-size="12" fill="#111111">目标K线 2026-04-21 15:00</text>
<text x="815.00" y="238.41" font-size="12" fill="#111111">振幅 43.45%</text>
<text x="815.00" y="256.41" font-size="12" fill="#111111">倍数 10.99x</text>
<line x1="650.29" y1="609.26" x2="620.29" y2="569.26" stroke="#3498db" stroke-width="2"/>
<rect x="400.29" y="533.26" width="220" height="58" rx="8" fill="#eef6ff" stroke="#3498db"/>
<text x="410.29" y="555.26" font-size="12" fill="#111111">前一根涨幅 2.26%</text>
<text x="410.29" y="573.26" font-size="12" fill="#111111">前一根振幅 3.95%</text>
</svg>