<svg xmlns="http://www.w3.org/2000/svg" width="1400" height="760" viewBox="0 0 1400 760">
<rect width="100%" height="100%" fill="#fcfcfc"/>
<text x="90" y="36" font-size="26" font-weight="700" fill="#111111">DOLO_USDT 1H - 10倍命中</text>
<line x1="90" y1="70.00" x2="1360" y2="70.00" stroke="#d9d9d9" stroke-dasharray="4 4" stroke-width="1"/>
<text x="12" y="74.00" font-size="12" fill="#555555">0.058230</text>
<line x1="90" y1="186.00" x2="1360" y2="186.00" stroke="#d9d9d9" stroke-dasharray="4 4" stroke-width="1"/>
<text x="12" y="190.00" font-size="12" fill="#555555">0.055048</text>
<line x1="90" y1="302.00" x2="1360" y2="302.00" stroke="#d9d9d9" stroke-dasharray="4 4" stroke-width="1"/>
<text x="12" y="306.00" font-size="12" fill="#555555">0.051866</text>
<line x1="90" y1="418.00" x2="1360" y2="418.00" stroke="#d9d9d9" stroke-dasharray="4 4" stroke-width="1"/>
<text x="12" y="422.00" font-size="12" fill="#555555">0.048684</text>
<line x1="90" y1="534.00" x2="1360" y2="534.00" stroke="#d9d9d9" stroke-dasharray="4 4" stroke-width="1"/>
<text x="12" y="538.00" font-size="12" fill="#555555">0.045502</text>
<line x1="90" y1="650.00" x2="1360" y2="650.00" stroke="#d9d9d9" stroke-dasharray="4 4" stroke-width="1"/>
<text x="12" y="654.00" font-size="12" fill="#555555">0.042320</text>
<rect x="687.65" y="70" width="74.71" height="580.00" fill="#f1c40f" opacity="0.16"/>
<rect x="612.94" y="70" width="74.71" height="580.00" fill="#3498db" opacity="0.10"/>
<line x1="127.35" y1="470.28" x2="127.35" y2="516.57" stroke="#e74c3c" stroke-width="2"/>
<rect x="105.69" y="473.19" width="43.33" height="19.32" fill="#e74c3c" stroke="#e74c3c" stroke-width="1"/>
<text x="127.35" y="704" font-size="11" fill="#555555" text-anchor="middle">04-30</text>
<text x="127.35" y="720" font-size="11" fill="#555555" text-anchor="middle">10:00</text>
<line x1="202.06" y1="489.23" x2="202.06" y2="547.93" stroke="#e74c3c" stroke-width="2"/>
<rect x="180.39" y="493.61" width="43.33" height="51.04" fill="#e74c3c" stroke="#e74c3c" stroke-width="1"/>
<text x="202.06" y="704" font-size="11" fill="#555555" text-anchor="middle">04-30</text>
<text x="202.06" y="720" font-size="11" fill="#555555" text-anchor="middle">11:00</text>
<line x1="276.76" y1="532.61" x2="276.76" y2="614.27" stroke="#e74c3c" stroke-width="2"/>
<rect x="255.10" y="538.81" width="43.33" height="63.43" fill="#e74c3c" stroke="#e74c3c" stroke-width="1"/>
<text x="276.76" y="704" font-size="11" fill="#555555" text-anchor="middle">04-30</text>
<text x="276.76" y="720" font-size="11" fill="#555555" text-anchor="middle">12:00</text>
<line x1="351.47" y1="577.09" x2="351.47" y2="606.62" stroke="#2ecc71" stroke-width="2"/>
<rect x="329.81" y="585.47" width="43.33" height="12.76" fill="#2ecc71" stroke="#2ecc71" stroke-width="1"/>
<text x="351.47" y="704" font-size="11" fill="#555555" text-anchor="middle">04-30</text>
<text x="351.47" y="720" font-size="11" fill="#555555" text-anchor="middle">13:00</text>
<line x1="426.18" y1="586.57" x2="426.18" y2="608.08" stroke="#e74c3c" stroke-width="2"/>
<rect x="404.51" y="586.57" width="43.33" height="10.57" fill="#e74c3c" stroke="#e74c3c" stroke-width="1"/>
<text x="426.18" y="704" font-size="11" fill="#555555" text-anchor="middle">04-30</text>
<text x="426.18" y="720" font-size="11" fill="#555555" text-anchor="middle">14:00</text>
<line x1="500.88" y1="581.10" x2="500.88" y2="615.00" stroke="#e74c3c" stroke-width="2"/>
<rect x="479.22" y="597.87" width="43.33" height="17.13" fill="#e74c3c" stroke="#e74c3c" stroke-width="1"/>
<text x="500.88" y="704" font-size="11" fill="#555555" text-anchor="middle">04-30</text>
<text x="500.88" y="720" font-size="11" fill="#555555" text-anchor="middle">15:00</text>
<line x1="575.59" y1="609.17" x2="575.59" y2="650.00" stroke="#e74c3c" stroke-width="2"/>
<rect x="553.92" y="613.91" width="43.33" height="17.13" fill="#e74c3c" stroke="#e74c3c" stroke-width="1"/>
<text x="575.59" y="704" font-size="11" fill="#555555" text-anchor="middle">04-30</text>
<text x="575.59" y="720" font-size="11" fill="#555555" text-anchor="middle">16:00</text>
<line x1="650.29" y1="605.16" x2="650.29" y2="645.26" stroke="#2ecc71" stroke-width="2"/>
<rect x="628.63" y="608.81" width="43.33" height="23.70" fill="#2ecc71" stroke="#2ecc71" stroke-width="1"/>
<text x="650.29" y="704" font-size="11" fill="#555555" text-anchor="middle">04-30</text>
<text x="650.29" y="720" font-size="11" fill="#555555" text-anchor="middle">17:00</text>
<line x1="725.00" y1="194.68" x2="725.00" y2="612.09" stroke="#2ecc71" stroke-width="2"/>
<rect x="703.34" y="209.99" width="43.33" height="399.18" fill="#2ecc71" stroke="#2ecc71" stroke-width="1"/>
<text x="725.00" y="704" font-size="11" fill="#555555" text-anchor="middle">04-30</text>
<text x="725.00" y="720" font-size="11" fill="#555555" text-anchor="middle">18:00</text>
<line x1="799.71" y1="70.00" x2="799.71" y2="365.65" stroke="#e74c3c" stroke-width="2"/>
<rect x="778.04" y="207.44" width="43.33" height="11.67" fill="#e74c3c" stroke="#e74c3c" stroke-width="1"/>
<text x="799.71" y="704" font-size="11" fill="#555555" text-anchor="middle">04-30</text>
<text x="799.71" y="720" font-size="11" fill="#555555" text-anchor="middle">19:00</text>
<line x1="874.41" y1="195.41" x2="874.41" y2="283.26" stroke="#2ecc71" stroke-width="2"/>
<rect x="852.75" y="208.53" width="43.33" height="15.31" fill="#2ecc71" stroke="#2ecc71" stroke-width="1"/>
<text x="874.41" y="704" font-size="11" fill="#555555" text-anchor="middle">04-30</text>
<text x="874.41" y="720" font-size="11" fill="#555555" text-anchor="middle">20:00</text>
<line x1="949.12" y1="144.73" x2="949.12" y2="359.82" stroke="#e74c3c" stroke-width="2"/>
<rect x="927.45" y="207.44" width="43.33" height="135.98" fill="#e74c3c" stroke="#e74c3c" stroke-width="1"/>
<text x="949.12" y="704" font-size="11" fill="#555555" text-anchor="middle">04-30</text>
<text x="949.12" y="720" font-size="11" fill="#555555" text-anchor="middle">21:00</text>
<line x1="1023.82" y1="279.98" x2="1023.82" y2="452.41" stroke="#2ecc71" stroke-width="2"/>
<rect x="1002.16" y="336.49" width="43.33" height="2.92" fill="#2ecc71" stroke="#2ecc71" stroke-width="1"/>
<text x="1023.82" y="704" font-size="11" fill="#555555" text-anchor="middle">04-30</text>
<text x="1023.82" y="720" font-size="11" fill="#555555" text-anchor="middle">22:00</text>
<line x1="1098.53" y1="263.58" x2="1098.53" y2="347.42" stroke="#2ecc71" stroke-width="2"/>
<rect x="1076.86" y="315.34" width="43.33" height="25.88" fill="#2ecc71" stroke="#2ecc71" stroke-width="1"/>
<text x="1098.53" y="704" font-size="11" fill="#555555" text-anchor="middle">04-30</text>
<text x="1098.53" y="720" font-size="11" fill="#555555" text-anchor="middle">23:00</text>
<line x1="1173.24" y1="292.01" x2="1173.24" y2="378.05" stroke="#2ecc71" stroke-width="2"/>
<rect x="1151.57" y="309.51" width="43.33" height="1.20" fill="#2ecc71" stroke="#2ecc71" stroke-width="1"/>
<text x="1173.24" y="704" font-size="11" fill="#555555" text-anchor="middle">05-01</text>
<text x="1173.24" y="720" font-size="11" fill="#555555" text-anchor="middle">00:00</text>
<line x1="1247.94" y1="318.99" x2="1247.94" y2="416.69" stroke="#e74c3c" stroke-width="2"/>
<rect x="1226.28" y="320.45" width="43.33" height="75.83" fill="#e74c3c" stroke="#e74c3c" stroke-width="1"/>
<text x="1247.94" y="704" font-size="11" fill="#555555" text-anchor="middle">05-01</text>
<text x="1247.94" y="720" font-size="11" fill="#555555" text-anchor="middle">01:00</text>
<line x1="1322.65" y1="338.31" x2="1322.65" y2="409.76" stroke="#2ecc71" stroke-width="2"/>
<rect x="1300.98" y="340.86" width="43.33" height="51.40" fill="#2ecc71" stroke="#2ecc71" stroke-width="1"/>
<text x="1322.65" y="704" font-size="11" fill="#555555" text-anchor="middle">05-01</text>
<text x="1322.65" y="720" font-size="11" fill="#555555" text-anchor="middle">02:00</text>
<line x1="725.00" y1="194.68" x2="805.00" y2="124.68" stroke="#f1c40f" stroke-width="2"/>
<rect x="805.00" y="76.68" width="220" height="72" rx="8" fill="#fff8dc" stroke="#f1c40f"/>
<text x="815.00" y="100.68" font-size="12" fill="#111111">目标K线 2025-04-30 18:00</text>
<text x="815.00" y="118.68" font-size="12" fill="#111111">振幅 26.36%</text>
<text x="815.00" y="136.68" font-size="12" fill="#111111">倍数 10.26x</text>
<line x1="650.29" y1="605.16" x2="620.29" y2="565.16" stroke="#3498db" stroke-width="2"/>
<rect x="400.29" y="529.16" width="220" height="58" rx="8" fill="#eef6ff" stroke="#3498db"/>
<text x="410.29" y="551.16" font-size="12" fill="#111111">前一根涨幅 1.52%</text>
<text x="410.29" y="569.16" font-size="12" fill="#111111">前一根振幅 2.57%</text>
</svg>