<svg xmlns="http://www.w3.org/2000/svg" width="1400" height="760" viewBox="0 0 1400 760">
<rect width="100%" height="100%" fill="#fcfcfc"/>
<text x="90" y="36" font-size="26" font-weight="700" fill="#111111">FF_USDT 1H - 10倍命中</text>
<line x1="90" y1="70.00" x2="1360" y2="70.00" stroke="#d9d9d9" stroke-dasharray="4 4" stroke-width="1"/>
<text x="12" y="74.00" font-size="12" fill="#555555">0.171830</text>
<line x1="90" y1="186.00" x2="1360" y2="186.00" stroke="#d9d9d9" stroke-dasharray="4 4" stroke-width="1"/>
<text x="12" y="190.00" font-size="12" fill="#555555">0.151568</text>
<line x1="90" y1="302.00" x2="1360" y2="302.00" stroke="#d9d9d9" stroke-dasharray="4 4" stroke-width="1"/>
<text x="12" y="306.00" font-size="12" fill="#555555">0.131306</text>
<line x1="90" y1="418.00" x2="1360" y2="418.00" stroke="#d9d9d9" stroke-dasharray="4 4" stroke-width="1"/>
<text x="12" y="422.00" font-size="12" fill="#555555">0.111044</text>
<line x1="90" y1="534.00" x2="1360" y2="534.00" stroke="#d9d9d9" stroke-dasharray="4 4" stroke-width="1"/>
<text x="12" y="538.00" font-size="12" fill="#555555">0.090782</text>
<line x1="90" y1="650.00" x2="1360" y2="650.00" stroke="#d9d9d9" stroke-dasharray="4 4" stroke-width="1"/>
<text x="12" y="654.00" font-size="12" fill="#555555">0.070520</text>
<rect x="687.65" y="70" width="74.71" height="580.00" fill="#f1c40f" opacity="0.16"/>
<rect x="612.94" y="70" width="74.71" height="580.00" fill="#3498db" opacity="0.10"/>
<line x1="127.35" y1="646.22" x2="127.35" y2="647.65" stroke="#2ecc71" stroke-width="2"/>
<rect x="105.69" y="646.56" width="43.33" height="1.20" fill="#2ecc71" stroke="#2ecc71" stroke-width="1"/>
<text x="127.35" y="704" font-size="11" fill="#555555" text-anchor="middle">04-10</text>
<text x="127.35" y="720" font-size="11" fill="#555555" text-anchor="middle">18:00</text>
<line x1="202.06" y1="644.05" x2="202.06" y2="648.17" stroke="#e74c3c" stroke-width="2"/>
<rect x="180.39" y="646.16" width="43.33" height="1.20" fill="#e74c3c" stroke="#e74c3c" stroke-width="1"/>
<text x="202.06" y="704" font-size="11" fill="#555555" text-anchor="middle">04-10</text>
<text x="202.06" y="720" font-size="11" fill="#555555" text-anchor="middle">19:00</text>
<line x1="276.76" y1="645.36" x2="276.76" y2="647.42" stroke="#2ecc71" stroke-width="2"/>
<rect x="255.10" y="646.85" width="43.33" height="1.20" fill="#2ecc71" stroke="#2ecc71" stroke-width="1"/>
<text x="276.76" y="704" font-size="11" fill="#555555" text-anchor="middle">04-10</text>
<text x="276.76" y="720" font-size="11" fill="#555555" text-anchor="middle">20:00</text>
<line x1="351.47" y1="646.79" x2="351.47" y2="648.45" stroke="#e74c3c" stroke-width="2"/>
<rect x="329.81" y="646.85" width="43.33" height="1.20" fill="#e74c3c" stroke="#e74c3c" stroke-width="1"/>
<text x="351.47" y="704" font-size="11" fill="#555555" text-anchor="middle">04-10</text>
<text x="351.47" y="720" font-size="11" fill="#555555" text-anchor="middle">21:00</text>
<line x1="426.18" y1="647.88" x2="426.18" y2="650.00" stroke="#e74c3c" stroke-width="2"/>
<rect x="404.51" y="648.17" width="43.33" height="1.49" fill="#e74c3c" stroke="#e74c3c" stroke-width="1"/>
<text x="426.18" y="704" font-size="11" fill="#555555" text-anchor="middle">04-10</text>
<text x="426.18" y="720" font-size="11" fill="#555555" text-anchor="middle">22:00</text>
<line x1="500.88" y1="645.53" x2="500.88" y2="649.43" stroke="#2ecc71" stroke-width="2"/>
<rect x="479.22" y="647.37" width="43.33" height="2.06" fill="#2ecc71" stroke="#2ecc71" stroke-width="1"/>
<text x="500.88" y="704" font-size="11" fill="#555555" text-anchor="middle">04-10</text>
<text x="500.88" y="720" font-size="11" fill="#555555" text-anchor="middle">23:00</text>
<line x1="575.59" y1="646.79" x2="575.59" y2="648.34" stroke="#e74c3c" stroke-width="2"/>
<rect x="553.92" y="647.08" width="43.33" height="1.20" fill="#e74c3c" stroke="#e74c3c" stroke-width="1"/>
<text x="575.59" y="704" font-size="11" fill="#555555" text-anchor="middle">04-11</text>
<text x="575.59" y="720" font-size="11" fill="#555555" text-anchor="middle">00:00</text>
<line x1="650.29" y1="632.71" x2="650.29" y2="648.11" stroke="#2ecc71" stroke-width="2"/>
<rect x="628.63" y="632.71" width="43.33" height="15.06" fill="#2ecc71" stroke="#2ecc71" stroke-width="1"/>
<text x="650.29" y="704" font-size="11" fill="#555555" text-anchor="middle">04-11</text>
<text x="650.29" y="720" font-size="11" fill="#555555" text-anchor="middle">01:00</text>
<line x1="725.00" y1="197.38" x2="725.00" y2="632.31" stroke="#2ecc71" stroke-width="2"/>
<rect x="703.34" y="228.07" width="43.33" height="404.24" fill="#2ecc71" stroke="#2ecc71" stroke-width="1"/>
<text x="725.00" y="704" font-size="11" fill="#555555" text-anchor="middle">04-11</text>
<text x="725.00" y="720" font-size="11" fill="#555555" text-anchor="middle">02:00</text>
<line x1="799.71" y1="70.00" x2="799.71" y2="314.34" stroke="#e74c3c" stroke-width="2"/>
<rect x="778.04" y="228.18" width="43.33" height="51.70" fill="#e74c3c" stroke="#e74c3c" stroke-width="1"/>
<text x="799.71" y="704" font-size="11" fill="#555555" text-anchor="middle">04-11</text>
<text x="799.71" y="720" font-size="11" fill="#555555" text-anchor="middle">03:00</text>
<line x1="874.41" y1="279.71" x2="874.41" y2="385.05" stroke="#e74c3c" stroke-width="2"/>
<rect x="852.75" y="282.45" width="43.33" height="85.93" fill="#e74c3c" stroke="#e74c3c" stroke-width="1"/>
<text x="874.41" y="704" font-size="11" fill="#555555" text-anchor="middle">04-11</text>
<text x="874.41" y="720" font-size="11" fill="#555555" text-anchor="middle">04:00</text>
<line x1="949.12" y1="361.46" x2="949.12" y2="412.36" stroke="#e74c3c" stroke-width="2"/>
<rect x="927.45" y="368.04" width="43.33" height="37.33" fill="#e74c3c" stroke="#e74c3c" stroke-width="1"/>
<text x="949.12" y="704" font-size="11" fill="#555555" text-anchor="middle">04-11</text>
<text x="949.12" y="720" font-size="11" fill="#555555" text-anchor="middle">05:00</text>
<line x1="1023.82" y1="386.36" x2="1023.82" y2="440.01" stroke="#e74c3c" stroke-width="2"/>
<rect x="1002.16" y="404.40" width="43.33" height="27.19" fill="#e74c3c" stroke="#e74c3c" stroke-width="1"/>
<text x="1023.82" y="704" font-size="11" fill="#555555" text-anchor="middle">04-11</text>
<text x="1023.82" y="720" font-size="11" fill="#555555" text-anchor="middle">06:00</text>
<line x1="1098.53" y1="413.33" x2="1098.53" y2="439.55" stroke="#e74c3c" stroke-width="2"/>
<rect x="1076.86" y="431.13" width="43.33" height="1.77" fill="#e74c3c" stroke="#e74c3c" stroke-width="1"/>
<text x="1098.53" y="704" font-size="11" fill="#555555" text-anchor="middle">04-11</text>
<text x="1098.53" y="720" font-size="11" fill="#555555" text-anchor="middle">07:00</text>
<line x1="1173.24" y1="411.90" x2="1173.24" y2="486.72" stroke="#e74c3c" stroke-width="2"/>
<rect x="1151.57" y="433.48" width="43.33" height="27.54" fill="#e74c3c" stroke="#e74c3c" stroke-width="1"/>
<text x="1173.24" y="704" font-size="11" fill="#555555" text-anchor="middle">04-11</text>
<text x="1173.24" y="720" font-size="11" fill="#555555" text-anchor="middle">08:00</text>
<line x1="1247.94" y1="458.38" x2="1247.94" y2="496.86" stroke="#e74c3c" stroke-width="2"/>
<rect x="1226.28" y="461.07" width="43.33" height="30.23" fill="#e74c3c" stroke="#e74c3c" stroke-width="1"/>
<text x="1247.94" y="704" font-size="11" fill="#555555" text-anchor="middle">04-11</text>
<text x="1247.94" y="720" font-size="11" fill="#555555" text-anchor="middle">09:00</text>
<line x1="1322.65" y1="470.86" x2="1322.65" y2="508.48" stroke="#2ecc71" stroke-width="2"/>
<rect x="1300.98" y="488.67" width="43.33" height="3.21" fill="#2ecc71" stroke="#2ecc71" stroke-width="1"/>
<text x="1322.65" y="704" font-size="11" fill="#555555" text-anchor="middle">04-11</text>
<text x="1322.65" y="720" font-size="11" fill="#555555" text-anchor="middle">10:00</text>
<line x1="725.00" y1="197.38" x2="805.00" y2="127.38" stroke="#f1c40f" stroke-width="2"/>
<rect x="805.00" y="79.38" width="220" height="72" rx="8" fill="#fff8dc" stroke="#f1c40f"/>
<text x="815.00" y="103.38" font-size="12" fill="#111111">目标K线 2026-04-11 02:00</text>
<text x="815.00" y="121.38" font-size="12" fill="#111111">振幅 103.21%</text>
<text x="815.00" y="139.38" font-size="12" fill="#111111">倍数 27.21x</text>
<line x1="650.29" y1="632.71" x2="620.29" y2="592.71" stroke="#3498db" stroke-width="2"/>
<rect x="400.29" y="556.71" width="220" height="58" rx="8" fill="#eef6ff" stroke="#3498db"/>
<text x="410.29" y="578.71" font-size="12" fill="#111111">前一根涨幅 3.71%</text>
<text x="410.29" y="596.71" font-size="12" fill="#111111">前一根振幅 3.79%</text>
</svg>