<svg xmlns="http://www.w3.org/2000/svg" width="1400" height="760" viewBox="0 0 1400 760">
<rect width="100%" height="100%" fill="#fcfcfc"/>
<text x="90" y="36" font-size="26" font-weight="700" fill="#111111">FLOCK_USDT 1H - 10倍命中</text>
<line x1="90" y1="70.00" x2="1360" y2="70.00" stroke="#d9d9d9" stroke-dasharray="4 4" stroke-width="1"/>
<text x="12" y="74.00" font-size="12" fill="#555555">0.142900</text>
<line x1="90" y1="186.00" x2="1360" y2="186.00" stroke="#d9d9d9" stroke-dasharray="4 4" stroke-width="1"/>
<text x="12" y="190.00" font-size="12" fill="#555555">0.135856</text>
<line x1="90" y1="302.00" x2="1360" y2="302.00" stroke="#d9d9d9" stroke-dasharray="4 4" stroke-width="1"/>
<text x="12" y="306.00" font-size="12" fill="#555555">0.128812</text>
<line x1="90" y1="418.00" x2="1360" y2="418.00" stroke="#d9d9d9" stroke-dasharray="4 4" stroke-width="1"/>
<text x="12" y="422.00" font-size="12" fill="#555555">0.121768</text>
<line x1="90" y1="534.00" x2="1360" y2="534.00" stroke="#d9d9d9" stroke-dasharray="4 4" stroke-width="1"/>
<text x="12" y="538.00" font-size="12" fill="#555555">0.114724</text>
<line x1="90" y1="650.00" x2="1360" y2="650.00" stroke="#d9d9d9" stroke-dasharray="4 4" stroke-width="1"/>
<text x="12" y="654.00" font-size="12" fill="#555555">0.107680</text>
<rect x="687.65" y="70" width="74.71" height="580.00" fill="#f1c40f" opacity="0.16"/>
<rect x="612.94" y="70" width="74.71" height="580.00" fill="#3498db" opacity="0.10"/>
<line x1="127.35" y1="490.92" x2="127.35" y2="574.25" stroke="#e74c3c" stroke-width="2"/>
<rect x="105.69" y="520.07" width="43.33" height="16.96" fill="#e74c3c" stroke="#e74c3c" stroke-width="1"/>
<text x="127.35" y="704" font-size="11" fill="#555555" text-anchor="middle">05-31</text>
<text x="127.35" y="720" font-size="11" fill="#555555" text-anchor="middle">15:00</text>
<line x1="202.06" y1="530.44" x2="202.06" y2="598.13" stroke="#e74c3c" stroke-width="2"/>
<rect x="180.39" y="537.69" width="43.33" height="24.87" fill="#e74c3c" stroke="#e74c3c" stroke-width="1"/>
<text x="202.06" y="704" font-size="11" fill="#555555" text-anchor="middle">05-31</text>
<text x="202.06" y="720" font-size="11" fill="#555555" text-anchor="middle">16:00</text>
<line x1="276.76" y1="557.78" x2="276.76" y2="624.97" stroke="#e74c3c" stroke-width="2"/>
<rect x="255.10" y="567.66" width="43.33" height="19.10" fill="#e74c3c" stroke="#e74c3c" stroke-width="1"/>
<text x="276.76" y="704" font-size="11" fill="#555555" text-anchor="middle">05-31</text>
<text x="276.76" y="720" font-size="11" fill="#555555" text-anchor="middle">17:00</text>
<line x1="351.47" y1="577.71" x2="351.47" y2="613.28" stroke="#2ecc71" stroke-width="2"/>
<rect x="329.81" y="586.27" width="43.33" height="1.20" fill="#2ecc71" stroke="#2ecc71" stroke-width="1"/>
<text x="351.47" y="704" font-size="11" fill="#555555" text-anchor="middle">05-31</text>
<text x="351.47" y="720" font-size="11" fill="#555555" text-anchor="middle">18:00</text>
<line x1="426.18" y1="494.54" x2="426.18" y2="601.58" stroke="#2ecc71" stroke-width="2"/>
<rect x="404.51" y="582.15" width="43.33" height="8.40" fill="#2ecc71" stroke="#2ecc71" stroke-width="1"/>
<text x="426.18" y="704" font-size="11" fill="#555555" text-anchor="middle">05-31</text>
<text x="426.18" y="720" font-size="11" fill="#555555" text-anchor="middle">19:00</text>
<line x1="500.88" y1="565.35" x2="500.88" y2="650.00" stroke="#e74c3c" stroke-width="2"/>
<rect x="479.22" y="580.34" width="43.33" height="21.74" fill="#e74c3c" stroke="#e74c3c" stroke-width="1"/>
<text x="500.88" y="704" font-size="11" fill="#555555" text-anchor="middle">05-31</text>
<text x="500.88" y="720" font-size="11" fill="#555555" text-anchor="middle">20:00</text>
<line x1="575.59" y1="583.14" x2="575.59" y2="630.07" stroke="#e74c3c" stroke-width="2"/>
<rect x="553.92" y="601.91" width="43.33" height="18.28" fill="#e74c3c" stroke="#e74c3c" stroke-width="1"/>
<text x="575.59" y="704" font-size="11" fill="#555555" text-anchor="middle">05-31</text>
<text x="575.59" y="720" font-size="11" fill="#555555" text-anchor="middle">21:00</text>
<line x1="650.29" y1="584.95" x2="650.29" y2="626.94" stroke="#2ecc71" stroke-width="2"/>
<rect x="628.63" y="591.04" width="43.33" height="27.67" fill="#2ecc71" stroke="#2ecc71" stroke-width="1"/>
<text x="650.29" y="704" font-size="11" fill="#555555" text-anchor="middle">05-31</text>
<text x="650.29" y="720" font-size="11" fill="#555555" text-anchor="middle">22:00</text>
<line x1="725.00" y1="70.00" x2="725.00" y2="595.66" stroke="#2ecc71" stroke-width="2"/>
<rect x="703.34" y="328.22" width="43.33" height="266.78" fill="#2ecc71" stroke="#2ecc71" stroke-width="1"/>
<text x="725.00" y="704" font-size="11" fill="#555555" text-anchor="middle">05-31</text>
<text x="725.00" y="720" font-size="11" fill="#555555" text-anchor="middle">23:00</text>
<line x1="799.71" y1="328.22" x2="799.71" y2="527.15" stroke="#e74c3c" stroke-width="2"/>
<rect x="778.04" y="328.22" width="43.33" height="164.19" fill="#e74c3c" stroke="#e74c3c" stroke-width="1"/>
<text x="799.71" y="704" font-size="11" fill="#555555" text-anchor="middle">06-01</text>
<text x="799.71" y="720" font-size="11" fill="#555555" text-anchor="middle">00:00</text>
<line x1="874.41" y1="476.92" x2="874.41" y2="516.28" stroke="#e74c3c" stroke-width="2"/>
<rect x="852.75" y="493.06" width="43.33" height="14.82" fill="#e74c3c" stroke="#e74c3c" stroke-width="1"/>
<text x="874.41" y="704" font-size="11" fill="#555555" text-anchor="middle">06-01</text>
<text x="874.41" y="720" font-size="11" fill="#555555" text-anchor="middle">01:00</text>
<line x1="949.12" y1="494.54" x2="949.12" y2="516.12" stroke="#2ecc71" stroke-width="2"/>
<rect x="927.45" y="507.06" width="43.33" height="1.48" fill="#2ecc71" stroke="#2ecc71" stroke-width="1"/>
<text x="949.12" y="704" font-size="11" fill="#555555" text-anchor="middle">06-01</text>
<text x="949.12" y="720" font-size="11" fill="#555555" text-anchor="middle">02:00</text>
<line x1="1023.82" y1="390.30" x2="1023.82" y2="535.22" stroke="#e74c3c" stroke-width="2"/>
<rect x="1002.16" y="507.88" width="43.33" height="9.22" fill="#e74c3c" stroke="#e74c3c" stroke-width="1"/>
<text x="1023.82" y="704" font-size="11" fill="#555555" text-anchor="middle">06-01</text>
<text x="1023.82" y="720" font-size="11" fill="#555555" text-anchor="middle">03:00</text>
<line x1="1098.53" y1="491.58" x2="1098.53" y2="539.99" stroke="#2ecc71" stroke-width="2"/>
<rect x="1076.86" y="502.12" width="43.33" height="18.28" fill="#2ecc71" stroke="#2ecc71" stroke-width="1"/>
<text x="1098.53" y="704" font-size="11" fill="#555555" text-anchor="middle">06-01</text>
<text x="1098.53" y="720" font-size="11" fill="#555555" text-anchor="middle">04:00</text>
<line x1="1173.24" y1="414.18" x2="1173.24" y2="508.71" stroke="#2ecc71" stroke-width="2"/>
<rect x="1151.57" y="450.41" width="43.33" height="50.89" fill="#2ecc71" stroke="#2ecc71" stroke-width="1"/>
<text x="1173.24" y="704" font-size="11" fill="#555555" text-anchor="middle">06-01</text>
<text x="1173.24" y="720" font-size="11" fill="#555555" text-anchor="middle">05:00</text>
<line x1="1247.94" y1="417.64" x2="1247.94" y2="474.12" stroke="#e74c3c" stroke-width="2"/>
<rect x="1226.28" y="450.41" width="43.33" height="19.76" fill="#e74c3c" stroke="#e74c3c" stroke-width="1"/>
<text x="1247.94" y="704" font-size="11" fill="#555555" text-anchor="middle">06-01</text>
<text x="1247.94" y="720" font-size="11" fill="#555555" text-anchor="middle">06:00</text>
<line x1="1322.65" y1="306.15" x2="1322.65" y2="483.34" stroke="#2ecc71" stroke-width="2"/>
<rect x="1300.98" y="319.98" width="43.33" height="147.72" fill="#2ecc71" stroke="#2ecc71" stroke-width="1"/>
<text x="1322.65" y="704" font-size="11" fill="#555555" text-anchor="middle">06-01</text>
<text x="1322.65" y="720" font-size="11" fill="#555555" text-anchor="middle">07:00</text>
<line x1="725.00" y1="70.00" x2="805.00" y2="90.00" stroke="#f1c40f" stroke-width="2"/>
<rect x="805.00" y="42.00" width="220" height="72" rx="8" fill="#fff8dc" stroke="#f1c40f"/>
<text x="815.00" y="66.00" font-size="12" fill="#111111">目标K线 2025-05-31 23:00</text>
<text x="815.00" y="84.00" font-size="12" fill="#111111">振幅 28.75%</text>
<text x="815.00" y="102.00" font-size="12" fill="#111111">倍数 12.36x</text>
<line x1="650.29" y1="584.95" x2="620.29" y2="544.95" stroke="#3498db" stroke-width="2"/>
<rect x="400.29" y="508.95" width="220" height="58" rx="8" fill="#eef6ff" stroke="#3498db"/>
<text x="410.29" y="530.95" font-size="12" fill="#111111">前一根涨幅 1.53%</text>
<text x="410.29" y="548.95" font-size="12" fill="#111111">前一根振幅 2.33%</text>
</svg>