<svg xmlns="http://www.w3.org/2000/svg" width="1400" height="760" viewBox="0 0 1400 760">
<rect width="100%" height="100%" fill="#fcfcfc"/>
<text x="90" y="36" font-size="26" font-weight="700" fill="#111111">FLUID_USDT 1H - 10倍命中</text>
<line x1="90" y1="70.00" x2="1360" y2="70.00" stroke="#d9d9d9" stroke-dasharray="4 4" stroke-width="1"/>
<text x="12" y="74.00" font-size="12" fill="#555555">4.397000</text>
<line x1="90" y1="186.00" x2="1360" y2="186.00" stroke="#d9d9d9" stroke-dasharray="4 4" stroke-width="1"/>
<text x="12" y="190.00" font-size="12" fill="#555555">4.081800</text>
<line x1="90" y1="302.00" x2="1360" y2="302.00" stroke="#d9d9d9" stroke-dasharray="4 4" stroke-width="1"/>
<text x="12" y="306.00" font-size="12" fill="#555555">3.766600</text>
<line x1="90" y1="418.00" x2="1360" y2="418.00" stroke="#d9d9d9" stroke-dasharray="4 4" stroke-width="1"/>
<text x="12" y="422.00" font-size="12" fill="#555555">3.451400</text>
<line x1="90" y1="534.00" x2="1360" y2="534.00" stroke="#d9d9d9" stroke-dasharray="4 4" stroke-width="1"/>
<text x="12" y="538.00" font-size="12" fill="#555555">3.136200</text>
<line x1="90" y1="650.00" x2="1360" y2="650.00" stroke="#d9d9d9" stroke-dasharray="4 4" stroke-width="1"/>
<text x="12" y="654.00" font-size="12" fill="#555555">2.821000</text>
<rect x="687.65" y="70" width="74.71" height="580.00" fill="#f1c40f" opacity="0.16"/>
<rect x="612.94" y="70" width="74.71" height="580.00" fill="#3498db" opacity="0.10"/>
<line x1="127.35" y1="611.36" x2="127.35" y2="646.69" stroke="#2ecc71" stroke-width="2"/>
<rect x="105.69" y="612.83" width="43.33" height="22.08" fill="#2ecc71" stroke="#2ecc71" stroke-width="1"/>
<text x="127.35" y="704" font-size="11" fill="#555555" text-anchor="middle">11-22</text>
<text x="127.35" y="720" font-size="11" fill="#555555" text-anchor="middle">00:00</text>
<line x1="202.06" y1="595.90" x2="202.06" y2="610.25" stroke="#e74c3c" stroke-width="2"/>
<rect x="180.39" y="606.21" width="43.33" height="1.20" fill="#e74c3c" stroke="#e74c3c" stroke-width="1"/>
<text x="202.06" y="704" font-size="11" fill="#555555" text-anchor="middle">11-22</text>
<text x="202.06" y="720" font-size="11" fill="#555555" text-anchor="middle">01:00</text>
<line x1="276.76" y1="595.53" x2="276.76" y2="623.50" stroke="#2ecc71" stroke-width="2"/>
<rect x="255.10" y="602.89" width="43.33" height="4.05" fill="#2ecc71" stroke="#2ecc71" stroke-width="1"/>
<text x="276.76" y="704" font-size="11" fill="#555555" text-anchor="middle">11-22</text>
<text x="276.76" y="720" font-size="11" fill="#555555" text-anchor="middle">02:00</text>
<line x1="351.47" y1="601.42" x2="351.47" y2="619.09" stroke="#e74c3c" stroke-width="2"/>
<rect x="329.81" y="601.42" width="43.33" height="15.46" fill="#e74c3c" stroke="#e74c3c" stroke-width="1"/>
<text x="351.47" y="704" font-size="11" fill="#555555" text-anchor="middle">11-22</text>
<text x="351.47" y="720" font-size="11" fill="#555555" text-anchor="middle">03:00</text>
<line x1="426.18" y1="615.04" x2="426.18" y2="641.90" stroke="#e74c3c" stroke-width="2"/>
<rect x="404.51" y="616.88" width="43.33" height="17.66" fill="#e74c3c" stroke="#e74c3c" stroke-width="1"/>
<text x="426.18" y="704" font-size="11" fill="#555555" text-anchor="middle">11-22</text>
<text x="426.18" y="720" font-size="11" fill="#555555" text-anchor="middle">04:00</text>
<line x1="500.88" y1="618.72" x2="500.88" y2="638.59" stroke="#2ecc71" stroke-width="2"/>
<rect x="479.22" y="620.19" width="43.33" height="12.14" fill="#2ecc71" stroke="#2ecc71" stroke-width="1"/>
<text x="500.88" y="704" font-size="11" fill="#555555" text-anchor="middle">11-22</text>
<text x="500.88" y="720" font-size="11" fill="#555555" text-anchor="middle">05:00</text>
<line x1="575.59" y1="619.45" x2="575.59" y2="637.12" stroke="#e74c3c" stroke-width="2"/>
<rect x="553.92" y="621.29" width="43.33" height="15.82" fill="#e74c3c" stroke="#e74c3c" stroke-width="1"/>
<text x="575.59" y="704" font-size="11" fill="#555555" text-anchor="middle">11-22</text>
<text x="575.59" y="720" font-size="11" fill="#555555" text-anchor="middle">06:00</text>
<line x1="650.29" y1="615.41" x2="650.29" y2="650.00" stroke="#2ecc71" stroke-width="2"/>
<rect x="628.63" y="616.14" width="43.33" height="29.07" fill="#2ecc71" stroke="#2ecc71" stroke-width="1"/>
<text x="650.29" y="704" font-size="11" fill="#555555" text-anchor="middle">11-22</text>
<text x="650.29" y="720" font-size="11" fill="#555555" text-anchor="middle">07:00</text>
<line x1="725.00" y1="78.46" x2="725.00" y2="616.14" stroke="#2ecc71" stroke-width="2"/>
<rect x="703.34" y="166.42" width="43.33" height="448.98" fill="#2ecc71" stroke="#2ecc71" stroke-width="1"/>
<text x="725.00" y="704" font-size="11" fill="#555555" text-anchor="middle">11-22</text>
<text x="725.00" y="720" font-size="11" fill="#555555" text-anchor="middle">08:00</text>
<line x1="799.71" y1="70.00" x2="799.71" y2="175.62" stroke="#2ecc71" stroke-width="2"/>
<rect x="778.04" y="109.01" width="43.33" height="56.68" fill="#2ecc71" stroke="#2ecc71" stroke-width="1"/>
<text x="799.71" y="704" font-size="11" fill="#555555" text-anchor="middle">11-22</text>
<text x="799.71" y="720" font-size="11" fill="#555555" text-anchor="middle">09:00</text>
<line x1="874.41" y1="98.34" x2="874.41" y2="227.88" stroke="#e74c3c" stroke-width="2"/>
<rect x="852.75" y="107.17" width="43.33" height="106.36" fill="#e74c3c" stroke="#e74c3c" stroke-width="1"/>
<text x="874.41" y="704" font-size="11" fill="#555555" text-anchor="middle">11-22</text>
<text x="874.41" y="720" font-size="11" fill="#555555" text-anchor="middle">10:00</text>
<line x1="949.12" y1="121.52" x2="949.12" y2="228.25" stroke="#2ecc71" stroke-width="2"/>
<rect x="927.45" y="166.42" width="43.33" height="49.31" fill="#2ecc71" stroke="#2ecc71" stroke-width="1"/>
<text x="949.12" y="704" font-size="11" fill="#555555" text-anchor="middle">11-22</text>
<text x="949.12" y="720" font-size="11" fill="#555555" text-anchor="middle">11:00</text>
<line x1="1023.82" y1="154.28" x2="1023.82" y2="238.92" stroke="#e74c3c" stroke-width="2"/>
<rect x="1002.16" y="167.16" width="43.33" height="41.95" fill="#e74c3c" stroke="#e74c3c" stroke-width="1"/>
<text x="1023.82" y="704" font-size="11" fill="#555555" text-anchor="middle">11-22</text>
<text x="1023.82" y="720" font-size="11" fill="#555555" text-anchor="middle">12:00</text>
<line x1="1098.53" y1="152.07" x2="1098.53" y2="283.45" stroke="#2ecc71" stroke-width="2"/>
<rect x="1076.86" y="192.92" width="43.33" height="13.98" fill="#2ecc71" stroke="#2ecc71" stroke-width="1"/>
<text x="1098.53" y="704" font-size="11" fill="#555555" text-anchor="middle">11-22</text>
<text x="1098.53" y="720" font-size="11" fill="#555555" text-anchor="middle">13:00</text>
<line x1="1173.24" y1="150.60" x2="1173.24" y2="242.60" stroke="#2ecc71" stroke-width="2"/>
<rect x="1151.57" y="164.95" width="43.33" height="36.43" fill="#2ecc71" stroke="#2ecc71" stroke-width="1"/>
<text x="1173.24" y="704" font-size="11" fill="#555555" text-anchor="middle">11-22</text>
<text x="1173.24" y="720" font-size="11" fill="#555555" text-anchor="middle">14:00</text>
<line x1="1247.94" y1="80.67" x2="1247.94" y2="230.46" stroke="#e74c3c" stroke-width="2"/>
<rect x="1226.28" y="169.37" width="43.33" height="47.47" fill="#e74c3c" stroke="#e74c3c" stroke-width="1"/>
<text x="1247.94" y="704" font-size="11" fill="#555555" text-anchor="middle">11-22</text>
<text x="1247.94" y="720" font-size="11" fill="#555555" text-anchor="middle">15:00</text>
<line x1="1322.65" y1="211.69" x2="1322.65" y2="278.30" stroke="#e74c3c" stroke-width="2"/>
<rect x="1300.98" y="216.84" width="43.33" height="36.07" fill="#e74c3c" stroke="#e74c3c" stroke-width="1"/>
<text x="1322.65" y="704" font-size="11" fill="#555555" text-anchor="middle">11-22</text>
<text x="1322.65" y="720" font-size="11" fill="#555555" text-anchor="middle">16:00</text>
<line x1="725.00" y1="78.46" x2="805.00" y2="90.00" stroke="#f1c40f" stroke-width="2"/>
<rect x="805.00" y="42.00" width="220" height="72" rx="8" fill="#fff8dc" stroke="#f1c40f"/>
<text x="815.00" y="66.00" font-size="12" fill="#111111">目标K线 2025-11-22 08:00</text>
<text x="815.00" y="84.00" font-size="12" fill="#111111">振幅 50.12%</text>
<text x="815.00" y="102.00" font-size="12" fill="#111111">倍数 15.11x</text>
<line x1="650.29" y1="615.41" x2="620.29" y2="575.41" stroke="#3498db" stroke-width="2"/>
<rect x="400.29" y="539.41" width="220" height="58" rx="8" fill="#eef6ff" stroke="#3498db"/>
<text x="410.29" y="561.41" font-size="12" fill="#111111">前一根涨幅 2.79%</text>
<text x="410.29" y="579.41" font-size="12" fill="#111111">前一根振幅 3.32%</text>
</svg>