<svg xmlns="http://www.w3.org/2000/svg" width="1400" height="760" viewBox="0 0 1400 760">
<rect width="100%" height="100%" fill="#fcfcfc"/>
<text x="90" y="36" font-size="26" font-weight="700" fill="#111111">HAEDAL_USDT 1H - 10倍命中</text>
<line x1="90" y1="70.00" x2="1360" y2="70.00" stroke="#d9d9d9" stroke-dasharray="4 4" stroke-width="1"/>
<text x="12" y="74.00" font-size="12" fill="#555555">0.220000</text>
<line x1="90" y1="186.00" x2="1360" y2="186.00" stroke="#d9d9d9" stroke-dasharray="4 4" stroke-width="1"/>
<text x="12" y="190.00" font-size="12" fill="#555555">0.201288</text>
<line x1="90" y1="302.00" x2="1360" y2="302.00" stroke="#d9d9d9" stroke-dasharray="4 4" stroke-width="1"/>
<text x="12" y="306.00" font-size="12" fill="#555555">0.182576</text>
<line x1="90" y1="418.00" x2="1360" y2="418.00" stroke="#d9d9d9" stroke-dasharray="4 4" stroke-width="1"/>
<text x="12" y="422.00" font-size="12" fill="#555555">0.163864</text>
<line x1="90" y1="534.00" x2="1360" y2="534.00" stroke="#d9d9d9" stroke-dasharray="4 4" stroke-width="1"/>
<text x="12" y="538.00" font-size="12" fill="#555555">0.145152</text>
<line x1="90" y1="650.00" x2="1360" y2="650.00" stroke="#d9d9d9" stroke-dasharray="4 4" stroke-width="1"/>
<text x="12" y="654.00" font-size="12" fill="#555555">0.126440</text>
<rect x="687.65" y="70" width="74.71" height="580.00" fill="#f1c40f" opacity="0.16"/>
<rect x="612.94" y="70" width="74.71" height="580.00" fill="#3498db" opacity="0.10"/>
<line x1="127.35" y1="638.66" x2="127.35" y2="650.00" stroke="#2ecc71" stroke-width="2"/>
<rect x="105.69" y="640.45" width="43.33" height="4.15" fill="#2ecc71" stroke="#2ecc71" stroke-width="1"/>
<text x="127.35" y="704" font-size="11" fill="#555555" text-anchor="middle">05-21</text>
<text x="127.35" y="720" font-size="11" fill="#555555" text-anchor="middle">10:00</text>
<line x1="202.06" y1="621.86" x2="202.06" y2="640.27" stroke="#2ecc71" stroke-width="2"/>
<rect x="180.39" y="628.98" width="43.33" height="10.48" fill="#2ecc71" stroke="#2ecc71" stroke-width="1"/>
<text x="202.06" y="704" font-size="11" fill="#555555" text-anchor="middle">05-21</text>
<text x="202.06" y="720" font-size="11" fill="#555555" text-anchor="middle">11:00</text>
<line x1="276.76" y1="623.65" x2="276.76" y2="633.57" stroke="#e74c3c" stroke-width="2"/>
<rect x="255.10" y="628.80" width="43.33" height="1.20" fill="#e74c3c" stroke="#e74c3c" stroke-width="1"/>
<text x="276.76" y="704" font-size="11" fill="#555555" text-anchor="middle">05-21</text>
<text x="276.76" y="720" font-size="11" fill="#555555" text-anchor="middle">12:00</text>
<line x1="351.47" y1="616.71" x2="351.47" y2="628.05" stroke="#2ecc71" stroke-width="2"/>
<rect x="329.81" y="619.00" width="43.33" height="8.80" fill="#2ecc71" stroke="#2ecc71" stroke-width="1"/>
<text x="351.47" y="704" font-size="11" fill="#555555" text-anchor="middle">05-21</text>
<text x="351.47" y="720" font-size="11" fill="#555555" text-anchor="middle">13:00</text>
<line x1="426.18" y1="617.33" x2="426.18" y2="627.12" stroke="#e74c3c" stroke-width="2"/>
<rect x="404.51" y="618.76" width="43.33" height="7.69" fill="#e74c3c" stroke="#e74c3c" stroke-width="1"/>
<text x="426.18" y="704" font-size="11" fill="#555555" text-anchor="middle">05-21</text>
<text x="426.18" y="720" font-size="11" fill="#555555" text-anchor="middle">14:00</text>
<line x1="500.88" y1="626.44" x2="500.88" y2="641.76" stroke="#e74c3c" stroke-width="2"/>
<rect x="479.22" y="626.94" width="43.33" height="5.58" fill="#e74c3c" stroke="#e74c3c" stroke-width="1"/>
<text x="500.88" y="704" font-size="11" fill="#555555" text-anchor="middle">05-21</text>
<text x="500.88" y="720" font-size="11" fill="#555555" text-anchor="middle">15:00</text>
<line x1="575.59" y1="625.33" x2="575.59" y2="636.24" stroke="#e74c3c" stroke-width="2"/>
<rect x="553.92" y="631.77" width="43.33" height="1.20" fill="#e74c3c" stroke="#e74c3c" stroke-width="1"/>
<text x="575.59" y="704" font-size="11" fill="#555555" text-anchor="middle">05-21</text>
<text x="575.59" y="720" font-size="11" fill="#555555" text-anchor="middle">16:00</text>
<line x1="650.29" y1="607.10" x2="650.29" y2="637.35" stroke="#2ecc71" stroke-width="2"/>
<rect x="628.63" y="611.87" width="43.33" height="21.57" fill="#2ecc71" stroke="#2ecc71" stroke-width="1"/>
<text x="650.29" y="704" font-size="11" fill="#555555" text-anchor="middle">05-21</text>
<text x="650.29" y="720" font-size="11" fill="#555555" text-anchor="middle">17:00</text>
<line x1="725.00" y1="255.91" x2="725.00" y2="612.62" stroke="#2ecc71" stroke-width="2"/>
<rect x="703.34" y="408.66" width="43.33" height="203.58" fill="#2ecc71" stroke="#2ecc71" stroke-width="1"/>
<text x="725.00" y="704" font-size="11" fill="#555555" text-anchor="middle">05-21</text>
<text x="725.00" y="720" font-size="11" fill="#555555" text-anchor="middle">18:00</text>
<line x1="799.71" y1="338.18" x2="799.71" y2="415.92" stroke="#2ecc71" stroke-width="2"/>
<rect x="778.04" y="350.76" width="43.33" height="57.78" fill="#2ecc71" stroke="#2ecc71" stroke-width="1"/>
<text x="799.71" y="704" font-size="11" fill="#555555" text-anchor="middle">05-21</text>
<text x="799.71" y="720" font-size="11" fill="#555555" text-anchor="middle">19:00</text>
<line x1="874.41" y1="335.02" x2="874.41" y2="383.06" stroke="#2ecc71" stroke-width="2"/>
<rect x="852.75" y="348.04" width="43.33" height="2.73" fill="#2ecc71" stroke="#2ecc71" stroke-width="1"/>
<text x="874.41" y="704" font-size="11" fill="#555555" text-anchor="middle">05-21</text>
<text x="874.41" y="720" font-size="11" fill="#555555" text-anchor="middle">20:00</text>
<line x1="949.12" y1="198.20" x2="949.12" y2="353.68" stroke="#2ecc71" stroke-width="2"/>
<rect x="927.45" y="245.69" width="43.33" height="102.47" fill="#2ecc71" stroke="#2ecc71" stroke-width="1"/>
<text x="949.12" y="704" font-size="11" fill="#555555" text-anchor="middle">05-21</text>
<text x="949.12" y="720" font-size="11" fill="#555555" text-anchor="middle">21:00</text>
<line x1="1023.82" y1="152.14" x2="1023.82" y2="252.26" stroke="#2ecc71" stroke-width="2"/>
<rect x="1002.16" y="214.88" width="43.33" height="30.07" fill="#2ecc71" stroke="#2ecc71" stroke-width="1"/>
<text x="1023.82" y="704" font-size="11" fill="#555555" text-anchor="middle">05-21</text>
<text x="1023.82" y="720" font-size="11" fill="#555555" text-anchor="middle">22:00</text>
<line x1="1098.53" y1="70.00" x2="1098.53" y2="310.03" stroke="#e74c3c" stroke-width="2"/>
<rect x="1076.86" y="214.63" width="43.33" height="54.18" fill="#e74c3c" stroke="#e74c3c" stroke-width="1"/>
<text x="1098.53" y="704" font-size="11" fill="#555555" text-anchor="middle">05-21</text>
<text x="1098.53" y="720" font-size="11" fill="#555555" text-anchor="middle">23:00</text>
<line x1="1173.24" y1="268.81" x2="1173.24" y2="361.18" stroke="#e74c3c" stroke-width="2"/>
<rect x="1151.57" y="268.81" width="43.33" height="69.37" fill="#e74c3c" stroke="#e74c3c" stroke-width="1"/>
<text x="1173.24" y="704" font-size="11" fill="#555555" text-anchor="middle">05-22</text>
<text x="1173.24" y="720" font-size="11" fill="#555555" text-anchor="middle">00:00</text>
<line x1="1247.94" y1="310.03" x2="1247.94" y2="376.92" stroke="#e74c3c" stroke-width="2"/>
<rect x="1226.28" y="338.24" width="43.33" height="18.41" fill="#e74c3c" stroke="#e74c3c" stroke-width="1"/>
<text x="1247.94" y="704" font-size="11" fill="#555555" text-anchor="middle">05-22</text>
<text x="1247.94" y="720" font-size="11" fill="#555555" text-anchor="middle">01:00</text>
<line x1="1322.65" y1="331.73" x2="1322.65" y2="376.12" stroke="#e74c3c" stroke-width="2"/>
<rect x="1300.98" y="356.03" width="43.33" height="1.24" fill="#e74c3c" stroke="#e74c3c" stroke-width="1"/>
<text x="1322.65" y="704" font-size="11" fill="#555555" text-anchor="middle">05-22</text>
<text x="1322.65" y="720" font-size="11" fill="#555555" text-anchor="middle">02:00</text>
<line x1="725.00" y1="255.91" x2="805.00" y2="185.91" stroke="#f1c40f" stroke-width="2"/>
<rect x="805.00" y="137.91" width="220" height="72" rx="8" fill="#fff8dc" stroke="#f1c40f"/>
<text x="815.00" y="161.91" font-size="12" fill="#111111">目标K线 2025-05-21 18:00</text>
<text x="815.00" y="179.91" font-size="12" fill="#111111">振幅 43.42%</text>
<text x="815.00" y="197.91" font-size="12" fill="#111111">倍数 11.49x</text>
<line x1="650.29" y1="607.10" x2="620.29" y2="567.10" stroke="#3498db" stroke-width="2"/>
<rect x="400.29" y="531.10" width="220" height="58" rx="8" fill="#eef6ff" stroke="#3498db"/>
<text x="410.29" y="553.10" font-size="12" fill="#111111">前一根涨幅 2.70%</text>
<text x="410.29" y="571.10" font-size="12" fill="#111111">前一根振幅 3.78%</text>
</svg>