<svg xmlns="http://www.w3.org/2000/svg" width="1400" height="760" viewBox="0 0 1400 760">
<rect width="100%" height="100%" fill="#fcfcfc"/>
<text x="90" y="36" font-size="26" font-weight="700" fill="#111111">KERNEL_USDT 1H - 10倍命中</text>
<line x1="90" y1="70.00" x2="1360" y2="70.00" stroke="#d9d9d9" stroke-dasharray="4 4" stroke-width="1"/>
<text x="12" y="74.00" font-size="12" fill="#555555">0.433600</text>
<line x1="90" y1="186.00" x2="1360" y2="186.00" stroke="#d9d9d9" stroke-dasharray="4 4" stroke-width="1"/>
<text x="12" y="190.00" font-size="12" fill="#555555">0.379260</text>
<line x1="90" y1="302.00" x2="1360" y2="302.00" stroke="#d9d9d9" stroke-dasharray="4 4" stroke-width="1"/>
<text x="12" y="306.00" font-size="12" fill="#555555">0.324920</text>
<line x1="90" y1="418.00" x2="1360" y2="418.00" stroke="#d9d9d9" stroke-dasharray="4 4" stroke-width="1"/>
<text x="12" y="422.00" font-size="12" fill="#555555">0.270580</text>
<line x1="90" y1="534.00" x2="1360" y2="534.00" stroke="#d9d9d9" stroke-dasharray="4 4" stroke-width="1"/>
<text x="12" y="538.00" font-size="12" fill="#555555">0.216240</text>
<line x1="90" y1="650.00" x2="1360" y2="650.00" stroke="#d9d9d9" stroke-dasharray="4 4" stroke-width="1"/>
<text x="12" y="654.00" font-size="12" fill="#555555">0.161900</text>
<rect x="687.65" y="70" width="74.71" height="580.00" fill="#f1c40f" opacity="0.16"/>
<rect x="612.94" y="70" width="74.71" height="580.00" fill="#3498db" opacity="0.10"/>
<line x1="127.35" y1="641.25" x2="127.35" y2="644.66" stroke="#e74c3c" stroke-width="2"/>
<rect x="105.69" y="641.67" width="43.33" height="1.71" fill="#e74c3c" stroke="#e74c3c" stroke-width="1"/>
<text x="127.35" y="704" font-size="11" fill="#555555" text-anchor="middle">10-28</text>
<text x="127.35" y="720" font-size="11" fill="#555555" text-anchor="middle">07:00</text>
<line x1="202.06" y1="642.32" x2="202.06" y2="646.16" stroke="#e74c3c" stroke-width="2"/>
<rect x="180.39" y="643.60" width="43.33" height="1.49" fill="#e74c3c" stroke="#e74c3c" stroke-width="1"/>
<text x="202.06" y="704" font-size="11" fill="#555555" text-anchor="middle">10-28</text>
<text x="202.06" y="720" font-size="11" fill="#555555" text-anchor="middle">08:00</text>
<line x1="276.76" y1="642.32" x2="276.76" y2="643.38" stroke="#2ecc71" stroke-width="2"/>
<rect x="255.10" y="642.74" width="43.33" height="1.20" fill="#2ecc71" stroke="#2ecc71" stroke-width="1"/>
<text x="276.76" y="704" font-size="11" fill="#555555" text-anchor="middle">10-28</text>
<text x="276.76" y="720" font-size="11" fill="#555555" text-anchor="middle">09:00</text>
<line x1="351.47" y1="644.45" x2="351.47" y2="648.72" stroke="#e74c3c" stroke-width="2"/>
<rect x="329.81" y="644.45" width="43.33" height="2.99" fill="#e74c3c" stroke="#e74c3c" stroke-width="1"/>
<text x="351.47" y="704" font-size="11" fill="#555555" text-anchor="middle">10-28</text>
<text x="351.47" y="720" font-size="11" fill="#555555" text-anchor="middle">10:00</text>
<line x1="426.18" y1="644.45" x2="426.18" y2="648.08" stroke="#e74c3c" stroke-width="2"/>
<rect x="404.51" y="645.09" width="43.33" height="2.13" fill="#e74c3c" stroke="#e74c3c" stroke-width="1"/>
<text x="426.18" y="704" font-size="11" fill="#555555" text-anchor="middle">10-28</text>
<text x="426.18" y="720" font-size="11" fill="#555555" text-anchor="middle">11:00</text>
<line x1="500.88" y1="645.09" x2="500.88" y2="647.44" stroke="#2ecc71" stroke-width="2"/>
<rect x="479.22" y="645.09" width="43.33" height="2.13" fill="#2ecc71" stroke="#2ecc71" stroke-width="1"/>
<text x="500.88" y="704" font-size="11" fill="#555555" text-anchor="middle">10-28</text>
<text x="500.88" y="720" font-size="11" fill="#555555" text-anchor="middle">12:00</text>
<line x1="575.59" y1="643.60" x2="575.59" y2="649.57" stroke="#e74c3c" stroke-width="2"/>
<rect x="553.92" y="644.66" width="43.33" height="4.91" fill="#e74c3c" stroke="#e74c3c" stroke-width="1"/>
<text x="575.59" y="704" font-size="11" fill="#555555" text-anchor="middle">10-28</text>
<text x="575.59" y="720" font-size="11" fill="#555555" text-anchor="middle">13:00</text>
<line x1="650.29" y1="641.89" x2="650.29" y2="650.00" stroke="#2ecc71" stroke-width="2"/>
<rect x="628.63" y="643.60" width="43.33" height="5.12" fill="#2ecc71" stroke="#2ecc71" stroke-width="1"/>
<text x="650.29" y="704" font-size="11" fill="#555555" text-anchor="middle">10-28</text>
<text x="650.29" y="720" font-size="11" fill="#555555" text-anchor="middle">14:00</text>
<line x1="725.00" y1="70.00" x2="725.00" y2="642.96" stroke="#2ecc71" stroke-width="2"/>
<rect x="703.34" y="539.64" width="43.33" height="103.32" fill="#2ecc71" stroke="#2ecc71" stroke-width="1"/>
<text x="725.00" y="704" font-size="11" fill="#555555" text-anchor="middle">10-28</text>
<text x="725.00" y="720" font-size="11" fill="#555555" text-anchor="middle">15:00</text>
<line x1="799.71" y1="538.14" x2="799.71" y2="599.62" stroke="#e74c3c" stroke-width="2"/>
<rect x="778.04" y="540.49" width="43.33" height="47.82" fill="#e74c3c" stroke="#e74c3c" stroke-width="1"/>
<text x="799.71" y="704" font-size="11" fill="#555555" text-anchor="middle">10-28</text>
<text x="799.71" y="720" font-size="11" fill="#555555" text-anchor="middle">16:00</text>
<line x1="874.41" y1="559.92" x2="874.41" y2="591.08" stroke="#2ecc71" stroke-width="2"/>
<rect x="852.75" y="571.44" width="43.33" height="16.01" fill="#2ecc71" stroke="#2ecc71" stroke-width="1"/>
<text x="874.41" y="704" font-size="11" fill="#555555" text-anchor="middle">10-28</text>
<text x="874.41" y="720" font-size="11" fill="#555555" text-anchor="middle">17:00</text>
<line x1="949.12" y1="566.96" x2="949.12" y2="580.84" stroke="#e74c3c" stroke-width="2"/>
<rect x="927.45" y="571.66" width="43.33" height="1.20" fill="#e74c3c" stroke="#e74c3c" stroke-width="1"/>
<text x="949.12" y="704" font-size="11" fill="#555555" text-anchor="middle">10-28</text>
<text x="949.12" y="720" font-size="11" fill="#555555" text-anchor="middle">18:00</text>
<line x1="1023.82" y1="541.56" x2="1023.82" y2="574.64" stroke="#2ecc71" stroke-width="2"/>
<rect x="1002.16" y="570.59" width="43.33" height="2.56" fill="#2ecc71" stroke="#2ecc71" stroke-width="1"/>
<text x="1023.82" y="704" font-size="11" fill="#555555" text-anchor="middle">10-28</text>
<text x="1023.82" y="720" font-size="11" fill="#555555" text-anchor="middle">19:00</text>
<line x1="1098.53" y1="567.81" x2="1098.53" y2="594.92" stroke="#e74c3c" stroke-width="2"/>
<rect x="1076.86" y="570.38" width="43.33" height="16.86" fill="#e74c3c" stroke="#e74c3c" stroke-width="1"/>
<text x="1098.53" y="704" font-size="11" fill="#555555" text-anchor="middle">10-28</text>
<text x="1098.53" y="720" font-size="11" fill="#555555" text-anchor="middle">20:00</text>
<line x1="1173.24" y1="583.18" x2="1173.24" y2="596.63" stroke="#e74c3c" stroke-width="2"/>
<rect x="1151.57" y="587.45" width="43.33" height="4.06" fill="#e74c3c" stroke="#e74c3c" stroke-width="1"/>
<text x="1173.24" y="704" font-size="11" fill="#555555" text-anchor="middle">10-28</text>
<text x="1173.24" y="720" font-size="11" fill="#555555" text-anchor="middle">21:00</text>
<line x1="1247.94" y1="586.60" x2="1247.94" y2="604.10" stroke="#e74c3c" stroke-width="2"/>
<rect x="1226.28" y="591.72" width="43.33" height="4.27" fill="#e74c3c" stroke="#e74c3c" stroke-width="1"/>
<text x="1247.94" y="704" font-size="11" fill="#555555" text-anchor="middle">10-28</text>
<text x="1247.94" y="720" font-size="11" fill="#555555" text-anchor="middle">22:00</text>
<line x1="1322.65" y1="590.87" x2="1322.65" y2="601.54" stroke="#2ecc71" stroke-width="2"/>
<rect x="1300.98" y="596.42" width="43.33" height="1.20" fill="#2ecc71" stroke="#2ecc71" stroke-width="1"/>
<text x="1322.65" y="704" font-size="11" fill="#555555" text-anchor="middle">10-28</text>
<text x="1322.65" y="720" font-size="11" fill="#555555" text-anchor="middle">23:00</text>
<line x1="725.00" y1="70.00" x2="805.00" y2="90.00" stroke="#f1c40f" stroke-width="2"/>
<rect x="805.00" y="42.00" width="220" height="72" rx="8" fill="#fff8dc" stroke="#f1c40f"/>
<text x="815.00" y="66.00" font-size="12" fill="#111111">目标K线 2025-10-28 15:00</text>
<text x="815.00" y="84.00" font-size="12" fill="#111111">振幅 162.47%</text>
<text x="815.00" y="102.00" font-size="12" fill="#111111">倍数 69.48x</text>
<line x1="650.29" y1="641.89" x2="620.29" y2="601.89" stroke="#3498db" stroke-width="2"/>
<rect x="400.29" y="565.89" width="220" height="58" rx="8" fill="#eef6ff" stroke="#3498db"/>
<text x="410.29" y="587.89" font-size="12" fill="#111111">前一根涨幅 1.48%</text>
<text x="410.29" y="605.89" font-size="12" fill="#111111">前一根振幅 2.34%</text>
</svg>