<svg xmlns="http://www.w3.org/2000/svg" width="1400" height="760" viewBox="0 0 1400 760">
<rect width="100%" height="100%" fill="#fcfcfc"/>
<text x="90" y="36" font-size="26" font-weight="700" fill="#111111">KNC_USDT 1H - 10倍命中</text>
<line x1="90" y1="70.00" x2="1360" y2="70.00" stroke="#d9d9d9" stroke-dasharray="4 4" stroke-width="1"/>
<text x="12" y="74.00" font-size="12" fill="#555555">0.192200</text>
<line x1="90" y1="186.00" x2="1360" y2="186.00" stroke="#d9d9d9" stroke-dasharray="4 4" stroke-width="1"/>
<text x="12" y="190.00" font-size="12" fill="#555555">0.181200</text>
<line x1="90" y1="302.00" x2="1360" y2="302.00" stroke="#d9d9d9" stroke-dasharray="4 4" stroke-width="1"/>
<text x="12" y="306.00" font-size="12" fill="#555555">0.170200</text>
<line x1="90" y1="418.00" x2="1360" y2="418.00" stroke="#d9d9d9" stroke-dasharray="4 4" stroke-width="1"/>
<text x="12" y="422.00" font-size="12" fill="#555555">0.159200</text>
<line x1="90" y1="534.00" x2="1360" y2="534.00" stroke="#d9d9d9" stroke-dasharray="4 4" stroke-width="1"/>
<text x="12" y="538.00" font-size="12" fill="#555555">0.148200</text>
<line x1="90" y1="650.00" x2="1360" y2="650.00" stroke="#d9d9d9" stroke-dasharray="4 4" stroke-width="1"/>
<text x="12" y="654.00" font-size="12" fill="#555555">0.137200</text>
<rect x="687.65" y="70" width="74.71" height="580.00" fill="#f1c40f" opacity="0.16"/>
<rect x="612.94" y="70" width="74.71" height="580.00" fill="#3498db" opacity="0.10"/>
<line x1="127.35" y1="618.36" x2="127.35" y2="650.00" stroke="#2ecc71" stroke-width="2"/>
<rect x="105.69" y="623.64" width="43.33" height="26.36" fill="#2ecc71" stroke="#2ecc71" stroke-width="1"/>
<text x="127.35" y="704" font-size="11" fill="#555555" text-anchor="middle">03-27</text>
<text x="127.35" y="720" font-size="11" fill="#555555" text-anchor="middle">04:00</text>
<line x1="202.06" y1="620.47" x2="202.06" y2="632.07" stroke="#2ecc71" stroke-width="2"/>
<rect x="180.39" y="625.75" width="43.33" height="1.20" fill="#2ecc71" stroke="#2ecc71" stroke-width="1"/>
<text x="202.06" y="704" font-size="11" fill="#555555" text-anchor="middle">03-27</text>
<text x="202.06" y="720" font-size="11" fill="#555555" text-anchor="middle">05:00</text>
<line x1="276.76" y1="620.47" x2="276.76" y2="636.29" stroke="#e74c3c" stroke-width="2"/>
<rect x="255.10" y="624.69" width="43.33" height="10.55" fill="#e74c3c" stroke="#e74c3c" stroke-width="1"/>
<text x="276.76" y="704" font-size="11" fill="#555555" text-anchor="middle">03-27</text>
<text x="276.76" y="720" font-size="11" fill="#555555" text-anchor="middle">06:00</text>
<line x1="351.47" y1="633.13" x2="351.47" y2="639.45" stroke="#e74c3c" stroke-width="2"/>
<rect x="329.81" y="635.24" width="43.33" height="1.20" fill="#e74c3c" stroke="#e74c3c" stroke-width="1"/>
<text x="351.47" y="704" font-size="11" fill="#555555" text-anchor="middle">03-27</text>
<text x="351.47" y="720" font-size="11" fill="#555555" text-anchor="middle">07:00</text>
<line x1="426.18" y1="635.24" x2="426.18" y2="646.84" stroke="#e74c3c" stroke-width="2"/>
<rect x="404.51" y="635.24" width="43.33" height="10.55" fill="#e74c3c" stroke="#e74c3c" stroke-width="1"/>
<text x="426.18" y="704" font-size="11" fill="#555555" text-anchor="middle">03-27</text>
<text x="426.18" y="720" font-size="11" fill="#555555" text-anchor="middle">08:00</text>
<line x1="500.88" y1="643.67" x2="500.88" y2="646.84" stroke="#e74c3c" stroke-width="2"/>
<rect x="479.22" y="644.73" width="43.33" height="1.20" fill="#e74c3c" stroke="#e74c3c" stroke-width="1"/>
<text x="500.88" y="704" font-size="11" fill="#555555" text-anchor="middle">03-27</text>
<text x="500.88" y="720" font-size="11" fill="#555555" text-anchor="middle">09:00</text>
<line x1="575.59" y1="641.56" x2="575.59" y2="646.84" stroke="#2ecc71" stroke-width="2"/>
<rect x="553.92" y="642.62" width="43.33" height="1.20" fill="#2ecc71" stroke="#2ecc71" stroke-width="1"/>
<text x="575.59" y="704" font-size="11" fill="#555555" text-anchor="middle">03-27</text>
<text x="575.59" y="720" font-size="11" fill="#555555" text-anchor="middle">10:00</text>
<line x1="650.29" y1="622.58" x2="650.29" y2="642.62" stroke="#2ecc71" stroke-width="2"/>
<rect x="628.63" y="626.80" width="43.33" height="14.76" fill="#2ecc71" stroke="#2ecc71" stroke-width="1"/>
<text x="650.29" y="704" font-size="11" fill="#555555" text-anchor="middle">03-27</text>
<text x="650.29" y="720" font-size="11" fill="#555555" text-anchor="middle">11:00</text>
<line x1="725.00" y1="430.65" x2="725.00" y2="636.29" stroke="#2ecc71" stroke-width="2"/>
<rect x="703.34" y="513.96" width="43.33" height="112.84" fill="#2ecc71" stroke="#2ecc71" stroke-width="1"/>
<text x="725.00" y="704" font-size="11" fill="#555555" text-anchor="middle">03-27</text>
<text x="725.00" y="720" font-size="11" fill="#555555" text-anchor="middle">12:00</text>
<line x1="799.71" y1="318.87" x2="799.71" y2="561.42" stroke="#2ecc71" stroke-width="2"/>
<rect x="778.04" y="338.91" width="43.33" height="172.95" fill="#2ecc71" stroke="#2ecc71" stroke-width="1"/>
<text x="799.71" y="704" font-size="11" fill="#555555" text-anchor="middle">03-27</text>
<text x="799.71" y="720" font-size="11" fill="#555555" text-anchor="middle">13:00</text>
<line x1="874.41" y1="70.00" x2="874.41" y2="362.11" stroke="#2ecc71" stroke-width="2"/>
<rect x="852.75" y="162.80" width="43.33" height="174.00" fill="#2ecc71" stroke="#2ecc71" stroke-width="1"/>
<text x="874.41" y="704" font-size="11" fill="#555555" text-anchor="middle">03-27</text>
<text x="874.41" y="720" font-size="11" fill="#555555" text-anchor="middle">14:00</text>
<line x1="949.12" y1="94.25" x2="949.12" y2="220.80" stroke="#2ecc71" stroke-width="2"/>
<rect x="927.45" y="150.15" width="43.33" height="13.71" fill="#2ecc71" stroke="#2ecc71" stroke-width="1"/>
<text x="949.12" y="704" font-size="11" fill="#555555" text-anchor="middle">03-27</text>
<text x="949.12" y="720" font-size="11" fill="#555555" text-anchor="middle">15:00</text>
<line x1="1023.82" y1="83.71" x2="1023.82" y2="287.24" stroke="#e74c3c" stroke-width="2"/>
<rect x="1002.16" y="152.25" width="43.33" height="90.69" fill="#e74c3c" stroke="#e74c3c" stroke-width="1"/>
<text x="1023.82" y="704" font-size="11" fill="#555555" text-anchor="middle">03-27</text>
<text x="1023.82" y="720" font-size="11" fill="#555555" text-anchor="middle">16:00</text>
<line x1="1098.53" y1="241.89" x2="1098.53" y2="320.98" stroke="#e74c3c" stroke-width="2"/>
<rect x="1076.86" y="245.05" width="43.33" height="62.22" fill="#e74c3c" stroke="#e74c3c" stroke-width="1"/>
<text x="1098.53" y="704" font-size="11" fill="#555555" text-anchor="middle">03-27</text>
<text x="1098.53" y="720" font-size="11" fill="#555555" text-anchor="middle">17:00</text>
<line x1="1173.24" y1="280.91" x2="1173.24" y2="374.76" stroke="#e74c3c" stroke-width="2"/>
<rect x="1151.57" y="303.05" width="43.33" height="63.27" fill="#e74c3c" stroke="#e74c3c" stroke-width="1"/>
<text x="1173.24" y="704" font-size="11" fill="#555555" text-anchor="middle">03-27</text>
<text x="1173.24" y="720" font-size="11" fill="#555555" text-anchor="middle">18:00</text>
<line x1="1247.94" y1="303.05" x2="1247.94" y2="368.44" stroke="#2ecc71" stroke-width="2"/>
<rect x="1226.28" y="324.15" width="43.33" height="44.29" fill="#2ecc71" stroke="#2ecc71" stroke-width="1"/>
<text x="1247.94" y="704" font-size="11" fill="#555555" text-anchor="middle">03-27</text>
<text x="1247.94" y="720" font-size="11" fill="#555555" text-anchor="middle">19:00</text>
<line x1="1322.65" y1="265.09" x2="1322.65" y2="361.05" stroke="#2ecc71" stroke-width="2"/>
<rect x="1300.98" y="306.22" width="43.33" height="18.98" fill="#2ecc71" stroke="#2ecc71" stroke-width="1"/>
<text x="1322.65" y="704" font-size="11" fill="#555555" text-anchor="middle">03-27</text>
<text x="1322.65" y="720" font-size="11" fill="#555555" text-anchor="middle">20:00</text>
<line x1="725.00" y1="430.65" x2="805.00" y2="360.65" stroke="#f1c40f" stroke-width="2"/>
<rect x="805.00" y="312.65" width="220" height="72" rx="8" fill="#fff8dc" stroke="#f1c40f"/>
<text x="815.00" y="336.65" font-size="12" fill="#111111">目标K线 2026-03-27 12:00</text>
<text x="815.00" y="354.65" font-size="12" fill="#111111">振幅 13.99%</text>
<text x="815.00" y="372.65" font-size="12" fill="#111111">倍数 10.16x</text>
<line x1="650.29" y1="622.58" x2="620.29" y2="582.58" stroke="#3498db" stroke-width="2"/>
<rect x="400.29" y="546.58" width="220" height="58" rx="8" fill="#eef6ff" stroke="#3498db"/>
<text x="410.29" y="568.58" font-size="12" fill="#111111">前一根涨幅 1.01%</text>
<text x="410.29" y="586.58" font-size="12" fill="#111111">前一根振幅 1.38%</text>
</svg>