<svg xmlns="http://www.w3.org/2000/svg" width="1400" height="760" viewBox="0 0 1400 760">
<rect width="100%" height="100%" fill="#fcfcfc"/>
<text x="90" y="36" font-size="26" font-weight="700" fill="#111111">KOMA_USDT 1H - 10倍命中</text>
<line x1="90" y1="70.00" x2="1360" y2="70.00" stroke="#d9d9d9" stroke-dasharray="4 4" stroke-width="1"/>
<text x="12" y="74.00" font-size="12" fill="#555555">0.025590</text>
<line x1="90" y1="186.00" x2="1360" y2="186.00" stroke="#d9d9d9" stroke-dasharray="4 4" stroke-width="1"/>
<text x="12" y="190.00" font-size="12" fill="#555555">0.023986</text>
<line x1="90" y1="302.00" x2="1360" y2="302.00" stroke="#d9d9d9" stroke-dasharray="4 4" stroke-width="1"/>
<text x="12" y="306.00" font-size="12" fill="#555555">0.022382</text>
<line x1="90" y1="418.00" x2="1360" y2="418.00" stroke="#d9d9d9" stroke-dasharray="4 4" stroke-width="1"/>
<text x="12" y="422.00" font-size="12" fill="#555555">0.020778</text>
<line x1="90" y1="534.00" x2="1360" y2="534.00" stroke="#d9d9d9" stroke-dasharray="4 4" stroke-width="1"/>
<text x="12" y="538.00" font-size="12" fill="#555555">0.019174</text>
<line x1="90" y1="650.00" x2="1360" y2="650.00" stroke="#d9d9d9" stroke-dasharray="4 4" stroke-width="1"/>
<text x="12" y="654.00" font-size="12" fill="#555555">0.017570</text>
<rect x="687.65" y="70" width="74.71" height="580.00" fill="#f1c40f" opacity="0.16"/>
<rect x="612.94" y="70" width="74.71" height="580.00" fill="#3498db" opacity="0.10"/>
<line x1="127.35" y1="613.12" x2="127.35" y2="626.13" stroke="#2ecc71" stroke-width="2"/>
<rect x="105.69" y="621.80" width="43.33" height="2.17" fill="#2ecc71" stroke="#2ecc71" stroke-width="1"/>
<text x="127.35" y="704" font-size="11" fill="#555555" text-anchor="middle">10-18</text>
<text x="127.35" y="720" font-size="11" fill="#555555" text-anchor="middle">05:00</text>
<line x1="202.06" y1="613.12" x2="202.06" y2="626.86" stroke="#e74c3c" stroke-width="2"/>
<rect x="180.39" y="618.18" width="43.33" height="1.20" fill="#e74c3c" stroke="#e74c3c" stroke-width="1"/>
<text x="202.06" y="704" font-size="11" fill="#555555" text-anchor="middle">10-18</text>
<text x="202.06" y="720" font-size="11" fill="#555555" text-anchor="middle">06:00</text>
<line x1="276.76" y1="617.46" x2="276.76" y2="650.00" stroke="#e74c3c" stroke-width="2"/>
<rect x="255.10" y="619.63" width="43.33" height="10.12" fill="#e74c3c" stroke="#e74c3c" stroke-width="1"/>
<text x="276.76" y="704" font-size="11" fill="#555555" text-anchor="middle">10-18</text>
<text x="276.76" y="720" font-size="11" fill="#555555" text-anchor="middle">07:00</text>
<line x1="351.47" y1="605.16" x2="351.47" y2="636.98" stroke="#2ecc71" stroke-width="2"/>
<rect x="329.81" y="614.56" width="43.33" height="14.46" fill="#2ecc71" stroke="#2ecc71" stroke-width="1"/>
<text x="351.47" y="704" font-size="11" fill="#555555" text-anchor="middle">10-18</text>
<text x="351.47" y="720" font-size="11" fill="#555555" text-anchor="middle">08:00</text>
<line x1="426.18" y1="595.76" x2="426.18" y2="617.46" stroke="#2ecc71" stroke-width="2"/>
<rect x="404.51" y="608.05" width="43.33" height="7.96" fill="#2ecc71" stroke="#2ecc71" stroke-width="1"/>
<text x="426.18" y="704" font-size="11" fill="#555555" text-anchor="middle">10-18</text>
<text x="426.18" y="720" font-size="11" fill="#555555" text-anchor="middle">09:00</text>
<line x1="500.88" y1="584.19" x2="500.88" y2="615.29" stroke="#2ecc71" stroke-width="2"/>
<rect x="479.22" y="603.72" width="43.33" height="1.20" fill="#2ecc71" stroke="#2ecc71" stroke-width="1"/>
<text x="500.88" y="704" font-size="11" fill="#555555" text-anchor="middle">10-18</text>
<text x="500.88" y="720" font-size="11" fill="#555555" text-anchor="middle">10:00</text>
<line x1="575.59" y1="592.14" x2="575.59" y2="608.05" stroke="#2ecc71" stroke-width="2"/>
<rect x="553.92" y="603.72" width="43.33" height="2.89" fill="#2ecc71" stroke="#2ecc71" stroke-width="1"/>
<text x="575.59" y="704" font-size="11" fill="#555555" text-anchor="middle">10-18</text>
<text x="575.59" y="720" font-size="11" fill="#555555" text-anchor="middle">11:00</text>
<line x1="650.29" y1="581.30" x2="650.29" y2="611.67" stroke="#2ecc71" stroke-width="2"/>
<rect x="628.63" y="584.19" width="43.33" height="20.25" fill="#2ecc71" stroke="#2ecc71" stroke-width="1"/>
<text x="650.29" y="704" font-size="11" fill="#555555" text-anchor="middle">10-18</text>
<text x="650.29" y="720" font-size="11" fill="#555555" text-anchor="middle">12:00</text>
<line x1="725.00" y1="70.00" x2="725.00" y2="591.42" stroke="#2ecc71" stroke-width="2"/>
<rect x="703.34" y="341.92" width="43.33" height="248.05" fill="#2ecc71" stroke="#2ecc71" stroke-width="1"/>
<text x="725.00" y="704" font-size="11" fill="#555555" text-anchor="middle">10-18</text>
<text x="725.00" y="720" font-size="11" fill="#555555" text-anchor="middle">13:00</text>
<line x1="799.71" y1="208.13" x2="799.71" y2="392.54" stroke="#e74c3c" stroke-width="2"/>
<rect x="778.04" y="344.81" width="43.33" height="8.68" fill="#e74c3c" stroke="#e74c3c" stroke-width="1"/>
<text x="799.71" y="704" font-size="11" fill="#555555" text-anchor="middle">10-18</text>
<text x="799.71" y="720" font-size="11" fill="#555555" text-anchor="middle">14:00</text>
<line x1="874.41" y1="199.45" x2="874.41" y2="378.80" stroke="#2ecc71" stroke-width="2"/>
<rect x="852.75" y="278.28" width="43.33" height="73.77" fill="#2ecc71" stroke="#2ecc71" stroke-width="1"/>
<text x="874.41" y="704" font-size="11" fill="#555555" text-anchor="middle">10-18</text>
<text x="874.41" y="720" font-size="11" fill="#555555" text-anchor="middle">15:00</text>
<line x1="949.12" y1="187.16" x2="949.12" y2="315.16" stroke="#2ecc71" stroke-width="2"/>
<rect x="927.45" y="247.18" width="43.33" height="26.03" fill="#2ecc71" stroke="#2ecc71" stroke-width="1"/>
<text x="949.12" y="704" font-size="11" fill="#555555" text-anchor="middle">10-18</text>
<text x="949.12" y="720" font-size="11" fill="#555555" text-anchor="middle">16:00</text>
<line x1="1023.82" y1="169.08" x2="1023.82" y2="361.45" stroke="#e74c3c" stroke-width="2"/>
<rect x="1002.16" y="237.06" width="43.33" height="99.08" fill="#e74c3c" stroke="#e74c3c" stroke-width="1"/>
<text x="1023.82" y="704" font-size="11" fill="#555555" text-anchor="middle">10-18</text>
<text x="1023.82" y="720" font-size="11" fill="#555555" text-anchor="middle">17:00</text>
<line x1="1098.53" y1="307.93" x2="1098.53" y2="407.73" stroke="#e74c3c" stroke-width="2"/>
<rect x="1076.86" y="336.86" width="43.33" height="45.56" fill="#e74c3c" stroke="#e74c3c" stroke-width="1"/>
<text x="1098.53" y="704" font-size="11" fill="#555555" text-anchor="middle">10-18</text>
<text x="1098.53" y="720" font-size="11" fill="#555555" text-anchor="middle">18:00</text>
<line x1="1173.24" y1="352.77" x2="1173.24" y2="445.34" stroke="#e74c3c" stroke-width="2"/>
<rect x="1151.57" y="385.31" width="43.33" height="19.53" fill="#e74c3c" stroke="#e74c3c" stroke-width="1"/>
<text x="1173.24" y="704" font-size="11" fill="#555555" text-anchor="middle">10-18</text>
<text x="1173.24" y="720" font-size="11" fill="#555555" text-anchor="middle">19:00</text>
<line x1="1247.94" y1="378.80" x2="1247.94" y2="433.04" stroke="#2ecc71" stroke-width="2"/>
<rect x="1226.28" y="399.78" width="43.33" height="4.34" fill="#2ecc71" stroke="#2ecc71" stroke-width="1"/>
<text x="1247.94" y="704" font-size="11" fill="#555555" text-anchor="middle">10-18</text>
<text x="1247.94" y="720" font-size="11" fill="#555555" text-anchor="middle">20:00</text>
<line x1="1322.65" y1="384.59" x2="1322.65" y2="449.68" stroke="#e74c3c" stroke-width="2"/>
<rect x="1300.98" y="404.84" width="43.33" height="15.19" fill="#e74c3c" stroke="#e74c3c" stroke-width="1"/>
<text x="1322.65" y="704" font-size="11" fill="#555555" text-anchor="middle">10-18</text>
<text x="1322.65" y="720" font-size="11" fill="#555555" text-anchor="middle">21:00</text>
<line x1="725.00" y1="70.00" x2="805.00" y2="90.00" stroke="#f1c40f" stroke-width="2"/>
<rect x="805.00" y="42.00" width="220" height="72" rx="8" fill="#fff8dc" stroke="#f1c40f"/>
<text x="815.00" y="66.00" font-size="12" fill="#111111">目标K线 2025-10-18 13:00</text>
<text x="815.00" y="84.00" font-size="12" fill="#111111">振幅 39.18%</text>
<text x="815.00" y="102.00" font-size="12" fill="#111111">倍数 16.98x</text>
<line x1="650.29" y1="581.30" x2="620.29" y2="541.30" stroke="#3498db" stroke-width="2"/>
<rect x="400.29" y="505.30" width="220" height="58" rx="8" fill="#eef6ff" stroke="#3498db"/>
<text x="410.29" y="527.30" font-size="12" fill="#111111">前一根涨幅 1.54%</text>
<text x="410.29" y="545.30" font-size="12" fill="#111111">前一根振幅 2.31%</text>
</svg>