<svg xmlns="http://www.w3.org/2000/svg" width="1400" height="760" viewBox="0 0 1400 760">
<rect width="100%" height="100%" fill="#fcfcfc"/>
<text x="90" y="36" font-size="26" font-weight="700" fill="#111111">MIRA_USDT 1H - 10倍命中</text>
<line x1="90" y1="70.00" x2="1360" y2="70.00" stroke="#d9d9d9" stroke-dasharray="4 4" stroke-width="1"/>
<text x="12" y="74.00" font-size="12" fill="#555555">0.118300</text>
<line x1="90" y1="186.00" x2="1360" y2="186.00" stroke="#d9d9d9" stroke-dasharray="4 4" stroke-width="1"/>
<text x="12" y="190.00" font-size="12" fill="#555555">0.111800</text>
<line x1="90" y1="302.00" x2="1360" y2="302.00" stroke="#d9d9d9" stroke-dasharray="4 4" stroke-width="1"/>
<text x="12" y="306.00" font-size="12" fill="#555555">0.105300</text>
<line x1="90" y1="418.00" x2="1360" y2="418.00" stroke="#d9d9d9" stroke-dasharray="4 4" stroke-width="1"/>
<text x="12" y="422.00" font-size="12" fill="#555555">0.098800</text>
<line x1="90" y1="534.00" x2="1360" y2="534.00" stroke="#d9d9d9" stroke-dasharray="4 4" stroke-width="1"/>
<text x="12" y="538.00" font-size="12" fill="#555555">0.092300</text>
<line x1="90" y1="650.00" x2="1360" y2="650.00" stroke="#d9d9d9" stroke-dasharray="4 4" stroke-width="1"/>
<text x="12" y="654.00" font-size="12" fill="#555555">0.085800</text>
<rect x="687.65" y="70" width="74.71" height="580.00" fill="#f1c40f" opacity="0.16"/>
<rect x="612.94" y="70" width="74.71" height="580.00" fill="#3498db" opacity="0.10"/>
<line x1="127.35" y1="578.62" x2="127.35" y2="628.58" stroke="#2ecc71" stroke-width="2"/>
<rect x="105.69" y="578.62" width="43.33" height="42.83" fill="#2ecc71" stroke="#2ecc71" stroke-width="1"/>
<text x="127.35" y="704" font-size="11" fill="#555555" text-anchor="middle">02-26</text>
<text x="127.35" y="720" font-size="11" fill="#555555" text-anchor="middle">18:00</text>
<line x1="202.06" y1="580.40" x2="202.06" y2="616.09" stroke="#e74c3c" stroke-width="2"/>
<rect x="180.39" y="580.40" width="43.33" height="23.20" fill="#e74c3c" stroke="#e74c3c" stroke-width="1"/>
<text x="202.06" y="704" font-size="11" fill="#555555" text-anchor="middle">02-26</text>
<text x="202.06" y="720" font-size="11" fill="#555555" text-anchor="middle">19:00</text>
<line x1="276.76" y1="571.48" x2="276.76" y2="614.31" stroke="#2ecc71" stroke-width="2"/>
<rect x="255.10" y="596.46" width="43.33" height="8.92" fill="#2ecc71" stroke="#2ecc71" stroke-width="1"/>
<text x="276.76" y="704" font-size="11" fill="#555555" text-anchor="middle">02-26</text>
<text x="276.76" y="720" font-size="11" fill="#555555" text-anchor="middle">20:00</text>
<line x1="351.47" y1="585.75" x2="351.47" y2="601.82" stroke="#2ecc71" stroke-width="2"/>
<rect x="329.81" y="591.11" width="43.33" height="3.57" fill="#2ecc71" stroke="#2ecc71" stroke-width="1"/>
<text x="351.47" y="704" font-size="11" fill="#555555" text-anchor="middle">02-26</text>
<text x="351.47" y="720" font-size="11" fill="#555555" text-anchor="middle">21:00</text>
<line x1="426.18" y1="575.05" x2="426.18" y2="626.80" stroke="#e74c3c" stroke-width="2"/>
<rect x="404.51" y="589.32" width="43.33" height="14.28" fill="#e74c3c" stroke="#e74c3c" stroke-width="1"/>
<text x="426.18" y="704" font-size="11" fill="#555555" text-anchor="middle">02-26</text>
<text x="426.18" y="720" font-size="11" fill="#555555" text-anchor="middle">22:00</text>
<line x1="500.88" y1="601.82" x2="500.88" y2="628.58" stroke="#e74c3c" stroke-width="2"/>
<rect x="479.22" y="603.60" width="43.33" height="10.71" fill="#e74c3c" stroke="#e74c3c" stroke-width="1"/>
<text x="500.88" y="704" font-size="11" fill="#555555" text-anchor="middle">02-26</text>
<text x="500.88" y="720" font-size="11" fill="#555555" text-anchor="middle">23:00</text>
<line x1="575.59" y1="610.74" x2="575.59" y2="650.00" stroke="#e74c3c" stroke-width="2"/>
<rect x="553.92" y="612.52" width="43.33" height="32.12" fill="#e74c3c" stroke="#e74c3c" stroke-width="1"/>
<text x="575.59" y="704" font-size="11" fill="#555555" text-anchor="middle">02-27</text>
<text x="575.59" y="720" font-size="11" fill="#555555" text-anchor="middle">00:00</text>
<line x1="650.29" y1="605.38" x2="650.29" y2="648.22" stroke="#2ecc71" stroke-width="2"/>
<rect x="628.63" y="616.09" width="43.33" height="30.34" fill="#2ecc71" stroke="#2ecc71" stroke-width="1"/>
<text x="650.29" y="704" font-size="11" fill="#555555" text-anchor="middle">02-27</text>
<text x="650.29" y="720" font-size="11" fill="#555555" text-anchor="middle">01:00</text>
<line x1="725.00" y1="164.58" x2="725.00" y2="614.31" stroke="#2ecc71" stroke-width="2"/>
<rect x="703.34" y="214.55" width="43.33" height="399.75" fill="#2ecc71" stroke="#2ecc71" stroke-width="1"/>
<text x="725.00" y="704" font-size="11" fill="#555555" text-anchor="middle">02-27</text>
<text x="725.00" y="720" font-size="11" fill="#555555" text-anchor="middle">02:00</text>
<line x1="799.71" y1="111.05" x2="799.71" y2="307.35" stroke="#2ecc71" stroke-width="2"/>
<rect x="778.04" y="152.09" width="43.33" height="66.03" fill="#2ecc71" stroke="#2ecc71" stroke-width="1"/>
<text x="799.71" y="704" font-size="11" fill="#555555" text-anchor="middle">02-27</text>
<text x="799.71" y="720" font-size="11" fill="#555555" text-anchor="middle">03:00</text>
<line x1="874.41" y1="132.46" x2="874.41" y2="271.66" stroke="#e74c3c" stroke-width="2"/>
<rect x="852.75" y="155.66" width="43.33" height="37.48" fill="#e74c3c" stroke="#e74c3c" stroke-width="1"/>
<text x="874.41" y="704" font-size="11" fill="#555555" text-anchor="middle">02-27</text>
<text x="874.41" y="720" font-size="11" fill="#555555" text-anchor="middle">04:00</text>
<line x1="949.12" y1="144.95" x2="949.12" y2="255.60" stroke="#2ecc71" stroke-width="2"/>
<rect x="927.45" y="171.72" width="43.33" height="23.20" fill="#2ecc71" stroke="#2ecc71" stroke-width="1"/>
<text x="949.12" y="704" font-size="11" fill="#555555" text-anchor="middle">02-27</text>
<text x="949.12" y="720" font-size="11" fill="#555555" text-anchor="middle">05:00</text>
<line x1="1023.82" y1="168.15" x2="1023.82" y2="314.49" stroke="#e74c3c" stroke-width="2"/>
<rect x="1002.16" y="171.72" width="43.33" height="116.00" fill="#e74c3c" stroke="#e74c3c" stroke-width="1"/>
<text x="1023.82" y="704" font-size="11" fill="#555555" text-anchor="middle">02-27</text>
<text x="1023.82" y="720" font-size="11" fill="#555555" text-anchor="middle">06:00</text>
<line x1="1098.53" y1="228.83" x2="1098.53" y2="330.55" stroke="#2ecc71" stroke-width="2"/>
<rect x="1076.86" y="278.80" width="43.33" height="12.49" fill="#2ecc71" stroke="#2ecc71" stroke-width="1"/>
<text x="1098.53" y="704" font-size="11" fill="#555555" text-anchor="middle">02-27</text>
<text x="1098.53" y="720" font-size="11" fill="#555555" text-anchor="middle">07:00</text>
<line x1="1173.24" y1="262.74" x2="1173.24" y2="351.97" stroke="#e74c3c" stroke-width="2"/>
<rect x="1151.57" y="278.80" width="43.33" height="8.92" fill="#e74c3c" stroke="#e74c3c" stroke-width="1"/>
<text x="1173.24" y="704" font-size="11" fill="#555555" text-anchor="middle">02-27</text>
<text x="1173.24" y="720" font-size="11" fill="#555555" text-anchor="middle">08:00</text>
<line x1="1247.94" y1="228.83" x2="1247.94" y2="312.71" stroke="#2ecc71" stroke-width="2"/>
<rect x="1226.28" y="262.74" width="43.33" height="30.34" fill="#2ecc71" stroke="#2ecc71" stroke-width="1"/>
<text x="1247.94" y="704" font-size="11" fill="#555555" text-anchor="middle">02-27</text>
<text x="1247.94" y="720" font-size="11" fill="#555555" text-anchor="middle">09:00</text>
<line x1="1322.65" y1="70.00" x2="1322.65" y2="289.51" stroke="#2ecc71" stroke-width="2"/>
<rect x="1300.98" y="93.20" width="43.33" height="171.32" fill="#2ecc71" stroke="#2ecc71" stroke-width="1"/>
<text x="1322.65" y="704" font-size="11" fill="#555555" text-anchor="middle">02-27</text>
<text x="1322.65" y="720" font-size="11" fill="#555555" text-anchor="middle">10:00</text>
<line x1="725.00" y1="164.58" x2="805.00" y2="94.58" stroke="#f1c40f" stroke-width="2"/>
<rect x="805.00" y="46.58" width="220" height="72" rx="8" fill="#fff8dc" stroke="#f1c40f"/>
<text x="815.00" y="70.58" font-size="12" fill="#111111">目标K线 2026-02-27 02:00</text>
<text x="815.00" y="88.58" font-size="12" fill="#111111">振幅 28.70%</text>
<text x="815.00" y="106.58" font-size="12" fill="#111111">倍数 10.28x</text>
<line x1="650.29" y1="605.38" x2="620.29" y2="565.38" stroke="#3498db" stroke-width="2"/>
<rect x="400.29" y="529.38" width="220" height="58" rx="8" fill="#eef6ff" stroke="#3498db"/>
<text x="410.29" y="551.38" font-size="12" fill="#111111">前一根涨幅 1.98%</text>
<text x="410.29" y="569.38" font-size="12" fill="#111111">前一根振幅 2.79%</text>
</svg>