<svg xmlns="http://www.w3.org/2000/svg" width="1400" height="760" viewBox="0 0 1400 760">
<rect width="100%" height="100%" fill="#fcfcfc"/>
<text x="90" y="36" font-size="26" font-weight="700" fill="#111111">MYX_USDT 1H - 10倍命中</text>
<line x1="90" y1="70.00" x2="1360" y2="70.00" stroke="#d9d9d9" stroke-dasharray="4 4" stroke-width="1"/>
<text x="12" y="74.00" font-size="12" fill="#555555">11.296000</text>
<line x1="90" y1="186.00" x2="1360" y2="186.00" stroke="#d9d9d9" stroke-dasharray="4 4" stroke-width="1"/>
<text x="12" y="190.00" font-size="12" fill="#555555">9.722860</text>
<line x1="90" y1="302.00" x2="1360" y2="302.00" stroke="#d9d9d9" stroke-dasharray="4 4" stroke-width="1"/>
<text x="12" y="306.00" font-size="12" fill="#555555">8.149720</text>
<line x1="90" y1="418.00" x2="1360" y2="418.00" stroke="#d9d9d9" stroke-dasharray="4 4" stroke-width="1"/>
<text x="12" y="422.00" font-size="12" fill="#555555">6.576580</text>
<line x1="90" y1="534.00" x2="1360" y2="534.00" stroke="#d9d9d9" stroke-dasharray="4 4" stroke-width="1"/>
<text x="12" y="538.00" font-size="12" fill="#555555">5.003440</text>
<line x1="90" y1="650.00" x2="1360" y2="650.00" stroke="#d9d9d9" stroke-dasharray="4 4" stroke-width="1"/>
<text x="12" y="654.00" font-size="12" fill="#555555">3.430300</text>
<rect x="687.65" y="70" width="74.71" height="580.00" fill="#f1c40f" opacity="0.16"/>
<rect x="612.94" y="70" width="74.71" height="580.00" fill="#3498db" opacity="0.10"/>
<line x1="127.35" y1="621.29" x2="127.35" y2="650.00" stroke="#e74c3c" stroke-width="2"/>
<rect x="105.69" y="634.54" width="43.33" height="5.07" fill="#e74c3c" stroke="#e74c3c" stroke-width="1"/>
<text x="127.35" y="704" font-size="11" fill="#555555" text-anchor="middle">09-08</text>
<text x="127.35" y="720" font-size="11" fill="#555555" text-anchor="middle">10:00</text>
<line x1="202.06" y1="630.43" x2="202.06" y2="644.83" stroke="#2ecc71" stroke-width="2"/>
<rect x="180.39" y="636.44" width="43.33" height="3.23" fill="#2ecc71" stroke="#2ecc71" stroke-width="1"/>
<text x="202.06" y="704" font-size="11" fill="#555555" text-anchor="middle">09-08</text>
<text x="202.06" y="720" font-size="11" fill="#555555" text-anchor="middle">11:00</text>
<line x1="276.76" y1="631.37" x2="276.76" y2="643.53" stroke="#2ecc71" stroke-width="2"/>
<rect x="255.10" y="635.21" width="43.33" height="1.20" fill="#2ecc71" stroke="#2ecc71" stroke-width="1"/>
<text x="276.76" y="704" font-size="11" fill="#555555" text-anchor="middle">09-08</text>
<text x="276.76" y="720" font-size="11" fill="#555555" text-anchor="middle">12:00</text>
<line x1="351.47" y1="625.28" x2="351.47" y2="639.40" stroke="#2ecc71" stroke-width="2"/>
<rect x="329.81" y="632.33" width="43.33" height="2.87" fill="#2ecc71" stroke="#2ecc71" stroke-width="1"/>
<text x="351.47" y="704" font-size="11" fill="#555555" text-anchor="middle">09-08</text>
<text x="351.47" y="720" font-size="11" fill="#555555" text-anchor="middle">13:00</text>
<line x1="426.18" y1="619.26" x2="426.18" y2="633.56" stroke="#2ecc71" stroke-width="2"/>
<rect x="404.51" y="626.60" width="43.33" height="5.72" fill="#2ecc71" stroke="#2ecc71" stroke-width="1"/>
<text x="426.18" y="704" font-size="11" fill="#555555" text-anchor="middle">09-08</text>
<text x="426.18" y="720" font-size="11" fill="#555555" text-anchor="middle">14:00</text>
<line x1="500.88" y1="579.94" x2="500.88" y2="629.03" stroke="#2ecc71" stroke-width="2"/>
<rect x="479.22" y="596.34" width="43.33" height="30.20" fill="#2ecc71" stroke="#2ecc71" stroke-width="1"/>
<text x="500.88" y="704" font-size="11" fill="#555555" text-anchor="middle">09-08</text>
<text x="500.88" y="720" font-size="11" fill="#555555" text-anchor="middle">15:00</text>
<line x1="575.59" y1="576.36" x2="575.59" y2="603.92" stroke="#2ecc71" stroke-width="2"/>
<rect x="553.92" y="580.21" width="43.33" height="16.27" fill="#2ecc71" stroke="#2ecc71" stroke-width="1"/>
<text x="575.59" y="704" font-size="11" fill="#555555" text-anchor="middle">09-08</text>
<text x="575.59" y="720" font-size="11" fill="#555555" text-anchor="middle">16:00</text>
<line x1="650.29" y1="568.09" x2="650.29" y2="587.89" stroke="#2ecc71" stroke-width="2"/>
<rect x="628.63" y="571.62" width="43.33" height="8.58" fill="#2ecc71" stroke="#2ecc71" stroke-width="1"/>
<text x="650.29" y="704" font-size="11" fill="#555555" text-anchor="middle">09-08</text>
<text x="650.29" y="720" font-size="11" fill="#555555" text-anchor="middle">17:00</text>
<line x1="725.00" y1="313.04" x2="725.00" y2="572.35" stroke="#2ecc71" stroke-width="2"/>
<rect x="703.34" y="441.73" width="43.33" height="129.68" fill="#2ecc71" stroke="#2ecc71" stroke-width="1"/>
<text x="725.00" y="704" font-size="11" fill="#555555" text-anchor="middle">09-08</text>
<text x="725.00" y="720" font-size="11" fill="#555555" text-anchor="middle">18:00</text>
<line x1="799.71" y1="397.47" x2="799.71" y2="492.88" stroke="#2ecc71" stroke-width="2"/>
<rect x="778.04" y="402.48" width="43.33" height="39.85" fill="#2ecc71" stroke="#2ecc71" stroke-width="1"/>
<text x="799.71" y="704" font-size="11" fill="#555555" text-anchor="middle">09-08</text>
<text x="799.71" y="720" font-size="11" fill="#555555" text-anchor="middle">19:00</text>
<line x1="874.41" y1="375.62" x2="874.41" y2="443.64" stroke="#e74c3c" stroke-width="2"/>
<rect x="852.75" y="402.74" width="43.33" height="14.45" fill="#e74c3c" stroke="#e74c3c" stroke-width="1"/>
<text x="874.41" y="704" font-size="11" fill="#555555" text-anchor="middle">09-08</text>
<text x="874.41" y="720" font-size="11" fill="#555555" text-anchor="middle">20:00</text>
<line x1="949.12" y1="335.16" x2="949.12" y2="423.51" stroke="#2ecc71" stroke-width="2"/>
<rect x="927.45" y="397.79" width="43.33" height="19.40" fill="#2ecc71" stroke="#2ecc71" stroke-width="1"/>
<text x="949.12" y="704" font-size="11" fill="#555555" text-anchor="middle">09-08</text>
<text x="949.12" y="720" font-size="11" fill="#555555" text-anchor="middle">21:00</text>
<line x1="1023.82" y1="351.91" x2="1023.82" y2="419.50" stroke="#2ecc71" stroke-width="2"/>
<rect x="1002.16" y="365.87" width="43.33" height="32.54" fill="#2ecc71" stroke="#2ecc71" stroke-width="1"/>
<text x="1023.82" y="704" font-size="11" fill="#555555" text-anchor="middle">09-08</text>
<text x="1023.82" y="720" font-size="11" fill="#555555" text-anchor="middle">22:00</text>
<line x1="1098.53" y1="288.08" x2="1098.53" y2="378.25" stroke="#2ecc71" stroke-width="2"/>
<rect x="1076.86" y="315.24" width="43.33" height="50.87" fill="#2ecc71" stroke="#2ecc71" stroke-width="1"/>
<text x="1098.53" y="704" font-size="11" fill="#555555" text-anchor="middle">09-08</text>
<text x="1098.53" y="720" font-size="11" fill="#555555" text-anchor="middle">23:00</text>
<line x1="1173.24" y1="119.58" x2="1173.24" y2="325.18" stroke="#2ecc71" stroke-width="2"/>
<rect x="1151.57" y="178.76" width="43.33" height="136.53" fill="#2ecc71" stroke="#2ecc71" stroke-width="1"/>
<text x="1173.24" y="704" font-size="11" fill="#555555" text-anchor="middle">09-09</text>
<text x="1173.24" y="720" font-size="11" fill="#555555" text-anchor="middle">00:00</text>
<line x1="1247.94" y1="129.62" x2="1247.94" y2="294.92" stroke="#2ecc71" stroke-width="2"/>
<rect x="1226.28" y="172.27" width="43.33" height="6.49" fill="#2ecc71" stroke="#2ecc71" stroke-width="1"/>
<text x="1247.94" y="704" font-size="11" fill="#555555" text-anchor="middle">09-09</text>
<text x="1247.94" y="720" font-size="11" fill="#555555" text-anchor="middle">01:00</text>
<line x1="1322.65" y1="70.00" x2="1322.65" y2="191.51" stroke="#2ecc71" stroke-width="2"/>
<rect x="1300.98" y="90.82" width="43.33" height="81.56" fill="#2ecc71" stroke="#2ecc71" stroke-width="1"/>
<text x="1322.65" y="704" font-size="11" fill="#555555" text-anchor="middle">09-09</text>
<text x="1322.65" y="720" font-size="11" fill="#555555" text-anchor="middle">02:00</text>
<line x1="725.00" y1="313.04" x2="805.00" y2="243.04" stroke="#f1c40f" stroke-width="2"/>
<rect x="805.00" y="195.04" width="220" height="72" rx="8" fill="#fff8dc" stroke="#f1c40f"/>
<text x="815.00" y="219.04" font-size="12" fill="#111111">目标K线 2025-09-08 18:00</text>
<text x="815.00" y="237.04" font-size="12" fill="#111111">振幅 78.22%</text>
<text x="815.00" y="255.04" font-size="12" fill="#111111">倍数 12.75x</text>
<line x1="650.29" y1="568.09" x2="620.29" y2="528.09" stroke="#3498db" stroke-width="2"/>
<rect x="400.29" y="492.09" width="220" height="58" rx="8" fill="#eef6ff" stroke="#3498db"/>
<text x="410.29" y="514.09" font-size="12" fill="#111111">前一根涨幅 2.66%</text>
<text x="410.29" y="532.09" font-size="12" fill="#111111">前一根振幅 6.13%</text>
</svg>