<svg xmlns="http://www.w3.org/2000/svg" width="1400" height="760" viewBox="0 0 1400 760">
<rect width="100%" height="100%" fill="#fcfcfc"/>
<text x="90" y="36" font-size="26" font-weight="700" fill="#111111">NAORIS_USDT 1H - 10倍命中</text>
<line x1="90" y1="70.00" x2="1360" y2="70.00" stroke="#d9d9d9" stroke-dasharray="4 4" stroke-width="1"/>
<text x="12" y="74.00" font-size="12" fill="#555555">0.133320</text>
<line x1="90" y1="186.00" x2="1360" y2="186.00" stroke="#d9d9d9" stroke-dasharray="4 4" stroke-width="1"/>
<text x="12" y="190.00" font-size="12" fill="#555555">0.114350</text>
<line x1="90" y1="302.00" x2="1360" y2="302.00" stroke="#d9d9d9" stroke-dasharray="4 4" stroke-width="1"/>
<text x="12" y="306.00" font-size="12" fill="#555555">0.095380</text>
<line x1="90" y1="418.00" x2="1360" y2="418.00" stroke="#d9d9d9" stroke-dasharray="4 4" stroke-width="1"/>
<text x="12" y="422.00" font-size="12" fill="#555555">0.076410</text>
<line x1="90" y1="534.00" x2="1360" y2="534.00" stroke="#d9d9d9" stroke-dasharray="4 4" stroke-width="1"/>
<text x="12" y="538.00" font-size="12" fill="#555555">0.057440</text>
<line x1="90" y1="650.00" x2="1360" y2="650.00" stroke="#d9d9d9" stroke-dasharray="4 4" stroke-width="1"/>
<text x="12" y="654.00" font-size="12" fill="#555555">0.038470</text>
<rect x="687.65" y="70" width="74.71" height="580.00" fill="#f1c40f" opacity="0.16"/>
<rect x="612.94" y="70" width="74.71" height="580.00" fill="#3498db" opacity="0.10"/>
<line x1="127.35" y1="625.17" x2="127.35" y2="648.29" stroke="#2ecc71" stroke-width="2"/>
<rect x="105.69" y="637.95" width="43.33" height="4.53" fill="#2ecc71" stroke="#2ecc71" stroke-width="1"/>
<text x="127.35" y="704" font-size="11" fill="#555555" text-anchor="middle">09-10</text>
<text x="127.35" y="720" font-size="11" fill="#555555" text-anchor="middle">14:00</text>
<line x1="202.06" y1="624.32" x2="202.06" y2="641.62" stroke="#2ecc71" stroke-width="2"/>
<rect x="180.39" y="630.25" width="43.33" height="8.01" fill="#2ecc71" stroke="#2ecc71" stroke-width="1"/>
<text x="202.06" y="704" font-size="11" fill="#555555" text-anchor="middle">09-10</text>
<text x="202.06" y="720" font-size="11" fill="#555555" text-anchor="middle">15:00</text>
<line x1="276.76" y1="620.40" x2="276.76" y2="638.57" stroke="#e74c3c" stroke-width="2"/>
<rect x="255.10" y="630.00" width="43.33" height="6.05" fill="#e74c3c" stroke="#e74c3c" stroke-width="1"/>
<text x="276.76" y="704" font-size="11" fill="#555555" text-anchor="middle">09-10</text>
<text x="276.76" y="720" font-size="11" fill="#555555" text-anchor="middle">16:00</text>
<line x1="351.47" y1="632.21" x2="351.47" y2="648.47" stroke="#2ecc71" stroke-width="2"/>
<rect x="329.81" y="635.63" width="43.33" height="1.20" fill="#2ecc71" stroke="#2ecc71" stroke-width="1"/>
<text x="351.47" y="704" font-size="11" fill="#555555" text-anchor="middle">09-10</text>
<text x="351.47" y="720" font-size="11" fill="#555555" text-anchor="middle">17:00</text>
<line x1="426.18" y1="635.20" x2="426.18" y2="645.60" stroke="#e74c3c" stroke-width="2"/>
<rect x="404.51" y="635.63" width="43.33" height="8.93" fill="#e74c3c" stroke="#e74c3c" stroke-width="1"/>
<text x="426.18" y="704" font-size="11" fill="#555555" text-anchor="middle">09-10</text>
<text x="426.18" y="720" font-size="11" fill="#555555" text-anchor="middle">18:00</text>
<line x1="500.88" y1="610.50" x2="500.88" y2="650.00" stroke="#2ecc71" stroke-width="2"/>
<rect x="479.22" y="618.14" width="43.33" height="26.72" fill="#2ecc71" stroke="#2ecc71" stroke-width="1"/>
<text x="500.88" y="704" font-size="11" fill="#555555" text-anchor="middle">09-10</text>
<text x="500.88" y="720" font-size="11" fill="#555555" text-anchor="middle">19:00</text>
<line x1="575.59" y1="609.89" x2="575.59" y2="631.96" stroke="#e74c3c" stroke-width="2"/>
<rect x="553.92" y="617.16" width="43.33" height="7.40" fill="#e74c3c" stroke="#e74c3c" stroke-width="1"/>
<text x="575.59" y="704" font-size="11" fill="#555555" text-anchor="middle">09-10</text>
<text x="575.59" y="720" font-size="11" fill="#555555" text-anchor="middle">20:00</text>
<line x1="650.29" y1="616.06" x2="650.29" y2="628.11" stroke="#2ecc71" stroke-width="2"/>
<rect x="628.63" y="619.30" width="43.33" height="5.63" fill="#2ecc71" stroke="#2ecc71" stroke-width="1"/>
<text x="650.29" y="704" font-size="11" fill="#555555" text-anchor="middle">09-10</text>
<text x="650.29" y="720" font-size="11" fill="#555555" text-anchor="middle">21:00</text>
<line x1="725.00" y1="481.84" x2="725.00" y2="619.49" stroke="#2ecc71" stroke-width="2"/>
<rect x="703.34" y="525.87" width="43.33" height="93.56" fill="#2ecc71" stroke="#2ecc71" stroke-width="1"/>
<text x="725.00" y="704" font-size="11" fill="#555555" text-anchor="middle">09-10</text>
<text x="725.00" y="720" font-size="11" fill="#555555" text-anchor="middle">22:00</text>
<line x1="799.71" y1="441.42" x2="799.71" y2="534.86" stroke="#2ecc71" stroke-width="2"/>
<rect x="778.04" y="452.12" width="43.33" height="73.99" fill="#2ecc71" stroke="#2ecc71" stroke-width="1"/>
<text x="799.71" y="704" font-size="11" fill="#555555" text-anchor="middle">09-10</text>
<text x="799.71" y="720" font-size="11" fill="#555555" text-anchor="middle">23:00</text>
<line x1="874.41" y1="70.00" x2="874.41" y2="460.68" stroke="#2ecc71" stroke-width="2"/>
<rect x="852.75" y="149.25" width="43.33" height="303.85" fill="#2ecc71" stroke="#2ecc71" stroke-width="1"/>
<text x="874.41" y="704" font-size="11" fill="#555555" text-anchor="middle">09-11</text>
<text x="874.41" y="720" font-size="11" fill="#555555" text-anchor="middle">00:00</text>
<line x1="949.12" y1="81.62" x2="949.12" y2="439.40" stroke="#e74c3c" stroke-width="2"/>
<rect x="927.45" y="149.31" width="43.33" height="208.21" fill="#e74c3c" stroke="#e74c3c" stroke-width="1"/>
<text x="949.12" y="704" font-size="11" fill="#555555" text-anchor="middle">09-11</text>
<text x="949.12" y="720" font-size="11" fill="#555555" text-anchor="middle">01:00</text>
<line x1="1023.82" y1="232.05" x2="1023.82" y2="394.82" stroke="#e74c3c" stroke-width="2"/>
<rect x="1002.16" y="357.34" width="43.33" height="17.61" fill="#e74c3c" stroke="#e74c3c" stroke-width="1"/>
<text x="1023.82" y="704" font-size="11" fill="#555555" text-anchor="middle">09-11</text>
<text x="1023.82" y="720" font-size="11" fill="#555555" text-anchor="middle">02:00</text>
<line x1="1098.53" y1="360.64" x2="1098.53" y2="480.49" stroke="#e74c3c" stroke-width="2"/>
<rect x="1076.86" y="374.95" width="43.33" height="78.03" fill="#e74c3c" stroke="#e74c3c" stroke-width="1"/>
<text x="1098.53" y="704" font-size="11" fill="#555555" text-anchor="middle">09-11</text>
<text x="1098.53" y="720" font-size="11" fill="#555555" text-anchor="middle">03:00</text>
<line x1="1173.24" y1="434.51" x2="1173.24" y2="487.16" stroke="#e74c3c" stroke-width="2"/>
<rect x="1151.57" y="452.98" width="43.33" height="5.01" fill="#e74c3c" stroke="#e74c3c" stroke-width="1"/>
<text x="1173.24" y="704" font-size="11" fill="#555555" text-anchor="middle">09-11</text>
<text x="1173.24" y="720" font-size="11" fill="#555555" text-anchor="middle">04:00</text>
<line x1="1247.94" y1="418.06" x2="1247.94" y2="458.18" stroke="#2ecc71" stroke-width="2"/>
<rect x="1226.28" y="434.27" width="43.33" height="23.42" fill="#2ecc71" stroke="#2ecc71" stroke-width="1"/>
<text x="1247.94" y="704" font-size="11" fill="#555555" text-anchor="middle">09-11</text>
<text x="1247.94" y="720" font-size="11" fill="#555555" text-anchor="middle">05:00</text>
<line x1="1322.65" y1="416.35" x2="1322.65" y2="475.24" stroke="#2ecc71" stroke-width="2"/>
<rect x="1300.98" y="425.64" width="43.33" height="8.32" fill="#2ecc71" stroke="#2ecc71" stroke-width="1"/>
<text x="1322.65" y="704" font-size="11" fill="#555555" text-anchor="middle">09-11</text>
<text x="1322.65" y="720" font-size="11" fill="#555555" text-anchor="middle">06:00</text>
<line x1="725.00" y1="481.84" x2="805.00" y2="411.84" stroke="#f1c40f" stroke-width="2"/>
<rect x="805.00" y="363.84" width="220" height="72" rx="8" fill="#fff8dc" stroke="#f1c40f"/>
<text x="815.00" y="387.84" font-size="12" fill="#111111">目标K线 2025-09-10 22:00</text>
<text x="815.00" y="405.84" font-size="12" fill="#111111">振幅 51.78%</text>
<text x="815.00" y="423.84" font-size="12" fill="#111111">倍数 11.19x</text>
<line x1="650.29" y1="616.06" x2="620.29" y2="576.06" stroke="#3498db" stroke-width="2"/>
<rect x="400.29" y="540.06" width="220" height="58" rx="8" fill="#eef6ff" stroke="#3498db"/>
<text x="410.29" y="562.06" font-size="12" fill="#111111">前一根涨幅 2.16%</text>
<text x="410.29" y="580.06" font-size="12" fill="#111111">前一根振幅 4.63%</text>
</svg>