<svg xmlns="http://www.w3.org/2000/svg" width="1400" height="760" viewBox="0 0 1400 760">
<rect width="100%" height="100%" fill="#fcfcfc"/>
<text x="90" y="36" font-size="26" font-weight="700" fill="#111111">NOM_USDT 1H - 10倍命中</text>
<line x1="90" y1="70.00" x2="1360" y2="70.00" stroke="#d9d9d9" stroke-dasharray="4 4" stroke-width="1"/>
<text x="12" y="74.00" font-size="12" fill="#555555">0.023280</text>
<line x1="90" y1="186.00" x2="1360" y2="186.00" stroke="#d9d9d9" stroke-dasharray="4 4" stroke-width="1"/>
<text x="12" y="190.00" font-size="12" fill="#555555">0.022198</text>
<line x1="90" y1="302.00" x2="1360" y2="302.00" stroke="#d9d9d9" stroke-dasharray="4 4" stroke-width="1"/>
<text x="12" y="306.00" font-size="12" fill="#555555">0.021116</text>
<line x1="90" y1="418.00" x2="1360" y2="418.00" stroke="#d9d9d9" stroke-dasharray="4 4" stroke-width="1"/>
<text x="12" y="422.00" font-size="12" fill="#555555">0.020034</text>
<line x1="90" y1="534.00" x2="1360" y2="534.00" stroke="#d9d9d9" stroke-dasharray="4 4" stroke-width="1"/>
<text x="12" y="538.00" font-size="12" fill="#555555">0.018952</text>
<line x1="90" y1="650.00" x2="1360" y2="650.00" stroke="#d9d9d9" stroke-dasharray="4 4" stroke-width="1"/>
<text x="12" y="654.00" font-size="12" fill="#555555">0.017870</text>
<rect x="687.65" y="70" width="74.71" height="580.00" fill="#f1c40f" opacity="0.16"/>
<rect x="612.94" y="70" width="74.71" height="580.00" fill="#3498db" opacity="0.10"/>
<line x1="127.35" y1="578.17" x2="127.35" y2="614.62" stroke="#e74c3c" stroke-width="2"/>
<rect x="105.69" y="578.17" width="43.33" height="33.23" fill="#e74c3c" stroke="#e74c3c" stroke-width="1"/>
<text x="127.35" y="704" font-size="11" fill="#555555" text-anchor="middle">10-18</text>
<text x="127.35" y="720" font-size="11" fill="#555555" text-anchor="middle">21:00</text>
<line x1="202.06" y1="582.46" x2="202.06" y2="627.49" stroke="#2ecc71" stroke-width="2"/>
<rect x="180.39" y="591.04" width="43.33" height="21.44" fill="#2ecc71" stroke="#2ecc71" stroke-width="1"/>
<text x="202.06" y="704" font-size="11" fill="#555555" text-anchor="middle">10-18</text>
<text x="202.06" y="720" font-size="11" fill="#555555" text-anchor="middle">22:00</text>
<line x1="276.76" y1="582.46" x2="276.76" y2="619.98" stroke="#e74c3c" stroke-width="2"/>
<rect x="255.10" y="582.46" width="43.33" height="19.30" fill="#e74c3c" stroke="#e74c3c" stroke-width="1"/>
<text x="276.76" y="704" font-size="11" fill="#555555" text-anchor="middle">10-18</text>
<text x="276.76" y="720" font-size="11" fill="#555555" text-anchor="middle">23:00</text>
<line x1="351.47" y1="600.68" x2="351.47" y2="644.64" stroke="#e74c3c" stroke-width="2"/>
<rect x="329.81" y="606.04" width="43.33" height="30.02" fill="#e74c3c" stroke="#e74c3c" stroke-width="1"/>
<text x="351.47" y="704" font-size="11" fill="#555555" text-anchor="middle">10-19</text>
<text x="351.47" y="720" font-size="11" fill="#555555" text-anchor="middle">00:00</text>
<line x1="426.18" y1="603.90" x2="426.18" y2="650.00" stroke="#2ecc71" stroke-width="2"/>
<rect x="404.51" y="603.90" width="43.33" height="32.16" fill="#2ecc71" stroke="#2ecc71" stroke-width="1"/>
<text x="426.18" y="704" font-size="11" fill="#555555" text-anchor="middle">10-19</text>
<text x="426.18" y="720" font-size="11" fill="#555555" text-anchor="middle">01:00</text>
<line x1="500.88" y1="594.25" x2="500.88" y2="623.20" stroke="#e74c3c" stroke-width="2"/>
<rect x="479.22" y="601.76" width="43.33" height="19.30" fill="#e74c3c" stroke="#e74c3c" stroke-width="1"/>
<text x="500.88" y="704" font-size="11" fill="#555555" text-anchor="middle">10-19</text>
<text x="500.88" y="720" font-size="11" fill="#555555" text-anchor="middle">02:00</text>
<line x1="575.59" y1="603.90" x2="575.59" y2="623.20" stroke="#2ecc71" stroke-width="2"/>
<rect x="553.92" y="617.84" width="43.33" height="4.29" fill="#2ecc71" stroke="#2ecc71" stroke-width="1"/>
<text x="575.59" y="704" font-size="11" fill="#555555" text-anchor="middle">10-19</text>
<text x="575.59" y="720" font-size="11" fill="#555555" text-anchor="middle">03:00</text>
<line x1="650.29" y1="581.39" x2="650.29" y2="621.05" stroke="#2ecc71" stroke-width="2"/>
<rect x="628.63" y="595.32" width="43.33" height="22.51" fill="#2ecc71" stroke="#2ecc71" stroke-width="1"/>
<text x="650.29" y="704" font-size="11" fill="#555555" text-anchor="middle">10-19</text>
<text x="650.29" y="720" font-size="11" fill="#555555" text-anchor="middle">04:00</text>
<line x1="725.00" y1="135.40" x2="725.00" y2="613.55" stroke="#2ecc71" stroke-width="2"/>
<rect x="703.34" y="135.40" width="43.33" height="461.00" fill="#2ecc71" stroke="#2ecc71" stroke-width="1"/>
<text x="725.00" y="704" font-size="11" fill="#555555" text-anchor="middle">10-19</text>
<text x="725.00" y="720" font-size="11" fill="#555555" text-anchor="middle">05:00</text>
<line x1="799.71" y1="110.74" x2="799.71" y2="357.32" stroke="#e74c3c" stroke-width="2"/>
<rect x="778.04" y="152.55" width="43.33" height="116.86" fill="#e74c3c" stroke="#e74c3c" stroke-width="1"/>
<text x="799.71" y="704" font-size="11" fill="#555555" text-anchor="middle">10-19</text>
<text x="799.71" y="720" font-size="11" fill="#555555" text-anchor="middle">06:00</text>
<line x1="874.41" y1="247.97" x2="874.41" y2="356.25" stroke="#e74c3c" stroke-width="2"/>
<rect x="852.75" y="271.55" width="43.33" height="72.90" fill="#e74c3c" stroke="#e74c3c" stroke-width="1"/>
<text x="874.41" y="704" font-size="11" fill="#555555" text-anchor="middle">10-19</text>
<text x="874.41" y="720" font-size="11" fill="#555555" text-anchor="middle">07:00</text>
<line x1="949.12" y1="274.77" x2="949.12" y2="369.11" stroke="#2ecc71" stroke-width="2"/>
<rect x="927.45" y="309.08" width="43.33" height="33.23" fill="#2ecc71" stroke="#2ecc71" stroke-width="1"/>
<text x="949.12" y="704" font-size="11" fill="#555555" text-anchor="middle">10-19</text>
<text x="949.12" y="720" font-size="11" fill="#555555" text-anchor="middle">08:00</text>
<line x1="1023.82" y1="121.46" x2="1023.82" y2="311.22" stroke="#2ecc71" stroke-width="2"/>
<rect x="1002.16" y="155.77" width="43.33" height="155.45" fill="#2ecc71" stroke="#2ecc71" stroke-width="1"/>
<text x="1023.82" y="704" font-size="11" fill="#555555" text-anchor="middle">10-19</text>
<text x="1023.82" y="720" font-size="11" fill="#555555" text-anchor="middle">09:00</text>
<line x1="1098.53" y1="70.00" x2="1098.53" y2="490.26" stroke="#e74c3c" stroke-width="2"/>
<rect x="1076.86" y="157.91" width="43.33" height="231.57" fill="#e74c3c" stroke="#e74c3c" stroke-width="1"/>
<text x="1098.53" y="704" font-size="11" fill="#555555" text-anchor="middle">10-19</text>
<text x="1098.53" y="720" font-size="11" fill="#555555" text-anchor="middle">10:00</text>
<line x1="1173.24" y1="362.68" x2="1173.24" y2="547.08" stroke="#e74c3c" stroke-width="2"/>
<rect x="1151.57" y="384.12" width="43.33" height="28.95" fill="#e74c3c" stroke="#e74c3c" stroke-width="1"/>
<text x="1173.24" y="704" font-size="11" fill="#555555" text-anchor="middle">10-19</text>
<text x="1173.24" y="720" font-size="11" fill="#555555" text-anchor="middle">11:00</text>
<line x1="1247.94" y1="377.69" x2="1247.94" y2="453.81" stroke="#e74c3c" stroke-width="2"/>
<rect x="1226.28" y="407.71" width="43.33" height="28.95" fill="#e74c3c" stroke="#e74c3c" stroke-width="1"/>
<text x="1247.94" y="704" font-size="11" fill="#555555" text-anchor="middle">10-19</text>
<text x="1247.94" y="720" font-size="11" fill="#555555" text-anchor="middle">12:00</text>
<line x1="1322.65" y1="389.48" x2="1322.65" y2="461.31" stroke="#2ecc71" stroke-width="2"/>
<rect x="1300.98" y="408.78" width="43.33" height="35.38" fill="#2ecc71" stroke="#2ecc71" stroke-width="1"/>
<text x="1322.65" y="704" font-size="11" fill="#555555" text-anchor="middle">10-19</text>
<text x="1322.65" y="720" font-size="11" fill="#555555" text-anchor="middle">13:00</text>
<line x1="725.00" y1="135.40" x2="805.00" y2="90.00" stroke="#f1c40f" stroke-width="2"/>
<rect x="805.00" y="42.00" width="220" height="72" rx="8" fill="#fff8dc" stroke="#f1c40f"/>
<text x="815.00" y="66.00" font-size="12" fill="#111111">目标K线 2025-10-19 05:00</text>
<text x="815.00" y="84.00" font-size="12" fill="#111111">振幅 24.28%</text>
<text x="815.00" y="102.00" font-size="12" fill="#111111">倍数 11.92x</text>
<line x1="650.29" y1="581.39" x2="620.29" y2="541.39" stroke="#3498db" stroke-width="2"/>
<rect x="400.29" y="505.39" width="220" height="58" rx="8" fill="#eef6ff" stroke="#3498db"/>
<text x="410.29" y="527.39" font-size="12" fill="#111111">前一根涨幅 1.16%</text>
<text x="410.29" y="545.39" font-size="12" fill="#111111">前一根振幅 2.04%</text>
</svg>