<svg xmlns="http://www.w3.org/2000/svg" width="1400" height="760" viewBox="0 0 1400 760">
<rect width="100%" height="100%" fill="#fcfcfc"/>
<text x="90" y="36" font-size="26" font-weight="700" fill="#111111">PHA_USDT 1H - 10倍命中</text>
<line x1="90" y1="70.00" x2="1360" y2="70.00" stroke="#d9d9d9" stroke-dasharray="4 4" stroke-width="1"/>
<text x="12" y="74.00" font-size="12" fill="#555555">0.045240</text>
<line x1="90" y1="186.00" x2="1360" y2="186.00" stroke="#d9d9d9" stroke-dasharray="4 4" stroke-width="1"/>
<text x="12" y="190.00" font-size="12" fill="#555555">0.042604</text>
<line x1="90" y1="302.00" x2="1360" y2="302.00" stroke="#d9d9d9" stroke-dasharray="4 4" stroke-width="1"/>
<text x="12" y="306.00" font-size="12" fill="#555555">0.039968</text>
<line x1="90" y1="418.00" x2="1360" y2="418.00" stroke="#d9d9d9" stroke-dasharray="4 4" stroke-width="1"/>
<text x="12" y="422.00" font-size="12" fill="#555555">0.037332</text>
<line x1="90" y1="534.00" x2="1360" y2="534.00" stroke="#d9d9d9" stroke-dasharray="4 4" stroke-width="1"/>
<text x="12" y="538.00" font-size="12" fill="#555555">0.034696</text>
<line x1="90" y1="650.00" x2="1360" y2="650.00" stroke="#d9d9d9" stroke-dasharray="4 4" stroke-width="1"/>
<text x="12" y="654.00" font-size="12" fill="#555555">0.032060</text>
<rect x="687.65" y="70" width="74.71" height="580.00" fill="#f1c40f" opacity="0.16"/>
<rect x="612.94" y="70" width="74.71" height="580.00" fill="#3498db" opacity="0.10"/>
<line x1="127.35" y1="628.44" x2="127.35" y2="650.00" stroke="#e74c3c" stroke-width="2"/>
<rect x="105.69" y="628.44" width="43.33" height="13.20" fill="#e74c3c" stroke="#e74c3c" stroke-width="1"/>
<text x="127.35" y="704" font-size="11" fill="#555555" text-anchor="middle">03-20</text>
<text x="127.35" y="720" font-size="11" fill="#555555" text-anchor="middle">02:00</text>
<line x1="202.06" y1="612.15" x2="202.06" y2="646.04" stroke="#2ecc71" stroke-width="2"/>
<rect x="180.39" y="626.68" width="43.33" height="19.36" fill="#2ecc71" stroke="#2ecc71" stroke-width="1"/>
<text x="202.06" y="704" font-size="11" fill="#555555" text-anchor="middle">03-20</text>
<text x="202.06" y="720" font-size="11" fill="#555555" text-anchor="middle">03:00</text>
<line x1="276.76" y1="624.92" x2="276.76" y2="643.40" stroke="#e74c3c" stroke-width="2"/>
<rect x="255.10" y="629.76" width="43.33" height="4.84" fill="#e74c3c" stroke="#e74c3c" stroke-width="1"/>
<text x="276.76" y="704" font-size="11" fill="#555555" text-anchor="middle">03-20</text>
<text x="276.76" y="720" font-size="11" fill="#555555" text-anchor="middle">04:00</text>
<line x1="351.47" y1="641.20" x2="351.47" y2="645.16" stroke="#e74c3c" stroke-width="2"/>
<rect x="329.81" y="641.20" width="43.33" height="3.96" fill="#e74c3c" stroke="#e74c3c" stroke-width="1"/>
<text x="351.47" y="704" font-size="11" fill="#555555" text-anchor="middle">03-20</text>
<text x="351.47" y="720" font-size="11" fill="#555555" text-anchor="middle">05:00</text>
<line x1="426.18" y1="629.32" x2="426.18" y2="643.40" stroke="#2ecc71" stroke-width="2"/>
<rect x="404.51" y="636.36" width="43.33" height="2.64" fill="#2ecc71" stroke="#2ecc71" stroke-width="1"/>
<text x="426.18" y="704" font-size="11" fill="#555555" text-anchor="middle">03-20</text>
<text x="426.18" y="720" font-size="11" fill="#555555" text-anchor="middle">06:00</text>
<line x1="500.88" y1="630.64" x2="500.88" y2="641.64" stroke="#e74c3c" stroke-width="2"/>
<rect x="479.22" y="635.92" width="43.33" height="3.96" fill="#e74c3c" stroke="#e74c3c" stroke-width="1"/>
<text x="500.88" y="704" font-size="11" fill="#555555" text-anchor="middle">03-20</text>
<text x="500.88" y="720" font-size="11" fill="#555555" text-anchor="middle">07:00</text>
<line x1="575.59" y1="602.91" x2="575.59" y2="635.48" stroke="#2ecc71" stroke-width="2"/>
<rect x="553.92" y="605.11" width="43.33" height="24.64" fill="#2ecc71" stroke="#2ecc71" stroke-width="1"/>
<text x="575.59" y="704" font-size="11" fill="#555555" text-anchor="middle">03-20</text>
<text x="575.59" y="720" font-size="11" fill="#555555" text-anchor="middle">08:00</text>
<line x1="650.29" y1="563.75" x2="650.29" y2="607.31" stroke="#2ecc71" stroke-width="2"/>
<rect x="628.63" y="563.75" width="43.33" height="37.41" fill="#2ecc71" stroke="#2ecc71" stroke-width="1"/>
<text x="650.29" y="704" font-size="11" fill="#555555" text-anchor="middle">03-20</text>
<text x="650.29" y="720" font-size="11" fill="#555555" text-anchor="middle">09:00</text>
<line x1="725.00" y1="70.00" x2="725.00" y2="587.95" stroke="#2ecc71" stroke-width="2"/>
<rect x="703.34" y="193.66" width="43.33" height="384.61" fill="#2ecc71" stroke="#2ecc71" stroke-width="1"/>
<text x="725.00" y="704" font-size="11" fill="#555555" text-anchor="middle">03-20</text>
<text x="725.00" y="720" font-size="11" fill="#555555" text-anchor="middle">10:00</text>
<line x1="799.71" y1="154.93" x2="799.71" y2="270.67" stroke="#e74c3c" stroke-width="2"/>
<rect x="778.04" y="194.98" width="43.33" height="42.25" fill="#e74c3c" stroke="#e74c3c" stroke-width="1"/>
<text x="799.71" y="704" font-size="11" fill="#555555" text-anchor="middle">03-20</text>
<text x="799.71" y="720" font-size="11" fill="#555555" text-anchor="middle">11:00</text>
<line x1="874.41" y1="124.57" x2="874.41" y2="258.79" stroke="#2ecc71" stroke-width="2"/>
<rect x="852.75" y="206.42" width="43.33" height="31.24" fill="#2ecc71" stroke="#2ecc71" stroke-width="1"/>
<text x="874.41" y="704" font-size="11" fill="#555555" text-anchor="middle">03-20</text>
<text x="874.41" y="720" font-size="11" fill="#555555" text-anchor="middle">12:00</text>
<line x1="949.12" y1="104.32" x2="949.12" y2="216.54" stroke="#2ecc71" stroke-width="2"/>
<rect x="927.45" y="121.05" width="43.33" height="87.13" fill="#2ecc71" stroke="#2ecc71" stroke-width="1"/>
<text x="949.12" y="704" font-size="11" fill="#555555" text-anchor="middle">03-20</text>
<text x="949.12" y="720" font-size="11" fill="#555555" text-anchor="middle">13:00</text>
<line x1="1023.82" y1="110.93" x2="1023.82" y2="395.20" stroke="#e74c3c" stroke-width="2"/>
<rect x="1002.16" y="121.93" width="43.33" height="173.38" fill="#e74c3c" stroke="#e74c3c" stroke-width="1"/>
<text x="1023.82" y="704" font-size="11" fill="#555555" text-anchor="middle">03-20</text>
<text x="1023.82" y="720" font-size="11" fill="#555555" text-anchor="middle">14:00</text>
<line x1="1098.53" y1="290.47" x2="1098.53" y2="356.92" stroke="#e74c3c" stroke-width="2"/>
<rect x="1076.86" y="296.63" width="43.33" height="28.60" fill="#e74c3c" stroke="#e74c3c" stroke-width="1"/>
<text x="1098.53" y="704" font-size="11" fill="#555555" text-anchor="middle">03-20</text>
<text x="1098.53" y="720" font-size="11" fill="#555555" text-anchor="middle">15:00</text>
<line x1="1173.24" y1="244.26" x2="1173.24" y2="345.04" stroke="#2ecc71" stroke-width="2"/>
<rect x="1151.57" y="295.31" width="43.33" height="29.92" fill="#2ecc71" stroke="#2ecc71" stroke-width="1"/>
<text x="1173.24" y="704" font-size="11" fill="#555555" text-anchor="middle">03-20</text>
<text x="1173.24" y="720" font-size="11" fill="#555555" text-anchor="middle">16:00</text>
<line x1="1247.94" y1="224.46" x2="1247.94" y2="331.84" stroke="#e74c3c" stroke-width="2"/>
<rect x="1226.28" y="295.75" width="43.33" height="14.96" fill="#e74c3c" stroke="#e74c3c" stroke-width="1"/>
<text x="1247.94" y="704" font-size="11" fill="#555555" text-anchor="middle">03-20</text>
<text x="1247.94" y="720" font-size="11" fill="#555555" text-anchor="middle">17:00</text>
<line x1="1322.65" y1="265.39" x2="1322.65" y2="319.07" stroke="#2ecc71" stroke-width="2"/>
<rect x="1300.98" y="282.11" width="43.33" height="27.72" fill="#2ecc71" stroke="#2ecc71" stroke-width="1"/>
<text x="1322.65" y="704" font-size="11" fill="#555555" text-anchor="middle">03-20</text>
<text x="1322.65" y="720" font-size="11" fill="#555555" text-anchor="middle">18:00</text>
<line x1="725.00" y1="70.00" x2="805.00" y2="90.00" stroke="#f1c40f" stroke-width="2"/>
<rect x="805.00" y="42.00" width="220" height="72" rx="8" fill="#fff8dc" stroke="#f1c40f"/>
<text x="815.00" y="66.00" font-size="12" fill="#111111">目标K线 2026-03-20 10:00</text>
<text x="815.00" y="84.00" font-size="12" fill="#111111">振幅 34.94%</text>
<text x="815.00" y="102.00" font-size="12" fill="#111111">倍数 11.71x</text>
<line x1="650.29" y1="563.75" x2="620.29" y2="523.75" stroke="#3498db" stroke-width="2"/>
<rect x="400.29" y="487.75" width="220" height="58" rx="8" fill="#eef6ff" stroke="#3498db"/>
<text x="410.29" y="509.75" font-size="12" fill="#111111">前一根涨幅 2.56%</text>
<text x="410.29" y="527.75" font-size="12" fill="#111111">前一根振幅 2.98%</text>
</svg>