<svg xmlns="http://www.w3.org/2000/svg" width="1400" height="760" viewBox="0 0 1400 760">
<rect width="100%" height="100%" fill="#fcfcfc"/>
<text x="90" y="36" font-size="26" font-weight="700" fill="#111111">PLAY_USDT 1H - 10倍命中</text>
<line x1="90" y1="70.00" x2="1360" y2="70.00" stroke="#d9d9d9" stroke-dasharray="4 4" stroke-width="1"/>
<text x="12" y="74.00" font-size="12" fill="#555555">0.113480</text>
<line x1="90" y1="186.00" x2="1360" y2="186.00" stroke="#d9d9d9" stroke-dasharray="4 4" stroke-width="1"/>
<text x="12" y="190.00" font-size="12" fill="#555555">0.105404</text>
<line x1="90" y1="302.00" x2="1360" y2="302.00" stroke="#d9d9d9" stroke-dasharray="4 4" stroke-width="1"/>
<text x="12" y="306.00" font-size="12" fill="#555555">0.097328</text>
<line x1="90" y1="418.00" x2="1360" y2="418.00" stroke="#d9d9d9" stroke-dasharray="4 4" stroke-width="1"/>
<text x="12" y="422.00" font-size="12" fill="#555555">0.089252</text>
<line x1="90" y1="534.00" x2="1360" y2="534.00" stroke="#d9d9d9" stroke-dasharray="4 4" stroke-width="1"/>
<text x="12" y="538.00" font-size="12" fill="#555555">0.081176</text>
<line x1="90" y1="650.00" x2="1360" y2="650.00" stroke="#d9d9d9" stroke-dasharray="4 4" stroke-width="1"/>
<text x="12" y="654.00" font-size="12" fill="#555555">0.073100</text>
<rect x="687.65" y="70" width="74.71" height="580.00" fill="#f1c40f" opacity="0.16"/>
<rect x="612.94" y="70" width="74.71" height="580.00" fill="#3498db" opacity="0.10"/>
<line x1="127.35" y1="637.65" x2="127.35" y2="643.11" stroke="#2ecc71" stroke-width="2"/>
<rect x="105.69" y="637.93" width="43.33" height="3.59" fill="#2ecc71" stroke="#2ecc71" stroke-width="1"/>
<text x="127.35" y="704" font-size="11" fill="#555555" text-anchor="middle">01-28</text>
<text x="127.35" y="720" font-size="11" fill="#555555" text-anchor="middle">10:00</text>
<line x1="202.06" y1="638.51" x2="202.06" y2="650.00" stroke="#e74c3c" stroke-width="2"/>
<rect x="180.39" y="638.51" width="43.33" height="5.17" fill="#e74c3c" stroke="#e74c3c" stroke-width="1"/>
<text x="202.06" y="704" font-size="11" fill="#555555" text-anchor="middle">01-28</text>
<text x="202.06" y="720" font-size="11" fill="#555555" text-anchor="middle">11:00</text>
<line x1="276.76" y1="644.54" x2="276.76" y2="649.43" stroke="#2ecc71" stroke-width="2"/>
<rect x="255.10" y="644.54" width="43.33" height="3.88" fill="#2ecc71" stroke="#2ecc71" stroke-width="1"/>
<text x="276.76" y="704" font-size="11" fill="#555555" text-anchor="middle">01-28</text>
<text x="276.76" y="720" font-size="11" fill="#555555" text-anchor="middle">12:00</text>
<line x1="351.47" y1="642.53" x2="351.47" y2="646.12" stroke="#2ecc71" stroke-width="2"/>
<rect x="329.81" y="646.12" width="43.33" height="1.20" fill="#2ecc71" stroke="#2ecc71" stroke-width="1"/>
<text x="351.47" y="704" font-size="11" fill="#555555" text-anchor="middle">01-28</text>
<text x="351.47" y="720" font-size="11" fill="#555555" text-anchor="middle">13:00</text>
<line x1="426.18" y1="633.19" x2="426.18" y2="645.69" stroke="#2ecc71" stroke-width="2"/>
<rect x="404.51" y="640.38" width="43.33" height="5.31" fill="#2ecc71" stroke="#2ecc71" stroke-width="1"/>
<text x="426.18" y="704" font-size="11" fill="#555555" text-anchor="middle">01-28</text>
<text x="426.18" y="720" font-size="11" fill="#555555" text-anchor="middle">14:00</text>
<line x1="500.88" y1="640.38" x2="500.88" y2="646.12" stroke="#e74c3c" stroke-width="2"/>
<rect x="479.22" y="641.81" width="43.33" height="4.31" fill="#e74c3c" stroke="#e74c3c" stroke-width="1"/>
<text x="500.88" y="704" font-size="11" fill="#555555" text-anchor="middle">01-28</text>
<text x="500.88" y="720" font-size="11" fill="#555555" text-anchor="middle">15:00</text>
<line x1="575.59" y1="628.17" x2="575.59" y2="644.69" stroke="#2ecc71" stroke-width="2"/>
<rect x="553.92" y="631.04" width="43.33" height="11.63" fill="#2ecc71" stroke="#2ecc71" stroke-width="1"/>
<text x="575.59" y="704" font-size="11" fill="#555555" text-anchor="middle">01-28</text>
<text x="575.59" y="720" font-size="11" fill="#555555" text-anchor="middle">16:00</text>
<line x1="650.29" y1="609.93" x2="650.29" y2="633.63" stroke="#2ecc71" stroke-width="2"/>
<rect x="628.63" y="610.36" width="43.33" height="23.13" fill="#2ecc71" stroke="#2ecc71" stroke-width="1"/>
<text x="650.29" y="704" font-size="11" fill="#555555" text-anchor="middle">01-28</text>
<text x="650.29" y="720" font-size="11" fill="#555555" text-anchor="middle">17:00</text>
<line x1="725.00" y1="378.53" x2="725.00" y2="620.99" stroke="#2ecc71" stroke-width="2"/>
<rect x="703.34" y="414.44" width="43.33" height="200.95" fill="#2ecc71" stroke="#2ecc71" stroke-width="1"/>
<text x="725.00" y="704" font-size="11" fill="#555555" text-anchor="middle">01-28</text>
<text x="725.00" y="720" font-size="11" fill="#555555" text-anchor="middle">18:00</text>
<line x1="799.71" y1="216.65" x2="799.71" y2="431.96" stroke="#2ecc71" stroke-width="2"/>
<rect x="778.04" y="269.22" width="43.33" height="143.64" fill="#2ecc71" stroke="#2ecc71" stroke-width="1"/>
<text x="799.71" y="704" font-size="11" fill="#555555" text-anchor="middle">01-28</text>
<text x="799.71" y="720" font-size="11" fill="#555555" text-anchor="middle">19:00</text>
<line x1="874.41" y1="178.01" x2="874.41" y2="282.87" stroke="#2ecc71" stroke-width="2"/>
<rect x="852.75" y="266.49" width="43.33" height="6.03" fill="#2ecc71" stroke="#2ecc71" stroke-width="1"/>
<text x="874.41" y="704" font-size="11" fill="#555555" text-anchor="middle">01-28</text>
<text x="874.41" y="720" font-size="11" fill="#555555" text-anchor="middle">20:00</text>
<line x1="949.12" y1="157.19" x2="949.12" y2="324.95" stroke="#2ecc71" stroke-width="2"/>
<rect x="927.45" y="229.29" width="43.33" height="35.62" fill="#2ecc71" stroke="#2ecc71" stroke-width="1"/>
<text x="949.12" y="704" font-size="11" fill="#555555" text-anchor="middle">01-28</text>
<text x="949.12" y="720" font-size="11" fill="#555555" text-anchor="middle">21:00</text>
<line x1="1023.82" y1="188.64" x2="1023.82" y2="282.58" stroke="#2ecc71" stroke-width="2"/>
<rect x="1002.16" y="211.48" width="43.33" height="16.95" fill="#2ecc71" stroke="#2ecc71" stroke-width="1"/>
<text x="1023.82" y="704" font-size="11" fill="#555555" text-anchor="middle">01-28</text>
<text x="1023.82" y="720" font-size="11" fill="#555555" text-anchor="middle">22:00</text>
<line x1="1098.53" y1="192.52" x2="1098.53" y2="242.79" stroke="#2ecc71" stroke-width="2"/>
<rect x="1076.86" y="213.20" width="43.33" height="1.20" fill="#2ecc71" stroke="#2ecc71" stroke-width="1"/>
<text x="1098.53" y="704" font-size="11" fill="#555555" text-anchor="middle">01-28</text>
<text x="1098.53" y="720" font-size="11" fill="#555555" text-anchor="middle">23:00</text>
<line x1="1173.24" y1="95.71" x2="1173.24" y2="227.57" stroke="#2ecc71" stroke-width="2"/>
<rect x="1151.57" y="142.68" width="43.33" height="74.12" fill="#2ecc71" stroke="#2ecc71" stroke-width="1"/>
<text x="1173.24" y="704" font-size="11" fill="#555555" text-anchor="middle">01-29</text>
<text x="1173.24" y="720" font-size="11" fill="#555555" text-anchor="middle">00:00</text>
<line x1="1247.94" y1="70.00" x2="1247.94" y2="167.53" stroke="#2ecc71" stroke-width="2"/>
<rect x="1226.28" y="107.35" width="43.33" height="36.34" fill="#2ecc71" stroke="#2ecc71" stroke-width="1"/>
<text x="1247.94" y="704" font-size="11" fill="#555555" text-anchor="middle">01-29</text>
<text x="1247.94" y="720" font-size="11" fill="#555555" text-anchor="middle">01:00</text>
<line x1="1322.65" y1="93.99" x2="1322.65" y2="135.21" stroke="#e74c3c" stroke-width="2"/>
<rect x="1300.98" y="104.62" width="43.33" height="15.23" fill="#e74c3c" stroke="#e74c3c" stroke-width="1"/>
<text x="1322.65" y="704" font-size="11" fill="#555555" text-anchor="middle">01-29</text>
<text x="1322.65" y="720" font-size="11" fill="#555555" text-anchor="middle">02:00</text>
<line x1="725.00" y1="378.53" x2="805.00" y2="308.53" stroke="#f1c40f" stroke-width="2"/>
<rect x="805.00" y="260.53" width="220" height="72" rx="8" fill="#fff8dc" stroke="#f1c40f"/>
<text x="815.00" y="284.53" font-size="12" fill="#111111">目标K线 2026-01-28 18:00</text>
<text x="815.00" y="302.53" font-size="12" fill="#111111">振幅 22.35%</text>
<text x="815.00" y="320.53" font-size="12" fill="#111111">倍数 10.06x</text>
<line x1="650.29" y1="609.93" x2="620.29" y2="569.93" stroke="#3498db" stroke-width="2"/>
<rect x="400.29" y="533.93" width="220" height="58" rx="8" fill="#eef6ff" stroke="#3498db"/>
<text x="410.29" y="555.93" font-size="12" fill="#111111">前一根涨幅 2.17%</text>
<text x="410.29" y="573.93" font-size="12" fill="#111111">前一根振幅 2.22%</text>
</svg>