<svg xmlns="http://www.w3.org/2000/svg" width="1400" height="760" viewBox="0 0 1400 760">
<rect width="100%" height="100%" fill="#fcfcfc"/>
<text x="90" y="36" font-size="26" font-weight="700" fill="#111111">PLAY_USDT 1H - 10倍命中</text>
<line x1="90" y1="70.00" x2="1360" y2="70.00" stroke="#d9d9d9" stroke-dasharray="4 4" stroke-width="1"/>
<text x="12" y="74.00" font-size="12" fill="#555555">0.187220</text>
<line x1="90" y1="186.00" x2="1360" y2="186.00" stroke="#d9d9d9" stroke-dasharray="4 4" stroke-width="1"/>
<text x="12" y="190.00" font-size="12" fill="#555555">0.173776</text>
<line x1="90" y1="302.00" x2="1360" y2="302.00" stroke="#d9d9d9" stroke-dasharray="4 4" stroke-width="1"/>
<text x="12" y="306.00" font-size="12" fill="#555555">0.160332</text>
<line x1="90" y1="418.00" x2="1360" y2="418.00" stroke="#d9d9d9" stroke-dasharray="4 4" stroke-width="1"/>
<text x="12" y="422.00" font-size="12" fill="#555555">0.146888</text>
<line x1="90" y1="534.00" x2="1360" y2="534.00" stroke="#d9d9d9" stroke-dasharray="4 4" stroke-width="1"/>
<text x="12" y="538.00" font-size="12" fill="#555555">0.133444</text>
<line x1="90" y1="650.00" x2="1360" y2="650.00" stroke="#d9d9d9" stroke-dasharray="4 4" stroke-width="1"/>
<text x="12" y="654.00" font-size="12" fill="#555555">0.120000</text>
<rect x="687.65" y="70" width="74.71" height="580.00" fill="#f1c40f" opacity="0.16"/>
<rect x="612.94" y="70" width="74.71" height="580.00" fill="#3498db" opacity="0.10"/>
<line x1="127.35" y1="429.80" x2="127.35" y2="496.16" stroke="#2ecc71" stroke-width="2"/>
<rect x="105.69" y="450.17" width="43.33" height="28.04" fill="#2ecc71" stroke="#2ecc71" stroke-width="1"/>
<text x="127.35" y="704" font-size="11" fill="#555555" text-anchor="middle">04-25</text>
<text x="127.35" y="720" font-size="11" fill="#555555" text-anchor="middle">01:00</text>
<line x1="202.06" y1="445.33" x2="202.06" y2="461.99" stroke="#e74c3c" stroke-width="2"/>
<rect x="180.39" y="452.67" width="43.33" height="1.73" fill="#e74c3c" stroke="#e74c3c" stroke-width="1"/>
<text x="202.06" y="704" font-size="11" fill="#555555" text-anchor="middle">04-25</text>
<text x="202.06" y="720" font-size="11" fill="#555555" text-anchor="middle">02:00</text>
<line x1="276.76" y1="435.50" x2="276.76" y2="460.43" stroke="#2ecc71" stroke-width="2"/>
<rect x="255.10" y="453.19" width="43.33" height="1.29" fill="#2ecc71" stroke="#2ecc71" stroke-width="1"/>
<text x="276.76" y="704" font-size="11" fill="#555555" text-anchor="middle">04-25</text>
<text x="276.76" y="720" font-size="11" fill="#555555" text-anchor="middle">03:00</text>
<line x1="351.47" y1="387.01" x2="351.47" y2="454.74" stroke="#2ecc71" stroke-width="2"/>
<rect x="329.81" y="432.91" width="43.33" height="19.07" fill="#2ecc71" stroke="#2ecc71" stroke-width="1"/>
<text x="351.47" y="704" font-size="11" fill="#555555" text-anchor="middle">04-25</text>
<text x="351.47" y="720" font-size="11" fill="#555555" text-anchor="middle">04:00</text>
<line x1="426.18" y1="436.97" x2="426.18" y2="464.32" stroke="#e74c3c" stroke-width="2"/>
<rect x="404.51" y="437.22" width="43.33" height="13.81" fill="#e74c3c" stroke="#e74c3c" stroke-width="1"/>
<text x="426.18" y="704" font-size="11" fill="#555555" text-anchor="middle">04-25</text>
<text x="426.18" y="720" font-size="11" fill="#555555" text-anchor="middle">05:00</text>
<line x1="500.88" y1="447.66" x2="500.88" y2="475.10" stroke="#e74c3c" stroke-width="2"/>
<rect x="479.22" y="447.66" width="43.33" height="23.12" fill="#e74c3c" stroke="#e74c3c" stroke-width="1"/>
<text x="500.88" y="704" font-size="11" fill="#555555" text-anchor="middle">04-25</text>
<text x="500.88" y="720" font-size="11" fill="#555555" text-anchor="middle">06:00</text>
<line x1="575.59" y1="470.10" x2="575.59" y2="504.96" stroke="#e74c3c" stroke-width="2"/>
<rect x="553.92" y="470.70" width="43.33" height="21.57" fill="#e74c3c" stroke="#e74c3c" stroke-width="1"/>
<text x="575.59" y="704" font-size="11" fill="#555555" text-anchor="middle">04-25</text>
<text x="575.59" y="720" font-size="11" fill="#555555" text-anchor="middle">07:00</text>
<line x1="650.29" y1="449.13" x2="650.29" y2="495.12" stroke="#2ecc71" stroke-width="2"/>
<rect x="628.63" y="473.89" width="43.33" height="16.57" fill="#2ecc71" stroke="#2ecc71" stroke-width="1"/>
<text x="650.29" y="704" font-size="11" fill="#555555" text-anchor="middle">04-25</text>
<text x="650.29" y="720" font-size="11" fill="#555555" text-anchor="middle">08:00</text>
<line x1="725.00" y1="70.00" x2="725.00" y2="542.75" stroke="#2ecc71" stroke-width="2"/>
<rect x="703.34" y="184.33" width="43.33" height="289.83" fill="#2ecc71" stroke="#2ecc71" stroke-width="1"/>
<text x="725.00" y="704" font-size="11" fill="#555555" text-anchor="middle">04-25</text>
<text x="725.00" y="720" font-size="11" fill="#555555" text-anchor="middle">09:00</text>
<line x1="799.71" y1="77.25" x2="799.71" y2="536.19" stroke="#e74c3c" stroke-width="2"/>
<rect x="778.04" y="181.22" width="43.33" height="301.65" fill="#e74c3c" stroke="#e74c3c" stroke-width="1"/>
<text x="799.71" y="704" font-size="11" fill="#555555" text-anchor="middle">04-25</text>
<text x="799.71" y="720" font-size="11" fill="#555555" text-anchor="middle">10:00</text>
<line x1="874.41" y1="472.08" x2="874.41" y2="596.16" stroke="#e74c3c" stroke-width="2"/>
<rect x="852.75" y="489.86" width="43.33" height="11.13" fill="#e74c3c" stroke="#e74c3c" stroke-width="1"/>
<text x="874.41" y="704" font-size="11" fill="#555555" text-anchor="middle">04-25</text>
<text x="874.41" y="720" font-size="11" fill="#555555" text-anchor="middle">11:00</text>
<line x1="949.12" y1="474.93" x2="949.12" y2="534.90" stroke="#e74c3c" stroke-width="2"/>
<rect x="927.45" y="501.42" width="43.33" height="23.73" fill="#e74c3c" stroke="#e74c3c" stroke-width="1"/>
<text x="949.12" y="704" font-size="11" fill="#555555" text-anchor="middle">04-25</text>
<text x="949.12" y="720" font-size="11" fill="#555555" text-anchor="middle">12:00</text>
<line x1="1023.82" y1="499.00" x2="1023.82" y2="542.23" stroke="#2ecc71" stroke-width="2"/>
<rect x="1002.16" y="507.63" width="43.33" height="15.10" fill="#2ecc71" stroke="#2ecc71" stroke-width="1"/>
<text x="1023.82" y="704" font-size="11" fill="#555555" text-anchor="middle">04-25</text>
<text x="1023.82" y="720" font-size="11" fill="#555555" text-anchor="middle">13:00</text>
<line x1="1098.53" y1="491.15" x2="1098.53" y2="528.17" stroke="#e74c3c" stroke-width="2"/>
<rect x="1076.86" y="505.39" width="43.33" height="17.08" fill="#e74c3c" stroke="#e74c3c" stroke-width="1"/>
<text x="1098.53" y="704" font-size="11" fill="#555555" text-anchor="middle">04-25</text>
<text x="1098.53" y="720" font-size="11" fill="#555555" text-anchor="middle">14:00</text>
<line x1="1173.24" y1="513.41" x2="1173.24" y2="554.31" stroke="#e74c3c" stroke-width="2"/>
<rect x="1151.57" y="522.90" width="43.33" height="11.82" fill="#e74c3c" stroke="#e74c3c" stroke-width="1"/>
<text x="1173.24" y="704" font-size="11" fill="#555555" text-anchor="middle">04-25</text>
<text x="1173.24" y="720" font-size="11" fill="#555555" text-anchor="middle">15:00</text>
<line x1="1247.94" y1="523.42" x2="1247.94" y2="591.76" stroke="#e74c3c" stroke-width="2"/>
<rect x="1226.28" y="531.79" width="43.33" height="51.86" fill="#e74c3c" stroke="#e74c3c" stroke-width="1"/>
<text x="1247.94" y="704" font-size="11" fill="#555555" text-anchor="middle">04-25</text>
<text x="1247.94" y="720" font-size="11" fill="#555555" text-anchor="middle">16:00</text>
<line x1="1322.65" y1="565.27" x2="1322.65" y2="650.00" stroke="#e74c3c" stroke-width="2"/>
<rect x="1300.98" y="581.92" width="43.33" height="16.05" fill="#e74c3c" stroke="#e74c3c" stroke-width="1"/>
<text x="1322.65" y="704" font-size="11" fill="#555555" text-anchor="middle">04-25</text>
<text x="1322.65" y="720" font-size="11" fill="#555555" text-anchor="middle">17:00</text>
<line x1="725.00" y1="70.00" x2="805.00" y2="90.00" stroke="#f1c40f" stroke-width="2"/>
<rect x="805.00" y="42.00" width="220" height="72" rx="8" fill="#fff8dc" stroke="#f1c40f"/>
<text x="815.00" y="66.00" font-size="12" fill="#111111">目标K线 2026-04-25 09:00</text>
<text x="815.00" y="84.00" font-size="12" fill="#111111">振幅 39.03%</text>
<text x="815.00" y="102.00" font-size="12" fill="#111111">倍数 10.14x</text>
<line x1="650.29" y1="449.13" x2="620.29" y2="409.13" stroke="#3498db" stroke-width="2"/>
<rect x="400.29" y="373.13" width="220" height="58" rx="8" fill="#eef6ff" stroke="#3498db"/>
<text x="410.29" y="395.13" font-size="12" fill="#111111">前一根涨幅 1.39%</text>
<text x="410.29" y="413.13" font-size="12" fill="#111111">前一根振幅 3.85%</text>
</svg>