<svg xmlns="http://www.w3.org/2000/svg" width="1400" height="760" viewBox="0 0 1400 760">
<rect width="100%" height="100%" fill="#fcfcfc"/>
<text x="90" y="36" font-size="26" font-weight="700" fill="#111111">POLYX_USDT 1H - 10倍命中</text>
<line x1="90" y1="70.00" x2="1360" y2="70.00" stroke="#d9d9d9" stroke-dasharray="4 4" stroke-width="1"/>
<text x="12" y="74.00" font-size="12" fill="#555555">0.174140</text>
<line x1="90" y1="186.00" x2="1360" y2="186.00" stroke="#d9d9d9" stroke-dasharray="4 4" stroke-width="1"/>
<text x="12" y="190.00" font-size="12" fill="#555555">0.166762</text>
<line x1="90" y1="302.00" x2="1360" y2="302.00" stroke="#d9d9d9" stroke-dasharray="4 4" stroke-width="1"/>
<text x="12" y="306.00" font-size="12" fill="#555555">0.159384</text>
<line x1="90" y1="418.00" x2="1360" y2="418.00" stroke="#d9d9d9" stroke-dasharray="4 4" stroke-width="1"/>
<text x="12" y="422.00" font-size="12" fill="#555555">0.152006</text>
<line x1="90" y1="534.00" x2="1360" y2="534.00" stroke="#d9d9d9" stroke-dasharray="4 4" stroke-width="1"/>
<text x="12" y="538.00" font-size="12" fill="#555555">0.144628</text>
<line x1="90" y1="650.00" x2="1360" y2="650.00" stroke="#d9d9d9" stroke-dasharray="4 4" stroke-width="1"/>
<text x="12" y="654.00" font-size="12" fill="#555555">0.137250</text>
<rect x="687.65" y="70" width="74.71" height="580.00" fill="#f1c40f" opacity="0.16"/>
<rect x="612.94" y="70" width="74.71" height="580.00" fill="#3498db" opacity="0.10"/>
<line x1="127.35" y1="553.78" x2="127.35" y2="567.14" stroke="#e74c3c" stroke-width="2"/>
<rect x="105.69" y="558.02" width="43.33" height="1.20" fill="#e74c3c" stroke="#e74c3c" stroke-width="1"/>
<text x="127.35" y="704" font-size="11" fill="#555555" text-anchor="middle">07-12</text>
<text x="127.35" y="720" font-size="11" fill="#555555" text-anchor="middle">02:00</text>
<line x1="202.06" y1="557.71" x2="202.06" y2="568.24" stroke="#2ecc71" stroke-width="2"/>
<rect x="180.39" y="560.22" width="43.33" height="4.87" fill="#2ecc71" stroke="#2ecc71" stroke-width="1"/>
<text x="202.06" y="704" font-size="11" fill="#555555" text-anchor="middle">07-12</text>
<text x="202.06" y="720" font-size="11" fill="#555555" text-anchor="middle">03:00</text>
<line x1="276.76" y1="561.33" x2="276.76" y2="569.50" stroke="#e74c3c" stroke-width="2"/>
<rect x="255.10" y="561.33" width="43.33" height="8.18" fill="#e74c3c" stroke="#e74c3c" stroke-width="1"/>
<text x="276.76" y="704" font-size="11" fill="#555555" text-anchor="middle">07-12</text>
<text x="276.76" y="720" font-size="11" fill="#555555" text-anchor="middle">04:00</text>
<line x1="351.47" y1="580.35" x2="351.47" y2="624.84" stroke="#e74c3c" stroke-width="2"/>
<rect x="329.81" y="580.35" width="43.33" height="44.34" fill="#e74c3c" stroke="#e74c3c" stroke-width="1"/>
<text x="351.47" y="704" font-size="11" fill="#555555" text-anchor="middle">07-12</text>
<text x="351.47" y="720" font-size="11" fill="#555555" text-anchor="middle">05:00</text>
<line x1="426.18" y1="622.64" x2="426.18" y2="650.00" stroke="#e74c3c" stroke-width="2"/>
<rect x="404.51" y="625.00" width="43.33" height="5.35" fill="#e74c3c" stroke="#e74c3c" stroke-width="1"/>
<text x="426.18" y="704" font-size="11" fill="#555555" text-anchor="middle">07-12</text>
<text x="426.18" y="720" font-size="11" fill="#555555" text-anchor="middle">06:00</text>
<line x1="500.88" y1="626.42" x2="500.88" y2="631.29" stroke="#2ecc71" stroke-width="2"/>
<rect x="479.22" y="628.30" width="43.33" height="1.73" fill="#2ecc71" stroke="#2ecc71" stroke-width="1"/>
<text x="500.88" y="704" font-size="11" fill="#555555" text-anchor="middle">07-12</text>
<text x="500.88" y="720" font-size="11" fill="#555555" text-anchor="middle">07:00</text>
<line x1="575.59" y1="629.88" x2="575.59" y2="649.21" stroke="#e74c3c" stroke-width="2"/>
<rect x="553.92" y="629.88" width="43.33" height="6.60" fill="#e74c3c" stroke="#e74c3c" stroke-width="1"/>
<text x="575.59" y="704" font-size="11" fill="#555555" text-anchor="middle">07-12</text>
<text x="575.59" y="720" font-size="11" fill="#555555" text-anchor="middle">08:00</text>
<line x1="650.29" y1="588.21" x2="650.29" y2="631.29" stroke="#2ecc71" stroke-width="2"/>
<rect x="628.63" y="590.88" width="43.33" height="40.41" fill="#2ecc71" stroke="#2ecc71" stroke-width="1"/>
<text x="650.29" y="704" font-size="11" fill="#555555" text-anchor="middle">07-12</text>
<text x="650.29" y="720" font-size="11" fill="#555555" text-anchor="middle">09:00</text>
<line x1="725.00" y1="70.00" x2="725.00" y2="591.20" stroke="#2ecc71" stroke-width="2"/>
<rect x="703.34" y="316.68" width="43.33" height="268.07" fill="#2ecc71" stroke="#2ecc71" stroke-width="1"/>
<text x="725.00" y="704" font-size="11" fill="#555555" text-anchor="middle">07-12</text>
<text x="725.00" y="720" font-size="11" fill="#555555" text-anchor="middle">10:00</text>
<line x1="799.71" y1="309.92" x2="799.71" y2="422.18" stroke="#e74c3c" stroke-width="2"/>
<rect x="778.04" y="335.87" width="43.33" height="70.59" fill="#e74c3c" stroke="#e74c3c" stroke-width="1"/>
<text x="799.71" y="704" font-size="11" fill="#555555" text-anchor="middle">07-12</text>
<text x="799.71" y="720" font-size="11" fill="#555555" text-anchor="middle">11:00</text>
<line x1="874.41" y1="401.27" x2="874.41" y2="486.02" stroke="#e74c3c" stroke-width="2"/>
<rect x="852.75" y="406.46" width="43.33" height="79.56" fill="#e74c3c" stroke="#e74c3c" stroke-width="1"/>
<text x="874.41" y="704" font-size="11" fill="#555555" text-anchor="middle">07-12</text>
<text x="874.41" y="720" font-size="11" fill="#555555" text-anchor="middle">12:00</text>
<line x1="949.12" y1="420.45" x2="949.12" y2="484.76" stroke="#2ecc71" stroke-width="2"/>
<rect x="927.45" y="439.32" width="43.33" height="45.44" fill="#2ecc71" stroke="#2ecc71" stroke-width="1"/>
<text x="949.12" y="704" font-size="11" fill="#555555" text-anchor="middle">07-12</text>
<text x="949.12" y="720" font-size="11" fill="#555555" text-anchor="middle">13:00</text>
<line x1="1023.82" y1="376.27" x2="1023.82" y2="455.51" stroke="#e74c3c" stroke-width="2"/>
<rect x="1002.16" y="419.19" width="43.33" height="16.98" fill="#e74c3c" stroke="#e74c3c" stroke-width="1"/>
<text x="1023.82" y="704" font-size="11" fill="#555555" text-anchor="middle">07-12</text>
<text x="1023.82" y="720" font-size="11" fill="#555555" text-anchor="middle">14:00</text>
<line x1="1098.53" y1="290.43" x2="1098.53" y2="450.17" stroke="#2ecc71" stroke-width="2"/>
<rect x="1076.86" y="400.96" width="43.33" height="29.09" fill="#2ecc71" stroke="#2ecc71" stroke-width="1"/>
<text x="1098.53" y="704" font-size="11" fill="#555555" text-anchor="middle">07-12</text>
<text x="1098.53" y="720" font-size="11" fill="#555555" text-anchor="middle">15:00</text>
<line x1="1173.24" y1="367.47" x2="1173.24" y2="444.04" stroke="#e74c3c" stroke-width="2"/>
<rect x="1151.57" y="387.59" width="43.33" height="39.62" fill="#e74c3c" stroke="#e74c3c" stroke-width="1"/>
<text x="1173.24" y="704" font-size="11" fill="#555555" text-anchor="middle">07-12</text>
<text x="1173.24" y="720" font-size="11" fill="#555555" text-anchor="middle">16:00</text>
<line x1="1247.94" y1="433.50" x2="1247.94" y2="486.64" stroke="#e74c3c" stroke-width="2"/>
<rect x="1226.28" y="446.39" width="43.33" height="19.65" fill="#e74c3c" stroke="#e74c3c" stroke-width="1"/>
<text x="1247.94" y="704" font-size="11" fill="#555555" text-anchor="middle">07-12</text>
<text x="1247.94" y="720" font-size="11" fill="#555555" text-anchor="middle">17:00</text>
<line x1="1322.65" y1="437.90" x2="1322.65" y2="474.54" stroke="#2ecc71" stroke-width="2"/>
<rect x="1300.98" y="466.52" width="43.33" height="1.20" fill="#2ecc71" stroke="#2ecc71" stroke-width="1"/>
<text x="1322.65" y="704" font-size="11" fill="#555555" text-anchor="middle">07-12</text>
<text x="1322.65" y="720" font-size="11" fill="#555555" text-anchor="middle">18:00</text>
<line x1="725.00" y1="70.00" x2="805.00" y2="90.00" stroke="#f1c40f" stroke-width="2"/>
<rect x="805.00" y="42.00" width="220" height="72" rx="8" fill="#fff8dc" stroke="#f1c40f"/>
<text x="815.00" y="66.00" font-size="12" fill="#111111">目标K线 2025-07-12 10:00</text>
<text x="815.00" y="84.00" font-size="12" fill="#111111">振幅 23.44%</text>
<text x="815.00" y="102.00" font-size="12" fill="#111111">倍数 11.85x</text>
<line x1="650.29" y1="588.21" x2="620.29" y2="548.21" stroke="#3498db" stroke-width="2"/>
<rect x="400.29" y="512.21" width="220" height="58" rx="8" fill="#eef6ff" stroke="#3498db"/>
<text x="410.29" y="534.21" font-size="12" fill="#111111">前一根涨幅 1.86%</text>
<text x="410.29" y="552.21" font-size="12" fill="#111111">前一根振幅 1.98%</text>
</svg>