<svg xmlns="http://www.w3.org/2000/svg" width="1400" height="760" viewBox="0 0 1400 760">
<rect width="100%" height="100%" fill="#fcfcfc"/>
<text x="90" y="36" font-size="26" font-weight="700" fill="#111111">POWER_USDT 1H - 10倍命中</text>
<line x1="90" y1="70.00" x2="1360" y2="70.00" stroke="#d9d9d9" stroke-dasharray="4 4" stroke-width="1"/>
<text x="12" y="74.00" font-size="12" fill="#555555">0.051480</text>
<line x1="90" y1="186.00" x2="1360" y2="186.00" stroke="#d9d9d9" stroke-dasharray="4 4" stroke-width="1"/>
<text x="12" y="190.00" font-size="12" fill="#555555">0.049958</text>
<line x1="90" y1="302.00" x2="1360" y2="302.00" stroke="#d9d9d9" stroke-dasharray="4 4" stroke-width="1"/>
<text x="12" y="306.00" font-size="12" fill="#555555">0.048436</text>
<line x1="90" y1="418.00" x2="1360" y2="418.00" stroke="#d9d9d9" stroke-dasharray="4 4" stroke-width="1"/>
<text x="12" y="422.00" font-size="12" fill="#555555">0.046914</text>
<line x1="90" y1="534.00" x2="1360" y2="534.00" stroke="#d9d9d9" stroke-dasharray="4 4" stroke-width="1"/>
<text x="12" y="538.00" font-size="12" fill="#555555">0.045392</text>
<line x1="90" y1="650.00" x2="1360" y2="650.00" stroke="#d9d9d9" stroke-dasharray="4 4" stroke-width="1"/>
<text x="12" y="654.00" font-size="12" fill="#555555">0.043870</text>
<rect x="687.65" y="70" width="74.71" height="580.00" fill="#f1c40f" opacity="0.16"/>
<rect x="612.94" y="70" width="74.71" height="580.00" fill="#3498db" opacity="0.10"/>
<line x1="127.35" y1="403.06" x2="127.35" y2="534.91" stroke="#e74c3c" stroke-width="2"/>
<rect x="105.69" y="422.88" width="43.33" height="112.04" fill="#e74c3c" stroke="#e74c3c" stroke-width="1"/>
<text x="127.35" y="704" font-size="11" fill="#555555" text-anchor="middle">03-16</text>
<text x="127.35" y="720" font-size="11" fill="#555555" text-anchor="middle">19:00</text>
<line x1="202.06" y1="476.99" x2="202.06" y2="497.57" stroke="#e74c3c" stroke-width="2"/>
<rect x="180.39" y="492.23" width="43.33" height="5.34" fill="#e74c3c" stroke="#e74c3c" stroke-width="1"/>
<text x="202.06" y="704" font-size="11" fill="#555555" text-anchor="middle">03-16</text>
<text x="202.06" y="720" font-size="11" fill="#555555" text-anchor="middle">20:00</text>
<line x1="276.76" y1="484.61" x2="276.76" y2="594.36" stroke="#e74c3c" stroke-width="2"/>
<rect x="255.10" y="497.57" width="43.33" height="37.35" fill="#e74c3c" stroke="#e74c3c" stroke-width="1"/>
<text x="276.76" y="704" font-size="11" fill="#555555" text-anchor="middle">03-16</text>
<text x="276.76" y="720" font-size="11" fill="#555555" text-anchor="middle">21:00</text>
<line x1="351.47" y1="492.23" x2="351.47" y2="650.00" stroke="#e74c3c" stroke-width="2"/>
<rect x="329.81" y="521.96" width="43.33" height="16.77" fill="#e74c3c" stroke="#e74c3c" stroke-width="1"/>
<text x="351.47" y="704" font-size="11" fill="#555555" text-anchor="middle">03-16</text>
<text x="351.47" y="720" font-size="11" fill="#555555" text-anchor="middle">22:00</text>
<line x1="426.18" y1="493.00" x2="426.18" y2="566.93" stroke="#e74c3c" stroke-width="2"/>
<rect x="404.51" y="553.97" width="43.33" height="12.19" fill="#e74c3c" stroke="#e74c3c" stroke-width="1"/>
<text x="426.18" y="704" font-size="11" fill="#555555" text-anchor="middle">03-16</text>
<text x="426.18" y="720" font-size="11" fill="#555555" text-anchor="middle">23:00</text>
<line x1="500.88" y1="523.48" x2="500.88" y2="624.09" stroke="#e74c3c" stroke-width="2"/>
<rect x="479.22" y="579.12" width="43.33" height="3.81" fill="#e74c3c" stroke="#e74c3c" stroke-width="1"/>
<text x="500.88" y="704" font-size="11" fill="#555555" text-anchor="middle">03-17</text>
<text x="500.88" y="720" font-size="11" fill="#555555" text-anchor="middle">00:00</text>
<line x1="575.59" y1="563.88" x2="575.59" y2="605.80" stroke="#2ecc71" stroke-width="2"/>
<rect x="553.92" y="582.17" width="43.33" height="4.57" fill="#2ecc71" stroke="#2ecc71" stroke-width="1"/>
<text x="575.59" y="704" font-size="11" fill="#555555" text-anchor="middle">03-17</text>
<text x="575.59" y="720" font-size="11" fill="#555555" text-anchor="middle">01:00</text>
<line x1="650.29" y1="566.93" x2="650.29" y2="610.37" stroke="#2ecc71" stroke-width="2"/>
<rect x="628.63" y="566.93" width="43.33" height="43.44" fill="#2ecc71" stroke="#2ecc71" stroke-width="1"/>
<text x="650.29" y="704" font-size="11" fill="#555555" text-anchor="middle">03-17</text>
<text x="650.29" y="720" font-size="11" fill="#555555" text-anchor="middle">02:00</text>
<line x1="725.00" y1="70.00" x2="725.00" y2="541.77" stroke="#2ecc71" stroke-width="2"/>
<rect x="703.34" y="518.91" width="43.33" height="22.86" fill="#2ecc71" stroke="#2ecc71" stroke-width="1"/>
<text x="725.00" y="704" font-size="11" fill="#555555" text-anchor="middle">03-17</text>
<text x="725.00" y="720" font-size="11" fill="#555555" text-anchor="middle">03:00</text>
<line x1="799.71" y1="278.83" x2="799.71" y2="443.46" stroke="#2ecc71" stroke-width="2"/>
<rect x="778.04" y="314.65" width="43.33" height="128.80" fill="#2ecc71" stroke="#2ecc71" stroke-width="1"/>
<text x="799.71" y="704" font-size="11" fill="#555555" text-anchor="middle">03-17</text>
<text x="799.71" y="720" font-size="11" fill="#555555" text-anchor="middle">04:00</text>
<line x1="874.41" y1="314.65" x2="874.41" y2="429.74" stroke="#e74c3c" stroke-width="2"/>
<rect x="852.75" y="314.65" width="43.33" height="115.09" fill="#e74c3c" stroke="#e74c3c" stroke-width="1"/>
<text x="874.41" y="704" font-size="11" fill="#555555" text-anchor="middle">03-17</text>
<text x="874.41" y="720" font-size="11" fill="#555555" text-anchor="middle">05:00</text>
<line x1="949.12" y1="428.98" x2="949.12" y2="551.68" stroke="#e74c3c" stroke-width="2"/>
<rect x="927.45" y="428.98" width="43.33" height="28.20" fill="#e74c3c" stroke="#e74c3c" stroke-width="1"/>
<text x="949.12" y="704" font-size="11" fill="#555555" text-anchor="middle">03-17</text>
<text x="949.12" y="720" font-size="11" fill="#555555" text-anchor="middle">06:00</text>
<line x1="1023.82" y1="475.47" x2="1023.82" y2="501.38" stroke="#e74c3c" stroke-width="2"/>
<rect x="1002.16" y="475.47" width="43.33" height="8.38" fill="#e74c3c" stroke="#e74c3c" stroke-width="1"/>
<text x="1023.82" y="704" font-size="11" fill="#555555" text-anchor="middle">03-17</text>
<text x="1023.82" y="720" font-size="11" fill="#555555" text-anchor="middle">07:00</text>
<line x1="1098.53" y1="510.53" x2="1098.53" y2="553.97" stroke="#e74c3c" stroke-width="2"/>
<rect x="1076.86" y="510.53" width="43.33" height="28.20" fill="#e74c3c" stroke="#e74c3c" stroke-width="1"/>
<text x="1098.53" y="704" font-size="11" fill="#555555" text-anchor="middle">03-17</text>
<text x="1098.53" y="720" font-size="11" fill="#555555" text-anchor="middle">08:00</text>
<line x1="1173.24" y1="538.73" x2="1173.24" y2="563.11" stroke="#e74c3c" stroke-width="2"/>
<rect x="1151.57" y="538.73" width="43.33" height="24.39" fill="#e74c3c" stroke="#e74c3c" stroke-width="1"/>
<text x="1173.24" y="704" font-size="11" fill="#555555" text-anchor="middle">03-17</text>
<text x="1173.24" y="720" font-size="11" fill="#555555" text-anchor="middle">09:00</text>
<line x1="1247.94" y1="528.06" x2="1247.94" y2="528.06" stroke="#2ecc71" stroke-width="2"/>
<rect x="1226.28" y="528.06" width="43.33" height="1.20" fill="#2ecc71" stroke="#2ecc71" stroke-width="1"/>
<text x="1247.94" y="704" font-size="11" fill="#555555" text-anchor="middle">03-17</text>
<text x="1247.94" y="720" font-size="11" fill="#555555" text-anchor="middle">10:00</text>
<line x1="1322.65" y1="364.19" x2="1322.65" y2="563.11" stroke="#e74c3c" stroke-width="2"/>
<rect x="1300.98" y="528.82" width="43.33" height="34.30" fill="#e74c3c" stroke="#e74c3c" stroke-width="1"/>
<text x="1322.65" y="704" font-size="11" fill="#555555" text-anchor="middle">03-17</text>
<text x="1322.65" y="720" font-size="11" fill="#555555" text-anchor="middle">11:00</text>
<line x1="725.00" y1="70.00" x2="805.00" y2="90.00" stroke="#f1c40f" stroke-width="2"/>
<rect x="805.00" y="42.00" width="220" height="72" rx="8" fill="#fff8dc" stroke="#f1c40f"/>
<text x="815.00" y="66.00" font-size="12" fill="#111111">目标K线 2025-03-17 03:00</text>
<text x="815.00" y="84.00" font-size="12" fill="#111111">振幅 13.67%</text>
<text x="815.00" y="102.00" font-size="12" fill="#111111">倍数 10.64x</text>
<line x1="650.29" y1="566.93" x2="620.29" y2="526.93" stroke="#3498db" stroke-width="2"/>
<rect x="400.29" y="490.93" width="220" height="58" rx="8" fill="#eef6ff" stroke="#3498db"/>
<text x="410.29" y="512.93" font-size="12" fill="#111111">前一根涨幅 1.28%</text>
<text x="410.29" y="530.93" font-size="12" fill="#111111">前一根振幅 1.28%</text>
</svg>