<svg xmlns="http://www.w3.org/2000/svg" width="1400" height="760" viewBox="0 0 1400 760">
<rect width="100%" height="100%" fill="#fcfcfc"/>
<text x="90" y="36" font-size="26" font-weight="700" fill="#111111">PRL_USDT 1H - 10倍命中</text>
<line x1="90" y1="70.00" x2="1360" y2="70.00" stroke="#d9d9d9" stroke-dasharray="4 4" stroke-width="1"/>
<text x="12" y="74.00" font-size="12" fill="#555555">0.203500</text>
<line x1="90" y1="186.00" x2="1360" y2="186.00" stroke="#d9d9d9" stroke-dasharray="4 4" stroke-width="1"/>
<text x="12" y="190.00" font-size="12" fill="#555555">0.185558</text>
<line x1="90" y1="302.00" x2="1360" y2="302.00" stroke="#d9d9d9" stroke-dasharray="4 4" stroke-width="1"/>
<text x="12" y="306.00" font-size="12" fill="#555555">0.167616</text>
<line x1="90" y1="418.00" x2="1360" y2="418.00" stroke="#d9d9d9" stroke-dasharray="4 4" stroke-width="1"/>
<text x="12" y="422.00" font-size="12" fill="#555555">0.149674</text>
<line x1="90" y1="534.00" x2="1360" y2="534.00" stroke="#d9d9d9" stroke-dasharray="4 4" stroke-width="1"/>
<text x="12" y="538.00" font-size="12" fill="#555555">0.131732</text>
<line x1="90" y1="650.00" x2="1360" y2="650.00" stroke="#d9d9d9" stroke-dasharray="4 4" stroke-width="1"/>
<text x="12" y="654.00" font-size="12" fill="#555555">0.113790</text>
<rect x="687.65" y="70" width="74.71" height="580.00" fill="#f1c40f" opacity="0.16"/>
<rect x="612.94" y="70" width="74.71" height="580.00" fill="#3498db" opacity="0.10"/>
<line x1="127.35" y1="562.98" x2="127.35" y2="587.80" stroke="#2ecc71" stroke-width="2"/>
<rect x="105.69" y="577.78" width="43.33" height="3.43" fill="#2ecc71" stroke="#2ecc71" stroke-width="1"/>
<text x="127.35" y="704" font-size="11" fill="#555555" text-anchor="middle">04-01</text>
<text x="127.35" y="720" font-size="11" fill="#555555" text-anchor="middle">09:00</text>
<line x1="202.06" y1="571.25" x2="202.06" y2="650.00" stroke="#2ecc71" stroke-width="2"/>
<rect x="180.39" y="577.52" width="43.33" height="1.20" fill="#2ecc71" stroke="#2ecc71" stroke-width="1"/>
<text x="202.06" y="704" font-size="11" fill="#555555" text-anchor="middle">04-01</text>
<text x="202.06" y="720" font-size="11" fill="#555555" text-anchor="middle">10:00</text>
<line x1="276.76" y1="544.81" x2="276.76" y2="577.20" stroke="#2ecc71" stroke-width="2"/>
<rect x="255.10" y="552.76" width="43.33" height="24.44" fill="#2ecc71" stroke="#2ecc71" stroke-width="1"/>
<text x="276.76" y="704" font-size="11" fill="#555555" text-anchor="middle">04-01</text>
<text x="276.76" y="720" font-size="11" fill="#555555" text-anchor="middle">11:00</text>
<line x1="351.47" y1="552.44" x2="351.47" y2="561.88" stroke="#2ecc71" stroke-width="2"/>
<rect x="329.81" y="553.60" width="43.33" height="1.20" fill="#2ecc71" stroke="#2ecc71" stroke-width="1"/>
<text x="351.47" y="704" font-size="11" fill="#555555" text-anchor="middle">04-01</text>
<text x="351.47" y="720" font-size="11" fill="#555555" text-anchor="middle">12:00</text>
<line x1="426.18" y1="553.41" x2="426.18" y2="582.70" stroke="#e74c3c" stroke-width="2"/>
<rect x="404.51" y="553.41" width="43.33" height="24.44" fill="#e74c3c" stroke="#e74c3c" stroke-width="1"/>
<text x="426.18" y="704" font-size="11" fill="#555555" text-anchor="middle">04-01</text>
<text x="426.18" y="720" font-size="11" fill="#555555" text-anchor="middle">13:00</text>
<line x1="500.88" y1="552.44" x2="500.88" y2="579.14" stroke="#2ecc71" stroke-width="2"/>
<rect x="479.22" y="559.94" width="43.33" height="17.46" fill="#2ecc71" stroke="#2ecc71" stroke-width="1"/>
<text x="500.88" y="704" font-size="11" fill="#555555" text-anchor="middle">04-01</text>
<text x="500.88" y="720" font-size="11" fill="#555555" text-anchor="middle">14:00</text>
<line x1="575.59" y1="558.90" x2="575.59" y2="584.64" stroke="#e74c3c" stroke-width="2"/>
<rect x="553.92" y="559.55" width="43.33" height="19.27" fill="#e74c3c" stroke="#e74c3c" stroke-width="1"/>
<text x="575.59" y="704" font-size="11" fill="#555555" text-anchor="middle">04-01</text>
<text x="575.59" y="720" font-size="11" fill="#555555" text-anchor="middle">15:00</text>
<line x1="650.29" y1="558.45" x2="650.29" y2="580.37" stroke="#2ecc71" stroke-width="2"/>
<rect x="628.63" y="562.98" width="43.33" height="15.84" fill="#2ecc71" stroke="#2ecc71" stroke-width="1"/>
<text x="650.29" y="704" font-size="11" fill="#555555" text-anchor="middle">04-01</text>
<text x="650.29" y="720" font-size="11" fill="#555555" text-anchor="middle">16:00</text>
<line x1="725.00" y1="131.42" x2="725.00" y2="568.15" stroke="#2ecc71" stroke-width="2"/>
<rect x="703.34" y="190.19" width="43.33" height="372.53" fill="#2ecc71" stroke="#2ecc71" stroke-width="1"/>
<text x="725.00" y="704" font-size="11" fill="#555555" text-anchor="middle">04-01</text>
<text x="725.00" y="720" font-size="11" fill="#555555" text-anchor="middle">17:00</text>
<line x1="799.71" y1="70.00" x2="799.71" y2="368.63" stroke="#e74c3c" stroke-width="2"/>
<rect x="778.04" y="185.66" width="43.33" height="154.65" fill="#e74c3c" stroke="#e74c3c" stroke-width="1"/>
<text x="799.71" y="704" font-size="11" fill="#555555" text-anchor="middle">04-01</text>
<text x="799.71" y="720" font-size="11" fill="#555555" text-anchor="middle">18:00</text>
<line x1="874.41" y1="315.10" x2="874.41" y2="395.72" stroke="#e74c3c" stroke-width="2"/>
<rect x="852.75" y="341.28" width="43.33" height="44.48" fill="#e74c3c" stroke="#e74c3c" stroke-width="1"/>
<text x="874.41" y="704" font-size="11" fill="#555555" text-anchor="middle">04-01</text>
<text x="874.41" y="720" font-size="11" fill="#555555" text-anchor="middle">19:00</text>
<line x1="949.12" y1="334.24" x2="949.12" y2="415.83" stroke="#e74c3c" stroke-width="2"/>
<rect x="927.45" y="385.18" width="43.33" height="19.14" fill="#e74c3c" stroke="#e74c3c" stroke-width="1"/>
<text x="949.12" y="704" font-size="11" fill="#555555" text-anchor="middle">04-01</text>
<text x="949.12" y="720" font-size="11" fill="#555555" text-anchor="middle">20:00</text>
<line x1="1023.82" y1="374.00" x2="1023.82" y2="458.11" stroke="#e74c3c" stroke-width="2"/>
<rect x="1002.16" y="404.84" width="43.33" height="39.63" fill="#e74c3c" stroke="#e74c3c" stroke-width="1"/>
<text x="1023.82" y="704" font-size="11" fill="#555555" text-anchor="middle">04-01</text>
<text x="1023.82" y="720" font-size="11" fill="#555555" text-anchor="middle">21:00</text>
<line x1="1098.53" y1="410.14" x2="1098.53" y2="456.95" stroke="#2ecc71" stroke-width="2"/>
<rect x="1076.86" y="417.12" width="43.33" height="27.41" fill="#2ecc71" stroke="#2ecc71" stroke-width="1"/>
<text x="1098.53" y="704" font-size="11" fill="#555555" text-anchor="middle">04-01</text>
<text x="1098.53" y="720" font-size="11" fill="#555555" text-anchor="middle">22:00</text>
<line x1="1173.24" y1="362.04" x2="1173.24" y2="417.12" stroke="#2ecc71" stroke-width="2"/>
<rect x="1151.57" y="390.61" width="43.33" height="25.93" fill="#2ecc71" stroke="#2ecc71" stroke-width="1"/>
<text x="1173.24" y="704" font-size="11" fill="#555555" text-anchor="middle">04-01</text>
<text x="1173.24" y="720" font-size="11" fill="#555555" text-anchor="middle">23:00</text>
<line x1="1247.94" y1="339.47" x2="1247.94" y2="423.84" stroke="#e74c3c" stroke-width="2"/>
<rect x="1226.28" y="390.23" width="43.33" height="26.51" fill="#e74c3c" stroke="#e74c3c" stroke-width="1"/>
<text x="1247.94" y="704" font-size="11" fill="#555555" text-anchor="middle">04-02</text>
<text x="1247.94" y="720" font-size="11" fill="#555555" text-anchor="middle">00:00</text>
<line x1="1322.65" y1="381.43" x2="1322.65" y2="437.49" stroke="#e74c3c" stroke-width="2"/>
<rect x="1300.98" y="416.73" width="43.33" height="2.52" fill="#e74c3c" stroke="#e74c3c" stroke-width="1"/>
<text x="1322.65" y="704" font-size="11" fill="#555555" text-anchor="middle">04-02</text>
<text x="1322.65" y="720" font-size="11" fill="#555555" text-anchor="middle">01:00</text>
<line x1="725.00" y1="131.42" x2="805.00" y2="90.00" stroke="#f1c40f" stroke-width="2"/>
<rect x="805.00" y="42.00" width="220" height="72" rx="8" fill="#fff8dc" stroke="#f1c40f"/>
<text x="815.00" y="66.00" font-size="12" fill="#111111">目标K线 2026-04-01 17:00</text>
<text x="815.00" y="84.00" font-size="12" fill="#111111">振幅 53.07%</text>
<text x="815.00" y="102.00" font-size="12" fill="#111111">倍数 19.54x</text>
<line x1="650.29" y1="558.45" x2="620.29" y2="518.45" stroke="#3498db" stroke-width="2"/>
<rect x="400.29" y="482.45" width="220" height="58" rx="8" fill="#eef6ff" stroke="#3498db"/>
<text x="410.29" y="504.45" font-size="12" fill="#111111">前一根涨幅 1.96%</text>
<text x="410.29" y="522.45" font-size="12" fill="#111111">前一根振幅 2.72%</text>
</svg>