<svg xmlns="http://www.w3.org/2000/svg" width="1400" height="760" viewBox="0 0 1400 760">
<rect width="100%" height="100%" fill="#fcfcfc"/>
<text x="90" y="36" font-size="26" font-weight="700" fill="#111111">RARE_USDT 1H - 10倍命中</text>
<line x1="90" y1="70.00" x2="1360" y2="70.00" stroke="#d9d9d9" stroke-dasharray="4 4" stroke-width="1"/>
<text x="12" y="74.00" font-size="12" fill="#555555">0.025500</text>
<line x1="90" y1="186.00" x2="1360" y2="186.00" stroke="#d9d9d9" stroke-dasharray="4 4" stroke-width="1"/>
<text x="12" y="190.00" font-size="12" fill="#555555">0.023694</text>
<line x1="90" y1="302.00" x2="1360" y2="302.00" stroke="#d9d9d9" stroke-dasharray="4 4" stroke-width="1"/>
<text x="12" y="306.00" font-size="12" fill="#555555">0.021888</text>
<line x1="90" y1="418.00" x2="1360" y2="418.00" stroke="#d9d9d9" stroke-dasharray="4 4" stroke-width="1"/>
<text x="12" y="422.00" font-size="12" fill="#555555">0.020082</text>
<line x1="90" y1="534.00" x2="1360" y2="534.00" stroke="#d9d9d9" stroke-dasharray="4 4" stroke-width="1"/>
<text x="12" y="538.00" font-size="12" fill="#555555">0.018276</text>
<line x1="90" y1="650.00" x2="1360" y2="650.00" stroke="#d9d9d9" stroke-dasharray="4 4" stroke-width="1"/>
<text x="12" y="654.00" font-size="12" fill="#555555">0.016470</text>
<rect x="687.65" y="70" width="74.71" height="580.00" fill="#f1c40f" opacity="0.16"/>
<rect x="612.94" y="70" width="74.71" height="580.00" fill="#3498db" opacity="0.10"/>
<line x1="127.35" y1="632.02" x2="127.35" y2="650.00" stroke="#2ecc71" stroke-width="2"/>
<rect x="105.69" y="632.02" width="43.33" height="16.06" fill="#2ecc71" stroke="#2ecc71" stroke-width="1"/>
<text x="127.35" y="704" font-size="11" fill="#555555" text-anchor="middle">04-17</text>
<text x="127.35" y="720" font-size="11" fill="#555555" text-anchor="middle">21:00</text>
<line x1="202.06" y1="630.73" x2="202.06" y2="637.80" stroke="#2ecc71" stroke-width="2"/>
<rect x="180.39" y="631.37" width="43.33" height="1.20" fill="#2ecc71" stroke="#2ecc71" stroke-width="1"/>
<text x="202.06" y="704" font-size="11" fill="#555555" text-anchor="middle">04-17</text>
<text x="202.06" y="720" font-size="11" fill="#555555" text-anchor="middle">22:00</text>
<line x1="276.76" y1="626.23" x2="276.76" y2="642.93" stroke="#e74c3c" stroke-width="2"/>
<rect x="255.10" y="636.51" width="43.33" height="5.14" fill="#e74c3c" stroke="#e74c3c" stroke-width="1"/>
<text x="276.76" y="704" font-size="11" fill="#555555" text-anchor="middle">04-17</text>
<text x="276.76" y="720" font-size="11" fill="#555555" text-anchor="middle">23:00</text>
<line x1="351.47" y1="625.59" x2="351.47" y2="639.08" stroke="#2ecc71" stroke-width="2"/>
<rect x="329.81" y="632.66" width="43.33" height="6.42" fill="#2ecc71" stroke="#2ecc71" stroke-width="1"/>
<text x="351.47" y="704" font-size="11" fill="#555555" text-anchor="middle">04-18</text>
<text x="351.47" y="720" font-size="11" fill="#555555" text-anchor="middle">00:00</text>
<line x1="426.18" y1="626.23" x2="426.18" y2="648.72" stroke="#e74c3c" stroke-width="2"/>
<rect x="404.51" y="633.94" width="43.33" height="8.35" fill="#e74c3c" stroke="#e74c3c" stroke-width="1"/>
<text x="426.18" y="704" font-size="11" fill="#555555" text-anchor="middle">04-18</text>
<text x="426.18" y="720" font-size="11" fill="#555555" text-anchor="middle">01:00</text>
<line x1="500.88" y1="627.52" x2="500.88" y2="644.22" stroke="#2ecc71" stroke-width="2"/>
<rect x="479.22" y="641.65" width="43.33" height="1.20" fill="#2ecc71" stroke="#2ecc71" stroke-width="1"/>
<text x="500.88" y="704" font-size="11" fill="#555555" text-anchor="middle">04-18</text>
<text x="500.88" y="720" font-size="11" fill="#555555" text-anchor="middle">02:00</text>
<line x1="575.59" y1="625.59" x2="575.59" y2="641.65" stroke="#2ecc71" stroke-width="2"/>
<rect x="553.92" y="635.23" width="43.33" height="6.42" fill="#2ecc71" stroke="#2ecc71" stroke-width="1"/>
<text x="575.59" y="704" font-size="11" fill="#555555" text-anchor="middle">04-18</text>
<text x="575.59" y="720" font-size="11" fill="#555555" text-anchor="middle">03:00</text>
<line x1="650.29" y1="605.68" x2="650.29" y2="635.87" stroke="#2ecc71" stroke-width="2"/>
<rect x="628.63" y="612.75" width="43.33" height="17.34" fill="#2ecc71" stroke="#2ecc71" stroke-width="1"/>
<text x="650.29" y="704" font-size="11" fill="#555555" text-anchor="middle">04-18</text>
<text x="650.29" y="720" font-size="11" fill="#555555" text-anchor="middle">04:00</text>
<line x1="725.00" y1="151.57" x2="725.00" y2="612.10" stroke="#2ecc71" stroke-width="2"/>
<rect x="703.34" y="183.69" width="43.33" height="428.42" fill="#2ecc71" stroke="#2ecc71" stroke-width="1"/>
<text x="725.00" y="704" font-size="11" fill="#555555" text-anchor="middle">04-18</text>
<text x="725.00" y="720" font-size="11" fill="#555555" text-anchor="middle">05:00</text>
<line x1="799.71" y1="70.00" x2="799.71" y2="353.26" stroke="#e74c3c" stroke-width="2"/>
<rect x="778.04" y="184.33" width="43.33" height="98.91" fill="#e74c3c" stroke="#e74c3c" stroke-width="1"/>
<text x="799.71" y="704" font-size="11" fill="#555555" text-anchor="middle">04-18</text>
<text x="799.71" y="720" font-size="11" fill="#555555" text-anchor="middle">06:00</text>
<line x1="874.41" y1="96.98" x2="874.41" y2="320.50" stroke="#2ecc71" stroke-width="2"/>
<rect x="852.75" y="160.56" width="43.33" height="123.96" fill="#2ecc71" stroke="#2ecc71" stroke-width="1"/>
<text x="874.41" y="704" font-size="11" fill="#555555" text-anchor="middle">04-18</text>
<text x="874.41" y="720" font-size="11" fill="#555555" text-anchor="middle">07:00</text>
<line x1="949.12" y1="148.36" x2="949.12" y2="385.37" stroke="#e74c3c" stroke-width="2"/>
<rect x="927.45" y="166.35" width="43.33" height="179.84" fill="#e74c3c" stroke="#e74c3c" stroke-width="1"/>
<text x="949.12" y="704" font-size="11" fill="#555555" text-anchor="middle">04-18</text>
<text x="949.12" y="720" font-size="11" fill="#555555" text-anchor="middle">08:00</text>
<line x1="1023.82" y1="316.00" x2="1023.82" y2="430.97" stroke="#e74c3c" stroke-width="2"/>
<rect x="1002.16" y="345.55" width="43.33" height="60.38" fill="#e74c3c" stroke="#e74c3c" stroke-width="1"/>
<text x="1023.82" y="704" font-size="11" fill="#555555" text-anchor="middle">04-18</text>
<text x="1023.82" y="720" font-size="11" fill="#555555" text-anchor="middle">09:00</text>
<line x1="1098.53" y1="369.31" x2="1098.53" y2="434.19" stroke="#e74c3c" stroke-width="2"/>
<rect x="1076.86" y="405.92" width="43.33" height="25.69" fill="#e74c3c" stroke="#e74c3c" stroke-width="1"/>
<text x="1098.53" y="704" font-size="11" fill="#555555" text-anchor="middle">04-18</text>
<text x="1098.53" y="720" font-size="11" fill="#555555" text-anchor="middle">10:00</text>
<line x1="1173.24" y1="358.39" x2="1173.24" y2="450.24" stroke="#2ecc71" stroke-width="2"/>
<rect x="1151.57" y="400.14" width="43.33" height="32.12" fill="#2ecc71" stroke="#2ecc71" stroke-width="1"/>
<text x="1173.24" y="704" font-size="11" fill="#555555" text-anchor="middle">04-18</text>
<text x="1173.24" y="720" font-size="11" fill="#555555" text-anchor="middle">11:00</text>
<line x1="1247.94" y1="320.50" x2="1247.94" y2="470.80" stroke="#e74c3c" stroke-width="2"/>
<rect x="1226.28" y="398.86" width="43.33" height="57.81" fill="#e74c3c" stroke="#e74c3c" stroke-width="1"/>
<text x="1247.94" y="704" font-size="11" fill="#555555" text-anchor="middle">04-18</text>
<text x="1247.94" y="720" font-size="11" fill="#555555" text-anchor="middle">12:00</text>
<line x1="1322.65" y1="434.19" x2="1322.65" y2="500.99" stroke="#e74c3c" stroke-width="2"/>
<rect x="1300.98" y="456.02" width="43.33" height="37.90" fill="#e74c3c" stroke="#e74c3c" stroke-width="1"/>
<text x="1322.65" y="704" font-size="11" fill="#555555" text-anchor="middle">04-18</text>
<text x="1322.65" y="720" font-size="11" fill="#555555" text-anchor="middle">13:00</text>
<line x1="725.00" y1="151.57" x2="805.00" y2="90.00" stroke="#f1c40f" stroke-width="2"/>
<rect x="805.00" y="42.00" width="220" height="72" rx="8" fill="#fff8dc" stroke="#f1c40f"/>
<text x="815.00" y="66.00" font-size="12" fill="#111111">目标K线 2026-04-18 05:00</text>
<text x="815.00" y="84.00" font-size="12" fill="#111111">振幅 42.03%</text>
<text x="815.00" y="102.00" font-size="12" fill="#111111">倍数 15.00x</text>
<line x1="650.29" y1="605.68" x2="620.29" y2="565.68" stroke="#3498db" stroke-width="2"/>
<rect x="400.29" y="529.68" width="220" height="58" rx="8" fill="#eef6ff" stroke="#3498db"/>
<text x="410.29" y="551.68" font-size="12" fill="#111111">前一根涨幅 1.61%</text>
<text x="410.29" y="569.68" font-size="12" fill="#111111">前一根振幅 2.80%</text>
</svg>