<svg xmlns="http://www.w3.org/2000/svg" width="1400" height="760" viewBox="0 0 1400 760">
<rect width="100%" height="100%" fill="#fcfcfc"/>
<text x="90" y="36" font-size="26" font-weight="700" fill="#111111">RDNT_USDT 1H - 10倍命中</text>
<line x1="90" y1="70.00" x2="1360" y2="70.00" stroke="#d9d9d9" stroke-dasharray="4 4" stroke-width="1"/>
<text x="12" y="74.00" font-size="12" fill="#555555">0.014510</text>
<line x1="90" y1="186.00" x2="1360" y2="186.00" stroke="#d9d9d9" stroke-dasharray="4 4" stroke-width="1"/>
<text x="12" y="190.00" font-size="12" fill="#555555">0.013656</text>
<line x1="90" y1="302.00" x2="1360" y2="302.00" stroke="#d9d9d9" stroke-dasharray="4 4" stroke-width="1"/>
<text x="12" y="306.00" font-size="12" fill="#555555">0.012802</text>
<line x1="90" y1="418.00" x2="1360" y2="418.00" stroke="#d9d9d9" stroke-dasharray="4 4" stroke-width="1"/>
<text x="12" y="422.00" font-size="12" fill="#555555">0.011948</text>
<line x1="90" y1="534.00" x2="1360" y2="534.00" stroke="#d9d9d9" stroke-dasharray="4 4" stroke-width="1"/>
<text x="12" y="538.00" font-size="12" fill="#555555">0.011094</text>
<line x1="90" y1="650.00" x2="1360" y2="650.00" stroke="#d9d9d9" stroke-dasharray="4 4" stroke-width="1"/>
<text x="12" y="654.00" font-size="12" fill="#555555">0.010240</text>
<rect x="687.65" y="70" width="74.71" height="580.00" fill="#f1c40f" opacity="0.16"/>
<rect x="612.94" y="70" width="74.71" height="580.00" fill="#3498db" opacity="0.10"/>
<line x1="127.35" y1="637.78" x2="127.35" y2="650.00" stroke="#2ecc71" stroke-width="2"/>
<rect x="105.69" y="639.13" width="43.33" height="9.51" fill="#2ecc71" stroke="#2ecc71" stroke-width="1"/>
<text x="127.35" y="704" font-size="11" fill="#555555" text-anchor="middle">12-08</text>
<text x="127.35" y="720" font-size="11" fill="#555555" text-anchor="middle">11:00</text>
<line x1="202.06" y1="622.83" x2="202.06" y2="635.06" stroke="#2ecc71" stroke-width="2"/>
<rect x="180.39" y="626.91" width="43.33" height="8.15" fill="#2ecc71" stroke="#2ecc71" stroke-width="1"/>
<text x="202.06" y="704" font-size="11" fill="#555555" text-anchor="middle">12-08</text>
<text x="202.06" y="720" font-size="11" fill="#555555" text-anchor="middle">12:00</text>
<line x1="276.76" y1="624.19" x2="276.76" y2="625.55" stroke="#e74c3c" stroke-width="2"/>
<rect x="255.10" y="624.19" width="43.33" height="1.36" fill="#e74c3c" stroke="#e74c3c" stroke-width="1"/>
<text x="276.76" y="704" font-size="11" fill="#555555" text-anchor="middle">12-08</text>
<text x="276.76" y="720" font-size="11" fill="#555555" text-anchor="middle">13:00</text>
<line x1="351.47" y1="610.61" x2="351.47" y2="625.55" stroke="#2ecc71" stroke-width="2"/>
<rect x="329.81" y="610.61" width="43.33" height="14.94" fill="#2ecc71" stroke="#2ecc71" stroke-width="1"/>
<text x="351.47" y="704" font-size="11" fill="#555555" text-anchor="middle">12-08</text>
<text x="351.47" y="720" font-size="11" fill="#555555" text-anchor="middle">14:00</text>
<line x1="426.18" y1="591.59" x2="426.18" y2="613.33" stroke="#2ecc71" stroke-width="2"/>
<rect x="404.51" y="609.25" width="43.33" height="2.72" fill="#2ecc71" stroke="#2ecc71" stroke-width="1"/>
<text x="426.18" y="704" font-size="11" fill="#555555" text-anchor="middle">12-08</text>
<text x="426.18" y="720" font-size="11" fill="#555555" text-anchor="middle">15:00</text>
<line x1="500.88" y1="611.97" x2="500.88" y2="618.76" stroke="#2ecc71" stroke-width="2"/>
<rect x="479.22" y="614.68" width="43.33" height="1.20" fill="#2ecc71" stroke="#2ecc71" stroke-width="1"/>
<text x="500.88" y="704" font-size="11" fill="#555555" text-anchor="middle">12-08</text>
<text x="500.88" y="720" font-size="11" fill="#555555" text-anchor="middle">16:00</text>
<line x1="575.59" y1="584.80" x2="575.59" y2="613.33" stroke="#2ecc71" stroke-width="2"/>
<rect x="553.92" y="586.16" width="43.33" height="27.17" fill="#2ecc71" stroke="#2ecc71" stroke-width="1"/>
<text x="575.59" y="704" font-size="11" fill="#555555" text-anchor="middle">12-08</text>
<text x="575.59" y="720" font-size="11" fill="#555555" text-anchor="middle">17:00</text>
<line x1="650.29" y1="569.86" x2="650.29" y2="590.23" stroke="#2ecc71" stroke-width="2"/>
<rect x="628.63" y="569.86" width="43.33" height="20.37" fill="#2ecc71" stroke="#2ecc71" stroke-width="1"/>
<text x="650.29" y="704" font-size="11" fill="#555555" text-anchor="middle">12-08</text>
<text x="650.29" y="720" font-size="11" fill="#555555" text-anchor="middle">18:00</text>
<line x1="725.00" y1="211.26" x2="725.00" y2="571.22" stroke="#2ecc71" stroke-width="2"/>
<rect x="703.34" y="220.77" width="43.33" height="346.37" fill="#2ecc71" stroke="#2ecc71" stroke-width="1"/>
<text x="725.00" y="704" font-size="11" fill="#555555" text-anchor="middle">12-08</text>
<text x="725.00" y="720" font-size="11" fill="#555555" text-anchor="middle">19:00</text>
<line x1="799.71" y1="89.02" x2="799.71" y2="344.38" stroke="#2ecc71" stroke-width="2"/>
<rect x="778.04" y="211.26" width="43.33" height="19.02" fill="#2ecc71" stroke="#2ecc71" stroke-width="1"/>
<text x="799.71" y="704" font-size="11" fill="#555555" text-anchor="middle">12-08</text>
<text x="799.71" y="720" font-size="11" fill="#555555" text-anchor="middle">20:00</text>
<line x1="874.41" y1="71.36" x2="874.41" y2="250.66" stroke="#2ecc71" stroke-width="2"/>
<rect x="852.75" y="140.63" width="43.33" height="71.99" fill="#2ecc71" stroke="#2ecc71" stroke-width="1"/>
<text x="874.41" y="704" font-size="11" fill="#555555" text-anchor="middle">12-08</text>
<text x="874.41" y="720" font-size="11" fill="#555555" text-anchor="middle">21:00</text>
<line x1="949.12" y1="70.00" x2="949.12" y2="275.11" stroke="#e74c3c" stroke-width="2"/>
<rect x="927.45" y="140.63" width="43.33" height="116.81" fill="#e74c3c" stroke="#e74c3c" stroke-width="1"/>
<text x="949.12" y="704" font-size="11" fill="#555555" text-anchor="middle">12-08</text>
<text x="949.12" y="720" font-size="11" fill="#555555" text-anchor="middle">22:00</text>
<line x1="1023.82" y1="161.01" x2="1023.82" y2="290.05" stroke="#2ecc71" stroke-width="2"/>
<rect x="1002.16" y="180.02" width="43.33" height="78.78" fill="#2ecc71" stroke="#2ecc71" stroke-width="1"/>
<text x="1023.82" y="704" font-size="11" fill="#555555" text-anchor="middle">12-08</text>
<text x="1023.82" y="720" font-size="11" fill="#555555" text-anchor="middle">23:00</text>
<line x1="1098.53" y1="127.05" x2="1098.53" y2="269.67" stroke="#e74c3c" stroke-width="2"/>
<rect x="1076.86" y="182.74" width="43.33" height="82.86" fill="#e74c3c" stroke="#e74c3c" stroke-width="1"/>
<text x="1098.53" y="704" font-size="11" fill="#555555" text-anchor="middle">12-09</text>
<text x="1098.53" y="720" font-size="11" fill="#555555" text-anchor="middle">00:00</text>
<line x1="1173.24" y1="266.96" x2="1173.24" y2="379.70" stroke="#e74c3c" stroke-width="2"/>
<rect x="1151.57" y="266.96" width="43.33" height="93.72" fill="#e74c3c" stroke="#e74c3c" stroke-width="1"/>
<text x="1173.24" y="704" font-size="11" fill="#555555" text-anchor="middle">12-09</text>
<text x="1173.24" y="720" font-size="11" fill="#555555" text-anchor="middle">01:00</text>
<line x1="1247.94" y1="284.61" x2="1247.94" y2="375.62" stroke="#2ecc71" stroke-width="2"/>
<rect x="1226.28" y="298.20" width="43.33" height="61.12" fill="#2ecc71" stroke="#2ecc71" stroke-width="1"/>
<text x="1247.94" y="704" font-size="11" fill="#555555" text-anchor="middle">12-09</text>
<text x="1247.94" y="720" font-size="11" fill="#555555" text-anchor="middle">02:00</text>
<line x1="1322.65" y1="300.91" x2="1322.65" y2="360.68" stroke="#e74c3c" stroke-width="2"/>
<rect x="1300.98" y="300.91" width="43.33" height="40.75" fill="#e74c3c" stroke="#e74c3c" stroke-width="1"/>
<text x="1322.65" y="704" font-size="11" fill="#555555" text-anchor="middle">12-09</text>
<text x="1322.65" y="720" font-size="11" fill="#555555" text-anchor="middle">03:00</text>
<line x1="725.00" y1="211.26" x2="805.00" y2="141.26" stroke="#f1c40f" stroke-width="2"/>
<rect x="805.00" y="93.26" width="220" height="72" rx="8" fill="#fff8dc" stroke="#f1c40f"/>
<text x="815.00" y="117.26" font-size="12" fill="#111111">目标K线 2025-12-08 19:00</text>
<text x="815.00" y="135.26" font-size="12" fill="#111111">振幅 24.42%</text>
<text x="815.00" y="153.26" font-size="12" fill="#111111">倍数 17.39x</text>
<line x1="650.29" y1="569.86" x2="620.29" y2="529.86" stroke="#3498db" stroke-width="2"/>
<rect x="400.29" y="493.86" width="220" height="58" rx="8" fill="#eef6ff" stroke="#3498db"/>
<text x="410.29" y="515.86" font-size="12" fill="#111111">前一根涨幅 1.40%</text>
<text x="410.29" y="533.86" font-size="12" fill="#111111">前一根振幅 1.40%</text>
</svg>