<svg xmlns="http://www.w3.org/2000/svg" width="1400" height="760" viewBox="0 0 1400 760">
<rect width="100%" height="100%" fill="#fcfcfc"/>
<text x="90" y="36" font-size="26" font-weight="700" fill="#111111">RED_USDT 1H - 10倍命中</text>
<line x1="90" y1="70.00" x2="1360" y2="70.00" stroke="#d9d9d9" stroke-dasharray="4 4" stroke-width="1"/>
<text x="12" y="74.00" font-size="12" fill="#555555">0.855900</text>
<line x1="90" y1="186.00" x2="1360" y2="186.00" stroke="#d9d9d9" stroke-dasharray="4 4" stroke-width="1"/>
<text x="12" y="190.00" font-size="12" fill="#555555">0.765740</text>
<line x1="90" y1="302.00" x2="1360" y2="302.00" stroke="#d9d9d9" stroke-dasharray="4 4" stroke-width="1"/>
<text x="12" y="306.00" font-size="12" fill="#555555">0.675580</text>
<line x1="90" y1="418.00" x2="1360" y2="418.00" stroke="#d9d9d9" stroke-dasharray="4 4" stroke-width="1"/>
<text x="12" y="422.00" font-size="12" fill="#555555">0.585420</text>
<line x1="90" y1="534.00" x2="1360" y2="534.00" stroke="#d9d9d9" stroke-dasharray="4 4" stroke-width="1"/>
<text x="12" y="538.00" font-size="12" fill="#555555">0.495260</text>
<line x1="90" y1="650.00" x2="1360" y2="650.00" stroke="#d9d9d9" stroke-dasharray="4 4" stroke-width="1"/>
<text x="12" y="654.00" font-size="12" fill="#555555">0.405100</text>
<rect x="687.65" y="70" width="74.71" height="580.00" fill="#f1c40f" opacity="0.16"/>
<rect x="612.94" y="70" width="74.71" height="580.00" fill="#3498db" opacity="0.10"/>
<line x1="127.35" y1="643.82" x2="127.35" y2="650.00" stroke="#e74c3c" stroke-width="2"/>
<rect x="105.69" y="644.85" width="43.33" height="4.37" fill="#e74c3c" stroke="#e74c3c" stroke-width="1"/>
<text x="127.35" y="704" font-size="11" fill="#555555" text-anchor="middle">09-05</text>
<text x="127.35" y="720" font-size="11" fill="#555555" text-anchor="middle">07:00</text>
<line x1="202.06" y1="635.46" x2="202.06" y2="649.49" stroke="#2ecc71" stroke-width="2"/>
<rect x="180.39" y="641.89" width="43.33" height="7.59" fill="#2ecc71" stroke="#2ecc71" stroke-width="1"/>
<text x="202.06" y="704" font-size="11" fill="#555555" text-anchor="middle">09-05</text>
<text x="202.06" y="720" font-size="11" fill="#555555" text-anchor="middle">08:00</text>
<line x1="276.76" y1="637.78" x2="276.76" y2="644.21" stroke="#e74c3c" stroke-width="2"/>
<rect x="255.10" y="642.15" width="43.33" height="1.20" fill="#e74c3c" stroke="#e74c3c" stroke-width="1"/>
<text x="276.76" y="704" font-size="11" fill="#555555" text-anchor="middle">09-05</text>
<text x="276.76" y="720" font-size="11" fill="#555555" text-anchor="middle">09:00</text>
<line x1="351.47" y1="611.66" x2="351.47" y2="641.77" stroke="#2ecc71" stroke-width="2"/>
<rect x="329.81" y="620.79" width="43.33" height="20.84" fill="#2ecc71" stroke="#2ecc71" stroke-width="1"/>
<text x="351.47" y="704" font-size="11" fill="#555555" text-anchor="middle">09-05</text>
<text x="351.47" y="720" font-size="11" fill="#555555" text-anchor="middle">10:00</text>
<line x1="426.18" y1="602.27" x2="426.18" y2="625.04" stroke="#2ecc71" stroke-width="2"/>
<rect x="404.51" y="608.06" width="43.33" height="15.44" fill="#2ecc71" stroke="#2ecc71" stroke-width="1"/>
<text x="426.18" y="704" font-size="11" fill="#555555" text-anchor="middle">09-05</text>
<text x="426.18" y="720" font-size="11" fill="#555555" text-anchor="middle">11:00</text>
<line x1="500.88" y1="594.03" x2="500.88" y2="612.95" stroke="#e74c3c" stroke-width="2"/>
<rect x="479.22" y="608.57" width="43.33" height="1.80" fill="#e74c3c" stroke="#e74c3c" stroke-width="1"/>
<text x="500.88" y="704" font-size="11" fill="#555555" text-anchor="middle">09-05</text>
<text x="500.88" y="720" font-size="11" fill="#555555" text-anchor="middle">12:00</text>
<line x1="575.59" y1="572.80" x2="575.59" y2="612.17" stroke="#2ecc71" stroke-width="2"/>
<rect x="553.92" y="579.88" width="43.33" height="30.88" fill="#2ecc71" stroke="#2ecc71" stroke-width="1"/>
<text x="575.59" y="704" font-size="11" fill="#555555" text-anchor="middle">09-05</text>
<text x="575.59" y="720" font-size="11" fill="#555555" text-anchor="middle">13:00</text>
<line x1="650.29" y1="547.33" x2="650.29" y2="584.51" stroke="#2ecc71" stroke-width="2"/>
<rect x="628.63" y="551.45" width="43.33" height="27.02" fill="#2ecc71" stroke="#2ecc71" stroke-width="1"/>
<text x="650.29" y="704" font-size="11" fill="#555555" text-anchor="middle">09-05</text>
<text x="650.29" y="720" font-size="11" fill="#555555" text-anchor="middle">14:00</text>
<line x1="725.00" y1="70.00" x2="725.00" y2="568.43" stroke="#2ecc71" stroke-width="2"/>
<rect x="703.34" y="293.10" width="43.33" height="257.83" fill="#2ecc71" stroke="#2ecc71" stroke-width="1"/>
<text x="725.00" y="704" font-size="11" fill="#555555" text-anchor="middle">09-05</text>
<text x="725.00" y="720" font-size="11" fill="#555555" text-anchor="middle">15:00</text>
<line x1="799.71" y1="231.98" x2="799.71" y2="378.14" stroke="#e74c3c" stroke-width="2"/>
<rect x="778.04" y="294.77" width="43.33" height="77.58" fill="#e74c3c" stroke="#e74c3c" stroke-width="1"/>
<text x="799.71" y="704" font-size="11" fill="#555555" text-anchor="middle">09-05</text>
<text x="799.71" y="720" font-size="11" fill="#555555" text-anchor="middle">16:00</text>
<line x1="874.41" y1="333.37" x2="874.41" y2="407.73" stroke="#e74c3c" stroke-width="2"/>
<rect x="852.75" y="371.84" width="43.33" height="4.50" fill="#e74c3c" stroke="#e74c3c" stroke-width="1"/>
<text x="874.41" y="704" font-size="11" fill="#555555" text-anchor="middle">09-05</text>
<text x="874.41" y="720" font-size="11" fill="#555555" text-anchor="middle">17:00</text>
<line x1="949.12" y1="272.38" x2="949.12" y2="378.14" stroke="#2ecc71" stroke-width="2"/>
<rect x="927.45" y="272.64" width="43.33" height="104.73" fill="#2ecc71" stroke="#2ecc71" stroke-width="1"/>
<text x="949.12" y="704" font-size="11" fill="#555555" text-anchor="middle">09-05</text>
<text x="949.12" y="720" font-size="11" fill="#555555" text-anchor="middle">18:00</text>
<line x1="1023.82" y1="257.84" x2="1023.82" y2="294.13" stroke="#e74c3c" stroke-width="2"/>
<rect x="1002.16" y="271.87" width="43.33" height="10.55" fill="#e74c3c" stroke="#e74c3c" stroke-width="1"/>
<text x="1023.82" y="704" font-size="11" fill="#555555" text-anchor="middle">09-05</text>
<text x="1023.82" y="720" font-size="11" fill="#555555" text-anchor="middle">19:00</text>
<line x1="1098.53" y1="262.60" x2="1098.53" y2="327.19" stroke="#2ecc71" stroke-width="2"/>
<rect x="1076.86" y="266.21" width="43.33" height="16.34" fill="#2ecc71" stroke="#2ecc71" stroke-width="1"/>
<text x="1098.53" y="704" font-size="11" fill="#555555" text-anchor="middle">09-05</text>
<text x="1098.53" y="720" font-size="11" fill="#555555" text-anchor="middle">20:00</text>
<line x1="1173.24" y1="251.28" x2="1173.24" y2="288.34" stroke="#e74c3c" stroke-width="2"/>
<rect x="1151.57" y="266.72" width="43.33" height="10.04" fill="#e74c3c" stroke="#e74c3c" stroke-width="1"/>
<text x="1173.24" y="704" font-size="11" fill="#555555" text-anchor="middle">09-05</text>
<text x="1173.24" y="720" font-size="11" fill="#555555" text-anchor="middle">21:00</text>
<line x1="1247.94" y1="277.40" x2="1247.94" y2="314.33" stroke="#e74c3c" stroke-width="2"/>
<rect x="1226.28" y="277.40" width="43.33" height="20.46" fill="#e74c3c" stroke="#e74c3c" stroke-width="1"/>
<text x="1247.94" y="704" font-size="11" fill="#555555" text-anchor="middle">09-05</text>
<text x="1247.94" y="720" font-size="11" fill="#555555" text-anchor="middle">22:00</text>
<line x1="1322.65" y1="271.48" x2="1322.65" y2="347.52" stroke="#e74c3c" stroke-width="2"/>
<rect x="1300.98" y="297.86" width="43.33" height="26.25" fill="#e74c3c" stroke="#e74c3c" stroke-width="1"/>
<text x="1322.65" y="704" font-size="11" fill="#555555" text-anchor="middle">09-05</text>
<text x="1322.65" y="720" font-size="11" fill="#555555" text-anchor="middle">23:00</text>
<line x1="725.00" y1="70.00" x2="805.00" y2="90.00" stroke="#f1c40f" stroke-width="2"/>
<rect x="805.00" y="42.00" width="220" height="72" rx="8" fill="#fff8dc" stroke="#f1c40f"/>
<text x="815.00" y="66.00" font-size="12" fill="#111111">目标K线 2025-09-05 15:00</text>
<text x="815.00" y="84.00" font-size="12" fill="#111111">振幅 80.36%</text>
<text x="815.00" y="102.00" font-size="12" fill="#111111">倍数 12.81x</text>
<line x1="650.29" y1="547.33" x2="620.29" y2="507.33" stroke="#3498db" stroke-width="2"/>
<rect x="400.29" y="471.33" width="220" height="58" rx="8" fill="#eef6ff" stroke="#3498db"/>
<text x="410.29" y="493.33" font-size="12" fill="#111111">前一根涨幅 4.56%</text>
<text x="410.29" y="511.33" font-size="12" fill="#111111">前一根振幅 6.27%</text>
</svg>