<svg xmlns="http://www.w3.org/2000/svg" width="1400" height="760" viewBox="0 0 1400 760">
<rect width="100%" height="100%" fill="#fcfcfc"/>
<text x="90" y="36" font-size="26" font-weight="700" fill="#111111">RLC_USDT 1H - 10倍命中</text>
<line x1="90" y1="70.00" x2="1360" y2="70.00" stroke="#d9d9d9" stroke-dasharray="4 4" stroke-width="1"/>
<text x="12" y="74.00" font-size="12" fill="#555555">1.741700</text>
<line x1="90" y1="186.00" x2="1360" y2="186.00" stroke="#d9d9d9" stroke-dasharray="4 4" stroke-width="1"/>
<text x="12" y="190.00" font-size="12" fill="#555555">1.602740</text>
<line x1="90" y1="302.00" x2="1360" y2="302.00" stroke="#d9d9d9" stroke-dasharray="4 4" stroke-width="1"/>
<text x="12" y="306.00" font-size="12" fill="#555555">1.463780</text>
<line x1="90" y1="418.00" x2="1360" y2="418.00" stroke="#d9d9d9" stroke-dasharray="4 4" stroke-width="1"/>
<text x="12" y="422.00" font-size="12" fill="#555555">1.324820</text>
<line x1="90" y1="534.00" x2="1360" y2="534.00" stroke="#d9d9d9" stroke-dasharray="4 4" stroke-width="1"/>
<text x="12" y="538.00" font-size="12" fill="#555555">1.185860</text>
<line x1="90" y1="650.00" x2="1360" y2="650.00" stroke="#d9d9d9" stroke-dasharray="4 4" stroke-width="1"/>
<text x="12" y="654.00" font-size="12" fill="#555555">1.046900</text>
<rect x="687.65" y="70" width="74.71" height="580.00" fill="#f1c40f" opacity="0.16"/>
<rect x="612.94" y="70" width="74.71" height="580.00" fill="#3498db" opacity="0.10"/>
<line x1="127.35" y1="629.97" x2="127.35" y2="650.00" stroke="#2ecc71" stroke-width="2"/>
<rect x="105.69" y="634.64" width="43.33" height="14.53" fill="#2ecc71" stroke="#2ecc71" stroke-width="1"/>
<text x="127.35" y="704" font-size="11" fill="#555555" text-anchor="middle">08-27</text>
<text x="127.35" y="720" font-size="11" fill="#555555" text-anchor="middle">22:00</text>
<line x1="202.06" y1="591.90" x2="202.06" y2="634.81" stroke="#2ecc71" stroke-width="2"/>
<rect x="180.39" y="610.60" width="43.33" height="23.87" fill="#2ecc71" stroke="#2ecc71" stroke-width="1"/>
<text x="202.06" y="704" font-size="11" fill="#555555" text-anchor="middle">08-27</text>
<text x="202.06" y="720" font-size="11" fill="#555555" text-anchor="middle">23:00</text>
<line x1="276.76" y1="582.88" x2="276.76" y2="620.70" stroke="#e74c3c" stroke-width="2"/>
<rect x="255.10" y="610.01" width="43.33" height="1.75" fill="#e74c3c" stroke="#e74c3c" stroke-width="1"/>
<text x="276.76" y="704" font-size="11" fill="#555555" text-anchor="middle">08-28</text>
<text x="276.76" y="720" font-size="11" fill="#555555" text-anchor="middle">00:00</text>
<line x1="351.47" y1="612.52" x2="351.47" y2="636.56" stroke="#e74c3c" stroke-width="2"/>
<rect x="329.81" y="612.52" width="43.33" height="5.43" fill="#e74c3c" stroke="#e74c3c" stroke-width="1"/>
<text x="351.47" y="704" font-size="11" fill="#555555" text-anchor="middle">08-28</text>
<text x="351.47" y="720" font-size="11" fill="#555555" text-anchor="middle">01:00</text>
<line x1="426.18" y1="610.52" x2="426.18" y2="628.96" stroke="#e74c3c" stroke-width="2"/>
<rect x="404.51" y="619.03" width="43.33" height="4.67" fill="#e74c3c" stroke="#e74c3c" stroke-width="1"/>
<text x="426.18" y="704" font-size="11" fill="#555555" text-anchor="middle">08-28</text>
<text x="426.18" y="720" font-size="11" fill="#555555" text-anchor="middle">02:00</text>
<line x1="500.88" y1="607.09" x2="500.88" y2="627.88" stroke="#2ecc71" stroke-width="2"/>
<rect x="479.22" y="607.84" width="43.33" height="18.20" fill="#2ecc71" stroke="#2ecc71" stroke-width="1"/>
<text x="500.88" y="704" font-size="11" fill="#555555" text-anchor="middle">08-28</text>
<text x="500.88" y="720" font-size="11" fill="#555555" text-anchor="middle">03:00</text>
<line x1="575.59" y1="596.99" x2="575.59" y2="626.21" stroke="#2ecc71" stroke-width="2"/>
<rect x="553.92" y="607.76" width="43.33" height="1.75" fill="#2ecc71" stroke="#2ecc71" stroke-width="1"/>
<text x="575.59" y="704" font-size="11" fill="#555555" text-anchor="middle">08-28</text>
<text x="575.59" y="720" font-size="11" fill="#555555" text-anchor="middle">04:00</text>
<line x1="650.29" y1="588.56" x2="650.29" y2="614.19" stroke="#2ecc71" stroke-width="2"/>
<rect x="628.63" y="588.81" width="43.33" height="19.37" fill="#2ecc71" stroke="#2ecc71" stroke-width="1"/>
<text x="650.29" y="704" font-size="11" fill="#555555" text-anchor="middle">08-28</text>
<text x="650.29" y="720" font-size="11" fill="#555555" text-anchor="middle">05:00</text>
<line x1="725.00" y1="330.20" x2="725.00" y2="591.82" stroke="#2ecc71" stroke-width="2"/>
<rect x="703.34" y="371.69" width="43.33" height="218.13" fill="#2ecc71" stroke="#2ecc71" stroke-width="1"/>
<text x="725.00" y="704" font-size="11" fill="#555555" text-anchor="middle">08-28</text>
<text x="725.00" y="720" font-size="11" fill="#555555" text-anchor="middle">06:00</text>
<line x1="799.71" y1="168.50" x2="799.71" y2="408.00" stroke="#2ecc71" stroke-width="2"/>
<rect x="778.04" y="182.61" width="43.33" height="190.91" fill="#2ecc71" stroke="#2ecc71" stroke-width="1"/>
<text x="799.71" y="704" font-size="11" fill="#555555" text-anchor="middle">08-28</text>
<text x="799.71" y="720" font-size="11" fill="#555555" text-anchor="middle">07:00</text>
<line x1="874.41" y1="70.00" x2="874.41" y2="245.05" stroke="#2ecc71" stroke-width="2"/>
<rect x="852.75" y="151.56" width="43.33" height="30.97" fill="#2ecc71" stroke="#2ecc71" stroke-width="1"/>
<text x="874.41" y="704" font-size="11" fill="#555555" text-anchor="middle">08-28</text>
<text x="874.41" y="720" font-size="11" fill="#555555" text-anchor="middle">08:00</text>
<line x1="949.12" y1="120.59" x2="949.12" y2="288.88" stroke="#e74c3c" stroke-width="2"/>
<rect x="927.45" y="149.89" width="43.33" height="121.88" fill="#e74c3c" stroke="#e74c3c" stroke-width="1"/>
<text x="949.12" y="704" font-size="11" fill="#555555" text-anchor="middle">08-28</text>
<text x="949.12" y="720" font-size="11" fill="#555555" text-anchor="middle">09:00</text>
<line x1="1023.82" y1="216.34" x2="1023.82" y2="305.82" stroke="#2ecc71" stroke-width="2"/>
<rect x="1002.16" y="231.03" width="43.33" height="39.07" fill="#2ecc71" stroke="#2ecc71" stroke-width="1"/>
<text x="1023.82" y="704" font-size="11" fill="#555555" text-anchor="middle">08-28</text>
<text x="1023.82" y="720" font-size="11" fill="#555555" text-anchor="middle">10:00</text>
<line x1="1098.53" y1="194.88" x2="1098.53" y2="276.11" stroke="#e74c3c" stroke-width="2"/>
<rect x="1076.86" y="230.03" width="43.33" height="26.80" fill="#e74c3c" stroke="#e74c3c" stroke-width="1"/>
<text x="1098.53" y="704" font-size="11" fill="#555555" text-anchor="middle">08-28</text>
<text x="1098.53" y="720" font-size="11" fill="#555555" text-anchor="middle">11:00</text>
<line x1="1173.24" y1="258.32" x2="1173.24" y2="307.33" stroke="#e74c3c" stroke-width="2"/>
<rect x="1151.57" y="258.32" width="43.33" height="9.93" fill="#e74c3c" stroke="#e74c3c" stroke-width="1"/>
<text x="1173.24" y="704" font-size="11" fill="#555555" text-anchor="middle">08-28</text>
<text x="1173.24" y="720" font-size="11" fill="#555555" text-anchor="middle">12:00</text>
<line x1="1247.94" y1="265.09" x2="1247.94" y2="339.55" stroke="#e74c3c" stroke-width="2"/>
<rect x="1226.28" y="265.59" width="43.33" height="49.59" fill="#e74c3c" stroke="#e74c3c" stroke-width="1"/>
<text x="1247.94" y="704" font-size="11" fill="#555555" text-anchor="middle">08-28</text>
<text x="1247.94" y="720" font-size="11" fill="#555555" text-anchor="middle">13:00</text>
<line x1="1322.65" y1="295.39" x2="1322.65" y2="342.30" stroke="#e74c3c" stroke-width="2"/>
<rect x="1300.98" y="313.59" width="43.33" height="23.29" fill="#e74c3c" stroke="#e74c3c" stroke-width="1"/>
<text x="1322.65" y="704" font-size="11" fill="#555555" text-anchor="middle">08-28</text>
<text x="1322.65" y="720" font-size="11" fill="#555555" text-anchor="middle">14:00</text>
<line x1="725.00" y1="330.20" x2="805.00" y2="260.20" stroke="#f1c40f" stroke-width="2"/>
<rect x="805.00" y="212.20" width="220" height="72" rx="8" fill="#fff8dc" stroke="#f1c40f"/>
<text x="815.00" y="236.20" font-size="12" fill="#111111">目标K线 2025-08-28 06:00</text>
<text x="815.00" y="254.20" font-size="12" fill="#111111">振幅 28.01%</text>
<text x="815.00" y="272.20" font-size="12" fill="#111111">倍数 10.01x</text>
<line x1="650.29" y1="588.56" x2="620.29" y2="548.56" stroke="#3498db" stroke-width="2"/>
<rect x="400.29" y="512.56" width="220" height="58" rx="8" fill="#eef6ff" stroke="#3498db"/>
<text x="410.29" y="534.56" font-size="12" fill="#111111">前一根涨幅 2.11%</text>
<text x="410.29" y="552.56" font-size="12" fill="#111111">前一根振幅 2.80%</text>
</svg>