<svg xmlns="http://www.w3.org/2000/svg" width="1400" height="760" viewBox="0 0 1400 760">
<rect width="100%" height="100%" fill="#fcfcfc"/>
<text x="90" y="36" font-size="26" font-weight="700" fill="#111111">SKL_USDT 1H - 10倍命中</text>
<line x1="90" y1="70.00" x2="1360" y2="70.00" stroke="#d9d9d9" stroke-dasharray="4 4" stroke-width="1"/>
<text x="12" y="74.00" font-size="12" fill="#555555">0.024130</text>
<line x1="90" y1="186.00" x2="1360" y2="186.00" stroke="#d9d9d9" stroke-dasharray="4 4" stroke-width="1"/>
<text x="12" y="190.00" font-size="12" fill="#555555">0.022964</text>
<line x1="90" y1="302.00" x2="1360" y2="302.00" stroke="#d9d9d9" stroke-dasharray="4 4" stroke-width="1"/>
<text x="12" y="306.00" font-size="12" fill="#555555">0.021798</text>
<line x1="90" y1="418.00" x2="1360" y2="418.00" stroke="#d9d9d9" stroke-dasharray="4 4" stroke-width="1"/>
<text x="12" y="422.00" font-size="12" fill="#555555">0.020632</text>
<line x1="90" y1="534.00" x2="1360" y2="534.00" stroke="#d9d9d9" stroke-dasharray="4 4" stroke-width="1"/>
<text x="12" y="538.00" font-size="12" fill="#555555">0.019466</text>
<line x1="90" y1="650.00" x2="1360" y2="650.00" stroke="#d9d9d9" stroke-dasharray="4 4" stroke-width="1"/>
<text x="12" y="654.00" font-size="12" fill="#555555">0.018300</text>
<rect x="687.65" y="70" width="74.71" height="580.00" fill="#f1c40f" opacity="0.16"/>
<rect x="612.94" y="70" width="74.71" height="580.00" fill="#3498db" opacity="0.10"/>
<line x1="127.35" y1="634.08" x2="127.35" y2="647.02" stroke="#e74c3c" stroke-width="2"/>
<rect x="105.69" y="634.08" width="43.33" height="12.93" fill="#e74c3c" stroke="#e74c3c" stroke-width="1"/>
<text x="127.35" y="704" font-size="11" fill="#555555" text-anchor="middle">07-10</text>
<text x="127.35" y="720" font-size="11" fill="#555555" text-anchor="middle">20:00</text>
<line x1="202.06" y1="624.13" x2="202.06" y2="637.07" stroke="#2ecc71" stroke-width="2"/>
<rect x="180.39" y="632.09" width="43.33" height="4.97" fill="#2ecc71" stroke="#2ecc71" stroke-width="1"/>
<text x="202.06" y="704" font-size="11" fill="#555555" text-anchor="middle">07-10</text>
<text x="202.06" y="720" font-size="11" fill="#555555" text-anchor="middle">21:00</text>
<line x1="276.76" y1="621.15" x2="276.76" y2="642.04" stroke="#2ecc71" stroke-width="2"/>
<rect x="255.10" y="623.14" width="43.33" height="7.96" fill="#2ecc71" stroke="#2ecc71" stroke-width="1"/>
<text x="276.76" y="704" font-size="11" fill="#555555" text-anchor="middle">07-10</text>
<text x="276.76" y="720" font-size="11" fill="#555555" text-anchor="middle">22:00</text>
<line x1="351.47" y1="631.10" x2="351.47" y2="650.00" stroke="#e74c3c" stroke-width="2"/>
<rect x="329.81" y="631.10" width="43.33" height="17.91" fill="#e74c3c" stroke="#e74c3c" stroke-width="1"/>
<text x="351.47" y="704" font-size="11" fill="#555555" text-anchor="middle">07-10</text>
<text x="351.47" y="720" font-size="11" fill="#555555" text-anchor="middle">23:00</text>
<line x1="426.18" y1="612.20" x2="426.18" y2="647.02" stroke="#2ecc71" stroke-width="2"/>
<rect x="404.51" y="612.20" width="43.33" height="34.82" fill="#2ecc71" stroke="#2ecc71" stroke-width="1"/>
<text x="426.18" y="704" font-size="11" fill="#555555" text-anchor="middle">07-11</text>
<text x="426.18" y="720" font-size="11" fill="#555555" text-anchor="middle">00:00</text>
<line x1="500.88" y1="542.56" x2="500.88" y2="610.21" stroke="#2ecc71" stroke-width="2"/>
<rect x="479.22" y="548.52" width="43.33" height="61.68" fill="#2ecc71" stroke="#2ecc71" stroke-width="1"/>
<text x="500.88" y="704" font-size="11" fill="#555555" text-anchor="middle">07-11</text>
<text x="500.88" y="720" font-size="11" fill="#555555" text-anchor="middle">01:00</text>
<line x1="575.59" y1="546.54" x2="575.59" y2="579.37" stroke="#e74c3c" stroke-width="2"/>
<rect x="553.92" y="549.52" width="43.33" height="23.88" fill="#e74c3c" stroke="#e74c3c" stroke-width="1"/>
<text x="575.59" y="704" font-size="11" fill="#555555" text-anchor="middle">07-11</text>
<text x="575.59" y="720" font-size="11" fill="#555555" text-anchor="middle">02:00</text>
<line x1="650.29" y1="531.61" x2="650.29" y2="565.44" stroke="#2ecc71" stroke-width="2"/>
<rect x="628.63" y="531.61" width="43.33" height="33.83" fill="#2ecc71" stroke="#2ecc71" stroke-width="1"/>
<text x="650.29" y="704" font-size="11" fill="#555555" text-anchor="middle">07-11</text>
<text x="650.29" y="720" font-size="11" fill="#555555" text-anchor="middle">03:00</text>
<line x1="725.00" y1="70.00" x2="725.00" y2="539.57" stroke="#2ecc71" stroke-width="2"/>
<rect x="703.34" y="307.77" width="43.33" height="230.81" fill="#2ecc71" stroke="#2ecc71" stroke-width="1"/>
<text x="725.00" y="704" font-size="11" fill="#555555" text-anchor="middle">07-11</text>
<text x="725.00" y="720" font-size="11" fill="#555555" text-anchor="middle">04:00</text>
<line x1="799.71" y1="203.31" x2="799.71" y2="370.45" stroke="#2ecc71" stroke-width="2"/>
<rect x="778.04" y="298.82" width="43.33" height="12.93" fill="#2ecc71" stroke="#2ecc71" stroke-width="1"/>
<text x="799.71" y="704" font-size="11" fill="#555555" text-anchor="middle">07-11</text>
<text x="799.71" y="720" font-size="11" fill="#555555" text-anchor="middle">05:00</text>
<line x1="874.41" y1="299.81" x2="874.41" y2="344.58" stroke="#e74c3c" stroke-width="2"/>
<rect x="852.75" y="299.81" width="43.33" height="30.84" fill="#e74c3c" stroke="#e74c3c" stroke-width="1"/>
<text x="874.41" y="704" font-size="11" fill="#555555" text-anchor="middle">07-11</text>
<text x="874.41" y="720" font-size="11" fill="#555555" text-anchor="middle">06:00</text>
<line x1="949.12" y1="324.68" x2="949.12" y2="350.55" stroke="#e74c3c" stroke-width="2"/>
<rect x="927.45" y="328.66" width="43.33" height="16.91" fill="#e74c3c" stroke="#e74c3c" stroke-width="1"/>
<text x="949.12" y="704" font-size="11" fill="#555555" text-anchor="middle">07-11</text>
<text x="949.12" y="720" font-size="11" fill="#555555" text-anchor="middle">07:00</text>
<line x1="1023.82" y1="338.61" x2="1023.82" y2="410.24" stroke="#e74c3c" stroke-width="2"/>
<rect x="1002.16" y="345.57" width="43.33" height="41.78" fill="#e74c3c" stroke="#e74c3c" stroke-width="1"/>
<text x="1023.82" y="704" font-size="11" fill="#555555" text-anchor="middle">07-11</text>
<text x="1023.82" y="720" font-size="11" fill="#555555" text-anchor="middle">08:00</text>
<line x1="1098.53" y1="362.49" x2="1098.53" y2="390.34" stroke="#2ecc71" stroke-width="2"/>
<rect x="1076.86" y="364.48" width="43.33" height="24.87" fill="#2ecc71" stroke="#2ecc71" stroke-width="1"/>
<text x="1098.53" y="704" font-size="11" fill="#555555" text-anchor="middle">07-11</text>
<text x="1098.53" y="720" font-size="11" fill="#555555" text-anchor="middle">09:00</text>
<line x1="1173.24" y1="326.67" x2="1173.24" y2="374.43" stroke="#2ecc71" stroke-width="2"/>
<rect x="1151.57" y="335.63" width="43.33" height="30.84" fill="#2ecc71" stroke="#2ecc71" stroke-width="1"/>
<text x="1173.24" y="704" font-size="11" fill="#555555" text-anchor="middle">07-11</text>
<text x="1173.24" y="720" font-size="11" fill="#555555" text-anchor="middle">10:00</text>
<line x1="1247.94" y1="340.60" x2="1247.94" y2="367.46" stroke="#e74c3c" stroke-width="2"/>
<rect x="1226.28" y="340.60" width="43.33" height="21.89" fill="#e74c3c" stroke="#e74c3c" stroke-width="1"/>
<text x="1247.94" y="704" font-size="11" fill="#555555" text-anchor="middle">07-11</text>
<text x="1247.94" y="720" font-size="11" fill="#555555" text-anchor="middle">11:00</text>
<line x1="1322.65" y1="358.51" x2="1322.65" y2="403.28" stroke="#e74c3c" stroke-width="2"/>
<rect x="1300.98" y="364.48" width="43.33" height="23.88" fill="#e74c3c" stroke="#e74c3c" stroke-width="1"/>
<text x="1322.65" y="704" font-size="11" fill="#555555" text-anchor="middle">07-11</text>
<text x="1322.65" y="720" font-size="11" fill="#555555" text-anchor="middle">12:00</text>
<line x1="725.00" y1="70.00" x2="805.00" y2="90.00" stroke="#f1c40f" stroke-width="2"/>
<rect x="805.00" y="42.00" width="220" height="72" rx="8" fill="#fff8dc" stroke="#f1c40f"/>
<text x="815.00" y="66.00" font-size="12" fill="#111111">目标K线 2025-07-11 04:00</text>
<text x="815.00" y="84.00" font-size="12" fill="#111111">振幅 24.30%</text>
<text x="815.00" y="102.00" font-size="12" fill="#111111">倍数 13.69x</text>
<line x1="650.29" y1="531.61" x2="620.29" y2="491.61" stroke="#3498db" stroke-width="2"/>
<rect x="400.29" y="455.61" width="220" height="58" rx="8" fill="#eef6ff" stroke="#3498db"/>
<text x="410.29" y="477.61" font-size="12" fill="#111111">前一根涨幅 1.78%</text>
<text x="410.29" y="495.61" font-size="12" fill="#111111">前一根振幅 1.78%</text>
</svg>