<svg xmlns="http://www.w3.org/2000/svg" width="1400" height="760" viewBox="0 0 1400 760">
<rect width="100%" height="100%" fill="#fcfcfc"/>
<text x="90" y="36" font-size="26" font-weight="700" fill="#111111">SKYAI_USDT 1H - 10倍命中</text>
<line x1="90" y1="70.00" x2="1360" y2="70.00" stroke="#d9d9d9" stroke-dasharray="4 4" stroke-width="1"/>
<text x="12" y="74.00" font-size="12" fill="#555555">0.063470</text>
<line x1="90" y1="186.00" x2="1360" y2="186.00" stroke="#d9d9d9" stroke-dasharray="4 4" stroke-width="1"/>
<text x="12" y="190.00" font-size="12" fill="#555555">0.057990</text>
<line x1="90" y1="302.00" x2="1360" y2="302.00" stroke="#d9d9d9" stroke-dasharray="4 4" stroke-width="1"/>
<text x="12" y="306.00" font-size="12" fill="#555555">0.052510</text>
<line x1="90" y1="418.00" x2="1360" y2="418.00" stroke="#d9d9d9" stroke-dasharray="4 4" stroke-width="1"/>
<text x="12" y="422.00" font-size="12" fill="#555555">0.047030</text>
<line x1="90" y1="534.00" x2="1360" y2="534.00" stroke="#d9d9d9" stroke-dasharray="4 4" stroke-width="1"/>
<text x="12" y="538.00" font-size="12" fill="#555555">0.041550</text>
<line x1="90" y1="650.00" x2="1360" y2="650.00" stroke="#d9d9d9" stroke-dasharray="4 4" stroke-width="1"/>
<text x="12" y="654.00" font-size="12" fill="#555555">0.036070</text>
<rect x="687.65" y="70" width="74.71" height="580.00" fill="#f1c40f" opacity="0.16"/>
<rect x="612.94" y="70" width="74.71" height="580.00" fill="#3498db" opacity="0.10"/>
<line x1="127.35" y1="627.35" x2="127.35" y2="650.00" stroke="#2ecc71" stroke-width="2"/>
<rect x="105.69" y="631.16" width="43.33" height="16.09" fill="#2ecc71" stroke="#2ecc71" stroke-width="1"/>
<text x="127.35" y="704" font-size="11" fill="#555555" text-anchor="middle">07-02</text>
<text x="127.35" y="720" font-size="11" fill="#555555" text-anchor="middle">16:00</text>
<line x1="202.06" y1="547.76" x2="202.06" y2="630.31" stroke="#2ecc71" stroke-width="2"/>
<rect x="180.39" y="563.00" width="43.33" height="67.31" fill="#2ecc71" stroke="#2ecc71" stroke-width="1"/>
<text x="202.06" y="704" font-size="11" fill="#555555" text-anchor="middle">07-02</text>
<text x="202.06" y="720" font-size="11" fill="#555555" text-anchor="middle">17:00</text>
<line x1="276.76" y1="538.66" x2="276.76" y2="569.35" stroke="#2ecc71" stroke-width="2"/>
<rect x="255.10" y="547.55" width="43.33" height="12.07" fill="#2ecc71" stroke="#2ecc71" stroke-width="1"/>
<text x="276.76" y="704" font-size="11" fill="#555555" text-anchor="middle">07-02</text>
<text x="276.76" y="720" font-size="11" fill="#555555" text-anchor="middle">18:00</text>
<line x1="351.47" y1="495.05" x2="351.47" y2="545.22" stroke="#2ecc71" stroke-width="2"/>
<rect x="329.81" y="502.04" width="43.33" height="42.55" fill="#2ecc71" stroke="#2ecc71" stroke-width="1"/>
<text x="351.47" y="704" font-size="11" fill="#555555" text-anchor="middle">07-02</text>
<text x="351.47" y="720" font-size="11" fill="#555555" text-anchor="middle">19:00</text>
<line x1="426.18" y1="495.26" x2="426.18" y2="557.07" stroke="#e74c3c" stroke-width="2"/>
<rect x="404.51" y="499.50" width="43.33" height="47.63" fill="#e74c3c" stroke="#e74c3c" stroke-width="1"/>
<text x="426.18" y="704" font-size="11" fill="#555555" text-anchor="middle">07-02</text>
<text x="426.18" y="720" font-size="11" fill="#555555" text-anchor="middle">20:00</text>
<line x1="500.88" y1="533.36" x2="500.88" y2="558.98" stroke="#2ecc71" stroke-width="2"/>
<rect x="479.22" y="545.85" width="43.33" height="1.20" fill="#2ecc71" stroke="#2ecc71" stroke-width="1"/>
<text x="500.88" y="704" font-size="11" fill="#555555" text-anchor="middle">07-02</text>
<text x="500.88" y="720" font-size="11" fill="#555555" text-anchor="middle">21:00</text>
<line x1="575.59" y1="532.09" x2="575.59" y2="549.88" stroke="#2ecc71" stroke-width="2"/>
<rect x="553.92" y="545.01" width="43.33" height="1.20" fill="#2ecc71" stroke="#2ecc71" stroke-width="1"/>
<text x="575.59" y="704" font-size="11" fill="#555555" text-anchor="middle">07-02</text>
<text x="575.59" y="720" font-size="11" fill="#555555" text-anchor="middle">22:00</text>
<line x1="650.29" y1="524.90" x2="650.29" y2="545.22" stroke="#2ecc71" stroke-width="2"/>
<rect x="628.63" y="528.50" width="43.33" height="16.51" fill="#2ecc71" stroke="#2ecc71" stroke-width="1"/>
<text x="650.29" y="704" font-size="11" fill="#555555" text-anchor="middle">07-02</text>
<text x="650.29" y="720" font-size="11" fill="#555555" text-anchor="middle">23:00</text>
<line x1="725.00" y1="199.12" x2="725.00" y2="540.77" stroke="#2ecc71" stroke-width="2"/>
<rect x="703.34" y="244.85" width="43.33" height="282.59" fill="#2ecc71" stroke="#2ecc71" stroke-width="1"/>
<text x="725.00" y="704" font-size="11" fill="#555555" text-anchor="middle">07-03</text>
<text x="725.00" y="720" font-size="11" fill="#555555" text-anchor="middle">00:00</text>
<line x1="799.71" y1="94.55" x2="799.71" y2="274.27" stroke="#2ecc71" stroke-width="2"/>
<rect x="778.04" y="143.45" width="43.33" height="105.84" fill="#2ecc71" stroke="#2ecc71" stroke-width="1"/>
<text x="799.71" y="704" font-size="11" fill="#555555" text-anchor="middle">07-03</text>
<text x="799.71" y="720" font-size="11" fill="#555555" text-anchor="middle">01:00</text>
<line x1="874.41" y1="70.00" x2="874.41" y2="263.05" stroke="#e74c3c" stroke-width="2"/>
<rect x="852.75" y="144.93" width="43.33" height="64.14" fill="#e74c3c" stroke="#e74c3c" stroke-width="1"/>
<text x="874.41" y="704" font-size="11" fill="#555555" text-anchor="middle">07-03</text>
<text x="874.41" y="720" font-size="11" fill="#555555" text-anchor="middle">02:00</text>
<line x1="949.12" y1="193.41" x2="949.12" y2="237.01" stroke="#e74c3c" stroke-width="2"/>
<rect x="927.45" y="207.17" width="43.33" height="15.03" fill="#e74c3c" stroke="#e74c3c" stroke-width="1"/>
<text x="949.12" y="704" font-size="11" fill="#555555" text-anchor="middle">07-03</text>
<text x="949.12" y="720" font-size="11" fill="#555555" text-anchor="middle">03:00</text>
<line x1="1023.82" y1="172.66" x2="1023.82" y2="227.49" stroke="#2ecc71" stroke-width="2"/>
<rect x="1002.16" y="212.67" width="43.33" height="10.80" fill="#2ecc71" stroke="#2ecc71" stroke-width="1"/>
<text x="1023.82" y="704" font-size="11" fill="#555555" text-anchor="middle">07-03</text>
<text x="1023.82" y="720" font-size="11" fill="#555555" text-anchor="middle">04:00</text>
<line x1="1098.53" y1="163.35" x2="1098.53" y2="225.58" stroke="#2ecc71" stroke-width="2"/>
<rect x="1076.86" y="195.95" width="43.33" height="15.03" fill="#2ecc71" stroke="#2ecc71" stroke-width="1"/>
<text x="1098.53" y="704" font-size="11" fill="#555555" text-anchor="middle">07-03</text>
<text x="1098.53" y="720" font-size="11" fill="#555555" text-anchor="middle">05:00</text>
<line x1="1173.24" y1="177.11" x2="1173.24" y2="286.34" stroke="#e74c3c" stroke-width="2"/>
<rect x="1151.57" y="194.47" width="43.33" height="62.87" fill="#e74c3c" stroke="#e74c3c" stroke-width="1"/>
<text x="1173.24" y="704" font-size="11" fill="#555555" text-anchor="middle">07-03</text>
<text x="1173.24" y="720" font-size="11" fill="#555555" text-anchor="middle">06:00</text>
<line x1="1247.94" y1="250.99" x2="1247.94" y2="282.95" stroke="#e74c3c" stroke-width="2"/>
<rect x="1226.28" y="256.28" width="43.33" height="10.37" fill="#e74c3c" stroke="#e74c3c" stroke-width="1"/>
<text x="1247.94" y="704" font-size="11" fill="#555555" text-anchor="middle">07-03</text>
<text x="1247.94" y="720" font-size="11" fill="#555555" text-anchor="middle">07:00</text>
<line x1="1322.65" y1="176.05" x2="1322.65" y2="277.23" stroke="#2ecc71" stroke-width="2"/>
<rect x="1300.98" y="232.99" width="43.33" height="34.93" fill="#2ecc71" stroke="#2ecc71" stroke-width="1"/>
<text x="1322.65" y="704" font-size="11" fill="#555555" text-anchor="middle">07-03</text>
<text x="1322.65" y="720" font-size="11" fill="#555555" text-anchor="middle">08:00</text>
<line x1="725.00" y1="199.12" x2="805.00" y2="129.12" stroke="#f1c40f" stroke-width="2"/>
<rect x="805.00" y="81.12" width="220" height="72" rx="8" fill="#fff8dc" stroke="#f1c40f"/>
<text x="815.00" y="105.12" font-size="12" fill="#111111">目标K线 2025-07-03 00:00</text>
<text x="815.00" y="123.12" font-size="12" fill="#111111">振幅 38.56%</text>
<text x="815.00" y="141.12" font-size="12" fill="#111111">倍数 16.48x</text>
<line x1="650.29" y1="524.90" x2="620.29" y2="484.90" stroke="#3498db" stroke-width="2"/>
<rect x="400.29" y="448.90" width="220" height="58" rx="8" fill="#eef6ff" stroke="#3498db"/>
<text x="410.29" y="470.90" font-size="12" fill="#111111">前一根涨幅 1.90%</text>
<text x="410.29" y="488.90" font-size="12" fill="#111111">前一根振幅 2.34%</text>
</svg>