<svg xmlns="http://www.w3.org/2000/svg" width="1400" height="760" viewBox="0 0 1400 760">
<rect width="100%" height="100%" fill="#fcfcfc"/>
<text x="90" y="36" font-size="26" font-weight="700" fill="#111111">SLP_USDT 1H - 10倍命中</text>
<line x1="90" y1="70.00" x2="1360" y2="70.00" stroke="#d9d9d9" stroke-dasharray="4 4" stroke-width="1"/>
<text x="12" y="74.00" font-size="12" fill="#555555">0.000677</text>
<line x1="90" y1="186.00" x2="1360" y2="186.00" stroke="#d9d9d9" stroke-dasharray="4 4" stroke-width="1"/>
<text x="12" y="190.00" font-size="12" fill="#555555">0.000658</text>
<line x1="90" y1="302.00" x2="1360" y2="302.00" stroke="#d9d9d9" stroke-dasharray="4 4" stroke-width="1"/>
<text x="12" y="306.00" font-size="12" fill="#555555">0.000639</text>
<line x1="90" y1="418.00" x2="1360" y2="418.00" stroke="#d9d9d9" stroke-dasharray="4 4" stroke-width="1"/>
<text x="12" y="422.00" font-size="12" fill="#555555">0.000621</text>
<line x1="90" y1="534.00" x2="1360" y2="534.00" stroke="#d9d9d9" stroke-dasharray="4 4" stroke-width="1"/>
<text x="12" y="538.00" font-size="12" fill="#555555">0.000602</text>
<line x1="90" y1="650.00" x2="1360" y2="650.00" stroke="#d9d9d9" stroke-dasharray="4 4" stroke-width="1"/>
<text x="12" y="654.00" font-size="12" fill="#555555">0.000583</text>
<rect x="687.65" y="70" width="74.71" height="580.00" fill="#f1c40f" opacity="0.16"/>
<rect x="612.94" y="70" width="74.71" height="580.00" fill="#3498db" opacity="0.10"/>
<line x1="127.35" y1="575.96" x2="127.35" y2="625.32" stroke="#e74c3c" stroke-width="2"/>
<rect x="105.69" y="575.96" width="43.33" height="24.68" fill="#e74c3c" stroke="#e74c3c" stroke-width="1"/>
<text x="127.35" y="704" font-size="11" fill="#555555" text-anchor="middle">04-08</text>
<text x="127.35" y="720" font-size="11" fill="#555555" text-anchor="middle">17:00</text>
<line x1="202.06" y1="594.47" x2="202.06" y2="600.64" stroke="#2ecc71" stroke-width="2"/>
<rect x="180.39" y="594.47" width="43.33" height="6.17" fill="#2ecc71" stroke="#2ecc71" stroke-width="1"/>
<text x="202.06" y="704" font-size="11" fill="#555555" text-anchor="middle">04-08</text>
<text x="202.06" y="720" font-size="11" fill="#555555" text-anchor="middle">18:00</text>
<line x1="276.76" y1="594.47" x2="276.76" y2="606.81" stroke="#2ecc71" stroke-width="2"/>
<rect x="255.10" y="600.64" width="43.33" height="1.20" fill="#2ecc71" stroke="#2ecc71" stroke-width="1"/>
<text x="276.76" y="704" font-size="11" fill="#555555" text-anchor="middle">04-08</text>
<text x="276.76" y="720" font-size="11" fill="#555555" text-anchor="middle">19:00</text>
<line x1="351.47" y1="588.30" x2="351.47" y2="606.81" stroke="#e74c3c" stroke-width="2"/>
<rect x="329.81" y="588.30" width="43.33" height="12.34" fill="#e74c3c" stroke="#e74c3c" stroke-width="1"/>
<text x="351.47" y="704" font-size="11" fill="#555555" text-anchor="middle">04-08</text>
<text x="351.47" y="720" font-size="11" fill="#555555" text-anchor="middle">20:00</text>
<line x1="426.18" y1="569.79" x2="426.18" y2="594.47" stroke="#2ecc71" stroke-width="2"/>
<rect x="404.51" y="582.13" width="43.33" height="12.34" fill="#2ecc71" stroke="#2ecc71" stroke-width="1"/>
<text x="426.18" y="704" font-size="11" fill="#555555" text-anchor="middle">04-08</text>
<text x="426.18" y="720" font-size="11" fill="#555555" text-anchor="middle">21:00</text>
<line x1="500.88" y1="582.13" x2="500.88" y2="643.83" stroke="#e74c3c" stroke-width="2"/>
<rect x="479.22" y="582.13" width="43.33" height="61.70" fill="#e74c3c" stroke="#e74c3c" stroke-width="1"/>
<text x="500.88" y="704" font-size="11" fill="#555555" text-anchor="middle">04-08</text>
<text x="500.88" y="720" font-size="11" fill="#555555" text-anchor="middle">22:00</text>
<line x1="575.59" y1="600.64" x2="575.59" y2="631.49" stroke="#2ecc71" stroke-width="2"/>
<rect x="553.92" y="600.64" width="43.33" height="30.85" fill="#2ecc71" stroke="#2ecc71" stroke-width="1"/>
<text x="575.59" y="704" font-size="11" fill="#555555" text-anchor="middle">04-08</text>
<text x="575.59" y="720" font-size="11" fill="#555555" text-anchor="middle">23:00</text>
<line x1="650.29" y1="557.45" x2="650.29" y2="594.47" stroke="#2ecc71" stroke-width="2"/>
<rect x="628.63" y="557.45" width="43.33" height="37.02" fill="#2ecc71" stroke="#2ecc71" stroke-width="1"/>
<text x="650.29" y="704" font-size="11" fill="#555555" text-anchor="middle">04-09</text>
<text x="650.29" y="720" font-size="11" fill="#555555" text-anchor="middle">00:00</text>
<line x1="725.00" y1="70.00" x2="725.00" y2="551.28" stroke="#2ecc71" stroke-width="2"/>
<rect x="703.34" y="427.87" width="43.33" height="123.40" fill="#2ecc71" stroke="#2ecc71" stroke-width="1"/>
<text x="725.00" y="704" font-size="11" fill="#555555" text-anchor="middle">04-09</text>
<text x="725.00" y="720" font-size="11" fill="#555555" text-anchor="middle">01:00</text>
<line x1="799.71" y1="421.70" x2="799.71" y2="526.60" stroke="#e74c3c" stroke-width="2"/>
<rect x="778.04" y="427.87" width="43.33" height="61.70" fill="#e74c3c" stroke="#e74c3c" stroke-width="1"/>
<text x="799.71" y="704" font-size="11" fill="#555555" text-anchor="middle">04-09</text>
<text x="799.71" y="720" font-size="11" fill="#555555" text-anchor="middle">02:00</text>
<line x1="874.41" y1="452.55" x2="874.41" y2="508.09" stroke="#2ecc71" stroke-width="2"/>
<rect x="852.75" y="489.57" width="43.33" height="12.34" fill="#2ecc71" stroke="#2ecc71" stroke-width="1"/>
<text x="874.41" y="704" font-size="11" fill="#555555" text-anchor="middle">04-09</text>
<text x="874.41" y="720" font-size="11" fill="#555555" text-anchor="middle">03:00</text>
<line x1="949.12" y1="452.55" x2="949.12" y2="538.94" stroke="#e74c3c" stroke-width="2"/>
<rect x="927.45" y="489.57" width="43.33" height="49.36" fill="#e74c3c" stroke="#e74c3c" stroke-width="1"/>
<text x="949.12" y="704" font-size="11" fill="#555555" text-anchor="middle">04-09</text>
<text x="949.12" y="720" font-size="11" fill="#555555" text-anchor="middle">04:00</text>
<line x1="1023.82" y1="501.91" x2="1023.82" y2="551.28" stroke="#2ecc71" stroke-width="2"/>
<rect x="1002.16" y="514.26" width="43.33" height="18.51" fill="#2ecc71" stroke="#2ecc71" stroke-width="1"/>
<text x="1023.82" y="704" font-size="11" fill="#555555" text-anchor="middle">04-09</text>
<text x="1023.82" y="720" font-size="11" fill="#555555" text-anchor="middle">05:00</text>
<line x1="1098.53" y1="495.74" x2="1098.53" y2="563.62" stroke="#e74c3c" stroke-width="2"/>
<rect x="1076.86" y="508.09" width="43.33" height="55.53" fill="#e74c3c" stroke="#e74c3c" stroke-width="1"/>
<text x="1098.53" y="704" font-size="11" fill="#555555" text-anchor="middle">04-09</text>
<text x="1098.53" y="720" font-size="11" fill="#555555" text-anchor="middle">06:00</text>
<line x1="1173.24" y1="569.79" x2="1173.24" y2="612.98" stroke="#e74c3c" stroke-width="2"/>
<rect x="1151.57" y="569.79" width="43.33" height="24.68" fill="#e74c3c" stroke="#e74c3c" stroke-width="1"/>
<text x="1173.24" y="704" font-size="11" fill="#555555" text-anchor="middle">04-09</text>
<text x="1173.24" y="720" font-size="11" fill="#555555" text-anchor="middle">07:00</text>
<line x1="1247.94" y1="594.47" x2="1247.94" y2="643.83" stroke="#e74c3c" stroke-width="2"/>
<rect x="1226.28" y="600.64" width="43.33" height="12.34" fill="#e74c3c" stroke="#e74c3c" stroke-width="1"/>
<text x="1247.94" y="704" font-size="11" fill="#555555" text-anchor="middle">04-09</text>
<text x="1247.94" y="720" font-size="11" fill="#555555" text-anchor="middle">08:00</text>
<line x1="1322.65" y1="625.32" x2="1322.65" y2="650.00" stroke="#e74c3c" stroke-width="2"/>
<rect x="1300.98" y="625.32" width="43.33" height="18.51" fill="#e74c3c" stroke="#e74c3c" stroke-width="1"/>
<text x="1322.65" y="704" font-size="11" fill="#555555" text-anchor="middle">04-09</text>
<text x="1322.65" y="720" font-size="11" fill="#555555" text-anchor="middle">09:00</text>
<line x1="725.00" y1="70.00" x2="805.00" y2="90.00" stroke="#f1c40f" stroke-width="2"/>
<rect x="805.00" y="42.00" width="220" height="72" rx="8" fill="#fff8dc" stroke="#f1c40f"/>
<text x="815.00" y="66.00" font-size="12" fill="#111111">目标K线 2026-04-09 01:00</text>
<text x="815.00" y="84.00" font-size="12" fill="#111111">振幅 13.02%</text>
<text x="815.00" y="102.00" font-size="12" fill="#111111">倍数 12.85x</text>
<line x1="650.29" y1="557.45" x2="620.29" y2="517.45" stroke="#3498db" stroke-width="2"/>
<rect x="400.29" y="481.45" width="220" height="58" rx="8" fill="#eef6ff" stroke="#3498db"/>
<text x="410.29" y="503.45" font-size="12" fill="#111111">前一根涨幅 1.01%</text>
<text x="410.29" y="521.45" font-size="12" fill="#111111">前一根振幅 1.01%</text>
</svg>