<svg xmlns="http://www.w3.org/2000/svg" width="1400" height="760" viewBox="0 0 1400 760">
<rect width="100%" height="100%" fill="#fcfcfc"/>
<text x="90" y="36" font-size="26" font-weight="700" fill="#111111">SNT_USDT 1H - 10倍命中</text>
<line x1="90" y1="70.00" x2="1360" y2="70.00" stroke="#d9d9d9" stroke-dasharray="4 4" stroke-width="1"/>
<text x="12" y="74.00" font-size="12" fill="#555555">0.030050</text>
<line x1="90" y1="186.00" x2="1360" y2="186.00" stroke="#d9d9d9" stroke-dasharray="4 4" stroke-width="1"/>
<text x="12" y="190.00" font-size="12" fill="#555555">0.027618</text>
<line x1="90" y1="302.00" x2="1360" y2="302.00" stroke="#d9d9d9" stroke-dasharray="4 4" stroke-width="1"/>
<text x="12" y="306.00" font-size="12" fill="#555555">0.025186</text>
<line x1="90" y1="418.00" x2="1360" y2="418.00" stroke="#d9d9d9" stroke-dasharray="4 4" stroke-width="1"/>
<text x="12" y="422.00" font-size="12" fill="#555555">0.022754</text>
<line x1="90" y1="534.00" x2="1360" y2="534.00" stroke="#d9d9d9" stroke-dasharray="4 4" stroke-width="1"/>
<text x="12" y="538.00" font-size="12" fill="#555555">0.020322</text>
<line x1="90" y1="650.00" x2="1360" y2="650.00" stroke="#d9d9d9" stroke-dasharray="4 4" stroke-width="1"/>
<text x="12" y="654.00" font-size="12" fill="#555555">0.017890</text>
<rect x="687.65" y="70" width="74.71" height="580.00" fill="#f1c40f" opacity="0.16"/>
<rect x="612.94" y="70" width="74.71" height="580.00" fill="#3498db" opacity="0.10"/>
<line x1="127.35" y1="633.78" x2="127.35" y2="650.00" stroke="#2ecc71" stroke-width="2"/>
<rect x="105.69" y="640.46" width="43.33" height="1.91" fill="#2ecc71" stroke="#2ecc71" stroke-width="1"/>
<text x="127.35" y="704" font-size="11" fill="#555555" text-anchor="middle">04-10</text>
<text x="127.35" y="720" font-size="11" fill="#555555" text-anchor="middle">05:00</text>
<line x1="202.06" y1="635.21" x2="202.06" y2="646.18" stroke="#2ecc71" stroke-width="2"/>
<rect x="180.39" y="635.21" width="43.33" height="5.25" fill="#2ecc71" stroke="#2ecc71" stroke-width="1"/>
<text x="202.06" y="704" font-size="11" fill="#555555" text-anchor="middle">04-10</text>
<text x="202.06" y="720" font-size="11" fill="#555555" text-anchor="middle">06:00</text>
<line x1="276.76" y1="628.54" x2="276.76" y2="639.98" stroke="#2ecc71" stroke-width="2"/>
<rect x="255.10" y="629.97" width="43.33" height="5.25" fill="#2ecc71" stroke="#2ecc71" stroke-width="1"/>
<text x="276.76" y="704" font-size="11" fill="#555555" text-anchor="middle">04-10</text>
<text x="276.76" y="720" font-size="11" fill="#555555" text-anchor="middle">07:00</text>
<line x1="351.47" y1="502.62" x2="351.47" y2="643.80" stroke="#2ecc71" stroke-width="2"/>
<rect x="329.81" y="577.02" width="43.33" height="53.42" fill="#2ecc71" stroke="#2ecc71" stroke-width="1"/>
<text x="351.47" y="704" font-size="11" fill="#555555" text-anchor="middle">04-10</text>
<text x="351.47" y="720" font-size="11" fill="#555555" text-anchor="middle">08:00</text>
<line x1="426.18" y1="576.07" x2="426.18" y2="599.92" stroke="#e74c3c" stroke-width="2"/>
<rect x="404.51" y="576.55" width="43.33" height="12.88" fill="#e74c3c" stroke="#e74c3c" stroke-width="1"/>
<text x="426.18" y="704" font-size="11" fill="#555555" text-anchor="middle">04-10</text>
<text x="426.18" y="720" font-size="11" fill="#555555" text-anchor="middle">09:00</text>
<line x1="500.88" y1="568.91" x2="500.88" y2="591.33" stroke="#2ecc71" stroke-width="2"/>
<rect x="479.22" y="577.98" width="43.33" height="11.92" fill="#2ecc71" stroke="#2ecc71" stroke-width="1"/>
<text x="500.88" y="704" font-size="11" fill="#555555" text-anchor="middle">04-10</text>
<text x="500.88" y="720" font-size="11" fill="#555555" text-anchor="middle">10:00</text>
<line x1="575.59" y1="579.41" x2="575.59" y2="603.73" stroke="#e74c3c" stroke-width="2"/>
<rect x="553.92" y="580.84" width="43.33" height="14.31" fill="#e74c3c" stroke="#e74c3c" stroke-width="1"/>
<text x="575.59" y="704" font-size="11" fill="#555555" text-anchor="middle">04-10</text>
<text x="575.59" y="720" font-size="11" fill="#555555" text-anchor="middle">11:00</text>
<line x1="650.29" y1="586.09" x2="650.29" y2="600.87" stroke="#2ecc71" stroke-width="2"/>
<rect x="628.63" y="586.09" width="43.33" height="10.97" fill="#2ecc71" stroke="#2ecc71" stroke-width="1"/>
<text x="650.29" y="704" font-size="11" fill="#555555" text-anchor="middle">04-10</text>
<text x="650.29" y="720" font-size="11" fill="#555555" text-anchor="middle">12:00</text>
<line x1="725.00" y1="70.00" x2="725.00" y2="585.61" stroke="#2ecc71" stroke-width="2"/>
<rect x="703.34" y="369.06" width="43.33" height="214.64" fill="#2ecc71" stroke="#2ecc71" stroke-width="1"/>
<text x="725.00" y="704" font-size="11" fill="#555555" text-anchor="middle">04-10</text>
<text x="725.00" y="720" font-size="11" fill="#555555" text-anchor="middle">13:00</text>
<line x1="799.71" y1="298.95" x2="799.71" y2="501.18" stroke="#e74c3c" stroke-width="2"/>
<rect x="778.04" y="368.11" width="43.33" height="18.60" fill="#e74c3c" stroke="#e74c3c" stroke-width="1"/>
<text x="799.71" y="704" font-size="11" fill="#555555" text-anchor="middle">04-10</text>
<text x="799.71" y="720" font-size="11" fill="#555555" text-anchor="middle">14:00</text>
<line x1="874.41" y1="372.40" x2="874.41" y2="449.67" stroke="#e74c3c" stroke-width="2"/>
<rect x="852.75" y="389.10" width="43.33" height="45.79" fill="#e74c3c" stroke="#e74c3c" stroke-width="1"/>
<text x="874.41" y="704" font-size="11" fill="#555555" text-anchor="middle">04-10</text>
<text x="874.41" y="720" font-size="11" fill="#555555" text-anchor="middle">15:00</text>
<line x1="949.12" y1="440.13" x2="949.12" y2="501.18" stroke="#e74c3c" stroke-width="2"/>
<rect x="927.45" y="441.09" width="43.33" height="45.31" fill="#e74c3c" stroke="#e74c3c" stroke-width="1"/>
<text x="949.12" y="704" font-size="11" fill="#555555" text-anchor="middle">04-10</text>
<text x="949.12" y="720" font-size="11" fill="#555555" text-anchor="middle">16:00</text>
<line x1="1023.82" y1="464.93" x2="1023.82" y2="499.28" stroke="#2ecc71" stroke-width="2"/>
<rect x="1002.16" y="475.43" width="43.33" height="13.36" fill="#2ecc71" stroke="#2ecc71" stroke-width="1"/>
<text x="1023.82" y="704" font-size="11" fill="#555555" text-anchor="middle">04-10</text>
<text x="1023.82" y="720" font-size="11" fill="#555555" text-anchor="middle">17:00</text>
<line x1="1098.53" y1="466.37" x2="1098.53" y2="498.80" stroke="#e74c3c" stroke-width="2"/>
<rect x="1076.86" y="473.52" width="43.33" height="3.82" fill="#e74c3c" stroke="#e74c3c" stroke-width="1"/>
<text x="1098.53" y="704" font-size="11" fill="#555555" text-anchor="middle">04-10</text>
<text x="1098.53" y="720" font-size="11" fill="#555555" text-anchor="middle">18:00</text>
<line x1="1173.24" y1="448.24" x2="1173.24" y2="492.60" stroke="#2ecc71" stroke-width="2"/>
<rect x="1151.57" y="470.66" width="43.33" height="6.68" fill="#2ecc71" stroke="#2ecc71" stroke-width="1"/>
<text x="1173.24" y="704" font-size="11" fill="#555555" text-anchor="middle">04-10</text>
<text x="1173.24" y="720" font-size="11" fill="#555555" text-anchor="middle">19:00</text>
<line x1="1247.94" y1="452.53" x2="1247.94" y2="494.98" stroke="#2ecc71" stroke-width="2"/>
<rect x="1226.28" y="469.23" width="43.33" height="3.82" fill="#2ecc71" stroke="#2ecc71" stroke-width="1"/>
<text x="1247.94" y="704" font-size="11" fill="#555555" text-anchor="middle">04-10</text>
<text x="1247.94" y="720" font-size="11" fill="#555555" text-anchor="middle">20:00</text>
<line x1="1322.65" y1="410.56" x2="1322.65" y2="478.29" stroke="#2ecc71" stroke-width="2"/>
<rect x="1300.98" y="450.62" width="43.33" height="17.65" fill="#2ecc71" stroke="#2ecc71" stroke-width="1"/>
<text x="1322.65" y="704" font-size="11" fill="#555555" text-anchor="middle">04-10</text>
<text x="1322.65" y="720" font-size="11" fill="#555555" text-anchor="middle">21:00</text>
<line x1="725.00" y1="70.00" x2="805.00" y2="90.00" stroke="#f1c40f" stroke-width="2"/>
<rect x="805.00" y="42.00" width="220" height="72" rx="8" fill="#fff8dc" stroke="#f1c40f"/>
<text x="815.00" y="66.00" font-size="12" fill="#111111">目标K线 2025-04-10 13:00</text>
<text x="815.00" y="84.00" font-size="12" fill="#111111">振幅 56.07%</text>
<text x="815.00" y="102.00" font-size="12" fill="#111111">倍数 34.36x</text>
<line x1="650.29" y1="586.09" x2="620.29" y2="546.09" stroke="#3498db" stroke-width="2"/>
<rect x="400.29" y="510.09" width="220" height="58" rx="8" fill="#eef6ff" stroke="#3498db"/>
<text x="410.29" y="532.09" font-size="12" fill="#111111">前一根涨幅 1.21%</text>
<text x="410.29" y="550.09" font-size="12" fill="#111111">前一根振幅 1.63%</text>
</svg>