<svg xmlns="http://www.w3.org/2000/svg" width="1400" height="760" viewBox="0 0 1400 760">
<rect width="100%" height="100%" fill="#fcfcfc"/>
<text x="90" y="36" font-size="26" font-weight="700" fill="#111111">STO_USDT 1H - 10倍命中</text>
<line x1="90" y1="70.00" x2="1360" y2="70.00" stroke="#d9d9d9" stroke-dasharray="4 4" stroke-width="1"/>
<text x="12" y="74.00" font-size="12" fill="#555555">0.216700</text>
<line x1="90" y1="186.00" x2="1360" y2="186.00" stroke="#d9d9d9" stroke-dasharray="4 4" stroke-width="1"/>
<text x="12" y="190.00" font-size="12" fill="#555555">0.197000</text>
<line x1="90" y1="302.00" x2="1360" y2="302.00" stroke="#d9d9d9" stroke-dasharray="4 4" stroke-width="1"/>
<text x="12" y="306.00" font-size="12" fill="#555555">0.177300</text>
<line x1="90" y1="418.00" x2="1360" y2="418.00" stroke="#d9d9d9" stroke-dasharray="4 4" stroke-width="1"/>
<text x="12" y="422.00" font-size="12" fill="#555555">0.157600</text>
<line x1="90" y1="534.00" x2="1360" y2="534.00" stroke="#d9d9d9" stroke-dasharray="4 4" stroke-width="1"/>
<text x="12" y="538.00" font-size="12" fill="#555555">0.137900</text>
<line x1="90" y1="650.00" x2="1360" y2="650.00" stroke="#d9d9d9" stroke-dasharray="4 4" stroke-width="1"/>
<text x="12" y="654.00" font-size="12" fill="#555555">0.118200</text>
<rect x="687.65" y="70" width="74.71" height="580.00" fill="#f1c40f" opacity="0.16"/>
<rect x="612.94" y="70" width="74.71" height="580.00" fill="#3498db" opacity="0.10"/>
<line x1="127.35" y1="598.36" x2="127.35" y2="637.87" stroke="#e74c3c" stroke-width="2"/>
<rect x="105.69" y="599.18" width="43.33" height="31.50" fill="#e74c3c" stroke="#e74c3c" stroke-width="1"/>
<text x="127.35" y="704" font-size="11" fill="#555555" text-anchor="middle">05-02</text>
<text x="127.35" y="720" font-size="11" fill="#555555" text-anchor="middle">10:00</text>
<line x1="202.06" y1="630.16" x2="202.06" y2="638.22" stroke="#e74c3c" stroke-width="2"/>
<rect x="180.39" y="630.16" width="43.33" height="5.71" fill="#e74c3c" stroke="#e74c3c" stroke-width="1"/>
<text x="202.06" y="704" font-size="11" fill="#555555" text-anchor="middle">05-02</text>
<text x="202.06" y="720" font-size="11" fill="#555555" text-anchor="middle">11:00</text>
<line x1="276.76" y1="619.38" x2="276.76" y2="639.17" stroke="#2ecc71" stroke-width="2"/>
<rect x="255.10" y="624.80" width="43.33" height="13.31" fill="#2ecc71" stroke="#2ecc71" stroke-width="1"/>
<text x="276.76" y="704" font-size="11" fill="#555555" text-anchor="middle">05-02</text>
<text x="276.76" y="720" font-size="11" fill="#555555" text-anchor="middle">12:00</text>
<line x1="351.47" y1="624.68" x2="351.47" y2="647.64" stroke="#e74c3c" stroke-width="2"/>
<rect x="329.81" y="624.68" width="43.33" height="19.43" fill="#e74c3c" stroke="#e74c3c" stroke-width="1"/>
<text x="351.47" y="704" font-size="11" fill="#555555" text-anchor="middle">05-02</text>
<text x="351.47" y="720" font-size="11" fill="#555555" text-anchor="middle">13:00</text>
<line x1="426.18" y1="635.99" x2="426.18" y2="648.70" stroke="#2ecc71" stroke-width="2"/>
<rect x="404.51" y="642.11" width="43.33" height="1.20" fill="#2ecc71" stroke="#2ecc71" stroke-width="1"/>
<text x="426.18" y="704" font-size="11" fill="#555555" text-anchor="middle">05-02</text>
<text x="426.18" y="720" font-size="11" fill="#555555" text-anchor="middle">14:00</text>
<line x1="500.88" y1="638.34" x2="500.88" y2="650.00" stroke="#e74c3c" stroke-width="2"/>
<rect x="479.22" y="641.29" width="43.33" height="8.71" fill="#e74c3c" stroke="#e74c3c" stroke-width="1"/>
<text x="500.88" y="704" font-size="11" fill="#555555" text-anchor="middle">05-02</text>
<text x="500.88" y="720" font-size="11" fill="#555555" text-anchor="middle">15:00</text>
<line x1="575.59" y1="635.34" x2="575.59" y2="649.00" stroke="#2ecc71" stroke-width="2"/>
<rect x="553.92" y="637.40" width="43.33" height="11.60" fill="#2ecc71" stroke="#2ecc71" stroke-width="1"/>
<text x="575.59" y="704" font-size="11" fill="#555555" text-anchor="middle">05-02</text>
<text x="575.59" y="720" font-size="11" fill="#555555" text-anchor="middle">16:00</text>
<line x1="650.29" y1="611.90" x2="650.29" y2="638.87" stroke="#2ecc71" stroke-width="2"/>
<rect x="628.63" y="615.91" width="43.33" height="22.96" fill="#2ecc71" stroke="#2ecc71" stroke-width="1"/>
<text x="650.29" y="704" font-size="11" fill="#555555" text-anchor="middle">05-02</text>
<text x="650.29" y="720" font-size="11" fill="#555555" text-anchor="middle">17:00</text>
<line x1="725.00" y1="70.00" x2="725.00" y2="623.15" stroke="#2ecc71" stroke-width="2"/>
<rect x="703.34" y="368.71" width="43.33" height="248.31" fill="#2ecc71" stroke="#2ecc71" stroke-width="1"/>
<text x="725.00" y="704" font-size="11" fill="#555555" text-anchor="middle">05-02</text>
<text x="725.00" y="720" font-size="11" fill="#555555" text-anchor="middle">18:00</text>
<line x1="799.71" y1="316.31" x2="799.71" y2="387.32" stroke="#2ecc71" stroke-width="2"/>
<rect x="778.04" y="336.98" width="43.33" height="31.33" fill="#2ecc71" stroke="#2ecc71" stroke-width="1"/>
<text x="799.71" y="704" font-size="11" fill="#555555" text-anchor="middle">05-02</text>
<text x="799.71" y="720" font-size="11" fill="#555555" text-anchor="middle">19:00</text>
<line x1="874.41" y1="299.88" x2="874.41" y2="371.01" stroke="#2ecc71" stroke-width="2"/>
<rect x="852.75" y="301.35" width="43.33" height="38.39" fill="#2ecc71" stroke="#2ecc71" stroke-width="1"/>
<text x="874.41" y="704" font-size="11" fill="#555555" text-anchor="middle">05-02</text>
<text x="874.41" y="720" font-size="11" fill="#555555" text-anchor="middle">20:00</text>
<line x1="949.12" y1="267.38" x2="949.12" y2="327.91" stroke="#2ecc71" stroke-width="2"/>
<rect x="927.45" y="297.11" width="43.33" height="5.89" fill="#2ecc71" stroke="#2ecc71" stroke-width="1"/>
<text x="949.12" y="704" font-size="11" fill="#555555" text-anchor="middle">05-02</text>
<text x="949.12" y="720" font-size="11" fill="#555555" text-anchor="middle">21:00</text>
<line x1="1023.82" y1="277.98" x2="1023.82" y2="311.89" stroke="#2ecc71" stroke-width="2"/>
<rect x="1002.16" y="288.69" width="43.33" height="8.42" fill="#2ecc71" stroke="#2ecc71" stroke-width="1"/>
<text x="1023.82" y="704" font-size="11" fill="#555555" text-anchor="middle">05-02</text>
<text x="1023.82" y="720" font-size="11" fill="#555555" text-anchor="middle">22:00</text>
<line x1="1098.53" y1="284.10" x2="1098.53" y2="381.85" stroke="#e74c3c" stroke-width="2"/>
<rect x="1076.86" y="292.05" width="43.33" height="67.07" fill="#e74c3c" stroke="#e74c3c" stroke-width="1"/>
<text x="1098.53" y="704" font-size="11" fill="#555555" text-anchor="middle">05-02</text>
<text x="1098.53" y="720" font-size="11" fill="#555555" text-anchor="middle">23:00</text>
<line x1="1173.24" y1="101.09" x2="1173.24" y2="361.71" stroke="#2ecc71" stroke-width="2"/>
<rect x="1151.57" y="204.72" width="43.33" height="155.86" fill="#2ecc71" stroke="#2ecc71" stroke-width="1"/>
<text x="1173.24" y="704" font-size="11" fill="#555555" text-anchor="middle">05-03</text>
<text x="1173.24" y="720" font-size="11" fill="#555555" text-anchor="middle">00:00</text>
<line x1="1247.94" y1="153.14" x2="1247.94" y2="240.70" stroke="#2ecc71" stroke-width="2"/>
<rect x="1226.28" y="192.24" width="43.33" height="9.89" fill="#2ecc71" stroke="#2ecc71" stroke-width="1"/>
<text x="1247.94" y="704" font-size="11" fill="#555555" text-anchor="middle">05-03</text>
<text x="1247.94" y="720" font-size="11" fill="#555555" text-anchor="middle">01:00</text>
<line x1="1322.65" y1="135.83" x2="1322.65" y2="218.15" stroke="#2ecc71" stroke-width="2"/>
<rect x="1300.98" y="160.97" width="43.33" height="30.15" fill="#2ecc71" stroke="#2ecc71" stroke-width="1"/>
<text x="1322.65" y="704" font-size="11" fill="#555555" text-anchor="middle">05-03</text>
<text x="1322.65" y="720" font-size="11" fill="#555555" text-anchor="middle">02:00</text>
<line x1="725.00" y1="70.00" x2="805.00" y2="90.00" stroke="#f1c40f" stroke-width="2"/>
<rect x="805.00" y="42.00" width="220" height="72" rx="8" fill="#fff8dc" stroke="#f1c40f"/>
<text x="815.00" y="66.00" font-size="12" fill="#111111">目标K线 2025-05-02 18:00</text>
<text x="815.00" y="84.00" font-size="12" fill="#111111">振幅 75.88%</text>
<text x="815.00" y="102.00" font-size="12" fill="#111111">倍数 19.90x</text>
<line x1="650.29" y1="611.90" x2="620.29" y2="571.90" stroke="#3498db" stroke-width="2"/>
<rect x="400.29" y="535.90" width="220" height="58" rx="8" fill="#eef6ff" stroke="#3498db"/>
<text x="410.29" y="557.90" font-size="12" fill="#111111">前一根涨幅 3.25%</text>
<text x="410.29" y="575.90" font-size="12" fill="#111111">前一根振幅 3.81%</text>
</svg>