<svg xmlns="http://www.w3.org/2000/svg" width="1400" height="760" viewBox="0 0 1400 760">
<rect width="100%" height="100%" fill="#fcfcfc"/>
<text x="90" y="36" font-size="26" font-weight="700" fill="#111111">TAIKO_USDT 1H - 10倍命中</text>
<line x1="90" y1="70.00" x2="1360" y2="70.00" stroke="#d9d9d9" stroke-dasharray="4 4" stroke-width="1"/>
<text x="12" y="74.00" font-size="12" fill="#555555">0.958000</text>
<line x1="90" y1="186.00" x2="1360" y2="186.00" stroke="#d9d9d9" stroke-dasharray="4 4" stroke-width="1"/>
<text x="12" y="190.00" font-size="12" fill="#555555">0.904380</text>
<line x1="90" y1="302.00" x2="1360" y2="302.00" stroke="#d9d9d9" stroke-dasharray="4 4" stroke-width="1"/>
<text x="12" y="306.00" font-size="12" fill="#555555">0.850760</text>
<line x1="90" y1="418.00" x2="1360" y2="418.00" stroke="#d9d9d9" stroke-dasharray="4 4" stroke-width="1"/>
<text x="12" y="422.00" font-size="12" fill="#555555">0.797140</text>
<line x1="90" y1="534.00" x2="1360" y2="534.00" stroke="#d9d9d9" stroke-dasharray="4 4" stroke-width="1"/>
<text x="12" y="538.00" font-size="12" fill="#555555">0.743520</text>
<line x1="90" y1="650.00" x2="1360" y2="650.00" stroke="#d9d9d9" stroke-dasharray="4 4" stroke-width="1"/>
<text x="12" y="654.00" font-size="12" fill="#555555">0.689900</text>
<rect x="687.65" y="70" width="74.71" height="580.00" fill="#f1c40f" opacity="0.16"/>
<rect x="612.94" y="70" width="74.71" height="580.00" fill="#3498db" opacity="0.10"/>
<line x1="127.35" y1="629.23" x2="127.35" y2="650.00" stroke="#2ecc71" stroke-width="2"/>
<rect x="105.69" y="632.04" width="43.33" height="1.20" fill="#2ecc71" stroke="#2ecc71" stroke-width="1"/>
<text x="127.35" y="704" font-size="11" fill="#555555" text-anchor="middle">03-22</text>
<text x="127.35" y="720" font-size="11" fill="#555555" text-anchor="middle">00:00</text>
<line x1="202.06" y1="633.99" x2="202.06" y2="633.99" stroke="#2ecc71" stroke-width="2"/>
<rect x="180.39" y="633.99" width="43.33" height="1.20" fill="#2ecc71" stroke="#2ecc71" stroke-width="1"/>
<text x="202.06" y="704" font-size="11" fill="#555555" text-anchor="middle">03-22</text>
<text x="202.06" y="720" font-size="11" fill="#555555" text-anchor="middle">01:00</text>
<line x1="276.76" y1="626.64" x2="276.76" y2="642.64" stroke="#2ecc71" stroke-width="2"/>
<rect x="255.10" y="626.64" width="43.33" height="13.20" fill="#2ecc71" stroke="#2ecc71" stroke-width="1"/>
<text x="276.76" y="704" font-size="11" fill="#555555" text-anchor="middle">03-22</text>
<text x="276.76" y="720" font-size="11" fill="#555555" text-anchor="middle">02:00</text>
<line x1="351.47" y1="620.58" x2="351.47" y2="624.90" stroke="#2ecc71" stroke-width="2"/>
<rect x="329.81" y="620.58" width="43.33" height="4.33" fill="#2ecc71" stroke="#2ecc71" stroke-width="1"/>
<text x="351.47" y="704" font-size="11" fill="#555555" text-anchor="middle">03-22</text>
<text x="351.47" y="720" font-size="11" fill="#555555" text-anchor="middle">03:00</text>
<line x1="426.18" y1="625.12" x2="426.18" y2="627.28" stroke="#e74c3c" stroke-width="2"/>
<rect x="404.51" y="625.12" width="43.33" height="2.16" fill="#e74c3c" stroke="#e74c3c" stroke-width="1"/>
<text x="426.18" y="704" font-size="11" fill="#555555" text-anchor="middle">03-22</text>
<text x="426.18" y="720" font-size="11" fill="#555555" text-anchor="middle">04:00</text>
<line x1="500.88" y1="579.91" x2="500.88" y2="616.04" stroke="#2ecc71" stroke-width="2"/>
<rect x="479.22" y="590.51" width="43.33" height="24.66" fill="#2ecc71" stroke="#2ecc71" stroke-width="1"/>
<text x="500.88" y="704" font-size="11" fill="#555555" text-anchor="middle">03-22</text>
<text x="500.88" y="720" font-size="11" fill="#555555" text-anchor="middle">05:00</text>
<line x1="575.59" y1="530.58" x2="575.59" y2="588.99" stroke="#2ecc71" stroke-width="2"/>
<rect x="553.92" y="540.97" width="43.33" height="48.03" fill="#2ecc71" stroke="#2ecc71" stroke-width="1"/>
<text x="575.59" y="704" font-size="11" fill="#555555" text-anchor="middle">03-22</text>
<text x="575.59" y="720" font-size="11" fill="#555555" text-anchor="middle">06:00</text>
<line x1="650.29" y1="512.63" x2="650.29" y2="556.33" stroke="#2ecc71" stroke-width="2"/>
<rect x="628.63" y="519.77" width="43.33" height="19.25" fill="#2ecc71" stroke="#2ecc71" stroke-width="1"/>
<text x="650.29" y="704" font-size="11" fill="#555555" text-anchor="middle">03-22</text>
<text x="650.29" y="720" font-size="11" fill="#555555" text-anchor="middle">07:00</text>
<line x1="725.00" y1="70.00" x2="725.00" y2="524.96" stroke="#2ecc71" stroke-width="2"/>
<rect x="703.34" y="240.26" width="43.33" height="278.21" fill="#2ecc71" stroke="#2ecc71" stroke-width="1"/>
<text x="725.00" y="704" font-size="11" fill="#555555" text-anchor="middle">03-22</text>
<text x="725.00" y="720" font-size="11" fill="#555555" text-anchor="middle">08:00</text>
<line x1="799.71" y1="139.23" x2="799.71" y2="330.90" stroke="#e74c3c" stroke-width="2"/>
<rect x="778.04" y="236.58" width="43.33" height="88.70" fill="#e74c3c" stroke="#e74c3c" stroke-width="1"/>
<text x="799.71" y="704" font-size="11" fill="#555555" text-anchor="middle">03-22</text>
<text x="799.71" y="720" font-size="11" fill="#555555" text-anchor="middle">09:00</text>
<line x1="874.41" y1="295.21" x2="874.41" y2="349.29" stroke="#e74c3c" stroke-width="2"/>
<rect x="852.75" y="328.74" width="43.33" height="10.60" fill="#e74c3c" stroke="#e74c3c" stroke-width="1"/>
<text x="874.41" y="704" font-size="11" fill="#555555" text-anchor="middle">03-22</text>
<text x="874.41" y="720" font-size="11" fill="#555555" text-anchor="middle">10:00</text>
<line x1="949.12" y1="325.06" x2="949.12" y2="366.17" stroke="#e74c3c" stroke-width="2"/>
<rect x="927.45" y="339.12" width="43.33" height="3.89" fill="#e74c3c" stroke="#e74c3c" stroke-width="1"/>
<text x="949.12" y="704" font-size="11" fill="#555555" text-anchor="middle">03-22</text>
<text x="949.12" y="720" font-size="11" fill="#555555" text-anchor="middle">11:00</text>
<line x1="1023.82" y1="289.37" x2="1023.82" y2="349.51" stroke="#2ecc71" stroke-width="2"/>
<rect x="1002.16" y="298.88" width="43.33" height="46.95" fill="#2ecc71" stroke="#2ecc71" stroke-width="1"/>
<text x="1023.82" y="704" font-size="11" fill="#555555" text-anchor="middle">03-22</text>
<text x="1023.82" y="720" font-size="11" fill="#555555" text-anchor="middle">12:00</text>
<line x1="1098.53" y1="234.63" x2="1098.53" y2="356.43" stroke="#2ecc71" stroke-width="2"/>
<rect x="1076.86" y="289.37" width="43.33" height="8.87" fill="#2ecc71" stroke="#2ecc71" stroke-width="1"/>
<text x="1098.53" y="704" font-size="11" fill="#555555" text-anchor="middle">03-22</text>
<text x="1098.53" y="720" font-size="11" fill="#555555" text-anchor="middle">13:00</text>
<line x1="1173.24" y1="230.09" x2="1173.24" y2="316.62" stroke="#e74c3c" stroke-width="2"/>
<rect x="1151.57" y="285.47" width="43.33" height="23.80" fill="#e74c3c" stroke="#e74c3c" stroke-width="1"/>
<text x="1173.24" y="704" font-size="11" fill="#555555" text-anchor="middle">03-22</text>
<text x="1173.24" y="720" font-size="11" fill="#555555" text-anchor="middle">14:00</text>
<line x1="1247.94" y1="286.77" x2="1247.94" y2="318.14" stroke="#e74c3c" stroke-width="2"/>
<rect x="1226.28" y="302.13" width="43.33" height="1.51" fill="#e74c3c" stroke="#e74c3c" stroke-width="1"/>
<text x="1247.94" y="704" font-size="11" fill="#555555" text-anchor="middle">03-22</text>
<text x="1247.94" y="720" font-size="11" fill="#555555" text-anchor="middle">15:00</text>
<line x1="1322.65" y1="246.75" x2="1322.65" y2="306.89" stroke="#2ecc71" stroke-width="2"/>
<rect x="1300.98" y="293.26" width="43.33" height="6.06" fill="#2ecc71" stroke="#2ecc71" stroke-width="1"/>
<text x="1322.65" y="704" font-size="11" fill="#555555" text-anchor="middle">03-22</text>
<text x="1322.65" y="720" font-size="11" fill="#555555" text-anchor="middle">16:00</text>
<line x1="725.00" y1="70.00" x2="805.00" y2="90.00" stroke="#f1c40f" stroke-width="2"/>
<rect x="805.00" y="42.00" width="220" height="72" rx="8" fill="#fff8dc" stroke="#f1c40f"/>
<text x="815.00" y="66.00" font-size="12" fill="#111111">目标K线 2025-03-22 08:00</text>
<text x="815.00" y="84.00" font-size="12" fill="#111111">振幅 28.01%</text>
<text x="815.00" y="102.00" font-size="12" fill="#111111">倍数 10.28x</text>
<line x1="650.29" y1="512.63" x2="620.29" y2="472.63" stroke="#3498db" stroke-width="2"/>
<rect x="400.29" y="436.63" width="220" height="58" rx="8" fill="#eef6ff" stroke="#3498db"/>
<text x="410.29" y="458.63" font-size="12" fill="#111111">前一根涨幅 1.20%</text>
<text x="410.29" y="476.63" font-size="12" fill="#111111">前一根振幅 2.73%</text>
</svg>