<svg xmlns="http://www.w3.org/2000/svg" width="1400" height="760" viewBox="0 0 1400 760">
<rect width="100%" height="100%" fill="#fcfcfc"/>
<text x="90" y="36" font-size="26" font-weight="700" fill="#111111">TOWNS_USDT 1H - 10倍命中</text>
<line x1="90" y1="70.00" x2="1360" y2="70.00" stroke="#d9d9d9" stroke-dasharray="4 4" stroke-width="1"/>
<text x="12" y="74.00" font-size="12" fill="#555555">0.017920</text>
<line x1="90" y1="186.00" x2="1360" y2="186.00" stroke="#d9d9d9" stroke-dasharray="4 4" stroke-width="1"/>
<text x="12" y="190.00" font-size="12" fill="#555555">0.016282</text>
<line x1="90" y1="302.00" x2="1360" y2="302.00" stroke="#d9d9d9" stroke-dasharray="4 4" stroke-width="1"/>
<text x="12" y="306.00" font-size="12" fill="#555555">0.014644</text>
<line x1="90" y1="418.00" x2="1360" y2="418.00" stroke="#d9d9d9" stroke-dasharray="4 4" stroke-width="1"/>
<text x="12" y="422.00" font-size="12" fill="#555555">0.013006</text>
<line x1="90" y1="534.00" x2="1360" y2="534.00" stroke="#d9d9d9" stroke-dasharray="4 4" stroke-width="1"/>
<text x="12" y="538.00" font-size="12" fill="#555555">0.011368</text>
<line x1="90" y1="650.00" x2="1360" y2="650.00" stroke="#d9d9d9" stroke-dasharray="4 4" stroke-width="1"/>
<text x="12" y="654.00" font-size="12" fill="#555555">0.009730</text>
<rect x="687.65" y="70" width="74.71" height="580.00" fill="#f1c40f" opacity="0.16"/>
<rect x="612.94" y="70" width="74.71" height="580.00" fill="#3498db" opacity="0.10"/>
<line x1="127.35" y1="625.92" x2="127.35" y2="630.88" stroke="#2ecc71" stroke-width="2"/>
<rect x="105.69" y="627.34" width="43.33" height="1.42" fill="#2ecc71" stroke="#2ecc71" stroke-width="1"/>
<text x="127.35" y="704" font-size="11" fill="#555555" text-anchor="middle">11-09</text>
<text x="127.35" y="720" font-size="11" fill="#555555" text-anchor="middle">16:00</text>
<line x1="202.06" y1="625.21" x2="202.06" y2="636.54" stroke="#e74c3c" stroke-width="2"/>
<rect x="180.39" y="628.05" width="43.33" height="8.50" fill="#e74c3c" stroke="#e74c3c" stroke-width="1"/>
<text x="202.06" y="704" font-size="11" fill="#555555" text-anchor="middle">11-09</text>
<text x="202.06" y="720" font-size="11" fill="#555555" text-anchor="middle">17:00</text>
<line x1="276.76" y1="636.54" x2="276.76" y2="650.00" stroke="#2ecc71" stroke-width="2"/>
<rect x="255.10" y="636.54" width="43.33" height="1.20" fill="#2ecc71" stroke="#2ecc71" stroke-width="1"/>
<text x="276.76" y="704" font-size="11" fill="#555555" text-anchor="middle">11-09</text>
<text x="276.76" y="720" font-size="11" fill="#555555" text-anchor="middle">18:00</text>
<line x1="351.47" y1="628.75" x2="351.47" y2="633.00" stroke="#2ecc71" stroke-width="2"/>
<rect x="329.81" y="630.17" width="43.33" height="2.83" fill="#2ecc71" stroke="#2ecc71" stroke-width="1"/>
<text x="351.47" y="704" font-size="11" fill="#555555" text-anchor="middle">11-09</text>
<text x="351.47" y="720" font-size="11" fill="#555555" text-anchor="middle">19:00</text>
<line x1="426.18" y1="627.34" x2="426.18" y2="632.30" stroke="#e74c3c" stroke-width="2"/>
<rect x="404.51" y="628.75" width="43.33" height="3.54" fill="#e74c3c" stroke="#e74c3c" stroke-width="1"/>
<text x="426.18" y="704" font-size="11" fill="#555555" text-anchor="middle">11-09</text>
<text x="426.18" y="720" font-size="11" fill="#555555" text-anchor="middle">20:00</text>
<line x1="500.88" y1="630.17" x2="500.88" y2="633.71" stroke="#2ecc71" stroke-width="2"/>
<rect x="479.22" y="633.00" width="43.33" height="1.20" fill="#2ecc71" stroke="#2ecc71" stroke-width="1"/>
<text x="500.88" y="704" font-size="11" fill="#555555" text-anchor="middle">11-09</text>
<text x="500.88" y="720" font-size="11" fill="#555555" text-anchor="middle">21:00</text>
<line x1="575.59" y1="620.96" x2="575.59" y2="637.25" stroke="#2ecc71" stroke-width="2"/>
<rect x="553.92" y="632.30" width="43.33" height="1.42" fill="#2ecc71" stroke="#2ecc71" stroke-width="1"/>
<text x="575.59" y="704" font-size="11" fill="#555555" text-anchor="middle">11-09</text>
<text x="575.59" y="720" font-size="11" fill="#555555" text-anchor="middle">22:00</text>
<line x1="650.29" y1="619.55" x2="650.29" y2="630.17" stroke="#2ecc71" stroke-width="2"/>
<rect x="628.63" y="620.96" width="43.33" height="9.21" fill="#2ecc71" stroke="#2ecc71" stroke-width="1"/>
<text x="650.29" y="704" font-size="11" fill="#555555" text-anchor="middle">11-09</text>
<text x="650.29" y="720" font-size="11" fill="#555555" text-anchor="middle">23:00</text>
<line x1="725.00" y1="315.74" x2="725.00" y2="625.21" stroke="#2ecc71" stroke-width="2"/>
<rect x="703.34" y="334.86" width="43.33" height="286.81" fill="#2ecc71" stroke="#2ecc71" stroke-width="1"/>
<text x="725.00" y="704" font-size="11" fill="#555555" text-anchor="middle">11-10</text>
<text x="725.00" y="720" font-size="11" fill="#555555" text-anchor="middle">00:00</text>
<line x1="799.71" y1="70.00" x2="799.71" y2="412.05" stroke="#e74c3c" stroke-width="2"/>
<rect x="778.04" y="332.03" width="43.33" height="58.78" fill="#e74c3c" stroke="#e74c3c" stroke-width="1"/>
<text x="799.71" y="704" font-size="11" fill="#555555" text-anchor="middle">11-10</text>
<text x="799.71" y="720" font-size="11" fill="#555555" text-anchor="middle">01:00</text>
<line x1="874.41" y1="328.49" x2="874.41" y2="446.04" stroke="#e74c3c" stroke-width="2"/>
<rect x="852.75" y="390.10" width="43.33" height="4.25" fill="#e74c3c" stroke="#e74c3c" stroke-width="1"/>
<text x="874.41" y="704" font-size="11" fill="#555555" text-anchor="middle">11-10</text>
<text x="874.41" y="720" font-size="11" fill="#555555" text-anchor="middle">02:00</text>
<line x1="949.12" y1="370.98" x2="949.12" y2="430.46" stroke="#e74c3c" stroke-width="2"/>
<rect x="927.45" y="394.35" width="43.33" height="32.58" fill="#e74c3c" stroke="#e74c3c" stroke-width="1"/>
<text x="949.12" y="704" font-size="11" fill="#555555" text-anchor="middle">11-10</text>
<text x="949.12" y="720" font-size="11" fill="#555555" text-anchor="middle">03:00</text>
<line x1="1023.82" y1="367.44" x2="1023.82" y2="441.09" stroke="#2ecc71" stroke-width="2"/>
<rect x="1002.16" y="392.93" width="43.33" height="33.99" fill="#2ecc71" stroke="#2ecc71" stroke-width="1"/>
<text x="1023.82" y="704" font-size="11" fill="#555555" text-anchor="middle">11-10</text>
<text x="1023.82" y="720" font-size="11" fill="#555555" text-anchor="middle">04:00</text>
<line x1="1098.53" y1="349.02" x2="1098.53" y2="457.37" stroke="#e74c3c" stroke-width="2"/>
<rect x="1076.86" y="394.35" width="43.33" height="57.36" fill="#e74c3c" stroke="#e74c3c" stroke-width="1"/>
<text x="1098.53" y="704" font-size="11" fill="#555555" text-anchor="middle">11-10</text>
<text x="1098.53" y="720" font-size="11" fill="#555555" text-anchor="middle">05:00</text>
<line x1="1173.24" y1="440.38" x2="1173.24" y2="490.66" stroke="#e74c3c" stroke-width="2"/>
<rect x="1151.57" y="452.42" width="43.33" height="24.08" fill="#e74c3c" stroke="#e74c3c" stroke-width="1"/>
<text x="1173.24" y="704" font-size="11" fill="#555555" text-anchor="middle">11-10</text>
<text x="1173.24" y="720" font-size="11" fill="#555555" text-anchor="middle">06:00</text>
<line x1="1247.94" y1="472.25" x2="1247.94" y2="497.74" stroke="#e74c3c" stroke-width="2"/>
<rect x="1226.28" y="475.79" width="43.33" height="9.91" fill="#e74c3c" stroke="#e74c3c" stroke-width="1"/>
<text x="1247.94" y="704" font-size="11" fill="#555555" text-anchor="middle">11-10</text>
<text x="1247.94" y="720" font-size="11" fill="#555555" text-anchor="middle">07:00</text>
<line x1="1322.65" y1="448.88" x2="1322.65" y2="494.20" stroke="#2ecc71" stroke-width="2"/>
<rect x="1300.98" y="468.00" width="43.33" height="19.83" fill="#2ecc71" stroke="#2ecc71" stroke-width="1"/>
<text x="1322.65" y="704" font-size="11" fill="#555555" text-anchor="middle">11-10</text>
<text x="1322.65" y="720" font-size="11" fill="#555555" text-anchor="middle">08:00</text>
<line x1="725.00" y1="315.74" x2="805.00" y2="245.74" stroke="#f1c40f" stroke-width="2"/>
<rect x="805.00" y="197.74" width="220" height="72" rx="8" fill="#fff8dc" stroke="#f1c40f"/>
<text x="815.00" y="221.74" font-size="12" fill="#111111">目标K线 2025-11-10 00:00</text>
<text x="815.00" y="239.74" font-size="12" fill="#111111">振幅 43.14%</text>
<text x="815.00" y="257.74" font-size="12" fill="#111111">倍数 28.79x</text>
<line x1="650.29" y1="619.55" x2="620.29" y2="579.55" stroke="#3498db" stroke-width="2"/>
<rect x="400.29" y="543.55" width="220" height="58" rx="8" fill="#eef6ff" stroke="#3498db"/>
<text x="410.29" y="565.55" font-size="12" fill="#111111">前一根涨幅 1.30%</text>
<text x="410.29" y="583.55" font-size="12" fill="#111111">前一根振幅 1.50%</text>
</svg>