<svg xmlns="http://www.w3.org/2000/svg" width="1400" height="760" viewBox="0 0 1400 760">
<rect width="100%" height="100%" fill="#fcfcfc"/>
<text x="90" y="36" font-size="26" font-weight="700" fill="#111111">TRADOOR_USDT 1H - 10倍命中</text>
<line x1="90" y1="70.00" x2="1360" y2="70.00" stroke="#d9d9d9" stroke-dasharray="4 4" stroke-width="1"/>
<text x="12" y="74.00" font-size="12" fill="#555555">2.229000</text>
<line x1="90" y1="186.00" x2="1360" y2="186.00" stroke="#d9d9d9" stroke-dasharray="4 4" stroke-width="1"/>
<text x="12" y="190.00" font-size="12" fill="#555555">2.067600</text>
<line x1="90" y1="302.00" x2="1360" y2="302.00" stroke="#d9d9d9" stroke-dasharray="4 4" stroke-width="1"/>
<text x="12" y="306.00" font-size="12" fill="#555555">1.906200</text>
<line x1="90" y1="418.00" x2="1360" y2="418.00" stroke="#d9d9d9" stroke-dasharray="4 4" stroke-width="1"/>
<text x="12" y="422.00" font-size="12" fill="#555555">1.744800</text>
<line x1="90" y1="534.00" x2="1360" y2="534.00" stroke="#d9d9d9" stroke-dasharray="4 4" stroke-width="1"/>
<text x="12" y="538.00" font-size="12" fill="#555555">1.583400</text>
<line x1="90" y1="650.00" x2="1360" y2="650.00" stroke="#d9d9d9" stroke-dasharray="4 4" stroke-width="1"/>
<text x="12" y="654.00" font-size="12" fill="#555555">1.422000</text>
<rect x="687.65" y="70" width="74.71" height="580.00" fill="#f1c40f" opacity="0.16"/>
<rect x="612.94" y="70" width="74.71" height="580.00" fill="#3498db" opacity="0.10"/>
<line x1="127.35" y1="629.88" x2="127.35" y2="650.00" stroke="#e74c3c" stroke-width="2"/>
<rect x="105.69" y="637.78" width="43.33" height="10.06" fill="#e74c3c" stroke="#e74c3c" stroke-width="1"/>
<text x="127.35" y="704" font-size="11" fill="#555555" text-anchor="middle">12-30</text>
<text x="127.35" y="720" font-size="11" fill="#555555" text-anchor="middle">14:00</text>
<line x1="202.06" y1="629.16" x2="202.06" y2="648.56" stroke="#2ecc71" stroke-width="2"/>
<rect x="180.39" y="636.34" width="43.33" height="12.22" fill="#2ecc71" stroke="#2ecc71" stroke-width="1"/>
<text x="202.06" y="704" font-size="11" fill="#555555" text-anchor="middle">12-30</text>
<text x="202.06" y="720" font-size="11" fill="#555555" text-anchor="middle">15:00</text>
<line x1="276.76" y1="636.34" x2="276.76" y2="645.69" stroke="#e74c3c" stroke-width="2"/>
<rect x="255.10" y="637.78" width="43.33" height="7.91" fill="#e74c3c" stroke="#e74c3c" stroke-width="1"/>
<text x="276.76" y="704" font-size="11" fill="#555555" text-anchor="middle">12-30</text>
<text x="276.76" y="720" font-size="11" fill="#555555" text-anchor="middle">16:00</text>
<line x1="351.47" y1="632.75" x2="351.47" y2="645.69" stroke="#2ecc71" stroke-width="2"/>
<rect x="329.81" y="634.91" width="43.33" height="10.06" fill="#2ecc71" stroke="#2ecc71" stroke-width="1"/>
<text x="351.47" y="704" font-size="11" fill="#555555" text-anchor="middle">12-30</text>
<text x="351.47" y="720" font-size="11" fill="#555555" text-anchor="middle">17:00</text>
<line x1="426.18" y1="631.31" x2="426.18" y2="642.81" stroke="#2ecc71" stroke-width="2"/>
<rect x="404.51" y="634.91" width="43.33" height="1.20" fill="#2ecc71" stroke="#2ecc71" stroke-width="1"/>
<text x="426.18" y="704" font-size="11" fill="#555555" text-anchor="middle">12-30</text>
<text x="426.18" y="720" font-size="11" fill="#555555" text-anchor="middle">18:00</text>
<line x1="500.88" y1="621.25" x2="500.88" y2="632.75" stroke="#2ecc71" stroke-width="2"/>
<rect x="479.22" y="623.41" width="43.33" height="8.62" fill="#2ecc71" stroke="#2ecc71" stroke-width="1"/>
<text x="500.88" y="704" font-size="11" fill="#555555" text-anchor="middle">12-30</text>
<text x="500.88" y="720" font-size="11" fill="#555555" text-anchor="middle">19:00</text>
<line x1="575.59" y1="606.16" x2="575.59" y2="626.28" stroke="#2ecc71" stroke-width="2"/>
<rect x="553.92" y="619.81" width="43.33" height="6.47" fill="#2ecc71" stroke="#2ecc71" stroke-width="1"/>
<text x="575.59" y="704" font-size="11" fill="#555555" text-anchor="middle">12-30</text>
<text x="575.59" y="720" font-size="11" fill="#555555" text-anchor="middle">20:00</text>
<line x1="650.29" y1="593.22" x2="650.29" y2="640.66" stroke="#2ecc71" stroke-width="2"/>
<rect x="628.63" y="601.85" width="43.33" height="21.56" fill="#2ecc71" stroke="#2ecc71" stroke-width="1"/>
<text x="650.29" y="704" font-size="11" fill="#555555" text-anchor="middle">12-30</text>
<text x="650.29" y="720" font-size="11" fill="#555555" text-anchor="middle">21:00</text>
<line x1="725.00" y1="70.00" x2="725.00" y2="608.31" stroke="#2ecc71" stroke-width="2"/>
<rect x="703.34" y="218.77" width="43.33" height="380.20" fill="#2ecc71" stroke="#2ecc71" stroke-width="1"/>
<text x="725.00" y="704" font-size="11" fill="#555555" text-anchor="middle">12-30</text>
<text x="725.00" y="720" font-size="11" fill="#555555" text-anchor="middle">22:00</text>
<line x1="799.71" y1="153.37" x2="799.71" y2="294.96" stroke="#2ecc71" stroke-width="2"/>
<rect x="778.04" y="188.59" width="43.33" height="33.78" fill="#2ecc71" stroke="#2ecc71" stroke-width="1"/>
<text x="799.71" y="704" font-size="11" fill="#555555" text-anchor="middle">12-30</text>
<text x="799.71" y="720" font-size="11" fill="#555555" text-anchor="middle">23:00</text>
<line x1="874.41" y1="170.62" x2="874.41" y2="294.96" stroke="#e74c3c" stroke-width="2"/>
<rect x="852.75" y="189.31" width="43.33" height="53.18" fill="#e74c3c" stroke="#e74c3c" stroke-width="1"/>
<text x="874.41" y="704" font-size="11" fill="#555555" text-anchor="middle">12-31</text>
<text x="874.41" y="720" font-size="11" fill="#555555" text-anchor="middle">00:00</text>
<line x1="949.12" y1="237.46" x2="949.12" y2="328.02" stroke="#e74c3c" stroke-width="2"/>
<rect x="927.45" y="243.21" width="43.33" height="46.00" fill="#e74c3c" stroke="#e74c3c" stroke-width="1"/>
<text x="949.12" y="704" font-size="11" fill="#555555" text-anchor="middle">12-31</text>
<text x="949.12" y="720" font-size="11" fill="#555555" text-anchor="middle">01:00</text>
<line x1="1023.82" y1="253.99" x2="1023.82" y2="301.43" stroke="#2ecc71" stroke-width="2"/>
<rect x="1002.16" y="283.46" width="43.33" height="6.47" fill="#2ecc71" stroke="#2ecc71" stroke-width="1"/>
<text x="1023.82" y="704" font-size="11" fill="#555555" text-anchor="middle">12-31</text>
<text x="1023.82" y="720" font-size="11" fill="#555555" text-anchor="middle">02:00</text>
<line x1="1098.53" y1="242.49" x2="1098.53" y2="289.93" stroke="#2ecc71" stroke-width="2"/>
<rect x="1076.86" y="269.08" width="43.33" height="12.94" fill="#2ecc71" stroke="#2ecc71" stroke-width="1"/>
<text x="1098.53" y="704" font-size="11" fill="#555555" text-anchor="middle">12-31</text>
<text x="1098.53" y="720" font-size="11" fill="#555555" text-anchor="middle">03:00</text>
<line x1="1173.24" y1="214.46" x2="1173.24" y2="273.40" stroke="#2ecc71" stroke-width="2"/>
<rect x="1151.57" y="250.40" width="43.33" height="17.97" fill="#2ecc71" stroke="#2ecc71" stroke-width="1"/>
<text x="1173.24" y="704" font-size="11" fill="#555555" text-anchor="middle">12-31</text>
<text x="1173.24" y="720" font-size="11" fill="#555555" text-anchor="middle">04:00</text>
<line x1="1247.94" y1="215.90" x2="1247.94" y2="250.40" stroke="#2ecc71" stroke-width="2"/>
<rect x="1226.28" y="222.37" width="43.33" height="28.03" fill="#2ecc71" stroke="#2ecc71" stroke-width="1"/>
<text x="1247.94" y="704" font-size="11" fill="#555555" text-anchor="middle">12-31</text>
<text x="1247.94" y="720" font-size="11" fill="#555555" text-anchor="middle">05:00</text>
<line x1="1322.65" y1="199.37" x2="1322.65" y2="246.80" stroke="#2ecc71" stroke-width="2"/>
<rect x="1300.98" y="215.90" width="43.33" height="7.91" fill="#2ecc71" stroke="#2ecc71" stroke-width="1"/>
<text x="1322.65" y="704" font-size="11" fill="#555555" text-anchor="middle">12-31</text>
<text x="1322.65" y="720" font-size="11" fill="#555555" text-anchor="middle">06:00</text>
<line x1="725.00" y1="70.00" x2="805.00" y2="90.00" stroke="#f1c40f" stroke-width="2"/>
<rect x="805.00" y="42.00" width="220" height="72" rx="8" fill="#fff8dc" stroke="#f1c40f"/>
<text x="815.00" y="66.00" font-size="12" fill="#111111">目标K线 2025-12-30 22:00</text>
<text x="815.00" y="84.00" font-size="12" fill="#111111">振幅 50.17%</text>
<text x="815.00" y="102.00" font-size="12" fill="#111111">倍数 11.09x</text>
<line x1="650.29" y1="593.22" x2="620.29" y2="553.22" stroke="#3498db" stroke-width="2"/>
<rect x="400.29" y="517.22" width="220" height="58" rx="8" fill="#eef6ff" stroke="#3498db"/>
<text x="410.29" y="539.22" font-size="12" fill="#111111">前一根涨幅 2.06%</text>
<text x="410.29" y="557.22" font-size="12" fill="#111111">前一根振幅 4.52%</text>
</svg>