<svg xmlns="http://www.w3.org/2000/svg" width="1400" height="760" viewBox="0 0 1400 760">
<rect width="100%" height="100%" fill="#fcfcfc"/>
<text x="90" y="36" font-size="26" font-weight="700" fill="#111111">TREE_USDT 1H - 10倍命中</text>
<line x1="90" y1="70.00" x2="1360" y2="70.00" stroke="#d9d9d9" stroke-dasharray="4 4" stroke-width="1"/>
<text x="12" y="74.00" font-size="12" fill="#555555">0.076400</text>
<line x1="90" y1="186.00" x2="1360" y2="186.00" stroke="#d9d9d9" stroke-dasharray="4 4" stroke-width="1"/>
<text x="12" y="190.00" font-size="12" fill="#555555">0.073522</text>
<line x1="90" y1="302.00" x2="1360" y2="302.00" stroke="#d9d9d9" stroke-dasharray="4 4" stroke-width="1"/>
<text x="12" y="306.00" font-size="12" fill="#555555">0.070644</text>
<line x1="90" y1="418.00" x2="1360" y2="418.00" stroke="#d9d9d9" stroke-dasharray="4 4" stroke-width="1"/>
<text x="12" y="422.00" font-size="12" fill="#555555">0.067766</text>
<line x1="90" y1="534.00" x2="1360" y2="534.00" stroke="#d9d9d9" stroke-dasharray="4 4" stroke-width="1"/>
<text x="12" y="538.00" font-size="12" fill="#555555">0.064888</text>
<line x1="90" y1="650.00" x2="1360" y2="650.00" stroke="#d9d9d9" stroke-dasharray="4 4" stroke-width="1"/>
<text x="12" y="654.00" font-size="12" fill="#555555">0.062010</text>
<rect x="687.65" y="70" width="74.71" height="580.00" fill="#f1c40f" opacity="0.16"/>
<rect x="612.94" y="70" width="74.71" height="580.00" fill="#3498db" opacity="0.10"/>
<line x1="127.35" y1="626.62" x2="127.35" y2="650.00" stroke="#2ecc71" stroke-width="2"/>
<rect x="105.69" y="643.95" width="43.33" height="1.20" fill="#2ecc71" stroke="#2ecc71" stroke-width="1"/>
<text x="127.35" y="704" font-size="11" fill="#555555" text-anchor="middle">04-14</text>
<text x="127.35" y="720" font-size="11" fill="#555555" text-anchor="middle">07:00</text>
<line x1="202.06" y1="517.39" x2="202.06" y2="643.95" stroke="#2ecc71" stroke-width="2"/>
<rect x="180.39" y="561.73" width="43.33" height="82.22" fill="#2ecc71" stroke="#2ecc71" stroke-width="1"/>
<text x="202.06" y="704" font-size="11" fill="#555555" text-anchor="middle">04-14</text>
<text x="202.06" y="720" font-size="11" fill="#555555" text-anchor="middle">08:00</text>
<line x1="276.76" y1="479.51" x2="276.76" y2="566.16" stroke="#2ecc71" stroke-width="2"/>
<rect x="255.10" y="506.51" width="43.33" height="59.25" fill="#2ecc71" stroke="#2ecc71" stroke-width="1"/>
<text x="276.76" y="704" font-size="11" fill="#555555" text-anchor="middle">04-14</text>
<text x="276.76" y="720" font-size="11" fill="#555555" text-anchor="middle">09:00</text>
<line x1="351.47" y1="475.88" x2="351.47" y2="620.98" stroke="#e74c3c" stroke-width="2"/>
<rect x="329.81" y="507.32" width="43.33" height="45.14" fill="#e74c3c" stroke="#e74c3c" stroke-width="1"/>
<text x="351.47" y="704" font-size="11" fill="#555555" text-anchor="middle">04-14</text>
<text x="351.47" y="720" font-size="11" fill="#555555" text-anchor="middle">10:00</text>
<line x1="426.18" y1="530.29" x2="426.18" y2="625.01" stroke="#e74c3c" stroke-width="2"/>
<rect x="404.51" y="552.46" width="43.33" height="49.58" fill="#e74c3c" stroke="#e74c3c" stroke-width="1"/>
<text x="426.18" y="704" font-size="11" fill="#555555" text-anchor="middle">04-14</text>
<text x="426.18" y="720" font-size="11" fill="#555555" text-anchor="middle">11:00</text>
<line x1="500.88" y1="583.50" x2="500.88" y2="620.17" stroke="#2ecc71" stroke-width="2"/>
<rect x="479.22" y="599.62" width="43.33" height="2.42" fill="#2ecc71" stroke="#2ecc71" stroke-width="1"/>
<text x="500.88" y="704" font-size="11" fill="#555555" text-anchor="middle">04-14</text>
<text x="500.88" y="720" font-size="11" fill="#555555" text-anchor="middle">12:00</text>
<line x1="575.59" y1="549.64" x2="575.59" y2="597.60" stroke="#2ecc71" stroke-width="2"/>
<rect x="553.92" y="564.55" width="43.33" height="33.05" fill="#2ecc71" stroke="#2ecc71" stroke-width="1"/>
<text x="575.59" y="704" font-size="11" fill="#555555" text-anchor="middle">04-14</text>
<text x="575.59" y="720" font-size="11" fill="#555555" text-anchor="middle">13:00</text>
<line x1="650.29" y1="529.49" x2="650.29" y2="572.61" stroke="#2ecc71" stroke-width="2"/>
<rect x="628.63" y="535.13" width="43.33" height="36.68" fill="#2ecc71" stroke="#2ecc71" stroke-width="1"/>
<text x="650.29" y="704" font-size="11" fill="#555555" text-anchor="middle">04-14</text>
<text x="650.29" y="720" font-size="11" fill="#555555" text-anchor="middle">14:00</text>
<line x1="725.00" y1="70.00" x2="725.00" y2="533.52" stroke="#2ecc71" stroke-width="2"/>
<rect x="703.34" y="265.08" width="43.33" height="268.44" fill="#2ecc71" stroke="#2ecc71" stroke-width="1"/>
<text x="725.00" y="704" font-size="11" fill="#555555" text-anchor="middle">04-14</text>
<text x="725.00" y="720" font-size="11" fill="#555555" text-anchor="middle">15:00</text>
<line x1="799.71" y1="262.66" x2="799.71" y2="372.70" stroke="#e74c3c" stroke-width="2"/>
<rect x="778.04" y="263.87" width="43.33" height="65.30" fill="#e74c3c" stroke="#e74c3c" stroke-width="1"/>
<text x="799.71" y="704" font-size="11" fill="#555555" text-anchor="middle">04-14</text>
<text x="799.71" y="720" font-size="11" fill="#555555" text-anchor="middle">16:00</text>
<line x1="874.41" y1="296.92" x2="874.41" y2="429.12" stroke="#e74c3c" stroke-width="2"/>
<rect x="852.75" y="329.97" width="43.33" height="58.04" fill="#e74c3c" stroke="#e74c3c" stroke-width="1"/>
<text x="874.41" y="704" font-size="11" fill="#555555" text-anchor="middle">04-14</text>
<text x="874.41" y="720" font-size="11" fill="#555555" text-anchor="middle">17:00</text>
<line x1="949.12" y1="389.22" x2="949.12" y2="428.32" stroke="#e74c3c" stroke-width="2"/>
<rect x="927.45" y="390.03" width="43.33" height="15.72" fill="#e74c3c" stroke="#e74c3c" stroke-width="1"/>
<text x="949.12" y="704" font-size="11" fill="#555555" text-anchor="middle">04-14</text>
<text x="949.12" y="720" font-size="11" fill="#555555" text-anchor="middle">18:00</text>
<line x1="1023.82" y1="377.53" x2="1023.82" y2="479.10" stroke="#e74c3c" stroke-width="2"/>
<rect x="1002.16" y="402.12" width="43.33" height="8.06" fill="#e74c3c" stroke="#e74c3c" stroke-width="1"/>
<text x="1023.82" y="704" font-size="11" fill="#555555" text-anchor="middle">04-14</text>
<text x="1023.82" y="720" font-size="11" fill="#555555" text-anchor="middle">19:00</text>
<line x1="1098.53" y1="404.94" x2="1098.53" y2="432.75" stroke="#e74c3c" stroke-width="2"/>
<rect x="1076.86" y="419.85" width="43.33" height="2.42" fill="#e74c3c" stroke="#e74c3c" stroke-width="1"/>
<text x="1098.53" y="704" font-size="11" fill="#555555" text-anchor="middle">04-14</text>
<text x="1098.53" y="720" font-size="11" fill="#555555" text-anchor="middle">20:00</text>
<line x1="1173.24" y1="333.20" x2="1173.24" y2="436.38" stroke="#2ecc71" stroke-width="2"/>
<rect x="1151.57" y="421.87" width="43.33" height="4.03" fill="#2ecc71" stroke="#2ecc71" stroke-width="1"/>
<text x="1173.24" y="704" font-size="11" fill="#555555" text-anchor="middle">04-14</text>
<text x="1173.24" y="720" font-size="11" fill="#555555" text-anchor="middle">21:00</text>
<line x1="1247.94" y1="420.66" x2="1247.94" y2="454.52" stroke="#e74c3c" stroke-width="2"/>
<rect x="1226.28" y="433.15" width="43.33" height="1.61" fill="#e74c3c" stroke="#e74c3c" stroke-width="1"/>
<text x="1247.94" y="704" font-size="11" fill="#555555" text-anchor="middle">04-14</text>
<text x="1247.94" y="720" font-size="11" fill="#555555" text-anchor="middle">22:00</text>
<line x1="1322.65" y1="422.27" x2="1322.65" y2="472.65" stroke="#e74c3c" stroke-width="2"/>
<rect x="1300.98" y="437.19" width="43.33" height="1.21" fill="#e74c3c" stroke="#e74c3c" stroke-width="1"/>
<text x="1322.65" y="704" font-size="11" fill="#555555" text-anchor="middle">04-14</text>
<text x="1322.65" y="720" font-size="11" fill="#555555" text-anchor="middle">23:00</text>
<line x1="725.00" y1="70.00" x2="805.00" y2="90.00" stroke="#f1c40f" stroke-width="2"/>
<rect x="805.00" y="42.00" width="220" height="72" rx="8" fill="#fff8dc" stroke="#f1c40f"/>
<text x="815.00" y="66.00" font-size="12" fill="#111111">目标K线 2026-04-14 15:00</text>
<text x="815.00" y="84.00" font-size="12" fill="#111111">振幅 17.72%</text>
<text x="815.00" y="102.00" font-size="12" fill="#111111">倍数 10.59x</text>
<line x1="650.29" y1="529.49" x2="620.29" y2="489.49" stroke="#3498db" stroke-width="2"/>
<rect x="400.29" y="453.49" width="220" height="58" rx="8" fill="#eef6ff" stroke="#3498db"/>
<text x="410.29" y="475.49" font-size="12" fill="#111111">前一根涨幅 1.42%</text>
<text x="410.29" y="493.49" font-size="12" fill="#111111">前一根振幅 1.67%</text>
</svg>