<svg xmlns="http://www.w3.org/2000/svg" width="1400" height="760" viewBox="0 0 1400 760">
<rect width="100%" height="100%" fill="#fcfcfc"/>
<text x="90" y="36" font-size="26" font-weight="700" fill="#111111">TUT_USDT 1H - 10倍命中</text>
<line x1="90" y1="70.00" x2="1360" y2="70.00" stroke="#d9d9d9" stroke-dasharray="4 4" stroke-width="1"/>
<text x="12" y="74.00" font-size="12" fill="#555555">0.052330</text>
<line x1="90" y1="186.00" x2="1360" y2="186.00" stroke="#d9d9d9" stroke-dasharray="4 4" stroke-width="1"/>
<text x="12" y="190.00" font-size="12" fill="#555555">0.045010</text>
<line x1="90" y1="302.00" x2="1360" y2="302.00" stroke="#d9d9d9" stroke-dasharray="4 4" stroke-width="1"/>
<text x="12" y="306.00" font-size="12" fill="#555555">0.037690</text>
<line x1="90" y1="418.00" x2="1360" y2="418.00" stroke="#d9d9d9" stroke-dasharray="4 4" stroke-width="1"/>
<text x="12" y="422.00" font-size="12" fill="#555555">0.030370</text>
<line x1="90" y1="534.00" x2="1360" y2="534.00" stroke="#d9d9d9" stroke-dasharray="4 4" stroke-width="1"/>
<text x="12" y="538.00" font-size="12" fill="#555555">0.023050</text>
<line x1="90" y1="650.00" x2="1360" y2="650.00" stroke="#d9d9d9" stroke-dasharray="4 4" stroke-width="1"/>
<text x="12" y="654.00" font-size="12" fill="#555555">0.015730</text>
<rect x="687.65" y="70" width="74.71" height="580.00" fill="#f1c40f" opacity="0.16"/>
<rect x="612.94" y="70" width="74.71" height="580.00" fill="#3498db" opacity="0.10"/>
<line x1="127.35" y1="631.78" x2="127.35" y2="648.26" stroke="#e74c3c" stroke-width="2"/>
<rect x="105.69" y="634.47" width="43.33" height="11.57" fill="#e74c3c" stroke="#e74c3c" stroke-width="1"/>
<text x="127.35" y="704" font-size="11" fill="#555555" text-anchor="middle">03-27</text>
<text x="127.35" y="720" font-size="11" fill="#555555" text-anchor="middle">17:00</text>
<line x1="202.06" y1="637.32" x2="202.06" y2="647.31" stroke="#2ecc71" stroke-width="2"/>
<rect x="180.39" y="640.17" width="43.33" height="6.34" fill="#2ecc71" stroke="#2ecc71" stroke-width="1"/>
<text x="202.06" y="704" font-size="11" fill="#555555" text-anchor="middle">03-27</text>
<text x="202.06" y="720" font-size="11" fill="#555555" text-anchor="middle">18:00</text>
<line x1="276.76" y1="636.21" x2="276.76" y2="641.92" stroke="#2ecc71" stroke-width="2"/>
<rect x="255.10" y="638.75" width="43.33" height="2.06" fill="#2ecc71" stroke="#2ecc71" stroke-width="1"/>
<text x="276.76" y="704" font-size="11" fill="#555555" text-anchor="middle">03-27</text>
<text x="276.76" y="720" font-size="11" fill="#555555" text-anchor="middle">19:00</text>
<line x1="351.47" y1="638.59" x2="351.47" y2="643.82" stroke="#e74c3c" stroke-width="2"/>
<rect x="329.81" y="639.54" width="43.33" height="1.20" fill="#e74c3c" stroke="#e74c3c" stroke-width="1"/>
<text x="351.47" y="704" font-size="11" fill="#555555" text-anchor="middle">03-27</text>
<text x="351.47" y="720" font-size="11" fill="#555555" text-anchor="middle">20:00</text>
<line x1="426.18" y1="639.07" x2="426.18" y2="650.00" stroke="#2ecc71" stroke-width="2"/>
<rect x="404.51" y="640.17" width="43.33" height="1.20" fill="#2ecc71" stroke="#2ecc71" stroke-width="1"/>
<text x="426.18" y="704" font-size="11" fill="#555555" text-anchor="middle">03-27</text>
<text x="426.18" y="720" font-size="11" fill="#555555" text-anchor="middle">21:00</text>
<line x1="500.88" y1="635.42" x2="500.88" y2="643.82" stroke="#2ecc71" stroke-width="2"/>
<rect x="479.22" y="637.64" width="43.33" height="2.69" fill="#2ecc71" stroke="#2ecc71" stroke-width="1"/>
<text x="500.88" y="704" font-size="11" fill="#555555" text-anchor="middle">03-27</text>
<text x="500.88" y="720" font-size="11" fill="#555555" text-anchor="middle">22:00</text>
<line x1="575.59" y1="636.53" x2="575.59" y2="646.51" stroke="#e74c3c" stroke-width="2"/>
<rect x="553.92" y="638.11" width="43.33" height="8.24" fill="#e74c3c" stroke="#e74c3c" stroke-width="1"/>
<text x="575.59" y="704" font-size="11" fill="#555555" text-anchor="middle">03-27</text>
<text x="575.59" y="720" font-size="11" fill="#555555" text-anchor="middle">23:00</text>
<line x1="650.29" y1="637.32" x2="650.29" y2="646.04" stroke="#2ecc71" stroke-width="2"/>
<rect x="628.63" y="638.11" width="43.33" height="7.77" fill="#2ecc71" stroke="#2ecc71" stroke-width="1"/>
<text x="650.29" y="704" font-size="11" fill="#555555" text-anchor="middle">03-28</text>
<text x="650.29" y="720" font-size="11" fill="#555555" text-anchor="middle">00:00</text>
<line x1="725.00" y1="170.63" x2="725.00" y2="643.19" stroke="#2ecc71" stroke-width="2"/>
<rect x="703.34" y="225.93" width="43.33" height="411.70" fill="#2ecc71" stroke="#2ecc71" stroke-width="1"/>
<text x="725.00" y="704" font-size="11" fill="#555555" text-anchor="middle">03-28</text>
<text x="725.00" y="720" font-size="11" fill="#555555" text-anchor="middle">01:00</text>
<line x1="799.71" y1="77.61" x2="799.71" y2="231.16" stroke="#2ecc71" stroke-width="2"/>
<rect x="778.04" y="127.21" width="43.33" height="99.04" fill="#2ecc71" stroke="#2ecc71" stroke-width="1"/>
<text x="799.71" y="704" font-size="11" fill="#555555" text-anchor="middle">03-28</text>
<text x="799.71" y="720" font-size="11" fill="#555555" text-anchor="middle">02:00</text>
<line x1="874.41" y1="70.00" x2="874.41" y2="152.25" stroke="#2ecc71" stroke-width="2"/>
<rect x="852.75" y="102.17" width="43.33" height="24.09" fill="#2ecc71" stroke="#2ecc71" stroke-width="1"/>
<text x="874.41" y="704" font-size="11" fill="#555555" text-anchor="middle">03-28</text>
<text x="874.41" y="720" font-size="11" fill="#555555" text-anchor="middle">03:00</text>
<line x1="949.12" y1="94.25" x2="949.12" y2="174.59" stroke="#e74c3c" stroke-width="2"/>
<rect x="927.45" y="101.85" width="43.33" height="54.51" fill="#e74c3c" stroke="#e74c3c" stroke-width="1"/>
<text x="949.12" y="704" font-size="11" fill="#555555" text-anchor="middle">03-28</text>
<text x="949.12" y="720" font-size="11" fill="#555555" text-anchor="middle">04:00</text>
<line x1="1023.82" y1="148.76" x2="1023.82" y2="293.60" stroke="#e74c3c" stroke-width="2"/>
<rect x="1002.16" y="157.48" width="43.33" height="79.23" fill="#e74c3c" stroke="#e74c3c" stroke-width="1"/>
<text x="1023.82" y="704" font-size="11" fill="#555555" text-anchor="middle">03-28</text>
<text x="1023.82" y="720" font-size="11" fill="#555555" text-anchor="middle">05:00</text>
<line x1="1098.53" y1="146.86" x2="1098.53" y2="254.14" stroke="#2ecc71" stroke-width="2"/>
<rect x="1076.86" y="225.14" width="43.33" height="11.73" fill="#2ecc71" stroke="#2ecc71" stroke-width="1"/>
<text x="1098.53" y="704" font-size="11" fill="#555555" text-anchor="middle">03-28</text>
<text x="1098.53" y="720" font-size="11" fill="#555555" text-anchor="middle">06:00</text>
<line x1="1173.24" y1="147.97" x2="1173.24" y2="233.07" stroke="#2ecc71" stroke-width="2"/>
<rect x="1151.57" y="165.24" width="43.33" height="61.49" fill="#2ecc71" stroke="#2ecc71" stroke-width="1"/>
<text x="1173.24" y="704" font-size="11" fill="#555555" text-anchor="middle">03-28</text>
<text x="1173.24" y="720" font-size="11" fill="#555555" text-anchor="middle">07:00</text>
<line x1="1247.94" y1="150.50" x2="1247.94" y2="228.15" stroke="#e74c3c" stroke-width="2"/>
<rect x="1226.28" y="168.41" width="43.33" height="1.20" fill="#e74c3c" stroke="#e74c3c" stroke-width="1"/>
<text x="1247.94" y="704" font-size="11" fill="#555555" text-anchor="middle">03-28</text>
<text x="1247.94" y="720" font-size="11" fill="#555555" text-anchor="middle">08:00</text>
<line x1="1322.65" y1="105.02" x2="1322.65" y2="189.17" stroke="#2ecc71" stroke-width="2"/>
<rect x="1300.98" y="160.80" width="43.33" height="9.51" fill="#2ecc71" stroke="#2ecc71" stroke-width="1"/>
<text x="1322.65" y="704" font-size="11" fill="#555555" text-anchor="middle">03-28</text>
<text x="1322.65" y="720" font-size="11" fill="#555555" text-anchor="middle">09:00</text>
<line x1="725.00" y1="170.63" x2="805.00" y2="100.63" stroke="#f1c40f" stroke-width="2"/>
<rect x="805.00" y="52.63" width="220" height="72" rx="8" fill="#fff8dc" stroke="#f1c40f"/>
<text x="815.00" y="76.63" font-size="12" fill="#111111">目标K线 2025-03-28 01:00</text>
<text x="815.00" y="94.63" font-size="12" fill="#111111">振幅 180.62%</text>
<text x="815.00" y="112.63" font-size="12" fill="#111111">倍数 52.51x</text>
<line x1="650.29" y1="637.32" x2="620.29" y2="597.32" stroke="#3498db" stroke-width="2"/>
<rect x="400.29" y="561.32" width="220" height="58" rx="8" fill="#eef6ff" stroke="#3498db"/>
<text x="410.29" y="583.32" font-size="12" fill="#111111">前一根涨幅 3.06%</text>
<text x="410.29" y="601.32" font-size="12" fill="#111111">前一根振幅 3.44%</text>
</svg>