<svg xmlns="http://www.w3.org/2000/svg" width="1400" height="760" viewBox="0 0 1400 760">
<rect width="100%" height="100%" fill="#fcfcfc"/>
<text x="90" y="36" font-size="26" font-weight="700" fill="#111111">USTC_USDT 1H - 10倍命中</text>
<line x1="90" y1="70.00" x2="1360" y2="70.00" stroke="#d9d9d9" stroke-dasharray="4 4" stroke-width="1"/>
<text x="12" y="74.00" font-size="12" fill="#555555">0.005352</text>
<line x1="90" y1="186.00" x2="1360" y2="186.00" stroke="#d9d9d9" stroke-dasharray="4 4" stroke-width="1"/>
<text x="12" y="190.00" font-size="12" fill="#555555">0.005151</text>
<line x1="90" y1="302.00" x2="1360" y2="302.00" stroke="#d9d9d9" stroke-dasharray="4 4" stroke-width="1"/>
<text x="12" y="306.00" font-size="12" fill="#555555">0.004950</text>
<line x1="90" y1="418.00" x2="1360" y2="418.00" stroke="#d9d9d9" stroke-dasharray="4 4" stroke-width="1"/>
<text x="12" y="422.00" font-size="12" fill="#555555">0.004750</text>
<line x1="90" y1="534.00" x2="1360" y2="534.00" stroke="#d9d9d9" stroke-dasharray="4 4" stroke-width="1"/>
<text x="12" y="538.00" font-size="12" fill="#555555">0.004549</text>
<line x1="90" y1="650.00" x2="1360" y2="650.00" stroke="#d9d9d9" stroke-dasharray="4 4" stroke-width="1"/>
<text x="12" y="654.00" font-size="12" fill="#555555">0.004348</text>
<rect x="687.65" y="70" width="74.71" height="580.00" fill="#f1c40f" opacity="0.16"/>
<rect x="612.94" y="70" width="74.71" height="580.00" fill="#3498db" opacity="0.10"/>
<line x1="127.35" y1="607.25" x2="127.35" y2="648.27" stroke="#e74c3c" stroke-width="2"/>
<rect x="105.69" y="630.94" width="43.33" height="17.33" fill="#e74c3c" stroke="#e74c3c" stroke-width="1"/>
<text x="127.35" y="704" font-size="11" fill="#555555" text-anchor="middle">04-03</text>
<text x="127.35" y="720" font-size="11" fill="#555555" text-anchor="middle">20:00</text>
<line x1="202.06" y1="611.87" x2="202.06" y2="650.00" stroke="#2ecc71" stroke-width="2"/>
<rect x="180.39" y="617.07" width="43.33" height="27.73" fill="#2ecc71" stroke="#2ecc71" stroke-width="1"/>
<text x="202.06" y="704" font-size="11" fill="#555555" text-anchor="middle">04-03</text>
<text x="202.06" y="720" font-size="11" fill="#555555" text-anchor="middle">21:00</text>
<line x1="276.76" y1="603.21" x2="276.76" y2="610.14" stroke="#2ecc71" stroke-width="2"/>
<rect x="255.10" y="603.21" width="43.33" height="6.93" fill="#2ecc71" stroke="#2ecc71" stroke-width="1"/>
<text x="276.76" y="704" font-size="11" fill="#555555" text-anchor="middle">04-03</text>
<text x="276.76" y="720" font-size="11" fill="#555555" text-anchor="middle">22:00</text>
<line x1="351.47" y1="561.04" x2="351.47" y2="617.65" stroke="#2ecc71" stroke-width="2"/>
<rect x="329.81" y="593.39" width="43.33" height="21.37" fill="#2ecc71" stroke="#2ecc71" stroke-width="1"/>
<text x="351.47" y="704" font-size="11" fill="#555555" text-anchor="middle">04-03</text>
<text x="351.47" y="720" font-size="11" fill="#555555" text-anchor="middle">23:00</text>
<line x1="426.18" y1="585.30" x2="426.18" y2="611.87" stroke="#e74c3c" stroke-width="2"/>
<rect x="404.51" y="585.88" width="43.33" height="24.26" fill="#e74c3c" stroke="#e74c3c" stroke-width="1"/>
<text x="426.18" y="704" font-size="11" fill="#555555" text-anchor="middle">04-04</text>
<text x="426.18" y="720" font-size="11" fill="#555555" text-anchor="middle">00:00</text>
<line x1="500.88" y1="592.23" x2="500.88" y2="599.74" stroke="#e74c3c" stroke-width="2"/>
<rect x="479.22" y="594.54" width="43.33" height="5.20" fill="#e74c3c" stroke="#e74c3c" stroke-width="1"/>
<text x="500.88" y="704" font-size="11" fill="#555555" text-anchor="middle">04-04</text>
<text x="500.88" y="720" font-size="11" fill="#555555" text-anchor="middle">01:00</text>
<line x1="575.59" y1="585.88" x2="575.59" y2="595.12" stroke="#2ecc71" stroke-width="2"/>
<rect x="553.92" y="589.92" width="43.33" height="4.04" fill="#2ecc71" stroke="#2ecc71" stroke-width="1"/>
<text x="575.59" y="704" font-size="11" fill="#555555" text-anchor="middle">04-04</text>
<text x="575.59" y="720" font-size="11" fill="#555555" text-anchor="middle">02:00</text>
<line x1="650.29" y1="563.35" x2="650.29" y2="603.21" stroke="#2ecc71" stroke-width="2"/>
<rect x="628.63" y="563.35" width="43.33" height="39.86" fill="#2ecc71" stroke="#2ecc71" stroke-width="1"/>
<text x="650.29" y="704" font-size="11" fill="#555555" text-anchor="middle">04-04</text>
<text x="650.29" y="720" font-size="11" fill="#555555" text-anchor="middle">03:00</text>
<line x1="725.00" y1="70.00" x2="725.00" y2="562.77" stroke="#2ecc71" stroke-width="2"/>
<rect x="703.34" y="349.60" width="43.33" height="213.17" fill="#2ecc71" stroke="#2ecc71" stroke-width="1"/>
<text x="725.00" y="704" font-size="11" fill="#555555" text-anchor="middle">04-04</text>
<text x="725.00" y="720" font-size="11" fill="#555555" text-anchor="middle">04:00</text>
<line x1="799.71" y1="350.76" x2="799.71" y2="514.24" stroke="#e74c3c" stroke-width="2"/>
<rect x="778.04" y="354.80" width="43.33" height="145.58" fill="#e74c3c" stroke="#e74c3c" stroke-width="1"/>
<text x="799.71" y="704" font-size="11" fill="#555555" text-anchor="middle">04-04</text>
<text x="799.71" y="720" font-size="11" fill="#555555" text-anchor="middle">05:00</text>
<line x1="874.41" y1="496.91" x2="874.41" y2="552.95" stroke="#e74c3c" stroke-width="2"/>
<rect x="852.75" y="501.53" width="43.33" height="33.51" fill="#e74c3c" stroke="#e74c3c" stroke-width="1"/>
<text x="874.41" y="704" font-size="11" fill="#555555" text-anchor="middle">04-04</text>
<text x="874.41" y="720" font-size="11" fill="#555555" text-anchor="middle">06:00</text>
<line x1="949.12" y1="512.51" x2="949.12" y2="568.55" stroke="#e74c3c" stroke-width="2"/>
<rect x="927.45" y="534.46" width="43.33" height="33.51" fill="#e74c3c" stroke="#e74c3c" stroke-width="1"/>
<text x="949.12" y="704" font-size="11" fill="#555555" text-anchor="middle">04-04</text>
<text x="949.12" y="720" font-size="11" fill="#555555" text-anchor="middle">07:00</text>
<line x1="1023.82" y1="548.33" x2="1023.82" y2="586.45" stroke="#2ecc71" stroke-width="2"/>
<rect x="1002.16" y="553.53" width="43.33" height="17.33" fill="#2ecc71" stroke="#2ecc71" stroke-width="1"/>
<text x="1023.82" y="704" font-size="11" fill="#555555" text-anchor="middle">04-04</text>
<text x="1023.82" y="720" font-size="11" fill="#555555" text-anchor="middle">08:00</text>
<line x1="1098.53" y1="526.95" x2="1098.53" y2="555.26" stroke="#2ecc71" stroke-width="2"/>
<rect x="1076.86" y="531.00" width="43.33" height="22.53" fill="#2ecc71" stroke="#2ecc71" stroke-width="1"/>
<text x="1098.53" y="704" font-size="11" fill="#555555" text-anchor="middle">04-04</text>
<text x="1098.53" y="720" font-size="11" fill="#555555" text-anchor="middle">09:00</text>
<line x1="1173.24" y1="520.60" x2="1173.24" y2="546.02" stroke="#e74c3c" stroke-width="2"/>
<rect x="1151.57" y="526.37" width="43.33" height="19.64" fill="#e74c3c" stroke="#e74c3c" stroke-width="1"/>
<text x="1173.24" y="704" font-size="11" fill="#555555" text-anchor="middle">04-04</text>
<text x="1173.24" y="720" font-size="11" fill="#555555" text-anchor="middle">10:00</text>
<line x1="1247.94" y1="526.95" x2="1247.94" y2="540.24" stroke="#2ecc71" stroke-width="2"/>
<rect x="1226.28" y="526.95" width="43.33" height="11.55" fill="#2ecc71" stroke="#2ecc71" stroke-width="1"/>
<text x="1247.94" y="704" font-size="11" fill="#555555" text-anchor="middle">04-04</text>
<text x="1247.94" y="720" font-size="11" fill="#555555" text-anchor="middle">11:00</text>
<line x1="1322.65" y1="514.82" x2="1322.65" y2="562.19" stroke="#e74c3c" stroke-width="2"/>
<rect x="1300.98" y="537.93" width="43.33" height="24.26" fill="#e74c3c" stroke="#e74c3c" stroke-width="1"/>
<text x="1322.65" y="704" font-size="11" fill="#555555" text-anchor="middle">04-04</text>
<text x="1322.65" y="720" font-size="11" fill="#555555" text-anchor="middle">12:00</text>
<line x1="725.00" y1="70.00" x2="805.00" y2="90.00" stroke="#f1c40f" stroke-width="2"/>
<rect x="805.00" y="42.00" width="220" height="72" rx="8" fill="#fff8dc" stroke="#f1c40f"/>
<text x="815.00" y="66.00" font-size="12" fill="#111111">目标K线 2026-04-04 04:00</text>
<text x="815.00" y="84.00" font-size="12" fill="#111111">振幅 18.96%</text>
<text x="815.00" y="102.00" font-size="12" fill="#111111">倍数 12.17x</text>
<line x1="650.29" y1="563.35" x2="620.29" y2="523.35" stroke="#3498db" stroke-width="2"/>
<rect x="400.29" y="487.35" width="220" height="58" rx="8" fill="#eef6ff" stroke="#3498db"/>
<text x="410.29" y="509.35" font-size="12" fill="#111111">前一根涨幅 1.56%</text>
<text x="410.29" y="527.35" font-size="12" fill="#111111">前一根振幅 1.56%</text>
</svg>