<svg xmlns="http://www.w3.org/2000/svg" width="1400" height="760" viewBox="0 0 1400 760">
<rect width="100%" height="100%" fill="#fcfcfc"/>
<text x="90" y="36" font-size="26" font-weight="700" fill="#111111">VIC_USDT 1H - 10倍命中</text>
<line x1="90" y1="70.00" x2="1360" y2="70.00" stroke="#d9d9d9" stroke-dasharray="4 4" stroke-width="1"/>
<text x="12" y="74.00" font-size="12" fill="#555555">0.528800</text>
<line x1="90" y1="186.00" x2="1360" y2="186.00" stroke="#d9d9d9" stroke-dasharray="4 4" stroke-width="1"/>
<text x="12" y="190.00" font-size="12" fill="#555555">0.482600</text>
<line x1="90" y1="302.00" x2="1360" y2="302.00" stroke="#d9d9d9" stroke-dasharray="4 4" stroke-width="1"/>
<text x="12" y="306.00" font-size="12" fill="#555555">0.436400</text>
<line x1="90" y1="418.00" x2="1360" y2="418.00" stroke="#d9d9d9" stroke-dasharray="4 4" stroke-width="1"/>
<text x="12" y="422.00" font-size="12" fill="#555555">0.390200</text>
<line x1="90" y1="534.00" x2="1360" y2="534.00" stroke="#d9d9d9" stroke-dasharray="4 4" stroke-width="1"/>
<text x="12" y="538.00" font-size="12" fill="#555555">0.344000</text>
<line x1="90" y1="650.00" x2="1360" y2="650.00" stroke="#d9d9d9" stroke-dasharray="4 4" stroke-width="1"/>
<text x="12" y="654.00" font-size="12" fill="#555555">0.297800</text>
<rect x="687.65" y="70" width="74.71" height="580.00" fill="#f1c40f" opacity="0.16"/>
<rect x="612.94" y="70" width="74.71" height="580.00" fill="#3498db" opacity="0.10"/>
<line x1="127.35" y1="556.60" x2="127.35" y2="601.04" stroke="#e74c3c" stroke-width="2"/>
<rect x="105.69" y="560.61" width="43.33" height="39.67" fill="#e74c3c" stroke="#e74c3c" stroke-width="1"/>
<text x="127.35" y="704" font-size="11" fill="#555555" text-anchor="middle">07-10</text>
<text x="127.35" y="720" font-size="11" fill="#555555" text-anchor="middle">21:00</text>
<line x1="202.06" y1="586.23" x2="202.06" y2="601.29" stroke="#2ecc71" stroke-width="2"/>
<rect x="180.39" y="595.26" width="43.33" height="5.02" fill="#2ecc71" stroke="#2ecc71" stroke-width="1"/>
<text x="202.06" y="704" font-size="11" fill="#555555" text-anchor="middle">07-10</text>
<text x="202.06" y="720" font-size="11" fill="#555555" text-anchor="middle">22:00</text>
<line x1="276.76" y1="582.96" x2="276.76" y2="618.36" stroke="#e74c3c" stroke-width="2"/>
<rect x="255.10" y="596.02" width="43.33" height="14.06" fill="#e74c3c" stroke="#e74c3c" stroke-width="1"/>
<text x="276.76" y="704" font-size="11" fill="#555555" text-anchor="middle">07-10</text>
<text x="276.76" y="720" font-size="11" fill="#555555" text-anchor="middle">23:00</text>
<line x1="351.47" y1="609.07" x2="351.47" y2="650.00" stroke="#e74c3c" stroke-width="2"/>
<rect x="329.81" y="610.08" width="43.33" height="13.81" fill="#e74c3c" stroke="#e74c3c" stroke-width="1"/>
<text x="351.47" y="704" font-size="11" fill="#555555" text-anchor="middle">07-11</text>
<text x="351.47" y="720" font-size="11" fill="#555555" text-anchor="middle">00:00</text>
<line x1="426.18" y1="618.36" x2="426.18" y2="631.17" stroke="#2ecc71" stroke-width="2"/>
<rect x="404.51" y="623.39" width="43.33" height="1.20" fill="#2ecc71" stroke="#2ecc71" stroke-width="1"/>
<text x="426.18" y="704" font-size="11" fill="#555555" text-anchor="middle">07-11</text>
<text x="426.18" y="720" font-size="11" fill="#555555" text-anchor="middle">01:00</text>
<line x1="500.88" y1="620.37" x2="500.88" y2="638.45" stroke="#e74c3c" stroke-width="2"/>
<rect x="479.22" y="623.39" width="43.33" height="1.20" fill="#e74c3c" stroke="#e74c3c" stroke-width="1"/>
<text x="500.88" y="704" font-size="11" fill="#555555" text-anchor="middle">07-11</text>
<text x="500.88" y="720" font-size="11" fill="#555555" text-anchor="middle">02:00</text>
<line x1="575.59" y1="625.39" x2="575.59" y2="638.20" stroke="#e74c3c" stroke-width="2"/>
<rect x="553.92" y="625.39" width="43.33" height="12.30" fill="#e74c3c" stroke="#e74c3c" stroke-width="1"/>
<text x="575.59" y="704" font-size="11" fill="#555555" text-anchor="middle">07-11</text>
<text x="575.59" y="720" font-size="11" fill="#555555" text-anchor="middle">03:00</text>
<line x1="650.29" y1="626.15" x2="650.29" y2="640.46" stroke="#2ecc71" stroke-width="2"/>
<rect x="628.63" y="627.15" width="43.33" height="10.80" fill="#2ecc71" stroke="#2ecc71" stroke-width="1"/>
<text x="650.29" y="704" font-size="11" fill="#555555" text-anchor="middle">07-11</text>
<text x="650.29" y="720" font-size="11" fill="#555555" text-anchor="middle">04:00</text>
<line x1="725.00" y1="464.20" x2="725.00" y2="634.68" stroke="#2ecc71" stroke-width="2"/>
<rect x="703.34" y="551.07" width="43.33" height="76.08" fill="#2ecc71" stroke="#2ecc71" stroke-width="1"/>
<text x="725.00" y="704" font-size="11" fill="#555555" text-anchor="middle">07-11</text>
<text x="725.00" y="720" font-size="11" fill="#555555" text-anchor="middle">05:00</text>
<line x1="799.71" y1="525.71" x2="799.71" y2="567.65" stroke="#2ecc71" stroke-width="2"/>
<rect x="778.04" y="531.24" width="43.33" height="20.84" fill="#2ecc71" stroke="#2ecc71" stroke-width="1"/>
<text x="799.71" y="704" font-size="11" fill="#555555" text-anchor="middle">07-11</text>
<text x="799.71" y="720" font-size="11" fill="#555555" text-anchor="middle">06:00</text>
<line x1="874.41" y1="272.87" x2="874.41" y2="542.03" stroke="#2ecc71" stroke-width="2"/>
<rect x="852.75" y="345.94" width="43.33" height="185.30" fill="#2ecc71" stroke="#2ecc71" stroke-width="1"/>
<text x="874.41" y="704" font-size="11" fill="#555555" text-anchor="middle">07-11</text>
<text x="874.41" y="720" font-size="11" fill="#555555" text-anchor="middle">07:00</text>
<line x1="949.12" y1="120.72" x2="949.12" y2="375.57" stroke="#2ecc71" stroke-width="2"/>
<rect x="927.45" y="162.15" width="43.33" height="183.04" fill="#2ecc71" stroke="#2ecc71" stroke-width="1"/>
<text x="949.12" y="704" font-size="11" fill="#555555" text-anchor="middle">07-11</text>
<text x="949.12" y="720" font-size="11" fill="#555555" text-anchor="middle">08:00</text>
<line x1="1023.82" y1="114.94" x2="1023.82" y2="249.52" stroke="#e74c3c" stroke-width="2"/>
<rect x="1002.16" y="162.40" width="43.33" height="66.54" fill="#e74c3c" stroke="#e74c3c" stroke-width="1"/>
<text x="1023.82" y="704" font-size="11" fill="#555555" text-anchor="middle">07-11</text>
<text x="1023.82" y="720" font-size="11" fill="#555555" text-anchor="middle">09:00</text>
<line x1="1098.53" y1="150.60" x2="1098.53" y2="276.89" stroke="#2ecc71" stroke-width="2"/>
<rect x="1076.86" y="161.14" width="43.33" height="68.29" fill="#2ecc71" stroke="#2ecc71" stroke-width="1"/>
<text x="1098.53" y="704" font-size="11" fill="#555555" text-anchor="middle">07-11</text>
<text x="1098.53" y="720" font-size="11" fill="#555555" text-anchor="middle">10:00</text>
<line x1="1173.24" y1="75.02" x2="1173.24" y2="193.53" stroke="#2ecc71" stroke-width="2"/>
<rect x="1151.57" y="158.88" width="43.33" height="3.26" fill="#2ecc71" stroke="#2ecc71" stroke-width="1"/>
<text x="1173.24" y="704" font-size="11" fill="#555555" text-anchor="middle">07-11</text>
<text x="1173.24" y="720" font-size="11" fill="#555555" text-anchor="middle">11:00</text>
<line x1="1247.94" y1="96.87" x2="1247.94" y2="183.74" stroke="#e74c3c" stroke-width="2"/>
<rect x="1226.28" y="157.88" width="43.33" height="10.04" fill="#e74c3c" stroke="#e74c3c" stroke-width="1"/>
<text x="1247.94" y="704" font-size="11" fill="#555555" text-anchor="middle">07-11</text>
<text x="1247.94" y="720" font-size="11" fill="#555555" text-anchor="middle">12:00</text>
<line x1="1322.65" y1="70.00" x2="1322.65" y2="373.31" stroke="#e74c3c" stroke-width="2"/>
<rect x="1300.98" y="168.17" width="43.33" height="127.05" fill="#e74c3c" stroke="#e74c3c" stroke-width="1"/>
<text x="1322.65" y="704" font-size="11" fill="#555555" text-anchor="middle">07-11</text>
<text x="1322.65" y="720" font-size="11" fill="#555555" text-anchor="middle">13:00</text>
<line x1="725.00" y1="464.20" x2="805.00" y2="394.20" stroke="#f1c40f" stroke-width="2"/>
<rect x="805.00" y="346.20" width="220" height="72" rx="8" fill="#fff8dc" stroke="#f1c40f"/>
<text x="815.00" y="370.20" font-size="12" fill="#111111">目标K线 2025-07-11 05:00</text>
<text x="815.00" y="388.20" font-size="12" fill="#111111">振幅 22.12%</text>
<text x="815.00" y="406.20" font-size="12" fill="#111111">倍数 11.75x</text>
<line x1="650.29" y1="626.15" x2="620.29" y2="586.15" stroke="#3498db" stroke-width="2"/>
<rect x="400.29" y="550.15" width="220" height="58" rx="8" fill="#eef6ff" stroke="#3498db"/>
<text x="410.29" y="572.15" font-size="12" fill="#111111">前一根涨幅 1.42%</text>
<text x="410.29" y="590.15" font-size="12" fill="#111111">前一根振幅 1.88%</text>
</svg>