<svg xmlns="http://www.w3.org/2000/svg" width="1400" height="760" viewBox="0 0 1400 760">
<rect width="100%" height="100%" fill="#fcfcfc"/>
<text x="90" y="36" font-size="26" font-weight="700" fill="#111111">VINE_USDT 1H - 10倍命中</text>
<line x1="90" y1="70.00" x2="1360" y2="70.00" stroke="#d9d9d9" stroke-dasharray="4 4" stroke-width="1"/>
<text x="12" y="74.00" font-size="12" fill="#555555">0.085440</text>
<line x1="90" y1="186.00" x2="1360" y2="186.00" stroke="#d9d9d9" stroke-dasharray="4 4" stroke-width="1"/>
<text x="12" y="190.00" font-size="12" fill="#555555">0.075432</text>
<line x1="90" y1="302.00" x2="1360" y2="302.00" stroke="#d9d9d9" stroke-dasharray="4 4" stroke-width="1"/>
<text x="12" y="306.00" font-size="12" fill="#555555">0.065424</text>
<line x1="90" y1="418.00" x2="1360" y2="418.00" stroke="#d9d9d9" stroke-dasharray="4 4" stroke-width="1"/>
<text x="12" y="422.00" font-size="12" fill="#555555">0.055416</text>
<line x1="90" y1="534.00" x2="1360" y2="534.00" stroke="#d9d9d9" stroke-dasharray="4 4" stroke-width="1"/>
<text x="12" y="538.00" font-size="12" fill="#555555">0.045408</text>
<line x1="90" y1="650.00" x2="1360" y2="650.00" stroke="#d9d9d9" stroke-dasharray="4 4" stroke-width="1"/>
<text x="12" y="654.00" font-size="12" fill="#555555">0.035400</text>
<rect x="687.65" y="70" width="74.71" height="580.00" fill="#f1c40f" opacity="0.16"/>
<rect x="612.94" y="70" width="74.71" height="580.00" fill="#3498db" opacity="0.10"/>
<line x1="127.35" y1="603.06" x2="127.35" y2="621.83" stroke="#e74c3c" stroke-width="2"/>
<rect x="105.69" y="605.84" width="43.33" height="14.49" fill="#e74c3c" stroke="#e74c3c" stroke-width="1"/>
<text x="127.35" y="704" font-size="11" fill="#555555" text-anchor="middle">07-24</text>
<text x="127.35" y="720" font-size="11" fill="#555555" text-anchor="middle">12:00</text>
<line x1="202.06" y1="620.44" x2="202.06" y2="640.73" stroke="#e74c3c" stroke-width="2"/>
<rect x="180.39" y="620.44" width="43.33" height="17.04" fill="#e74c3c" stroke="#e74c3c" stroke-width="1"/>
<text x="202.06" y="704" font-size="11" fill="#555555" text-anchor="middle">07-24</text>
<text x="202.06" y="720" font-size="11" fill="#555555" text-anchor="middle">13:00</text>
<line x1="276.76" y1="629.02" x2="276.76" y2="650.00" stroke="#e74c3c" stroke-width="2"/>
<rect x="255.10" y="637.60" width="43.33" height="5.22" fill="#e74c3c" stroke="#e74c3c" stroke-width="1"/>
<text x="276.76" y="704" font-size="11" fill="#555555" text-anchor="middle">07-24</text>
<text x="276.76" y="720" font-size="11" fill="#555555" text-anchor="middle">14:00</text>
<line x1="351.47" y1="629.83" x2="351.47" y2="647.10" stroke="#2ecc71" stroke-width="2"/>
<rect x="329.81" y="630.88" width="43.33" height="13.10" fill="#2ecc71" stroke="#2ecc71" stroke-width="1"/>
<text x="351.47" y="704" font-size="11" fill="#555555" text-anchor="middle">07-24</text>
<text x="351.47" y="720" font-size="11" fill="#555555" text-anchor="middle">15:00</text>
<line x1="426.18" y1="625.31" x2="426.18" y2="633.66" stroke="#2ecc71" stroke-width="2"/>
<rect x="404.51" y="627.75" width="43.33" height="3.36" fill="#2ecc71" stroke="#2ecc71" stroke-width="1"/>
<text x="426.18" y="704" font-size="11" fill="#555555" text-anchor="middle">07-24</text>
<text x="426.18" y="720" font-size="11" fill="#555555" text-anchor="middle">16:00</text>
<line x1="500.88" y1="622.18" x2="500.88" y2="629.02" stroke="#2ecc71" stroke-width="2"/>
<rect x="479.22" y="624.85" width="43.33" height="3.01" fill="#2ecc71" stroke="#2ecc71" stroke-width="1"/>
<text x="500.88" y="704" font-size="11" fill="#555555" text-anchor="middle">07-24</text>
<text x="500.88" y="720" font-size="11" fill="#555555" text-anchor="middle">17:00</text>
<line x1="575.59" y1="622.88" x2="575.59" y2="632.15" stroke="#e74c3c" stroke-width="2"/>
<rect x="553.92" y="624.85" width="43.33" height="1.20" fill="#e74c3c" stroke="#e74c3c" stroke-width="1"/>
<text x="575.59" y="704" font-size="11" fill="#555555" text-anchor="middle">07-24</text>
<text x="575.59" y="720" font-size="11" fill="#555555" text-anchor="middle">18:00</text>
<line x1="650.29" y1="614.53" x2="650.29" y2="625.08" stroke="#2ecc71" stroke-width="2"/>
<rect x="628.63" y="617.78" width="43.33" height="7.07" fill="#2ecc71" stroke="#2ecc71" stroke-width="1"/>
<text x="650.29" y="704" font-size="11" fill="#555555" text-anchor="middle">07-24</text>
<text x="650.29" y="720" font-size="11" fill="#555555" text-anchor="middle">19:00</text>
<line x1="725.00" y1="70.00" x2="725.00" y2="624.50" stroke="#2ecc71" stroke-width="2"/>
<rect x="703.34" y="187.65" width="43.33" height="430.83" fill="#2ecc71" stroke="#2ecc71" stroke-width="1"/>
<text x="725.00" y="704" font-size="11" fill="#555555" text-anchor="middle">07-24</text>
<text x="725.00" y="720" font-size="11" fill="#555555" text-anchor="middle">20:00</text>
<line x1="799.71" y1="173.97" x2="799.71" y2="359.07" stroke="#e74c3c" stroke-width="2"/>
<rect x="778.04" y="188.34" width="43.33" height="117.99" fill="#e74c3c" stroke="#e74c3c" stroke-width="1"/>
<text x="799.71" y="704" font-size="11" fill="#555555" text-anchor="middle">07-24</text>
<text x="799.71" y="720" font-size="11" fill="#555555" text-anchor="middle">21:00</text>
<line x1="874.41" y1="218.36" x2="874.41" y2="335.78" stroke="#2ecc71" stroke-width="2"/>
<rect x="852.75" y="239.69" width="43.33" height="66.76" fill="#2ecc71" stroke="#2ecc71" stroke-width="1"/>
<text x="874.41" y="704" font-size="11" fill="#555555" text-anchor="middle">07-24</text>
<text x="874.41" y="720" font-size="11" fill="#555555" text-anchor="middle">22:00</text>
<line x1="949.12" y1="237.25" x2="949.12" y2="307.03" stroke="#e74c3c" stroke-width="2"/>
<rect x="927.45" y="239.57" width="43.33" height="39.76" fill="#e74c3c" stroke="#e74c3c" stroke-width="1"/>
<text x="949.12" y="704" font-size="11" fill="#555555" text-anchor="middle">07-24</text>
<text x="949.12" y="720" font-size="11" fill="#555555" text-anchor="middle">23:00</text>
<line x1="1023.82" y1="245.48" x2="1023.82" y2="406.25" stroke="#e74c3c" stroke-width="2"/>
<rect x="1002.16" y="278.52" width="43.33" height="119.15" fill="#e74c3c" stroke="#e74c3c" stroke-width="1"/>
<text x="1023.82" y="704" font-size="11" fill="#555555" text-anchor="middle">07-25</text>
<text x="1023.82" y="720" font-size="11" fill="#555555" text-anchor="middle">00:00</text>
<line x1="1098.53" y1="333.80" x2="1098.53" y2="396.16" stroke="#2ecc71" stroke-width="2"/>
<rect x="1076.86" y="387.93" width="43.33" height="7.77" fill="#2ecc71" stroke="#2ecc71" stroke-width="1"/>
<text x="1098.53" y="704" font-size="11" fill="#555555" text-anchor="middle">07-25</text>
<text x="1098.53" y="720" font-size="11" fill="#555555" text-anchor="middle">01:00</text>
<line x1="1173.24" y1="357.33" x2="1173.24" y2="433.83" stroke="#2ecc71" stroke-width="2"/>
<rect x="1151.57" y="364.87" width="43.33" height="23.41" fill="#2ecc71" stroke="#2ecc71" stroke-width="1"/>
<text x="1173.24" y="704" font-size="11" fill="#555555" text-anchor="middle">07-25</text>
<text x="1173.24" y="720" font-size="11" fill="#555555" text-anchor="middle">02:00</text>
<line x1="1247.94" y1="358.96" x2="1247.94" y2="375.07" stroke="#e74c3c" stroke-width="2"/>
<rect x="1226.28" y="365.22" width="43.33" height="4.64" fill="#e74c3c" stroke="#e74c3c" stroke-width="1"/>
<text x="1247.94" y="704" font-size="11" fill="#555555" text-anchor="middle">07-25</text>
<text x="1247.94" y="720" font-size="11" fill="#555555" text-anchor="middle">03:00</text>
<line x1="1322.65" y1="362.32" x2="1322.65" y2="383.76" stroke="#e74c3c" stroke-width="2"/>
<rect x="1300.98" y="370.08" width="43.33" height="2.67" fill="#e74c3c" stroke="#e74c3c" stroke-width="1"/>
<text x="1322.65" y="704" font-size="11" fill="#555555" text-anchor="middle">07-25</text>
<text x="1322.65" y="720" font-size="11" fill="#555555" text-anchor="middle">04:00</text>
<line x1="725.00" y1="70.00" x2="805.00" y2="90.00" stroke="#f1c40f" stroke-width="2"/>
<rect x="805.00" y="42.00" width="220" height="72" rx="8" fill="#fff8dc" stroke="#f1c40f"/>
<text x="815.00" y="66.00" font-size="12" fill="#111111">目标K线 2025-07-24 20:00</text>
<text x="815.00" y="84.00" font-size="12" fill="#111111">振幅 125.50%</text>
<text x="815.00" y="102.00" font-size="12" fill="#111111">倍数 51.81x</text>
<line x1="650.29" y1="614.53" x2="620.29" y2="574.53" stroke="#3498db" stroke-width="2"/>
<rect x="400.29" y="538.53" width="220" height="58" rx="8" fill="#eef6ff" stroke="#3498db"/>
<text x="410.29" y="560.53" font-size="12" fill="#111111">前一根涨幅 1.62%</text>
<text x="410.29" y="578.53" font-size="12" fill="#111111">前一根振幅 2.42%</text>
</svg>