<svg xmlns="http://www.w3.org/2000/svg" width="1400" height="760" viewBox="0 0 1400 760">
<rect width="100%" height="100%" fill="#fcfcfc"/>
<text x="90" y="36" font-size="26" font-weight="700" fill="#111111">XAN_USDT 1H - 10倍命中</text>
<line x1="90" y1="70.00" x2="1360" y2="70.00" stroke="#d9d9d9" stroke-dasharray="4 4" stroke-width="1"/>
<text x="12" y="74.00" font-size="12" fill="#555555">0.014490</text>
<line x1="90" y1="186.00" x2="1360" y2="186.00" stroke="#d9d9d9" stroke-dasharray="4 4" stroke-width="1"/>
<text x="12" y="190.00" font-size="12" fill="#555555">0.012946</text>
<line x1="90" y1="302.00" x2="1360" y2="302.00" stroke="#d9d9d9" stroke-dasharray="4 4" stroke-width="1"/>
<text x="12" y="306.00" font-size="12" fill="#555555">0.011402</text>
<line x1="90" y1="418.00" x2="1360" y2="418.00" stroke="#d9d9d9" stroke-dasharray="4 4" stroke-width="1"/>
<text x="12" y="422.00" font-size="12" fill="#555555">0.009858</text>
<line x1="90" y1="534.00" x2="1360" y2="534.00" stroke="#d9d9d9" stroke-dasharray="4 4" stroke-width="1"/>
<text x="12" y="538.00" font-size="12" fill="#555555">0.008314</text>
<line x1="90" y1="650.00" x2="1360" y2="650.00" stroke="#d9d9d9" stroke-dasharray="4 4" stroke-width="1"/>
<text x="12" y="654.00" font-size="12" fill="#555555">0.006770</text>
<rect x="687.65" y="70" width="74.71" height="580.00" fill="#f1c40f" opacity="0.16"/>
<rect x="612.94" y="70" width="74.71" height="580.00" fill="#3498db" opacity="0.10"/>
<line x1="127.35" y1="640.23" x2="127.35" y2="650.00" stroke="#2ecc71" stroke-width="2"/>
<rect x="105.69" y="641.74" width="43.33" height="8.26" fill="#2ecc71" stroke="#2ecc71" stroke-width="1"/>
<text x="127.35" y="704" font-size="11" fill="#555555" text-anchor="middle">03-15</text>
<text x="127.35" y="720" font-size="11" fill="#555555" text-anchor="middle">00:00</text>
<line x1="202.06" y1="616.94" x2="202.06" y2="640.98" stroke="#2ecc71" stroke-width="2"/>
<rect x="180.39" y="621.45" width="43.33" height="19.53" fill="#2ecc71" stroke="#2ecc71" stroke-width="1"/>
<text x="202.06" y="704" font-size="11" fill="#555555" text-anchor="middle">03-15</text>
<text x="202.06" y="720" font-size="11" fill="#555555" text-anchor="middle">01:00</text>
<line x1="276.76" y1="609.43" x2="276.76" y2="626.71" stroke="#e74c3c" stroke-width="2"/>
<rect x="255.10" y="621.45" width="43.33" height="2.25" fill="#e74c3c" stroke="#e74c3c" stroke-width="1"/>
<text x="276.76" y="704" font-size="11" fill="#555555" text-anchor="middle">03-15</text>
<text x="276.76" y="720" font-size="11" fill="#555555" text-anchor="middle">02:00</text>
<line x1="351.47" y1="613.19" x2="351.47" y2="623.70" stroke="#e74c3c" stroke-width="2"/>
<rect x="329.81" y="622.20" width="43.33" height="1.20" fill="#e74c3c" stroke="#e74c3c" stroke-width="1"/>
<text x="351.47" y="704" font-size="11" fill="#555555" text-anchor="middle">03-15</text>
<text x="351.47" y="720" font-size="11" fill="#555555" text-anchor="middle">03:00</text>
<line x1="426.18" y1="601.17" x2="426.18" y2="622.95" stroke="#2ecc71" stroke-width="2"/>
<rect x="404.51" y="607.18" width="43.33" height="15.03" fill="#2ecc71" stroke="#2ecc71" stroke-width="1"/>
<text x="426.18" y="704" font-size="11" fill="#555555" text-anchor="middle">03-15</text>
<text x="426.18" y="720" font-size="11" fill="#555555" text-anchor="middle">04:00</text>
<line x1="500.88" y1="588.39" x2="500.88" y2="609.43" stroke="#e74c3c" stroke-width="2"/>
<rect x="479.22" y="604.92" width="43.33" height="1.20" fill="#e74c3c" stroke="#e74c3c" stroke-width="1"/>
<text x="500.88" y="704" font-size="11" fill="#555555" text-anchor="middle">03-15</text>
<text x="500.88" y="720" font-size="11" fill="#555555" text-anchor="middle">05:00</text>
<line x1="575.59" y1="598.91" x2="575.59" y2="616.94" stroke="#2ecc71" stroke-width="2"/>
<rect x="553.92" y="600.41" width="43.33" height="6.01" fill="#2ecc71" stroke="#2ecc71" stroke-width="1"/>
<text x="575.59" y="704" font-size="11" fill="#555555" text-anchor="middle">03-15</text>
<text x="575.59" y="720" font-size="11" fill="#555555" text-anchor="middle">06:00</text>
<line x1="650.29" y1="589.90" x2="650.29" y2="604.92" stroke="#2ecc71" stroke-width="2"/>
<rect x="628.63" y="592.90" width="43.33" height="6.76" fill="#2ecc71" stroke="#2ecc71" stroke-width="1"/>
<text x="650.29" y="704" font-size="11" fill="#555555" text-anchor="middle">03-15</text>
<text x="650.29" y="720" font-size="11" fill="#555555" text-anchor="middle">07:00</text>
<line x1="725.00" y1="430.62" x2="725.00" y2="592.15" stroke="#2ecc71" stroke-width="2"/>
<rect x="703.34" y="454.66" width="43.33" height="137.49" fill="#2ecc71" stroke="#2ecc71" stroke-width="1"/>
<text x="725.00" y="704" font-size="11" fill="#555555" text-anchor="middle">03-15</text>
<text x="725.00" y="720" font-size="11" fill="#555555" text-anchor="middle">08:00</text>
<line x1="799.71" y1="384.04" x2="799.71" y2="491.48" stroke="#2ecc71" stroke-width="2"/>
<rect x="778.04" y="393.06" width="43.33" height="62.36" fill="#2ecc71" stroke="#2ecc71" stroke-width="1"/>
<text x="799.71" y="704" font-size="11" fill="#555555" text-anchor="middle">03-15</text>
<text x="799.71" y="720" font-size="11" fill="#555555" text-anchor="middle">09:00</text>
<line x1="874.41" y1="329.95" x2="874.41" y2="414.09" stroke="#2ecc71" stroke-width="2"/>
<rect x="852.75" y="347.98" width="43.33" height="45.83" fill="#2ecc71" stroke="#2ecc71" stroke-width="1"/>
<text x="874.41" y="704" font-size="11" fill="#555555" text-anchor="middle">03-15</text>
<text x="874.41" y="720" font-size="11" fill="#555555" text-anchor="middle">10:00</text>
<line x1="949.12" y1="317.18" x2="949.12" y2="375.78" stroke="#e74c3c" stroke-width="2"/>
<rect x="927.45" y="348.73" width="43.33" height="9.77" fill="#e74c3c" stroke="#e74c3c" stroke-width="1"/>
<text x="949.12" y="704" font-size="11" fill="#555555" text-anchor="middle">03-15</text>
<text x="949.12" y="720" font-size="11" fill="#555555" text-anchor="middle">11:00</text>
<line x1="1023.82" y1="337.46" x2="1023.82" y2="387.80" stroke="#e74c3c" stroke-width="2"/>
<rect x="1002.16" y="359.25" width="43.33" height="2.25" fill="#e74c3c" stroke="#e74c3c" stroke-width="1"/>
<text x="1023.82" y="704" font-size="11" fill="#555555" text-anchor="middle">03-15</text>
<text x="1023.82" y="720" font-size="11" fill="#555555" text-anchor="middle">12:00</text>
<line x1="1098.53" y1="190.21" x2="1098.53" y2="362.25" stroke="#2ecc71" stroke-width="2"/>
<rect x="1076.86" y="215.00" width="43.33" height="146.50" fill="#2ecc71" stroke="#2ecc71" stroke-width="1"/>
<text x="1098.53" y="704" font-size="11" fill="#555555" text-anchor="middle">03-15</text>
<text x="1098.53" y="720" font-size="11" fill="#555555" text-anchor="middle">13:00</text>
<line x1="1173.24" y1="70.00" x2="1173.24" y2="234.53" stroke="#2ecc71" stroke-width="2"/>
<rect x="1151.57" y="105.31" width="43.33" height="111.94" fill="#2ecc71" stroke="#2ecc71" stroke-width="1"/>
<text x="1173.24" y="704" font-size="11" fill="#555555" text-anchor="middle">03-15</text>
<text x="1173.24" y="720" font-size="11" fill="#555555" text-anchor="middle">14:00</text>
<line x1="1247.94" y1="99.30" x2="1247.94" y2="236.79" stroke="#e74c3c" stroke-width="2"/>
<rect x="1226.28" y="103.81" width="43.33" height="104.43" fill="#e74c3c" stroke="#e74c3c" stroke-width="1"/>
<text x="1247.94" y="704" font-size="11" fill="#555555" text-anchor="middle">03-15</text>
<text x="1247.94" y="720" font-size="11" fill="#555555" text-anchor="middle">15:00</text>
<line x1="1322.65" y1="187.20" x2="1322.65" y2="249.56" stroke="#e74c3c" stroke-width="2"/>
<rect x="1300.98" y="208.99" width="43.33" height="8.26" fill="#e74c3c" stroke="#e74c3c" stroke-width="1"/>
<text x="1322.65" y="704" font-size="11" fill="#555555" text-anchor="middle">03-15</text>
<text x="1322.65" y="720" font-size="11" fill="#555555" text-anchor="middle">16:00</text>
<line x1="725.00" y1="430.62" x2="805.00" y2="360.62" stroke="#f1c40f" stroke-width="2"/>
<rect x="805.00" y="312.62" width="220" height="72" rx="8" fill="#fff8dc" stroke="#f1c40f"/>
<text x="815.00" y="336.62" font-size="12" fill="#111111">目标K线 2026-03-15 08:00</text>
<text x="815.00" y="354.62" font-size="12" fill="#111111">振幅 28.51%</text>
<text x="815.00" y="372.62" font-size="12" fill="#111111">倍数 10.61x</text>
<line x1="650.29" y1="589.90" x2="620.29" y2="549.90" stroke="#3498db" stroke-width="2"/>
<rect x="400.29" y="513.90" width="220" height="58" rx="8" fill="#eef6ff" stroke="#3498db"/>
<text x="410.29" y="535.90" font-size="12" fill="#111111">前一根涨幅 1.21%</text>
<text x="410.29" y="553.90" font-size="12" fill="#111111">前一根振幅 2.69%</text>
</svg>