<svg xmlns="http://www.w3.org/2000/svg" width="1400" height="760" viewBox="0 0 1400 760">
<rect width="100%" height="100%" fill="#fcfcfc"/>
<text x="90" y="36" font-size="26" font-weight="700" fill="#111111">XNY_USDT 1H - 10倍命中</text>
<line x1="90" y1="70.00" x2="1360" y2="70.00" stroke="#d9d9d9" stroke-dasharray="4 4" stroke-width="1"/>
<text x="12" y="74.00" font-size="12" fill="#555555">0.019824</text>
<line x1="90" y1="186.00" x2="1360" y2="186.00" stroke="#d9d9d9" stroke-dasharray="4 4" stroke-width="1"/>
<text x="12" y="190.00" font-size="12" fill="#555555">0.016683</text>
<line x1="90" y1="302.00" x2="1360" y2="302.00" stroke="#d9d9d9" stroke-dasharray="4 4" stroke-width="1"/>
<text x="12" y="306.00" font-size="12" fill="#555555">0.013543</text>
<line x1="90" y1="418.00" x2="1360" y2="418.00" stroke="#d9d9d9" stroke-dasharray="4 4" stroke-width="1"/>
<text x="12" y="422.00" font-size="12" fill="#555555">0.010402</text>
<line x1="90" y1="534.00" x2="1360" y2="534.00" stroke="#d9d9d9" stroke-dasharray="4 4" stroke-width="1"/>
<text x="12" y="538.00" font-size="12" fill="#555555">0.007262</text>
<line x1="90" y1="650.00" x2="1360" y2="650.00" stroke="#d9d9d9" stroke-dasharray="4 4" stroke-width="1"/>
<text x="12" y="654.00" font-size="12" fill="#555555">0.004121</text>
<rect x="687.65" y="70" width="74.71" height="580.00" fill="#f1c40f" opacity="0.16"/>
<rect x="612.94" y="70" width="74.71" height="580.00" fill="#3498db" opacity="0.10"/>
<line x1="127.35" y1="646.97" x2="127.35" y2="649.78" stroke="#2ecc71" stroke-width="2"/>
<rect x="105.69" y="647.12" width="43.33" height="2.66" fill="#2ecc71" stroke="#2ecc71" stroke-width="1"/>
<text x="127.35" y="704" font-size="11" fill="#555555" text-anchor="middle">12-04</text>
<text x="127.35" y="720" font-size="11" fill="#555555" text-anchor="middle">17:00</text>
<line x1="202.06" y1="646.05" x2="202.06" y2="650.00" stroke="#e74c3c" stroke-width="2"/>
<rect x="180.39" y="646.97" width="43.33" height="1.88" fill="#e74c3c" stroke="#e74c3c" stroke-width="1"/>
<text x="202.06" y="704" font-size="11" fill="#555555" text-anchor="middle">12-04</text>
<text x="202.06" y="720" font-size="11" fill="#555555" text-anchor="middle">18:00</text>
<line x1="276.76" y1="647.78" x2="276.76" y2="649.41" stroke="#2ecc71" stroke-width="2"/>
<rect x="255.10" y="648.82" width="43.33" height="1.20" fill="#2ecc71" stroke="#2ecc71" stroke-width="1"/>
<text x="276.76" y="704" font-size="11" fill="#555555" text-anchor="middle">12-04</text>
<text x="276.76" y="720" font-size="11" fill="#555555" text-anchor="middle">19:00</text>
<line x1="351.47" y1="642.43" x2="351.47" y2="648.93" stroke="#2ecc71" stroke-width="2"/>
<rect x="329.81" y="644.24" width="43.33" height="4.69" fill="#2ecc71" stroke="#2ecc71" stroke-width="1"/>
<text x="351.47" y="704" font-size="11" fill="#555555" text-anchor="middle">12-04</text>
<text x="351.47" y="720" font-size="11" fill="#555555" text-anchor="middle">20:00</text>
<line x1="426.18" y1="644.02" x2="426.18" y2="647.49" stroke="#e74c3c" stroke-width="2"/>
<rect x="404.51" y="644.02" width="43.33" height="3.03" fill="#e74c3c" stroke="#e74c3c" stroke-width="1"/>
<text x="426.18" y="704" font-size="11" fill="#555555" text-anchor="middle">12-04</text>
<text x="426.18" y="720" font-size="11" fill="#555555" text-anchor="middle">21:00</text>
<line x1="500.88" y1="626.40" x2="500.88" y2="647.12" stroke="#2ecc71" stroke-width="2"/>
<rect x="479.22" y="627.25" width="43.33" height="19.47" fill="#2ecc71" stroke="#2ecc71" stroke-width="1"/>
<text x="500.88" y="704" font-size="11" fill="#555555" text-anchor="middle">12-04</text>
<text x="500.88" y="720" font-size="11" fill="#555555" text-anchor="middle">22:00</text>
<line x1="575.59" y1="617.31" x2="575.59" y2="633.16" stroke="#2ecc71" stroke-width="2"/>
<rect x="553.92" y="623.18" width="43.33" height="4.73" fill="#2ecc71" stroke="#2ecc71" stroke-width="1"/>
<text x="575.59" y="704" font-size="11" fill="#555555" text-anchor="middle">12-04</text>
<text x="575.59" y="720" font-size="11" fill="#555555" text-anchor="middle">23:00</text>
<line x1="650.29" y1="609.08" x2="650.29" y2="626.07" stroke="#2ecc71" stroke-width="2"/>
<rect x="628.63" y="612.84" width="43.33" height="10.23" fill="#2ecc71" stroke="#2ecc71" stroke-width="1"/>
<text x="650.29" y="704" font-size="11" fill="#555555" text-anchor="middle">12-05</text>
<text x="650.29" y="720" font-size="11" fill="#555555" text-anchor="middle">00:00</text>
<line x1="725.00" y1="360.46" x2="725.00" y2="619.31" stroke="#2ecc71" stroke-width="2"/>
<rect x="703.34" y="379.93" width="43.33" height="232.69" fill="#2ecc71" stroke="#2ecc71" stroke-width="1"/>
<text x="725.00" y="704" font-size="11" fill="#555555" text-anchor="middle">12-05</text>
<text x="725.00" y="720" font-size="11" fill="#555555" text-anchor="middle">01:00</text>
<line x1="799.71" y1="70.00" x2="799.71" y2="615.06" stroke="#e74c3c" stroke-width="2"/>
<rect x="778.04" y="377.97" width="43.33" height="233.32" fill="#e74c3c" stroke="#e74c3c" stroke-width="1"/>
<text x="799.71" y="704" font-size="11" fill="#555555" text-anchor="middle">12-05</text>
<text x="799.71" y="720" font-size="11" fill="#555555" text-anchor="middle">02:00</text>
<line x1="874.41" y1="604.35" x2="874.41" y2="638.96" stroke="#e74c3c" stroke-width="2"/>
<rect x="852.75" y="612.47" width="43.33" height="20.83" fill="#e74c3c" stroke="#e74c3c" stroke-width="1"/>
<text x="874.41" y="704" font-size="11" fill="#555555" text-anchor="middle">12-05</text>
<text x="874.41" y="720" font-size="11" fill="#555555" text-anchor="middle">03:00</text>
<line x1="949.12" y1="629.35" x2="949.12" y2="639.03" stroke="#e74c3c" stroke-width="2"/>
<rect x="927.45" y="633.86" width="43.33" height="2.44" fill="#e74c3c" stroke="#e74c3c" stroke-width="1"/>
<text x="949.12" y="704" font-size="11" fill="#555555" text-anchor="middle">12-05</text>
<text x="949.12" y="720" font-size="11" fill="#555555" text-anchor="middle">04:00</text>
<line x1="1023.82" y1="632.05" x2="1023.82" y2="640.06" stroke="#e74c3c" stroke-width="2"/>
<rect x="1002.16" y="636.48" width="43.33" height="1.20" fill="#e74c3c" stroke="#e74c3c" stroke-width="1"/>
<text x="1023.82" y="704" font-size="11" fill="#555555" text-anchor="middle">12-05</text>
<text x="1023.82" y="720" font-size="11" fill="#555555" text-anchor="middle">05:00</text>
<line x1="1098.53" y1="631.83" x2="1098.53" y2="637.55" stroke="#2ecc71" stroke-width="2"/>
<rect x="1076.86" y="631.86" width="43.33" height="5.43" fill="#2ecc71" stroke="#2ecc71" stroke-width="1"/>
<text x="1098.53" y="704" font-size="11" fill="#555555" text-anchor="middle">12-05</text>
<text x="1098.53" y="720" font-size="11" fill="#555555" text-anchor="middle">06:00</text>
<line x1="1173.24" y1="578.27" x2="1173.24" y2="631.86" stroke="#2ecc71" stroke-width="2"/>
<rect x="1151.57" y="614.84" width="43.33" height="17.03" fill="#2ecc71" stroke="#2ecc71" stroke-width="1"/>
<text x="1173.24" y="704" font-size="11" fill="#555555" text-anchor="middle">12-05</text>
<text x="1173.24" y="720" font-size="11" fill="#555555" text-anchor="middle">07:00</text>
<line x1="1247.94" y1="603.72" x2="1247.94" y2="629.76" stroke="#e74c3c" stroke-width="2"/>
<rect x="1226.28" y="614.84" width="43.33" height="1.20" fill="#e74c3c" stroke="#e74c3c" stroke-width="1"/>
<text x="1247.94" y="704" font-size="11" fill="#555555" text-anchor="middle">12-05</text>
<text x="1247.94" y="720" font-size="11" fill="#555555" text-anchor="middle">08:00</text>
<line x1="1322.65" y1="546.58" x2="1322.65" y2="615.21" stroke="#2ecc71" stroke-width="2"/>
<rect x="1300.98" y="550.79" width="43.33" height="64.42" fill="#2ecc71" stroke="#2ecc71" stroke-width="1"/>
<text x="1322.65" y="704" font-size="11" fill="#555555" text-anchor="middle">12-05</text>
<text x="1322.65" y="720" font-size="11" fill="#555555" text-anchor="middle">09:00</text>
<line x1="725.00" y1="360.46" x2="805.00" y2="290.46" stroke="#f1c40f" stroke-width="2"/>
<rect x="805.00" y="242.46" width="220" height="72" rx="8" fill="#fff8dc" stroke="#f1c40f"/>
<text x="815.00" y="266.46" font-size="12" fill="#111111">目标K线 2025-12-05 01:00</text>
<text x="815.00" y="284.46" font-size="12" fill="#111111">振幅 136.53%</text>
<text x="815.00" y="302.46" font-size="12" fill="#111111">倍数 14.39x</text>
<line x1="650.29" y1="609.08" x2="620.29" y2="569.08" stroke="#3498db" stroke-width="2"/>
<rect x="400.29" y="533.08" width="220" height="58" rx="8" fill="#eef6ff" stroke="#3498db"/>
<text x="410.29" y="555.08" font-size="12" fill="#111111">前一根涨幅 5.71%</text>
<text x="410.29" y="573.08" font-size="12" fill="#111111">前一根振幅 9.48%</text>
</svg>