<svg xmlns="http://www.w3.org/2000/svg" width="1400" height="760" viewBox="0 0 1400 760">
<rect width="100%" height="100%" fill="#fcfcfc"/>
<text x="90" y="36" font-size="26" font-weight="700" fill="#111111">老子_USDT 1H - 10倍命中</text>
<line x1="90" y1="70.00" x2="1360" y2="70.00" stroke="#d9d9d9" stroke-dasharray="4 4" stroke-width="1"/>
<text x="12" y="74.00" font-size="12" fill="#555555">0.000820</text>
<line x1="90" y1="186.00" x2="1360" y2="186.00" stroke="#d9d9d9" stroke-dasharray="4 4" stroke-width="1"/>
<text x="12" y="190.00" font-size="12" fill="#555555">0.000707</text>
<line x1="90" y1="302.00" x2="1360" y2="302.00" stroke="#d9d9d9" stroke-dasharray="4 4" stroke-width="1"/>
<text x="12" y="306.00" font-size="12" fill="#555555">0.000595</text>
<line x1="90" y1="418.00" x2="1360" y2="418.00" stroke="#d9d9d9" stroke-dasharray="4 4" stroke-width="1"/>
<text x="12" y="422.00" font-size="12" fill="#555555">0.000482</text>
<line x1="90" y1="534.00" x2="1360" y2="534.00" stroke="#d9d9d9" stroke-dasharray="4 4" stroke-width="1"/>
<text x="12" y="538.00" font-size="12" fill="#555555">0.000369</text>
<line x1="90" y1="650.00" x2="1360" y2="650.00" stroke="#d9d9d9" stroke-dasharray="4 4" stroke-width="1"/>
<text x="12" y="654.00" font-size="12" fill="#555555">0.000256</text>
<rect x="687.65" y="70" width="74.71" height="580.00" fill="#f1c40f" opacity="0.16"/>
<rect x="612.94" y="70" width="74.71" height="580.00" fill="#3498db" opacity="0.10"/>
<line x1="127.35" y1="638.59" x2="127.35" y2="642.70" stroke="#e74c3c" stroke-width="2"/>
<rect x="105.69" y="638.59" width="43.33" height="4.11" fill="#e74c3c" stroke="#e74c3c" stroke-width="1"/>
<text x="127.35" y="704" font-size="11" fill="#555555" text-anchor="middle">03-21</text>
<text x="127.35" y="720" font-size="11" fill="#555555" text-anchor="middle">22:00</text>
<line x1="202.06" y1="633.96" x2="202.06" y2="650.00" stroke="#2ecc71" stroke-width="2"/>
<rect x="180.39" y="639.82" width="43.33" height="1.23" fill="#2ecc71" stroke="#2ecc71" stroke-width="1"/>
<text x="202.06" y="704" font-size="11" fill="#555555" text-anchor="middle">03-21</text>
<text x="202.06" y="720" font-size="11" fill="#555555" text-anchor="middle">23:00</text>
<line x1="276.76" y1="640.13" x2="276.76" y2="640.95" stroke="#2ecc71" stroke-width="2"/>
<rect x="255.10" y="640.23" width="43.33" height="1.20" fill="#2ecc71" stroke="#2ecc71" stroke-width="1"/>
<text x="276.76" y="704" font-size="11" fill="#555555" text-anchor="middle">03-22</text>
<text x="276.76" y="720" font-size="11" fill="#555555" text-anchor="middle">00:00</text>
<line x1="351.47" y1="630.57" x2="351.47" y2="639.51" stroke="#2ecc71" stroke-width="2"/>
<rect x="329.81" y="633.75" width="43.33" height="5.14" fill="#2ecc71" stroke="#2ecc71" stroke-width="1"/>
<text x="351.47" y="704" font-size="11" fill="#555555" text-anchor="middle">03-22</text>
<text x="351.47" y="720" font-size="11" fill="#555555" text-anchor="middle">01:00</text>
<line x1="426.18" y1="616.89" x2="426.18" y2="638.79" stroke="#2ecc71" stroke-width="2"/>
<rect x="404.51" y="629.74" width="43.33" height="3.29" fill="#2ecc71" stroke="#2ecc71" stroke-width="1"/>
<text x="426.18" y="704" font-size="11" fill="#555555" text-anchor="middle">03-22</text>
<text x="426.18" y="720" font-size="11" fill="#555555" text-anchor="middle">02:00</text>
<line x1="500.88" y1="602.39" x2="500.88" y2="626.66" stroke="#2ecc71" stroke-width="2"/>
<rect x="479.22" y="602.81" width="43.33" height="23.85" fill="#2ecc71" stroke="#2ecc71" stroke-width="1"/>
<text x="500.88" y="704" font-size="11" fill="#555555" text-anchor="middle">03-22</text>
<text x="500.88" y="720" font-size="11" fill="#555555" text-anchor="middle">03:00</text>
<line x1="575.59" y1="594.27" x2="575.59" y2="634.47" stroke="#e74c3c" stroke-width="2"/>
<rect x="553.92" y="603.53" width="43.33" height="15.94" fill="#e74c3c" stroke="#e74c3c" stroke-width="1"/>
<text x="575.59" y="704" font-size="11" fill="#555555" text-anchor="middle">03-22</text>
<text x="575.59" y="720" font-size="11" fill="#555555" text-anchor="middle">04:00</text>
<line x1="650.29" y1="607.23" x2="650.29" y2="622.86" stroke="#2ecc71" stroke-width="2"/>
<rect x="628.63" y="611.85" width="43.33" height="9.66" fill="#2ecc71" stroke="#2ecc71" stroke-width="1"/>
<text x="650.29" y="704" font-size="11" fill="#555555" text-anchor="middle">03-22</text>
<text x="650.29" y="720" font-size="11" fill="#555555" text-anchor="middle">05:00</text>
<line x1="725.00" y1="337.12" x2="725.00" y2="609.59" stroke="#2ecc71" stroke-width="2"/>
<rect x="703.34" y="377.63" width="43.33" height="230.11" fill="#2ecc71" stroke="#2ecc71" stroke-width="1"/>
<text x="725.00" y="704" font-size="11" fill="#555555" text-anchor="middle">03-22</text>
<text x="725.00" y="720" font-size="11" fill="#555555" text-anchor="middle">06:00</text>
<line x1="799.71" y1="70.00" x2="799.71" y2="471.20" stroke="#2ecc71" stroke-width="2"/>
<rect x="778.04" y="367.04" width="43.33" height="9.05" fill="#2ecc71" stroke="#2ecc71" stroke-width="1"/>
<text x="799.71" y="704" font-size="11" fill="#555555" text-anchor="middle">03-22</text>
<text x="799.71" y="720" font-size="11" fill="#555555" text-anchor="middle">07:00</text>
<line x1="874.41" y1="256.51" x2="874.41" y2="428.01" stroke="#2ecc71" stroke-width="2"/>
<rect x="852.75" y="329.51" width="43.33" height="37.12" fill="#2ecc71" stroke="#2ecc71" stroke-width="1"/>
<text x="874.41" y="704" font-size="11" fill="#555555" text-anchor="middle">03-22</text>
<text x="874.41" y="720" font-size="11" fill="#555555" text-anchor="middle">08:00</text>
<line x1="949.12" y1="248.08" x2="949.12" y2="352.96" stroke="#2ecc71" stroke-width="2"/>
<rect x="927.45" y="295.58" width="43.33" height="36.91" fill="#2ecc71" stroke="#2ecc71" stroke-width="1"/>
<text x="949.12" y="704" font-size="11" fill="#555555" text-anchor="middle">03-22</text>
<text x="949.12" y="720" font-size="11" fill="#555555" text-anchor="middle">09:00</text>
<line x1="1023.82" y1="241.91" x2="1023.82" y2="319.03" stroke="#2ecc71" stroke-width="2"/>
<rect x="1002.16" y="267.41" width="43.33" height="28.79" fill="#2ecc71" stroke="#2ecc71" stroke-width="1"/>
<text x="1023.82" y="704" font-size="11" fill="#555555" text-anchor="middle">03-22</text>
<text x="1023.82" y="720" font-size="11" fill="#555555" text-anchor="middle">10:00</text>
<line x1="1098.53" y1="270.39" x2="1098.53" y2="326.84" stroke="#e74c3c" stroke-width="2"/>
<rect x="1076.86" y="270.39" width="43.33" height="34.14" fill="#e74c3c" stroke="#e74c3c" stroke-width="1"/>
<text x="1098.53" y="704" font-size="11" fill="#555555" text-anchor="middle">03-22</text>
<text x="1098.53" y="720" font-size="11" fill="#555555" text-anchor="middle">11:00</text>
<line x1="1173.24" y1="276.15" x2="1173.24" y2="326.12" stroke="#2ecc71" stroke-width="2"/>
<rect x="1151.57" y="289.21" width="43.33" height="12.65" fill="#2ecc71" stroke="#2ecc71" stroke-width="1"/>
<text x="1173.24" y="704" font-size="11" fill="#555555" text-anchor="middle">03-22</text>
<text x="1173.24" y="720" font-size="11" fill="#555555" text-anchor="middle">12:00</text>
<line x1="1247.94" y1="275.84" x2="1247.94" y2="323.14" stroke="#e74c3c" stroke-width="2"/>
<rect x="1226.28" y="290.44" width="43.33" height="24.06" fill="#e74c3c" stroke="#e74c3c" stroke-width="1"/>
<text x="1247.94" y="704" font-size="11" fill="#555555" text-anchor="middle">03-22</text>
<text x="1247.94" y="720" font-size="11" fill="#555555" text-anchor="middle">13:00</text>
<line x1="1322.65" y1="275.84" x2="1322.65" y2="323.96" stroke="#2ecc71" stroke-width="2"/>
<rect x="1300.98" y="300.21" width="43.33" height="14.91" fill="#2ecc71" stroke="#2ecc71" stroke-width="1"/>
<text x="1322.65" y="704" font-size="11" fill="#555555" text-anchor="middle">03-22</text>
<text x="1322.65" y="720" font-size="11" fill="#555555" text-anchor="middle">14:00</text>
<line x1="725.00" y1="337.12" x2="805.00" y2="267.12" stroke="#f1c40f" stroke-width="2"/>
<rect x="805.00" y="219.12" width="220" height="72" rx="8" fill="#fff8dc" stroke="#f1c40f"/>
<text x="815.00" y="243.12" font-size="12" fill="#111111">目标K线 2026-03-22 06:00</text>
<text x="815.00" y="261.12" font-size="12" fill="#111111">振幅 89.17%</text>
<text x="815.00" y="279.12" font-size="12" fill="#111111">倍数 16.65x</text>
<line x1="650.29" y1="607.23" x2="620.29" y2="567.23" stroke="#3498db" stroke-width="2"/>
<rect x="400.29" y="531.23" width="220" height="58" rx="8" fill="#eef6ff" stroke="#3498db"/>
<text x="410.29" y="553.23" font-size="12" fill="#111111">前一根涨幅 3.31%</text>
<text x="410.29" y="571.23" font-size="12" fill="#111111">前一根振幅 5.36%</text>
</svg>