<svg xmlns="http://www.w3.org/2000/svg" width="1400" height="760" viewBox="0 0 1400 760">
<rect width="100%" height="100%" fill="#fcfcfc"/>
<text x="90" y="36" font-size="26" font-weight="700" fill="#111111">草根文化_USDT 1H - 10倍命中</text>
<line x1="90" y1="70.00" x2="1360" y2="70.00" stroke="#d9d9d9" stroke-dasharray="4 4" stroke-width="1"/>
<text x="12" y="74.00" font-size="12" fill="#555555">0.000940</text>
<line x1="90" y1="186.00" x2="1360" y2="186.00" stroke="#d9d9d9" stroke-dasharray="4 4" stroke-width="1"/>
<text x="12" y="190.00" font-size="12" fill="#555555">0.000851</text>
<line x1="90" y1="302.00" x2="1360" y2="302.00" stroke="#d9d9d9" stroke-dasharray="4 4" stroke-width="1"/>
<text x="12" y="306.00" font-size="12" fill="#555555">0.000763</text>
<line x1="90" y1="418.00" x2="1360" y2="418.00" stroke="#d9d9d9" stroke-dasharray="4 4" stroke-width="1"/>
<text x="12" y="422.00" font-size="12" fill="#555555">0.000674</text>
<line x1="90" y1="534.00" x2="1360" y2="534.00" stroke="#d9d9d9" stroke-dasharray="4 4" stroke-width="1"/>
<text x="12" y="538.00" font-size="12" fill="#555555">0.000586</text>
<line x1="90" y1="650.00" x2="1360" y2="650.00" stroke="#d9d9d9" stroke-dasharray="4 4" stroke-width="1"/>
<text x="12" y="654.00" font-size="12" fill="#555555">0.000497</text>
<rect x="687.65" y="70" width="74.71" height="580.00" fill="#f1c40f" opacity="0.16"/>
<rect x="612.94" y="70" width="74.71" height="580.00" fill="#3498db" opacity="0.10"/>
<line x1="127.35" y1="620.51" x2="127.35" y2="634.93" stroke="#e74c3c" stroke-width="2"/>
<rect x="105.69" y="620.51" width="43.33" height="14.42" fill="#e74c3c" stroke="#e74c3c" stroke-width="1"/>
<text x="127.35" y="704" font-size="11" fill="#555555" text-anchor="middle">03-30</text>
<text x="127.35" y="720" font-size="11" fill="#555555" text-anchor="middle">15:00</text>
<line x1="202.06" y1="607.40" x2="202.06" y2="617.89" stroke="#2ecc71" stroke-width="2"/>
<rect x="180.39" y="607.40" width="43.33" height="2.75" fill="#2ecc71" stroke="#2ecc71" stroke-width="1"/>
<text x="202.06" y="704" font-size="11" fill="#555555" text-anchor="middle">03-30</text>
<text x="202.06" y="720" font-size="11" fill="#555555" text-anchor="middle">16:00</text>
<line x1="276.76" y1="639.38" x2="276.76" y2="639.51" stroke="#e74c3c" stroke-width="2"/>
<rect x="255.10" y="639.38" width="43.33" height="1.20" fill="#e74c3c" stroke="#e74c3c" stroke-width="1"/>
<text x="276.76" y="704" font-size="11" fill="#555555" text-anchor="middle">03-30</text>
<text x="276.76" y="720" font-size="11" fill="#555555" text-anchor="middle">17:00</text>
<line x1="351.47" y1="639.51" x2="351.47" y2="650.00" stroke="#e74c3c" stroke-width="2"/>
<rect x="329.81" y="639.51" width="43.33" height="10.49" fill="#e74c3c" stroke="#e74c3c" stroke-width="1"/>
<text x="351.47" y="704" font-size="11" fill="#555555" text-anchor="middle">03-30</text>
<text x="351.47" y="720" font-size="11" fill="#555555" text-anchor="middle">18:00</text>
<line x1="426.18" y1="613.95" x2="426.18" y2="638.86" stroke="#2ecc71" stroke-width="2"/>
<rect x="404.51" y="613.95" width="43.33" height="24.90" fill="#2ecc71" stroke="#2ecc71" stroke-width="1"/>
<text x="426.18" y="704" font-size="11" fill="#555555" text-anchor="middle">03-30</text>
<text x="426.18" y="720" font-size="11" fill="#555555" text-anchor="middle">19:00</text>
<line x1="500.88" y1="613.95" x2="500.88" y2="624.57" stroke="#e74c3c" stroke-width="2"/>
<rect x="479.22" y="613.95" width="43.33" height="5.37" fill="#e74c3c" stroke="#e74c3c" stroke-width="1"/>
<text x="500.88" y="704" font-size="11" fill="#555555" text-anchor="middle">03-30</text>
<text x="500.88" y="720" font-size="11" fill="#555555" text-anchor="middle">20:00</text>
<line x1="575.59" y1="583.68" x2="575.59" y2="612.64" stroke="#2ecc71" stroke-width="2"/>
<rect x="553.92" y="583.68" width="43.33" height="28.97" fill="#2ecc71" stroke="#2ecc71" stroke-width="1"/>
<text x="575.59" y="704" font-size="11" fill="#555555" text-anchor="middle">03-30</text>
<text x="575.59" y="720" font-size="11" fill="#555555" text-anchor="middle">21:00</text>
<line x1="650.29" y1="560.87" x2="650.29" y2="581.19" stroke="#2ecc71" stroke-width="2"/>
<rect x="628.63" y="570.57" width="43.33" height="10.62" fill="#2ecc71" stroke="#2ecc71" stroke-width="1"/>
<text x="650.29" y="704" font-size="11" fill="#555555" text-anchor="middle">03-30</text>
<text x="650.29" y="720" font-size="11" fill="#555555" text-anchor="middle">22:00</text>
<line x1="725.00" y1="294.53" x2="725.00" y2="570.57" stroke="#2ecc71" stroke-width="2"/>
<rect x="703.34" y="406.33" width="43.33" height="164.24" fill="#2ecc71" stroke="#2ecc71" stroke-width="1"/>
<text x="725.00" y="704" font-size="11" fill="#555555" text-anchor="middle">03-30</text>
<text x="725.00" y="720" font-size="11" fill="#555555" text-anchor="middle">23:00</text>
<line x1="799.71" y1="308.16" x2="799.71" y2="489.30" stroke="#2ecc71" stroke-width="2"/>
<rect x="778.04" y="308.16" width="43.33" height="89.52" fill="#2ecc71" stroke="#2ecc71" stroke-width="1"/>
<text x="799.71" y="704" font-size="11" fill="#555555" text-anchor="middle">03-31</text>
<text x="799.71" y="720" font-size="11" fill="#555555" text-anchor="middle">00:00</text>
<line x1="874.41" y1="268.18" x2="874.41" y2="426.39" stroke="#e74c3c" stroke-width="2"/>
<rect x="852.75" y="306.19" width="43.33" height="82.84" fill="#e74c3c" stroke="#e74c3c" stroke-width="1"/>
<text x="874.41" y="704" font-size="11" fill="#555555" text-anchor="middle">03-31</text>
<text x="874.41" y="720" font-size="11" fill="#555555" text-anchor="middle">01:00</text>
<line x1="949.12" y1="358.36" x2="949.12" y2="423.24" stroke="#e74c3c" stroke-width="2"/>
<rect x="927.45" y="373.17" width="43.33" height="32.64" fill="#e74c3c" stroke="#e74c3c" stroke-width="1"/>
<text x="949.12" y="704" font-size="11" fill="#555555" text-anchor="middle">03-31</text>
<text x="949.12" y="720" font-size="11" fill="#555555" text-anchor="middle">02:00</text>
<line x1="1023.82" y1="372.78" x2="1023.82" y2="461.78" stroke="#e74c3c" stroke-width="2"/>
<rect x="1002.16" y="399.13" width="43.33" height="17.04" fill="#e74c3c" stroke="#e74c3c" stroke-width="1"/>
<text x="1023.82" y="704" font-size="11" fill="#555555" text-anchor="middle">03-31</text>
<text x="1023.82" y="720" font-size="11" fill="#555555" text-anchor="middle">03:00</text>
<line x1="1098.53" y1="345.25" x2="1098.53" y2="417.34" stroke="#e74c3c" stroke-width="2"/>
<rect x="1076.86" y="412.63" width="43.33" height="4.72" fill="#e74c3c" stroke="#e74c3c" stroke-width="1"/>
<text x="1098.53" y="704" font-size="11" fill="#555555" text-anchor="middle">03-31</text>
<text x="1098.53" y="720" font-size="11" fill="#555555" text-anchor="middle">04:00</text>
<line x1="1173.24" y1="70.39" x2="1173.24" y2="430.45" stroke="#2ecc71" stroke-width="2"/>
<rect x="1151.57" y="253.50" width="43.33" height="135.27" fill="#2ecc71" stroke="#2ecc71" stroke-width="1"/>
<text x="1173.24" y="704" font-size="11" fill="#555555" text-anchor="middle">03-31</text>
<text x="1173.24" y="720" font-size="11" fill="#555555" text-anchor="middle">05:00</text>
<line x1="1247.94" y1="70.00" x2="1247.94" y2="292.82" stroke="#e74c3c" stroke-width="2"/>
<rect x="1226.28" y="253.50" width="43.33" height="39.19" fill="#e74c3c" stroke="#e74c3c" stroke-width="1"/>
<text x="1247.94" y="704" font-size="11" fill="#555555" text-anchor="middle">03-31</text>
<text x="1247.94" y="720" font-size="11" fill="#555555" text-anchor="middle">06:00</text>
<line x1="1322.65" y1="292.69" x2="1322.65" y2="449.98" stroke="#e74c3c" stroke-width="2"/>
<rect x="1300.98" y="292.69" width="43.33" height="110.23" fill="#e74c3c" stroke="#e74c3c" stroke-width="1"/>
<text x="1322.65" y="704" font-size="11" fill="#555555" text-anchor="middle">03-31</text>
<text x="1322.65" y="720" font-size="11" fill="#555555" text-anchor="middle">07:00</text>
<line x1="725.00" y1="294.53" x2="805.00" y2="224.53" stroke="#f1c40f" stroke-width="2"/>
<rect x="805.00" y="176.53" width="220" height="72" rx="8" fill="#fff8dc" stroke="#f1c40f"/>
<text x="815.00" y="200.53" font-size="12" fill="#111111">目标K线 2026-03-30 23:00</text>
<text x="815.00" y="218.53" font-size="12" fill="#111111">振幅 37.74%</text>
<text x="815.00" y="236.53" font-size="12" fill="#111111">倍数 13.39x</text>
<line x1="650.29" y1="560.87" x2="620.29" y2="520.87" stroke="#3498db" stroke-width="2"/>
<rect x="400.29" y="484.87" width="220" height="58" rx="8" fill="#eef6ff" stroke="#3498db"/>
<text x="410.29" y="506.87" font-size="12" fill="#111111">前一根涨幅 1.47%</text>
<text x="410.29" y="524.87" font-size="12" fill="#111111">前一根振幅 2.82%</text>
</svg>