<svg xmlns="http://www.w3.org/2000/svg" width="1400" height="760" viewBox="0 0 1400 760">
<rect width="100%" height="100%" fill="#fcfcfc"/>
<text x="90" y="36" font-size="26" font-weight="700" fill="#111111">ACE_USDT 1H - 10倍命中</text>
<line x1="90" y1="70.00" x2="1360" y2="70.00" stroke="#d9d9d9" stroke-dasharray="4 4" stroke-width="1"/>
<text x="12" y="74.00" font-size="12" fill="#555555">0.302600</text>
<line x1="90" y1="186.00" x2="1360" y2="186.00" stroke="#d9d9d9" stroke-dasharray="4 4" stroke-width="1"/>
<text x="12" y="190.00" font-size="12" fill="#555555">0.288580</text>
<line x1="90" y1="302.00" x2="1360" y2="302.00" stroke="#d9d9d9" stroke-dasharray="4 4" stroke-width="1"/>
<text x="12" y="306.00" font-size="12" fill="#555555">0.274560</text>
<line x1="90" y1="418.00" x2="1360" y2="418.00" stroke="#d9d9d9" stroke-dasharray="4 4" stroke-width="1"/>
<text x="12" y="422.00" font-size="12" fill="#555555">0.260540</text>
<line x1="90" y1="534.00" x2="1360" y2="534.00" stroke="#d9d9d9" stroke-dasharray="4 4" stroke-width="1"/>
<text x="12" y="538.00" font-size="12" fill="#555555">0.246520</text>
<line x1="90" y1="650.00" x2="1360" y2="650.00" stroke="#d9d9d9" stroke-dasharray="4 4" stroke-width="1"/>
<text x="12" y="654.00" font-size="12" fill="#555555">0.232500</text>
<rect x="687.65" y="70" width="74.71" height="580.00" fill="#f1c40f" opacity="0.16"/>
<rect x="612.94" y="70" width="74.71" height="580.00" fill="#3498db" opacity="0.10"/>
<line x1="127.35" y1="510.17" x2="127.35" y2="589.60" stroke="#e74c3c" stroke-width="2"/>
<rect x="105.69" y="511.00" width="43.33" height="43.85" fill="#e74c3c" stroke="#e74c3c" stroke-width="1"/>
<text x="127.35" y="704" font-size="11" fill="#555555" text-anchor="middle">11-27</text>
<text x="127.35" y="720" font-size="11" fill="#555555" text-anchor="middle">22:00</text>
<line x1="202.06" y1="553.20" x2="202.06" y2="626.83" stroke="#e74c3c" stroke-width="2"/>
<rect x="180.39" y="553.20" width="43.33" height="46.33" fill="#e74c3c" stroke="#e74c3c" stroke-width="1"/>
<text x="202.06" y="704" font-size="11" fill="#555555" text-anchor="middle">11-27</text>
<text x="202.06" y="720" font-size="11" fill="#555555" text-anchor="middle">23:00</text>
<line x1="276.76" y1="565.61" x2="276.76" y2="611.94" stroke="#2ecc71" stroke-width="2"/>
<rect x="255.10" y="582.15" width="43.33" height="17.38" fill="#2ecc71" stroke="#2ecc71" stroke-width="1"/>
<text x="276.76" y="704" font-size="11" fill="#555555" text-anchor="middle">11-28</text>
<text x="276.76" y="720" font-size="11" fill="#555555" text-anchor="middle">00:00</text>
<line x1="351.47" y1="548.23" x2="351.47" y2="593.74" stroke="#2ecc71" stroke-width="2"/>
<rect x="329.81" y="567.26" width="43.33" height="14.89" fill="#2ecc71" stroke="#2ecc71" stroke-width="1"/>
<text x="351.47" y="704" font-size="11" fill="#555555" text-anchor="middle">11-28</text>
<text x="351.47" y="720" font-size="11" fill="#555555" text-anchor="middle">01:00</text>
<line x1="426.18" y1="512.65" x2="426.18" y2="578.84" stroke="#2ecc71" stroke-width="2"/>
<rect x="404.51" y="548.23" width="43.33" height="20.68" fill="#2ecc71" stroke="#2ecc71" stroke-width="1"/>
<text x="426.18" y="704" font-size="11" fill="#555555" text-anchor="middle">11-28</text>
<text x="426.18" y="720" font-size="11" fill="#555555" text-anchor="middle">02:00</text>
<line x1="500.88" y1="544.09" x2="500.88" y2="589.60" stroke="#e74c3c" stroke-width="2"/>
<rect x="479.22" y="548.23" width="43.33" height="39.71" fill="#e74c3c" stroke="#e74c3c" stroke-width="1"/>
<text x="500.88" y="704" font-size="11" fill="#555555" text-anchor="middle">11-28</text>
<text x="500.88" y="720" font-size="11" fill="#555555" text-anchor="middle">03:00</text>
<line x1="575.59" y1="549.06" x2="575.59" y2="593.74" stroke="#2ecc71" stroke-width="2"/>
<rect x="553.92" y="566.43" width="43.33" height="16.55" fill="#2ecc71" stroke="#2ecc71" stroke-width="1"/>
<text x="575.59" y="704" font-size="11" fill="#555555" text-anchor="middle">11-28</text>
<text x="575.59" y="720" font-size="11" fill="#555555" text-anchor="middle">04:00</text>
<line x1="650.29" y1="533.34" x2="650.29" y2="567.26" stroke="#2ecc71" stroke-width="2"/>
<rect x="628.63" y="544.09" width="43.33" height="20.68" fill="#2ecc71" stroke="#2ecc71" stroke-width="1"/>
<text x="650.29" y="704" font-size="11" fill="#555555" text-anchor="middle">11-28</text>
<text x="650.29" y="720" font-size="11" fill="#555555" text-anchor="middle">05:00</text>
<line x1="725.00" y1="70.00" x2="725.00" y2="650.00" stroke="#2ecc71" stroke-width="2"/>
<rect x="703.34" y="539.96" width="43.33" height="6.62" fill="#2ecc71" stroke="#2ecc71" stroke-width="1"/>
<text x="725.00" y="704" font-size="11" fill="#555555" text-anchor="middle">11-28</text>
<text x="725.00" y="720" font-size="11" fill="#555555" text-anchor="middle">06:00</text>
<line x1="799.71" y1="542.44" x2="799.71" y2="608.63" stroke="#e74c3c" stroke-width="2"/>
<rect x="778.04" y="542.44" width="43.33" height="62.88" fill="#e74c3c" stroke="#e74c3c" stroke-width="1"/>
<text x="799.71" y="704" font-size="11" fill="#555555" text-anchor="middle">11-28</text>
<text x="799.71" y="720" font-size="11" fill="#555555" text-anchor="middle">07:00</text>
<line x1="874.41" y1="589.60" x2="874.41" y2="624.35" stroke="#2ecc71" stroke-width="2"/>
<rect x="852.75" y="600.36" width="43.33" height="4.96" fill="#2ecc71" stroke="#2ecc71" stroke-width="1"/>
<text x="874.41" y="704" font-size="11" fill="#555555" text-anchor="middle">11-28</text>
<text x="874.41" y="720" font-size="11" fill="#555555" text-anchor="middle">08:00</text>
<line x1="949.12" y1="578.02" x2="949.12" y2="634.28" stroke="#e74c3c" stroke-width="2"/>
<rect x="927.45" y="603.67" width="43.33" height="27.30" fill="#e74c3c" stroke="#e74c3c" stroke-width="1"/>
<text x="949.12" y="704" font-size="11" fill="#555555" text-anchor="middle">11-28</text>
<text x="949.12" y="720" font-size="11" fill="#555555" text-anchor="middle">09:00</text>
<line x1="1023.82" y1="596.22" x2="1023.82" y2="640.07" stroke="#2ecc71" stroke-width="2"/>
<rect x="1002.16" y="598.70" width="43.33" height="31.44" fill="#2ecc71" stroke="#2ecc71" stroke-width="1"/>
<text x="1023.82" y="704" font-size="11" fill="#555555" text-anchor="middle">11-28</text>
<text x="1023.82" y="720" font-size="11" fill="#555555" text-anchor="middle">10:00</text>
<line x1="1098.53" y1="537.48" x2="1098.53" y2="604.49" stroke="#2ecc71" stroke-width="2"/>
<rect x="1076.86" y="545.75" width="43.33" height="51.30" fill="#2ecc71" stroke="#2ecc71" stroke-width="1"/>
<text x="1098.53" y="704" font-size="11" fill="#555555" text-anchor="middle">11-28</text>
<text x="1098.53" y="720" font-size="11" fill="#555555" text-anchor="middle">11:00</text>
<line x1="1173.24" y1="517.62" x2="1173.24" y2="568.09" stroke="#e74c3c" stroke-width="2"/>
<rect x="1151.57" y="546.58" width="43.33" height="13.24" fill="#e74c3c" stroke="#e74c3c" stroke-width="1"/>
<text x="1173.24" y="704" font-size="11" fill="#555555" text-anchor="middle">11-28</text>
<text x="1173.24" y="720" font-size="11" fill="#555555" text-anchor="middle">12:00</text>
<line x1="1247.94" y1="543.27" x2="1247.94" y2="566.43" stroke="#e74c3c" stroke-width="2"/>
<rect x="1226.28" y="558.99" width="43.33" height="5.79" fill="#e74c3c" stroke="#e74c3c" stroke-width="1"/>
<text x="1247.94" y="704" font-size="11" fill="#555555" text-anchor="middle">11-28</text>
<text x="1247.94" y="720" font-size="11" fill="#555555" text-anchor="middle">13:00</text>
<line x1="1322.65" y1="362.07" x2="1322.65" y2="563.12" stroke="#2ecc71" stroke-width="2"/>
<rect x="1300.98" y="525.06" width="43.33" height="38.06" fill="#2ecc71" stroke="#2ecc71" stroke-width="1"/>
<text x="1322.65" y="704" font-size="11" fill="#555555" text-anchor="middle">11-28</text>
<text x="1322.65" y="720" font-size="11" fill="#555555" text-anchor="middle">14:00</text>
<line x1="725.00" y1="70.00" x2="805.00" y2="90.00" stroke="#f1c40f" stroke-width="2"/>
<rect x="805.00" y="42.00" width="220" height="72" rx="8" fill="#fff8dc" stroke="#f1c40f"/>
<text x="815.00" y="66.00" font-size="12" fill="#111111">目标K线 2025-11-28 06:00</text>
<text x="815.00" y="84.00" font-size="12" fill="#111111">振幅 28.61%</text>
<text x="815.00" y="102.00" font-size="12" fill="#111111">倍数 16.94x</text>
<line x1="650.29" y1="533.34" x2="620.29" y2="493.34" stroke="#3498db" stroke-width="2"/>
<rect x="400.29" y="457.34" width="220" height="58" rx="8" fill="#eef6ff" stroke="#3498db"/>
<text x="410.29" y="479.34" font-size="12" fill="#111111">前一根涨幅 1.03%</text>
<text x="410.29" y="497.34" font-size="12" fill="#111111">前一根振幅 1.69%</text>
</svg>