<svg xmlns="http://www.w3.org/2000/svg" width="1400" height="760" viewBox="0 0 1400 760">
<rect width="100%" height="100%" fill="#fcfcfc"/>
<text x="90" y="36" font-size="26" font-weight="700" fill="#111111">ANIME-USDT-SWAP 1H - 10倍命中</text>
<line x1="90" y1="70.00" x2="1360" y2="70.00" stroke="#d9d9d9" stroke-dasharray="4 4" stroke-width="1"/>
<text x="12" y="74.00" font-size="12" fill="#555555">0.008947</text>
<line x1="90" y1="186.00" x2="1360" y2="186.00" stroke="#d9d9d9" stroke-dasharray="4 4" stroke-width="1"/>
<text x="12" y="190.00" font-size="12" fill="#555555">0.008269</text>
<line x1="90" y1="302.00" x2="1360" y2="302.00" stroke="#d9d9d9" stroke-dasharray="4 4" stroke-width="1"/>
<text x="12" y="306.00" font-size="12" fill="#555555">0.007592</text>
<line x1="90" y1="418.00" x2="1360" y2="418.00" stroke="#d9d9d9" stroke-dasharray="4 4" stroke-width="1"/>
<text x="12" y="422.00" font-size="12" fill="#555555">0.006914</text>
<line x1="90" y1="534.00" x2="1360" y2="534.00" stroke="#d9d9d9" stroke-dasharray="4 4" stroke-width="1"/>
<text x="12" y="538.00" font-size="12" fill="#555555">0.006237</text>
<line x1="90" y1="650.00" x2="1360" y2="650.00" stroke="#d9d9d9" stroke-dasharray="4 4" stroke-width="1"/>
<text x="12" y="654.00" font-size="12" fill="#555555">0.005559</text>
<rect x="687.65" y="70" width="74.71" height="580.00" fill="#f1c40f" opacity="0.16"/>
<rect x="612.94" y="70" width="74.71" height="580.00" fill="#3498db" opacity="0.10"/>
<line x1="127.35" y1="595.05" x2="127.35" y2="650.00" stroke="#2ecc71" stroke-width="2"/>
<rect x="105.69" y="609.09" width="43.33" height="18.66" fill="#2ecc71" stroke="#2ecc71" stroke-width="1"/>
<text x="127.35" y="704" font-size="11" fill="#555555" text-anchor="middle">11-21</text>
<text x="127.35" y="720" font-size="11" fill="#555555" text-anchor="middle">20:00</text>
<line x1="202.06" y1="593.68" x2="202.06" y2="613.71" stroke="#2ecc71" stroke-width="2"/>
<rect x="180.39" y="602.24" width="43.33" height="6.33" fill="#2ecc71" stroke="#2ecc71" stroke-width="1"/>
<text x="202.06" y="704" font-size="11" fill="#555555" text-anchor="middle">11-21</text>
<text x="202.06" y="720" font-size="11" fill="#555555" text-anchor="middle">21:00</text>
<line x1="276.76" y1="575.36" x2="276.76" y2="607.37" stroke="#2ecc71" stroke-width="2"/>
<rect x="255.10" y="579.98" width="43.33" height="22.26" fill="#2ecc71" stroke="#2ecc71" stroke-width="1"/>
<text x="276.76" y="704" font-size="11" fill="#555555" text-anchor="middle">11-21</text>
<text x="276.76" y="720" font-size="11" fill="#555555" text-anchor="middle">22:00</text>
<line x1="351.47" y1="578.10" x2="351.47" y2="605.32" stroke="#e74c3c" stroke-width="2"/>
<rect x="329.81" y="579.64" width="43.33" height="19.34" fill="#e74c3c" stroke="#e74c3c" stroke-width="1"/>
<text x="351.47" y="704" font-size="11" fill="#555555" text-anchor="middle">11-21</text>
<text x="351.47" y="720" font-size="11" fill="#555555" text-anchor="middle">23:00</text>
<line x1="426.18" y1="541.98" x2="426.18" y2="608.23" stroke="#2ecc71" stroke-width="2"/>
<rect x="404.51" y="547.97" width="43.33" height="51.02" fill="#2ecc71" stroke="#2ecc71" stroke-width="1"/>
<text x="426.18" y="704" font-size="11" fill="#555555" text-anchor="middle">11-22</text>
<text x="426.18" y="720" font-size="11" fill="#555555" text-anchor="middle">00:00</text>
<line x1="500.88" y1="474.87" x2="500.88" y2="552.42" stroke="#2ecc71" stroke-width="2"/>
<rect x="479.22" y="527.77" width="43.33" height="20.20" fill="#2ecc71" stroke="#2ecc71" stroke-width="1"/>
<text x="500.88" y="704" font-size="11" fill="#555555" text-anchor="middle">11-22</text>
<text x="500.88" y="720" font-size="11" fill="#555555" text-anchor="middle">01:00</text>
<line x1="575.59" y1="503.80" x2="575.59" y2="539.24" stroke="#2ecc71" stroke-width="2"/>
<rect x="553.92" y="507.40" width="43.33" height="19.86" fill="#2ecc71" stroke="#2ecc71" stroke-width="1"/>
<text x="575.59" y="704" font-size="11" fill="#555555" text-anchor="middle">11-22</text>
<text x="575.59" y="720" font-size="11" fill="#555555" text-anchor="middle">02:00</text>
<line x1="650.29" y1="478.64" x2="650.29" y2="510.82" stroke="#2ecc71" stroke-width="2"/>
<rect x="628.63" y="484.80" width="43.33" height="22.77" fill="#2ecc71" stroke="#2ecc71" stroke-width="1"/>
<text x="650.29" y="704" font-size="11" fill="#555555" text-anchor="middle">11-22</text>
<text x="650.29" y="720" font-size="11" fill="#555555" text-anchor="middle">03:00</text>
<line x1="725.00" y1="70.00" x2="725.00" y2="488.39" stroke="#2ecc71" stroke-width="2"/>
<rect x="703.34" y="458.95" width="43.33" height="25.68" fill="#2ecc71" stroke="#2ecc71" stroke-width="1"/>
<text x="725.00" y="704" font-size="11" fill="#555555" text-anchor="middle">11-22</text>
<text x="725.00" y="720" font-size="11" fill="#555555" text-anchor="middle">04:00</text>
<line x1="799.71" y1="417.35" x2="799.71" y2="495.41" stroke="#2ecc71" stroke-width="2"/>
<rect x="778.04" y="456.38" width="43.33" height="2.57" fill="#2ecc71" stroke="#2ecc71" stroke-width="1"/>
<text x="799.71" y="704" font-size="11" fill="#555555" text-anchor="middle">11-22</text>
<text x="799.71" y="720" font-size="11" fill="#555555" text-anchor="middle">05:00</text>
<line x1="874.41" y1="451.76" x2="874.41" y2="502.43" stroke="#e74c3c" stroke-width="2"/>
<rect x="852.75" y="455.87" width="43.33" height="45.71" fill="#e74c3c" stroke="#e74c3c" stroke-width="1"/>
<text x="874.41" y="704" font-size="11" fill="#555555" text-anchor="middle">11-22</text>
<text x="874.41" y="720" font-size="11" fill="#555555" text-anchor="middle">06:00</text>
<line x1="949.12" y1="456.89" x2="949.12" y2="524.86" stroke="#2ecc71" stroke-width="2"/>
<rect x="927.45" y="465.11" width="43.33" height="36.46" fill="#2ecc71" stroke="#2ecc71" stroke-width="1"/>
<text x="949.12" y="704" font-size="11" fill="#555555" text-anchor="middle">11-22</text>
<text x="949.12" y="720" font-size="11" fill="#555555" text-anchor="middle">07:00</text>
<line x1="1023.82" y1="459.12" x2="1023.82" y2="497.13" stroke="#e74c3c" stroke-width="2"/>
<rect x="1002.16" y="464.77" width="43.33" height="26.36" fill="#e74c3c" stroke="#e74c3c" stroke-width="1"/>
<text x="1023.82" y="704" font-size="11" fill="#555555" text-anchor="middle">11-22</text>
<text x="1023.82" y="720" font-size="11" fill="#555555" text-anchor="middle">08:00</text>
<line x1="1098.53" y1="442.51" x2="1098.53" y2="491.13" stroke="#2ecc71" stroke-width="2"/>
<rect x="1076.86" y="443.88" width="43.33" height="47.25" fill="#2ecc71" stroke="#2ecc71" stroke-width="1"/>
<text x="1098.53" y="704" font-size="11" fill="#555555" text-anchor="middle">11-22</text>
<text x="1098.53" y="720" font-size="11" fill="#555555" text-anchor="middle">09:00</text>
<line x1="1173.24" y1="413.93" x2="1173.24" y2="453.47" stroke="#2ecc71" stroke-width="2"/>
<rect x="1151.57" y="423.51" width="43.33" height="20.89" fill="#2ecc71" stroke="#2ecc71" stroke-width="1"/>
<text x="1173.24" y="704" font-size="11" fill="#555555" text-anchor="middle">11-22</text>
<text x="1173.24" y="720" font-size="11" fill="#555555" text-anchor="middle">10:00</text>
<line x1="1247.94" y1="379.17" x2="1247.94" y2="471.62" stroke="#e74c3c" stroke-width="2"/>
<rect x="1226.28" y="423.00" width="43.33" height="39.03" fill="#e74c3c" stroke="#e74c3c" stroke-width="1"/>
<text x="1247.94" y="704" font-size="11" fill="#555555" text-anchor="middle">11-22</text>
<text x="1247.94" y="720" font-size="11" fill="#555555" text-anchor="middle">11:00</text>
<line x1="1322.65" y1="456.04" x2="1322.65" y2="495.76" stroke="#e74c3c" stroke-width="2"/>
<rect x="1300.98" y="463.06" width="43.33" height="17.63" fill="#e74c3c" stroke="#e74c3c" stroke-width="1"/>
<text x="1322.65" y="704" font-size="11" fill="#555555" text-anchor="middle">11-22</text>
<text x="1322.65" y="720" font-size="11" fill="#555555" text-anchor="middle">12:00</text>
<line x1="725.00" y1="70.00" x2="805.00" y2="90.00" stroke="#f1c40f" stroke-width="2"/>
<rect x="805.00" y="42.00" width="220" height="72" rx="8" fill="#fff8dc" stroke="#f1c40f"/>
<text x="815.00" y="66.00" font-size="12" fill="#111111">目标K线 2025-11-22 04:00</text>
<text x="815.00" y="84.00" font-size="12" fill="#111111">振幅 37.46%</text>
<text x="815.00" y="102.00" font-size="12" fill="#111111">倍数 12.73x</text>
<line x1="650.29" y1="478.64" x2="620.29" y2="438.64" stroke="#3498db" stroke-width="2"/>
<rect x="400.29" y="402.64" width="220" height="58" rx="8" fill="#eef6ff" stroke="#3498db"/>
<text x="410.29" y="424.64" font-size="12" fill="#111111">前一根涨幅 2.08%</text>
<text x="410.29" y="442.64" font-size="12" fill="#111111">前一根振幅 2.94%</text>
</svg>