<svg xmlns="http://www.w3.org/2000/svg" width="1400" height="760" viewBox="0 0 1400 760">
<rect width="100%" height="100%" fill="#fcfcfc"/>
<text x="90" y="36" font-size="26" font-weight="700" fill="#111111">BABY-USDT-SWAP 1H - 10倍命中</text>
<line x1="90" y1="70.00" x2="1360" y2="70.00" stroke="#d9d9d9" stroke-dasharray="4 4" stroke-width="1"/>
<text x="12" y="74.00" font-size="12" fill="#555555">0.056940</text>
<line x1="90" y1="186.00" x2="1360" y2="186.00" stroke="#d9d9d9" stroke-dasharray="4 4" stroke-width="1"/>
<text x="12" y="190.00" font-size="12" fill="#555555">0.054522</text>
<line x1="90" y1="302.00" x2="1360" y2="302.00" stroke="#d9d9d9" stroke-dasharray="4 4" stroke-width="1"/>
<text x="12" y="306.00" font-size="12" fill="#555555">0.052104</text>
<line x1="90" y1="418.00" x2="1360" y2="418.00" stroke="#d9d9d9" stroke-dasharray="4 4" stroke-width="1"/>
<text x="12" y="422.00" font-size="12" fill="#555555">0.049686</text>
<line x1="90" y1="534.00" x2="1360" y2="534.00" stroke="#d9d9d9" stroke-dasharray="4 4" stroke-width="1"/>
<text x="12" y="538.00" font-size="12" fill="#555555">0.047268</text>
<line x1="90" y1="650.00" x2="1360" y2="650.00" stroke="#d9d9d9" stroke-dasharray="4 4" stroke-width="1"/>
<text x="12" y="654.00" font-size="12" fill="#555555">0.044850</text>
<rect x="687.65" y="70" width="74.71" height="580.00" fill="#f1c40f" opacity="0.16"/>
<rect x="612.94" y="70" width="74.71" height="580.00" fill="#3498db" opacity="0.10"/>
<line x1="127.35" y1="571.80" x2="127.35" y2="650.00" stroke="#2ecc71" stroke-width="2"/>
<rect x="105.69" y="584.76" width="43.33" height="58.53" fill="#2ecc71" stroke="#2ecc71" stroke-width="1"/>
<text x="127.35" y="704" font-size="11" fill="#555555" text-anchor="middle">07-10</text>
<text x="127.35" y="720" font-size="11" fill="#555555" text-anchor="middle">03:00</text>
<line x1="202.06" y1="557.41" x2="202.06" y2="597.71" stroke="#2ecc71" stroke-width="2"/>
<rect x="180.39" y="567.49" width="43.33" height="17.75" fill="#2ecc71" stroke="#2ecc71" stroke-width="1"/>
<text x="202.06" y="704" font-size="11" fill="#555555" text-anchor="middle">07-10</text>
<text x="202.06" y="720" font-size="11" fill="#555555" text-anchor="middle">04:00</text>
<line x1="276.76" y1="511.36" x2="276.76" y2="569.40" stroke="#2ecc71" stroke-width="2"/>
<rect x="255.10" y="524.79" width="43.33" height="43.18" fill="#2ecc71" stroke="#2ecc71" stroke-width="1"/>
<text x="276.76" y="704" font-size="11" fill="#555555" text-anchor="middle">07-10</text>
<text x="276.76" y="720" font-size="11" fill="#555555" text-anchor="middle">05:00</text>
<line x1="351.47" y1="510.88" x2="351.47" y2="536.78" stroke="#e74c3c" stroke-width="2"/>
<rect x="329.81" y="523.35" width="43.33" height="1.44" fill="#e74c3c" stroke="#e74c3c" stroke-width="1"/>
<text x="351.47" y="704" font-size="11" fill="#555555" text-anchor="middle">07-10</text>
<text x="351.47" y="720" font-size="11" fill="#555555" text-anchor="middle">06:00</text>
<line x1="426.18" y1="516.15" x2="426.18" y2="546.38" stroke="#e74c3c" stroke-width="2"/>
<rect x="404.51" y="525.27" width="43.33" height="5.76" fill="#e74c3c" stroke="#e74c3c" stroke-width="1"/>
<text x="426.18" y="704" font-size="11" fill="#555555" text-anchor="middle">07-10</text>
<text x="426.18" y="720" font-size="11" fill="#555555" text-anchor="middle">07:00</text>
<line x1="500.88" y1="519.99" x2="500.88" y2="568.92" stroke="#e74c3c" stroke-width="2"/>
<rect x="479.22" y="531.51" width="43.33" height="30.22" fill="#e74c3c" stroke="#e74c3c" stroke-width="1"/>
<text x="500.88" y="704" font-size="11" fill="#555555" text-anchor="middle">07-10</text>
<text x="500.88" y="720" font-size="11" fill="#555555" text-anchor="middle">08:00</text>
<line x1="575.59" y1="538.70" x2="575.59" y2="561.73" stroke="#2ecc71" stroke-width="2"/>
<rect x="553.92" y="555.97" width="43.33" height="5.28" fill="#2ecc71" stroke="#2ecc71" stroke-width="1"/>
<text x="575.59" y="704" font-size="11" fill="#555555" text-anchor="middle">07-10</text>
<text x="575.59" y="720" font-size="11" fill="#555555" text-anchor="middle">09:00</text>
<line x1="650.29" y1="518.55" x2="650.29" y2="559.33" stroke="#2ecc71" stroke-width="2"/>
<rect x="628.63" y="519.51" width="43.33" height="37.42" fill="#2ecc71" stroke="#2ecc71" stroke-width="1"/>
<text x="650.29" y="704" font-size="11" fill="#555555" text-anchor="middle">07-10</text>
<text x="650.29" y="720" font-size="11" fill="#555555" text-anchor="middle">10:00</text>
<line x1="725.00" y1="70.00" x2="725.00" y2="532.46" stroke="#2ecc71" stroke-width="2"/>
<rect x="703.34" y="391.90" width="43.33" height="127.61" fill="#2ecc71" stroke="#2ecc71" stroke-width="1"/>
<text x="725.00" y="704" font-size="11" fill="#555555" text-anchor="middle">07-10</text>
<text x="725.00" y="720" font-size="11" fill="#555555" text-anchor="middle">11:00</text>
<line x1="799.71" y1="216.80" x2="799.71" y2="415.41" stroke="#2ecc71" stroke-width="2"/>
<rect x="778.04" y="308.91" width="43.33" height="83.47" fill="#2ecc71" stroke="#2ecc71" stroke-width="1"/>
<text x="799.71" y="704" font-size="11" fill="#555555" text-anchor="middle">07-10</text>
<text x="799.71" y="720" font-size="11" fill="#555555" text-anchor="middle">12:00</text>
<line x1="874.41" y1="289.24" x2="874.41" y2="398.62" stroke="#e74c3c" stroke-width="2"/>
<rect x="852.75" y="307.95" width="43.33" height="46.05" fill="#e74c3c" stroke="#e74c3c" stroke-width="1"/>
<text x="874.41" y="704" font-size="11" fill="#555555" text-anchor="middle">07-10</text>
<text x="874.41" y="720" font-size="11" fill="#555555" text-anchor="middle">13:00</text>
<line x1="949.12" y1="335.77" x2="949.12" y2="439.40" stroke="#e74c3c" stroke-width="2"/>
<rect x="927.45" y="354.00" width="43.33" height="21.59" fill="#e74c3c" stroke="#e74c3c" stroke-width="1"/>
<text x="949.12" y="704" font-size="11" fill="#555555" text-anchor="middle">07-10</text>
<text x="949.12" y="720" font-size="11" fill="#555555" text-anchor="middle">14:00</text>
<line x1="1023.82" y1="363.60" x2="1023.82" y2="442.75" stroke="#e74c3c" stroke-width="2"/>
<rect x="1002.16" y="375.11" width="43.33" height="5.76" fill="#e74c3c" stroke="#e74c3c" stroke-width="1"/>
<text x="1023.82" y="704" font-size="11" fill="#555555" text-anchor="middle">07-10</text>
<text x="1023.82" y="720" font-size="11" fill="#555555" text-anchor="middle">15:00</text>
<line x1="1098.53" y1="382.79" x2="1098.53" y2="456.19" stroke="#e74c3c" stroke-width="2"/>
<rect x="1076.86" y="382.79" width="43.33" height="64.28" fill="#e74c3c" stroke="#e74c3c" stroke-width="1"/>
<text x="1098.53" y="704" font-size="11" fill="#555555" text-anchor="middle">07-10</text>
<text x="1098.53" y="720" font-size="11" fill="#555555" text-anchor="middle">16:00</text>
<line x1="1173.24" y1="441.32" x2="1173.24" y2="478.73" stroke="#e74c3c" stroke-width="2"/>
<rect x="1151.57" y="446.59" width="43.33" height="16.79" fill="#e74c3c" stroke="#e74c3c" stroke-width="1"/>
<text x="1173.24" y="704" font-size="11" fill="#555555" text-anchor="middle">07-10</text>
<text x="1173.24" y="720" font-size="11" fill="#555555" text-anchor="middle">17:00</text>
<line x1="1247.94" y1="419.73" x2="1247.94" y2="468.66" stroke="#2ecc71" stroke-width="2"/>
<rect x="1226.28" y="435.08" width="43.33" height="27.82" fill="#2ecc71" stroke="#2ecc71" stroke-width="1"/>
<text x="1247.94" y="704" font-size="11" fill="#555555" text-anchor="middle">07-10</text>
<text x="1247.94" y="720" font-size="11" fill="#555555" text-anchor="middle">18:00</text>
<line x1="1322.65" y1="433.16" x2="1322.65" y2="512.80" stroke="#e74c3c" stroke-width="2"/>
<rect x="1300.98" y="435.08" width="43.33" height="47.97" fill="#e74c3c" stroke="#e74c3c" stroke-width="1"/>
<text x="1322.65" y="704" font-size="11" fill="#555555" text-anchor="middle">07-10</text>
<text x="1322.65" y="720" font-size="11" fill="#555555" text-anchor="middle">19:00</text>
<line x1="725.00" y1="70.00" x2="805.00" y2="90.00" stroke="#f1c40f" stroke-width="2"/>
<rect x="805.00" y="42.00" width="220" height="72" rx="8" fill="#fff8dc" stroke="#f1c40f"/>
<text x="815.00" y="66.00" font-size="12" fill="#111111">目标K线 2025-07-10 11:00</text>
<text x="815.00" y="84.00" font-size="12" fill="#111111">振幅 20.26%</text>
<text x="815.00" y="102.00" font-size="12" fill="#111111">倍数 11.16x</text>
<line x1="650.29" y1="518.55" x2="620.29" y2="478.55" stroke="#3498db" stroke-width="2"/>
<rect x="400.29" y="442.55" width="220" height="58" rx="8" fill="#eef6ff" stroke="#3498db"/>
<text x="410.29" y="464.55" font-size="12" fill="#111111">前一根涨幅 1.67%</text>
<text x="410.29" y="482.55" font-size="12" fill="#111111">前一根振幅 1.82%</text>
</svg>