<svg xmlns="http://www.w3.org/2000/svg" width="1400" height="760" viewBox="0 0 1400 760">
<rect width="100%" height="100%" fill="#fcfcfc"/>
<text x="90" y="36" font-size="26" font-weight="700" fill="#111111">BIGTIME-USDT-SWAP 1H - 10倍命中</text>
<line x1="90" y1="70.00" x2="1360" y2="70.00" stroke="#d9d9d9" stroke-dasharray="4 4" stroke-width="1"/>
<text x="12" y="74.00" font-size="12" fill="#555555">0.070980</text>
<line x1="90" y1="186.00" x2="1360" y2="186.00" stroke="#d9d9d9" stroke-dasharray="4 4" stroke-width="1"/>
<text x="12" y="190.00" font-size="12" fill="#555555">0.067652</text>
<line x1="90" y1="302.00" x2="1360" y2="302.00" stroke="#d9d9d9" stroke-dasharray="4 4" stroke-width="1"/>
<text x="12" y="306.00" font-size="12" fill="#555555">0.064324</text>
<line x1="90" y1="418.00" x2="1360" y2="418.00" stroke="#d9d9d9" stroke-dasharray="4 4" stroke-width="1"/>
<text x="12" y="422.00" font-size="12" fill="#555555">0.060996</text>
<line x1="90" y1="534.00" x2="1360" y2="534.00" stroke="#d9d9d9" stroke-dasharray="4 4" stroke-width="1"/>
<text x="12" y="538.00" font-size="12" fill="#555555">0.057668</text>
<line x1="90" y1="650.00" x2="1360" y2="650.00" stroke="#d9d9d9" stroke-dasharray="4 4" stroke-width="1"/>
<text x="12" y="654.00" font-size="12" fill="#555555">0.054340</text>
<rect x="687.65" y="70" width="74.71" height="580.00" fill="#f1c40f" opacity="0.16"/>
<rect x="612.94" y="70" width="74.71" height="580.00" fill="#3498db" opacity="0.10"/>
<line x1="127.35" y1="609.92" x2="127.35" y2="646.51" stroke="#e74c3c" stroke-width="2"/>
<rect x="105.69" y="614.45" width="43.33" height="32.07" fill="#e74c3c" stroke="#e74c3c" stroke-width="1"/>
<text x="127.35" y="704" font-size="11" fill="#555555" text-anchor="middle">08-29</text>
<text x="127.35" y="720" font-size="11" fill="#555555" text-anchor="middle">00:00</text>
<line x1="202.06" y1="628.04" x2="202.06" y2="650.00" stroke="#2ecc71" stroke-width="2"/>
<rect x="180.39" y="632.22" width="43.33" height="14.64" fill="#2ecc71" stroke="#2ecc71" stroke-width="1"/>
<text x="202.06" y="704" font-size="11" fill="#555555" text-anchor="middle">08-29</text>
<text x="202.06" y="720" font-size="11" fill="#555555" text-anchor="middle">01:00</text>
<line x1="276.76" y1="613.40" x2="276.76" y2="637.80" stroke="#2ecc71" stroke-width="2"/>
<rect x="255.10" y="619.33" width="43.33" height="12.90" fill="#2ecc71" stroke="#2ecc71" stroke-width="1"/>
<text x="276.76" y="704" font-size="11" fill="#555555" text-anchor="middle">08-29</text>
<text x="276.76" y="720" font-size="11" fill="#555555" text-anchor="middle">02:00</text>
<line x1="351.47" y1="614.45" x2="351.47" y2="645.47" stroke="#e74c3c" stroke-width="2"/>
<rect x="329.81" y="619.33" width="43.33" height="25.79" fill="#e74c3c" stroke="#e74c3c" stroke-width="1"/>
<text x="351.47" y="704" font-size="11" fill="#555555" text-anchor="middle">08-29</text>
<text x="351.47" y="720" font-size="11" fill="#555555" text-anchor="middle">03:00</text>
<line x1="426.18" y1="628.04" x2="426.18" y2="648.95" stroke="#2ecc71" stroke-width="2"/>
<rect x="404.51" y="630.83" width="43.33" height="14.64" fill="#2ecc71" stroke="#2ecc71" stroke-width="1"/>
<text x="426.18" y="704" font-size="11" fill="#555555" text-anchor="middle">08-29</text>
<text x="426.18" y="720" font-size="11" fill="#555555" text-anchor="middle">04:00</text>
<line x1="500.88" y1="597.72" x2="500.88" y2="631.53" stroke="#2ecc71" stroke-width="2"/>
<rect x="479.22" y="600.50" width="43.33" height="29.98" fill="#2ecc71" stroke="#2ecc71" stroke-width="1"/>
<text x="500.88" y="704" font-size="11" fill="#555555" text-anchor="middle">08-29</text>
<text x="500.88" y="720" font-size="11" fill="#555555" text-anchor="middle">05:00</text>
<line x1="575.59" y1="583.08" x2="575.59" y2="601.90" stroke="#2ecc71" stroke-width="2"/>
<rect x="553.92" y="586.56" width="43.33" height="13.25" fill="#2ecc71" stroke="#2ecc71" stroke-width="1"/>
<text x="575.59" y="704" font-size="11" fill="#555555" text-anchor="middle">08-29</text>
<text x="575.59" y="720" font-size="11" fill="#555555" text-anchor="middle">06:00</text>
<line x1="650.29" y1="561.12" x2="650.29" y2="593.53" stroke="#2ecc71" stroke-width="2"/>
<rect x="628.63" y="562.86" width="43.33" height="24.05" fill="#2ecc71" stroke="#2ecc71" stroke-width="1"/>
<text x="650.29" y="704" font-size="11" fill="#555555" text-anchor="middle">08-29</text>
<text x="650.29" y="720" font-size="11" fill="#555555" text-anchor="middle">07:00</text>
<line x1="725.00" y1="70.00" x2="725.00" y2="562.16" stroke="#2ecc71" stroke-width="2"/>
<rect x="703.34" y="243.58" width="43.33" height="318.58" fill="#2ecc71" stroke="#2ecc71" stroke-width="1"/>
<text x="725.00" y="704" font-size="11" fill="#555555" text-anchor="middle">08-29</text>
<text x="725.00" y="720" font-size="11" fill="#555555" text-anchor="middle">08:00</text>
<line x1="799.71" y1="179.80" x2="799.71" y2="326.19" stroke="#e74c3c" stroke-width="2"/>
<rect x="778.04" y="244.63" width="43.33" height="28.93" fill="#e74c3c" stroke="#e74c3c" stroke-width="1"/>
<text x="799.71" y="704" font-size="11" fill="#555555" text-anchor="middle">08-29</text>
<text x="799.71" y="720" font-size="11" fill="#555555" text-anchor="middle">09:00</text>
<line x1="874.41" y1="242.54" x2="874.41" y2="315.04" stroke="#2ecc71" stroke-width="2"/>
<rect x="852.75" y="263.10" width="43.33" height="10.11" fill="#2ecc71" stroke="#2ecc71" stroke-width="1"/>
<text x="874.41" y="704" font-size="11" fill="#555555" text-anchor="middle">08-29</text>
<text x="874.41" y="720" font-size="11" fill="#555555" text-anchor="middle">10:00</text>
<line x1="949.12" y1="230.34" x2="949.12" y2="402.87" stroke="#e74c3c" stroke-width="2"/>
<rect x="927.45" y="262.75" width="43.33" height="118.16" fill="#e74c3c" stroke="#e74c3c" stroke-width="1"/>
<text x="949.12" y="704" font-size="11" fill="#555555" text-anchor="middle">08-29</text>
<text x="949.12" y="720" font-size="11" fill="#555555" text-anchor="middle">11:00</text>
<line x1="1023.82" y1="378.82" x2="1023.82" y2="459.34" stroke="#e74c3c" stroke-width="2"/>
<rect x="1002.16" y="381.26" width="43.33" height="63.09" fill="#e74c3c" stroke="#e74c3c" stroke-width="1"/>
<text x="1023.82" y="704" font-size="11" fill="#555555" text-anchor="middle">08-29</text>
<text x="1023.82" y="720" font-size="11" fill="#555555" text-anchor="middle">12:00</text>
<line x1="1098.53" y1="404.62" x2="1098.53" y2="451.67" stroke="#2ecc71" stroke-width="2"/>
<rect x="1076.86" y="416.81" width="43.33" height="26.84" fill="#2ecc71" stroke="#2ecc71" stroke-width="1"/>
<text x="1098.53" y="704" font-size="11" fill="#555555" text-anchor="middle">08-29</text>
<text x="1098.53" y="720" font-size="11" fill="#555555" text-anchor="middle">13:00</text>
<line x1="1173.24" y1="412.28" x2="1173.24" y2="514.41" stroke="#e74c3c" stroke-width="2"/>
<rect x="1151.57" y="417.16" width="43.33" height="84.00" fill="#e74c3c" stroke="#e74c3c" stroke-width="1"/>
<text x="1173.24" y="704" font-size="11" fill="#555555" text-anchor="middle">08-29</text>
<text x="1173.24" y="720" font-size="11" fill="#555555" text-anchor="middle">14:00</text>
<line x1="1247.94" y1="488.97" x2="1247.94" y2="529.75" stroke="#e74c3c" stroke-width="2"/>
<rect x="1226.28" y="500.12" width="43.33" height="19.17" fill="#e74c3c" stroke="#e74c3c" stroke-width="1"/>
<text x="1247.94" y="704" font-size="11" fill="#555555" text-anchor="middle">08-29</text>
<text x="1247.94" y="720" font-size="11" fill="#555555" text-anchor="middle">15:00</text>
<line x1="1322.65" y1="502.91" x2="1322.65" y2="544.74" stroke="#e74c3c" stroke-width="2"/>
<rect x="1300.98" y="518.94" width="43.33" height="24.05" fill="#e74c3c" stroke="#e74c3c" stroke-width="1"/>
<text x="1322.65" y="704" font-size="11" fill="#555555" text-anchor="middle">08-29</text>
<text x="1322.65" y="720" font-size="11" fill="#555555" text-anchor="middle">16:00</text>
<line x1="725.00" y1="70.00" x2="805.00" y2="90.00" stroke="#f1c40f" stroke-width="2"/>
<rect x="805.00" y="42.00" width="220" height="72" rx="8" fill="#fff8dc" stroke="#f1c40f"/>
<text x="815.00" y="66.00" font-size="12" fill="#111111">目标K线 2025-08-29 08:00</text>
<text x="815.00" y="84.00" font-size="12" fill="#111111">振幅 24.83%</text>
<text x="815.00" y="102.00" font-size="12" fill="#111111">倍数 14.99x</text>
<line x1="650.29" y1="561.12" x2="620.29" y2="521.12" stroke="#3498db" stroke-width="2"/>
<rect x="400.29" y="485.12" width="220" height="58" rx="8" fill="#eef6ff" stroke="#3498db"/>
<text x="410.29" y="507.12" font-size="12" fill="#111111">前一根涨幅 1.23%</text>
<text x="410.29" y="525.12" font-size="12" fill="#111111">前一根振幅 1.66%</text>
</svg>