<svg xmlns="http://www.w3.org/2000/svg" width="1400" height="760" viewBox="0 0 1400 760">
<rect width="100%" height="100%" fill="#fcfcfc"/>
<text x="90" y="36" font-size="26" font-weight="700" fill="#111111">COMP-USDT-SWAP 1H - 10倍命中</text>
<line x1="90" y1="70.00" x2="1360" y2="70.00" stroke="#d9d9d9" stroke-dasharray="4 4" stroke-width="1"/>
<text x="12" y="74.00" font-size="12" fill="#555555">65.710000</text>
<line x1="90" y1="186.00" x2="1360" y2="186.00" stroke="#d9d9d9" stroke-dasharray="4 4" stroke-width="1"/>
<text x="12" y="190.00" font-size="12" fill="#555555">63.118000</text>
<line x1="90" y1="302.00" x2="1360" y2="302.00" stroke="#d9d9d9" stroke-dasharray="4 4" stroke-width="1"/>
<text x="12" y="306.00" font-size="12" fill="#555555">60.526000</text>
<line x1="90" y1="418.00" x2="1360" y2="418.00" stroke="#d9d9d9" stroke-dasharray="4 4" stroke-width="1"/>
<text x="12" y="422.00" font-size="12" fill="#555555">57.934000</text>
<line x1="90" y1="534.00" x2="1360" y2="534.00" stroke="#d9d9d9" stroke-dasharray="4 4" stroke-width="1"/>
<text x="12" y="538.00" font-size="12" fill="#555555">55.342000</text>
<line x1="90" y1="650.00" x2="1360" y2="650.00" stroke="#d9d9d9" stroke-dasharray="4 4" stroke-width="1"/>
<text x="12" y="654.00" font-size="12" fill="#555555">52.750000</text>
<rect x="687.65" y="70" width="74.71" height="580.00" fill="#f1c40f" opacity="0.16"/>
<rect x="612.94" y="70" width="74.71" height="580.00" fill="#3498db" opacity="0.10"/>
<line x1="127.35" y1="576.16" x2="127.35" y2="650.00" stroke="#2ecc71" stroke-width="2"/>
<rect x="105.69" y="576.60" width="43.33" height="68.47" fill="#2ecc71" stroke="#2ecc71" stroke-width="1"/>
<text x="127.35" y="704" font-size="11" fill="#555555" text-anchor="middle">11-22</text>
<text x="127.35" y="720" font-size="11" fill="#555555" text-anchor="middle">23:00</text>
<line x1="202.06" y1="565.86" x2="202.06" y2="609.72" stroke="#e74c3c" stroke-width="2"/>
<rect x="180.39" y="577.05" width="43.33" height="17.90" fill="#e74c3c" stroke="#e74c3c" stroke-width="1"/>
<text x="202.06" y="704" font-size="11" fill="#555555" text-anchor="middle">11-23</text>
<text x="202.06" y="720" font-size="11" fill="#555555" text-anchor="middle">00:00</text>
<line x1="276.76" y1="583.77" x2="276.76" y2="624.94" stroke="#e74c3c" stroke-width="2"/>
<rect x="255.10" y="594.95" width="43.33" height="9.40" fill="#e74c3c" stroke="#e74c3c" stroke-width="1"/>
<text x="276.76" y="704" font-size="11" fill="#555555" text-anchor="middle">11-23</text>
<text x="276.76" y="720" font-size="11" fill="#555555" text-anchor="middle">01:00</text>
<line x1="351.47" y1="576.16" x2="351.47" y2="609.72" stroke="#e74c3c" stroke-width="2"/>
<rect x="329.81" y="603.01" width="43.33" height="2.69" fill="#e74c3c" stroke="#e74c3c" stroke-width="1"/>
<text x="351.47" y="704" font-size="11" fill="#555555" text-anchor="middle">11-23</text>
<text x="351.47" y="720" font-size="11" fill="#555555" text-anchor="middle">02:00</text>
<line x1="426.18" y1="582.42" x2="426.18" y2="615.99" stroke="#2ecc71" stroke-width="2"/>
<rect x="404.51" y="590.48" width="43.33" height="15.66" fill="#2ecc71" stroke="#2ecc71" stroke-width="1"/>
<text x="426.18" y="704" font-size="11" fill="#555555" text-anchor="middle">11-23</text>
<text x="426.18" y="720" font-size="11" fill="#555555" text-anchor="middle">03:00</text>
<line x1="500.88" y1="562.73" x2="500.88" y2="597.19" stroke="#2ecc71" stroke-width="2"/>
<rect x="479.22" y="563.18" width="43.33" height="28.19" fill="#2ecc71" stroke="#2ecc71" stroke-width="1"/>
<text x="500.88" y="704" font-size="11" fill="#555555" text-anchor="middle">11-23</text>
<text x="500.88" y="720" font-size="11" fill="#555555" text-anchor="middle">04:00</text>
<line x1="575.59" y1="523.80" x2="575.59" y2="576.60" stroke="#2ecc71" stroke-width="2"/>
<rect x="553.92" y="528.72" width="43.33" height="34.91" fill="#2ecc71" stroke="#2ecc71" stroke-width="1"/>
<text x="575.59" y="704" font-size="11" fill="#555555" text-anchor="middle">11-23</text>
<text x="575.59" y="720" font-size="11" fill="#555555" text-anchor="middle">05:00</text>
<line x1="650.29" y1="488.89" x2="650.29" y2="529.17" stroke="#2ecc71" stroke-width="2"/>
<rect x="628.63" y="489.34" width="43.33" height="39.83" fill="#2ecc71" stroke="#2ecc71" stroke-width="1"/>
<text x="650.29" y="704" font-size="11" fill="#555555" text-anchor="middle">11-23</text>
<text x="650.29" y="720" font-size="11" fill="#555555" text-anchor="middle">06:00</text>
<line x1="725.00" y1="70.00" x2="725.00" y2="492.47" stroke="#2ecc71" stroke-width="2"/>
<rect x="703.34" y="118.33" width="43.33" height="371.90" fill="#2ecc71" stroke="#2ecc71" stroke-width="1"/>
<text x="725.00" y="704" font-size="11" fill="#555555" text-anchor="middle">11-23</text>
<text x="725.00" y="720" font-size="11" fill="#555555" text-anchor="middle">07:00</text>
<line x1="799.71" y1="115.65" x2="799.71" y2="362.69" stroke="#e74c3c" stroke-width="2"/>
<rect x="778.04" y="117.89" width="43.33" height="107.85" fill="#e74c3c" stroke="#e74c3c" stroke-width="1"/>
<text x="799.71" y="704" font-size="11" fill="#555555" text-anchor="middle">11-23</text>
<text x="799.71" y="720" font-size="11" fill="#555555" text-anchor="middle">08:00</text>
<line x1="874.41" y1="195.76" x2="874.41" y2="308.09" stroke="#e74c3c" stroke-width="2"/>
<rect x="852.75" y="225.29" width="43.33" height="57.73" fill="#e74c3c" stroke="#e74c3c" stroke-width="1"/>
<text x="874.41" y="704" font-size="11" fill="#555555" text-anchor="middle">11-23</text>
<text x="874.41" y="720" font-size="11" fill="#555555" text-anchor="middle">09:00</text>
<line x1="949.12" y1="260.20" x2="949.12" y2="376.56" stroke="#e74c3c" stroke-width="2"/>
<rect x="927.45" y="283.47" width="43.33" height="76.08" fill="#e74c3c" stroke="#e74c3c" stroke-width="1"/>
<text x="949.12" y="704" font-size="11" fill="#555555" text-anchor="middle">11-23</text>
<text x="949.12" y="720" font-size="11" fill="#555555" text-anchor="middle">10:00</text>
<line x1="1023.82" y1="306.30" x2="1023.82" y2="366.71" stroke="#2ecc71" stroke-width="2"/>
<rect x="1002.16" y="316.14" width="43.33" height="44.31" fill="#2ecc71" stroke="#2ecc71" stroke-width="1"/>
<text x="1023.82" y="704" font-size="11" fill="#555555" text-anchor="middle">11-23</text>
<text x="1023.82" y="720" font-size="11" fill="#555555" text-anchor="middle">11:00</text>
<line x1="1098.53" y1="246.77" x2="1098.53" y2="332.25" stroke="#2ecc71" stroke-width="2"/>
<rect x="1076.86" y="249.46" width="43.33" height="64.44" fill="#2ecc71" stroke="#2ecc71" stroke-width="1"/>
<text x="1098.53" y="704" font-size="11" fill="#555555" text-anchor="middle">11-23</text>
<text x="1098.53" y="720" font-size="11" fill="#555555" text-anchor="middle">12:00</text>
<line x1="1173.24" y1="207.39" x2="1173.24" y2="256.17" stroke="#2ecc71" stroke-width="2"/>
<rect x="1151.57" y="221.27" width="43.33" height="27.75" fill="#2ecc71" stroke="#2ecc71" stroke-width="1"/>
<text x="1173.24" y="704" font-size="11" fill="#555555" text-anchor="middle">11-23</text>
<text x="1173.24" y="720" font-size="11" fill="#555555" text-anchor="middle">13:00</text>
<line x1="1247.94" y1="197.99" x2="1247.94" y2="257.07" stroke="#e74c3c" stroke-width="2"/>
<rect x="1226.28" y="221.71" width="43.33" height="4.03" fill="#e74c3c" stroke="#e74c3c" stroke-width="1"/>
<text x="1247.94" y="704" font-size="11" fill="#555555" text-anchor="middle">11-23</text>
<text x="1247.94" y="720" font-size="11" fill="#555555" text-anchor="middle">14:00</text>
<line x1="1322.65" y1="182.78" x2="1322.65" y2="242.75" stroke="#2ecc71" stroke-width="2"/>
<rect x="1300.98" y="209.18" width="43.33" height="17.90" fill="#2ecc71" stroke="#2ecc71" stroke-width="1"/>
<text x="1322.65" y="704" font-size="11" fill="#555555" text-anchor="middle">11-23</text>
<text x="1322.65" y="720" font-size="11" fill="#555555" text-anchor="middle">15:00</text>
<line x1="725.00" y1="70.00" x2="805.00" y2="90.00" stroke="#f1c40f" stroke-width="2"/>
<rect x="805.00" y="42.00" width="220" height="72" rx="8" fill="#fff8dc" stroke="#f1c40f"/>
<text x="815.00" y="66.00" font-size="12" fill="#111111">目标K线 2024-11-23 07:00</text>
<text x="815.00" y="84.00" font-size="12" fill="#111111">振幅 16.76%</text>
<text x="815.00" y="102.00" font-size="12" fill="#111111">倍数 10.33x</text>
<line x1="650.29" y1="488.89" x2="620.29" y2="448.89" stroke="#3498db" stroke-width="2"/>
<rect x="400.29" y="412.89" width="220" height="58" rx="8" fill="#eef6ff" stroke="#3498db"/>
<text x="410.29" y="434.89" font-size="12" fill="#111111">前一根涨幅 1.61%</text>
<text x="410.29" y="452.89" font-size="12" fill="#111111">前一根振幅 1.62%</text>
</svg>