<svg xmlns="http://www.w3.org/2000/svg" width="1400" height="760" viewBox="0 0 1400 760">
<rect width="100%" height="100%" fill="#fcfcfc"/>
<text x="90" y="36" font-size="26" font-weight="700" fill="#111111">FLOKI-USDT-SWAP 1H - 10倍命中</text>
<line x1="90" y1="70.00" x2="1360" y2="70.00" stroke="#d9d9d9" stroke-dasharray="4 4" stroke-width="1"/>
<text x="12" y="74.00" font-size="12" fill="#555555">0.000034</text>
<line x1="90" y1="186.00" x2="1360" y2="186.00" stroke="#d9d9d9" stroke-dasharray="4 4" stroke-width="1"/>
<text x="12" y="190.00" font-size="12" fill="#555555">0.000033</text>
<line x1="90" y1="302.00" x2="1360" y2="302.00" stroke="#d9d9d9" stroke-dasharray="4 4" stroke-width="1"/>
<text x="12" y="306.00" font-size="12" fill="#555555">0.000032</text>
<line x1="90" y1="418.00" x2="1360" y2="418.00" stroke="#d9d9d9" stroke-dasharray="4 4" stroke-width="1"/>
<text x="12" y="422.00" font-size="12" fill="#555555">0.000031</text>
<line x1="90" y1="534.00" x2="1360" y2="534.00" stroke="#d9d9d9" stroke-dasharray="4 4" stroke-width="1"/>
<text x="12" y="538.00" font-size="12" fill="#555555">0.000030</text>
<line x1="90" y1="650.00" x2="1360" y2="650.00" stroke="#d9d9d9" stroke-dasharray="4 4" stroke-width="1"/>
<text x="12" y="654.00" font-size="12" fill="#555555">0.000029</text>
<rect x="687.65" y="70" width="74.71" height="580.00" fill="#f1c40f" opacity="0.16"/>
<rect x="612.94" y="70" width="74.71" height="580.00" fill="#3498db" opacity="0.10"/>
<line x1="127.35" y1="615.60" x2="127.35" y2="640.51" stroke="#e74c3c" stroke-width="2"/>
<rect x="105.69" y="622.72" width="43.33" height="3.56" fill="#e74c3c" stroke="#e74c3c" stroke-width="1"/>
<text x="127.35" y="704" font-size="11" fill="#555555" text-anchor="middle">02-09</text>
<text x="127.35" y="720" font-size="11" fill="#555555" text-anchor="middle">06:00</text>
<line x1="202.06" y1="626.28" x2="202.06" y2="650.00" stroke="#e74c3c" stroke-width="2"/>
<rect x="180.39" y="627.46" width="43.33" height="8.30" fill="#e74c3c" stroke="#e74c3c" stroke-width="1"/>
<text x="202.06" y="704" font-size="11" fill="#555555" text-anchor="middle">02-09</text>
<text x="202.06" y="720" font-size="11" fill="#555555" text-anchor="middle">07:00</text>
<line x1="276.76" y1="615.60" x2="276.76" y2="642.88" stroke="#2ecc71" stroke-width="2"/>
<rect x="255.10" y="634.58" width="43.33" height="1.20" fill="#2ecc71" stroke="#2ecc71" stroke-width="1"/>
<text x="276.76" y="704" font-size="11" fill="#555555" text-anchor="middle">02-09</text>
<text x="276.76" y="720" font-size="11" fill="#555555" text-anchor="middle">08:00</text>
<line x1="351.47" y1="620.35" x2="351.47" y2="641.70" stroke="#2ecc71" stroke-width="2"/>
<rect x="329.81" y="620.35" width="43.33" height="15.42" fill="#2ecc71" stroke="#2ecc71" stroke-width="1"/>
<text x="351.47" y="704" font-size="11" fill="#555555" text-anchor="middle">02-09</text>
<text x="351.47" y="720" font-size="11" fill="#555555" text-anchor="middle">09:00</text>
<line x1="426.18" y1="584.76" x2="426.18" y2="625.09" stroke="#2ecc71" stroke-width="2"/>
<rect x="404.51" y="588.32" width="43.33" height="33.21" fill="#2ecc71" stroke="#2ecc71" stroke-width="1"/>
<text x="426.18" y="704" font-size="11" fill="#555555" text-anchor="middle">02-09</text>
<text x="426.18" y="720" font-size="11" fill="#555555" text-anchor="middle">10:00</text>
<line x1="500.88" y1="574.09" x2="500.88" y2="597.81" stroke="#e74c3c" stroke-width="2"/>
<rect x="479.22" y="589.51" width="43.33" height="3.56" fill="#e74c3c" stroke="#e74c3c" stroke-width="1"/>
<text x="500.88" y="704" font-size="11" fill="#555555" text-anchor="middle">02-09</text>
<text x="500.88" y="720" font-size="11" fill="#555555" text-anchor="middle">11:00</text>
<line x1="575.59" y1="577.65" x2="575.59" y2="597.81" stroke="#2ecc71" stroke-width="2"/>
<rect x="553.92" y="585.95" width="43.33" height="7.12" fill="#2ecc71" stroke="#2ecc71" stroke-width="1"/>
<text x="575.59" y="704" font-size="11" fill="#555555" text-anchor="middle">02-09</text>
<text x="575.59" y="720" font-size="11" fill="#555555" text-anchor="middle">12:00</text>
<line x1="650.29" y1="542.07" x2="650.29" y2="588.32" stroke="#2ecc71" stroke-width="2"/>
<rect x="628.63" y="542.07" width="43.33" height="45.07" fill="#2ecc71" stroke="#2ecc71" stroke-width="1"/>
<text x="650.29" y="704" font-size="11" fill="#555555" text-anchor="middle">02-09</text>
<text x="650.29" y="720" font-size="11" fill="#555555" text-anchor="middle">13:00</text>
<line x1="725.00" y1="70.00" x2="725.00" y2="545.62" stroke="#2ecc71" stroke-width="2"/>
<rect x="703.34" y="163.70" width="43.33" height="379.55" fill="#2ecc71" stroke="#2ecc71" stroke-width="1"/>
<text x="725.00" y="704" font-size="11" fill="#555555" text-anchor="middle">02-09</text>
<text x="725.00" y="720" font-size="11" fill="#555555" text-anchor="middle">14:00</text>
<line x1="799.71" y1="162.52" x2="799.71" y2="353.48" stroke="#e74c3c" stroke-width="2"/>
<rect x="778.04" y="167.26" width="43.33" height="162.49" fill="#e74c3c" stroke="#e74c3c" stroke-width="1"/>
<text x="799.71" y="704" font-size="11" fill="#555555" text-anchor="middle">02-09</text>
<text x="799.71" y="720" font-size="11" fill="#555555" text-anchor="middle">15:00</text>
<line x1="874.41" y1="257.40" x2="874.41" y2="332.13" stroke="#2ecc71" stroke-width="2"/>
<rect x="852.75" y="288.24" width="43.33" height="40.33" fill="#2ecc71" stroke="#2ecc71" stroke-width="1"/>
<text x="874.41" y="704" font-size="11" fill="#555555" text-anchor="middle">02-09</text>
<text x="874.41" y="720" font-size="11" fill="#555555" text-anchor="middle">16:00</text>
<line x1="949.12" y1="262.15" x2="949.12" y2="366.52" stroke="#e74c3c" stroke-width="2"/>
<rect x="927.45" y="288.24" width="43.33" height="53.37" fill="#e74c3c" stroke="#e74c3c" stroke-width="1"/>
<text x="949.12" y="704" font-size="11" fill="#555555" text-anchor="middle">02-09</text>
<text x="949.12" y="720" font-size="11" fill="#555555" text-anchor="middle">17:00</text>
<line x1="1023.82" y1="320.27" x2="1023.82" y2="387.87" stroke="#e74c3c" stroke-width="2"/>
<rect x="1002.16" y="341.62" width="43.33" height="40.33" fill="#e74c3c" stroke="#e74c3c" stroke-width="1"/>
<text x="1023.82" y="704" font-size="11" fill="#555555" text-anchor="middle">02-09</text>
<text x="1023.82" y="720" font-size="11" fill="#555555" text-anchor="middle">18:00</text>
<line x1="1098.53" y1="336.87" x2="1098.53" y2="402.11" stroke="#2ecc71" stroke-width="2"/>
<rect x="1076.86" y="339.24" width="43.33" height="42.70" fill="#2ecc71" stroke="#2ecc71" stroke-width="1"/>
<text x="1098.53" y="704" font-size="11" fill="#555555" text-anchor="middle">02-09</text>
<text x="1098.53" y="720" font-size="11" fill="#555555" text-anchor="middle">19:00</text>
<line x1="1173.24" y1="315.52" x2="1173.24" y2="353.48" stroke="#e74c3c" stroke-width="2"/>
<rect x="1151.57" y="340.43" width="43.33" height="7.12" fill="#e74c3c" stroke="#e74c3c" stroke-width="1"/>
<text x="1173.24" y="704" font-size="11" fill="#555555" text-anchor="middle">02-09</text>
<text x="1173.24" y="720" font-size="11" fill="#555555" text-anchor="middle">20:00</text>
<line x1="1247.94" y1="313.15" x2="1247.94" y2="357.03" stroke="#2ecc71" stroke-width="2"/>
<rect x="1226.28" y="323.82" width="43.33" height="23.72" fill="#2ecc71" stroke="#2ecc71" stroke-width="1"/>
<text x="1247.94" y="704" font-size="11" fill="#555555" text-anchor="middle">02-09</text>
<text x="1247.94" y="720" font-size="11" fill="#555555" text-anchor="middle">21:00</text>
<line x1="1322.65" y1="321.45" x2="1322.65" y2="409.22" stroke="#e74c3c" stroke-width="2"/>
<rect x="1300.98" y="325.01" width="43.33" height="26.09" fill="#e74c3c" stroke="#e74c3c" stroke-width="1"/>
<text x="1322.65" y="704" font-size="11" fill="#555555" text-anchor="middle">02-09</text>
<text x="1322.65" y="720" font-size="11" fill="#555555" text-anchor="middle">22:00</text>
<line x1="725.00" y1="70.00" x2="805.00" y2="90.00" stroke="#f1c40f" stroke-width="2"/>
<rect x="805.00" y="42.00" width="220" height="72" rx="8" fill="#fff8dc" stroke="#f1c40f"/>
<text x="815.00" y="66.00" font-size="12" fill="#111111">目标K线 2024-02-09 14:00</text>
<text x="815.00" y="84.00" font-size="12" fill="#111111">振幅 13.56%</text>
<text x="815.00" y="102.00" font-size="12" fill="#111111">倍数 10.15x</text>
<line x1="650.29" y1="542.07" x2="620.29" y2="502.07" stroke="#3498db" stroke-width="2"/>
<rect x="400.29" y="466.07" width="220" height="58" rx="8" fill="#eef6ff" stroke="#3498db"/>
<text x="410.29" y="488.07" font-size="12" fill="#111111">前一根涨幅 1.30%</text>
<text x="410.29" y="506.07" font-size="12" fill="#111111">前一根振幅 1.34%</text>
</svg>