<svg xmlns="http://www.w3.org/2000/svg" width="1400" height="760" viewBox="0 0 1400 760">
<rect width="100%" height="100%" fill="#fcfcfc"/>
<text x="90" y="36" font-size="26" font-weight="700" fill="#111111">HMSTR-USDT-SWAP 1H - 10倍命中</text>
<line x1="90" y1="70.00" x2="1360" y2="70.00" stroke="#d9d9d9" stroke-dasharray="4 4" stroke-width="1"/>
<text x="12" y="74.00" font-size="12" fill="#555555">0.000592</text>
<line x1="90" y1="186.00" x2="1360" y2="186.00" stroke="#d9d9d9" stroke-dasharray="4 4" stroke-width="1"/>
<text x="12" y="190.00" font-size="12" fill="#555555">0.000538</text>
<line x1="90" y1="302.00" x2="1360" y2="302.00" stroke="#d9d9d9" stroke-dasharray="4 4" stroke-width="1"/>
<text x="12" y="306.00" font-size="12" fill="#555555">0.000484</text>
<line x1="90" y1="418.00" x2="1360" y2="418.00" stroke="#d9d9d9" stroke-dasharray="4 4" stroke-width="1"/>
<text x="12" y="422.00" font-size="12" fill="#555555">0.000430</text>
<line x1="90" y1="534.00" x2="1360" y2="534.00" stroke="#d9d9d9" stroke-dasharray="4 4" stroke-width="1"/>
<text x="12" y="538.00" font-size="12" fill="#555555">0.000376</text>
<line x1="90" y1="650.00" x2="1360" y2="650.00" stroke="#d9d9d9" stroke-dasharray="4 4" stroke-width="1"/>
<text x="12" y="654.00" font-size="12" fill="#555555">0.000323</text>
<rect x="687.65" y="70" width="74.71" height="580.00" fill="#f1c40f" opacity="0.16"/>
<rect x="612.94" y="70" width="74.71" height="580.00" fill="#3498db" opacity="0.10"/>
<line x1="127.35" y1="604.97" x2="127.35" y2="616.60" stroke="#e74c3c" stroke-width="2"/>
<rect x="105.69" y="605.40" width="43.33" height="7.11" fill="#e74c3c" stroke="#e74c3c" stroke-width="1"/>
<text x="127.35" y="704" font-size="11" fill="#555555" text-anchor="middle">11-04</text>
<text x="127.35" y="720" font-size="11" fill="#555555" text-anchor="middle">20:00</text>
<line x1="202.06" y1="607.99" x2="202.06" y2="620.05" stroke="#2ecc71" stroke-width="2"/>
<rect x="180.39" y="612.08" width="43.33" height="1.20" fill="#2ecc71" stroke="#2ecc71" stroke-width="1"/>
<text x="202.06" y="704" font-size="11" fill="#555555" text-anchor="middle">11-04</text>
<text x="202.06" y="720" font-size="11" fill="#555555" text-anchor="middle">21:00</text>
<line x1="276.76" y1="588.60" x2="276.76" y2="618.54" stroke="#2ecc71" stroke-width="2"/>
<rect x="255.10" y="594.63" width="43.33" height="17.45" fill="#2ecc71" stroke="#2ecc71" stroke-width="1"/>
<text x="276.76" y="704" font-size="11" fill="#555555" text-anchor="middle">11-04</text>
<text x="276.76" y="720" font-size="11" fill="#555555" text-anchor="middle">22:00</text>
<line x1="351.47" y1="591.18" x2="351.47" y2="609.49" stroke="#e74c3c" stroke-width="2"/>
<rect x="329.81" y="594.20" width="43.33" height="12.71" fill="#e74c3c" stroke="#e74c3c" stroke-width="1"/>
<text x="351.47" y="704" font-size="11" fill="#555555" text-anchor="middle">11-04</text>
<text x="351.47" y="720" font-size="11" fill="#555555" text-anchor="middle">23:00</text>
<line x1="426.18" y1="600.66" x2="426.18" y2="623.50" stroke="#e74c3c" stroke-width="2"/>
<rect x="404.51" y="606.69" width="43.33" height="13.36" fill="#e74c3c" stroke="#e74c3c" stroke-width="1"/>
<text x="426.18" y="704" font-size="11" fill="#555555" text-anchor="middle">11-05</text>
<text x="426.18" y="720" font-size="11" fill="#555555" text-anchor="middle">00:00</text>
<line x1="500.88" y1="615.96" x2="500.88" y2="642.24" stroke="#e74c3c" stroke-width="2"/>
<rect x="479.22" y="620.27" width="43.33" height="1.20" fill="#e74c3c" stroke="#e74c3c" stroke-width="1"/>
<text x="500.88" y="704" font-size="11" fill="#555555" text-anchor="middle">11-05</text>
<text x="500.88" y="720" font-size="11" fill="#555555" text-anchor="middle">01:00</text>
<line x1="575.59" y1="615.53" x2="575.59" y2="650.00" stroke="#2ecc71" stroke-width="2"/>
<rect x="553.92" y="617.47" width="43.33" height="3.45" fill="#2ecc71" stroke="#2ecc71" stroke-width="1"/>
<text x="575.59" y="704" font-size="11" fill="#555555" text-anchor="middle">11-05</text>
<text x="575.59" y="720" font-size="11" fill="#555555" text-anchor="middle">02:00</text>
<line x1="650.29" y1="592.69" x2="650.29" y2="619.62" stroke="#2ecc71" stroke-width="2"/>
<rect x="628.63" y="594.63" width="43.33" height="23.70" fill="#2ecc71" stroke="#2ecc71" stroke-width="1"/>
<text x="650.29" y="704" font-size="11" fill="#555555" text-anchor="middle">11-05</text>
<text x="650.29" y="720" font-size="11" fill="#555555" text-anchor="middle">03:00</text>
<line x1="725.00" y1="70.00" x2="725.00" y2="595.92" stroke="#2ecc71" stroke-width="2"/>
<rect x="703.34" y="376.59" width="43.33" height="218.47" fill="#2ecc71" stroke="#2ecc71" stroke-width="1"/>
<text x="725.00" y="704" font-size="11" fill="#555555" text-anchor="middle">11-05</text>
<text x="725.00" y="720" font-size="11" fill="#555555" text-anchor="middle">04:00</text>
<line x1="799.71" y1="297.95" x2="799.71" y2="554.12" stroke="#e74c3c" stroke-width="2"/>
<rect x="778.04" y="376.81" width="43.33" height="6.46" fill="#e74c3c" stroke="#e74c3c" stroke-width="1"/>
<text x="799.71" y="704" font-size="11" fill="#555555" text-anchor="middle">11-05</text>
<text x="799.71" y="720" font-size="11" fill="#555555" text-anchor="middle">05:00</text>
<line x1="874.41" y1="375.51" x2="874.41" y2="489.06" stroke="#e74c3c" stroke-width="2"/>
<rect x="852.75" y="383.27" width="43.33" height="101.05" fill="#e74c3c" stroke="#e74c3c" stroke-width="1"/>
<text x="874.41" y="704" font-size="11" fill="#555555" text-anchor="middle">11-05</text>
<text x="874.41" y="720" font-size="11" fill="#555555" text-anchor="middle">06:00</text>
<line x1="949.12" y1="467.30" x2="949.12" y2="514.91" stroke="#2ecc71" stroke-width="2"/>
<rect x="927.45" y="483.45" width="43.33" height="1.29" fill="#2ecc71" stroke="#2ecc71" stroke-width="1"/>
<text x="949.12" y="704" font-size="11" fill="#555555" text-anchor="middle">11-05</text>
<text x="949.12" y="720" font-size="11" fill="#555555" text-anchor="middle">07:00</text>
<line x1="1023.82" y1="468.37" x2="1023.82" y2="529.56" stroke="#e74c3c" stroke-width="2"/>
<rect x="1002.16" y="483.67" width="43.33" height="20.25" fill="#e74c3c" stroke="#e74c3c" stroke-width="1"/>
<text x="1023.82" y="704" font-size="11" fill="#555555" text-anchor="middle">11-05</text>
<text x="1023.82" y="720" font-size="11" fill="#555555" text-anchor="middle">08:00</text>
<line x1="1098.53" y1="474.19" x2="1098.53" y2="562.31" stroke="#e74c3c" stroke-width="2"/>
<rect x="1076.86" y="504.35" width="43.33" height="1.20" fill="#e74c3c" stroke="#e74c3c" stroke-width="1"/>
<text x="1098.53" y="704" font-size="11" fill="#555555" text-anchor="middle">11-05</text>
<text x="1098.53" y="720" font-size="11" fill="#555555" text-anchor="middle">09:00</text>
<line x1="1173.24" y1="489.49" x2="1173.24" y2="544.43" stroke="#e74c3c" stroke-width="2"/>
<rect x="1151.57" y="504.78" width="43.33" height="23.48" fill="#e74c3c" stroke="#e74c3c" stroke-width="1"/>
<text x="1173.24" y="704" font-size="11" fill="#555555" text-anchor="middle">11-05</text>
<text x="1173.24" y="720" font-size="11" fill="#555555" text-anchor="middle">10:00</text>
<line x1="1247.94" y1="526.33" x2="1247.94" y2="569.85" stroke="#e74c3c" stroke-width="2"/>
<rect x="1226.28" y="528.27" width="43.33" height="34.90" fill="#e74c3c" stroke="#e74c3c" stroke-width="1"/>
<text x="1247.94" y="704" font-size="11" fill="#555555" text-anchor="middle">11-05</text>
<text x="1247.94" y="720" font-size="11" fill="#555555" text-anchor="middle">11:00</text>
<line x1="1322.65" y1="553.48" x2="1322.65" y2="585.36" stroke="#e74c3c" stroke-width="2"/>
<rect x="1300.98" y="562.96" width="43.33" height="9.91" fill="#e74c3c" stroke="#e74c3c" stroke-width="1"/>
<text x="1322.65" y="704" font-size="11" fill="#555555" text-anchor="middle">11-05</text>
<text x="1322.65" y="720" font-size="11" fill="#555555" text-anchor="middle">12:00</text>
<line x1="725.00" y1="70.00" x2="805.00" y2="90.00" stroke="#f1c40f" stroke-width="2"/>
<rect x="805.00" y="42.00" width="220" height="72" rx="8" fill="#fff8dc" stroke="#f1c40f"/>
<text x="815.00" y="66.00" font-size="12" fill="#111111">目标K线 2025-11-05 04:00</text>
<text x="815.00" y="84.00" font-size="12" fill="#111111">振幅 70.12%</text>
<text x="815.00" y="102.00" font-size="12" fill="#111111">倍数 18.92x</text>
<line x1="650.29" y1="592.69" x2="620.29" y2="552.69" stroke="#3498db" stroke-width="2"/>
<rect x="400.29" y="516.69" width="220" height="58" rx="8" fill="#eef6ff" stroke="#3498db"/>
<text x="410.29" y="538.69" font-size="12" fill="#111111">前一根涨幅 3.26%</text>
<text x="410.29" y="556.69" font-size="12" fill="#111111">前一根振幅 3.71%</text>
</svg>