<svg xmlns="http://www.w3.org/2000/svg" width="1400" height="760" viewBox="0 0 1400 760">
<rect width="100%" height="100%" fill="#fcfcfc"/>
<text x="90" y="36" font-size="26" font-weight="700" fill="#111111">IP-USDT-SWAP 1H - 10倍命中</text>
<line x1="90" y1="70.00" x2="1360" y2="70.00" stroke="#d9d9d9" stroke-dasharray="4 4" stroke-width="1"/>
<text x="12" y="74.00" font-size="12" fill="#555555">9.000000</text>
<line x1="90" y1="186.00" x2="1360" y2="186.00" stroke="#d9d9d9" stroke-dasharray="4 4" stroke-width="1"/>
<text x="12" y="190.00" font-size="12" fill="#555555">7.801016</text>
<line x1="90" y1="302.00" x2="1360" y2="302.00" stroke="#d9d9d9" stroke-dasharray="4 4" stroke-width="1"/>
<text x="12" y="306.00" font-size="12" fill="#555555">6.602032</text>
<line x1="90" y1="418.00" x2="1360" y2="418.00" stroke="#d9d9d9" stroke-dasharray="4 4" stroke-width="1"/>
<text x="12" y="422.00" font-size="12" fill="#555555">5.403048</text>
<line x1="90" y1="534.00" x2="1360" y2="534.00" stroke="#d9d9d9" stroke-dasharray="4 4" stroke-width="1"/>
<text x="12" y="538.00" font-size="12" fill="#555555">4.204064</text>
<line x1="90" y1="650.00" x2="1360" y2="650.00" stroke="#d9d9d9" stroke-dasharray="4 4" stroke-width="1"/>
<text x="12" y="654.00" font-size="12" fill="#555555">3.005080</text>
<rect x="687.65" y="70" width="74.71" height="580.00" fill="#f1c40f" opacity="0.16"/>
<rect x="612.94" y="70" width="74.71" height="580.00" fill="#3498db" opacity="0.10"/>
<line x1="127.35" y1="627.14" x2="127.35" y2="650.00" stroke="#e74c3c" stroke-width="2"/>
<rect x="105.69" y="627.51" width="43.33" height="15.03" fill="#e74c3c" stroke="#e74c3c" stroke-width="1"/>
<text x="127.35" y="704" font-size="11" fill="#555555" text-anchor="middle">02-20</text>
<text x="127.35" y="720" font-size="11" fill="#555555" text-anchor="middle">20:00</text>
<line x1="202.06" y1="626.31" x2="202.06" y2="646.33" stroke="#2ecc71" stroke-width="2"/>
<rect x="180.39" y="632.74" width="43.33" height="9.80" fill="#2ecc71" stroke="#2ecc71" stroke-width="1"/>
<text x="202.06" y="704" font-size="11" fill="#555555" text-anchor="middle">02-20</text>
<text x="202.06" y="720" font-size="11" fill="#555555" text-anchor="middle">21:00</text>
<line x1="276.76" y1="629.52" x2="276.76" y2="644.94" stroke="#e74c3c" stroke-width="2"/>
<rect x="255.10" y="632.77" width="43.33" height="5.35" fill="#e74c3c" stroke="#e74c3c" stroke-width="1"/>
<text x="276.76" y="704" font-size="11" fill="#555555" text-anchor="middle">02-20</text>
<text x="276.76" y="720" font-size="11" fill="#555555" text-anchor="middle">22:00</text>
<line x1="351.47" y1="628.34" x2="351.47" y2="646.87" stroke="#2ecc71" stroke-width="2"/>
<rect x="329.81" y="630.96" width="43.33" height="7.16" fill="#2ecc71" stroke="#2ecc71" stroke-width="1"/>
<text x="351.47" y="704" font-size="11" fill="#555555" text-anchor="middle">02-20</text>
<text x="351.47" y="720" font-size="11" fill="#555555" text-anchor="middle">23:00</text>
<line x1="426.18" y1="598.82" x2="426.18" y2="636.56" stroke="#2ecc71" stroke-width="2"/>
<rect x="404.51" y="617.07" width="43.33" height="13.89" fill="#2ecc71" stroke="#2ecc71" stroke-width="1"/>
<text x="426.18" y="704" font-size="11" fill="#555555" text-anchor="middle">02-21</text>
<text x="426.18" y="720" font-size="11" fill="#555555" text-anchor="middle">00:00</text>
<line x1="500.88" y1="592.66" x2="500.88" y2="620.11" stroke="#2ecc71" stroke-width="2"/>
<rect x="479.22" y="600.95" width="43.33" height="16.09" fill="#2ecc71" stroke="#2ecc71" stroke-width="1"/>
<text x="500.88" y="704" font-size="11" fill="#555555" text-anchor="middle">02-21</text>
<text x="500.88" y="720" font-size="11" fill="#555555" text-anchor="middle">01:00</text>
<line x1="575.59" y1="575.11" x2="575.59" y2="604.89" stroke="#2ecc71" stroke-width="2"/>
<rect x="553.92" y="580.48" width="43.33" height="20.48" fill="#2ecc71" stroke="#2ecc71" stroke-width="1"/>
<text x="575.59" y="704" font-size="11" fill="#555555" text-anchor="middle">02-21</text>
<text x="575.59" y="720" font-size="11" fill="#555555" text-anchor="middle">02:00</text>
<line x1="650.29" y1="550.05" x2="650.29" y2="580.64" stroke="#2ecc71" stroke-width="2"/>
<rect x="628.63" y="567.64" width="43.33" height="12.81" fill="#2ecc71" stroke="#2ecc71" stroke-width="1"/>
<text x="650.29" y="704" font-size="11" fill="#555555" text-anchor="middle">02-21</text>
<text x="650.29" y="720" font-size="11" fill="#555555" text-anchor="middle">03:00</text>
<line x1="725.00" y1="70.00" x2="725.00" y2="570.51" stroke="#2ecc71" stroke-width="2"/>
<rect x="703.34" y="358.57" width="43.33" height="209.06" fill="#2ecc71" stroke="#2ecc71" stroke-width="1"/>
<text x="725.00" y="704" font-size="11" fill="#555555" text-anchor="middle">02-21</text>
<text x="725.00" y="720" font-size="11" fill="#555555" text-anchor="middle">04:00</text>
<line x1="799.71" y1="338.06" x2="799.71" y2="446.17" stroke="#e74c3c" stroke-width="2"/>
<rect x="778.04" y="358.88" width="43.33" height="25.87" fill="#e74c3c" stroke="#e74c3c" stroke-width="1"/>
<text x="799.71" y="704" font-size="11" fill="#555555" text-anchor="middle">02-21</text>
<text x="799.71" y="720" font-size="11" fill="#555555" text-anchor="middle">05:00</text>
<line x1="874.41" y1="265.55" x2="874.41" y2="397.98" stroke="#2ecc71" stroke-width="2"/>
<rect x="852.75" y="362.83" width="43.33" height="22.00" fill="#2ecc71" stroke="#2ecc71" stroke-width="1"/>
<text x="874.41" y="704" font-size="11" fill="#555555" text-anchor="middle">02-21</text>
<text x="874.41" y="720" font-size="11" fill="#555555" text-anchor="middle">06:00</text>
<line x1="949.12" y1="341.98" x2="949.12" y2="414.56" stroke="#e74c3c" stroke-width="2"/>
<rect x="927.45" y="362.83" width="43.33" height="29.74" fill="#e74c3c" stroke="#e74c3c" stroke-width="1"/>
<text x="949.12" y="704" font-size="11" fill="#555555" text-anchor="middle">02-21</text>
<text x="949.12" y="720" font-size="11" fill="#555555" text-anchor="middle">07:00</text>
<line x1="1023.82" y1="371.13" x2="1023.82" y2="499.59" stroke="#e74c3c" stroke-width="2"/>
<rect x="1002.16" y="392.70" width="43.33" height="92.94" fill="#e74c3c" stroke="#e74c3c" stroke-width="1"/>
<text x="1023.82" y="704" font-size="11" fill="#555555" text-anchor="middle">02-21</text>
<text x="1023.82" y="720" font-size="11" fill="#555555" text-anchor="middle">08:00</text>
<line x1="1098.53" y1="430.24" x2="1098.53" y2="505.37" stroke="#2ecc71" stroke-width="2"/>
<rect x="1076.86" y="455.66" width="43.33" height="29.95" fill="#2ecc71" stroke="#2ecc71" stroke-width="1"/>
<text x="1098.53" y="704" font-size="11" fill="#555555" text-anchor="middle">02-21</text>
<text x="1098.53" y="720" font-size="11" fill="#555555" text-anchor="middle">09:00</text>
<line x1="1173.24" y1="438.61" x2="1173.24" y2="503.96" stroke="#e74c3c" stroke-width="2"/>
<rect x="1151.57" y="455.68" width="43.33" height="21.60" fill="#e74c3c" stroke="#e74c3c" stroke-width="1"/>
<text x="1173.24" y="704" font-size="11" fill="#555555" text-anchor="middle">02-21</text>
<text x="1173.24" y="720" font-size="11" fill="#555555" text-anchor="middle">10:00</text>
<line x1="1247.94" y1="453.01" x2="1247.94" y2="492.29" stroke="#2ecc71" stroke-width="2"/>
<rect x="1226.28" y="477.04" width="43.33" height="1.20" fill="#2ecc71" stroke="#2ecc71" stroke-width="1"/>
<text x="1247.94" y="704" font-size="11" fill="#555555" text-anchor="middle">02-21</text>
<text x="1247.94" y="720" font-size="11" fill="#555555" text-anchor="middle">11:00</text>
<line x1="1322.65" y1="460.82" x2="1322.65" y2="482.18" stroke="#2ecc71" stroke-width="2"/>
<rect x="1300.98" y="467.92" width="43.33" height="8.97" fill="#2ecc71" stroke="#2ecc71" stroke-width="1"/>
<text x="1322.65" y="704" font-size="11" fill="#555555" text-anchor="middle">02-21</text>
<text x="1322.65" y="720" font-size="11" fill="#555555" text-anchor="middle">12:00</text>
<line x1="725.00" y1="70.00" x2="805.00" y2="90.00" stroke="#f1c40f" stroke-width="2"/>
<rect x="805.00" y="42.00" width="220" height="72" rx="8" fill="#fff8dc" stroke="#f1c40f"/>
<text x="815.00" y="66.00" font-size="12" fill="#111111">目标K线 2025-02-21 04:00</text>
<text x="815.00" y="84.00" font-size="12" fill="#111111">振幅 134.15%</text>
<text x="815.00" y="102.00" font-size="12" fill="#111111">倍数 15.80x</text>
<line x1="650.29" y1="550.05" x2="620.29" y2="510.05" stroke="#3498db" stroke-width="2"/>
<rect x="400.29" y="474.05" width="220" height="58" rx="8" fill="#eef6ff" stroke="#3498db"/>
<text x="410.29" y="496.05" font-size="12" fill="#111111">前一根涨幅 3.56%</text>
<text x="410.29" y="514.05" font-size="12" fill="#111111">前一根振幅 8.49%</text>
</svg>