<svg xmlns="http://www.w3.org/2000/svg" width="1400" height="760" viewBox="0 0 1400 760">
<rect width="100%" height="100%" fill="#fcfcfc"/>
<text x="90" y="36" font-size="26" font-weight="700" fill="#111111">JTO-USDT-SWAP 1H - 10倍命中</text>
<line x1="90" y1="70.00" x2="1360" y2="70.00" stroke="#d9d9d9" stroke-dasharray="4 4" stroke-width="1"/>
<text x="12" y="74.00" font-size="12" fill="#555555">3.624000</text>
<line x1="90" y1="186.00" x2="1360" y2="186.00" stroke="#d9d9d9" stroke-dasharray="4 4" stroke-width="1"/>
<text x="12" y="190.00" font-size="12" fill="#555555">3.433600</text>
<line x1="90" y1="302.00" x2="1360" y2="302.00" stroke="#d9d9d9" stroke-dasharray="4 4" stroke-width="1"/>
<text x="12" y="306.00" font-size="12" fill="#555555">3.243200</text>
<line x1="90" y1="418.00" x2="1360" y2="418.00" stroke="#d9d9d9" stroke-dasharray="4 4" stroke-width="1"/>
<text x="12" y="422.00" font-size="12" fill="#555555">3.052800</text>
<line x1="90" y1="534.00" x2="1360" y2="534.00" stroke="#d9d9d9" stroke-dasharray="4 4" stroke-width="1"/>
<text x="12" y="538.00" font-size="12" fill="#555555">2.862400</text>
<line x1="90" y1="650.00" x2="1360" y2="650.00" stroke="#d9d9d9" stroke-dasharray="4 4" stroke-width="1"/>
<text x="12" y="654.00" font-size="12" fill="#555555">2.672000</text>
<rect x="687.65" y="70" width="74.71" height="580.00" fill="#f1c40f" opacity="0.16"/>
<rect x="612.94" y="70" width="74.71" height="580.00" fill="#3498db" opacity="0.10"/>
<line x1="127.35" y1="623.80" x2="127.35" y2="635.38" stroke="#e74c3c" stroke-width="2"/>
<rect x="105.69" y="624.41" width="43.33" height="8.53" fill="#e74c3c" stroke="#e74c3c" stroke-width="1"/>
<text x="127.35" y="704" font-size="11" fill="#555555" text-anchor="middle">02-21</text>
<text x="127.35" y="720" font-size="11" fill="#555555" text-anchor="middle">05:00</text>
<line x1="202.06" y1="618.32" x2="202.06" y2="634.77" stroke="#2ecc71" stroke-width="2"/>
<rect x="180.39" y="621.97" width="43.33" height="10.97" fill="#2ecc71" stroke="#2ecc71" stroke-width="1"/>
<text x="202.06" y="704" font-size="11" fill="#555555" text-anchor="middle">02-21</text>
<text x="202.06" y="720" font-size="11" fill="#555555" text-anchor="middle">06:00</text>
<line x1="276.76" y1="604.92" x2="276.76" y2="623.19" stroke="#2ecc71" stroke-width="2"/>
<rect x="255.10" y="611.01" width="43.33" height="10.97" fill="#2ecc71" stroke="#2ecc71" stroke-width="1"/>
<text x="276.76" y="704" font-size="11" fill="#555555" text-anchor="middle">02-21</text>
<text x="276.76" y="720" font-size="11" fill="#555555" text-anchor="middle">07:00</text>
<line x1="351.47" y1="603.70" x2="351.47" y2="636.60" stroke="#e74c3c" stroke-width="2"/>
<rect x="329.81" y="611.62" width="43.33" height="18.89" fill="#e74c3c" stroke="#e74c3c" stroke-width="1"/>
<text x="351.47" y="704" font-size="11" fill="#555555" text-anchor="middle">02-21</text>
<text x="351.47" y="720" font-size="11" fill="#555555" text-anchor="middle">08:00</text>
<line x1="426.18" y1="626.24" x2="426.18" y2="643.30" stroke="#e74c3c" stroke-width="2"/>
<rect x="404.51" y="630.50" width="43.33" height="2.44" fill="#e74c3c" stroke="#e74c3c" stroke-width="1"/>
<text x="426.18" y="704" font-size="11" fill="#555555" text-anchor="middle">02-21</text>
<text x="426.18" y="720" font-size="11" fill="#555555" text-anchor="middle">09:00</text>
<line x1="500.88" y1="627.46" x2="500.88" y2="650.00" stroke="#e74c3c" stroke-width="2"/>
<rect x="479.22" y="632.94" width="43.33" height="7.31" fill="#e74c3c" stroke="#e74c3c" stroke-width="1"/>
<text x="500.88" y="704" font-size="11" fill="#555555" text-anchor="middle">02-21</text>
<text x="500.88" y="720" font-size="11" fill="#555555" text-anchor="middle">10:00</text>
<line x1="575.59" y1="626.85" x2="575.59" y2="642.69" stroke="#2ecc71" stroke-width="2"/>
<rect x="553.92" y="629.29" width="43.33" height="11.58" fill="#2ecc71" stroke="#2ecc71" stroke-width="1"/>
<text x="575.59" y="704" font-size="11" fill="#555555" text-anchor="middle">02-21</text>
<text x="575.59" y="720" font-size="11" fill="#555555" text-anchor="middle">11:00</text>
<line x1="650.29" y1="597.61" x2="650.29" y2="629.89" stroke="#2ecc71" stroke-width="2"/>
<rect x="628.63" y="604.31" width="43.33" height="24.37" fill="#2ecc71" stroke="#2ecc71" stroke-width="1"/>
<text x="650.29" y="704" font-size="11" fill="#555555" text-anchor="middle">02-21</text>
<text x="650.29" y="720" font-size="11" fill="#555555" text-anchor="middle">12:00</text>
<line x1="725.00" y1="70.00" x2="725.00" y2="604.31" stroke="#2ecc71" stroke-width="2"/>
<rect x="703.34" y="402.04" width="43.33" height="202.27" fill="#2ecc71" stroke="#2ecc71" stroke-width="1"/>
<text x="725.00" y="704" font-size="11" fill="#555555" text-anchor="middle">02-21</text>
<text x="725.00" y="720" font-size="11" fill="#555555" text-anchor="middle">13:00</text>
<line x1="799.71" y1="372.79" x2="799.71" y2="469.66" stroke="#e74c3c" stroke-width="2"/>
<rect x="778.04" y="402.65" width="43.33" height="57.88" fill="#e74c3c" stroke="#e74c3c" stroke-width="1"/>
<text x="799.71" y="704" font-size="11" fill="#555555" text-anchor="middle">02-21</text>
<text x="799.71" y="720" font-size="11" fill="#555555" text-anchor="middle">14:00</text>
<line x1="874.41" y1="434.33" x2="874.41" y2="481.85" stroke="#2ecc71" stroke-width="2"/>
<rect x="852.75" y="434.94" width="43.33" height="24.98" fill="#2ecc71" stroke="#2ecc71" stroke-width="1"/>
<text x="874.41" y="704" font-size="11" fill="#555555" text-anchor="middle">02-21</text>
<text x="874.41" y="720" font-size="11" fill="#555555" text-anchor="middle">15:00</text>
<line x1="949.12" y1="335.63" x2="949.12" y2="457.48" stroke="#2ecc71" stroke-width="2"/>
<rect x="927.45" y="344.77" width="43.33" height="91.39" fill="#2ecc71" stroke="#2ecc71" stroke-width="1"/>
<text x="949.12" y="704" font-size="11" fill="#555555" text-anchor="middle">02-21</text>
<text x="949.12" y="720" font-size="11" fill="#555555" text-anchor="middle">16:00</text>
<line x1="1023.82" y1="329.54" x2="1023.82" y2="372.18" stroke="#e74c3c" stroke-width="2"/>
<rect x="1002.16" y="343.55" width="43.33" height="2.44" fill="#e74c3c" stroke="#e74c3c" stroke-width="1"/>
<text x="1023.82" y="704" font-size="11" fill="#555555" text-anchor="middle">02-21</text>
<text x="1023.82" y="720" font-size="11" fill="#555555" text-anchor="middle">17:00</text>
<line x1="1098.53" y1="161.39" x2="1098.53" y2="345.99" stroke="#2ecc71" stroke-width="2"/>
<rect x="1076.86" y="191.85" width="43.33" height="154.14" fill="#2ecc71" stroke="#2ecc71" stroke-width="1"/>
<text x="1098.53" y="704" font-size="11" fill="#555555" text-anchor="middle">02-21</text>
<text x="1098.53" y="720" font-size="11" fill="#555555" text-anchor="middle">18:00</text>
<line x1="1173.24" y1="160.78" x2="1173.24" y2="261.91" stroke="#e74c3c" stroke-width="2"/>
<rect x="1151.57" y="191.85" width="43.33" height="60.32" fill="#e74c3c" stroke="#e74c3c" stroke-width="1"/>
<text x="1173.24" y="704" font-size="11" fill="#555555" text-anchor="middle">02-21</text>
<text x="1173.24" y="720" font-size="11" fill="#555555" text-anchor="middle">19:00</text>
<line x1="1247.94" y1="223.53" x2="1247.94" y2="289.94" stroke="#e74c3c" stroke-width="2"/>
<rect x="1226.28" y="251.55" width="43.33" height="28.03" fill="#e74c3c" stroke="#e74c3c" stroke-width="1"/>
<text x="1247.94" y="704" font-size="11" fill="#555555" text-anchor="middle">02-21</text>
<text x="1247.94" y="720" font-size="11" fill="#555555" text-anchor="middle">20:00</text>
<line x1="1322.65" y1="273.49" x2="1322.65" y2="325.88" stroke="#e74c3c" stroke-width="2"/>
<rect x="1300.98" y="279.58" width="43.33" height="45.08" fill="#e74c3c" stroke="#e74c3c" stroke-width="1"/>
<text x="1322.65" y="704" font-size="11" fill="#555555" text-anchor="middle">02-21</text>
<text x="1322.65" y="720" font-size="11" fill="#555555" text-anchor="middle">21:00</text>
<line x1="725.00" y1="70.00" x2="805.00" y2="90.00" stroke="#f1c40f" stroke-width="2"/>
<rect x="805.00" y="42.00" width="220" height="72" rx="8" fill="#fff8dc" stroke="#f1c40f"/>
<text x="815.00" y="66.00" font-size="12" fill="#111111">目标K线 2025-02-21 13:00</text>
<text x="815.00" y="84.00" font-size="12" fill="#111111">振幅 31.93%</text>
<text x="815.00" y="102.00" font-size="12" fill="#111111">倍数 16.31x</text>
<line x1="650.29" y1="597.61" x2="620.29" y2="557.61" stroke="#3498db" stroke-width="2"/>
<rect x="400.29" y="521.61" width="220" height="58" rx="8" fill="#eef6ff" stroke="#3498db"/>
<text x="410.29" y="543.61" font-size="12" fill="#111111">前一根涨幅 1.48%</text>
<text x="410.29" y="561.61" font-size="12" fill="#111111">前一根振幅 1.96%</text>
</svg>