<svg xmlns="http://www.w3.org/2000/svg" width="1400" height="760" viewBox="0 0 1400 760">
<rect width="100%" height="100%" fill="#fcfcfc"/>
<text x="90" y="36" font-size="26" font-weight="700" fill="#111111">KAITO-USDT-SWAP 1H - 10倍命中</text>
<line x1="90" y1="70.00" x2="1360" y2="70.00" stroke="#d9d9d9" stroke-dasharray="4 4" stroke-width="1"/>
<text x="12" y="74.00" font-size="12" fill="#555555">2.132300</text>
<line x1="90" y1="186.00" x2="1360" y2="186.00" stroke="#d9d9d9" stroke-dasharray="4 4" stroke-width="1"/>
<text x="12" y="190.00" font-size="12" fill="#555555">1.876840</text>
<line x1="90" y1="302.00" x2="1360" y2="302.00" stroke="#d9d9d9" stroke-dasharray="4 4" stroke-width="1"/>
<text x="12" y="306.00" font-size="12" fill="#555555">1.621380</text>
<line x1="90" y1="418.00" x2="1360" y2="418.00" stroke="#d9d9d9" stroke-dasharray="4 4" stroke-width="1"/>
<text x="12" y="422.00" font-size="12" fill="#555555">1.365920</text>
<line x1="90" y1="534.00" x2="1360" y2="534.00" stroke="#d9d9d9" stroke-dasharray="4 4" stroke-width="1"/>
<text x="12" y="538.00" font-size="12" fill="#555555">1.110460</text>
<line x1="90" y1="650.00" x2="1360" y2="650.00" stroke="#d9d9d9" stroke-dasharray="4 4" stroke-width="1"/>
<text x="12" y="654.00" font-size="12" fill="#555555">0.855000</text>
<rect x="645.62" y="70" width="79.38" height="580.00" fill="#f1c40f" opacity="0.16"/>
<rect x="566.25" y="70" width="79.38" height="580.00" fill="#3498db" opacity="0.10"/>
<line x1="129.69" y1="507.78" x2="129.69" y2="650.00" stroke="#e74c3c" stroke-width="2"/>
<rect x="106.67" y="549.24" width="46.04" height="76.33" fill="#e74c3c" stroke="#e74c3c" stroke-width="1"/>
<text x="129.69" y="704" font-size="11" fill="#555555" text-anchor="middle">02-20</text>
<text x="129.69" y="720" font-size="11" fill="#555555" text-anchor="middle">22:00</text>
<line x1="209.06" y1="600.37" x2="209.06" y2="637.74" stroke="#2ecc71" stroke-width="2"/>
<rect x="186.04" y="619.89" width="46.04" height="5.68" fill="#2ecc71" stroke="#2ecc71" stroke-width="1"/>
<text x="209.06" y="704" font-size="11" fill="#555555" text-anchor="middle">02-20</text>
<text x="209.06" y="720" font-size="11" fill="#555555" text-anchor="middle">23:00</text>
<line x1="288.44" y1="572.44" x2="288.44" y2="634.70" stroke="#2ecc71" stroke-width="2"/>
<rect x="265.42" y="596.05" width="46.04" height="24.02" fill="#2ecc71" stroke="#2ecc71" stroke-width="1"/>
<text x="288.44" y="704" font-size="11" fill="#555555" text-anchor="middle">02-21</text>
<text x="288.44" y="720" font-size="11" fill="#555555" text-anchor="middle">00:00</text>
<line x1="367.81" y1="462.33" x2="367.81" y2="610.40" stroke="#2ecc71" stroke-width="2"/>
<rect x="344.79" y="482.85" width="46.04" height="113.20" fill="#2ecc71" stroke="#2ecc71" stroke-width="1"/>
<text x="367.81" y="704" font-size="11" fill="#555555" text-anchor="middle">02-21</text>
<text x="367.81" y="720" font-size="11" fill="#555555" text-anchor="middle">01:00</text>
<line x1="447.19" y1="438.90" x2="447.19" y2="509.14" stroke="#2ecc71" stroke-width="2"/>
<rect x="424.17" y="475.50" width="46.04" height="7.36" fill="#2ecc71" stroke="#2ecc71" stroke-width="1"/>
<text x="447.19" y="704" font-size="11" fill="#555555" text-anchor="middle">02-21</text>
<text x="447.19" y="720" font-size="11" fill="#555555" text-anchor="middle">02:00</text>
<line x1="526.56" y1="436.44" x2="526.56" y2="495.93" stroke="#e74c3c" stroke-width="2"/>
<rect x="503.54" y="475.50" width="46.04" height="4.13" fill="#e74c3c" stroke="#e74c3c" stroke-width="1"/>
<text x="526.56" y="704" font-size="11" fill="#555555" text-anchor="middle">02-21</text>
<text x="526.56" y="720" font-size="11" fill="#555555" text-anchor="middle">03:00</text>
<line x1="605.94" y1="460.65" x2="605.94" y2="499.02" stroke="#2ecc71" stroke-width="2"/>
<rect x="582.92" y="470.32" width="46.04" height="9.26" fill="#2ecc71" stroke="#2ecc71" stroke-width="1"/>
<text x="605.94" y="704" font-size="11" fill="#555555" text-anchor="middle">02-21</text>
<text x="605.94" y="720" font-size="11" fill="#555555" text-anchor="middle">04:00</text>
<line x1="685.31" y1="70.00" x2="685.31" y2="476.00" stroke="#2ecc71" stroke-width="2"/>
<rect x="662.29" y="272.25" width="46.04" height="198.07" fill="#2ecc71" stroke="#2ecc71" stroke-width="1"/>
<text x="685.31" y="704" font-size="11" fill="#555555" text-anchor="middle">02-21</text>
<text x="685.31" y="720" font-size="11" fill="#555555" text-anchor="middle">05:00</text>
<line x1="764.69" y1="168.13" x2="764.69" y2="279.92" stroke="#2ecc71" stroke-width="2"/>
<rect x="741.67" y="250.27" width="46.04" height="21.98" fill="#2ecc71" stroke="#2ecc71" stroke-width="1"/>
<text x="764.69" y="704" font-size="11" fill="#555555" text-anchor="middle">02-21</text>
<text x="764.69" y="720" font-size="11" fill="#555555" text-anchor="middle">06:00</text>
<line x1="844.06" y1="203.64" x2="844.06" y2="320.79" stroke="#e74c3c" stroke-width="2"/>
<rect x="821.04" y="250.27" width="46.04" height="44.14" fill="#e74c3c" stroke="#e74c3c" stroke-width="1"/>
<text x="844.06" y="704" font-size="11" fill="#555555" text-anchor="middle">02-21</text>
<text x="844.06" y="720" font-size="11" fill="#555555" text-anchor="middle">07:00</text>
<line x1="923.44" y1="292.09" x2="923.44" y2="440.89" stroke="#e74c3c" stroke-width="2"/>
<rect x="900.42" y="294.00" width="46.04" height="133.27" fill="#e74c3c" stroke="#e74c3c" stroke-width="1"/>
<text x="923.44" y="704" font-size="11" fill="#555555" text-anchor="middle">02-21</text>
<text x="923.44" y="720" font-size="11" fill="#555555" text-anchor="middle">08:00</text>
<line x1="1002.81" y1="347.22" x2="1002.81" y2="443.39" stroke="#2ecc71" stroke-width="2"/>
<rect x="979.79" y="388.04" width="46.04" height="38.87" fill="#2ecc71" stroke="#2ecc71" stroke-width="1"/>
<text x="1002.81" y="704" font-size="11" fill="#555555" text-anchor="middle">02-21</text>
<text x="1002.81" y="720" font-size="11" fill="#555555" text-anchor="middle">09:00</text>
<line x1="1082.19" y1="368.92" x2="1082.19" y2="465.69" stroke="#e74c3c" stroke-width="2"/>
<rect x="1059.17" y="388.09" width="46.04" height="51.95" fill="#e74c3c" stroke="#e74c3c" stroke-width="1"/>
<text x="1082.19" y="704" font-size="11" fill="#555555" text-anchor="middle">02-21</text>
<text x="1082.19" y="720" font-size="11" fill="#555555" text-anchor="middle">10:00</text>
<line x1="1161.56" y1="410.65" x2="1161.56" y2="457.51" stroke="#2ecc71" stroke-width="2"/>
<rect x="1138.54" y="426.00" width="46.04" height="14.08" fill="#2ecc71" stroke="#2ecc71" stroke-width="1"/>
<text x="1161.56" y="704" font-size="11" fill="#555555" text-anchor="middle">02-21</text>
<text x="1161.56" y="720" font-size="11" fill="#555555" text-anchor="middle">11:00</text>
<line x1="1240.94" y1="380.73" x2="1240.94" y2="433.04" stroke="#2ecc71" stroke-width="2"/>
<rect x="1217.92" y="399.89" width="46.04" height="26.20" fill="#2ecc71" stroke="#2ecc71" stroke-width="1"/>
<text x="1240.94" y="704" font-size="11" fill="#555555" text-anchor="middle">02-21</text>
<text x="1240.94" y="720" font-size="11" fill="#555555" text-anchor="middle">12:00</text>
<line x1="1320.31" y1="307.17" x2="1320.31" y2="415.42" stroke="#2ecc71" stroke-width="2"/>
<rect x="1297.29" y="314.89" width="46.04" height="84.91" fill="#2ecc71" stroke="#2ecc71" stroke-width="1"/>
<text x="1320.31" y="704" font-size="11" fill="#555555" text-anchor="middle">02-21</text>
<text x="1320.31" y="720" font-size="11" fill="#555555" text-anchor="middle">13:00</text>
<line x1="685.31" y1="70.00" x2="765.31" y2="90.00" stroke="#f1c40f" stroke-width="2"/>
<rect x="765.31" y="42.00" width="220" height="72" rx="8" fill="#fff8dc" stroke="#f1c40f"/>
<text x="775.31" y="66.00" font-size="12" fill="#111111">目标K线 2025-02-21 05:00</text>
<text x="775.31" y="84.00" font-size="12" fill="#111111">振幅 71.49%</text>
<text x="775.31" y="102.00" font-size="12" fill="#111111">倍数 10.41x</text>
<line x1="605.94" y1="460.65" x2="575.94" y2="420.65" stroke="#3498db" stroke-width="2"/>
<rect x="355.94" y="384.65" width="220" height="58" rx="8" fill="#eef6ff" stroke="#3498db"/>
<text x="365.94" y="406.65" font-size="12" fill="#111111">前一根涨幅 1.66%</text>
<text x="365.94" y="424.65" font-size="12" fill="#111111">前一根振幅 6.87%</text>
</svg>