<svg xmlns="http://www.w3.org/2000/svg" width="1400" height="760" viewBox="0 0 1400 760">
<rect width="100%" height="100%" fill="#fcfcfc"/>
<text x="90" y="36" font-size="26" font-weight="700" fill="#111111">MMT-USDT-SWAP 1H - 10倍命中</text>
<line x1="90" y1="70.00" x2="1360" y2="70.00" stroke="#d9d9d9" stroke-dasharray="4 4" stroke-width="1"/>
<text x="12" y="74.00" font-size="12" fill="#555555">0.159400</text>
<line x1="90" y1="186.00" x2="1360" y2="186.00" stroke="#d9d9d9" stroke-dasharray="4 4" stroke-width="1"/>
<text x="12" y="190.00" font-size="12" fill="#555555">0.149820</text>
<line x1="90" y1="302.00" x2="1360" y2="302.00" stroke="#d9d9d9" stroke-dasharray="4 4" stroke-width="1"/>
<text x="12" y="306.00" font-size="12" fill="#555555">0.140240</text>
<line x1="90" y1="418.00" x2="1360" y2="418.00" stroke="#d9d9d9" stroke-dasharray="4 4" stroke-width="1"/>
<text x="12" y="422.00" font-size="12" fill="#555555">0.130660</text>
<line x1="90" y1="534.00" x2="1360" y2="534.00" stroke="#d9d9d9" stroke-dasharray="4 4" stroke-width="1"/>
<text x="12" y="538.00" font-size="12" fill="#555555">0.121080</text>
<line x1="90" y1="650.00" x2="1360" y2="650.00" stroke="#d9d9d9" stroke-dasharray="4 4" stroke-width="1"/>
<text x="12" y="654.00" font-size="12" fill="#555555">0.111500</text>
<rect x="687.65" y="70" width="74.71" height="580.00" fill="#f1c40f" opacity="0.16"/>
<rect x="612.94" y="70" width="74.71" height="580.00" fill="#3498db" opacity="0.10"/>
<line x1="127.35" y1="637.89" x2="127.35" y2="650.00" stroke="#e74c3c" stroke-width="2"/>
<rect x="105.69" y="641.52" width="43.33" height="2.42" fill="#e74c3c" stroke="#e74c3c" stroke-width="1"/>
<text x="127.35" y="704" font-size="11" fill="#555555" text-anchor="middle">04-05</text>
<text x="127.35" y="720" font-size="11" fill="#555555" text-anchor="middle">12:00</text>
<line x1="202.06" y1="639.10" x2="202.06" y2="647.58" stroke="#2ecc71" stroke-width="2"/>
<rect x="180.39" y="641.52" width="43.33" height="1.21" fill="#2ecc71" stroke="#2ecc71" stroke-width="1"/>
<text x="202.06" y="704" font-size="11" fill="#555555" text-anchor="middle">04-05</text>
<text x="202.06" y="720" font-size="11" fill="#555555" text-anchor="middle">13:00</text>
<line x1="276.76" y1="618.52" x2="276.76" y2="650.00" stroke="#2ecc71" stroke-width="2"/>
<rect x="255.10" y="623.36" width="43.33" height="18.16" fill="#2ecc71" stroke="#2ecc71" stroke-width="1"/>
<text x="276.76" y="704" font-size="11" fill="#555555" text-anchor="middle">04-05</text>
<text x="276.76" y="720" font-size="11" fill="#555555" text-anchor="middle">14:00</text>
<line x1="351.47" y1="610.04" x2="351.47" y2="631.84" stroke="#2ecc71" stroke-width="2"/>
<rect x="329.81" y="622.15" width="43.33" height="2.42" fill="#2ecc71" stroke="#2ecc71" stroke-width="1"/>
<text x="351.47" y="704" font-size="11" fill="#555555" text-anchor="middle">04-05</text>
<text x="351.47" y="720" font-size="11" fill="#555555" text-anchor="middle">15:00</text>
<line x1="426.18" y1="623.36" x2="426.18" y2="647.58" stroke="#e74c3c" stroke-width="2"/>
<rect x="404.51" y="623.36" width="43.33" height="4.84" fill="#e74c3c" stroke="#e74c3c" stroke-width="1"/>
<text x="426.18" y="704" font-size="11" fill="#555555" text-anchor="middle">04-05</text>
<text x="426.18" y="720" font-size="11" fill="#555555" text-anchor="middle">16:00</text>
<line x1="500.88" y1="605.20" x2="500.88" y2="631.84" stroke="#2ecc71" stroke-width="2"/>
<rect x="479.22" y="610.04" width="43.33" height="16.95" fill="#2ecc71" stroke="#2ecc71" stroke-width="1"/>
<text x="500.88" y="704" font-size="11" fill="#555555" text-anchor="middle">04-05</text>
<text x="500.88" y="720" font-size="11" fill="#555555" text-anchor="middle">17:00</text>
<line x1="575.59" y1="596.72" x2="575.59" y2="628.20" stroke="#2ecc71" stroke-width="2"/>
<rect x="553.92" y="605.20" width="43.33" height="3.63" fill="#2ecc71" stroke="#2ecc71" stroke-width="1"/>
<text x="575.59" y="704" font-size="11" fill="#555555" text-anchor="middle">04-05</text>
<text x="575.59" y="720" font-size="11" fill="#555555" text-anchor="middle">18:00</text>
<line x1="650.29" y1="572.51" x2="650.29" y2="608.83" stroke="#2ecc71" stroke-width="2"/>
<rect x="628.63" y="584.61" width="43.33" height="20.58" fill="#2ecc71" stroke="#2ecc71" stroke-width="1"/>
<text x="650.29" y="704" font-size="11" fill="#555555" text-anchor="middle">04-05</text>
<text x="650.29" y="720" font-size="11" fill="#555555" text-anchor="middle">19:00</text>
<line x1="725.00" y1="120.86" x2="725.00" y2="591.88" stroke="#2ecc71" stroke-width="2"/>
<rect x="703.34" y="159.60" width="43.33" height="423.80" fill="#2ecc71" stroke="#2ecc71" stroke-width="1"/>
<text x="725.00" y="704" font-size="11" fill="#555555" text-anchor="middle">04-05</text>
<text x="725.00" y="720" font-size="11" fill="#555555" text-anchor="middle">20:00</text>
<line x1="799.71" y1="70.00" x2="799.71" y2="212.88" stroke="#e74c3c" stroke-width="2"/>
<rect x="778.04" y="160.81" width="43.33" height="6.05" fill="#e74c3c" stroke="#e74c3c" stroke-width="1"/>
<text x="799.71" y="704" font-size="11" fill="#555555" text-anchor="middle">04-05</text>
<text x="799.71" y="720" font-size="11" fill="#555555" text-anchor="middle">21:00</text>
<line x1="874.41" y1="103.90" x2="874.41" y2="277.06" stroke="#e74c3c" stroke-width="2"/>
<rect x="852.75" y="166.87" width="43.33" height="48.43" fill="#e74c3c" stroke="#e74c3c" stroke-width="1"/>
<text x="874.41" y="704" font-size="11" fill="#555555" text-anchor="middle">04-05</text>
<text x="874.41" y="720" font-size="11" fill="#555555" text-anchor="middle">22:00</text>
<line x1="949.12" y1="147.49" x2="949.12" y2="275.85" stroke="#2ecc71" stroke-width="2"/>
<rect x="927.45" y="166.87" width="43.33" height="48.43" fill="#2ecc71" stroke="#2ecc71" stroke-width="1"/>
<text x="949.12" y="704" font-size="11" fill="#555555" text-anchor="middle">04-05</text>
<text x="949.12" y="720" font-size="11" fill="#555555" text-anchor="middle">23:00</text>
<line x1="1023.82" y1="166.87" x2="1023.82" y2="324.28" stroke="#e74c3c" stroke-width="2"/>
<rect x="1002.16" y="168.08" width="43.33" height="130.77" fill="#e74c3c" stroke="#e74c3c" stroke-width="1"/>
<text x="1023.82" y="704" font-size="11" fill="#555555" text-anchor="middle">04-06</text>
<text x="1023.82" y="720" font-size="11" fill="#555555" text-anchor="middle">00:00</text>
<line x1="1098.53" y1="287.95" x2="1098.53" y2="356.97" stroke="#e74c3c" stroke-width="2"/>
<rect x="1076.86" y="298.85" width="43.33" height="37.54" fill="#e74c3c" stroke="#e74c3c" stroke-width="1"/>
<text x="1098.53" y="704" font-size="11" fill="#555555" text-anchor="middle">04-06</text>
<text x="1098.53" y="720" font-size="11" fill="#555555" text-anchor="middle">01:00</text>
<line x1="1173.24" y1="289.16" x2="1173.24" y2="376.35" stroke="#2ecc71" stroke-width="2"/>
<rect x="1151.57" y="308.54" width="43.33" height="26.64" fill="#2ecc71" stroke="#2ecc71" stroke-width="1"/>
<text x="1173.24" y="704" font-size="11" fill="#555555" text-anchor="middle">04-06</text>
<text x="1173.24" y="720" font-size="11" fill="#555555" text-anchor="middle">02:00</text>
<line x1="1247.94" y1="268.58" x2="1247.94" y2="358.18" stroke="#e74c3c" stroke-width="2"/>
<rect x="1226.28" y="308.54" width="43.33" height="31.48" fill="#e74c3c" stroke="#e74c3c" stroke-width="1"/>
<text x="1247.94" y="704" font-size="11" fill="#555555" text-anchor="middle">04-06</text>
<text x="1247.94" y="720" font-size="11" fill="#555555" text-anchor="middle">03:00</text>
<line x1="1322.65" y1="298.85" x2="1322.65" y2="363.03" stroke="#2ecc71" stroke-width="2"/>
<rect x="1300.98" y="308.54" width="43.33" height="31.48" fill="#2ecc71" stroke="#2ecc71" stroke-width="1"/>
<text x="1322.65" y="704" font-size="11" fill="#555555" text-anchor="middle">04-06</text>
<text x="1322.65" y="720" font-size="11" fill="#555555" text-anchor="middle">04:00</text>
<line x1="725.00" y1="120.86" x2="805.00" y2="90.00" stroke="#f1c40f" stroke-width="2"/>
<rect x="805.00" y="42.00" width="220" height="72" rx="8" fill="#fff8dc" stroke="#f1c40f"/>
<text x="815.00" y="66.00" font-size="12" fill="#111111">目标K线 2026-04-05 20:00</text>
<text x="815.00" y="84.00" font-size="12" fill="#111111">振幅 33.25%</text>
<text x="815.00" y="102.00" font-size="12" fill="#111111">倍数 12.77x</text>
<line x1="650.29" y1="572.51" x2="620.29" y2="532.51" stroke="#3498db" stroke-width="2"/>
<rect x="400.29" y="496.51" width="220" height="58" rx="8" fill="#eef6ff" stroke="#3498db"/>
<text x="410.29" y="518.51" font-size="12" fill="#111111">前一根涨幅 1.48%</text>
<text x="410.29" y="536.51" font-size="12" fill="#111111">前一根振幅 2.60%</text>
</svg>