<svg xmlns="http://www.w3.org/2000/svg" width="1400" height="760" viewBox="0 0 1400 760">
<rect width="100%" height="100%" fill="#fcfcfc"/>
<text x="90" y="36" font-size="26" font-weight="700" fill="#111111">MUBARAK-USDT-SWAP 1H - 10倍命中</text>
<line x1="90" y1="70.00" x2="1360" y2="70.00" stroke="#d9d9d9" stroke-dasharray="4 4" stroke-width="1"/>
<text x="12" y="74.00" font-size="12" fill="#555555">0.025600</text>
<line x1="90" y1="186.00" x2="1360" y2="186.00" stroke="#d9d9d9" stroke-dasharray="4 4" stroke-width="1"/>
<text x="12" y="190.00" font-size="12" fill="#555555">0.023522</text>
<line x1="90" y1="302.00" x2="1360" y2="302.00" stroke="#d9d9d9" stroke-dasharray="4 4" stroke-width="1"/>
<text x="12" y="306.00" font-size="12" fill="#555555">0.021444</text>
<line x1="90" y1="418.00" x2="1360" y2="418.00" stroke="#d9d9d9" stroke-dasharray="4 4" stroke-width="1"/>
<text x="12" y="422.00" font-size="12" fill="#555555">0.019366</text>
<line x1="90" y1="534.00" x2="1360" y2="534.00" stroke="#d9d9d9" stroke-dasharray="4 4" stroke-width="1"/>
<text x="12" y="538.00" font-size="12" fill="#555555">0.017288</text>
<line x1="90" y1="650.00" x2="1360" y2="650.00" stroke="#d9d9d9" stroke-dasharray="4 4" stroke-width="1"/>
<text x="12" y="654.00" font-size="12" fill="#555555">0.015210</text>
<rect x="687.65" y="70" width="74.71" height="580.00" fill="#f1c40f" opacity="0.16"/>
<rect x="612.94" y="70" width="74.71" height="580.00" fill="#3498db" opacity="0.10"/>
<line x1="127.35" y1="639.39" x2="127.35" y2="650.00" stroke="#2ecc71" stroke-width="2"/>
<rect x="105.69" y="640.51" width="43.33" height="2.79" fill="#2ecc71" stroke="#2ecc71" stroke-width="1"/>
<text x="127.35" y="704" font-size="11" fill="#555555" text-anchor="middle">12-31</text>
<text x="127.35" y="720" font-size="11" fill="#555555" text-anchor="middle">19:00</text>
<line x1="202.06" y1="638.84" x2="202.06" y2="643.86" stroke="#e74c3c" stroke-width="2"/>
<rect x="180.39" y="639.95" width="43.33" height="3.35" fill="#e74c3c" stroke="#e74c3c" stroke-width="1"/>
<text x="202.06" y="704" font-size="11" fill="#555555" text-anchor="middle">12-31</text>
<text x="202.06" y="720" font-size="11" fill="#555555" text-anchor="middle">20:00</text>
<line x1="276.76" y1="636.04" x2="276.76" y2="644.98" stroke="#2ecc71" stroke-width="2"/>
<rect x="255.10" y="637.16" width="43.33" height="7.26" fill="#2ecc71" stroke="#2ecc71" stroke-width="1"/>
<text x="276.76" y="704" font-size="11" fill="#555555" text-anchor="middle">12-31</text>
<text x="276.76" y="720" font-size="11" fill="#555555" text-anchor="middle">21:00</text>
<line x1="351.47" y1="632.69" x2="351.47" y2="639.39" stroke="#2ecc71" stroke-width="2"/>
<rect x="329.81" y="637.72" width="43.33" height="1.20" fill="#2ecc71" stroke="#2ecc71" stroke-width="1"/>
<text x="351.47" y="704" font-size="11" fill="#555555" text-anchor="middle">12-31</text>
<text x="351.47" y="720" font-size="11" fill="#555555" text-anchor="middle">22:00</text>
<line x1="426.18" y1="634.37" x2="426.18" y2="644.42" stroke="#2ecc71" stroke-width="2"/>
<rect x="404.51" y="634.37" width="43.33" height="2.79" fill="#2ecc71" stroke="#2ecc71" stroke-width="1"/>
<text x="426.18" y="704" font-size="11" fill="#555555" text-anchor="middle">12-31</text>
<text x="426.18" y="720" font-size="11" fill="#555555" text-anchor="middle">23:00</text>
<line x1="500.88" y1="624.88" x2="500.88" y2="646.09" stroke="#2ecc71" stroke-width="2"/>
<rect x="479.22" y="631.02" width="43.33" height="2.79" fill="#2ecc71" stroke="#2ecc71" stroke-width="1"/>
<text x="500.88" y="704" font-size="11" fill="#555555" text-anchor="middle">01-01</text>
<text x="500.88" y="720" font-size="11" fill="#555555" text-anchor="middle">00:00</text>
<line x1="575.59" y1="622.09" x2="575.59" y2="636.04" stroke="#2ecc71" stroke-width="2"/>
<rect x="553.92" y="630.46" width="43.33" height="2.23" fill="#2ecc71" stroke="#2ecc71" stroke-width="1"/>
<text x="575.59" y="704" font-size="11" fill="#555555" text-anchor="middle">01-01</text>
<text x="575.59" y="720" font-size="11" fill="#555555" text-anchor="middle">01:00</text>
<line x1="650.29" y1="608.69" x2="650.29" y2="629.35" stroke="#2ecc71" stroke-width="2"/>
<rect x="628.63" y="613.16" width="43.33" height="16.19" fill="#2ecc71" stroke="#2ecc71" stroke-width="1"/>
<text x="650.29" y="704" font-size="11" fill="#555555" text-anchor="middle">01-01</text>
<text x="650.29" y="720" font-size="11" fill="#555555" text-anchor="middle">02:00</text>
<line x1="725.00" y1="298.87" x2="725.00" y2="611.48" stroke="#2ecc71" stroke-width="2"/>
<rect x="703.34" y="358.05" width="43.33" height="253.44" fill="#2ecc71" stroke="#2ecc71" stroke-width="1"/>
<text x="725.00" y="704" font-size="11" fill="#555555" text-anchor="middle">01-01</text>
<text x="725.00" y="720" font-size="11" fill="#555555" text-anchor="middle">03:00</text>
<line x1="799.71" y1="70.00" x2="799.71" y2="540.59" stroke="#e74c3c" stroke-width="2"/>
<rect x="778.04" y="358.05" width="43.33" height="125.04" fill="#e74c3c" stroke="#e74c3c" stroke-width="1"/>
<text x="799.71" y="704" font-size="11" fill="#555555" text-anchor="middle">01-01</text>
<text x="799.71" y="720" font-size="11" fill="#555555" text-anchor="middle">04:00</text>
<line x1="874.41" y1="457.97" x2="874.41" y2="535.56" stroke="#2ecc71" stroke-width="2"/>
<rect x="852.75" y="481.41" width="43.33" height="1.67" fill="#2ecc71" stroke="#2ecc71" stroke-width="1"/>
<text x="874.41" y="704" font-size="11" fill="#555555" text-anchor="middle">01-01</text>
<text x="874.41" y="720" font-size="11" fill="#555555" text-anchor="middle">05:00</text>
<line x1="949.12" y1="394.89" x2="949.12" y2="485.32" stroke="#2ecc71" stroke-width="2"/>
<rect x="927.45" y="459.09" width="43.33" height="23.45" fill="#2ecc71" stroke="#2ecc71" stroke-width="1"/>
<text x="949.12" y="704" font-size="11" fill="#555555" text-anchor="middle">01-01</text>
<text x="949.12" y="720" font-size="11" fill="#555555" text-anchor="middle">06:00</text>
<line x1="1023.82" y1="446.25" x2="1023.82" y2="497.60" stroke="#e74c3c" stroke-width="2"/>
<rect x="1002.16" y="459.64" width="43.33" height="34.05" fill="#e74c3c" stroke="#e74c3c" stroke-width="1"/>
<text x="1023.82" y="704" font-size="11" fill="#555555" text-anchor="middle">01-01</text>
<text x="1023.82" y="720" font-size="11" fill="#555555" text-anchor="middle">07:00</text>
<line x1="1098.53" y1="481.41" x2="1098.53" y2="521.05" stroke="#e74c3c" stroke-width="2"/>
<rect x="1076.86" y="493.70" width="43.33" height="2.79" fill="#e74c3c" stroke="#e74c3c" stroke-width="1"/>
<text x="1098.53" y="704" font-size="11" fill="#555555" text-anchor="middle">01-01</text>
<text x="1098.53" y="720" font-size="11" fill="#555555" text-anchor="middle">08:00</text>
<line x1="1173.24" y1="468.58" x2="1173.24" y2="503.74" stroke="#2ecc71" stroke-width="2"/>
<rect x="1151.57" y="490.90" width="43.33" height="5.58" fill="#2ecc71" stroke="#2ecc71" stroke-width="1"/>
<text x="1173.24" y="704" font-size="11" fill="#555555" text-anchor="middle">01-01</text>
<text x="1173.24" y="720" font-size="11" fill="#555555" text-anchor="middle">09:00</text>
<line x1="1247.94" y1="472.48" x2="1247.94" y2="503.19" stroke="#2ecc71" stroke-width="2"/>
<rect x="1226.28" y="484.76" width="43.33" height="6.70" fill="#2ecc71" stroke="#2ecc71" stroke-width="1"/>
<text x="1247.94" y="704" font-size="11" fill="#555555" text-anchor="middle">01-01</text>
<text x="1247.94" y="720" font-size="11" fill="#555555" text-anchor="middle">10:00</text>
<line x1="1322.65" y1="463.55" x2="1322.65" y2="504.30" stroke="#2ecc71" stroke-width="2"/>
<rect x="1300.98" y="478.62" width="43.33" height="5.58" fill="#2ecc71" stroke="#2ecc71" stroke-width="1"/>
<text x="1322.65" y="704" font-size="11" fill="#555555" text-anchor="middle">01-01</text>
<text x="1322.65" y="720" font-size="11" fill="#555555" text-anchor="middle">11:00</text>
<line x1="725.00" y1="298.87" x2="805.00" y2="228.87" stroke="#f1c40f" stroke-width="2"/>
<rect x="805.00" y="180.87" width="220" height="72" rx="8" fill="#fff8dc" stroke="#f1c40f"/>
<text x="815.00" y="204.87" font-size="12" fill="#111111">目标K线 2026-01-01 03:00</text>
<text x="815.00" y="222.87" font-size="12" fill="#111111">振幅 35.22%</text>
<text x="815.00" y="240.87" font-size="12" fill="#111111">倍数 14.83x</text>
<line x1="650.29" y1="608.69" x2="620.29" y2="568.69" stroke="#3498db" stroke-width="2"/>
<rect x="400.29" y="532.69" width="220" height="58" rx="8" fill="#eef6ff" stroke="#3498db"/>
<text x="410.29" y="554.69" font-size="12" fill="#111111">前一根涨幅 1.86%</text>
<text x="410.29" y="572.69" font-size="12" fill="#111111">前一根振幅 2.37%</text>
</svg>