<svg xmlns="http://www.w3.org/2000/svg" width="1400" height="760" viewBox="0 0 1400 760">
<rect width="100%" height="100%" fill="#fcfcfc"/>
<text x="90" y="36" font-size="26" font-weight="700" fill="#111111">ONT-USDT-SWAP 1H - 10倍命中</text>
<line x1="90" y1="70.00" x2="1360" y2="70.00" stroke="#d9d9d9" stroke-dasharray="4 4" stroke-width="1"/>
<text x="12" y="74.00" font-size="12" fill="#555555">0.093320</text>
<line x1="90" y1="186.00" x2="1360" y2="186.00" stroke="#d9d9d9" stroke-dasharray="4 4" stroke-width="1"/>
<text x="12" y="190.00" font-size="12" fill="#555555">0.086258</text>
<line x1="90" y1="302.00" x2="1360" y2="302.00" stroke="#d9d9d9" stroke-dasharray="4 4" stroke-width="1"/>
<text x="12" y="306.00" font-size="12" fill="#555555">0.079196</text>
<line x1="90" y1="418.00" x2="1360" y2="418.00" stroke="#d9d9d9" stroke-dasharray="4 4" stroke-width="1"/>
<text x="12" y="422.00" font-size="12" fill="#555555">0.072134</text>
<line x1="90" y1="534.00" x2="1360" y2="534.00" stroke="#d9d9d9" stroke-dasharray="4 4" stroke-width="1"/>
<text x="12" y="538.00" font-size="12" fill="#555555">0.065072</text>
<line x1="90" y1="650.00" x2="1360" y2="650.00" stroke="#d9d9d9" stroke-dasharray="4 4" stroke-width="1"/>
<text x="12" y="654.00" font-size="12" fill="#555555">0.058010</text>
<rect x="687.65" y="70" width="74.71" height="580.00" fill="#f1c40f" opacity="0.16"/>
<rect x="612.94" y="70" width="74.71" height="580.00" fill="#3498db" opacity="0.10"/>
<line x1="127.35" y1="620.43" x2="127.35" y2="645.07" stroke="#2ecc71" stroke-width="2"/>
<rect x="105.69" y="638.99" width="43.33" height="2.96" fill="#2ecc71" stroke="#2ecc71" stroke-width="1"/>
<text x="127.35" y="704" font-size="11" fill="#555555" text-anchor="middle">03-30</text>
<text x="127.35" y="720" font-size="11" fill="#555555" text-anchor="middle">00:00</text>
<line x1="202.06" y1="624.87" x2="202.06" y2="642.44" stroke="#2ecc71" stroke-width="2"/>
<rect x="180.39" y="630.62" width="43.33" height="8.21" fill="#2ecc71" stroke="#2ecc71" stroke-width="1"/>
<text x="202.06" y="704" font-size="11" fill="#555555" text-anchor="middle">03-30</text>
<text x="202.06" y="720" font-size="11" fill="#555555" text-anchor="middle">01:00</text>
<line x1="276.76" y1="606.47" x2="276.76" y2="636.04" stroke="#2ecc71" stroke-width="2"/>
<rect x="255.10" y="618.95" width="43.33" height="11.83" fill="#2ecc71" stroke="#2ecc71" stroke-width="1"/>
<text x="276.76" y="704" font-size="11" fill="#555555" text-anchor="middle">03-30</text>
<text x="276.76" y="720" font-size="11" fill="#555555" text-anchor="middle">02:00</text>
<line x1="351.47" y1="610.41" x2="351.47" y2="630.78" stroke="#e74c3c" stroke-width="2"/>
<rect x="329.81" y="619.12" width="43.33" height="7.23" fill="#e74c3c" stroke="#e74c3c" stroke-width="1"/>
<text x="351.47" y="704" font-size="11" fill="#555555" text-anchor="middle">03-30</text>
<text x="351.47" y="720" font-size="11" fill="#555555" text-anchor="middle">03:00</text>
<line x1="426.18" y1="623.88" x2="426.18" y2="635.22" stroke="#e74c3c" stroke-width="2"/>
<rect x="404.51" y="626.35" width="43.33" height="1.97" fill="#e74c3c" stroke="#e74c3c" stroke-width="1"/>
<text x="426.18" y="704" font-size="11" fill="#555555" text-anchor="middle">03-30</text>
<text x="426.18" y="720" font-size="11" fill="#555555" text-anchor="middle">04:00</text>
<line x1="500.88" y1="610.25" x2="500.88" y2="630.45" stroke="#2ecc71" stroke-width="2"/>
<rect x="479.22" y="621.25" width="43.33" height="7.23" fill="#2ecc71" stroke="#2ecc71" stroke-width="1"/>
<text x="500.88" y="704" font-size="11" fill="#555555" text-anchor="middle">03-30</text>
<text x="500.88" y="720" font-size="11" fill="#555555" text-anchor="middle">05:00</text>
<line x1="575.59" y1="620.27" x2="575.59" y2="650.00" stroke="#e74c3c" stroke-width="2"/>
<rect x="553.92" y="621.09" width="43.33" height="14.95" fill="#e74c3c" stroke="#e74c3c" stroke-width="1"/>
<text x="575.59" y="704" font-size="11" fill="#555555" text-anchor="middle">03-30</text>
<text x="575.59" y="720" font-size="11" fill="#555555" text-anchor="middle">06:00</text>
<line x1="650.29" y1="613.86" x2="650.29" y2="639.82" stroke="#2ecc71" stroke-width="2"/>
<rect x="628.63" y="618.79" width="43.33" height="17.25" fill="#2ecc71" stroke="#2ecc71" stroke-width="1"/>
<text x="650.29" y="704" font-size="11" fill="#555555" text-anchor="middle">03-30</text>
<text x="650.29" y="720" font-size="11" fill="#555555" text-anchor="middle">07:00</text>
<line x1="725.00" y1="70.00" x2="725.00" y2="645.56" stroke="#2ecc71" stroke-width="2"/>
<rect x="703.34" y="374.87" width="43.33" height="243.93" fill="#2ecc71" stroke="#2ecc71" stroke-width="1"/>
<text x="725.00" y="704" font-size="11" fill="#555555" text-anchor="middle">03-30</text>
<text x="725.00" y="720" font-size="11" fill="#555555" text-anchor="middle">08:00</text>
<line x1="799.71" y1="344.64" x2="799.71" y2="419.71" stroke="#e74c3c" stroke-width="2"/>
<rect x="778.04" y="375.19" width="43.33" height="12.16" fill="#e74c3c" stroke="#e74c3c" stroke-width="1"/>
<text x="799.71" y="704" font-size="11" fill="#555555" text-anchor="middle">03-30</text>
<text x="799.71" y="720" font-size="11" fill="#555555" text-anchor="middle">09:00</text>
<line x1="874.41" y1="363.37" x2="874.41" y2="413.63" stroke="#2ecc71" stroke-width="2"/>
<rect x="852.75" y="374.21" width="43.33" height="13.14" fill="#2ecc71" stroke="#2ecc71" stroke-width="1"/>
<text x="874.41" y="704" font-size="11" fill="#555555" text-anchor="middle">03-30</text>
<text x="874.41" y="720" font-size="11" fill="#555555" text-anchor="middle">10:00</text>
<line x1="949.12" y1="324.11" x2="949.12" y2="430.88" stroke="#e74c3c" stroke-width="2"/>
<rect x="927.45" y="374.87" width="43.33" height="37.29" fill="#e74c3c" stroke="#e74c3c" stroke-width="1"/>
<text x="949.12" y="704" font-size="11" fill="#555555" text-anchor="middle">03-30</text>
<text x="949.12" y="720" font-size="11" fill="#555555" text-anchor="middle">11:00</text>
<line x1="1023.82" y1="371.91" x2="1023.82" y2="419.05" stroke="#2ecc71" stroke-width="2"/>
<rect x="1002.16" y="395.73" width="43.33" height="16.59" fill="#2ecc71" stroke="#2ecc71" stroke-width="1"/>
<text x="1023.82" y="704" font-size="11" fill="#555555" text-anchor="middle">03-30</text>
<text x="1023.82" y="720" font-size="11" fill="#555555" text-anchor="middle">12:00</text>
<line x1="1098.53" y1="395.73" x2="1098.53" y2="452.72" stroke="#e74c3c" stroke-width="2"/>
<rect x="1076.86" y="395.73" width="43.33" height="50.92" fill="#e74c3c" stroke="#e74c3c" stroke-width="1"/>
<text x="1098.53" y="704" font-size="11" fill="#555555" text-anchor="middle">03-30</text>
<text x="1098.53" y="720" font-size="11" fill="#555555" text-anchor="middle">13:00</text>
<line x1="1173.24" y1="445.17" x2="1173.24" y2="475.23" stroke="#e74c3c" stroke-width="2"/>
<rect x="1151.57" y="446.48" width="43.33" height="23.49" fill="#e74c3c" stroke="#e74c3c" stroke-width="1"/>
<text x="1173.24" y="704" font-size="11" fill="#555555" text-anchor="middle">03-30</text>
<text x="1173.24" y="720" font-size="11" fill="#555555" text-anchor="middle">14:00</text>
<line x1="1247.94" y1="427.76" x2="1247.94" y2="475.72" stroke="#2ecc71" stroke-width="2"/>
<rect x="1226.28" y="429.40" width="43.33" height="40.57" fill="#2ecc71" stroke="#2ecc71" stroke-width="1"/>
<text x="1247.94" y="704" font-size="11" fill="#555555" text-anchor="middle">03-30</text>
<text x="1247.94" y="720" font-size="11" fill="#555555" text-anchor="middle">15:00</text>
<line x1="1322.65" y1="397.70" x2="1322.65" y2="452.07" stroke="#e74c3c" stroke-width="2"/>
<rect x="1300.98" y="429.40" width="43.33" height="15.60" fill="#e74c3c" stroke="#e74c3c" stroke-width="1"/>
<text x="1322.65" y="704" font-size="11" fill="#555555" text-anchor="middle">03-30</text>
<text x="1322.65" y="720" font-size="11" fill="#555555" text-anchor="middle">16:00</text>
<line x1="725.00" y1="70.00" x2="805.00" y2="90.00" stroke="#f1c40f" stroke-width="2"/>
<rect x="805.00" y="42.00" width="220" height="72" rx="8" fill="#fff8dc" stroke="#f1c40f"/>
<text x="815.00" y="66.00" font-size="12" fill="#111111">目标K线 2026-03-30 08:00</text>
<text x="815.00" y="84.00" font-size="12" fill="#111111">振幅 58.49%</text>
<text x="815.00" y="102.00" font-size="12" fill="#111111">倍数 21.79x</text>
<line x1="650.29" y1="613.86" x2="620.29" y2="573.86" stroke="#3498db" stroke-width="2"/>
<rect x="400.29" y="537.86" width="220" height="58" rx="8" fill="#eef6ff" stroke="#3498db"/>
<text x="410.29" y="559.86" font-size="12" fill="#111111">前一根涨幅 1.78%</text>
<text x="410.29" y="577.86" font-size="12" fill="#111111">前一根振幅 2.68%</text>
</svg>