<svg xmlns="http://www.w3.org/2000/svg" width="1400" height="760" viewBox="0 0 1400 760">
<rect width="100%" height="100%" fill="#fcfcfc"/>
<text x="90" y="36" font-size="26" font-weight="700" fill="#111111">ORDI-USDT-SWAP 1H - 10倍命中</text>
<line x1="90" y1="70.00" x2="1360" y2="70.00" stroke="#d9d9d9" stroke-dasharray="4 4" stroke-width="1"/>
<text x="12" y="74.00" font-size="12" fill="#555555">11.990000</text>
<line x1="90" y1="186.00" x2="1360" y2="186.00" stroke="#d9d9d9" stroke-dasharray="4 4" stroke-width="1"/>
<text x="12" y="190.00" font-size="12" fill="#555555">11.024400</text>
<line x1="90" y1="302.00" x2="1360" y2="302.00" stroke="#d9d9d9" stroke-dasharray="4 4" stroke-width="1"/>
<text x="12" y="306.00" font-size="12" fill="#555555">10.058800</text>
<line x1="90" y1="418.00" x2="1360" y2="418.00" stroke="#d9d9d9" stroke-dasharray="4 4" stroke-width="1"/>
<text x="12" y="422.00" font-size="12" fill="#555555">9.093200</text>
<line x1="90" y1="534.00" x2="1360" y2="534.00" stroke="#d9d9d9" stroke-dasharray="4 4" stroke-width="1"/>
<text x="12" y="538.00" font-size="12" fill="#555555">8.127600</text>
<line x1="90" y1="650.00" x2="1360" y2="650.00" stroke="#d9d9d9" stroke-dasharray="4 4" stroke-width="1"/>
<text x="12" y="654.00" font-size="12" fill="#555555">7.162000</text>
<rect x="687.65" y="70" width="74.71" height="580.00" fill="#f1c40f" opacity="0.16"/>
<rect x="612.94" y="70" width="74.71" height="580.00" fill="#3498db" opacity="0.10"/>
<line x1="127.35" y1="614.08" x2="127.35" y2="634.86" stroke="#2ecc71" stroke-width="2"/>
<rect x="105.69" y="617.20" width="43.33" height="11.29" fill="#2ecc71" stroke="#2ecc71" stroke-width="1"/>
<text x="127.35" y="704" font-size="11" fill="#555555" text-anchor="middle">11-07</text>
<text x="127.35" y="720" font-size="11" fill="#555555" text-anchor="middle">06:00</text>
<line x1="202.06" y1="608.19" x2="202.06" y2="631.62" stroke="#e74c3c" stroke-width="2"/>
<rect x="180.39" y="617.08" width="43.33" height="4.81" fill="#e74c3c" stroke="#e74c3c" stroke-width="1"/>
<text x="202.06" y="704" font-size="11" fill="#555555" text-anchor="middle">11-07</text>
<text x="202.06" y="720" font-size="11" fill="#555555" text-anchor="middle">07:00</text>
<line x1="276.76" y1="619.37" x2="276.76" y2="650.00" stroke="#e74c3c" stroke-width="2"/>
<rect x="255.10" y="621.89" width="43.33" height="16.10" fill="#e74c3c" stroke="#e74c3c" stroke-width="1"/>
<text x="276.76" y="704" font-size="11" fill="#555555" text-anchor="middle">11-07</text>
<text x="276.76" y="720" font-size="11" fill="#555555" text-anchor="middle">08:00</text>
<line x1="351.47" y1="619.97" x2="351.47" y2="641.11" stroke="#2ecc71" stroke-width="2"/>
<rect x="329.81" y="623.81" width="43.33" height="14.06" fill="#2ecc71" stroke="#2ecc71" stroke-width="1"/>
<text x="351.47" y="704" font-size="11" fill="#555555" text-anchor="middle">11-07</text>
<text x="351.47" y="720" font-size="11" fill="#555555" text-anchor="middle">09:00</text>
<line x1="426.18" y1="579.24" x2="426.18" y2="633.78" stroke="#e74c3c" stroke-width="2"/>
<rect x="404.51" y="623.69" width="43.33" height="8.17" fill="#e74c3c" stroke="#e74c3c" stroke-width="1"/>
<text x="426.18" y="704" font-size="11" fill="#555555" text-anchor="middle">11-07</text>
<text x="426.18" y="720" font-size="11" fill="#555555" text-anchor="middle">10:00</text>
<line x1="500.88" y1="610.84" x2="500.88" y2="638.11" stroke="#2ecc71" stroke-width="2"/>
<rect x="479.22" y="616.60" width="43.33" height="15.26" fill="#2ecc71" stroke="#2ecc71" stroke-width="1"/>
<text x="500.88" y="704" font-size="11" fill="#555555" text-anchor="middle">11-07</text>
<text x="500.88" y="720" font-size="11" fill="#555555" text-anchor="middle">11:00</text>
<line x1="575.59" y1="613.72" x2="575.59" y2="626.21" stroke="#e74c3c" stroke-width="2"/>
<rect x="553.92" y="616.12" width="43.33" height="7.33" fill="#e74c3c" stroke="#e74c3c" stroke-width="1"/>
<text x="575.59" y="704" font-size="11" fill="#555555" text-anchor="middle">11-07</text>
<text x="575.59" y="720" font-size="11" fill="#555555" text-anchor="middle">12:00</text>
<line x1="650.29" y1="604.95" x2="650.29" y2="630.90" stroke="#2ecc71" stroke-width="2"/>
<rect x="628.63" y="611.44" width="43.33" height="12.25" fill="#2ecc71" stroke="#2ecc71" stroke-width="1"/>
<text x="650.29" y="704" font-size="11" fill="#555555" text-anchor="middle">11-07</text>
<text x="650.29" y="720" font-size="11" fill="#555555" text-anchor="middle">13:00</text>
<line x1="725.00" y1="313.51" x2="725.00" y2="617.68" stroke="#2ecc71" stroke-width="2"/>
<rect x="703.34" y="353.15" width="43.33" height="257.56" fill="#2ecc71" stroke="#2ecc71" stroke-width="1"/>
<text x="725.00" y="704" font-size="11" fill="#555555" text-anchor="middle">11-07</text>
<text x="725.00" y="720" font-size="11" fill="#555555" text-anchor="middle">14:00</text>
<line x1="799.71" y1="70.00" x2="799.71" y2="359.64" stroke="#2ecc71" stroke-width="2"/>
<rect x="778.04" y="211.52" width="43.33" height="142.24" fill="#2ecc71" stroke="#2ecc71" stroke-width="1"/>
<text x="799.71" y="704" font-size="11" fill="#555555" text-anchor="middle">11-07</text>
<text x="799.71" y="720" font-size="11" fill="#555555" text-anchor="middle">15:00</text>
<line x1="874.41" y1="130.07" x2="874.41" y2="228.94" stroke="#2ecc71" stroke-width="2"/>
<rect x="852.75" y="190.01" width="43.33" height="21.50" fill="#2ecc71" stroke="#2ecc71" stroke-width="1"/>
<text x="874.41" y="704" font-size="11" fill="#555555" text-anchor="middle">11-07</text>
<text x="874.41" y="720" font-size="11" fill="#555555" text-anchor="middle">16:00</text>
<line x1="949.12" y1="158.90" x2="949.12" y2="247.92" stroke="#e74c3c" stroke-width="2"/>
<rect x="927.45" y="189.77" width="43.33" height="24.87" fill="#e74c3c" stroke="#e74c3c" stroke-width="1"/>
<text x="949.12" y="704" font-size="11" fill="#555555" text-anchor="middle">11-07</text>
<text x="949.12" y="720" font-size="11" fill="#555555" text-anchor="middle">17:00</text>
<line x1="1023.82" y1="212.24" x2="1023.82" y2="272.90" stroke="#e74c3c" stroke-width="2"/>
<rect x="1002.16" y="215.12" width="43.33" height="18.14" fill="#e74c3c" stroke="#e74c3c" stroke-width="1"/>
<text x="1023.82" y="704" font-size="11" fill="#555555" text-anchor="middle">11-07</text>
<text x="1023.82" y="720" font-size="11" fill="#555555" text-anchor="middle">18:00</text>
<line x1="1098.53" y1="193.86" x2="1098.53" y2="242.51" stroke="#2ecc71" stroke-width="2"/>
<rect x="1076.86" y="212.72" width="43.33" height="20.42" fill="#2ecc71" stroke="#2ecc71" stroke-width="1"/>
<text x="1098.53" y="704" font-size="11" fill="#555555" text-anchor="middle">11-07</text>
<text x="1098.53" y="720" font-size="11" fill="#555555" text-anchor="middle">19:00</text>
<line x1="1173.24" y1="162.50" x2="1173.24" y2="348.71" stroke="#e74c3c" stroke-width="2"/>
<rect x="1151.57" y="212.48" width="43.33" height="30.03" fill="#e74c3c" stroke="#e74c3c" stroke-width="1"/>
<text x="1173.24" y="704" font-size="11" fill="#555555" text-anchor="middle">11-07</text>
<text x="1173.24" y="720" font-size="11" fill="#555555" text-anchor="middle">20:00</text>
<line x1="1247.94" y1="228.57" x2="1247.94" y2="316.51" stroke="#e74c3c" stroke-width="2"/>
<rect x="1226.28" y="242.51" width="43.33" height="18.26" fill="#e74c3c" stroke="#e74c3c" stroke-width="1"/>
<text x="1247.94" y="704" font-size="11" fill="#555555" text-anchor="middle">11-07</text>
<text x="1247.94" y="720" font-size="11" fill="#555555" text-anchor="middle">21:00</text>
<line x1="1322.65" y1="258.01" x2="1322.65" y2="307.02" stroke="#e74c3c" stroke-width="2"/>
<rect x="1300.98" y="260.77" width="43.33" height="1.80" fill="#e74c3c" stroke="#e74c3c" stroke-width="1"/>
<text x="1322.65" y="704" font-size="11" fill="#555555" text-anchor="middle">11-07</text>
<text x="1322.65" y="720" font-size="11" fill="#555555" text-anchor="middle">22:00</text>
<line x1="725.00" y1="313.51" x2="805.00" y2="243.51" stroke="#f1c40f" stroke-width="2"/>
<rect x="805.00" y="195.51" width="220" height="72" rx="8" fill="#fff8dc" stroke="#f1c40f"/>
<text x="815.00" y="219.51" font-size="12" fill="#111111">目标K线 2023-11-07 14:00</text>
<text x="815.00" y="237.51" font-size="12" fill="#111111">振幅 33.81%</text>
<text x="815.00" y="255.51" font-size="12" fill="#111111">倍数 11.55x</text>
<line x1="650.29" y1="604.95" x2="620.29" y2="564.95" stroke="#3498db" stroke-width="2"/>
<rect x="400.29" y="528.95" width="220" height="58" rx="8" fill="#eef6ff" stroke="#3498db"/>
<text x="410.29" y="550.95" font-size="12" fill="#111111">前一根涨幅 1.38%</text>
<text x="410.29" y="568.95" font-size="12" fill="#111111">前一根振幅 2.93%</text>
</svg>