<svg xmlns="http://www.w3.org/2000/svg" width="1400" height="760" viewBox="0 0 1400 760">
<rect width="100%" height="100%" fill="#fcfcfc"/>
<text x="90" y="36" font-size="26" font-weight="700" fill="#111111">ROBO-USDT-SWAP 1H - 10倍命中</text>
<line x1="90" y1="70.00" x2="1360" y2="70.00" stroke="#d9d9d9" stroke-dasharray="4 4" stroke-width="1"/>
<text x="12" y="74.00" font-size="12" fill="#555555">0.037880</text>
<line x1="90" y1="186.00" x2="1360" y2="186.00" stroke="#d9d9d9" stroke-dasharray="4 4" stroke-width="1"/>
<text x="12" y="190.00" font-size="12" fill="#555555">0.035694</text>
<line x1="90" y1="302.00" x2="1360" y2="302.00" stroke="#d9d9d9" stroke-dasharray="4 4" stroke-width="1"/>
<text x="12" y="306.00" font-size="12" fill="#555555">0.033508</text>
<line x1="90" y1="418.00" x2="1360" y2="418.00" stroke="#d9d9d9" stroke-dasharray="4 4" stroke-width="1"/>
<text x="12" y="422.00" font-size="12" fill="#555555">0.031322</text>
<line x1="90" y1="534.00" x2="1360" y2="534.00" stroke="#d9d9d9" stroke-dasharray="4 4" stroke-width="1"/>
<text x="12" y="538.00" font-size="12" fill="#555555">0.029136</text>
<line x1="90" y1="650.00" x2="1360" y2="650.00" stroke="#d9d9d9" stroke-dasharray="4 4" stroke-width="1"/>
<text x="12" y="654.00" font-size="12" fill="#555555">0.026950</text>
<rect x="687.65" y="70" width="74.71" height="580.00" fill="#f1c40f" opacity="0.16"/>
<rect x="612.94" y="70" width="74.71" height="580.00" fill="#3498db" opacity="0.10"/>
<line x1="127.35" y1="415.45" x2="127.35" y2="451.54" stroke="#e74c3c" stroke-width="2"/>
<rect x="105.69" y="426.60" width="43.33" height="22.82" fill="#e74c3c" stroke="#e74c3c" stroke-width="1"/>
<text x="127.35" y="704" font-size="11" fill="#555555" text-anchor="middle">03-18</text>
<text x="127.35" y="720" font-size="11" fill="#555555" text-anchor="middle">03:00</text>
<line x1="202.06" y1="445.70" x2="202.06" y2="476.48" stroke="#2ecc71" stroke-width="2"/>
<rect x="180.39" y="446.76" width="43.33" height="2.12" fill="#2ecc71" stroke="#2ecc71" stroke-width="1"/>
<text x="202.06" y="704" font-size="11" fill="#555555" text-anchor="middle">03-18</text>
<text x="202.06" y="720" font-size="11" fill="#555555" text-anchor="middle">04:00</text>
<line x1="276.76" y1="418.64" x2="276.76" y2="448.88" stroke="#2ecc71" stroke-width="2"/>
<rect x="255.10" y="444.64" width="43.33" height="1.59" fill="#2ecc71" stroke="#2ecc71" stroke-width="1"/>
<text x="276.76" y="704" font-size="11" fill="#555555" text-anchor="middle">03-18</text>
<text x="276.76" y="720" font-size="11" fill="#555555" text-anchor="middle">05:00</text>
<line x1="351.47" y1="436.68" x2="351.47" y2="460.03" stroke="#e74c3c" stroke-width="2"/>
<rect x="329.81" y="444.11" width="43.33" height="7.43" fill="#e74c3c" stroke="#e74c3c" stroke-width="1"/>
<text x="351.47" y="704" font-size="11" fill="#555555" text-anchor="middle">03-18</text>
<text x="351.47" y="720" font-size="11" fill="#555555" text-anchor="middle">06:00</text>
<line x1="426.18" y1="448.35" x2="426.18" y2="504.07" stroke="#e74c3c" stroke-width="2"/>
<rect x="404.51" y="451.01" width="43.33" height="38.74" fill="#e74c3c" stroke="#e74c3c" stroke-width="1"/>
<text x="426.18" y="704" font-size="11" fill="#555555" text-anchor="middle">03-18</text>
<text x="426.18" y="720" font-size="11" fill="#555555" text-anchor="middle">07:00</text>
<line x1="500.88" y1="487.62" x2="500.88" y2="557.67" stroke="#e74c3c" stroke-width="2"/>
<rect x="479.22" y="489.21" width="43.33" height="57.31" fill="#e74c3c" stroke="#e74c3c" stroke-width="1"/>
<text x="500.88" y="704" font-size="11" fill="#555555" text-anchor="middle">03-18</text>
<text x="500.88" y="720" font-size="11" fill="#555555" text-anchor="middle">08:00</text>
<line x1="575.59" y1="506.72" x2="575.59" y2="559.26" stroke="#2ecc71" stroke-width="2"/>
<rect x="553.92" y="516.81" width="43.33" height="29.72" fill="#2ecc71" stroke="#2ecc71" stroke-width="1"/>
<text x="575.59" y="704" font-size="11" fill="#555555" text-anchor="middle">03-18</text>
<text x="575.59" y="720" font-size="11" fill="#555555" text-anchor="middle">09:00</text>
<line x1="650.29" y1="481.25" x2="650.29" y2="516.81" stroke="#2ecc71" stroke-width="2"/>
<rect x="628.63" y="495.58" width="43.33" height="21.23" fill="#2ecc71" stroke="#2ecc71" stroke-width="1"/>
<text x="650.29" y="704" font-size="11" fill="#555555" text-anchor="middle">03-18</text>
<text x="650.29" y="720" font-size="11" fill="#555555" text-anchor="middle">10:00</text>
<line x1="725.00" y1="70.00" x2="725.00" y2="495.58" stroke="#2ecc71" stroke-width="2"/>
<rect x="703.34" y="350.18" width="43.33" height="145.40" fill="#2ecc71" stroke="#2ecc71" stroke-width="1"/>
<text x="725.00" y="704" font-size="11" fill="#555555" text-anchor="middle">03-18</text>
<text x="725.00" y="720" font-size="11" fill="#555555" text-anchor="middle">11:00</text>
<line x1="799.71" y1="311.45" x2="799.71" y2="475.95" stroke="#e74c3c" stroke-width="2"/>
<rect x="778.04" y="349.65" width="43.33" height="84.90" fill="#e74c3c" stroke="#e74c3c" stroke-width="1"/>
<text x="799.71" y="704" font-size="11" fill="#555555" text-anchor="middle">03-18</text>
<text x="799.71" y="720" font-size="11" fill="#555555" text-anchor="middle">12:00</text>
<line x1="874.41" y1="430.31" x2="874.41" y2="594.28" stroke="#e74c3c" stroke-width="2"/>
<rect x="852.75" y="434.56" width="43.33" height="128.95" fill="#e74c3c" stroke="#e74c3c" stroke-width="1"/>
<text x="874.41" y="704" font-size="11" fill="#555555" text-anchor="middle">03-18</text>
<text x="874.41" y="720" font-size="11" fill="#555555" text-anchor="middle">13:00</text>
<line x1="949.12" y1="523.71" x2="949.12" y2="566.16" stroke="#2ecc71" stroke-width="2"/>
<rect x="927.45" y="531.67" width="43.33" height="31.84" fill="#2ecc71" stroke="#2ecc71" stroke-width="1"/>
<text x="949.12" y="704" font-size="11" fill="#555555" text-anchor="middle">03-18</text>
<text x="949.12" y="720" font-size="11" fill="#555555" text-anchor="middle">14:00</text>
<line x1="1023.82" y1="502.48" x2="1023.82" y2="553.42" stroke="#e74c3c" stroke-width="2"/>
<rect x="1002.16" y="531.13" width="43.33" height="20.70" fill="#e74c3c" stroke="#e74c3c" stroke-width="1"/>
<text x="1023.82" y="704" font-size="11" fill="#555555" text-anchor="middle">03-18</text>
<text x="1023.82" y="720" font-size="11" fill="#555555" text-anchor="middle">15:00</text>
<line x1="1098.53" y1="549.71" x2="1098.53" y2="629.84" stroke="#e74c3c" stroke-width="2"/>
<rect x="1076.86" y="551.83" width="43.33" height="65.27" fill="#e74c3c" stroke="#e74c3c" stroke-width="1"/>
<text x="1098.53" y="704" font-size="11" fill="#555555" text-anchor="middle">03-18</text>
<text x="1098.53" y="720" font-size="11" fill="#555555" text-anchor="middle">16:00</text>
<line x1="1173.24" y1="597.47" x2="1173.24" y2="650.00" stroke="#2ecc71" stroke-width="2"/>
<rect x="1151.57" y="603.30" width="43.33" height="14.33" fill="#2ecc71" stroke="#2ecc71" stroke-width="1"/>
<text x="1173.24" y="704" font-size="11" fill="#555555" text-anchor="middle">03-18</text>
<text x="1173.24" y="720" font-size="11" fill="#555555" text-anchor="middle">17:00</text>
<line x1="1247.94" y1="591.63" x2="1247.94" y2="616.57" stroke="#e74c3c" stroke-width="2"/>
<rect x="1226.28" y="603.30" width="43.33" height="8.49" fill="#e74c3c" stroke="#e74c3c" stroke-width="1"/>
<text x="1247.94" y="704" font-size="11" fill="#555555" text-anchor="middle">03-18</text>
<text x="1247.94" y="720" font-size="11" fill="#555555" text-anchor="middle">18:00</text>
<line x1="1322.65" y1="609.14" x2="1322.65" y2="646.29" stroke="#e74c3c" stroke-width="2"/>
<rect x="1300.98" y="611.26" width="43.33" height="22.29" fill="#e74c3c" stroke="#e74c3c" stroke-width="1"/>
<text x="1322.65" y="704" font-size="11" fill="#555555" text-anchor="middle">03-18</text>
<text x="1322.65" y="720" font-size="11" fill="#555555" text-anchor="middle">19:00</text>
<line x1="725.00" y1="70.00" x2="805.00" y2="90.00" stroke="#f1c40f" stroke-width="2"/>
<rect x="805.00" y="42.00" width="220" height="72" rx="8" fill="#fff8dc" stroke="#f1c40f"/>
<text x="815.00" y="66.00" font-size="12" fill="#111111">目标K线 2026-03-18 11:00</text>
<text x="815.00" y="84.00" font-size="12" fill="#111111">振幅 26.86%</text>
<text x="815.00" y="102.00" font-size="12" fill="#111111">倍数 11.81x</text>
<line x1="650.29" y1="481.25" x2="620.29" y2="441.25" stroke="#3498db" stroke-width="2"/>
<rect x="400.29" y="405.25" width="220" height="58" rx="8" fill="#eef6ff" stroke="#3498db"/>
<text x="410.29" y="427.25" font-size="12" fill="#111111">前一根涨幅 1.36%</text>
<text x="410.29" y="445.25" font-size="12" fill="#111111">前一根振幅 2.27%</text>
</svg>