<svg xmlns="http://www.w3.org/2000/svg" width="1400" height="760" viewBox="0 0 1400 760">
<rect width="100%" height="100%" fill="#fcfcfc"/>
<text x="90" y="36" font-size="26" font-weight="700" fill="#111111">SUSHI-USDT-SWAP 1H - 10倍命中</text>
<line x1="90" y1="70.00" x2="1360" y2="70.00" stroke="#d9d9d9" stroke-dasharray="4 4" stroke-width="1"/>
<text x="12" y="74.00" font-size="12" fill="#555555">1.296000</text>
<line x1="90" y1="186.00" x2="1360" y2="186.00" stroke="#d9d9d9" stroke-dasharray="4 4" stroke-width="1"/>
<text x="12" y="190.00" font-size="12" fill="#555555">1.192540</text>
<line x1="90" y1="302.00" x2="1360" y2="302.00" stroke="#d9d9d9" stroke-dasharray="4 4" stroke-width="1"/>
<text x="12" y="306.00" font-size="12" fill="#555555">1.089080</text>
<line x1="90" y1="418.00" x2="1360" y2="418.00" stroke="#d9d9d9" stroke-dasharray="4 4" stroke-width="1"/>
<text x="12" y="422.00" font-size="12" fill="#555555">0.985620</text>
<line x1="90" y1="534.00" x2="1360" y2="534.00" stroke="#d9d9d9" stroke-dasharray="4 4" stroke-width="1"/>
<text x="12" y="538.00" font-size="12" fill="#555555">0.882160</text>
<line x1="90" y1="650.00" x2="1360" y2="650.00" stroke="#d9d9d9" stroke-dasharray="4 4" stroke-width="1"/>
<text x="12" y="654.00" font-size="12" fill="#555555">0.778700</text>
<rect x="687.65" y="70" width="74.71" height="580.00" fill="#f1c40f" opacity="0.16"/>
<rect x="612.94" y="70" width="74.71" height="580.00" fill="#3498db" opacity="0.10"/>
<line x1="127.35" y1="627.46" x2="127.35" y2="650.00" stroke="#e74c3c" stroke-width="2"/>
<rect x="105.69" y="627.69" width="43.33" height="17.38" fill="#e74c3c" stroke="#e74c3c" stroke-width="1"/>
<text x="127.35" y="704" font-size="11" fill="#555555" text-anchor="middle">11-01</text>
<text x="127.35" y="720" font-size="11" fill="#555555" text-anchor="middle">18:00</text>
<line x1="202.06" y1="619.84" x2="202.06" y2="649.66" stroke="#2ecc71" stroke-width="2"/>
<rect x="180.39" y="621.07" width="43.33" height="23.99" fill="#2ecc71" stroke="#2ecc71" stroke-width="1"/>
<text x="202.06" y="704" font-size="11" fill="#555555" text-anchor="middle">11-01</text>
<text x="202.06" y="720" font-size="11" fill="#555555" text-anchor="middle">19:00</text>
<line x1="276.76" y1="603.25" x2="276.76" y2="648.77" stroke="#2ecc71" stroke-width="2"/>
<rect x="255.10" y="609.75" width="43.33" height="11.66" fill="#2ecc71" stroke="#2ecc71" stroke-width="1"/>
<text x="276.76" y="704" font-size="11" fill="#555555" text-anchor="middle">11-01</text>
<text x="276.76" y="720" font-size="11" fill="#555555" text-anchor="middle">20:00</text>
<line x1="351.47" y1="604.48" x2="351.47" y2="627.46" stroke="#e74c3c" stroke-width="2"/>
<rect x="329.81" y="609.75" width="43.33" height="3.03" fill="#e74c3c" stroke="#e74c3c" stroke-width="1"/>
<text x="351.47" y="704" font-size="11" fill="#555555" text-anchor="middle">11-01</text>
<text x="351.47" y="720" font-size="11" fill="#555555" text-anchor="middle">21:00</text>
<line x1="426.18" y1="573.98" x2="426.18" y2="612.55" stroke="#2ecc71" stroke-width="2"/>
<rect x="404.51" y="587.66" width="43.33" height="24.89" fill="#2ecc71" stroke="#2ecc71" stroke-width="1"/>
<text x="426.18" y="704" font-size="11" fill="#555555" text-anchor="middle">11-01</text>
<text x="426.18" y="720" font-size="11" fill="#555555" text-anchor="middle">22:00</text>
<line x1="500.88" y1="483.73" x2="500.88" y2="594.50" stroke="#2ecc71" stroke-width="2"/>
<rect x="479.22" y="503.79" width="43.33" height="83.75" fill="#2ecc71" stroke="#2ecc71" stroke-width="1"/>
<text x="500.88" y="704" font-size="11" fill="#555555" text-anchor="middle">11-01</text>
<text x="500.88" y="720" font-size="11" fill="#555555" text-anchor="middle">23:00</text>
<line x1="575.59" y1="469.60" x2="575.59" y2="521.85" stroke="#e74c3c" stroke-width="2"/>
<rect x="553.92" y="503.35" width="43.33" height="13.23" fill="#e74c3c" stroke="#e74c3c" stroke-width="1"/>
<text x="575.59" y="704" font-size="11" fill="#555555" text-anchor="middle">11-02</text>
<text x="575.59" y="720" font-size="11" fill="#555555" text-anchor="middle">00:00</text>
<line x1="650.29" y1="489.33" x2="650.29" y2="528.91" stroke="#2ecc71" stroke-width="2"/>
<rect x="628.63" y="495.95" width="43.33" height="20.41" fill="#2ecc71" stroke="#2ecc71" stroke-width="1"/>
<text x="650.29" y="704" font-size="11" fill="#555555" text-anchor="middle">11-02</text>
<text x="650.29" y="720" font-size="11" fill="#555555" text-anchor="middle">01:00</text>
<line x1="725.00" y1="70.00" x2="725.00" y2="501.10" stroke="#2ecc71" stroke-width="2"/>
<rect x="703.34" y="255.00" width="43.33" height="240.84" fill="#2ecc71" stroke="#2ecc71" stroke-width="1"/>
<text x="725.00" y="704" font-size="11" fill="#555555" text-anchor="middle">11-02</text>
<text x="725.00" y="720" font-size="11" fill="#555555" text-anchor="middle">02:00</text>
<line x1="799.71" y1="240.09" x2="799.71" y2="289.08" stroke="#e74c3c" stroke-width="2"/>
<rect x="778.04" y="255.78" width="43.33" height="12.56" fill="#e74c3c" stroke="#e74c3c" stroke-width="1"/>
<text x="799.71" y="704" font-size="11" fill="#555555" text-anchor="middle">11-02</text>
<text x="799.71" y="720" font-size="11" fill="#555555" text-anchor="middle">03:00</text>
<line x1="874.41" y1="185.15" x2="874.41" y2="290.77" stroke="#2ecc71" stroke-width="2"/>
<rect x="852.75" y="235.38" width="43.33" height="32.96" fill="#2ecc71" stroke="#2ecc71" stroke-width="1"/>
<text x="874.41" y="704" font-size="11" fill="#555555" text-anchor="middle">11-02</text>
<text x="874.41" y="720" font-size="11" fill="#555555" text-anchor="middle">04:00</text>
<line x1="949.12" y1="144.78" x2="949.12" y2="243.11" stroke="#2ecc71" stroke-width="2"/>
<rect x="927.45" y="229.32" width="43.33" height="5.72" fill="#2ecc71" stroke="#2ecc71" stroke-width="1"/>
<text x="949.12" y="704" font-size="11" fill="#555555" text-anchor="middle">11-02</text>
<text x="949.12" y="720" font-size="11" fill="#555555" text-anchor="middle">05:00</text>
<line x1="1023.82" y1="205.55" x2="1023.82" y2="277.65" stroke="#e74c3c" stroke-width="2"/>
<rect x="1002.16" y="229.55" width="43.33" height="15.25" fill="#e74c3c" stroke="#e74c3c" stroke-width="1"/>
<text x="1023.82" y="704" font-size="11" fill="#555555" text-anchor="middle">11-02</text>
<text x="1023.82" y="720" font-size="11" fill="#555555" text-anchor="middle">06:00</text>
<line x1="1098.53" y1="229.66" x2="1098.53" y2="264.64" stroke="#2ecc71" stroke-width="2"/>
<rect x="1076.86" y="242.11" width="43.33" height="1.91" fill="#2ecc71" stroke="#2ecc71" stroke-width="1"/>
<text x="1098.53" y="704" font-size="11" fill="#555555" text-anchor="middle">11-02</text>
<text x="1098.53" y="720" font-size="11" fill="#555555" text-anchor="middle">07:00</text>
<line x1="1173.24" y1="189.97" x2="1173.24" y2="261.50" stroke="#2ecc71" stroke-width="2"/>
<rect x="1151.57" y="222.82" width="43.33" height="19.73" fill="#2ecc71" stroke="#2ecc71" stroke-width="1"/>
<text x="1173.24" y="704" font-size="11" fill="#555555" text-anchor="middle">11-02</text>
<text x="1173.24" y="720" font-size="11" fill="#555555" text-anchor="middle">08:00</text>
<line x1="1247.94" y1="201.41" x2="1247.94" y2="260.49" stroke="#e74c3c" stroke-width="2"/>
<rect x="1226.28" y="222.26" width="43.33" height="28.93" fill="#e74c3c" stroke="#e74c3c" stroke-width="1"/>
<text x="1247.94" y="704" font-size="11" fill="#555555" text-anchor="middle">11-02</text>
<text x="1247.94" y="720" font-size="11" fill="#555555" text-anchor="middle">09:00</text>
<line x1="1322.65" y1="214.97" x2="1322.65" y2="275.97" stroke="#2ecc71" stroke-width="2"/>
<rect x="1300.98" y="232.35" width="43.33" height="18.84" fill="#2ecc71" stroke="#2ecc71" stroke-width="1"/>
<text x="1322.65" y="704" font-size="11" fill="#555555" text-anchor="middle">11-02</text>
<text x="1322.65" y="720" font-size="11" fill="#555555" text-anchor="middle">10:00</text>
<line x1="725.00" y1="70.00" x2="805.00" y2="90.00" stroke="#f1c40f" stroke-width="2"/>
<rect x="805.00" y="42.00" width="220" height="72" rx="8" fill="#fff8dc" stroke="#f1c40f"/>
<text x="815.00" y="66.00" font-size="12" fill="#111111">目标K线 2023-11-02 02:00</text>
<text x="815.00" y="84.00" font-size="12" fill="#111111">振幅 41.97%</text>
<text x="815.00" y="102.00" font-size="12" fill="#111111">倍数 10.67x</text>
<line x1="650.29" y1="489.33" x2="620.29" y2="449.33" stroke="#3498db" stroke-width="2"/>
<rect x="400.29" y="413.33" width="220" height="58" rx="8" fill="#eef6ff" stroke="#3498db"/>
<text x="410.29" y="435.33" font-size="12" fill="#111111">前一根涨幅 2.03%</text>
<text x="410.29" y="453.33" font-size="12" fill="#111111">前一根振幅 3.93%</text>
</svg>