<svg xmlns="http://www.w3.org/2000/svg" width="1400" height="760" viewBox="0 0 1400 760">
<rect width="100%" height="100%" fill="#fcfcfc"/>
<text x="90" y="36" font-size="26" font-weight="700" fill="#111111">TRB-USDT-SWAP 1H - 10倍命中</text>
<line x1="90" y1="70.00" x2="1360" y2="70.00" stroke="#d9d9d9" stroke-dasharray="4 4" stroke-width="1"/>
<text x="12" y="74.00" font-size="12" fill="#555555">28.294000</text>
<line x1="90" y1="186.00" x2="1360" y2="186.00" stroke="#d9d9d9" stroke-dasharray="4 4" stroke-width="1"/>
<text x="12" y="190.00" font-size="12" fill="#555555">25.731800</text>
<line x1="90" y1="302.00" x2="1360" y2="302.00" stroke="#d9d9d9" stroke-dasharray="4 4" stroke-width="1"/>
<text x="12" y="306.00" font-size="12" fill="#555555">23.169600</text>
<line x1="90" y1="418.00" x2="1360" y2="418.00" stroke="#d9d9d9" stroke-dasharray="4 4" stroke-width="1"/>
<text x="12" y="422.00" font-size="12" fill="#555555">20.607400</text>
<line x1="90" y1="534.00" x2="1360" y2="534.00" stroke="#d9d9d9" stroke-dasharray="4 4" stroke-width="1"/>
<text x="12" y="538.00" font-size="12" fill="#555555">18.045200</text>
<line x1="90" y1="650.00" x2="1360" y2="650.00" stroke="#d9d9d9" stroke-dasharray="4 4" stroke-width="1"/>
<text x="12" y="654.00" font-size="12" fill="#555555">15.483000</text>
<rect x="687.65" y="70" width="74.71" height="580.00" fill="#f1c40f" opacity="0.16"/>
<rect x="612.94" y="70" width="74.71" height="580.00" fill="#3498db" opacity="0.10"/>
<line x1="127.35" y1="115.91" x2="127.35" y2="149.32" stroke="#2ecc71" stroke-width="2"/>
<rect x="105.69" y="119.53" width="43.33" height="12.95" fill="#2ecc71" stroke="#2ecc71" stroke-width="1"/>
<text x="127.35" y="704" font-size="11" fill="#555555" text-anchor="middle">09-13</text>
<text x="127.35" y="720" font-size="11" fill="#555555" text-anchor="middle">07:00</text>
<line x1="202.06" y1="115.00" x2="202.06" y2="162.31" stroke="#e74c3c" stroke-width="2"/>
<rect x="180.39" y="118.99" width="43.33" height="33.55" fill="#e74c3c" stroke="#e74c3c" stroke-width="1"/>
<text x="202.06" y="704" font-size="11" fill="#555555" text-anchor="middle">09-13</text>
<text x="202.06" y="720" font-size="11" fill="#555555" text-anchor="middle">08:00</text>
<line x1="276.76" y1="126.55" x2="276.76" y2="152.76" stroke="#2ecc71" stroke-width="2"/>
<rect x="255.10" y="128.72" width="43.33" height="23.77" fill="#2ecc71" stroke="#2ecc71" stroke-width="1"/>
<text x="276.76" y="704" font-size="11" fill="#555555" text-anchor="middle">09-13</text>
<text x="276.76" y="720" font-size="11" fill="#555555" text-anchor="middle">09:00</text>
<line x1="351.47" y1="118.53" x2="351.47" y2="138.54" stroke="#2ecc71" stroke-width="2"/>
<rect x="329.81" y="127.68" width="43.33" height="1.20" fill="#2ecc71" stroke="#2ecc71" stroke-width="1"/>
<text x="351.47" y="704" font-size="11" fill="#555555" text-anchor="middle">09-13</text>
<text x="351.47" y="720" font-size="11" fill="#555555" text-anchor="middle">10:00</text>
<line x1="426.18" y1="115.05" x2="426.18" y2="135.38" stroke="#2ecc71" stroke-width="2"/>
<rect x="404.51" y="125.41" width="43.33" height="2.35" fill="#2ecc71" stroke="#2ecc71" stroke-width="1"/>
<text x="426.18" y="704" font-size="11" fill="#555555" text-anchor="middle">09-13</text>
<text x="426.18" y="720" font-size="11" fill="#555555" text-anchor="middle">11:00</text>
<line x1="500.88" y1="105.95" x2="500.88" y2="169.19" stroke="#e74c3c" stroke-width="2"/>
<rect x="479.22" y="125.41" width="43.33" height="36.17" fill="#e74c3c" stroke="#e74c3c" stroke-width="1"/>
<text x="500.88" y="704" font-size="11" fill="#555555" text-anchor="middle">09-13</text>
<text x="500.88" y="720" font-size="11" fill="#555555" text-anchor="middle">12:00</text>
<line x1="575.59" y1="153.08" x2="575.59" y2="309.68" stroke="#e74c3c" stroke-width="2"/>
<rect x="553.92" y="161.59" width="43.33" height="113.91" fill="#e74c3c" stroke="#e74c3c" stroke-width="1"/>
<text x="575.59" y="704" font-size="11" fill="#555555" text-anchor="middle">09-13</text>
<text x="575.59" y="720" font-size="11" fill="#555555" text-anchor="middle">13:00</text>
<line x1="650.29" y1="250.82" x2="650.29" y2="287.04" stroke="#2ecc71" stroke-width="2"/>
<rect x="628.63" y="258.56" width="43.33" height="16.84" fill="#2ecc71" stroke="#2ecc71" stroke-width="1"/>
<text x="650.29" y="704" font-size="11" fill="#555555" text-anchor="middle">09-13</text>
<text x="650.29" y="720" font-size="11" fill="#555555" text-anchor="middle">14:00</text>
<line x1="725.00" y1="205.78" x2="725.00" y2="650.00" stroke="#2ecc71" stroke-width="2"/>
<rect x="703.34" y="234.80" width="43.33" height="23.95" fill="#2ecc71" stroke="#2ecc71" stroke-width="1"/>
<text x="725.00" y="704" font-size="11" fill="#555555" text-anchor="middle">09-13</text>
<text x="725.00" y="720" font-size="11" fill="#555555" text-anchor="middle">15:00</text>
<line x1="799.71" y1="221.85" x2="799.71" y2="311.81" stroke="#e74c3c" stroke-width="2"/>
<rect x="778.04" y="234.89" width="43.33" height="53.51" fill="#e74c3c" stroke="#e74c3c" stroke-width="1"/>
<text x="799.71" y="704" font-size="11" fill="#555555" text-anchor="middle">09-13</text>
<text x="799.71" y="720" font-size="11" fill="#555555" text-anchor="middle">16:00</text>
<line x1="874.41" y1="238.46" x2="874.41" y2="289.31" stroke="#2ecc71" stroke-width="2"/>
<rect x="852.75" y="246.66" width="43.33" height="41.88" fill="#2ecc71" stroke="#2ecc71" stroke-width="1"/>
<text x="874.41" y="704" font-size="11" fill="#555555" text-anchor="middle">09-13</text>
<text x="874.41" y="720" font-size="11" fill="#555555" text-anchor="middle">17:00</text>
<line x1="949.12" y1="240.55" x2="949.12" y2="258.97" stroke="#2ecc71" stroke-width="2"/>
<rect x="927.45" y="243.67" width="43.33" height="3.03" fill="#2ecc71" stroke="#2ecc71" stroke-width="1"/>
<text x="949.12" y="704" font-size="11" fill="#555555" text-anchor="middle">09-13</text>
<text x="949.12" y="720" font-size="11" fill="#555555" text-anchor="middle">18:00</text>
<line x1="1023.82" y1="150.22" x2="1023.82" y2="248.20" stroke="#2ecc71" stroke-width="2"/>
<rect x="1002.16" y="174.27" width="43.33" height="69.45" fill="#2ecc71" stroke="#2ecc71" stroke-width="1"/>
<text x="1023.82" y="704" font-size="11" fill="#555555" text-anchor="middle">09-13</text>
<text x="1023.82" y="720" font-size="11" fill="#555555" text-anchor="middle">19:00</text>
<line x1="1098.53" y1="136.28" x2="1098.53" y2="198.26" stroke="#2ecc71" stroke-width="2"/>
<rect x="1076.86" y="150.00" width="43.33" height="24.31" fill="#2ecc71" stroke="#2ecc71" stroke-width="1"/>
<text x="1098.53" y="704" font-size="11" fill="#555555" text-anchor="middle">09-13</text>
<text x="1098.53" y="720" font-size="11" fill="#555555" text-anchor="middle">20:00</text>
<line x1="1173.24" y1="142.17" x2="1173.24" y2="176.12" stroke="#e74c3c" stroke-width="2"/>
<rect x="1151.57" y="150.00" width="43.33" height="5.25" fill="#e74c3c" stroke="#e74c3c" stroke-width="1"/>
<text x="1173.24" y="704" font-size="11" fill="#555555" text-anchor="middle">09-13</text>
<text x="1173.24" y="720" font-size="11" fill="#555555" text-anchor="middle">21:00</text>
<line x1="1247.94" y1="87.84" x2="1247.94" y2="163.22" stroke="#2ecc71" stroke-width="2"/>
<rect x="1226.28" y="114.87" width="43.33" height="40.38" fill="#2ecc71" stroke="#2ecc71" stroke-width="1"/>
<text x="1247.94" y="704" font-size="11" fill="#555555" text-anchor="middle">09-13</text>
<text x="1247.94" y="720" font-size="11" fill="#555555" text-anchor="middle">22:00</text>
<line x1="1322.65" y1="70.00" x2="1322.65" y2="124.06" stroke="#2ecc71" stroke-width="2"/>
<rect x="1300.98" y="87.97" width="43.33" height="27.12" fill="#2ecc71" stroke="#2ecc71" stroke-width="1"/>
<text x="1322.65" y="704" font-size="11" fill="#555555" text-anchor="middle">09-13</text>
<text x="1322.65" y="720" font-size="11" fill="#555555" text-anchor="middle">23:00</text>
<line x1="725.00" y1="205.78" x2="805.00" y2="135.78" stroke="#f1c40f" stroke-width="2"/>
<rect x="805.00" y="87.78" width="220" height="72" rx="8" fill="#fff8dc" stroke="#f1c40f"/>
<text x="815.00" y="111.78" font-size="12" fill="#111111">目标K线 2023-09-13 15:00</text>
<text x="815.00" y="129.78" font-size="12" fill="#111111">振幅 40.67%</text>
<text x="815.00" y="147.78" font-size="12" fill="#111111">倍数 12.08x</text>
<line x1="650.29" y1="250.82" x2="620.29" y2="210.82" stroke="#3498db" stroke-width="2"/>
<rect x="400.29" y="174.82" width="220" height="58" rx="8" fill="#eef6ff" stroke="#3498db"/>
<text x="410.29" y="196.82" font-size="12" fill="#111111">前一根涨幅 1.57%</text>
<text x="410.29" y="214.82" font-size="12" fill="#111111">前一根振幅 3.37%</text>
</svg>