<svg xmlns="http://www.w3.org/2000/svg" width="1400" height="760" viewBox="0 0 1400 760">
<rect width="100%" height="100%" fill="#fcfcfc"/>
<text x="90" y="36" font-size="26" font-weight="700" fill="#111111">VANA-USDT-SWAP 1H - 10倍命中</text>
<line x1="90" y1="70.00" x2="1360" y2="70.00" stroke="#d9d9d9" stroke-dasharray="4 4" stroke-width="1"/>
<text x="12" y="74.00" font-size="12" fill="#555555">1.926000</text>
<line x1="90" y1="186.00" x2="1360" y2="186.00" stroke="#d9d9d9" stroke-dasharray="4 4" stroke-width="1"/>
<text x="12" y="190.00" font-size="12" fill="#555555">1.827400</text>
<line x1="90" y1="302.00" x2="1360" y2="302.00" stroke="#d9d9d9" stroke-dasharray="4 4" stroke-width="1"/>
<text x="12" y="306.00" font-size="12" fill="#555555">1.728800</text>
<line x1="90" y1="418.00" x2="1360" y2="418.00" stroke="#d9d9d9" stroke-dasharray="4 4" stroke-width="1"/>
<text x="12" y="422.00" font-size="12" fill="#555555">1.630200</text>
<line x1="90" y1="534.00" x2="1360" y2="534.00" stroke="#d9d9d9" stroke-dasharray="4 4" stroke-width="1"/>
<text x="12" y="538.00" font-size="12" fill="#555555">1.531600</text>
<line x1="90" y1="650.00" x2="1360" y2="650.00" stroke="#d9d9d9" stroke-dasharray="4 4" stroke-width="1"/>
<text x="12" y="654.00" font-size="12" fill="#555555">1.433000</text>
<rect x="687.65" y="70" width="74.71" height="580.00" fill="#f1c40f" opacity="0.16"/>
<rect x="612.94" y="70" width="74.71" height="580.00" fill="#3498db" opacity="0.10"/>
<line x1="127.35" y1="561.76" x2="127.35" y2="570.00" stroke="#2ecc71" stroke-width="2"/>
<rect x="105.69" y="561.76" width="43.33" height="1.20" fill="#2ecc71" stroke="#2ecc71" stroke-width="1"/>
<text x="127.35" y="704" font-size="11" fill="#555555" text-anchor="middle">02-09</text>
<text x="127.35" y="720" font-size="11" fill="#555555" text-anchor="middle">13:00</text>
<line x1="202.06" y1="561.76" x2="202.06" y2="586.47" stroke="#e74c3c" stroke-width="2"/>
<rect x="180.39" y="561.76" width="43.33" height="12.94" fill="#e74c3c" stroke="#e74c3c" stroke-width="1"/>
<text x="202.06" y="704" font-size="11" fill="#555555" text-anchor="middle">02-09</text>
<text x="202.06" y="720" font-size="11" fill="#555555" text-anchor="middle">14:00</text>
<line x1="276.76" y1="572.35" x2="276.76" y2="591.18" stroke="#e74c3c" stroke-width="2"/>
<rect x="255.10" y="574.71" width="43.33" height="15.29" fill="#e74c3c" stroke="#e74c3c" stroke-width="1"/>
<text x="276.76" y="704" font-size="11" fill="#555555" text-anchor="middle">02-09</text>
<text x="276.76" y="720" font-size="11" fill="#555555" text-anchor="middle">15:00</text>
<line x1="351.47" y1="590.00" x2="351.47" y2="621.76" stroke="#e74c3c" stroke-width="2"/>
<rect x="329.81" y="590.00" width="43.33" height="22.35" fill="#e74c3c" stroke="#e74c3c" stroke-width="1"/>
<text x="351.47" y="704" font-size="11" fill="#555555" text-anchor="middle">02-09</text>
<text x="351.47" y="720" font-size="11" fill="#555555" text-anchor="middle">16:00</text>
<line x1="426.18" y1="610.00" x2="426.18" y2="624.12" stroke="#e74c3c" stroke-width="2"/>
<rect x="404.51" y="612.35" width="43.33" height="9.41" fill="#e74c3c" stroke="#e74c3c" stroke-width="1"/>
<text x="426.18" y="704" font-size="11" fill="#555555" text-anchor="middle">02-09</text>
<text x="426.18" y="720" font-size="11" fill="#555555" text-anchor="middle">17:00</text>
<line x1="500.88" y1="619.41" x2="500.88" y2="650.00" stroke="#e74c3c" stroke-width="2"/>
<rect x="479.22" y="621.76" width="43.33" height="22.35" fill="#e74c3c" stroke="#e74c3c" stroke-width="1"/>
<text x="500.88" y="704" font-size="11" fill="#555555" text-anchor="middle">02-09</text>
<text x="500.88" y="720" font-size="11" fill="#555555" text-anchor="middle">18:00</text>
<line x1="575.59" y1="633.53" x2="575.59" y2="642.94" stroke="#2ecc71" stroke-width="2"/>
<rect x="553.92" y="639.41" width="43.33" height="3.53" fill="#2ecc71" stroke="#2ecc71" stroke-width="1"/>
<text x="575.59" y="704" font-size="11" fill="#555555" text-anchor="middle">02-09</text>
<text x="575.59" y="720" font-size="11" fill="#555555" text-anchor="middle">19:00</text>
<line x1="650.29" y1="618.24" x2="650.29" y2="640.59" stroke="#2ecc71" stroke-width="2"/>
<rect x="628.63" y="622.94" width="43.33" height="17.65" fill="#2ecc71" stroke="#2ecc71" stroke-width="1"/>
<text x="650.29" y="704" font-size="11" fill="#555555" text-anchor="middle">02-09</text>
<text x="650.29" y="720" font-size="11" fill="#555555" text-anchor="middle">20:00</text>
<line x1="725.00" y1="112.35" x2="725.00" y2="622.94" stroke="#2ecc71" stroke-width="2"/>
<rect x="703.34" y="300.59" width="43.33" height="321.18" fill="#2ecc71" stroke="#2ecc71" stroke-width="1"/>
<text x="725.00" y="704" font-size="11" fill="#555555" text-anchor="middle">02-09</text>
<text x="725.00" y="720" font-size="11" fill="#555555" text-anchor="middle">21:00</text>
<line x1="799.71" y1="172.35" x2="799.71" y2="346.47" stroke="#2ecc71" stroke-width="2"/>
<rect x="778.04" y="247.65" width="43.33" height="55.29" fill="#2ecc71" stroke="#2ecc71" stroke-width="1"/>
<text x="799.71" y="704" font-size="11" fill="#555555" text-anchor="middle">02-09</text>
<text x="799.71" y="720" font-size="11" fill="#555555" text-anchor="middle">22:00</text>
<line x1="874.41" y1="70.00" x2="874.41" y2="310.00" stroke="#e74c3c" stroke-width="2"/>
<rect x="852.75" y="250.00" width="43.33" height="23.53" fill="#e74c3c" stroke="#e74c3c" stroke-width="1"/>
<text x="874.41" y="704" font-size="11" fill="#555555" text-anchor="middle">02-09</text>
<text x="874.41" y="720" font-size="11" fill="#555555" text-anchor="middle">23:00</text>
<line x1="949.12" y1="262.94" x2="949.12" y2="374.71" stroke="#e74c3c" stroke-width="2"/>
<rect x="927.45" y="274.71" width="43.33" height="68.24" fill="#e74c3c" stroke="#e74c3c" stroke-width="1"/>
<text x="949.12" y="704" font-size="11" fill="#555555" text-anchor="middle">02-10</text>
<text x="949.12" y="720" font-size="11" fill="#555555" text-anchor="middle">00:00</text>
<line x1="1023.82" y1="320.59" x2="1023.82" y2="379.41" stroke="#e74c3c" stroke-width="2"/>
<rect x="1002.16" y="341.76" width="43.33" height="10.59" fill="#e74c3c" stroke="#e74c3c" stroke-width="1"/>
<text x="1023.82" y="704" font-size="11" fill="#555555" text-anchor="middle">02-10</text>
<text x="1023.82" y="720" font-size="11" fill="#555555" text-anchor="middle">01:00</text>
<line x1="1098.53" y1="346.47" x2="1098.53" y2="442.94" stroke="#e74c3c" stroke-width="2"/>
<rect x="1076.86" y="353.53" width="43.33" height="56.47" fill="#e74c3c" stroke="#e74c3c" stroke-width="1"/>
<text x="1098.53" y="704" font-size="11" fill="#555555" text-anchor="middle">02-10</text>
<text x="1098.53" y="720" font-size="11" fill="#555555" text-anchor="middle">02:00</text>
<line x1="1173.24" y1="394.71" x2="1173.24" y2="420.59" stroke="#e74c3c" stroke-width="2"/>
<rect x="1151.57" y="411.18" width="43.33" height="2.35" fill="#e74c3c" stroke="#e74c3c" stroke-width="1"/>
<text x="1173.24" y="704" font-size="11" fill="#555555" text-anchor="middle">02-10</text>
<text x="1173.24" y="720" font-size="11" fill="#555555" text-anchor="middle">03:00</text>
<line x1="1247.94" y1="366.47" x2="1247.94" y2="414.71" stroke="#2ecc71" stroke-width="2"/>
<rect x="1226.28" y="370.00" width="43.33" height="43.53" fill="#2ecc71" stroke="#2ecc71" stroke-width="1"/>
<text x="1247.94" y="704" font-size="11" fill="#555555" text-anchor="middle">02-10</text>
<text x="1247.94" y="720" font-size="11" fill="#555555" text-anchor="middle">04:00</text>
<line x1="1322.65" y1="366.47" x2="1322.65" y2="412.35" stroke="#e74c3c" stroke-width="2"/>
<rect x="1300.98" y="370.00" width="43.33" height="22.35" fill="#e74c3c" stroke="#e74c3c" stroke-width="1"/>
<text x="1322.65" y="704" font-size="11" fill="#555555" text-anchor="middle">02-10</text>
<text x="1322.65" y="720" font-size="11" fill="#555555" text-anchor="middle">05:00</text>
<line x1="725.00" y1="112.35" x2="805.00" y2="90.00" stroke="#f1c40f" stroke-width="2"/>
<rect x="805.00" y="42.00" width="220" height="72" rx="8" fill="#fff8dc" stroke="#f1c40f"/>
<text x="815.00" y="66.00" font-size="12" fill="#111111">目标K线 2026-02-09 21:00</text>
<text x="815.00" y="84.00" font-size="12" fill="#111111">振幅 29.79%</text>
<text x="815.00" y="102.00" font-size="12" fill="#111111">倍数 22.59x</text>
<line x1="650.29" y1="618.24" x2="620.29" y2="578.24" stroke="#3498db" stroke-width="2"/>
<rect x="400.29" y="542.24" width="220" height="58" rx="8" fill="#eef6ff" stroke="#3498db"/>
<text x="410.29" y="564.24" font-size="12" fill="#111111">前一根涨幅 1.04%</text>
<text x="410.29" y="582.24" font-size="12" fill="#111111">前一根振幅 1.32%</text>
</svg>