<svg xmlns="http://www.w3.org/2000/svg" width="1800" height="1650" viewBox="0 0 1800 1650">
<rect width="100%" height="100%" fill="#f7f8fa"/>
<text x="48" y="58" font-size="34" font-weight="700" fill="#111111">BTC 涨跌 vs 十倍后一根最低点</text>
<text x="48" y="94" font-size="18" fill="#555555">统计 Gate 10倍命中中，BTC 当小时涨跌与后一根最低点是否跌破10倍价的关系</text>
<rect x="48" y="130" width="260" height="110" rx="18" fill="#ffffff" stroke="#ebedf0"/>
<text x="68" y="172" font-size="18" fill="#666666">10倍命中总数</text>
<text x="68" y="214" font-size="32" font-weight="700" fill="#8e44ad">113</text>
<rect x="328" y="130" width="260" height="110" rx="18" fill="#ffffff" stroke="#ebedf0"/>
<text x="348" y="172" font-size="18" fill="#666666">BTC上涨样本</text>
<text x="348" y="214" font-size="32" font-weight="700" fill="#27ae60">59</text>
<rect x="608" y="130" width="260" height="110" rx="18" fill="#ffffff" stroke="#ebedf0"/>
<text x="628" y="172" font-size="18" fill="#666666">BTC下跌样本</text>
<text x="628" y="214" font-size="32" font-weight="700" fill="#e74c3c">54</text>
<rect x="888" y="130" width="260" height="110" rx="18" fill="#ffffff" stroke="#ebedf0"/>
<text x="908" y="172" font-size="18" fill="#666666">BTC平盘样本</text>
<text x="908" y="214" font-size="32" font-weight="700" fill="#7f8c8d">0</text>
<rect x="1168" y="130" width="260" height="110" rx="18" fill="#ffffff" stroke="#ebedf0"/>
<text x="1188" y="172" font-size="18" fill="#666666">后一根最低点&lt;10倍价</text>
<text x="1188" y="214" font-size="32" font-weight="700" fill="#c0392b">93</text>
<rect x="1448" y="130" width="260" height="110" rx="18" fill="#ffffff" stroke="#ebedf0"/>
<text x="1468" y="172" font-size="18" fill="#666666">后一根最低点&gt;=10倍价</text>
<text x="1468" y="214" font-size="32" font-weight="700" fill="#2980b9">20</text>
<rect x="48" y="290" width="1704" height="520" rx="20" fill="#ffffff" stroke="#ebedf0"/>
<text x="72" y="326" font-size="26" font-weight="700" fill="#111111">关键占比</text>
<text x="72" y="356" font-size="16" fill="#666666">这里把你关心的三类情况直接单独拎出来统计</text>
<rect x="72" y="400" width="540" height="180" rx="16" fill="#fafbfc" stroke="#edf0f2"/>
<text x="90" y="442" font-size="20" fill="#666666">BTC上涨时，后一根最低点跌破10倍价</text>
<text x="90" y="492" font-size="34" font-weight="700" fill="#27ae60">84.75%</text>
<text x="90" y="532" font-size="18" fill="#555555">50/59</text>
<rect x="636" y="400" width="540" height="180" rx="16" fill="#fafbfc" stroke="#edf0f2"/>
<text x="654" y="442" font-size="20" fill="#666666">BTC下跌时，后一根最低点跌破10倍价</text>
<text x="654" y="492" font-size="34" font-weight="700" fill="#e74c3c">79.63%</text>
<text x="654" y="532" font-size="18" fill="#555555">43/54</text>
<rect x="1200" y="400" width="540" height="180" rx="16" fill="#fafbfc" stroke="#edf0f2"/>
<text x="1218" y="442" font-size="20" fill="#666666">后一根最低点仍在10倍价以上</text>
<text x="1218" y="492" font-size="34" font-weight="700" fill="#2980b9">17.70%</text>
<text x="1218" y="532" font-size="18" fill="#555555">20/113</text>
<rect x="48" y="850" width="1704" height="700" rx="20" fill="#ffffff" stroke="#ebedf0"/>
<text x="72" y="886" font-size="26" font-weight="700" fill="#111111">BTC方向分布与跌破情况</text>
<text x="72" y="916" font-size="16" fill="#666666">看 BTC 上涨、下跌、平盘 时，各自有多少事件导致后一根最低点跌破10倍价</text>
<text x="72" y="986" font-size="22" font-weight="700" fill="#111111">BTC上涨</text>
<rect x="308" y="970" width="700" height="24" rx="12" fill="#eef1f5"/>
<rect x="308" y="970" width="700.00" height="24" rx="12" fill="#27ae60" opacity="0.35"/>
<rect x="308" y="970" width="593.22" height="24" rx="12" fill="#27ae60"/>
<text x="1026" y="990" font-size="18" fill="#333333">跌破 50/59 | 84.75%</text>
<text x="72" y="1126" font-size="22" font-weight="700" fill="#111111">BTC下跌</text>
<rect x="308" y="1110" width="700" height="24" rx="12" fill="#eef1f5"/>
<rect x="308" y="1110" width="640.68" height="24" rx="12" fill="#e74c3c" opacity="0.35"/>
<rect x="308" y="1110" width="510.17" height="24" rx="12" fill="#e74c3c"/>
<text x="1026" y="1130" font-size="18" fill="#333333">跌破 43/54 | 79.63%</text>
<text x="72" y="1266" font-size="22" font-weight="700" fill="#111111">BTC平盘</text>
<rect x="308" y="1250" width="700" height="24" rx="12" fill="#eef1f5"/>
<rect x="308" y="1250" width="0.00" height="24" rx="12" fill="#7f8c8d" opacity="0.35"/>
<rect x="308" y="1250" width="0.00" height="24" rx="12" fill="#7f8c8d"/>
<text x="1026" y="1270" font-size="18" fill="#333333">跌破 0/0 | 0.00%</text>
</svg>