<svg xmlns="http://www.w3.org/2000/svg" width="1500" height="740" viewBox="0 0 1500 740">
<rect width="100%" height="100%" fill="#fcfcfc"/>
<text x="48" y="58" font-size="30" font-weight="700" fill="#111111">第二根最高价相对10倍价 Top 10</text>
<text x="48" y="96" font-size="18" fill="#555555">统计10倍命中后第二根K线最高价，相对10倍价是上涨还是回落</text>
<line x1="860.00" y1="110" x2="860.00" y2="710" stroke="#999999" stroke-dasharray="4 4"/>
<text x="320" y="152" font-size="17" fill="#111111" text-anchor="end">BROCCOLI_USDT 2026-01-01 03:00:00</text>
<rect x="340" y="130" width="1040.00" height="30" rx="8" fill="#efefef"/>
<rect x="860.00" y="130" width="490.00" height="30" rx="8" fill="#27ae60"/>
<text x="1360.00" y="152" font-size="16" fill="#333333">4.008x (300.82%)</text>
<text x="320" y="204" font-size="17" fill="#111111" text-anchor="end">TUT_USDT 2025-03-28 01:00:00</text>
<rect x="340" y="182" width="1040.00" height="30" rx="8" fill="#efefef"/>
<rect x="860.00" y="182" width="223.84" height="30" rx="8" fill="#27ae60"/>
<text x="1093.84" y="204" font-size="16" fill="#333333">2.374x (137.42%)</text>
<text x="320" y="256" font-size="17" fill="#111111" text-anchor="end">XNY_USDT 2025-12-05 01:00:00</text>
<rect x="340" y="234" width="1040.00" height="30" rx="8" fill="#efefef"/>
<rect x="860.00" y="234" width="165.93" height="30" rx="8" fill="#27ae60"/>
<text x="1035.93" y="256" font-size="16" fill="#333333">2.019x (101.87%)</text>
<text x="320" y="308" font-size="17" fill="#111111" text-anchor="end">FLUX_USDT 2025-11-08 00:00:00</text>
<rect x="340" y="286" width="1040.00" height="30" rx="8" fill="#efefef"/>
<rect x="860.00" y="286" width="148.68" height="30" rx="8" fill="#27ae60"/>
<text x="1018.68" y="308" font-size="16" fill="#333333">1.913x (91.28%)</text>
<text x="320" y="360" font-size="17" fill="#111111" text-anchor="end">老子_USDT 2026-03-22 06:00:00</text>
<rect x="340" y="338" width="1040.00" height="30" rx="8" fill="#efefef"/>
<rect x="860.00" y="338" width="131.01" height="30" rx="8" fill="#27ae60"/>
<text x="1001.01" y="360" font-size="16" fill="#333333">1.804x (80.43%)</text>
<text x="320" y="412" font-size="17" fill="#111111" text-anchor="end">FF_USDT 2026-04-11 02:00:00</text>
<rect x="340" y="390" width="1040.00" height="30" rx="8" fill="#efefef"/>
<rect x="860.00" y="390" width="112.77" height="30" rx="8" fill="#27ae60"/>
<text x="982.77" y="412" font-size="16" fill="#333333">1.692x (69.23%)</text>
<text x="320" y="464" font-size="17" fill="#111111" text-anchor="end">VINE_USDT 2025-07-24 20:00:00</text>
<rect x="340" y="442" width="1040.00" height="30" rx="8" fill="#efefef"/>
<rect x="860.00" y="442" width="103.08" height="30" rx="8" fill="#27ae60"/>
<text x="973.08" y="464" font-size="16" fill="#333333">1.633x (63.28%)</text>
<text x="320" y="516" font-size="17" fill="#111111" text-anchor="end">TOWNS_USDT 2025-11-10 00:00:00</text>
<rect x="340" y="494" width="1040.00" height="30" rx="8" fill="#efefef"/>
<rect x="860.00" y="494" width="88.79" height="30" rx="8" fill="#27ae60"/>
<text x="958.79" y="516" font-size="16" fill="#333333">1.545x (54.51%)</text>
<text x="320" y="568" font-size="17" fill="#111111" text-anchor="end">ALT_USDT 2025-06-16 17:00:00</text>
<rect x="340" y="546" width="1040.00" height="30" rx="8" fill="#efefef"/>
<rect x="860.00" y="546" width="71.08" height="30" rx="8" fill="#27ae60"/>
<text x="941.08" y="568" font-size="16" fill="#333333">1.436x (43.64%)</text>
<text x="320" y="620" font-size="17" fill="#111111" text-anchor="end">BROCCOLI_USDT 2025-03-20 00:00:00</text>
<rect x="340" y="598" width="1040.00" height="30" rx="8" fill="#efefef"/>
<rect x="860.00" y="598" width="64.32" height="30" rx="8" fill="#27ae60"/>
<text x="934.32" y="620" font-size="16" fill="#333333">1.395x (39.49%)</text>
</svg>