<svg xmlns="http://www.w3.org/2000/svg" width="1600" height="4002" viewBox="0 0 1600 4002">
<rect width="100%" height="100%" fill="#fcfcfc"/>
<text x="48" y="58" font-size="30" font-weight="700" fill="#111111">10倍命中成交量倍数对比</text>
<text x="48" y="96" font-size="18" fill="#555555">展示所有10倍命中事件的成交量倍数，从高到低排序</text>
<text x="362" y="145" font-size="14" fill="#111111" text-anchor="end">SLP_USDT 2026-04-09 01:00:00</text>
<rect x="380" y="130" width="1100.00" height="18" rx="6" fill="#efefef"/>
<rect x="380" y="130" width="1100.00" height="18" rx="6" fill="#8e44ad"/>
<text x="1490.00" y="145" font-size="13" fill="#333333">9969.81x</text>
<text x="362" y="175" font-size="14" fill="#111111" text-anchor="end">ALT_USDT 2025-06-16 17:00:00</text>
<rect x="380" y="160" width="1100.00" height="18" rx="6" fill="#efefef"/>
<rect x="380" y="160" width="277.30" height="18" rx="6" fill="#8e44ad"/>
<text x="667.30" y="175" font-size="13" fill="#333333">2513.27x</text>
<text x="362" y="205" font-size="14" fill="#111111" text-anchor="end">TOWNS_USDT 2025-11-10 00:00:00</text>
<rect x="380" y="190" width="1100.00" height="18" rx="6" fill="#efefef"/>
<rect x="380" y="190" width="73.68" height="18" rx="6" fill="#8e44ad"/>
<text x="463.68" y="205" font-size="13" fill="#333333">667.81x</text>
<text x="362" y="235" font-size="14" fill="#111111" text-anchor="end">USTC_USDT 2026-04-04 04:00:00</text>
<rect x="380" y="220" width="1100.00" height="18" rx="6" fill="#efefef"/>
<rect x="380" y="220" width="43.87" height="18" rx="6" fill="#8e44ad"/>
<text x="433.87" y="235" font-size="13" fill="#333333">397.65x</text>
<text x="362" y="265" font-size="14" fill="#111111" text-anchor="end">SAFE_USDT 2025-07-14 08:00:00</text>
<rect x="380" y="250" width="1100.00" height="18" rx="6" fill="#efefef"/>
<rect x="380" y="250" width="35.97" height="18" rx="6" fill="#8e44ad"/>
<text x="425.97" y="265" font-size="13" fill="#333333">326.02x</text>
<text x="362" y="295" font-size="14" fill="#111111" text-anchor="end">COW_USDT 2026-02-14 19:00:00</text>
<rect x="380" y="280" width="1100.00" height="18" rx="6" fill="#efefef"/>
<rect x="380" y="280" width="31.78" height="18" rx="6" fill="#8e44ad"/>
<text x="421.78" y="295" font-size="13" fill="#333333">288.01x</text>
<text x="362" y="325" font-size="14" fill="#111111" text-anchor="end">D_USDT 2026-01-20 21:00:00</text>
<rect x="380" y="310" width="1100.00" height="18" rx="6" fill="#efefef"/>
<rect x="380" y="310" width="29.25" height="18" rx="6" fill="#8e44ad"/>
<text x="419.25" y="325" font-size="13" fill="#333333">265.10x</text>
<text x="362" y="355" font-size="14" fill="#111111" text-anchor="end">KERNEL_USDT 2025-10-28 15:00:00</text>
<rect x="380" y="340" width="1100.00" height="18" rx="6" fill="#efefef"/>
<rect x="380" y="340" width="26.31" height="18" rx="6" fill="#8e44ad"/>
<text x="416.31" y="355" font-size="13" fill="#333333">238.50x</text>
<text x="362" y="385" font-size="14" fill="#111111" text-anchor="end">BULLA_USDT 2026-04-05 22:00:00</text>
<rect x="380" y="370" width="1100.00" height="18" rx="6" fill="#efefef"/>
<rect x="380" y="370" width="24.72" height="18" rx="6" fill="#8e44ad"/>
<text x="414.72" y="385" font-size="13" fill="#333333">224.05x</text>
<text x="362" y="415" font-size="14" fill="#111111" text-anchor="end">AWE_USDT 2025-11-23 16:00:00</text>
<rect x="380" y="400" width="1100.00" height="18" rx="6" fill="#efefef"/>
<rect x="380" y="400" width="22.30" height="18" rx="6" fill="#8e44ad"/>
<text x="412.30" y="415" font-size="13" fill="#333333">202.08x</text>
<text x="362" y="445" font-size="14" fill="#111111" text-anchor="end">LISTA_USDT 2026-03-15 20:00:00</text>
<rect x="380" y="430" width="1100.00" height="18" rx="6" fill="#efefef"/>
<rect x="380" y="430" width="21.49" height="18" rx="6" fill="#8e44ad"/>
<text x="411.49" y="445" font-size="13" fill="#333333">194.80x</text>
<text x="362" y="475" font-size="14" fill="#111111" text-anchor="end">SOLV_USDT 2026-03-11 23:00:00</text>
<rect x="380" y="460" width="1100.00" height="18" rx="6" fill="#efefef"/>
<rect x="380" y="460" width="16.39" height="18" rx="6" fill="#8e44ad"/>
<text x="406.39" y="475" font-size="13" fill="#333333">148.54x</text>
<text x="362" y="505" font-size="14" fill="#111111" text-anchor="end">TRADOOR_USDT 2025-11-15 21:00:00</text>
<rect x="380" y="490" width="1100.00" height="18" rx="6" fill="#efefef"/>
<rect x="380" y="490" width="15.58" height="18" rx="6" fill="#8e44ad"/>
<text x="405.58" y="505" font-size="13" fill="#333333">141.17x</text>
<text x="362" y="535" font-size="14" fill="#111111" text-anchor="end">ALICE_USDT 2025-04-14 23:00:00</text>
<rect x="380" y="520" width="1100.00" height="18" rx="6" fill="#efefef"/>
<rect x="380" y="520" width="13.41" height="18" rx="6" fill="#8e44ad"/>
<text x="403.41" y="535" font-size="13" fill="#333333">121.53x</text>
<text x="362" y="565" font-size="14" fill="#111111" text-anchor="end">VINE_USDT 2025-07-24 20:00:00</text>
<rect x="380" y="550" width="1100.00" height="18" rx="6" fill="#efefef"/>
<rect x="380" y="550" width="12.79" height="18" rx="6" fill="#8e44ad"/>
<text x="402.79" y="565" font-size="13" fill="#333333">115.93x</text>
<text x="362" y="595" font-size="14" fill="#111111" text-anchor="end">CTSI_USDT 2025-11-20 20:00:00</text>
<rect x="380" y="580" width="1100.00" height="18" rx="6" fill="#efefef"/>
<rect x="380" y="580" width="11.60" height="18" rx="6" fill="#8e44ad"/>
<text x="401.60" y="595" font-size="13" fill="#333333">105.09x</text>
<text x="362" y="625" font-size="14" fill="#111111" text-anchor="end">G_USDT 2026-01-25 08:00:00</text>
<rect x="380" y="610" width="1100.00" height="18" rx="6" fill="#efefef"/>
<rect x="380" y="610" width="11.59" height="18" rx="6" fill="#8e44ad"/>
<text x="401.59" y="625" font-size="13" fill="#333333">105.08x</text>
<text x="362" y="655" font-size="14" fill="#111111" text-anchor="end">RARE_USDT 2026-04-18 05:00:00</text>
<rect x="380" y="640" width="1100.00" height="18" rx="6" fill="#efefef"/>
<rect x="380" y="640" width="10.69" height="18" rx="6" fill="#8e44ad"/>
<text x="400.69" y="655" font-size="13" fill="#333333">96.92x</text>
<text x="362" y="685" font-size="14" fill="#111111" text-anchor="end">PHA_USDT 2026-03-20 10:00:00</text>
<rect x="380" y="670" width="1100.00" height="18" rx="6" fill="#efefef"/>
<rect x="380" y="670" width="10.47" height="18" rx="6" fill="#8e44ad"/>
<text x="400.47" y="685" font-size="13" fill="#333333">94.92x</text>
<text x="362" y="715" font-size="14" fill="#111111" text-anchor="end">FIO_USDT 2025-04-25 10:00:00</text>
<rect x="380" y="700" width="1100.00" height="18" rx="6" fill="#efefef"/>
<rect x="380" y="700" width="8.54" height="18" rx="6" fill="#8e44ad"/>
<text x="398.54" y="715" font-size="13" fill="#333333">77.38x</text>
<text x="362" y="745" font-size="14" fill="#111111" text-anchor="end">KOMA_USDT 2025-10-18 13:00:00</text>
<rect x="380" y="730" width="1100.00" height="18" rx="6" fill="#efefef"/>
<rect x="380" y="730" width="8.46" height="18" rx="6" fill="#8e44ad"/>
<text x="398.46" y="745" font-size="13" fill="#333333">76.65x</text>
<text x="362" y="775" font-size="14" fill="#111111" text-anchor="end">ID_USDT 2025-08-28 22:00:00</text>
<rect x="380" y="760" width="1100.00" height="18" rx="6" fill="#efefef"/>
<rect x="380" y="760" width="8.17" height="18" rx="6" fill="#8e44ad"/>
<text x="398.17" y="775" font-size="13" fill="#333333">74.06x</text>
<text x="362" y="805" font-size="14" fill="#111111" text-anchor="end">PROMPT_USDT 2025-12-13 06:00:00</text>
<rect x="380" y="790" width="1100.00" height="18" rx="6" fill="#efefef"/>
<rect x="380" y="790" width="7.98" height="18" rx="6" fill="#8e44ad"/>
<text x="397.98" y="805" font-size="13" fill="#333333">72.37x</text>
<text x="362" y="835" font-size="14" fill="#111111" text-anchor="end">PRL_USDT 2026-04-01 17:00:00</text>
<rect x="380" y="820" width="1100.00" height="18" rx="6" fill="#efefef"/>
<rect x="380" y="820" width="7.89" height="18" rx="6" fill="#8e44ad"/>
<text x="397.89" y="835" font-size="13" fill="#333333">71.52x</text>
<text x="362" y="865" font-size="14" fill="#111111" text-anchor="end">TNSR_USDT 2025-12-13 15:00:00</text>
<rect x="380" y="850" width="1100.00" height="18" rx="6" fill="#efefef"/>
<rect x="380" y="850" width="7.51" height="18" rx="6" fill="#8e44ad"/>
<text x="397.51" y="865" font-size="13" fill="#333333">68.08x</text>
<text x="362" y="895" font-size="14" fill="#111111" text-anchor="end">RARE_USDT 2025-04-27 18:00:00</text>
<rect x="380" y="880" width="1100.00" height="18" rx="6" fill="#efefef"/>
<rect x="380" y="880" width="7.47" height="18" rx="6" fill="#8e44ad"/>
<text x="397.47" y="895" font-size="13" fill="#333333">67.73x</text>
<text x="362" y="925" font-size="14" fill="#111111" text-anchor="end">BMT_USDT 2025-03-17 12:00:00</text>
<rect x="380" y="910" width="1100.00" height="18" rx="6" fill="#efefef"/>
<rect x="380" y="910" width="7.45" height="18" rx="6" fill="#8e44ad"/>
<text x="397.45" y="925" font-size="13" fill="#333333">67.51x</text>
<text x="362" y="955" font-size="14" fill="#111111" text-anchor="end">AIOT_USDT 2025-06-04 17:00:00</text>
<rect x="380" y="940" width="1100.00" height="18" rx="6" fill="#efefef"/>
<rect x="380" y="940" width="7.33" height="18" rx="6" fill="#8e44ad"/>
<text x="397.33" y="955" font-size="13" fill="#333333">66.46x</text>
<text x="362" y="985" font-size="14" fill="#111111" text-anchor="end">FLUID_USDT 2025-11-22 08:00:00</text>
<rect x="380" y="970" width="1100.00" height="18" rx="6" fill="#efefef"/>
<rect x="380" y="970" width="7.28" height="18" rx="6" fill="#8e44ad"/>
<text x="397.28" y="985" font-size="13" fill="#333333">65.97x</text>
<text x="362" y="1015" font-size="14" fill="#111111" text-anchor="end">TREE_USDT 2026-04-14 15:00:00</text>
<rect x="380" y="1000" width="1100.00" height="18" rx="6" fill="#efefef"/>
<rect x="380" y="1000" width="7.12" height="18" rx="6" fill="#8e44ad"/>
<text x="397.12" y="1015" font-size="13" fill="#333333">64.51x</text>
<text x="362" y="1045" font-size="14" fill="#111111" text-anchor="end">TSTBSC_USDT 2025-09-10 18:00:00</text>
<rect x="380" y="1030" width="1100.00" height="18" rx="6" fill="#efefef"/>
<rect x="380" y="1030" width="6.86" height="18" rx="6" fill="#8e44ad"/>
<text x="396.86" y="1045" font-size="13" fill="#333333">62.18x</text>
<text x="362" y="1075" font-size="14" fill="#111111" text-anchor="end">CKB_USDT 2025-03-19 17:00:00</text>
<rect x="380" y="1060" width="1100.00" height="18" rx="6" fill="#efefef"/>
<rect x="380" y="1060" width="6.76" height="18" rx="6" fill="#8e44ad"/>
<text x="396.76" y="1075" font-size="13" fill="#333333">61.29x</text>
<text x="362" y="1105" font-size="14" fill="#111111" text-anchor="end">PLAY_USDT 2026-01-28 18:00:00</text>
<rect x="380" y="1090" width="1100.00" height="18" rx="6" fill="#efefef"/>
<rect x="380" y="1090" width="5.93" height="18" rx="6" fill="#8e44ad"/>
<text x="395.93" y="1105" font-size="13" fill="#333333">53.75x</text>
<text x="362" y="1135" font-size="14" fill="#111111" text-anchor="end">FLUID_USDT 2026-01-25 08:00:00</text>
<rect x="380" y="1120" width="1100.00" height="18" rx="6" fill="#efefef"/>
<rect x="380" y="1120" width="5.70" height="18" rx="6" fill="#8e44ad"/>
<text x="395.70" y="1135" font-size="13" fill="#333333">51.66x</text>
<text x="362" y="1165" font-size="14" fill="#111111" text-anchor="end">SUPER_USDT 2025-11-13 09:00:00</text>
<rect x="380" y="1150" width="1100.00" height="18" rx="6" fill="#efefef"/>
<rect x="380" y="1150" width="5.58" height="18" rx="6" fill="#8e44ad"/>
<text x="395.58" y="1165" font-size="13" fill="#333333">50.58x</text>
<text x="362" y="1195" font-size="14" fill="#111111" text-anchor="end">FLUX_USDT 2025-11-08 00:00:00</text>
<rect x="380" y="1180" width="1100.00" height="18" rx="6" fill="#efefef"/>
<rect x="380" y="1180" width="5.31" height="18" rx="6" fill="#8e44ad"/>
<text x="395.31" y="1195" font-size="13" fill="#333333">48.09x</text>
<text x="362" y="1225" font-size="14" fill="#111111" text-anchor="end">IN_USDT 2025-10-10 14:00:00</text>
<rect x="380" y="1210" width="1100.00" height="18" rx="6" fill="#efefef"/>
<rect x="380" y="1210" width="4.98" height="18" rx="6" fill="#8e44ad"/>
<text x="394.98" y="1225" font-size="13" fill="#333333">45.16x</text>
<text x="362" y="1255" font-size="14" fill="#111111" text-anchor="end">HAEDAL_USDT 2025-05-21 18:00:00</text>
<rect x="380" y="1240" width="1100.00" height="18" rx="6" fill="#efefef"/>
<rect x="380" y="1240" width="4.88" height="18" rx="6" fill="#8e44ad"/>
<text x="394.88" y="1255" font-size="13" fill="#333333">44.21x</text>
<text x="362" y="1285" font-size="14" fill="#111111" text-anchor="end">BANANA_USDT 2025-03-12 02:00:00</text>
<rect x="380" y="1270" width="1100.00" height="18" rx="6" fill="#efefef"/>
<rect x="380" y="1270" width="4.83" height="18" rx="6" fill="#8e44ad"/>
<text x="394.83" y="1285" font-size="13" fill="#333333">43.79x</text>
<text x="362" y="1315" font-size="14" fill="#111111" text-anchor="end">MOCA_USDT 2025-07-13 08:00:00</text>
<rect x="380" y="1300" width="1100.00" height="18" rx="6" fill="#efefef"/>
<rect x="380" y="1300" width="4.81" height="18" rx="6" fill="#8e44ad"/>
<text x="394.81" y="1315" font-size="13" fill="#333333">43.59x</text>
<text x="362" y="1345" font-size="14" fill="#111111" text-anchor="end">TOSHI_USDT 2025-11-23 10:00:00</text>
<rect x="380" y="1330" width="1100.00" height="18" rx="6" fill="#efefef"/>
<rect x="380" y="1330" width="4.74" height="18" rx="6" fill="#8e44ad"/>
<text x="394.74" y="1345" font-size="13" fill="#333333">42.98x</text>
<text x="362" y="1375" font-size="14" fill="#111111" text-anchor="end">C_USDT 2026-03-15 01:00:00</text>
<rect x="380" y="1360" width="1100.00" height="18" rx="6" fill="#efefef"/>
<rect x="380" y="1360" width="4.67" height="18" rx="6" fill="#8e44ad"/>
<text x="394.67" y="1375" font-size="13" fill="#333333">42.31x</text>
<text x="362" y="1405" font-size="14" fill="#111111" text-anchor="end">CHILLGUY_USDT 2026-04-13 20:00:00</text>
<rect x="380" y="1390" width="1100.00" height="18" rx="6" fill="#efefef"/>
<rect x="380" y="1390" width="4.60" height="18" rx="6" fill="#8e44ad"/>
<text x="394.60" y="1405" font-size="13" fill="#333333">41.70x</text>
<text x="362" y="1435" font-size="14" fill="#111111" text-anchor="end">MAV_USDT 2026-03-16 02:00:00</text>
<rect x="380" y="1420" width="1100.00" height="18" rx="6" fill="#efefef"/>
<rect x="380" y="1420" width="4.47" height="18" rx="6" fill="#8e44ad"/>
<text x="394.47" y="1435" font-size="13" fill="#333333">40.49x</text>
<text x="362" y="1465" font-size="14" fill="#111111" text-anchor="end">FF_USDT 2026-04-11 02:00:00</text>
<rect x="380" y="1450" width="1100.00" height="18" rx="6" fill="#efefef"/>
<rect x="380" y="1450" width="4.42" height="18" rx="6" fill="#8e44ad"/>
<text x="394.42" y="1465" font-size="13" fill="#333333">40.08x</text>
<text x="362" y="1495" font-size="14" fill="#111111" text-anchor="end">ORCA_USDT 2025-12-16 11:00:00</text>
<rect x="380" y="1480" width="1100.00" height="18" rx="6" fill="#efefef"/>
<rect x="380" y="1480" width="4.33" height="18" rx="6" fill="#8e44ad"/>
<text x="394.33" y="1495" font-size="13" fill="#333333">39.24x</text>
<text x="362" y="1525" font-size="14" fill="#111111" text-anchor="end">老子_USDT 2026-03-22 06:00:00</text>
<rect x="380" y="1510" width="1100.00" height="18" rx="6" fill="#efefef"/>
<rect x="380" y="1510" width="4.15" height="18" rx="6" fill="#8e44ad"/>
<text x="394.15" y="1525" font-size="13" fill="#333333">37.57x</text>
<text x="362" y="1555" font-size="14" fill="#111111" text-anchor="end">BROCCOLI_USDT 2026-01-01 03:00:00</text>
<rect x="380" y="1540" width="1100.00" height="18" rx="6" fill="#efefef"/>
<rect x="380" y="1540" width="3.92" height="18" rx="6" fill="#8e44ad"/>
<text x="393.92" y="1555" font-size="13" fill="#333333">35.54x</text>
<text x="362" y="1585" font-size="14" fill="#111111" text-anchor="end">RDNT_USDT 2025-12-08 19:00:00</text>
<rect x="380" y="1570" width="1100.00" height="18" rx="6" fill="#efefef"/>
<rect x="380" y="1570" width="3.63" height="18" rx="6" fill="#8e44ad"/>
<text x="393.63" y="1585" font-size="13" fill="#333333">32.94x</text>
<text x="362" y="1615" font-size="14" fill="#111111" text-anchor="end">SKYAI_USDT 2025-10-06 17:00:00</text>
<rect x="380" y="1600" width="1100.00" height="18" rx="6" fill="#efefef"/>
<rect x="380" y="1600" width="3.59" height="18" rx="6" fill="#8e44ad"/>
<text x="393.59" y="1615" font-size="13" fill="#333333">32.50x</text>
<text x="362" y="1645" font-size="14" fill="#111111" text-anchor="end">SNT_USDT 2025-04-10 13:00:00</text>
<rect x="380" y="1630" width="1100.00" height="18" rx="6" fill="#efefef"/>
<rect x="380" y="1630" width="3.51" height="18" rx="6" fill="#8e44ad"/>
<text x="393.51" y="1645" font-size="13" fill="#333333">31.77x</text>
<text x="362" y="1675" font-size="14" fill="#111111" text-anchor="end">MIRA_USDT 2026-02-27 02:00:00</text>
<rect x="380" y="1660" width="1100.00" height="18" rx="6" fill="#efefef"/>
<rect x="380" y="1660" width="3.47" height="18" rx="6" fill="#8e44ad"/>
<text x="393.47" y="1675" font-size="13" fill="#333333">31.44x</text>
<text x="362" y="1705" font-size="14" fill="#111111" text-anchor="end">DOLO_USDT 2025-04-30 18:00:00</text>
<rect x="380" y="1690" width="1100.00" height="18" rx="6" fill="#efefef"/>
<rect x="380" y="1690" width="3.44" height="18" rx="6" fill="#8e44ad"/>
<text x="393.44" y="1705" font-size="13" fill="#333333">31.17x</text>
<text x="362" y="1735" font-size="14" fill="#111111" text-anchor="end">STO_USDT 2025-05-02 18:00:00</text>
<rect x="380" y="1720" width="1100.00" height="18" rx="6" fill="#efefef"/>
<rect x="380" y="1720" width="3.42" height="18" rx="6" fill="#8e44ad"/>
<text x="393.42" y="1735" font-size="13" fill="#333333">30.96x</text>
<text x="362" y="1765" font-size="14" fill="#111111" text-anchor="end">SKL_USDT 2026-04-17 23:00:00</text>
<rect x="380" y="1750" width="1100.00" height="18" rx="6" fill="#efefef"/>
<rect x="380" y="1750" width="3.34" height="18" rx="6" fill="#8e44ad"/>
<text x="393.34" y="1765" font-size="13" fill="#333333">30.25x</text>
<text x="362" y="1795" font-size="14" fill="#111111" text-anchor="end">VINE_USDT 2025-03-29 09:00:00</text>
<rect x="380" y="1780" width="1100.00" height="18" rx="6" fill="#efefef"/>
<rect x="380" y="1780" width="3.08" height="18" rx="6" fill="#8e44ad"/>
<text x="393.08" y="1795" font-size="13" fill="#333333">27.94x</text>
<text x="362" y="1825" font-size="14" fill="#111111" text-anchor="end">TUT_USDT 2025-03-28 01:00:00</text>
<rect x="380" y="1810" width="1100.00" height="18" rx="6" fill="#efefef"/>
<rect x="380" y="1810" width="3.07" height="18" rx="6" fill="#8e44ad"/>
<text x="393.07" y="1825" font-size="13" fill="#333333">27.86x</text>
<text x="362" y="1855" font-size="14" fill="#111111" text-anchor="end">BGSC_USDT 2025-12-29 19:00:00</text>
<rect x="380" y="1840" width="1100.00" height="18" rx="6" fill="#efefef"/>
<rect x="380" y="1840" width="3.03" height="18" rx="6" fill="#8e44ad"/>
<text x="393.03" y="1855" font-size="13" fill="#333333">27.49x</text>
<text x="362" y="1885" font-size="14" fill="#111111" text-anchor="end">BROCCOLIF3B_USDT 2025-04-12 10:00:00</text>
<rect x="380" y="1870" width="1100.00" height="18" rx="6" fill="#efefef"/>
<rect x="380" y="1870" width="3.01" height="18" rx="6" fill="#8e44ad"/>
<text x="393.01" y="1885" font-size="13" fill="#333333">27.27x</text>
<text x="362" y="1915" font-size="14" fill="#111111" text-anchor="end">FHE_USDT 2025-08-03 05:00:00</text>
<rect x="380" y="1900" width="1100.00" height="18" rx="6" fill="#efefef"/>
<rect x="380" y="1900" width="2.93" height="18" rx="6" fill="#8e44ad"/>
<text x="392.93" y="1915" font-size="13" fill="#333333">26.53x</text>
<text x="362" y="1945" font-size="14" fill="#111111" text-anchor="end">TAIKO_USDT 2026-01-26 08:00:00</text>
<rect x="380" y="1930" width="1100.00" height="18" rx="6" fill="#efefef"/>
<rect x="380" y="1930" width="2.92" height="18" rx="6" fill="#8e44ad"/>
<text x="392.92" y="1945" font-size="13" fill="#333333">26.46x</text>
<text x="362" y="1975" font-size="14" fill="#111111" text-anchor="end">XAN_USDT 2026-03-15 08:00:00</text>
<rect x="380" y="1960" width="1100.00" height="18" rx="6" fill="#efefef"/>
<rect x="380" y="1960" width="2.89" height="18" rx="6" fill="#8e44ad"/>
<text x="392.89" y="1975" font-size="13" fill="#333333">26.18x</text>
<text x="362" y="2005" font-size="14" fill="#111111" text-anchor="end">OGN_USDT 2025-04-20 16:00:00</text>
<rect x="380" y="1990" width="1100.00" height="18" rx="6" fill="#efefef"/>
<rect x="380" y="1990" width="2.84" height="18" rx="6" fill="#8e44ad"/>
<text x="392.84" y="2005" font-size="13" fill="#333333">25.76x</text>
<text x="362" y="2035" font-size="14" fill="#111111" text-anchor="end">CYBER_USDT 2025-10-15 16:00:00</text>
<rect x="380" y="2020" width="1100.00" height="18" rx="6" fill="#efefef"/>
<rect x="380" y="2020" width="2.80" height="18" rx="6" fill="#8e44ad"/>
<text x="392.80" y="2035" font-size="13" fill="#333333">25.35x</text>
<text x="362" y="2065" font-size="14" fill="#111111" text-anchor="end">RARE_USDT 2025-10-15 13:00:00</text>
<rect x="380" y="2050" width="1100.00" height="18" rx="6" fill="#efefef"/>
<rect x="380" y="2050" width="2.76" height="18" rx="6" fill="#8e44ad"/>
<text x="392.76" y="2065" font-size="13" fill="#333333">25.01x</text>
<text x="362" y="2095" font-size="14" fill="#111111" text-anchor="end">EDU_USDT 2026-04-08 12:00:00</text>
<rect x="380" y="2080" width="1100.00" height="18" rx="6" fill="#efefef"/>
<rect x="380" y="2080" width="2.64" height="18" rx="6" fill="#8e44ad"/>
<text x="392.64" y="2095" font-size="13" fill="#333333">23.97x</text>
<text x="362" y="2125" font-size="14" fill="#111111" text-anchor="end">KNC_USDT 2026-03-27 12:00:00</text>
<rect x="380" y="2110" width="1100.00" height="18" rx="6" fill="#efefef"/>
<rect x="380" y="2110" width="2.62" height="18" rx="6" fill="#8e44ad"/>
<text x="392.62" y="2125" font-size="13" fill="#333333">23.77x</text>
<text x="362" y="2155" font-size="14" fill="#111111" text-anchor="end">SKL_USDT 2025-07-11 04:00:00</text>
<rect x="380" y="2140" width="1100.00" height="18" rx="6" fill="#efefef"/>
<rect x="380" y="2140" width="2.55" height="18" rx="6" fill="#8e44ad"/>
<text x="392.55" y="2155" font-size="13" fill="#333333">23.13x</text>
<text x="362" y="2185" font-size="14" fill="#111111" text-anchor="end">C_USDT 2026-03-27 12:00:00</text>
<rect x="380" y="2170" width="1100.00" height="18" rx="6" fill="#efefef"/>
<rect x="380" y="2170" width="2.46" height="18" rx="6" fill="#8e44ad"/>
<text x="392.46" y="2185" font-size="13" fill="#333333">22.30x</text>
<text x="362" y="2215" font-size="14" fill="#111111" text-anchor="end">BEL_USDT 2026-01-10 16:00:00</text>
<rect x="380" y="2200" width="1100.00" height="18" rx="6" fill="#efefef"/>
<rect x="380" y="2200" width="2.35" height="18" rx="6" fill="#8e44ad"/>
<text x="392.35" y="2215" font-size="13" fill="#333333">21.26x</text>
<text x="362" y="2245" font-size="14" fill="#111111" text-anchor="end">TRADOOR_USDT 2025-12-30 22:00:00</text>
<rect x="380" y="2230" width="1100.00" height="18" rx="6" fill="#efefef"/>
<rect x="380" y="2230" width="2.26" height="18" rx="6" fill="#8e44ad"/>
<text x="392.26" y="2245" font-size="13" fill="#333333">20.53x</text>
<text x="362" y="2275" font-size="14" fill="#111111" text-anchor="end">RLC_USDT 2025-08-28 06:00:00</text>
<rect x="380" y="2260" width="1100.00" height="18" rx="6" fill="#efefef"/>
<rect x="380" y="2260" width="2.26" height="18" rx="6" fill="#8e44ad"/>
<text x="392.26" y="2275" font-size="13" fill="#333333">20.45x</text>
<text x="362" y="2305" font-size="14" fill="#111111" text-anchor="end">BLESS_USDT 2025-11-04 19:00:00</text>
<rect x="380" y="2290" width="1100.00" height="18" rx="6" fill="#efefef"/>
<rect x="380" y="2290" width="2.19" height="18" rx="6" fill="#8e44ad"/>
<text x="392.19" y="2305" font-size="13" fill="#333333">19.82x</text>
<text x="362" y="2335" font-size="14" fill="#111111" text-anchor="end">NAORIS_USDT 2025-09-10 22:00:00</text>
<rect x="380" y="2320" width="1100.00" height="18" rx="6" fill="#efefef"/>
<rect x="380" y="2320" width="2.16" height="18" rx="6" fill="#8e44ad"/>
<text x="392.16" y="2335" font-size="13" fill="#333333">19.62x</text>
<text x="362" y="2365" font-size="14" fill="#111111" text-anchor="end">DIA_USDT 2025-04-07 16:00:00</text>
<rect x="380" y="2350" width="1100.00" height="18" rx="6" fill="#efefef"/>
<rect x="380" y="2350" width="2.06" height="18" rx="6" fill="#8e44ad"/>
<text x="392.06" y="2365" font-size="13" fill="#333333">18.67x</text>
<text x="362" y="2395" font-size="14" fill="#111111" text-anchor="end">SYS_USDT 2026-04-06 16:00:00</text>
<rect x="380" y="2380" width="1100.00" height="18" rx="6" fill="#efefef"/>
<rect x="380" y="2380" width="1.95" height="18" rx="6" fill="#8e44ad"/>
<text x="391.95" y="2395" font-size="13" fill="#333333">17.69x</text>
<text x="362" y="2425" font-size="14" fill="#111111" text-anchor="end">B3_USDT 2025-10-26 14:00:00</text>
<rect x="380" y="2410" width="1100.00" height="18" rx="6" fill="#efefef"/>
<rect x="380" y="2410" width="1.91" height="18" rx="6" fill="#8e44ad"/>
<text x="391.91" y="2425" font-size="13" fill="#333333">17.30x</text>
<text x="362" y="2455" font-size="14" fill="#111111" text-anchor="end">BROCCOLIF3B_USDT 2025-04-20 12:00:00</text>
<rect x="380" y="2440" width="1100.00" height="18" rx="6" fill="#efefef"/>
<rect x="380" y="2440" width="1.87" height="18" rx="6" fill="#8e44ad"/>
<text x="391.87" y="2455" font-size="13" fill="#333333">16.97x</text>
<text x="362" y="2485" font-size="14" fill="#111111" text-anchor="end">BROCCOLI_USDT 2025-03-20 00:00:00</text>
<rect x="380" y="2470" width="1100.00" height="18" rx="6" fill="#efefef"/>
<rect x="380" y="2470" width="1.87" height="18" rx="6" fill="#8e44ad"/>
<text x="391.87" y="2485" font-size="13" fill="#333333">16.91x</text>
<text x="362" y="2515" font-size="14" fill="#111111" text-anchor="end">OXT_USDT 2026-03-12 03:00:00</text>
<rect x="380" y="2500" width="1100.00" height="18" rx="6" fill="#efefef"/>
<rect x="380" y="2500" width="1.84" height="18" rx="6" fill="#8e44ad"/>
<text x="391.84" y="2515" font-size="13" fill="#333333">16.70x</text>
<text x="362" y="2545" font-size="14" fill="#111111" text-anchor="end">NAORIS_USDT 2026-03-24 10:00:00</text>
<rect x="380" y="2530" width="1100.00" height="18" rx="6" fill="#efefef"/>
<rect x="380" y="2530" width="1.70" height="18" rx="6" fill="#8e44ad"/>
<text x="391.70" y="2545" font-size="13" fill="#333333">15.38x</text>
<text x="362" y="2575" font-size="14" fill="#111111" text-anchor="end">草根文化_USDT 2026-03-30 23:00:00</text>
<rect x="380" y="2560" width="1100.00" height="18" rx="6" fill="#efefef"/>
<rect x="380" y="2560" width="1.68" height="18" rx="6" fill="#8e44ad"/>
<text x="391.68" y="2575" font-size="13" fill="#333333">15.24x</text>
<text x="362" y="2605" font-size="14" fill="#111111" text-anchor="end">FORM_USDT 2026-04-11 03:00:00</text>
<rect x="380" y="2590" width="1100.00" height="18" rx="6" fill="#efefef"/>
<rect x="380" y="2590" width="1.57" height="18" rx="6" fill="#8e44ad"/>
<text x="391.57" y="2605" font-size="13" fill="#333333">14.27x</text>
<text x="362" y="2635" font-size="14" fill="#111111" text-anchor="end">TAIKO_USDT 2025-03-22 08:00:00</text>
<rect x="380" y="2620" width="1100.00" height="18" rx="6" fill="#efefef"/>
<rect x="380" y="2620" width="1.53" height="18" rx="6" fill="#8e44ad"/>
<text x="391.53" y="2635" font-size="13" fill="#333333">13.85x</text>
<text x="362" y="2665" font-size="14" fill="#111111" text-anchor="end">VIC_USDT 2025-07-11 05:00:00</text>
<rect x="380" y="2650" width="1100.00" height="18" rx="6" fill="#efefef"/>
<rect x="380" y="2650" width="1.53" height="18" rx="6" fill="#8e44ad"/>
<text x="391.53" y="2665" font-size="13" fill="#333333">13.84x</text>
<text x="362" y="2695" font-size="14" fill="#111111" text-anchor="end">FLOCK_USDT 2025-05-31 23:00:00</text>
<rect x="380" y="2680" width="1100.00" height="18" rx="6" fill="#efefef"/>
<rect x="380" y="2680" width="1.41" height="18" rx="6" fill="#8e44ad"/>
<text x="391.41" y="2695" font-size="13" fill="#333333">12.79x</text>
<text x="362" y="2725" font-size="14" fill="#111111" text-anchor="end">CROSS_USDT 2026-04-11 14:00:00</text>
<rect x="380" y="2710" width="1100.00" height="18" rx="6" fill="#efefef"/>
<rect x="380" y="2710" width="1.31" height="18" rx="6" fill="#8e44ad"/>
<text x="391.31" y="2725" font-size="13" fill="#333333">11.88x</text>
<text x="362" y="2755" font-size="14" fill="#111111" text-anchor="end">HEMI_USDT 2026-04-15 00:00:00</text>
<rect x="380" y="2740" width="1100.00" height="18" rx="6" fill="#efefef"/>
<rect x="380" y="2740" width="1.30" height="18" rx="6" fill="#8e44ad"/>
<text x="391.30" y="2755" font-size="13" fill="#333333">11.82x</text>
<text x="362" y="2785" font-size="14" fill="#111111" text-anchor="end">CVC_USDT 2025-12-05 16:00:00</text>
<rect x="380" y="2770" width="1100.00" height="18" rx="6" fill="#efefef"/>
<rect x="380" y="2770" width="1.30" height="18" rx="6" fill="#8e44ad"/>
<text x="391.30" y="2785" font-size="13" fill="#333333">11.79x</text>
<text x="362" y="2815" font-size="14" fill="#111111" text-anchor="end">LSK_USDT 2025-11-14 08:00:00</text>
<rect x="380" y="2800" width="1100.00" height="18" rx="6" fill="#efefef"/>
<rect x="380" y="2800" width="1.30" height="18" rx="6" fill="#8e44ad"/>
<text x="391.30" y="2815" font-size="13" fill="#333333">11.75x</text>
<text x="362" y="2845" font-size="14" fill="#111111" text-anchor="end">DENT_USDT 2026-04-21 15:00:00</text>
<rect x="380" y="2830" width="1100.00" height="18" rx="6" fill="#efefef"/>
<rect x="380" y="2830" width="1.22" height="18" rx="6" fill="#8e44ad"/>
<text x="391.22" y="2845" font-size="13" fill="#333333">11.05x</text>
<text x="362" y="2875" font-size="14" fill="#111111" text-anchor="end">DOG_USDT 2025-04-26 09:00:00</text>
<rect x="380" y="2860" width="1100.00" height="18" rx="6" fill="#efefef"/>
<rect x="380" y="2860" width="1.13" height="18" rx="6" fill="#8e44ad"/>
<text x="391.13" y="2875" font-size="13" fill="#333333">10.21x</text>
<text x="362" y="2905" font-size="14" fill="#111111" text-anchor="end">BTR_USDT 2025-09-14 20:00:00</text>
<rect x="380" y="2890" width="1100.00" height="18" rx="6" fill="#efefef"/>
<rect x="380" y="2890" width="1.07" height="18" rx="6" fill="#8e44ad"/>
<text x="391.07" y="2905" font-size="13" fill="#333333">9.74x</text>
<text x="362" y="2935" font-size="14" fill="#111111" text-anchor="end">RED_USDT 2025-09-05 15:00:00</text>
<rect x="380" y="2920" width="1100.00" height="18" rx="6" fill="#efefef"/>
<rect x="380" y="2920" width="1.05" height="18" rx="6" fill="#8e44ad"/>
<text x="391.05" y="2935" font-size="13" fill="#333333">9.55x</text>
<text x="362" y="2965" font-size="14" fill="#111111" text-anchor="end">DEGO_USDT 2026-03-12 02:00:00</text>
<rect x="380" y="2950" width="1100.00" height="18" rx="6" fill="#efefef"/>
<rect x="380" y="2950" width="1.05" height="18" rx="6" fill="#8e44ad"/>
<text x="391.05" y="2965" font-size="13" fill="#333333">9.48x</text>
<text x="362" y="2995" font-size="14" fill="#111111" text-anchor="end">NOM_USDT 2025-10-19 05:00:00</text>
<rect x="380" y="2980" width="1100.00" height="18" rx="6" fill="#efefef"/>
<rect x="380" y="2980" width="1.01" height="18" rx="6" fill="#8e44ad"/>
<text x="391.01" y="2995" font-size="13" fill="#333333">9.16x</text>
<text x="362" y="3025" font-size="14" fill="#111111" text-anchor="end">DOLO_USDT 2025-08-27 18:00:00</text>
<rect x="380" y="3010" width="1100.00" height="18" rx="6" fill="#efefef"/>
<rect x="380" y="3010" width="1.00" height="18" rx="6" fill="#8e44ad"/>
<text x="391.00" y="3025" font-size="13" fill="#333333">9.06x</text>
<text x="362" y="3055" font-size="14" fill="#111111" text-anchor="end">BB_USDT 2025-07-11 11:00:00</text>
<rect x="380" y="3040" width="1100.00" height="18" rx="6" fill="#efefef"/>
<rect x="380" y="3040" width="0.94" height="18" rx="6" fill="#8e44ad"/>
<text x="390.94" y="3055" font-size="13" fill="#333333">8.48x</text>
<text x="362" y="3085" font-size="14" fill="#111111" text-anchor="end">XNY_USDT 2025-12-05 01:00:00</text>
<rect x="380" y="3070" width="1100.00" height="18" rx="6" fill="#efefef"/>
<rect x="380" y="3070" width="0.93" height="18" rx="6" fill="#8e44ad"/>
<text x="390.93" y="3085" font-size="13" fill="#333333">8.44x</text>
<text x="362" y="3115" font-size="14" fill="#111111" text-anchor="end">PLAY_USDT 2026-04-25 09:00:00</text>
<rect x="380" y="3100" width="1100.00" height="18" rx="6" fill="#efefef"/>
<rect x="380" y="3100" width="0.92" height="18" rx="6" fill="#8e44ad"/>
<text x="390.92" y="3115" font-size="13" fill="#333333">8.32x</text>
<text x="362" y="3145" font-size="14" fill="#111111" text-anchor="end">SKYAI_USDT 2025-07-03 00:00:00</text>
<rect x="380" y="3130" width="1100.00" height="18" rx="6" fill="#efefef"/>
<rect x="380" y="3130" width="0.87" height="18" rx="6" fill="#8e44ad"/>
<text x="390.87" y="3145" font-size="13" fill="#333333">7.85x</text>
<text x="362" y="3175" font-size="14" fill="#111111" text-anchor="end">DEGEN_USDT 2025-04-07 16:00:00</text>
<rect x="380" y="3160" width="1100.00" height="18" rx="6" fill="#efefef"/>
<rect x="380" y="3160" width="0.85" height="18" rx="6" fill="#8e44ad"/>
<text x="390.85" y="3175" font-size="13" fill="#333333">7.75x</text>
<text x="362" y="3205" font-size="14" fill="#111111" text-anchor="end">SUPER_USDT 2025-10-16 08:00:00</text>
<rect x="380" y="3190" width="1100.00" height="18" rx="6" fill="#efefef"/>
<rect x="380" y="3190" width="0.78" height="18" rx="6" fill="#8e44ad"/>
<text x="390.78" y="3205" font-size="13" fill="#333333">7.05x</text>
<text x="362" y="3235" font-size="14" fill="#111111" text-anchor="end">BEAMX_USDT 2026-01-26 08:00:00</text>
<rect x="380" y="3220" width="1100.00" height="18" rx="6" fill="#efefef"/>
<rect x="380" y="3220" width="0.75" height="18" rx="6" fill="#8e44ad"/>
<text x="390.75" y="3235" font-size="13" fill="#333333">6.84x</text>
<text x="362" y="3265" font-size="14" fill="#111111" text-anchor="end">DEGO_USDT 2026-03-08 14:00:00</text>
<rect x="380" y="3250" width="1100.00" height="18" rx="6" fill="#efefef"/>
<rect x="380" y="3250" width="0.72" height="18" rx="6" fill="#8e44ad"/>
<text x="390.72" y="3265" font-size="13" fill="#333333">6.51x</text>
<text x="362" y="3295" font-size="14" fill="#111111" text-anchor="end">POLYX_USDT 2025-07-12 10:00:00</text>
<rect x="380" y="3280" width="1100.00" height="18" rx="6" fill="#efefef"/>
<rect x="380" y="3280" width="0.62" height="18" rx="6" fill="#8e44ad"/>
<text x="390.62" y="3295" font-size="13" fill="#333333">5.66x</text>
<text x="362" y="3325" font-size="14" fill="#111111" text-anchor="end">TLM_USDT 2026-01-01 04:00:00</text>
<rect x="380" y="3310" width="1100.00" height="18" rx="6" fill="#efefef"/>
<rect x="380" y="3310" width="0.59" height="18" rx="6" fill="#8e44ad"/>
<text x="390.59" y="3325" font-size="13" fill="#333333">5.32x</text>
<text x="362" y="3355" font-size="14" fill="#111111" text-anchor="end">CTK_USDT 2025-04-29 23:00:00</text>
<rect x="380" y="3340" width="1100.00" height="18" rx="6" fill="#efefef"/>
<rect x="380" y="3340" width="0.53" height="18" rx="6" fill="#8e44ad"/>
<text x="390.53" y="3355" font-size="13" fill="#333333">4.85x</text>
<text x="362" y="3385" font-size="14" fill="#111111" text-anchor="end">POWER_USDT 2025-03-17 03:00:00</text>
<rect x="380" y="3370" width="1100.00" height="18" rx="6" fill="#efefef"/>
<rect x="380" y="3370" width="0.50" height="18" rx="6" fill="#8e44ad"/>
<text x="390.50" y="3385" font-size="13" fill="#333333">4.56x</text>
<text x="362" y="3415" font-size="14" fill="#111111" text-anchor="end">BANANAS31_USDT 2025-07-11 09:00:00</text>
<rect x="380" y="3400" width="1100.00" height="18" rx="6" fill="#efefef"/>
<rect x="380" y="3400" width="0.50" height="18" rx="6" fill="#8e44ad"/>
<text x="390.50" y="3415" font-size="13" fill="#333333">4.53x</text>
<text x="362" y="3445" font-size="14" fill="#111111" text-anchor="end">DAM_USDT 2025-09-11 22:00:00</text>
<rect x="380" y="3430" width="1100.00" height="18" rx="6" fill="#efefef"/>
<rect x="380" y="3430" width="0.49" height="18" rx="6" fill="#8e44ad"/>
<text x="390.49" y="3445" font-size="13" fill="#333333">4.46x</text>
<text x="362" y="3475" font-size="14" fill="#111111" text-anchor="end">MYX_USDT 2025-09-08 18:00:00</text>
<rect x="380" y="3460" width="1100.00" height="18" rx="6" fill="#efefef"/>
<rect x="380" y="3460" width="0.42" height="18" rx="6" fill="#8e44ad"/>
<text x="390.42" y="3475" font-size="13" fill="#333333">3.77x</text>
<text x="362" y="3505" font-size="14" fill="#111111" text-anchor="end">SYS_USDT 2025-10-13 18:00:00</text>
<rect x="380" y="3490" width="1100.00" height="18" rx="6" fill="#efefef"/>
<rect x="380" y="3490" width="0.36" height="18" rx="6" fill="#8e44ad"/>
<text x="390.36" y="3505" font-size="13" fill="#333333">3.29x</text>
</svg>