<svg xmlns="http://www.w3.org/2000/svg" width="1800" height="4460" viewBox="0 0 1800 4460">
<rect width="100%" height="100%" fill="#f7f8fa"/>
<text x="48" y="58" font-size="34" font-weight="700" fill="#111111">OKX 10倍总结图</text>
<text x="48" y="94" font-size="18" fill="#555555">基于 result.json 生成；展示最高倍数、十倍前振幅、成交量倍数、10倍收盘位置统计</text>
<rect x="48" y="130" width="260" height="110" rx="18" fill="#ffffff" stroke="#ebedf0"/>
<text x="68" y="172" font-size="18" fill="#666666">总币数</text>
<text x="68" y="214" font-size="34" font-weight="700" fill="#2d3436">300</text>
<rect x="328" y="130" width="260" height="110" rx="18" fill="#ffffff" stroke="#ebedf0"/>
<text x="348" y="172" font-size="18" fill="#666666">命中币种</text>
<text x="348" y="214" font-size="34" font-weight="700" fill="#c0392b">49</text>
<rect x="608" y="130" width="260" height="110" rx="18" fill="#ffffff" stroke="#ebedf0"/>
<text x="628" y="172" font-size="18" fill="#666666">命中次数</text>
<text x="628" y="214" font-size="34" font-weight="700" fill="#8e44ad">58</text>
<rect x="888" y="130" width="260" height="110" rx="18" fill="#ffffff" stroke="#ebedf0"/>
<text x="908" y="172" font-size="18" fill="#666666">错误数</text>
<text x="908" y="214" font-size="34" font-weight="700" fill="#7f8c8d">0</text>
<rect x="1168" y="130" width="260" height="110" rx="18" fill="#ffffff" stroke="#ebedf0"/>
<text x="1188" y="172" font-size="18" fill="#666666">收盘高于10倍价</text>
<text x="1188" y="214" font-size="34" font-weight="700" fill="#27ae60">17</text>
<rect x="1448" y="130" width="260" height="110" rx="18" fill="#ffffff" stroke="#ebedf0"/>
<text x="1468" y="172" font-size="18" fill="#666666">收盘低于10倍价</text>
<text x="1468" y="214" font-size="34" font-weight="700" fill="#e74c3c">41</text>
<rect x="48" y="290" width="820" height="520" rx="20" fill="#ffffff" stroke="#ebedf0"/>
<text x="72" y="326" font-size="26" font-weight="700" fill="#111111">最高倍数 Top 10（含成交量倍数）</text>
<text x="72" y="394" font-size="16" font-weight="600" fill="#111111">1. MOODENG-USDT-SWAP</text>
<rect x="298" y="378" width="250" height="16" rx="8" fill="#eef1f5"/>
<rect x="298" y="378" width="250.00" height="16" rx="8" fill="#f39c12"/>
<text x="564" y="392" font-size="14" fill="#333333">最高 37.12x | 命中 1 次</text>
<text x="92" y="411" font-size="13" fill="#666666">前振幅 4.94% | 前涨跌 3.41% | 成交量 28.87x</text>
<text x="72" y="438" font-size="16" font-weight="600" fill="#111111">2. ORDER-USDT-SWAP</text>
<rect x="298" y="422" width="250" height="16" rx="8" fill="#eef1f5"/>
<rect x="298" y="422" width="198.23" height="16" rx="8" fill="#f39c12"/>
<text x="564" y="436" font-size="14" fill="#333333">最高 29.44x | 命中 1 次</text>
<text x="92" y="455" font-size="13" fill="#666666">前振幅 2.32% | 前涨跌 1.03% | 成交量 35.70x</text>
<text x="72" y="482" font-size="16" font-weight="600" fill="#111111">3. AUCTION-USDT-SWAP</text>
<rect x="298" y="466" width="250" height="16" rx="8" fill="#eef1f5"/>
<rect x="298" y="466" width="188.91" height="16" rx="8" fill="#f39c12"/>
<text x="564" y="480" font-size="14" fill="#333333">最高 28.05x | 命中 1 次</text>
<text x="92" y="499" font-size="13" fill="#666666">前振幅 2.48% | 前涨跌 1.10% | 成交量 66.78x</text>
<text x="72" y="526" font-size="16" font-weight="600" fill="#111111">4. VANA-USDT-SWAP</text>
<rect x="298" y="510" width="250" height="16" rx="8" fill="#eef1f5"/>
<rect x="298" y="510" width="152.13" height="16" rx="8" fill="#f39c12"/>
<text x="564" y="524" font-size="14" fill="#333333">最高 22.59x | 命中 1 次</text>
<text x="92" y="543" font-size="13" fill="#666666">前振幅 1.32% | 前涨跌 1.04% | 成交量 236.44x</text>
<text x="72" y="570" font-size="16" font-weight="600" fill="#111111">5. ONT-USDT-SWAP</text>
<rect x="298" y="554" width="250" height="16" rx="8" fill="#eef1f5"/>
<rect x="298" y="554" width="146.73" height="16" rx="8" fill="#f39c12"/>
<text x="564" y="568" font-size="14" fill="#333333">最高 21.79x | 命中 2 次</text>
<text x="92" y="587" font-size="13" fill="#666666">前振幅 2.68% | 前涨跌 1.78% | 成交量 15.28x</text>
<text x="72" y="614" font-size="16" font-weight="600" fill="#111111">6. LAYER-USDT-SWAP</text>
<rect x="298" y="598" width="250" height="16" rx="8" fill="#eef1f5"/>
<rect x="298" y="598" width="134.43" height="16" rx="8" fill="#f39c12"/>
<text x="564" y="612" font-size="14" fill="#333333">最高 19.96x | 命中 1 次</text>
<text x="92" y="631" font-size="13" fill="#666666">前振幅 2.47% | 前涨跌 1.49% | 成交量 41.43x</text>
<text x="72" y="658" font-size="16" font-weight="600" fill="#111111">7. HMSTR-USDT-SWAP</text>
<rect x="298" y="642" width="250" height="16" rx="8" fill="#eef1f5"/>
<rect x="298" y="642" width="127.43" height="16" rx="8" fill="#f39c12"/>
<text x="564" y="656" font-size="14" fill="#333333">最高 18.92x | 命中 1 次</text>
<text x="92" y="675" font-size="13" fill="#666666">前振幅 3.71% | 前涨跌 3.26% | 成交量 31.48x</text>
<text x="72" y="702" font-size="16" font-weight="600" fill="#111111">8. MAGIC-USDT-SWAP</text>
<rect x="298" y="686" width="250" height="16" rx="8" fill="#eef1f5"/>
<rect x="298" y="686" width="118.38" height="16" rx="8" fill="#f39c12"/>
<text x="564" y="700" font-size="14" fill="#333333">最高 17.58x | 命中 2 次</text>
<text x="92" y="719" font-size="13" fill="#666666">前振幅 1.80% | 前涨跌 1.12% | 成交量 32.62x</text>
<text x="72" y="746" font-size="16" font-weight="600" fill="#111111">9. FLOW-USDT-SWAP</text>
<rect x="298" y="730" width="250" height="16" rx="8" fill="#eef1f5"/>
<rect x="298" y="730" width="115.93" height="16" rx="8" fill="#f39c12"/>
<text x="564" y="744" font-size="14" fill="#333333">最高 17.22x | 命中 1 次</text>
<text x="92" y="763" font-size="13" fill="#666666">前振幅 2.71% | 前涨跌 2.16% | 成交量 4.87x</text>
<text x="72" y="790" font-size="16" font-weight="600" fill="#111111">10. JTO-USDT-SWAP</text>
<rect x="298" y="774" width="250" height="16" rx="8" fill="#eef1f5"/>
<rect x="298" y="774" width="109.81" height="16" rx="8" fill="#f39c12"/>
<text x="564" y="788" font-size="14" fill="#333333">最高 16.31x | 命中 1 次</text>
<text x="92" y="807" font-size="13" fill="#666666">前振幅 1.96% | 前涨跌 1.48% | 成交量 58.13x</text>
<rect x="930" y="290" width="820" height="520" rx="20" fill="#ffffff" stroke="#ebedf0"/>
<text x="954" y="326" font-size="26" font-weight="700" fill="#111111">10倍命中收盘价位置</text>
<text x="954" y="356" font-size="16" fill="#666666">统计所有10倍命中，收盘价在10倍价之上还是之下</text>
<path d="M 1180.00 570.00 L 1180.00 425.00 A 145 145 0 0 1 1319.71 608.79 Z" fill="#27ae60" opacity="0.94"/>
<path d="M 1180.00 570.00 L 1319.71 608.79 A 145 145 0 1 1 1180.00 425.00 Z" fill="#e74c3c" opacity="0.94"/>
<circle cx="1180" cy="570" r="72" fill="#ffffff"/>
<text x="1180" y="566" font-size="34" font-weight="700" fill="#111111" text-anchor="middle">58</text>
<text x="1180" y="594" font-size="16" fill="#666666" text-anchor="middle">命中总数</text>
<rect x="1450" y="494" width="26" height="26" rx="6" fill="#27ae60"/>
<text x="1490" y="510" font-size="22" font-weight="600" fill="#111111">高于10倍价</text>
<text x="1490" y="538" font-size="17" fill="#555555">17 次，占比 29.31%</text>
<rect x="1450" y="584" width="26" height="26" rx="6" fill="#e74c3c"/>
<text x="1490" y="600" font-size="22" font-weight="600" fill="#111111">低于10倍价</text>
<text x="1490" y="628" font-size="17" fill="#555555">41 次，占比 70.69%</text>
<rect x="48" y="850" width="820" height="760" rx="20" fill="#ffffff" stroke="#ebedf0"/>
<text x="72" y="886" font-size="26" font-weight="700" fill="#111111">成交量倍数 Top 10</text>
<text x="72" y="916" font-size="16" fill="#666666">按10倍命中事件的成交量倍数排序</text>
<text x="72" y="966" font-size="15" font-weight="600" fill="#111111">1. VANA-USDT-SWAP 2026-02-09 21:00:00</text>
<rect x="408" y="950" width="220" height="16" rx="8" fill="#eef1f5"/>
<rect x="408" y="950" width="220.00" height="16" rx="8" fill="#8e44ad"/>
<text x="644" y="964" font-size="14" fill="#333333">236.44x | 倍数 22.59x</text>
<text x="92" y="986" font-size="13" fill="#666666">前振幅 1.32% | 前涨跌 1.04%</text>
<text x="72" y="1024" font-size="15" font-weight="600" fill="#111111">2. BIGTIME-USDT-SWAP 2025-08-29 08:00:00</text>
<rect x="408" y="1008" width="220" height="16" rx="8" fill="#eef1f5"/>
<rect x="408" y="1008" width="202.73" height="16" rx="8" fill="#8e44ad"/>
<text x="644" y="1022" font-size="14" fill="#333333">217.88x | 倍数 14.99x</text>
<text x="92" y="1044" font-size="13" fill="#666666">前振幅 1.66% | 前涨跌 1.23%</text>
<text x="72" y="1082" font-size="15" font-weight="600" fill="#111111">3. SHELL-USDT-SWAP 2026-02-27 03:00:00</text>
<rect x="408" y="1066" width="220" height="16" rx="8" fill="#eef1f5"/>
<rect x="408" y="1066" width="184.68" height="16" rx="8" fill="#8e44ad"/>
<text x="644" y="1080" font-size="14" fill="#333333">198.48x | 倍数 13.28x</text>
<text x="92" y="1102" font-size="13" fill="#666666">前振幅 1.70% | 前涨跌 1.63%</text>
<text x="72" y="1140" font-size="15" font-weight="600" fill="#111111">4. GLM-USDT-SWAP 2025-04-12 18:00:00</text>
<rect x="408" y="1124" width="220" height="16" rx="8" fill="#eef1f5"/>
<rect x="408" y="1124" width="184.39" height="16" rx="8" fill="#8e44ad"/>
<text x="644" y="1138" font-size="14" fill="#333333">198.17x | 倍数 10.18x</text>
<text x="92" y="1160" font-size="13" fill="#666666">前振幅 1.48% | 前涨跌 1.32%</text>
<text x="72" y="1198" font-size="15" font-weight="600" fill="#111111">5. ONT-USDT-SWAP 2025-01-13 08:00:00</text>
<rect x="408" y="1182" width="220" height="16" rx="8" fill="#eef1f5"/>
<rect x="408" y="1182" width="116.11" height="16" rx="8" fill="#8e44ad"/>
<text x="644" y="1196" font-size="14" fill="#333333">124.79x | 倍数 13.18x</text>
<text x="92" y="1218" font-size="13" fill="#666666">前振幅 1.42% | 前涨跌 1.30%</text>
<text x="72" y="1256" font-size="15" font-weight="600" fill="#111111">6. VIRTUAL-USDT-SWAP 2025-04-11 18:00:00</text>
<rect x="408" y="1240" width="220" height="16" rx="8" fill="#eef1f5"/>
<rect x="408" y="1240" width="107.83" height="16" rx="8" fill="#8e44ad"/>
<text x="644" y="1254" font-size="14" fill="#333333">115.89x | 倍数 12.34x</text>
<text x="92" y="1276" font-size="13" fill="#666666">前振幅 1.83% | 前涨跌 1.09%</text>
<text x="72" y="1314" font-size="15" font-weight="600" fill="#111111">7. UMA-USDT-SWAP 2025-11-09 16:00:00</text>
<rect x="408" y="1298" width="220" height="16" rx="8" fill="#eef1f5"/>
<rect x="408" y="1298" width="100.22" height="16" rx="8" fill="#8e44ad"/>
<text x="644" y="1312" font-size="14" fill="#333333">107.71x | 倍数 14.33x</text>
<text x="92" y="1334" font-size="13" fill="#666666">前振幅 1.65% | 前涨跌 1.28%</text>
<text x="72" y="1372" font-size="15" font-weight="600" fill="#111111">8. UMA-USDT-SWAP 2025-06-06 22:00:00</text>
<rect x="408" y="1356" width="220" height="16" rx="8" fill="#eef1f5"/>
<rect x="408" y="1356" width="92.27" height="16" rx="8" fill="#8e44ad"/>
<text x="644" y="1370" font-size="14" fill="#333333">99.16x | 倍数 15.33x</text>
<text x="92" y="1392" font-size="13" fill="#666666">前振幅 1.64% | 前涨跌 1.00%</text>
<text x="72" y="1430" font-size="15" font-weight="600" fill="#111111">9. 1INCH-USDT-SWAP 2023-11-08 15:00:00</text>
<rect x="408" y="1414" width="220" height="16" rx="8" fill="#eef1f5"/>
<rect x="408" y="1414" width="91.37" height="16" rx="8" fill="#8e44ad"/>
<text x="644" y="1428" font-size="14" fill="#333333">98.20x | 倍数 10.92x</text>
<text x="92" y="1450" font-size="13" fill="#666666">前振幅 1.93% | 前涨跌 1.20%</text>
<text x="72" y="1488" font-size="15" font-weight="600" fill="#111111">10. ARKM-USDT-SWAP 2025-03-11 14:00:00</text>
<rect x="408" y="1472" width="220" height="16" rx="8" fill="#eef1f5"/>
<rect x="408" y="1472" width="90.02" height="16" rx="8" fill="#8e44ad"/>
<text x="644" y="1486" font-size="14" fill="#333333">96.75x | 倍数 12.51x</text>
<text x="92" y="1508" font-size="13" fill="#666666">前振幅 3.84% | 前涨跌 3.66%</text>
<rect x="930" y="850" width="820" height="760" rx="20" fill="#ffffff" stroke="#ebedf0"/>
<text x="954" y="886" font-size="26" font-weight="700" fill="#111111">10倍命中收盘价相对10倍价 Top 10</text>
<text x="954" y="916" font-size="16" fill="#666666">按收盘相对10倍价的偏离涨跌幅从高到低排序</text>
<text x="954" y="970" font-size="15" font-weight="600" fill="#111111">1. AUCTION-USDT-SWAP 2024-05-29 17:00:00</text>
<text x="1490" y="970" font-size="16" font-weight="600" fill="#27ae60">14.00%</text>
<text x="974" y="990" font-size="13" fill="#666666">收盘高于10倍价 | 前振幅 2.48% | 前涨跌 1.10% | 成交量 66.78x</text>
<text x="954" y="1028" font-size="15" font-weight="600" fill="#111111">2. APE-USDT-SWAP 2024-10-20 05:00:00</text>
<text x="1490" y="1028" font-size="16" font-weight="600" fill="#27ae60">5.22%</text>
<text x="974" y="1048" font-size="13" fill="#666666">收盘高于10倍价 | 前振幅 1.46% | 前涨跌 1.42% | 成交量 44.10x</text>
<text x="954" y="1086" font-size="15" font-weight="600" fill="#111111">3. VANA-USDT-SWAP 2026-02-09 21:00:00</text>
<text x="1490" y="1086" font-size="16" font-weight="600" fill="#27ae60">4.97%</text>
<text x="974" y="1106" font-size="13" fill="#666666">收盘高于10倍价 | 前振幅 1.32% | 前涨跌 1.04% | 成交量 236.44x</text>
<text x="954" y="1144" font-size="15" font-weight="600" fill="#111111">4. PEOPLE-USDT-SWAP 2025-04-20 14:00:00</text>
<text x="1490" y="1144" font-size="16" font-weight="600" fill="#27ae60">4.55%</text>
<text x="974" y="1164" font-size="13" fill="#666666">收盘高于10倍价 | 前振幅 3.14% | 前涨跌 1.98% | 成交量 21.93x</text>
<text x="954" y="1202" font-size="15" font-weight="600" fill="#111111">5. UMA-USDT-SWAP 2025-06-06 22:00:00</text>
<text x="1490" y="1202" font-size="16" font-weight="600" fill="#27ae60">4.50%</text>
<text x="974" y="1222" font-size="13" fill="#666666">收盘高于10倍价 | 前振幅 1.64% | 前涨跌 1.00% | 成交量 99.16x</text>
<text x="954" y="1260" font-size="15" font-weight="600" fill="#111111">6. TRB-USDT-SWAP 2023-09-13 15:00:00</text>
<text x="1490" y="1260" font-size="16" font-weight="600" fill="#27ae60">4.44%</text>
<text x="974" y="1280" font-size="13" fill="#666666">收盘高于10倍价 | 前振幅 3.37% | 前涨跌 1.57% | 成交量 1.50x</text>
<text x="954" y="1318" font-size="15" font-weight="600" fill="#111111">7. RESOLV-USDT-SWAP 2025-07-11 14:00:00</text>
<text x="1490" y="1318" font-size="16" font-weight="600" fill="#27ae60">4.11%</text>
<text x="974" y="1338" font-size="13" fill="#666666">收盘高于10倍价 | 前振幅 2.80% | 前涨跌 1.06% | 成交量 15.32x</text>
<text x="954" y="1376" font-size="15" font-weight="600" fill="#111111">8. MUBARAK-USDT-SWAP 2026-01-01 03:00:00</text>
<text x="1490" y="1376" font-size="16" font-weight="600" fill="#27ae60">3.88%</text>
<text x="974" y="1396" font-size="13" fill="#666666">收盘高于10倍价 | 前振幅 2.37% | 前涨跌 1.86% | 成交量 83.60x</text>
<text x="954" y="1434" font-size="15" font-weight="600" fill="#111111">9. MMT-USDT-SWAP 2026-04-05 20:00:00</text>
<text x="1490" y="1434" font-size="16" font-weight="600" fill="#27ae60">3.56%</text>
<text x="974" y="1454" font-size="13" fill="#666666">收盘高于10倍价 | 前振幅 2.60% | 前涨跌 1.48% | 成交量 33.32x</text>
<text x="954" y="1492" font-size="15" font-weight="600" fill="#111111">10. UMA-USDT-SWAP 2025-03-22 22:00:00</text>
<text x="1490" y="1492" font-size="16" font-weight="600" fill="#27ae60">2.37%</text>
<text x="974" y="1512" font-size="13" fill="#666666">收盘高于10倍价 | 前振幅 1.74% | 前涨跌 1.06% | 成交量 38.72x</text>
<rect x="48" y="1650" width="820" height="560" rx="20" fill="#ffffff" stroke="#ebedf0"/>
<text x="72" y="1686" font-size="26" font-weight="700" fill="#111111">收盘高于10倍价后，第二根收盘是否跌回10倍价下</text>
<text x="72" y="1716" font-size="16" fill="#666666">基于当前 result.json，用命中后第二根涨跌幅推算第二根收盘价</text>
<path d="M 298.00 1930.00 L 298.00 1785.00 A 145 145 0 0 1 324.64 2072.53 Z" fill="#e74c3c" opacity="0.94"/>
<path d="M 298.00 1930.00 L 324.64 2072.53 A 145 145 0 1 1 298.00 1785.00 Z" fill="#27ae60" opacity="0.94"/>
<circle cx="298" cy="1930" r="72" fill="#ffffff"/>
<text x="298" y="1926" font-size="34" font-weight="700" fill="#111111" text-anchor="middle">17</text>
<text x="298" y="1954" font-size="16" fill="#666666" text-anchor="middle">高于10倍价样本</text>
<rect x="568" y="1824" width="26" height="26" rx="6" fill="#e74c3c"/>
<text x="608" y="1840" font-size="20" font-weight="600" fill="#111111">第二根收盘低于10倍价</text>
<text x="608" y="1868" font-size="16" fill="#555555">8 次，占比 47.06%</text>
<rect x="568" y="1914" width="26" height="26" rx="6" fill="#27ae60"/>
<text x="608" y="1930" font-size="20" font-weight="600" fill="#111111">第二根收盘仍高于10倍价</text>
<text x="608" y="1958" font-size="16" fill="#555555">9 次，占比 52.94%</text>
<rect x="568" y="2004" width="26" height="26" rx="6" fill="#95a5a6"/>
<text x="608" y="2020" font-size="20" font-weight="600" fill="#111111">无法判断</text>
<text x="608" y="2048" font-size="16" fill="#555555">0 次，占比 0.00%</text>
<rect x="48" y="3920" width="1704" height="420" rx="20" fill="#ffffff" stroke="#ebedf0"/>
<text x="72" y="3956" font-size="26" font-weight="700" fill="#111111">总体第二根最高价是否高于10倍价</text>
<text x="72" y="3986" font-size="16" fill="#666666">统计命中后第二根K线最高价是否站上10倍价，以及高出10倍价多少</text>
<rect x="72" y="4024" width="280" height="120" rx="16" fill="#fafbfc" stroke="#edf0f2"/>
<text x="90" y="4066" font-size="18" fill="#666666">第二根高于10倍</text>
<text x="90" y="4106" font-size="32" font-weight="700" fill="#27ae60">0</text>
<rect x="376" y="4024" width="280" height="120" rx="16" fill="#fafbfc" stroke="#edf0f2"/>
<text x="394" y="4066" font-size="18" fill="#666666">第二根未高于10倍</text>
<text x="394" y="4106" font-size="32" font-weight="700" fill="#e74c3c">0</text>
<rect x="680" y="4024" width="280" height="120" rx="16" fill="#fafbfc" stroke="#edf0f2"/>
<text x="698" y="4066" font-size="18" fill="#666666">数据不足</text>
<text x="698" y="4106" font-size="32" font-weight="700" fill="#95a5a6">58</text>
<rect x="984" y="4024" width="280" height="120" rx="16" fill="#fafbfc" stroke="#edf0f2"/>
<text x="1002" y="4066" font-size="18" fill="#666666">平均高出</text>
<text x="1002" y="4106" font-size="32" font-weight="700" fill="#8e44ad">--</text>
<rect x="1288" y="4024" width="280" height="120" rx="16" fill="#fafbfc" stroke="#edf0f2"/>
<text x="1306" y="4066" font-size="18" fill="#666666">最高高出</text>
<text x="1306" y="4106" font-size="32" font-weight="700" fill="#f39c12">--</text>
<text x="72" y="4200" font-size="18" fill="#333333">当前 result.json 不含足够的第二根最高价数据，无法给出准确占比；另有 58 次因缺少第二根 OHLC/最高价字段未纳入该统计</text>
<rect x="930" y="1650" width="820" height="560" rx="20" fill="#ffffff" stroke="#ebedf0"/>
<text x="954" y="1686" font-size="26" font-weight="700" fill="#111111">最近三年命中统计（2024 - 2026）</text>
<text x="954" y="1716" font-size="16" fill="#666666">展示 2026、2025、2024 每个月的命中数量</text>
<text x="1100" y="1760" font-size="14" fill="#666666" text-anchor="middle">1月</text>
<text x="1148" y="1760" font-size="14" fill="#666666" text-anchor="middle">2月</text>
<text x="1196" y="1760" font-size="14" fill="#666666" text-anchor="middle">3月</text>
<text x="1244" y="1760" font-size="14" fill="#666666" text-anchor="middle">4月</text>
<text x="1292" y="1760" font-size="14" fill="#666666" text-anchor="middle">5月</text>
<text x="1340" y="1760" font-size="14" fill="#666666" text-anchor="middle">6月</text>
<text x="1388" y="1760" font-size="14" fill="#666666" text-anchor="middle">7月</text>
<text x="1436" y="1760" font-size="14" fill="#666666" text-anchor="middle">8月</text>
<text x="1484" y="1760" font-size="14" fill="#666666" text-anchor="middle">9月</text>
<text x="1532" y="1760" font-size="14" fill="#666666" text-anchor="middle">10月</text>
<text x="1580" y="1760" font-size="14" fill="#666666" text-anchor="middle">11月</text>
<text x="1628" y="1760" font-size="14" fill="#666666" text-anchor="middle">12月</text>
<text x="954" y="1812" font-size="22" font-weight="700" fill="#e74c3c">2026</text>
<text x="1022" y="1812" font-size="16" fill="#666666">全年 15 次</text>
<rect x="1066" y="1794" width="28" height="48" rx="8" fill="#f1f3f5"/>
<rect x="1066" y="1833.11" width="28" height="4.89" rx="8" fill="#e74c3c"/>
<text x="1080" y="1862" font-size="13" fill="#444444" text-anchor="middle">1</text>
<rect x="1114" y="1794" width="28" height="48" rx="8" fill="#f1f3f5"/>
<rect x="1114" y="1813.56" width="28" height="24.44" rx="8" fill="#e74c3c"/>
<text x="1128" y="1862" font-size="13" fill="#444444" text-anchor="middle">5</text>
<rect x="1162" y="1794" width="28" height="48" rx="8" fill="#f1f3f5"/>
<rect x="1162" y="1828.22" width="28" height="9.78" rx="8" fill="#e74c3c"/>
<text x="1176" y="1862" font-size="13" fill="#444444" text-anchor="middle">2</text>
<rect x="1210" y="1794" width="28" height="48" rx="8" fill="#f1f3f5"/>
<rect x="1210" y="1803.78" width="28" height="34.22" rx="8" fill="#e74c3c"/>
<text x="1224" y="1862" font-size="13" fill="#444444" text-anchor="middle">7</text>
<rect x="1258" y="1794" width="28" height="48" rx="8" fill="#f1f3f5"/>
<rect x="1258" y="1838.00" width="28" height="0.00" rx="8" fill="#e74c3c"/>
<text x="1272" y="1862" font-size="13" fill="#444444" text-anchor="middle">0</text>
<rect x="1306" y="1794" width="28" height="48" rx="8" fill="#f1f3f5"/>
<rect x="1306" y="1838.00" width="28" height="0.00" rx="8" fill="#e74c3c"/>
<text x="1320" y="1862" font-size="13" fill="#444444" text-anchor="middle">0</text>
<rect x="1354" y="1794" width="28" height="48" rx="8" fill="#f1f3f5"/>
<rect x="1354" y="1838.00" width="28" height="0.00" rx="8" fill="#e74c3c"/>
<text x="1368" y="1862" font-size="13" fill="#444444" text-anchor="middle">0</text>
<rect x="1402" y="1794" width="28" height="48" rx="8" fill="#f1f3f5"/>
<rect x="1402" y="1838.00" width="28" height="0.00" rx="8" fill="#e74c3c"/>
<text x="1416" y="1862" font-size="13" fill="#444444" text-anchor="middle">0</text>
<rect x="1450" y="1794" width="28" height="48" rx="8" fill="#f1f3f5"/>
<rect x="1450" y="1838.00" width="28" height="0.00" rx="8" fill="#e74c3c"/>
<text x="1464" y="1862" font-size="13" fill="#444444" text-anchor="middle">0</text>
<rect x="1498" y="1794" width="28" height="48" rx="8" fill="#f1f3f5"/>
<rect x="1498" y="1838.00" width="28" height="0.00" rx="8" fill="#e74c3c"/>
<text x="1512" y="1862" font-size="13" fill="#444444" text-anchor="middle">0</text>
<rect x="1546" y="1794" width="28" height="48" rx="8" fill="#f1f3f5"/>
<rect x="1546" y="1838.00" width="28" height="0.00" rx="8" fill="#e74c3c"/>
<text x="1560" y="1862" font-size="13" fill="#444444" text-anchor="middle">0</text>
<rect x="1594" y="1794" width="28" height="48" rx="8" fill="#f1f3f5"/>
<rect x="1594" y="1838.00" width="28" height="0.00" rx="8" fill="#e74c3c"/>
<text x="1608" y="1862" font-size="13" fill="#444444" text-anchor="middle">0</text>
<text x="954" y="1908" font-size="22" font-weight="700" fill="#3498db">2025</text>
<text x="1022" y="1908" font-size="16" fill="#666666">全年 33 次</text>
<rect x="1066" y="1890" width="28" height="48" rx="8" fill="#f1f3f5"/>
<rect x="1066" y="1924.22" width="28" height="9.78" rx="8" fill="#3498db"/>
<text x="1080" y="1958" font-size="13" fill="#444444" text-anchor="middle">2</text>
<rect x="1114" y="1890" width="28" height="48" rx="8" fill="#f1f3f5"/>
<rect x="1114" y="1914.44" width="28" height="19.56" rx="8" fill="#3498db"/>
<text x="1128" y="1958" font-size="13" fill="#444444" text-anchor="middle">4</text>
<rect x="1162" y="1890" width="28" height="48" rx="8" fill="#f1f3f5"/>
<rect x="1162" y="1924.22" width="28" height="9.78" rx="8" fill="#3498db"/>
<text x="1176" y="1958" font-size="13" fill="#444444" text-anchor="middle">2</text>
<rect x="1210" y="1890" width="28" height="48" rx="8" fill="#f1f3f5"/>
<rect x="1210" y="1914.44" width="28" height="19.56" rx="8" fill="#3498db"/>
<text x="1224" y="1958" font-size="13" fill="#444444" text-anchor="middle">4</text>
<rect x="1258" y="1890" width="28" height="48" rx="8" fill="#f1f3f5"/>
<rect x="1258" y="1934.00" width="28" height="0.00" rx="8" fill="#3498db"/>
<text x="1272" y="1958" font-size="13" fill="#444444" text-anchor="middle">0</text>
<rect x="1306" y="1890" width="28" height="48" rx="8" fill="#f1f3f5"/>
<rect x="1306" y="1929.11" width="28" height="4.89" rx="8" fill="#3498db"/>
<text x="1320" y="1958" font-size="13" fill="#444444" text-anchor="middle">1</text>
<rect x="1354" y="1890" width="28" height="48" rx="8" fill="#f1f3f5"/>
<rect x="1354" y="1924.22" width="28" height="9.78" rx="8" fill="#3498db"/>
<text x="1368" y="1958" font-size="13" fill="#444444" text-anchor="middle">2</text>
<rect x="1402" y="1890" width="28" height="48" rx="8" fill="#f1f3f5"/>
<rect x="1402" y="1924.22" width="28" height="9.78" rx="8" fill="#3498db"/>
<text x="1416" y="1958" font-size="13" fill="#444444" text-anchor="middle">2</text>
<rect x="1450" y="1890" width="28" height="48" rx="8" fill="#f1f3f5"/>
<rect x="1450" y="1934.00" width="28" height="0.00" rx="8" fill="#3498db"/>
<text x="1464" y="1958" font-size="13" fill="#444444" text-anchor="middle">0</text>
<rect x="1498" y="1890" width="28" height="48" rx="8" fill="#f1f3f5"/>
<rect x="1498" y="1919.33" width="28" height="14.67" rx="8" fill="#3498db"/>
<text x="1512" y="1958" font-size="13" fill="#444444" text-anchor="middle">3</text>
<rect x="1546" y="1890" width="28" height="48" rx="8" fill="#f1f3f5"/>
<rect x="1546" y="1890.00" width="28" height="44.00" rx="8" fill="#3498db"/>
<text x="1560" y="1958" font-size="13" fill="#444444" text-anchor="middle">9</text>
<rect x="1594" y="1890" width="28" height="48" rx="8" fill="#f1f3f5"/>
<rect x="1594" y="1914.44" width="28" height="19.56" rx="8" fill="#3498db"/>
<text x="1608" y="1958" font-size="13" fill="#444444" text-anchor="middle">4</text>
<text x="954" y="2004" font-size="22" font-weight="700" fill="#27ae60">2024</text>
<text x="1022" y="2004" font-size="16" fill="#666666">全年 6 次</text>
<rect x="1066" y="1986" width="28" height="48" rx="8" fill="#f1f3f5"/>
<rect x="1066" y="2030.00" width="28" height="0.00" rx="8" fill="#27ae60"/>
<text x="1080" y="2054" font-size="13" fill="#444444" text-anchor="middle">0</text>
<rect x="1114" y="1986" width="28" height="48" rx="8" fill="#f1f3f5"/>
<rect x="1114" y="2025.11" width="28" height="4.89" rx="8" fill="#27ae60"/>
<text x="1128" y="2054" font-size="13" fill="#444444" text-anchor="middle">1</text>
<rect x="1162" y="1986" width="28" height="48" rx="8" fill="#f1f3f5"/>
<rect x="1162" y="2025.11" width="28" height="4.89" rx="8" fill="#27ae60"/>
<text x="1176" y="2054" font-size="13" fill="#444444" text-anchor="middle">1</text>
<rect x="1210" y="1986" width="28" height="48" rx="8" fill="#f1f3f5"/>
<rect x="1210" y="2030.00" width="28" height="0.00" rx="8" fill="#27ae60"/>
<text x="1224" y="2054" font-size="13" fill="#444444" text-anchor="middle">0</text>
<rect x="1258" y="1986" width="28" height="48" rx="8" fill="#f1f3f5"/>
<rect x="1258" y="2025.11" width="28" height="4.89" rx="8" fill="#27ae60"/>
<text x="1272" y="2054" font-size="13" fill="#444444" text-anchor="middle">1</text>
<rect x="1306" y="1986" width="28" height="48" rx="8" fill="#f1f3f5"/>
<rect x="1306" y="2030.00" width="28" height="0.00" rx="8" fill="#27ae60"/>
<text x="1320" y="2054" font-size="13" fill="#444444" text-anchor="middle">0</text>
<rect x="1354" y="1986" width="28" height="48" rx="8" fill="#f1f3f5"/>
<rect x="1354" y="2030.00" width="28" height="0.00" rx="8" fill="#27ae60"/>
<text x="1368" y="2054" font-size="13" fill="#444444" text-anchor="middle">0</text>
<rect x="1402" y="1986" width="28" height="48" rx="8" fill="#f1f3f5"/>
<rect x="1402" y="2030.00" width="28" height="0.00" rx="8" fill="#27ae60"/>
<text x="1416" y="2054" font-size="13" fill="#444444" text-anchor="middle">0</text>
<rect x="1450" y="1986" width="28" height="48" rx="8" fill="#f1f3f5"/>
<rect x="1450" y="2030.00" width="28" height="0.00" rx="8" fill="#27ae60"/>
<text x="1464" y="2054" font-size="13" fill="#444444" text-anchor="middle">0</text>
<rect x="1498" y="1986" width="28" height="48" rx="8" fill="#f1f3f5"/>
<rect x="1498" y="2025.11" width="28" height="4.89" rx="8" fill="#27ae60"/>
<text x="1512" y="2054" font-size="13" fill="#444444" text-anchor="middle">1</text>
<rect x="1546" y="1986" width="28" height="48" rx="8" fill="#f1f3f5"/>
<rect x="1546" y="2025.11" width="28" height="4.89" rx="8" fill="#27ae60"/>
<text x="1560" y="2054" font-size="13" fill="#444444" text-anchor="middle">1</text>
<rect x="1594" y="1986" width="28" height="48" rx="8" fill="#f1f3f5"/>
<rect x="1594" y="2025.11" width="28" height="4.89" rx="8" fill="#27ae60"/>
<text x="1608" y="2054" font-size="13" fill="#444444" text-anchor="middle">1</text>
<text x="954" y="2090" font-size="16" fill="#333333">2026 Top月份: 4月 7 / 2月 5 / 3月 2</text>
<text x="954" y="2120" font-size="16" fill="#333333">2025 Top月份: 11月 9 / 2月 4 / 4月 4</text>
<text x="954" y="2150" font-size="16" fill="#333333">2024 Top月份: 2月 1 / 3月 1 / 5月 1</text>
<rect x="48" y="2240" width="1704" height="980" rx="20" fill="#ffffff" stroke="#ebedf0"/>
<text x="72" y="2276" font-size="26" font-weight="700" fill="#111111">十倍前振幅排行榜 Top 10（同时显示对应倍数）</text>
<text x="72" y="2306" font-size="16" fill="#666666">按命中事件中十倍前一根K线的振幅排序</text>
<text x="72" y="2366" font-size="16" font-weight="600" fill="#111111">1. BEAT-USDT-SWAP 2025-11-20 21:00:00</text>
<rect x="568" y="2350" width="320" height="16" rx="8" fill="#eef1f5"/>
<rect x="568" y="2350" width="320.00" height="16" rx="8" fill="#16a085"/>
<text x="904" y="2364" font-size="14" fill="#333333">11.65% | 倍数 14.05x</text>
<text x="92" y="2388" font-size="13" fill="#666666">前涨跌 8.01% | 成交量 3.61x</text>
<text x="72" y="2444" font-size="16" font-weight="600" fill="#111111">2. IP-USDT-SWAP 2025-02-21 04:00:00</text>
<rect x="568" y="2428" width="320" height="16" rx="8" fill="#eef1f5"/>
<rect x="568" y="2428" width="233.15" height="16" rx="8" fill="#16a085"/>
<text x="904" y="2442" font-size="14" fill="#333333">8.49% | 倍数 15.80x</text>
<text x="92" y="2466" font-size="13" fill="#666666">前涨跌 3.56% | 成交量 2.13x</text>
<text x="72" y="2522" font-size="16" font-weight="600" fill="#111111">3. PIEVERSE-USDT-SWAP 2025-11-21 02:00:00</text>
<rect x="568" y="2506" width="320" height="16" rx="8" fill="#eef1f5"/>
<rect x="568" y="2506" width="228.73" height="16" rx="8" fill="#16a085"/>
<text x="904" y="2520" font-size="14" fill="#333333">8.33% | 倍数 10.96x</text>
<text x="92" y="2544" font-size="13" fill="#666666">前涨跌 4.52% | 成交量 4.06x</text>
<text x="72" y="2600" font-size="16" font-weight="600" fill="#111111">4. MON-USDT-SWAP 2025-11-05 05:00:00</text>
<rect x="568" y="2584" width="320" height="16" rx="8" fill="#eef1f5"/>
<rect x="568" y="2584" width="204.88" height="16" rx="8" fill="#16a085"/>
<text x="904" y="2598" font-size="14" fill="#333333">7.46% | 倍数 11.89x</text>
<text x="92" y="2622" font-size="13" fill="#666666">前涨跌 2.28% | 成交量 23.02x</text>
<text x="72" y="2678" font-size="16" font-weight="600" fill="#111111">5. YGG-USDT-SWAP 2025-10-15 13:00:00</text>
<rect x="568" y="2662" width="320" height="16" rx="8" fill="#eef1f5"/>
<rect x="568" y="2662" width="193.12" height="16" rx="8" fill="#16a085"/>
<text x="904" y="2676" font-size="14" fill="#333333">7.03% | 倍数 10.89x</text>
<text x="92" y="2700" font-size="13" fill="#666666">前涨跌 3.27% | 成交量 12.75x</text>
<text x="72" y="2756" font-size="16" font-weight="600" fill="#111111">6. KAITO-USDT-SWAP 2025-02-21 05:00:00</text>
<rect x="568" y="2740" width="320" height="16" rx="8" fill="#eef1f5"/>
<rect x="568" y="2740" width="188.58" height="16" rx="8" fill="#16a085"/>
<text x="904" y="2754" font-size="14" fill="#333333">6.87% | 倍数 10.41x</text>
<text x="92" y="2778" font-size="13" fill="#666666">前涨跌 1.66% | 成交量 4.49x</text>
<text x="72" y="2834" font-size="16" font-weight="600" fill="#111111">7. MOODENG-USDT-SWAP 2025-12-07 05:00:00</text>
<rect x="568" y="2818" width="320" height="16" rx="8" fill="#eef1f5"/>
<rect x="568" y="2818" width="135.51" height="16" rx="8" fill="#16a085"/>
<text x="904" y="2832" font-size="14" fill="#333333">4.94% | 倍数 37.12x</text>
<text x="92" y="2856" font-size="13" fill="#666666">前涨跌 3.41% | 成交量 28.87x</text>
<text x="72" y="2912" font-size="16" font-weight="600" fill="#111111">8. PEOPLE-USDT-SWAP 2025-11-08 00:00:00</text>
<rect x="568" y="2896" width="320" height="16" rx="8" fill="#eef1f5"/>
<rect x="568" y="2896" width="135.50" height="16" rx="8" fill="#16a085"/>
<text x="904" y="2910" font-size="14" fill="#333333">4.93% | 倍数 11.07x</text>
<text x="92" y="2934" font-size="13" fill="#666666">前涨跌 3.45% | 成交量 14.12x</text>
<text x="72" y="2990" font-size="16" font-weight="600" fill="#111111">9. TURBO-USDT-SWAP 2024-03-02 11:00:00</text>
<rect x="568" y="2974" width="320" height="16" rx="8" fill="#eef1f5"/>
<rect x="568" y="2974" width="112.95" height="16" rx="8" fill="#16a085"/>
<text x="904" y="2988" font-size="14" fill="#333333">4.11% | 倍数 10.36x</text>
<text x="92" y="3012" font-size="13" fill="#666666">前涨跌 1.98% | 成交量 16.62x</text>
<text x="72" y="3068" font-size="16" font-weight="600" fill="#111111">10. SUSHI-USDT-SWAP 2023-11-02 02:00:00</text>
<rect x="568" y="3052" width="320" height="16" rx="8" fill="#eef1f5"/>
<rect x="568" y="3052" width="107.94" height="16" rx="8" fill="#16a085"/>
<text x="904" y="3066" font-size="14" fill="#333333">3.93% | 倍数 10.67x</text>
<text x="92" y="3090" font-size="13" fill="#666666">前涨跌 2.03% | 成交量 9.67x</text>
<rect x="48" y="3260" width="1704" height="650" rx="20" fill="#ffffff" stroke="#ebedf0"/>
<text x="72" y="3296" font-size="26" font-weight="700" fill="#111111">收盘相对10倍价偏离幅度排行榜 Top 10（从低到高）</text>
<text x="72" y="3326" font-size="16" fill="#666666">按收盘相对10倍价的偏离涨跌幅从低到高排序</text>
<text x="72" y="3386" font-size="15" font-weight="600" fill="#111111">1. MON-USDT-SWAP 2025-11-05 05:00:00</text>
<rect x="608" y="3370" width="220" height="16" rx="8" fill="#eef1f5"/>
<rect x="608" y="3370" width="220.00" height="16" rx="8" fill="#e74c3c"/>
<text x="844" y="3384" font-size="14" fill="#333333">偏离 -29.05%</text>
<text x="92" y="3406" font-size="13" fill="#666666">收盘低于10倍价 | 前振幅 7.46% | 前涨跌 2.28% | 成交量 23.02x</text>
<text x="72" y="3438" font-size="15" font-weight="600" fill="#111111">2. BEAT-USDT-SWAP 2025-11-20 21:00:00</text>
<rect x="608" y="3422" width="220" height="16" rx="8" fill="#eef1f5"/>
<rect x="608" y="3422" width="201.99" height="16" rx="8" fill="#e74c3c"/>
<text x="844" y="3436" font-size="14" fill="#333333">偏离 -26.68%</text>
<text x="92" y="3458" font-size="13" fill="#666666">收盘低于10倍价 | 前振幅 11.65% | 前涨跌 8.01% | 成交量 3.61x</text>
<text x="72" y="3490" font-size="15" font-weight="600" fill="#111111">3. ANIME-USDT-SWAP 2025-11-22 04:00:00</text>
<rect x="608" y="3474" width="220" height="16" rx="8" fill="#eef1f5"/>
<rect x="608" y="3474" width="157.10" height="16" rx="8" fill="#e74c3c"/>
<text x="844" y="3488" font-size="14" fill="#333333">偏离 -20.75%</text>
<text x="92" y="3510" font-size="13" fill="#666666">收盘低于10倍价 | 前振幅 2.94% | 前涨跌 2.08% | 成交量 17.84x</text>
<text x="72" y="3542" font-size="15" font-weight="600" fill="#111111">4. MOODENG-USDT-SWAP 2025-12-07 05:00:00</text>
<rect x="608" y="3526" width="220" height="16" rx="8" fill="#eef1f5"/>
<rect x="608" y="3526" width="155.29" height="16" rx="8" fill="#e74c3c"/>
<text x="844" y="3540" font-size="14" fill="#333333">偏离 -20.51%</text>
<text x="92" y="3562" font-size="13" fill="#666666">收盘低于10倍价 | 前振幅 4.94% | 前涨跌 3.41% | 成交量 28.87x</text>
<text x="72" y="3594" font-size="15" font-weight="600" fill="#111111">5. YGG-USDT-SWAP 2025-10-15 13:00:00</text>
<rect x="608" y="3578" width="220" height="16" rx="8" fill="#eef1f5"/>
<rect x="608" y="3578" width="149.71" height="16" rx="8" fill="#e74c3c"/>
<text x="844" y="3592" font-size="14" fill="#333333">偏离 -19.77%</text>
<text x="92" y="3614" font-size="13" fill="#666666">收盘低于10倍价 | 前振幅 7.03% | 前涨跌 3.27% | 成交量 12.75x</text>
<text x="72" y="3646" font-size="15" font-weight="600" fill="#111111">6. KAITO-USDT-SWAP 2025-02-21 05:00:00</text>
<rect x="608" y="3630" width="220" height="16" rx="8" fill="#eef1f5"/>
<rect x="608" y="3630" width="148.14" height="16" rx="8" fill="#e74c3c"/>
<text x="844" y="3644" font-size="14" fill="#333333">偏离 -19.56%</text>
<text x="92" y="3666" font-size="13" fill="#666666">收盘低于10倍价 | 前振幅 6.87% | 前涨跌 1.66% | 成交量 4.49x</text>
<text x="72" y="3698" font-size="15" font-weight="600" fill="#111111">7. IP-USDT-SWAP 2025-02-21 04:00:00</text>
<rect x="608" y="3682" width="220" height="16" rx="8" fill="#eef1f5"/>
<rect x="608" y="3682" width="115.59" height="16" rx="8" fill="#e74c3c"/>
<text x="844" y="3696" font-size="14" fill="#333333">偏离 -15.27%</text>
<text x="92" y="3718" font-size="13" fill="#666666">收盘低于10倍价 | 前振幅 8.49% | 前涨跌 3.56% | 成交量 2.13x</text>
<text x="72" y="3750" font-size="15" font-weight="600" fill="#111111">8. MOVE-USDT-SWAP 2026-02-12 16:00:00</text>
<rect x="608" y="3734" width="220" height="16" rx="8" fill="#eef1f5"/>
<rect x="608" y="3734" width="108.10" height="16" rx="8" fill="#e74c3c"/>
<text x="844" y="3748" font-size="14" fill="#333333">偏离 -14.28%</text>
<text x="92" y="3770" font-size="13" fill="#666666">收盘低于10倍价 | 前振幅 2.57% | 前涨跌 1.33% | 成交量 10.67x</text>
<text x="72" y="3802" font-size="15" font-weight="600" fill="#111111">9. FLOW-USDT-SWAP 2026-02-06 23:00:00</text>
<rect x="608" y="3786" width="220" height="16" rx="8" fill="#eef1f5"/>
<rect x="608" y="3786" width="105.31" height="16" rx="8" fill="#e74c3c"/>
<text x="844" y="3800" font-size="14" fill="#333333">偏离 -13.91%</text>
<text x="92" y="3822" font-size="13" fill="#666666">收盘低于10倍价 | 前振幅 2.71% | 前涨跌 2.16% | 成交量 4.87x</text>
<text x="72" y="3854" font-size="15" font-weight="600" fill="#111111">10. OL-USDT-SWAP 2026-04-17 00:00:00</text>
<rect x="608" y="3838" width="220" height="16" rx="8" fill="#eef1f5"/>
<rect x="608" y="3838" width="104.02" height="16" rx="8" fill="#e74c3c"/>
<text x="844" y="3852" font-size="14" fill="#333333">偏离 -13.74%</text>
<text x="92" y="3874" font-size="13" fill="#666666">收盘低于10倍价 | 前振幅 3.68% | 前涨跌 1.31% | 成交量 62.10x</text>
</svg>