<svg xmlns="http://www.w3.org/2000/svg" width="1400" height="760" viewBox="0 0 1400 760">
<rect width="100%" height="100%" fill="#fcfcfc"/>
<text x="90" y="36" font-size="26" font-weight="700" fill="#111111">BERA-USDT-SWAP 1H - 9倍命中</text>
<line x1="90" y1="70.00" x2="1360" y2="70.00" stroke="#d9d9d9" stroke-dasharray="4 4" stroke-width="1"/>
<text x="12" y="74.00" font-size="12" fill="#555555">0.666900</text>
<line x1="90" y1="186.00" x2="1360" y2="186.00" stroke="#d9d9d9" stroke-dasharray="4 4" stroke-width="1"/>
<text x="12" y="190.00" font-size="12" fill="#555555">0.611660</text>
<line x1="90" y1="302.00" x2="1360" y2="302.00" stroke="#d9d9d9" stroke-dasharray="4 4" stroke-width="1"/>
<text x="12" y="306.00" font-size="12" fill="#555555">0.556420</text>
<line x1="90" y1="418.00" x2="1360" y2="418.00" stroke="#d9d9d9" stroke-dasharray="4 4" stroke-width="1"/>
<text x="12" y="422.00" font-size="12" fill="#555555">0.501180</text>
<line x1="90" y1="534.00" x2="1360" y2="534.00" stroke="#d9d9d9" stroke-dasharray="4 4" stroke-width="1"/>
<text x="12" y="538.00" font-size="12" fill="#555555">0.445940</text>
<line x1="90" y1="650.00" x2="1360" y2="650.00" stroke="#d9d9d9" stroke-dasharray="4 4" stroke-width="1"/>
<text x="12" y="654.00" font-size="12" fill="#555555">0.390700</text>
<rect x="687.65" y="70" width="74.71" height="580.00" fill="#f1c40f" opacity="0.16"/>
<rect x="612.94" y="70" width="74.71" height="580.00" fill="#3498db" opacity="0.10"/>
<line x1="127.35" y1="636.14" x2="127.35" y2="649.16" stroke="#e74c3c" stroke-width="2"/>
<rect x="105.69" y="641.81" width="43.33" height="3.57" fill="#e74c3c" stroke="#e74c3c" stroke-width="1"/>
<text x="127.35" y="704" font-size="11" fill="#555555" text-anchor="middle">02-06</text>
<text x="127.35" y="720" font-size="11" fill="#555555" text-anchor="middle">18:00</text>
<line x1="202.06" y1="633.41" x2="202.06" y2="650.00" stroke="#2ecc71" stroke-width="2"/>
<rect x="180.39" y="641.81" width="43.33" height="3.78" fill="#2ecc71" stroke="#2ecc71" stroke-width="1"/>
<text x="202.06" y="704" font-size="11" fill="#555555" text-anchor="middle">02-06</text>
<text x="202.06" y="720" font-size="11" fill="#555555" text-anchor="middle">19:00</text>
<line x1="276.76" y1="636.56" x2="276.76" y2="645.59" stroke="#2ecc71" stroke-width="2"/>
<rect x="255.10" y="638.66" width="43.33" height="3.36" fill="#2ecc71" stroke="#2ecc71" stroke-width="1"/>
<text x="276.76" y="704" font-size="11" fill="#555555" text-anchor="middle">02-06</text>
<text x="276.76" y="720" font-size="11" fill="#555555" text-anchor="middle">20:00</text>
<line x1="351.47" y1="622.91" x2="351.47" y2="640.55" stroke="#2ecc71" stroke-width="2"/>
<rect x="329.81" y="629.21" width="43.33" height="9.66" fill="#2ecc71" stroke="#2ecc71" stroke-width="1"/>
<text x="351.47" y="704" font-size="11" fill="#555555" text-anchor="middle">02-06</text>
<text x="351.47" y="720" font-size="11" fill="#555555" text-anchor="middle">21:00</text>
<line x1="426.18" y1="579.23" x2="426.18" y2="635.93" stroke="#2ecc71" stroke-width="2"/>
<rect x="404.51" y="606.32" width="43.33" height="22.89" fill="#2ecc71" stroke="#2ecc71" stroke-width="1"/>
<text x="426.18" y="704" font-size="11" fill="#555555" text-anchor="middle">02-06</text>
<text x="426.18" y="720" font-size="11" fill="#555555" text-anchor="middle">22:00</text>
<line x1="500.88" y1="594.14" x2="500.88" y2="616.82" stroke="#e74c3c" stroke-width="2"/>
<rect x="479.22" y="605.27" width="43.33" height="5.46" fill="#e74c3c" stroke="#e74c3c" stroke-width="1"/>
<text x="500.88" y="704" font-size="11" fill="#555555" text-anchor="middle">02-06</text>
<text x="500.88" y="720" font-size="11" fill="#555555" text-anchor="middle">23:00</text>
<line x1="575.59" y1="587.63" x2="575.59" y2="615.35" stroke="#2ecc71" stroke-width="2"/>
<rect x="553.92" y="592.25" width="43.33" height="18.48" fill="#2ecc71" stroke="#2ecc71" stroke-width="1"/>
<text x="575.59" y="704" font-size="11" fill="#555555" text-anchor="middle">02-07</text>
<text x="575.59" y="720" font-size="11" fill="#555555" text-anchor="middle">00:00</text>
<line x1="650.29" y1="545.63" x2="650.29" y2="597.29" stroke="#2ecc71" stroke-width="2"/>
<rect x="628.63" y="554.87" width="43.33" height="38.01" fill="#2ecc71" stroke="#2ecc71" stroke-width="1"/>
<text x="650.29" y="704" font-size="11" fill="#555555" text-anchor="middle">02-07</text>
<text x="650.29" y="720" font-size="11" fill="#555555" text-anchor="middle">01:00</text>
<line x1="725.00" y1="70.00" x2="725.00" y2="564.95" stroke="#2ecc71" stroke-width="2"/>
<rect x="703.34" y="387.51" width="43.33" height="167.36" fill="#2ecc71" stroke="#2ecc71" stroke-width="1"/>
<text x="725.00" y="704" font-size="11" fill="#555555" text-anchor="middle">02-07</text>
<text x="725.00" y="720" font-size="11" fill="#555555" text-anchor="middle">02:00</text>
<line x1="799.71" y1="353.91" x2="799.71" y2="443.37" stroke="#e74c3c" stroke-width="2"/>
<rect x="778.04" y="387.30" width="43.33" height="35.28" fill="#e74c3c" stroke="#e74c3c" stroke-width="1"/>
<text x="799.71" y="704" font-size="11" fill="#555555" text-anchor="middle">02-07</text>
<text x="799.71" y="720" font-size="11" fill="#555555" text-anchor="middle">03:00</text>
<line x1="874.41" y1="421.11" x2="874.41" y2="478.02" stroke="#e74c3c" stroke-width="2"/>
<rect x="852.75" y="422.58" width="43.33" height="40.32" fill="#e74c3c" stroke="#e74c3c" stroke-width="1"/>
<text x="874.41" y="704" font-size="11" fill="#555555" text-anchor="middle">02-07</text>
<text x="874.41" y="720" font-size="11" fill="#555555" text-anchor="middle">04:00</text>
<line x1="949.12" y1="359.58" x2="949.12" y2="493.35" stroke="#2ecc71" stroke-width="2"/>
<rect x="927.45" y="359.79" width="43.33" height="103.32" fill="#2ecc71" stroke="#2ecc71" stroke-width="1"/>
<text x="949.12" y="704" font-size="11" fill="#555555" text-anchor="middle">02-07</text>
<text x="949.12" y="720" font-size="11" fill="#555555" text-anchor="middle">05:00</text>
<line x1="1023.82" y1="239.67" x2="1023.82" y2="387.51" stroke="#2ecc71" stroke-width="2"/>
<rect x="1002.16" y="274.74" width="43.33" height="85.26" fill="#2ecc71" stroke="#2ecc71" stroke-width="1"/>
<text x="1023.82" y="704" font-size="11" fill="#555555" text-anchor="middle">02-07</text>
<text x="1023.82" y="720" font-size="11" fill="#555555" text-anchor="middle">06:00</text>
<line x1="1098.53" y1="271.17" x2="1098.53" y2="377.43" stroke="#e74c3c" stroke-width="2"/>
<rect x="1076.86" y="274.74" width="43.33" height="94.71" fill="#e74c3c" stroke="#e74c3c" stroke-width="1"/>
<text x="1098.53" y="704" font-size="11" fill="#555555" text-anchor="middle">02-07</text>
<text x="1098.53" y="720" font-size="11" fill="#555555" text-anchor="middle">07:00</text>
<line x1="1173.24" y1="327.45" x2="1173.24" y2="498.60" stroke="#e74c3c" stroke-width="2"/>
<rect x="1151.57" y="369.03" width="43.33" height="96.81" fill="#e74c3c" stroke="#e74c3c" stroke-width="1"/>
<text x="1173.24" y="704" font-size="11" fill="#555555" text-anchor="middle">02-07</text>
<text x="1173.24" y="720" font-size="11" fill="#555555" text-anchor="middle">08:00</text>
<line x1="1247.94" y1="455.55" x2="1247.94" y2="514.13" stroke="#e74c3c" stroke-width="2"/>
<rect x="1226.28" y="465.84" width="43.33" height="36.33" fill="#e74c3c" stroke="#e74c3c" stroke-width="1"/>
<text x="1247.94" y="704" font-size="11" fill="#555555" text-anchor="middle">02-07</text>
<text x="1247.94" y="720" font-size="11" fill="#555555" text-anchor="middle">09:00</text>
<line x1="1322.65" y1="495.24" x2="1322.65" y2="530.72" stroke="#e74c3c" stroke-width="2"/>
<rect x="1300.98" y="502.38" width="43.33" height="19.11" fill="#e74c3c" stroke="#e74c3c" stroke-width="1"/>
<text x="1322.65" y="704" font-size="11" fill="#555555" text-anchor="middle">02-07</text>
<text x="1322.65" y="720" font-size="11" fill="#555555" text-anchor="middle">10:00</text>
<line x1="725.00" y1="70.00" x2="805.00" y2="90.00" stroke="#f1c40f" stroke-width="2"/>
<rect x="805.00" y="42.00" width="220" height="72" rx="8" fill="#fff8dc" stroke="#f1c40f"/>
<text x="815.00" y="66.00" font-size="12" fill="#111111">目标K线 2026-02-07 02:00</text>
<text x="815.00" y="84.00" font-size="12" fill="#111111">振幅 54.06%</text>
<text x="815.00" y="102.00" font-size="12" fill="#111111">倍数 9.18x</text>
<line x1="650.29" y1="545.63" x2="620.29" y2="505.63" stroke="#3498db" stroke-width="2"/>
<rect x="400.29" y="469.63" width="220" height="58" rx="8" fill="#eef6ff" stroke="#3498db"/>
<text x="410.29" y="491.63" font-size="12" fill="#111111">前一根涨幅 4.33%</text>
<text x="410.29" y="509.63" font-size="12" fill="#111111">前一根振幅 5.89%</text>
</svg>