<svg xmlns="http://www.w3.org/2000/svg" width="1400" height="760" viewBox="0 0 1400 760">
<rect width="100%" height="100%" fill="#fcfcfc"/>
<text x="90" y="36" font-size="26" font-weight="700" fill="#111111">BICO-USDT-SWAP 1H - 9倍命中</text>
<line x1="90" y1="70.00" x2="1360" y2="70.00" stroke="#d9d9d9" stroke-dasharray="4 4" stroke-width="1"/>
<text x="12" y="74.00" font-size="12" fill="#555555">0.595200</text>
<line x1="90" y1="186.00" x2="1360" y2="186.00" stroke="#d9d9d9" stroke-dasharray="4 4" stroke-width="1"/>
<text x="12" y="190.00" font-size="12" fill="#555555">0.575680</text>
<line x1="90" y1="302.00" x2="1360" y2="302.00" stroke="#d9d9d9" stroke-dasharray="4 4" stroke-width="1"/>
<text x="12" y="306.00" font-size="12" fill="#555555">0.556160</text>
<line x1="90" y1="418.00" x2="1360" y2="418.00" stroke="#d9d9d9" stroke-dasharray="4 4" stroke-width="1"/>
<text x="12" y="422.00" font-size="12" fill="#555555">0.536640</text>
<line x1="90" y1="534.00" x2="1360" y2="534.00" stroke="#d9d9d9" stroke-dasharray="4 4" stroke-width="1"/>
<text x="12" y="538.00" font-size="12" fill="#555555">0.517120</text>
<line x1="90" y1="650.00" x2="1360" y2="650.00" stroke="#d9d9d9" stroke-dasharray="4 4" stroke-width="1"/>
<text x="12" y="654.00" font-size="12" fill="#555555">0.497600</text>
<rect x="687.65" y="70" width="74.71" height="580.00" fill="#f1c40f" opacity="0.16"/>
<rect x="612.94" y="70" width="74.71" height="580.00" fill="#3498db" opacity="0.10"/>
<line x1="127.35" y1="548.98" x2="127.35" y2="650.00" stroke="#2ecc71" stroke-width="2"/>
<rect x="105.69" y="560.86" width="43.33" height="61.21" fill="#2ecc71" stroke="#2ecc71" stroke-width="1"/>
<text x="127.35" y="704" font-size="11" fill="#555555" text-anchor="middle">03-02</text>
<text x="127.35" y="720" font-size="11" fill="#555555" text-anchor="middle">13:00</text>
<line x1="202.06" y1="447.36" x2="202.06" y2="593.55" stroke="#2ecc71" stroke-width="2"/>
<rect x="180.39" y="492.52" width="43.33" height="66.56" fill="#2ecc71" stroke="#2ecc71" stroke-width="1"/>
<text x="202.06" y="704" font-size="11" fill="#555555" text-anchor="middle">03-02</text>
<text x="202.06" y="720" font-size="11" fill="#555555" text-anchor="middle">14:00</text>
<line x1="276.76" y1="403.98" x2="276.76" y2="562.05" stroke="#e74c3c" stroke-width="2"/>
<rect x="255.10" y="492.52" width="43.33" height="57.05" fill="#e74c3c" stroke="#e74c3c" stroke-width="1"/>
<text x="276.76" y="704" font-size="11" fill="#555555" text-anchor="middle">03-02</text>
<text x="276.76" y="720" font-size="11" fill="#555555" text-anchor="middle">15:00</text>
<line x1="351.47" y1="540.66" x2="351.47" y2="620.88" stroke="#e74c3c" stroke-width="2"/>
<rect x="329.81" y="550.16" width="43.33" height="57.64" fill="#e74c3c" stroke="#e74c3c" stroke-width="1"/>
<text x="351.47" y="704" font-size="11" fill="#555555" text-anchor="middle">03-02</text>
<text x="351.47" y="720" font-size="11" fill="#555555" text-anchor="middle">16:00</text>
<line x1="426.18" y1="586.41" x2="426.18" y2="644.65" stroke="#2ecc71" stroke-width="2"/>
<rect x="404.51" y="594.14" width="43.33" height="13.07" fill="#2ecc71" stroke="#2ecc71" stroke-width="1"/>
<text x="426.18" y="704" font-size="11" fill="#555555" text-anchor="middle">03-02</text>
<text x="426.18" y="720" font-size="11" fill="#555555" text-anchor="middle">17:00</text>
<line x1="500.88" y1="594.73" x2="500.88" y2="636.93" stroke="#e74c3c" stroke-width="2"/>
<rect x="479.22" y="594.73" width="43.33" height="34.47" fill="#e74c3c" stroke="#e74c3c" stroke-width="1"/>
<text x="500.88" y="704" font-size="11" fill="#555555" text-anchor="middle">03-02</text>
<text x="500.88" y="720" font-size="11" fill="#555555" text-anchor="middle">18:00</text>
<line x1="575.59" y1="588.20" x2="575.59" y2="630.39" stroke="#2ecc71" stroke-width="2"/>
<rect x="553.92" y="610.18" width="43.33" height="15.45" fill="#2ecc71" stroke="#2ecc71" stroke-width="1"/>
<text x="575.59" y="704" font-size="11" fill="#555555" text-anchor="middle">03-02</text>
<text x="575.59" y="720" font-size="11" fill="#555555" text-anchor="middle">19:00</text>
<line x1="650.29" y1="560.27" x2="650.29" y2="614.94" stroke="#2ecc71" stroke-width="2"/>
<rect x="628.63" y="578.09" width="43.33" height="31.50" fill="#2ecc71" stroke="#2ecc71" stroke-width="1"/>
<text x="650.29" y="704" font-size="11" fill="#555555" text-anchor="middle">03-02</text>
<text x="650.29" y="720" font-size="11" fill="#555555" text-anchor="middle">20:00</text>
<line x1="725.00" y1="106.84" x2="725.00" y2="628.01" stroke="#2ecc71" stroke-width="2"/>
<rect x="703.34" y="184.10" width="43.33" height="394.00" fill="#2ecc71" stroke="#2ecc71" stroke-width="1"/>
<text x="725.00" y="704" font-size="11" fill="#555555" text-anchor="middle">03-02</text>
<text x="725.00" y="720" font-size="11" fill="#555555" text-anchor="middle">21:00</text>
<line x1="799.71" y1="70.00" x2="799.71" y2="480.64" stroke="#e74c3c" stroke-width="2"/>
<rect x="778.04" y="184.69" width="43.33" height="196.70" fill="#e74c3c" stroke="#e74c3c" stroke-width="1"/>
<text x="799.71" y="704" font-size="11" fill="#555555" text-anchor="middle">03-02</text>
<text x="799.71" y="720" font-size="11" fill="#555555" text-anchor="middle">22:00</text>
<line x1="874.41" y1="337.42" x2="874.41" y2="493.11" stroke="#e74c3c" stroke-width="2"/>
<rect x="852.75" y="381.99" width="43.33" height="98.65" fill="#e74c3c" stroke="#e74c3c" stroke-width="1"/>
<text x="874.41" y="704" font-size="11" fill="#555555" text-anchor="middle">03-02</text>
<text x="874.41" y="720" font-size="11" fill="#555555" text-anchor="middle">23:00</text>
<line x1="949.12" y1="458.05" x2="949.12" y2="516.89" stroke="#e74c3c" stroke-width="2"/>
<rect x="927.45" y="480.64" width="43.33" height="6.54" fill="#e74c3c" stroke="#e74c3c" stroke-width="1"/>
<text x="949.12" y="704" font-size="11" fill="#555555" text-anchor="middle">03-03</text>
<text x="949.12" y="720" font-size="11" fill="#555555" text-anchor="middle">00:00</text>
<line x1="1023.82" y1="347.52" x2="1023.82" y2="487.77" stroke="#2ecc71" stroke-width="2"/>
<rect x="1002.16" y="419.43" width="43.33" height="67.75" fill="#2ecc71" stroke="#2ecc71" stroke-width="1"/>
<text x="1023.82" y="704" font-size="11" fill="#555555" text-anchor="middle">03-03</text>
<text x="1023.82" y="720" font-size="11" fill="#555555" text-anchor="middle">01:00</text>
<line x1="1098.53" y1="409.32" x2="1098.53" y2="442.01" stroke="#2ecc71" stroke-width="2"/>
<rect x="1076.86" y="419.43" width="43.33" height="1.20" fill="#2ecc71" stroke="#2ecc71" stroke-width="1"/>
<text x="1098.53" y="704" font-size="11" fill="#555555" text-anchor="middle">03-03</text>
<text x="1098.53" y="720" font-size="11" fill="#555555" text-anchor="middle">02:00</text>
<line x1="1173.24" y1="372.48" x2="1173.24" y2="426.56" stroke="#2ecc71" stroke-width="2"/>
<rect x="1151.57" y="390.90" width="43.33" height="27.34" fill="#2ecc71" stroke="#2ecc71" stroke-width="1"/>
<text x="1173.24" y="704" font-size="11" fill="#555555" text-anchor="middle">03-03</text>
<text x="1173.24" y="720" font-size="11" fill="#555555" text-anchor="middle">03:00</text>
<line x1="1247.94" y1="249.47" x2="1247.94" y2="425.37" stroke="#2ecc71" stroke-width="2"/>
<rect x="1226.28" y="334.45" width="43.33" height="57.05" fill="#2ecc71" stroke="#2ecc71" stroke-width="1"/>
<text x="1247.94" y="704" font-size="11" fill="#555555" text-anchor="middle">03-03</text>
<text x="1247.94" y="720" font-size="11" fill="#555555" text-anchor="middle">04:00</text>
<line x1="1322.65" y1="333.26" x2="1322.65" y2="377.23" stroke="#e74c3c" stroke-width="2"/>
<rect x="1300.98" y="335.04" width="43.33" height="15.45" fill="#e74c3c" stroke="#e74c3c" stroke-width="1"/>
<text x="1322.65" y="704" font-size="11" fill="#555555" text-anchor="middle">03-03</text>
<text x="1322.65" y="720" font-size="11" fill="#555555" text-anchor="middle">05:00</text>
<line x1="725.00" y1="106.84" x2="805.00" y2="90.00" stroke="#f1c40f" stroke-width="2"/>
<rect x="805.00" y="42.00" width="220" height="72" rx="8" fill="#fff8dc" stroke="#f1c40f"/>
<text x="815.00" y="66.00" font-size="12" fill="#111111">目标K线 2024-03-02 21:00</text>
<text x="815.00" y="84.00" font-size="12" fill="#111111">振幅 17.21%</text>
<text x="815.00" y="102.00" font-size="12" fill="#111111">倍数 9.43x</text>
<line x1="650.29" y1="560.27" x2="620.29" y2="520.27" stroke="#3498db" stroke-width="2"/>
<rect x="400.29" y="484.27" width="220" height="58" rx="8" fill="#eef6ff" stroke="#3498db"/>
<text x="410.29" y="506.27" font-size="12" fill="#111111">前一根涨幅 1.05%</text>
<text x="410.29" y="524.27" font-size="12" fill="#111111">前一根振幅 1.82%</text>
</svg>