<svg xmlns="http://www.w3.org/2000/svg" width="1400" height="760" viewBox="0 0 1400 760">
<rect width="100%" height="100%" fill="#fcfcfc"/>
<text x="90" y="36" font-size="26" font-weight="700" fill="#111111">GRASS-USDT-SWAP 1H - 9倍命中</text>
<line x1="90" y1="70.00" x2="1360" y2="70.00" stroke="#d9d9d9" stroke-dasharray="4 4" stroke-width="1"/>
<text x="12" y="74.00" font-size="12" fill="#555555">1.709200</text>
<line x1="90" y1="186.00" x2="1360" y2="186.00" stroke="#d9d9d9" stroke-dasharray="4 4" stroke-width="1"/>
<text x="12" y="190.00" font-size="12" fill="#555555">1.636700</text>
<line x1="90" y1="302.00" x2="1360" y2="302.00" stroke="#d9d9d9" stroke-dasharray="4 4" stroke-width="1"/>
<text x="12" y="306.00" font-size="12" fill="#555555">1.564200</text>
<line x1="90" y1="418.00" x2="1360" y2="418.00" stroke="#d9d9d9" stroke-dasharray="4 4" stroke-width="1"/>
<text x="12" y="422.00" font-size="12" fill="#555555">1.491700</text>
<line x1="90" y1="534.00" x2="1360" y2="534.00" stroke="#d9d9d9" stroke-dasharray="4 4" stroke-width="1"/>
<text x="12" y="538.00" font-size="12" fill="#555555">1.419200</text>
<line x1="90" y1="650.00" x2="1360" y2="650.00" stroke="#d9d9d9" stroke-dasharray="4 4" stroke-width="1"/>
<text x="12" y="654.00" font-size="12" fill="#555555">1.346700</text>
<rect x="687.65" y="70" width="74.71" height="580.00" fill="#f1c40f" opacity="0.16"/>
<rect x="612.94" y="70" width="74.71" height="580.00" fill="#3498db" opacity="0.10"/>
<line x1="127.35" y1="529.84" x2="127.35" y2="568.88" stroke="#e74c3c" stroke-width="2"/>
<rect x="105.69" y="546.64" width="43.33" height="4.32" fill="#e74c3c" stroke="#e74c3c" stroke-width="1"/>
<text x="127.35" y="704" font-size="11" fill="#555555" text-anchor="middle">02-10</text>
<text x="127.35" y="720" font-size="11" fill="#555555" text-anchor="middle">00:00</text>
<line x1="202.06" y1="540.56" x2="202.06" y2="572.40" stroke="#e74c3c" stroke-width="2"/>
<rect x="180.39" y="551.28" width="43.33" height="13.44" fill="#e74c3c" stroke="#e74c3c" stroke-width="1"/>
<text x="202.06" y="704" font-size="11" fill="#555555" text-anchor="middle">02-10</text>
<text x="202.06" y="720" font-size="11" fill="#555555" text-anchor="middle">01:00</text>
<line x1="276.76" y1="539.60" x2="276.76" y2="573.20" stroke="#2ecc71" stroke-width="2"/>
<rect x="255.10" y="551.12" width="43.33" height="13.92" fill="#2ecc71" stroke="#2ecc71" stroke-width="1"/>
<text x="276.76" y="704" font-size="11" fill="#555555" text-anchor="middle">02-10</text>
<text x="276.76" y="720" font-size="11" fill="#555555" text-anchor="middle">02:00</text>
<line x1="351.47" y1="545.52" x2="351.47" y2="586.48" stroke="#e74c3c" stroke-width="2"/>
<rect x="329.81" y="551.28" width="43.33" height="31.36" fill="#e74c3c" stroke="#e74c3c" stroke-width="1"/>
<text x="351.47" y="704" font-size="11" fill="#555555" text-anchor="middle">02-10</text>
<text x="351.47" y="720" font-size="11" fill="#555555" text-anchor="middle">03:00</text>
<line x1="426.18" y1="538.32" x2="426.18" y2="586.80" stroke="#2ecc71" stroke-width="2"/>
<rect x="404.51" y="561.52" width="43.33" height="21.28" fill="#2ecc71" stroke="#2ecc71" stroke-width="1"/>
<text x="426.18" y="704" font-size="11" fill="#555555" text-anchor="middle">02-10</text>
<text x="426.18" y="720" font-size="11" fill="#555555" text-anchor="middle">04:00</text>
<line x1="500.88" y1="547.60" x2="500.88" y2="633.68" stroke="#e74c3c" stroke-width="2"/>
<rect x="479.22" y="561.20" width="43.33" height="69.44" fill="#e74c3c" stroke="#e74c3c" stroke-width="1"/>
<text x="500.88" y="704" font-size="11" fill="#555555" text-anchor="middle">02-10</text>
<text x="500.88" y="720" font-size="11" fill="#555555" text-anchor="middle">05:00</text>
<line x1="575.59" y1="539.28" x2="575.59" y2="650.00" stroke="#2ecc71" stroke-width="2"/>
<rect x="553.92" y="572.40" width="43.33" height="58.56" fill="#2ecc71" stroke="#2ecc71" stroke-width="1"/>
<text x="575.59" y="704" font-size="11" fill="#555555" text-anchor="middle">02-10</text>
<text x="575.59" y="720" font-size="11" fill="#555555" text-anchor="middle">06:00</text>
<line x1="650.29" y1="531.60" x2="650.29" y2="580.24" stroke="#2ecc71" stroke-width="2"/>
<rect x="628.63" y="532.72" width="43.33" height="40.48" fill="#2ecc71" stroke="#2ecc71" stroke-width="1"/>
<text x="650.29" y="704" font-size="11" fill="#555555" text-anchor="middle">02-10</text>
<text x="650.29" y="720" font-size="11" fill="#555555" text-anchor="middle">07:00</text>
<line x1="725.00" y1="70.00" x2="725.00" y2="536.88" stroke="#2ecc71" stroke-width="2"/>
<rect x="703.34" y="282.96" width="43.33" height="250.08" fill="#2ecc71" stroke="#2ecc71" stroke-width="1"/>
<text x="725.00" y="704" font-size="11" fill="#555555" text-anchor="middle">02-10</text>
<text x="725.00" y="720" font-size="11" fill="#555555" text-anchor="middle">08:00</text>
<line x1="799.71" y1="282.64" x2="799.71" y2="443.28" stroke="#e74c3c" stroke-width="2"/>
<rect x="778.04" y="282.64" width="43.33" height="141.44" fill="#e74c3c" stroke="#e74c3c" stroke-width="1"/>
<text x="799.71" y="704" font-size="11" fill="#555555" text-anchor="middle">02-10</text>
<text x="799.71" y="720" font-size="11" fill="#555555" text-anchor="middle">09:00</text>
<line x1="874.41" y1="422.16" x2="874.41" y2="561.68" stroke="#e74c3c" stroke-width="2"/>
<rect x="852.75" y="423.76" width="43.33" height="121.44" fill="#e74c3c" stroke="#e74c3c" stroke-width="1"/>
<text x="874.41" y="704" font-size="11" fill="#555555" text-anchor="middle">02-10</text>
<text x="874.41" y="720" font-size="11" fill="#555555" text-anchor="middle">10:00</text>
<line x1="949.12" y1="430.80" x2="949.12" y2="562.32" stroke="#2ecc71" stroke-width="2"/>
<rect x="927.45" y="446.32" width="43.33" height="97.76" fill="#2ecc71" stroke="#2ecc71" stroke-width="1"/>
<text x="949.12" y="704" font-size="11" fill="#555555" text-anchor="middle">02-10</text>
<text x="949.12" y="720" font-size="11" fill="#555555" text-anchor="middle">11:00</text>
<line x1="1023.82" y1="384.24" x2="1023.82" y2="463.76" stroke="#2ecc71" stroke-width="2"/>
<rect x="1002.16" y="412.88" width="43.33" height="34.08" fill="#2ecc71" stroke="#2ecc71" stroke-width="1"/>
<text x="1023.82" y="704" font-size="11" fill="#555555" text-anchor="middle">02-10</text>
<text x="1023.82" y="720" font-size="11" fill="#555555" text-anchor="middle">12:00</text>
<line x1="1098.53" y1="386.48" x2="1098.53" y2="450.48" stroke="#e74c3c" stroke-width="2"/>
<rect x="1076.86" y="413.52" width="43.33" height="23.20" fill="#e74c3c" stroke="#e74c3c" stroke-width="1"/>
<text x="1098.53" y="704" font-size="11" fill="#555555" text-anchor="middle">02-10</text>
<text x="1098.53" y="720" font-size="11" fill="#555555" text-anchor="middle">13:00</text>
<line x1="1173.24" y1="407.60" x2="1173.24" y2="466.00" stroke="#e74c3c" stroke-width="2"/>
<rect x="1151.57" y="436.08" width="43.33" height="25.28" fill="#e74c3c" stroke="#e74c3c" stroke-width="1"/>
<text x="1173.24" y="704" font-size="11" fill="#555555" text-anchor="middle">02-10</text>
<text x="1173.24" y="720" font-size="11" fill="#555555" text-anchor="middle">14:00</text>
<line x1="1247.94" y1="401.04" x2="1247.94" y2="462.16" stroke="#2ecc71" stroke-width="2"/>
<rect x="1226.28" y="444.40" width="43.33" height="17.44" fill="#2ecc71" stroke="#2ecc71" stroke-width="1"/>
<text x="1247.94" y="704" font-size="11" fill="#555555" text-anchor="middle">02-10</text>
<text x="1247.94" y="720" font-size="11" fill="#555555" text-anchor="middle">15:00</text>
<line x1="1322.65" y1="387.92" x2="1322.65" y2="459.60" stroke="#2ecc71" stroke-width="2"/>
<rect x="1300.98" y="416.72" width="43.33" height="27.04" fill="#2ecc71" stroke="#2ecc71" stroke-width="1"/>
<text x="1322.65" y="704" font-size="11" fill="#555555" text-anchor="middle">02-10</text>
<text x="1322.65" y="720" font-size="11" fill="#555555" text-anchor="middle">16:00</text>
<line x1="725.00" y1="70.00" x2="805.00" y2="90.00" stroke="#f1c40f" stroke-width="2"/>
<rect x="805.00" y="42.00" width="220" height="72" rx="8" fill="#fff8dc" stroke="#f1c40f"/>
<text x="815.00" y="66.00" font-size="12" fill="#111111">目标K线 2025-02-10 08:00</text>
<text x="815.00" y="84.00" font-size="12" fill="#111111">振幅 20.55%</text>
<text x="815.00" y="102.00" font-size="12" fill="#111111">倍数 9.43x</text>
<line x1="650.29" y1="531.60" x2="620.29" y2="491.60" stroke="#3498db" stroke-width="2"/>
<rect x="400.29" y="455.60" width="220" height="58" rx="8" fill="#eef6ff" stroke="#3498db"/>
<text x="410.29" y="477.60" font-size="12" fill="#111111">前一根涨幅 1.81%</text>
<text x="410.29" y="495.60" font-size="12" fill="#111111">前一根振幅 2.18%</text>
</svg>