<svg xmlns="http://www.w3.org/2000/svg" width="1400" height="760" viewBox="0 0 1400 760">
<rect width="100%" height="100%" fill="#fcfcfc"/>
<text x="90" y="36" font-size="26" font-weight="700" fill="#111111">JTO-USDT-SWAP 1H - 9倍命中</text>
<line x1="90" y1="70.00" x2="1360" y2="70.00" stroke="#d9d9d9" stroke-dasharray="4 4" stroke-width="1"/>
<text x="12" y="74.00" font-size="12" fill="#555555">2.228000</text>
<line x1="90" y1="186.00" x2="1360" y2="186.00" stroke="#d9d9d9" stroke-dasharray="4 4" stroke-width="1"/>
<text x="12" y="190.00" font-size="12" fill="#555555">2.165200</text>
<line x1="90" y1="302.00" x2="1360" y2="302.00" stroke="#d9d9d9" stroke-dasharray="4 4" stroke-width="1"/>
<text x="12" y="306.00" font-size="12" fill="#555555">2.102400</text>
<line x1="90" y1="418.00" x2="1360" y2="418.00" stroke="#d9d9d9" stroke-dasharray="4 4" stroke-width="1"/>
<text x="12" y="422.00" font-size="12" fill="#555555">2.039600</text>
<line x1="90" y1="534.00" x2="1360" y2="534.00" stroke="#d9d9d9" stroke-dasharray="4 4" stroke-width="1"/>
<text x="12" y="538.00" font-size="12" fill="#555555">1.976800</text>
<line x1="90" y1="650.00" x2="1360" y2="650.00" stroke="#d9d9d9" stroke-dasharray="4 4" stroke-width="1"/>
<text x="12" y="654.00" font-size="12" fill="#555555">1.914000</text>
<rect x="687.65" y="70" width="74.71" height="580.00" fill="#f1c40f" opacity="0.16"/>
<rect x="612.94" y="70" width="74.71" height="580.00" fill="#3498db" opacity="0.10"/>
<line x1="127.35" y1="568.73" x2="127.35" y2="650.00" stroke="#e74c3c" stroke-width="2"/>
<rect x="105.69" y="570.57" width="43.33" height="60.96" fill="#e74c3c" stroke="#e74c3c" stroke-width="1"/>
<text x="127.35" y="704" font-size="11" fill="#555555" text-anchor="middle">05-10</text>
<text x="127.35" y="720" font-size="11" fill="#555555" text-anchor="middle">00:00</text>
<line x1="202.06" y1="577.96" x2="202.06" y2="644.46" stroke="#2ecc71" stroke-width="2"/>
<rect x="180.39" y="581.66" width="43.33" height="49.87" fill="#2ecc71" stroke="#2ecc71" stroke-width="1"/>
<text x="202.06" y="704" font-size="11" fill="#555555" text-anchor="middle">05-10</text>
<text x="202.06" y="720" font-size="11" fill="#555555" text-anchor="middle">01:00</text>
<line x1="276.76" y1="574.27" x2="276.76" y2="607.52" stroke="#e74c3c" stroke-width="2"/>
<rect x="255.10" y="583.50" width="43.33" height="11.08" fill="#e74c3c" stroke="#e74c3c" stroke-width="1"/>
<text x="276.76" y="704" font-size="11" fill="#555555" text-anchor="middle">05-10</text>
<text x="276.76" y="720" font-size="11" fill="#555555" text-anchor="middle">02:00</text>
<line x1="351.47" y1="587.20" x2="351.47" y2="644.46" stroke="#e74c3c" stroke-width="2"/>
<rect x="329.81" y="592.74" width="43.33" height="16.62" fill="#e74c3c" stroke="#e74c3c" stroke-width="1"/>
<text x="351.47" y="704" font-size="11" fill="#555555" text-anchor="middle">05-10</text>
<text x="351.47" y="720" font-size="11" fill="#555555" text-anchor="middle">03:00</text>
<line x1="426.18" y1="576.11" x2="426.18" y2="616.75" stroke="#2ecc71" stroke-width="2"/>
<rect x="404.51" y="576.11" width="43.33" height="33.25" fill="#2ecc71" stroke="#2ecc71" stroke-width="1"/>
<text x="426.18" y="704" font-size="11" fill="#555555" text-anchor="middle">05-10</text>
<text x="426.18" y="720" font-size="11" fill="#555555" text-anchor="middle">04:00</text>
<line x1="500.88" y1="550.25" x2="500.88" y2="594.59" stroke="#e74c3c" stroke-width="2"/>
<rect x="479.22" y="574.27" width="43.33" height="1.85" fill="#e74c3c" stroke="#e74c3c" stroke-width="1"/>
<text x="500.88" y="704" font-size="11" fill="#555555" text-anchor="middle">05-10</text>
<text x="500.88" y="720" font-size="11" fill="#555555" text-anchor="middle">05:00</text>
<line x1="575.59" y1="565.03" x2="575.59" y2="601.97" stroke="#e74c3c" stroke-width="2"/>
<rect x="553.92" y="574.27" width="43.33" height="12.93" fill="#e74c3c" stroke="#e74c3c" stroke-width="1"/>
<text x="575.59" y="704" font-size="11" fill="#555555" text-anchor="middle">05-10</text>
<text x="575.59" y="720" font-size="11" fill="#555555" text-anchor="middle">06:00</text>
<line x1="650.29" y1="539.17" x2="650.29" y2="587.20" stroke="#2ecc71" stroke-width="2"/>
<rect x="628.63" y="548.41" width="43.33" height="36.94" fill="#2ecc71" stroke="#2ecc71" stroke-width="1"/>
<text x="650.29" y="704" font-size="11" fill="#555555" text-anchor="middle">05-10</text>
<text x="650.29" y="720" font-size="11" fill="#555555" text-anchor="middle">07:00</text>
<line x1="725.00" y1="70.00" x2="725.00" y2="548.41" stroke="#2ecc71" stroke-width="2"/>
<rect x="703.34" y="273.18" width="43.33" height="275.22" fill="#2ecc71" stroke="#2ecc71" stroke-width="1"/>
<text x="725.00" y="704" font-size="11" fill="#555555" text-anchor="middle">05-10</text>
<text x="725.00" y="720" font-size="11" fill="#555555" text-anchor="middle">08:00</text>
<line x1="799.71" y1="252.87" x2="799.71" y2="411.72" stroke="#e74c3c" stroke-width="2"/>
<rect x="778.04" y="273.18" width="43.33" height="129.30" fill="#e74c3c" stroke="#e74c3c" stroke-width="1"/>
<text x="799.71" y="704" font-size="11" fill="#555555" text-anchor="middle">05-10</text>
<text x="799.71" y="720" font-size="11" fill="#555555" text-anchor="middle">09:00</text>
<line x1="874.41" y1="384.01" x2="874.41" y2="443.12" stroke="#e74c3c" stroke-width="2"/>
<rect x="852.75" y="400.64" width="43.33" height="12.93" fill="#e74c3c" stroke="#e74c3c" stroke-width="1"/>
<text x="874.41" y="704" font-size="11" fill="#555555" text-anchor="middle">05-10</text>
<text x="874.41" y="720" font-size="11" fill="#555555" text-anchor="middle">10:00</text>
<line x1="949.12" y1="393.25" x2="949.12" y2="452.36" stroke="#2ecc71" stroke-width="2"/>
<rect x="927.45" y="396.94" width="43.33" height="16.62" fill="#2ecc71" stroke="#2ecc71" stroke-width="1"/>
<text x="949.12" y="704" font-size="11" fill="#555555" text-anchor="middle">05-10</text>
<text x="949.12" y="720" font-size="11" fill="#555555" text-anchor="middle">11:00</text>
<line x1="1023.82" y1="396.94" x2="1023.82" y2="452.36" stroke="#e74c3c" stroke-width="2"/>
<rect x="1002.16" y="396.94" width="43.33" height="38.79" fill="#e74c3c" stroke="#e74c3c" stroke-width="1"/>
<text x="1023.82" y="704" font-size="11" fill="#555555" text-anchor="middle">05-10</text>
<text x="1023.82" y="720" font-size="11" fill="#555555" text-anchor="middle">12:00</text>
<line x1="1098.53" y1="380.32" x2="1098.53" y2="435.73" stroke="#2ecc71" stroke-width="2"/>
<rect x="1076.86" y="382.17" width="43.33" height="53.57" fill="#2ecc71" stroke="#2ecc71" stroke-width="1"/>
<text x="1098.53" y="704" font-size="11" fill="#555555" text-anchor="middle">05-10</text>
<text x="1098.53" y="720" font-size="11" fill="#555555" text-anchor="middle">13:00</text>
<line x1="1173.24" y1="343.38" x2="1173.24" y2="417.26" stroke="#e74c3c" stroke-width="2"/>
<rect x="1151.57" y="384.01" width="43.33" height="16.62" fill="#e74c3c" stroke="#e74c3c" stroke-width="1"/>
<text x="1173.24" y="704" font-size="11" fill="#555555" text-anchor="middle">05-10</text>
<text x="1173.24" y="720" font-size="11" fill="#555555" text-anchor="middle">14:00</text>
<line x1="1247.94" y1="378.47" x2="1247.94" y2="433.89" stroke="#2ecc71" stroke-width="2"/>
<rect x="1226.28" y="387.71" width="43.33" height="12.93" fill="#2ecc71" stroke="#2ecc71" stroke-width="1"/>
<text x="1247.94" y="704" font-size="11" fill="#555555" text-anchor="middle">05-10</text>
<text x="1247.94" y="720" font-size="11" fill="#555555" text-anchor="middle">15:00</text>
<line x1="1322.65" y1="339.68" x2="1322.65" y2="430.19" stroke="#e74c3c" stroke-width="2"/>
<rect x="1300.98" y="387.71" width="43.33" height="16.62" fill="#e74c3c" stroke="#e74c3c" stroke-width="1"/>
<text x="1322.65" y="704" font-size="11" fill="#555555" text-anchor="middle">05-10</text>
<text x="1322.65" y="720" font-size="11" fill="#555555" text-anchor="middle">16:00</text>
<line x1="725.00" y1="70.00" x2="805.00" y2="90.00" stroke="#f1c40f" stroke-width="2"/>
<rect x="805.00" y="42.00" width="220" height="72" rx="8" fill="#fff8dc" stroke="#f1c40f"/>
<text x="815.00" y="66.00" font-size="12" fill="#111111">目标K线 2025-05-10 08:00</text>
<text x="815.00" y="84.00" font-size="12" fill="#111111">振幅 13.15%</text>
<text x="815.00" y="102.00" font-size="12" fill="#111111">倍数 9.86x</text>
<line x1="650.29" y1="539.17" x2="620.29" y2="499.17" stroke="#3498db" stroke-width="2"/>
<rect x="400.29" y="463.17" width="220" height="58" rx="8" fill="#eef6ff" stroke="#3498db"/>
<text x="410.29" y="485.17" font-size="12" fill="#111111">前一根涨幅 1.03%</text>
<text x="410.29" y="503.17" font-size="12" fill="#111111">前一根振幅 1.33%</text>
</svg>