<svg xmlns="http://www.w3.org/2000/svg" width="1400" height="760" viewBox="0 0 1400 760">
<rect width="100%" height="100%" fill="#fcfcfc"/>
<text x="90" y="36" font-size="26" font-weight="700" fill="#111111">METIS-USDT-SWAP 1H - 9倍命中</text>
<line x1="90" y1="70.00" x2="1360" y2="70.00" stroke="#d9d9d9" stroke-dasharray="4 4" stroke-width="1"/>
<text x="12" y="74.00" font-size="12" fill="#555555">6.240000</text>
<line x1="90" y1="186.00" x2="1360" y2="186.00" stroke="#d9d9d9" stroke-dasharray="4 4" stroke-width="1"/>
<text x="12" y="190.00" font-size="12" fill="#555555">5.647400</text>
<line x1="90" y1="302.00" x2="1360" y2="302.00" stroke="#d9d9d9" stroke-dasharray="4 4" stroke-width="1"/>
<text x="12" y="306.00" font-size="12" fill="#555555">5.054800</text>
<line x1="90" y1="418.00" x2="1360" y2="418.00" stroke="#d9d9d9" stroke-dasharray="4 4" stroke-width="1"/>
<text x="12" y="422.00" font-size="12" fill="#555555">4.462200</text>
<line x1="90" y1="534.00" x2="1360" y2="534.00" stroke="#d9d9d9" stroke-dasharray="4 4" stroke-width="1"/>
<text x="12" y="538.00" font-size="12" fill="#555555">3.869600</text>
<line x1="90" y1="650.00" x2="1360" y2="650.00" stroke="#d9d9d9" stroke-dasharray="4 4" stroke-width="1"/>
<text x="12" y="654.00" font-size="12" fill="#555555">3.277000</text>
<rect x="687.65" y="70" width="74.71" height="580.00" fill="#f1c40f" opacity="0.16"/>
<rect x="612.94" y="70" width="74.71" height="580.00" fill="#3498db" opacity="0.10"/>
<line x1="127.35" y1="636.88" x2="127.35" y2="640.80" stroke="#e74c3c" stroke-width="2"/>
<rect x="105.69" y="638.26" width="43.33" height="1.20" fill="#e74c3c" stroke="#e74c3c" stroke-width="1"/>
<text x="127.35" y="704" font-size="11" fill="#555555" text-anchor="middle">04-17</text>
<text x="127.35" y="720" font-size="11" fill="#555555" text-anchor="middle">07:00</text>
<line x1="202.06" y1="636.10" x2="202.06" y2="642.17" stroke="#2ecc71" stroke-width="2"/>
<rect x="180.39" y="636.88" width="43.33" height="1.96" fill="#2ecc71" stroke="#2ecc71" stroke-width="1"/>
<text x="202.06" y="704" font-size="11" fill="#555555" text-anchor="middle">04-17</text>
<text x="202.06" y="720" font-size="11" fill="#555555" text-anchor="middle">08:00</text>
<line x1="276.76" y1="627.10" x2="276.76" y2="638.06" stroke="#2ecc71" stroke-width="2"/>
<rect x="255.10" y="630.03" width="43.33" height="7.63" fill="#2ecc71" stroke="#2ecc71" stroke-width="1"/>
<text x="276.76" y="704" font-size="11" fill="#555555" text-anchor="middle">04-17</text>
<text x="276.76" y="720" font-size="11" fill="#555555" text-anchor="middle">09:00</text>
<line x1="351.47" y1="630.23" x2="351.47" y2="646.09" stroke="#e74c3c" stroke-width="2"/>
<rect x="329.81" y="630.23" width="43.33" height="14.49" fill="#e74c3c" stroke="#e74c3c" stroke-width="1"/>
<text x="351.47" y="704" font-size="11" fill="#555555" text-anchor="middle">04-17</text>
<text x="351.47" y="720" font-size="11" fill="#555555" text-anchor="middle">10:00</text>
<line x1="426.18" y1="642.17" x2="426.18" y2="647.26" stroke="#e74c3c" stroke-width="2"/>
<rect x="404.51" y="644.32" width="43.33" height="1.20" fill="#e74c3c" stroke="#e74c3c" stroke-width="1"/>
<text x="426.18" y="704" font-size="11" fill="#555555" text-anchor="middle">04-17</text>
<text x="426.18" y="720" font-size="11" fill="#555555" text-anchor="middle">11:00</text>
<line x1="500.88" y1="642.95" x2="500.88" y2="647.26" stroke="#2ecc71" stroke-width="2"/>
<rect x="479.22" y="643.54" width="43.33" height="1.57" fill="#2ecc71" stroke="#2ecc71" stroke-width="1"/>
<text x="500.88" y="704" font-size="11" fill="#555555" text-anchor="middle">04-17</text>
<text x="500.88" y="720" font-size="11" fill="#555555" text-anchor="middle">12:00</text>
<line x1="575.59" y1="638.65" x2="575.59" y2="650.00" stroke="#2ecc71" stroke-width="2"/>
<rect x="553.92" y="639.23" width="43.33" height="5.09" fill="#2ecc71" stroke="#2ecc71" stroke-width="1"/>
<text x="575.59" y="704" font-size="11" fill="#555555" text-anchor="middle">04-17</text>
<text x="575.59" y="720" font-size="11" fill="#555555" text-anchor="middle">13:00</text>
<line x1="650.29" y1="586.77" x2="650.29" y2="640.60" stroke="#2ecc71" stroke-width="2"/>
<rect x="628.63" y="613.00" width="43.33" height="26.43" fill="#2ecc71" stroke="#2ecc71" stroke-width="1"/>
<text x="650.29" y="704" font-size="11" fill="#555555" text-anchor="middle">04-17</text>
<text x="650.29" y="720" font-size="11" fill="#555555" text-anchor="middle">14:00</text>
<line x1="725.00" y1="70.00" x2="725.00" y2="615.35" stroke="#2ecc71" stroke-width="2"/>
<rect x="703.34" y="231.10" width="43.33" height="381.32" fill="#2ecc71" stroke="#2ecc71" stroke-width="1"/>
<text x="725.00" y="704" font-size="11" fill="#555555" text-anchor="middle">04-17</text>
<text x="725.00" y="720" font-size="11" fill="#555555" text-anchor="middle">15:00</text>
<line x1="799.71" y1="162.59" x2="799.71" y2="428.81" stroke="#e74c3c" stroke-width="2"/>
<rect x="778.04" y="231.30" width="43.33" height="146.42" fill="#e74c3c" stroke="#e74c3c" stroke-width="1"/>
<text x="799.71" y="704" font-size="11" fill="#555555" text-anchor="middle">04-17</text>
<text x="799.71" y="720" font-size="11" fill="#555555" text-anchor="middle">16:00</text>
<line x1="874.41" y1="298.83" x2="874.41" y2="464.43" stroke="#2ecc71" stroke-width="2"/>
<rect x="852.75" y="367.34" width="43.33" height="10.37" fill="#2ecc71" stroke="#2ecc71" stroke-width="1"/>
<text x="874.41" y="704" font-size="11" fill="#555555" text-anchor="middle">04-17</text>
<text x="874.41" y="720" font-size="11" fill="#555555" text-anchor="middle">17:00</text>
<line x1="949.12" y1="313.71" x2="949.12" y2="438.20" stroke="#e74c3c" stroke-width="2"/>
<rect x="927.45" y="367.93" width="43.33" height="47.76" fill="#e74c3c" stroke="#e74c3c" stroke-width="1"/>
<text x="949.12" y="704" font-size="11" fill="#555555" text-anchor="middle">04-17</text>
<text x="949.12" y="720" font-size="11" fill="#555555" text-anchor="middle">18:00</text>
<line x1="1023.82" y1="401.40" x2="1023.82" y2="470.50" stroke="#e74c3c" stroke-width="2"/>
<rect x="1002.16" y="415.69" width="43.33" height="8.61" fill="#e74c3c" stroke="#e74c3c" stroke-width="1"/>
<text x="1023.82" y="704" font-size="11" fill="#555555" text-anchor="middle">04-17</text>
<text x="1023.82" y="720" font-size="11" fill="#555555" text-anchor="middle">19:00</text>
<line x1="1098.53" y1="403.95" x2="1098.53" y2="480.48" stroke="#e74c3c" stroke-width="2"/>
<rect x="1076.86" y="424.69" width="43.33" height="45.80" fill="#e74c3c" stroke="#e74c3c" stroke-width="1"/>
<text x="1098.53" y="704" font-size="11" fill="#555555" text-anchor="middle">04-17</text>
<text x="1098.53" y="720" font-size="11" fill="#555555" text-anchor="middle">20:00</text>
<line x1="1173.24" y1="330.34" x2="1173.24" y2="480.48" stroke="#2ecc71" stroke-width="2"/>
<rect x="1151.57" y="336.80" width="43.33" height="133.50" fill="#2ecc71" stroke="#2ecc71" stroke-width="1"/>
<text x="1173.24" y="704" font-size="11" fill="#555555" text-anchor="middle">04-17</text>
<text x="1173.24" y="720" font-size="11" fill="#555555" text-anchor="middle">21:00</text>
<line x1="1247.94" y1="244.22" x2="1247.94" y2="383.78" stroke="#2ecc71" stroke-width="2"/>
<rect x="1226.28" y="302.94" width="43.33" height="34.26" fill="#2ecc71" stroke="#2ecc71" stroke-width="1"/>
<text x="1247.94" y="704" font-size="11" fill="#555555" text-anchor="middle">04-17</text>
<text x="1247.94" y="720" font-size="11" fill="#555555" text-anchor="middle">22:00</text>
<line x1="1322.65" y1="293.15" x2="1322.65" y2="415.30" stroke="#e74c3c" stroke-width="2"/>
<rect x="1300.98" y="303.33" width="43.33" height="87.89" fill="#e74c3c" stroke="#e74c3c" stroke-width="1"/>
<text x="1322.65" y="704" font-size="11" fill="#555555" text-anchor="middle">04-17</text>
<text x="1322.65" y="720" font-size="11" fill="#555555" text-anchor="middle">23:00</text>
<line x1="725.00" y1="70.00" x2="805.00" y2="90.00" stroke="#f1c40f" stroke-width="2"/>
<rect x="805.00" y="42.00" width="220" height="72" rx="8" fill="#fff8dc" stroke="#f1c40f"/>
<text x="815.00" y="66.00" font-size="12" fill="#111111">目标K线 2026-04-17 15:00</text>
<text x="815.00" y="84.00" font-size="12" fill="#111111">振幅 80.31%</text>
<text x="815.00" y="102.00" font-size="12" fill="#111111">倍数 9.73x</text>
<line x1="650.29" y1="586.77" x2="620.29" y2="546.77" stroke="#3498db" stroke-width="2"/>
<rect x="400.29" y="510.77" width="220" height="58" rx="8" fill="#eef6ff" stroke="#3498db"/>
<text x="410.29" y="532.77" font-size="12" fill="#111111">前一根涨幅 4.05%</text>
<text x="410.29" y="550.77" font-size="12" fill="#111111">前一根振幅 8.26%</text>
</svg>