<svg xmlns="http://www.w3.org/2000/svg" width="1400" height="760" viewBox="0 0 1400 760">
<rect width="100%" height="100%" fill="#fcfcfc"/>
<text x="90" y="36" font-size="26" font-weight="700" fill="#111111">NMR-USDT-SWAP 1H - 9倍命中</text>
<line x1="90" y1="70.00" x2="1360" y2="70.00" stroke="#d9d9d9" stroke-dasharray="4 4" stroke-width="1"/>
<text x="12" y="74.00" font-size="12" fill="#555555">16.210000</text>
<line x1="90" y1="186.00" x2="1360" y2="186.00" stroke="#d9d9d9" stroke-dasharray="4 4" stroke-width="1"/>
<text x="12" y="190.00" font-size="12" fill="#555555">15.530000</text>
<line x1="90" y1="302.00" x2="1360" y2="302.00" stroke="#d9d9d9" stroke-dasharray="4 4" stroke-width="1"/>
<text x="12" y="306.00" font-size="12" fill="#555555">14.850000</text>
<line x1="90" y1="418.00" x2="1360" y2="418.00" stroke="#d9d9d9" stroke-dasharray="4 4" stroke-width="1"/>
<text x="12" y="422.00" font-size="12" fill="#555555">14.170000</text>
<line x1="90" y1="534.00" x2="1360" y2="534.00" stroke="#d9d9d9" stroke-dasharray="4 4" stroke-width="1"/>
<text x="12" y="538.00" font-size="12" fill="#555555">13.490000</text>
<line x1="90" y1="650.00" x2="1360" y2="650.00" stroke="#d9d9d9" stroke-dasharray="4 4" stroke-width="1"/>
<text x="12" y="654.00" font-size="12" fill="#555555">12.810000</text>
<rect x="687.65" y="70" width="74.71" height="580.00" fill="#f1c40f" opacity="0.16"/>
<rect x="612.94" y="70" width="74.71" height="580.00" fill="#3498db" opacity="0.10"/>
<line x1="127.35" y1="419.71" x2="127.35" y2="644.88" stroke="#e74c3c" stroke-width="2"/>
<rect x="105.69" y="438.47" width="43.33" height="71.65" fill="#e74c3c" stroke="#e74c3c" stroke-width="1"/>
<text x="127.35" y="704" font-size="11" fill="#555555" text-anchor="middle">08-19</text>
<text x="127.35" y="720" font-size="11" fill="#555555" text-anchor="middle">19:00</text>
<line x1="202.06" y1="440.18" x2="202.06" y2="576.65" stroke="#2ecc71" stroke-width="2"/>
<rect x="180.39" y="510.12" width="43.33" height="3.41" fill="#2ecc71" stroke="#2ecc71" stroke-width="1"/>
<text x="202.06" y="704" font-size="11" fill="#555555" text-anchor="middle">08-19</text>
<text x="202.06" y="720" font-size="11" fill="#555555" text-anchor="middle">20:00</text>
<line x1="276.76" y1="479.41" x2="276.76" y2="590.29" stroke="#e74c3c" stroke-width="2"/>
<rect x="255.10" y="508.41" width="43.33" height="80.18" fill="#e74c3c" stroke="#e74c3c" stroke-width="1"/>
<text x="276.76" y="704" font-size="11" fill="#555555" text-anchor="middle">08-19</text>
<text x="276.76" y="720" font-size="11" fill="#555555" text-anchor="middle">21:00</text>
<line x1="351.47" y1="556.18" x2="351.47" y2="621.00" stroke="#2ecc71" stroke-width="2"/>
<rect x="329.81" y="569.82" width="43.33" height="18.76" fill="#2ecc71" stroke="#2ecc71" stroke-width="1"/>
<text x="351.47" y="704" font-size="11" fill="#555555" text-anchor="middle">08-19</text>
<text x="351.47" y="720" font-size="11" fill="#555555" text-anchor="middle">22:00</text>
<line x1="426.18" y1="561.29" x2="426.18" y2="631.24" stroke="#e74c3c" stroke-width="2"/>
<rect x="404.51" y="569.82" width="43.33" height="34.12" fill="#e74c3c" stroke="#e74c3c" stroke-width="1"/>
<text x="426.18" y="704" font-size="11" fill="#555555" text-anchor="middle">08-19</text>
<text x="426.18" y="720" font-size="11" fill="#555555" text-anchor="middle">23:00</text>
<line x1="500.88" y1="602.24" x2="500.88" y2="650.00" stroke="#e74c3c" stroke-width="2"/>
<rect x="479.22" y="602.24" width="43.33" height="23.88" fill="#e74c3c" stroke="#e74c3c" stroke-width="1"/>
<text x="500.88" y="704" font-size="11" fill="#555555" text-anchor="middle">08-20</text>
<text x="500.88" y="720" font-size="11" fill="#555555" text-anchor="middle">00:00</text>
<line x1="575.59" y1="552.76" x2="575.59" y2="634.65" stroke="#2ecc71" stroke-width="2"/>
<rect x="553.92" y="586.88" width="43.33" height="39.24" fill="#2ecc71" stroke="#2ecc71" stroke-width="1"/>
<text x="575.59" y="704" font-size="11" fill="#555555" text-anchor="middle">08-20</text>
<text x="575.59" y="720" font-size="11" fill="#555555" text-anchor="middle">01:00</text>
<line x1="650.29" y1="547.65" x2="650.29" y2="597.12" stroke="#2ecc71" stroke-width="2"/>
<rect x="628.63" y="556.18" width="43.33" height="30.71" fill="#2ecc71" stroke="#2ecc71" stroke-width="1"/>
<text x="650.29" y="704" font-size="11" fill="#555555" text-anchor="middle">08-20</text>
<text x="650.29" y="720" font-size="11" fill="#555555" text-anchor="middle">02:00</text>
<line x1="725.00" y1="70.00" x2="725.00" y2="561.29" stroke="#2ecc71" stroke-width="2"/>
<rect x="703.34" y="112.65" width="43.33" height="441.82" fill="#2ecc71" stroke="#2ecc71" stroke-width="1"/>
<text x="725.00" y="704" font-size="11" fill="#555555" text-anchor="middle">08-20</text>
<text x="725.00" y="720" font-size="11" fill="#555555" text-anchor="middle">03:00</text>
<line x1="799.71" y1="71.71" x2="799.71" y2="313.94" stroke="#e74c3c" stroke-width="2"/>
<rect x="778.04" y="114.35" width="43.33" height="73.35" fill="#e74c3c" stroke="#e74c3c" stroke-width="1"/>
<text x="799.71" y="704" font-size="11" fill="#555555" text-anchor="middle">08-20</text>
<text x="799.71" y="720" font-size="11" fill="#555555" text-anchor="middle">04:00</text>
<line x1="874.41" y1="95.59" x2="874.41" y2="211.59" stroke="#e74c3c" stroke-width="2"/>
<rect x="852.75" y="187.71" width="43.33" height="10.24" fill="#e74c3c" stroke="#e74c3c" stroke-width="1"/>
<text x="874.41" y="704" font-size="11" fill="#555555" text-anchor="middle">08-20</text>
<text x="874.41" y="720" font-size="11" fill="#555555" text-anchor="middle">05:00</text>
<line x1="949.12" y1="145.06" x2="949.12" y2="226.94" stroke="#2ecc71" stroke-width="2"/>
<rect x="927.45" y="192.82" width="43.33" height="3.41" fill="#2ecc71" stroke="#2ecc71" stroke-width="1"/>
<text x="949.12" y="704" font-size="11" fill="#555555" text-anchor="middle">08-20</text>
<text x="949.12" y="720" font-size="11" fill="#555555" text-anchor="middle">06:00</text>
<line x1="1023.82" y1="157.00" x2="1023.82" y2="252.53" stroke="#2ecc71" stroke-width="2"/>
<rect x="1002.16" y="157.00" width="43.33" height="37.53" fill="#2ecc71" stroke="#2ecc71" stroke-width="1"/>
<text x="1023.82" y="704" font-size="11" fill="#555555" text-anchor="middle">08-20</text>
<text x="1023.82" y="720" font-size="11" fill="#555555" text-anchor="middle">07:00</text>
<line x1="1098.53" y1="85.35" x2="1098.53" y2="226.94" stroke="#2ecc71" stroke-width="2"/>
<rect x="1076.86" y="153.59" width="43.33" height="5.12" fill="#2ecc71" stroke="#2ecc71" stroke-width="1"/>
<text x="1098.53" y="704" font-size="11" fill="#555555" text-anchor="middle">08-20</text>
<text x="1098.53" y="720" font-size="11" fill="#555555" text-anchor="middle">08:00</text>
<line x1="1173.24" y1="128.00" x2="1173.24" y2="245.71" stroke="#e74c3c" stroke-width="2"/>
<rect x="1151.57" y="153.59" width="43.33" height="75.06" fill="#e74c3c" stroke="#e74c3c" stroke-width="1"/>
<text x="1173.24" y="704" font-size="11" fill="#555555" text-anchor="middle">08-20</text>
<text x="1173.24" y="720" font-size="11" fill="#555555" text-anchor="middle">09:00</text>
<line x1="1247.94" y1="162.12" x2="1247.94" y2="254.24" stroke="#2ecc71" stroke-width="2"/>
<rect x="1226.28" y="170.65" width="43.33" height="58.00" fill="#2ecc71" stroke="#2ecc71" stroke-width="1"/>
<text x="1247.94" y="704" font-size="11" fill="#555555" text-anchor="middle">08-20</text>
<text x="1247.94" y="720" font-size="11" fill="#555555" text-anchor="middle">10:00</text>
<line x1="1322.65" y1="136.53" x2="1322.65" y2="220.12" stroke="#2ecc71" stroke-width="2"/>
<rect x="1300.98" y="165.53" width="43.33" height="6.82" fill="#2ecc71" stroke="#2ecc71" stroke-width="1"/>
<text x="1322.65" y="704" font-size="11" fill="#555555" text-anchor="middle">08-20</text>
<text x="1322.65" y="720" font-size="11" fill="#555555" text-anchor="middle">11:00</text>
<line x1="725.00" y1="70.00" x2="805.00" y2="90.00" stroke="#f1c40f" stroke-width="2"/>
<rect x="805.00" y="42.00" width="220" height="72" rx="8" fill="#fff8dc" stroke="#f1c40f"/>
<text x="815.00" y="66.00" font-size="12" fill="#111111">目标K线 2024-08-20 03:00</text>
<text x="815.00" y="84.00" font-size="12" fill="#111111">振幅 21.54%</text>
<text x="815.00" y="102.00" font-size="12" fill="#111111">倍数 9.79x</text>
<line x1="650.29" y1="547.65" x2="620.29" y2="507.65" stroke="#3498db" stroke-width="2"/>
<rect x="400.29" y="471.65" width="220" height="58" rx="8" fill="#eef6ff" stroke="#3498db"/>
<text x="410.29" y="493.65" font-size="12" fill="#111111">前一根涨幅 1.37%</text>
<text x="410.29" y="511.65" font-size="12" fill="#111111">前一根振幅 2.20%</text>
</svg>