<svg xmlns="http://www.w3.org/2000/svg" width="1400" height="760" viewBox="0 0 1400 760">
<rect width="100%" height="100%" fill="#fcfcfc"/>
<text x="90" y="36" font-size="26" font-weight="700" fill="#111111">PIPPIN-USDT-SWAP 1H - 9倍命中</text>
<line x1="90" y1="70.00" x2="1360" y2="70.00" stroke="#d9d9d9" stroke-dasharray="4 4" stroke-width="1"/>
<text x="12" y="74.00" font-size="12" fill="#555555">0.736000</text>
<line x1="90" y1="186.00" x2="1360" y2="186.00" stroke="#d9d9d9" stroke-dasharray="4 4" stroke-width="1"/>
<text x="12" y="190.00" font-size="12" fill="#555555">0.675006</text>
<line x1="90" y1="302.00" x2="1360" y2="302.00" stroke="#d9d9d9" stroke-dasharray="4 4" stroke-width="1"/>
<text x="12" y="306.00" font-size="12" fill="#555555">0.614012</text>
<line x1="90" y1="418.00" x2="1360" y2="418.00" stroke="#d9d9d9" stroke-dasharray="4 4" stroke-width="1"/>
<text x="12" y="422.00" font-size="12" fill="#555555">0.553018</text>
<line x1="90" y1="534.00" x2="1360" y2="534.00" stroke="#d9d9d9" stroke-dasharray="4 4" stroke-width="1"/>
<text x="12" y="538.00" font-size="12" fill="#555555">0.492024</text>
<line x1="90" y1="650.00" x2="1360" y2="650.00" stroke="#d9d9d9" stroke-dasharray="4 4" stroke-width="1"/>
<text x="12" y="654.00" font-size="12" fill="#555555">0.431030</text>
<rect x="687.65" y="70" width="74.71" height="580.00" fill="#f1c40f" opacity="0.16"/>
<rect x="612.94" y="70" width="74.71" height="580.00" fill="#3498db" opacity="0.10"/>
<line x1="127.35" y1="557.04" x2="127.35" y2="601.79" stroke="#e74c3c" stroke-width="2"/>
<rect x="105.69" y="583.28" width="43.33" height="1.20" fill="#e74c3c" stroke="#e74c3c" stroke-width="1"/>
<text x="127.35" y="704" font-size="11" fill="#555555" text-anchor="middle">12-24</text>
<text x="127.35" y="720" font-size="11" fill="#555555" text-anchor="middle">10:00</text>
<line x1="202.06" y1="533.25" x2="202.06" y2="594.85" stroke="#2ecc71" stroke-width="2"/>
<rect x="180.39" y="554.28" width="43.33" height="29.23" fill="#2ecc71" stroke="#2ecc71" stroke-width="1"/>
<text x="202.06" y="704" font-size="11" fill="#555555" text-anchor="middle">12-24</text>
<text x="202.06" y="720" font-size="11" fill="#555555" text-anchor="middle">11:00</text>
<line x1="276.76" y1="543.42" x2="276.76" y2="577.46" stroke="#e74c3c" stroke-width="2"/>
<rect x="255.10" y="554.21" width="43.33" height="8.81" fill="#e74c3c" stroke="#e74c3c" stroke-width="1"/>
<text x="276.76" y="704" font-size="11" fill="#555555" text-anchor="middle">12-24</text>
<text x="276.76" y="720" font-size="11" fill="#555555" text-anchor="middle">12:00</text>
<line x1="351.47" y1="514.93" x2="351.47" y2="564.67" stroke="#2ecc71" stroke-width="2"/>
<rect x="329.81" y="526.70" width="43.33" height="36.08" fill="#2ecc71" stroke="#2ecc71" stroke-width="1"/>
<text x="351.47" y="704" font-size="11" fill="#555555" text-anchor="middle">12-24</text>
<text x="351.47" y="720" font-size="11" fill="#555555" text-anchor="middle">13:00</text>
<line x1="426.18" y1="501.30" x2="426.18" y2="554.24" stroke="#e74c3c" stroke-width="2"/>
<rect x="404.51" y="526.82" width="43.33" height="25.05" fill="#e74c3c" stroke="#e74c3c" stroke-width="1"/>
<text x="426.18" y="704" font-size="11" fill="#555555" text-anchor="middle">12-24</text>
<text x="426.18" y="720" font-size="11" fill="#555555" text-anchor="middle">14:00</text>
<line x1="500.88" y1="547.21" x2="500.88" y2="650.00" stroke="#e74c3c" stroke-width="2"/>
<rect x="479.22" y="551.31" width="43.33" height="29.19" fill="#e74c3c" stroke="#e74c3c" stroke-width="1"/>
<text x="500.88" y="704" font-size="11" fill="#555555" text-anchor="middle">12-24</text>
<text x="500.88" y="720" font-size="11" fill="#555555" text-anchor="middle">15:00</text>
<line x1="575.59" y1="570.05" x2="575.59" y2="620.67" stroke="#2ecc71" stroke-width="2"/>
<rect x="553.92" y="578.07" width="43.33" height="2.42" fill="#2ecc71" stroke="#2ecc71" stroke-width="1"/>
<text x="575.59" y="704" font-size="11" fill="#555555" text-anchor="middle">12-24</text>
<text x="575.59" y="720" font-size="11" fill="#555555" text-anchor="middle">16:00</text>
<line x1="650.29" y1="537.85" x2="650.29" y2="586.92" stroke="#2ecc71" stroke-width="2"/>
<rect x="628.63" y="547.62" width="43.33" height="30.45" fill="#2ecc71" stroke="#2ecc71" stroke-width="1"/>
<text x="650.29" y="704" font-size="11" fill="#555555" text-anchor="middle">12-24</text>
<text x="650.29" y="720" font-size="11" fill="#555555" text-anchor="middle">17:00</text>
<line x1="725.00" y1="70.00" x2="725.00" y2="558.90" stroke="#2ecc71" stroke-width="2"/>
<rect x="703.34" y="508.68" width="43.33" height="38.95" fill="#2ecc71" stroke="#2ecc71" stroke-width="1"/>
<text x="725.00" y="704" font-size="11" fill="#555555" text-anchor="middle">12-24</text>
<text x="725.00" y="720" font-size="11" fill="#555555" text-anchor="middle">18:00</text>
<line x1="799.71" y1="412.14" x2="799.71" y2="642.18" stroke="#e74c3c" stroke-width="2"/>
<rect x="778.04" y="509.63" width="43.33" height="82.56" fill="#e74c3c" stroke="#e74c3c" stroke-width="1"/>
<text x="799.71" y="704" font-size="11" fill="#555555" text-anchor="middle">12-24</text>
<text x="799.71" y="720" font-size="11" fill="#555555" text-anchor="middle">19:00</text>
<line x1="874.41" y1="529.50" x2="874.41" y2="632.79" stroke="#2ecc71" stroke-width="2"/>
<rect x="852.75" y="554.72" width="43.33" height="37.48" fill="#2ecc71" stroke="#2ecc71" stroke-width="1"/>
<text x="874.41" y="704" font-size="11" fill="#555555" text-anchor="middle">12-24</text>
<text x="874.41" y="720" font-size="11" fill="#555555" text-anchor="middle">20:00</text>
<line x1="949.12" y1="502.89" x2="949.12" y2="569.08" stroke="#2ecc71" stroke-width="2"/>
<rect x="927.45" y="553.84" width="43.33" height="1.20" fill="#2ecc71" stroke="#2ecc71" stroke-width="1"/>
<text x="949.12" y="704" font-size="11" fill="#555555" text-anchor="middle">12-24</text>
<text x="949.12" y="720" font-size="11" fill="#555555" text-anchor="middle">21:00</text>
<line x1="1023.82" y1="462.12" x2="1023.82" y2="559.87" stroke="#2ecc71" stroke-width="2"/>
<rect x="1002.16" y="496.66" width="43.33" height="57.76" fill="#2ecc71" stroke="#2ecc71" stroke-width="1"/>
<text x="1023.82" y="704" font-size="11" fill="#555555" text-anchor="middle">12-24</text>
<text x="1023.82" y="720" font-size="11" fill="#555555" text-anchor="middle">22:00</text>
<line x1="1098.53" y1="469.29" x2="1098.53" y2="523.68" stroke="#2ecc71" stroke-width="2"/>
<rect x="1076.86" y="477.92" width="43.33" height="18.43" fill="#2ecc71" stroke="#2ecc71" stroke-width="1"/>
<text x="1098.53" y="704" font-size="11" fill="#555555" text-anchor="middle">12-24</text>
<text x="1098.53" y="720" font-size="11" fill="#555555" text-anchor="middle">23:00</text>
<line x1="1173.24" y1="476.99" x2="1173.24" y2="550.52" stroke="#e74c3c" stroke-width="2"/>
<rect x="1151.57" y="477.90" width="43.33" height="43.78" fill="#e74c3c" stroke="#e74c3c" stroke-width="1"/>
<text x="1173.24" y="704" font-size="11" fill="#555555" text-anchor="middle">12-25</text>
<text x="1173.24" y="720" font-size="11" fill="#555555" text-anchor="middle">00:00</text>
<line x1="1247.94" y1="509.49" x2="1247.94" y2="535.97" stroke="#e74c3c" stroke-width="2"/>
<rect x="1226.28" y="521.68" width="43.33" height="6.92" fill="#e74c3c" stroke="#e74c3c" stroke-width="1"/>
<text x="1247.94" y="704" font-size="11" fill="#555555" text-anchor="middle">12-25</text>
<text x="1247.94" y="720" font-size="11" fill="#555555" text-anchor="middle">01:00</text>
<line x1="1322.65" y1="521.06" x2="1322.65" y2="576.38" stroke="#e74c3c" stroke-width="2"/>
<rect x="1300.98" y="529.44" width="43.33" height="36.38" fill="#e74c3c" stroke="#e74c3c" stroke-width="1"/>
<text x="1322.65" y="704" font-size="11" fill="#555555" text-anchor="middle">12-25</text>
<text x="1322.65" y="720" font-size="11" fill="#555555" text-anchor="middle">02:00</text>
<line x1="725.00" y1="70.00" x2="805.00" y2="90.00" stroke="#f1c40f" stroke-width="2"/>
<rect x="805.00" y="42.00" width="220" height="72" rx="8" fill="#fff8dc" stroke="#f1c40f"/>
<text x="815.00" y="66.00" font-size="12" fill="#111111">目标K线 2025-12-24 18:00</text>
<text x="815.00" y="84.00" font-size="12" fill="#111111">振幅 53.02%</text>
<text x="815.00" y="102.00" font-size="12" fill="#111111">倍数 9.63x</text>
<line x1="650.29" y1="537.85" x2="620.29" y2="497.85" stroke="#3498db" stroke-width="2"/>
<rect x="400.29" y="461.85" width="220" height="58" rx="8" fill="#eef6ff" stroke="#3498db"/>
<text x="410.29" y="483.85" font-size="12" fill="#111111">前一根涨幅 3.41%</text>
<text x="410.29" y="501.85" font-size="12" fill="#111111">前一根振幅 5.50%</text>
</svg>