<svg xmlns="http://www.w3.org/2000/svg" width="1400" height="760" viewBox="0 0 1400 760">
<rect width="100%" height="100%" fill="#fcfcfc"/>
<text x="90" y="36" font-size="26" font-weight="700" fill="#111111">SUSHI-USDT-SWAP 1H - 9倍命中</text>
<line x1="90" y1="70.00" x2="1360" y2="70.00" stroke="#d9d9d9" stroke-dasharray="4 4" stroke-width="1"/>
<text x="12" y="74.00" font-size="12" fill="#555555">1.558900</text>
<line x1="90" y1="186.00" x2="1360" y2="186.00" stroke="#d9d9d9" stroke-dasharray="4 4" stroke-width="1"/>
<text x="12" y="190.00" font-size="12" fill="#555555">1.498740</text>
<line x1="90" y1="302.00" x2="1360" y2="302.00" stroke="#d9d9d9" stroke-dasharray="4 4" stroke-width="1"/>
<text x="12" y="306.00" font-size="12" fill="#555555">1.438580</text>
<line x1="90" y1="418.00" x2="1360" y2="418.00" stroke="#d9d9d9" stroke-dasharray="4 4" stroke-width="1"/>
<text x="12" y="422.00" font-size="12" fill="#555555">1.378420</text>
<line x1="90" y1="534.00" x2="1360" y2="534.00" stroke="#d9d9d9" stroke-dasharray="4 4" stroke-width="1"/>
<text x="12" y="538.00" font-size="12" fill="#555555">1.318260</text>
<line x1="90" y1="650.00" x2="1360" y2="650.00" stroke="#d9d9d9" stroke-dasharray="4 4" stroke-width="1"/>
<text x="12" y="654.00" font-size="12" fill="#555555">1.258100</text>
<rect x="687.65" y="70" width="74.71" height="580.00" fill="#f1c40f" opacity="0.16"/>
<rect x="612.94" y="70" width="74.71" height="580.00" fill="#3498db" opacity="0.10"/>
<line x1="127.35" y1="573.45" x2="127.35" y2="594.08" stroke="#e74c3c" stroke-width="2"/>
<rect x="105.69" y="584.44" width="43.33" height="1.20" fill="#e74c3c" stroke="#e74c3c" stroke-width="1"/>
<text x="127.35" y="704" font-size="11" fill="#555555" text-anchor="middle">02-23</text>
<text x="127.35" y="720" font-size="11" fill="#555555" text-anchor="middle">14:00</text>
<line x1="202.06" y1="580.97" x2="202.06" y2="618.18" stroke="#e74c3c" stroke-width="2"/>
<rect x="180.39" y="585.79" width="43.33" height="21.79" fill="#e74c3c" stroke="#e74c3c" stroke-width="1"/>
<text x="202.06" y="704" font-size="11" fill="#555555" text-anchor="middle">02-23</text>
<text x="202.06" y="720" font-size="11" fill="#555555" text-anchor="middle">15:00</text>
<line x1="276.76" y1="589.07" x2="276.76" y2="633.42" stroke="#e74c3c" stroke-width="2"/>
<rect x="255.10" y="607.19" width="43.33" height="15.81" fill="#e74c3c" stroke="#e74c3c" stroke-width="1"/>
<text x="276.76" y="704" font-size="11" fill="#555555" text-anchor="middle">02-23</text>
<text x="276.76" y="720" font-size="11" fill="#555555" text-anchor="middle">16:00</text>
<line x1="351.47" y1="610.66" x2="351.47" y2="637.85" stroke="#2ecc71" stroke-width="2"/>
<rect x="329.81" y="610.66" width="43.33" height="12.15" fill="#2ecc71" stroke="#2ecc71" stroke-width="1"/>
<text x="351.47" y="704" font-size="11" fill="#555555" text-anchor="middle">02-23</text>
<text x="351.47" y="720" font-size="11" fill="#555555" text-anchor="middle">17:00</text>
<line x1="426.18" y1="609.51" x2="426.18" y2="632.65" stroke="#e74c3c" stroke-width="2"/>
<rect x="404.51" y="610.66" width="43.33" height="6.56" fill="#e74c3c" stroke="#e74c3c" stroke-width="1"/>
<text x="426.18" y="704" font-size="11" fill="#555555" text-anchor="middle">02-23</text>
<text x="426.18" y="720" font-size="11" fill="#555555" text-anchor="middle">18:00</text>
<line x1="500.88" y1="607.19" x2="500.88" y2="628.60" stroke="#2ecc71" stroke-width="2"/>
<rect x="479.22" y="610.86" width="43.33" height="6.36" fill="#2ecc71" stroke="#2ecc71" stroke-width="1"/>
<text x="500.88" y="704" font-size="11" fill="#555555" text-anchor="middle">02-23</text>
<text x="500.88" y="720" font-size="11" fill="#555555" text-anchor="middle">19:00</text>
<line x1="575.59" y1="608.93" x2="575.59" y2="650.00" stroke="#e74c3c" stroke-width="2"/>
<rect x="553.92" y="611.44" width="43.33" height="28.92" fill="#e74c3c" stroke="#e74c3c" stroke-width="1"/>
<text x="575.59" y="704" font-size="11" fill="#555555" text-anchor="middle">02-23</text>
<text x="575.59" y="720" font-size="11" fill="#555555" text-anchor="middle">20:00</text>
<line x1="650.29" y1="589.26" x2="650.29" y2="645.57" stroke="#2ecc71" stroke-width="2"/>
<rect x="628.63" y="593.31" width="43.33" height="46.86" fill="#2ecc71" stroke="#2ecc71" stroke-width="1"/>
<text x="650.29" y="704" font-size="11" fill="#555555" text-anchor="middle">02-23</text>
<text x="650.29" y="720" font-size="11" fill="#555555" text-anchor="middle">21:00</text>
<line x1="725.00" y1="70.00" x2="725.00" y2="617.61" stroke="#2ecc71" stroke-width="2"/>
<rect x="703.34" y="92.17" width="43.33" height="501.33" fill="#2ecc71" stroke="#2ecc71" stroke-width="1"/>
<text x="725.00" y="704" font-size="11" fill="#555555" text-anchor="middle">02-23</text>
<text x="725.00" y="720" font-size="11" fill="#555555" text-anchor="middle">22:00</text>
<line x1="799.71" y1="72.12" x2="799.71" y2="284.99" stroke="#e74c3c" stroke-width="2"/>
<rect x="778.04" y="92.37" width="43.33" height="127.84" fill="#e74c3c" stroke="#e74c3c" stroke-width="1"/>
<text x="799.71" y="704" font-size="11" fill="#555555" text-anchor="middle">02-23</text>
<text x="799.71" y="720" font-size="11" fill="#555555" text-anchor="middle">23:00</text>
<line x1="874.41" y1="209.99" x2="874.41" y2="403.96" stroke="#e74c3c" stroke-width="2"/>
<rect x="852.75" y="218.66" width="43.33" height="68.26" fill="#e74c3c" stroke="#e74c3c" stroke-width="1"/>
<text x="874.41" y="704" font-size="11" fill="#555555" text-anchor="middle">02-24</text>
<text x="874.41" y="720" font-size="11" fill="#555555" text-anchor="middle">00:00</text>
<line x1="949.12" y1="272.27" x2="949.12" y2="356.91" stroke="#e74c3c" stroke-width="2"/>
<rect x="927.45" y="286.15" width="43.33" height="38.37" fill="#e74c3c" stroke="#e74c3c" stroke-width="1"/>
<text x="949.12" y="704" font-size="11" fill="#555555" text-anchor="middle">02-24</text>
<text x="949.12" y="720" font-size="11" fill="#555555" text-anchor="middle">01:00</text>
<line x1="1023.82" y1="302.73" x2="1023.82" y2="366.94" stroke="#2ecc71" stroke-width="2"/>
<rect x="1002.16" y="312.18" width="43.33" height="11.76" fill="#2ecc71" stroke="#2ecc71" stroke-width="1"/>
<text x="1023.82" y="704" font-size="11" fill="#555555" text-anchor="middle">02-24</text>
<text x="1023.82" y="720" font-size="11" fill="#555555" text-anchor="middle">02:00</text>
<line x1="1098.53" y1="270.72" x2="1098.53" y2="320.86" stroke="#2ecc71" stroke-width="2"/>
<rect x="1076.86" y="277.86" width="43.33" height="34.32" fill="#2ecc71" stroke="#2ecc71" stroke-width="1"/>
<text x="1098.53" y="704" font-size="11" fill="#555555" text-anchor="middle">02-24</text>
<text x="1098.53" y="720" font-size="11" fill="#555555" text-anchor="middle">03:00</text>
<line x1="1173.24" y1="227.53" x2="1173.24" y2="291.74" stroke="#2ecc71" stroke-width="2"/>
<rect x="1151.57" y="245.85" width="43.33" height="32.39" fill="#2ecc71" stroke="#2ecc71" stroke-width="1"/>
<text x="1173.24" y="704" font-size="11" fill="#555555" text-anchor="middle">02-24</text>
<text x="1173.24" y="720" font-size="11" fill="#555555" text-anchor="middle">04:00</text>
<line x1="1247.94" y1="228.11" x2="1247.94" y2="272.07" stroke="#2ecc71" stroke-width="2"/>
<rect x="1226.28" y="241.80" width="43.33" height="3.09" fill="#2ecc71" stroke="#2ecc71" stroke-width="1"/>
<text x="1247.94" y="704" font-size="11" fill="#555555" text-anchor="middle">02-24</text>
<text x="1247.94" y="720" font-size="11" fill="#555555" text-anchor="middle">05:00</text>
<line x1="1322.65" y1="234.67" x2="1322.65" y2="310.06" stroke="#e74c3c" stroke-width="2"/>
<rect x="1300.98" y="242.19" width="43.33" height="53.99" fill="#e74c3c" stroke="#e74c3c" stroke-width="1"/>
<text x="1322.65" y="704" font-size="11" fill="#555555" text-anchor="middle">02-24</text>
<text x="1322.65" y="720" font-size="11" fill="#555555" text-anchor="middle">06:00</text>
<line x1="725.00" y1="70.00" x2="805.00" y2="90.00" stroke="#f1c40f" stroke-width="2"/>
<rect x="805.00" y="42.00" width="220" height="72" rx="8" fill="#fff8dc" stroke="#f1c40f"/>
<text x="815.00" y="66.00" font-size="12" fill="#111111">目标K线 2024-02-23 22:00</text>
<text x="815.00" y="84.00" font-size="12" fill="#111111">振幅 22.06%</text>
<text x="815.00" y="102.00" font-size="12" fill="#111111">倍数 9.54x</text>
<line x1="650.29" y1="589.26" x2="620.29" y2="549.26" stroke="#3498db" stroke-width="2"/>
<rect x="400.29" y="513.26" width="220" height="58" rx="8" fill="#eef6ff" stroke="#3498db"/>
<text x="410.29" y="535.26" font-size="12" fill="#111111">前一根涨幅 1.92%</text>
<text x="410.29" y="553.26" font-size="12" fill="#111111">前一根振幅 2.31%</text>
</svg>