<svg xmlns="http://www.w3.org/2000/svg" width="1400" height="760" viewBox="0 0 1400 760">
<rect width="100%" height="100%" fill="#fcfcfc"/>
<text x="90" y="36" font-size="26" font-weight="700" fill="#111111">TURBO-USDT-SWAP 1H - 9倍命中</text>
<line x1="90" y1="70.00" x2="1360" y2="70.00" stroke="#d9d9d9" stroke-dasharray="4 4" stroke-width="1"/>
<text x="12" y="74.00" font-size="12" fill="#555555">0.000375</text>
<line x1="90" y1="186.00" x2="1360" y2="186.00" stroke="#d9d9d9" stroke-dasharray="4 4" stroke-width="1"/>
<text x="12" y="190.00" font-size="12" fill="#555555">0.000356</text>
<line x1="90" y1="302.00" x2="1360" y2="302.00" stroke="#d9d9d9" stroke-dasharray="4 4" stroke-width="1"/>
<text x="12" y="306.00" font-size="12" fill="#555555">0.000336</text>
<line x1="90" y1="418.00" x2="1360" y2="418.00" stroke="#d9d9d9" stroke-dasharray="4 4" stroke-width="1"/>
<text x="12" y="422.00" font-size="12" fill="#555555">0.000317</text>
<line x1="90" y1="534.00" x2="1360" y2="534.00" stroke="#d9d9d9" stroke-dasharray="4 4" stroke-width="1"/>
<text x="12" y="538.00" font-size="12" fill="#555555">0.000298</text>
<line x1="90" y1="650.00" x2="1360" y2="650.00" stroke="#d9d9d9" stroke-dasharray="4 4" stroke-width="1"/>
<text x="12" y="654.00" font-size="12" fill="#555555">0.000279</text>
<rect x="687.65" y="70" width="74.71" height="580.00" fill="#f1c40f" opacity="0.16"/>
<rect x="612.94" y="70" width="74.71" height="580.00" fill="#3498db" opacity="0.10"/>
<line x1="127.35" y1="527.74" x2="127.35" y2="570.50" stroke="#2ecc71" stroke-width="2"/>
<rect x="105.69" y="553.03" width="43.33" height="5.42" fill="#2ecc71" stroke="#2ecc71" stroke-width="1"/>
<text x="127.35" y="704" font-size="11" fill="#555555" text-anchor="middle">01-04</text>
<text x="127.35" y="720" font-size="11" fill="#555555" text-anchor="middle">16:00</text>
<line x1="202.06" y1="529.54" x2="202.06" y2="554.84" stroke="#2ecc71" stroke-width="2"/>
<rect x="180.39" y="538.58" width="43.33" height="16.26" fill="#2ecc71" stroke="#2ecc71" stroke-width="1"/>
<text x="202.06" y="704" font-size="11" fill="#555555" text-anchor="middle">01-04</text>
<text x="202.06" y="720" font-size="11" fill="#555555" text-anchor="middle">17:00</text>
<line x1="276.76" y1="537.37" x2="276.76" y2="650.00" stroke="#e74c3c" stroke-width="2"/>
<rect x="255.10" y="539.78" width="43.33" height="65.65" fill="#e74c3c" stroke="#e74c3c" stroke-width="1"/>
<text x="276.76" y="704" font-size="11" fill="#555555" text-anchor="middle">01-04</text>
<text x="276.76" y="720" font-size="11" fill="#555555" text-anchor="middle">18:00</text>
<line x1="351.47" y1="580.13" x2="351.47" y2="609.65" stroke="#2ecc71" stroke-width="2"/>
<rect x="329.81" y="601.21" width="43.33" height="4.22" fill="#2ecc71" stroke="#2ecc71" stroke-width="1"/>
<text x="351.47" y="704" font-size="11" fill="#555555" text-anchor="middle">01-04</text>
<text x="351.47" y="720" font-size="11" fill="#555555" text-anchor="middle">19:00</text>
<line x1="426.18" y1="573.51" x2="426.18" y2="621.09" stroke="#2ecc71" stroke-width="2"/>
<rect x="404.51" y="585.56" width="43.33" height="15.06" fill="#2ecc71" stroke="#2ecc71" stroke-width="1"/>
<text x="426.18" y="704" font-size="11" fill="#555555" text-anchor="middle">01-04</text>
<text x="426.18" y="720" font-size="11" fill="#555555" text-anchor="middle">20:00</text>
<line x1="500.88" y1="567.49" x2="500.88" y2="601.21" stroke="#2ecc71" stroke-width="2"/>
<rect x="479.22" y="578.33" width="43.33" height="6.63" fill="#2ecc71" stroke="#2ecc71" stroke-width="1"/>
<text x="500.88" y="704" font-size="11" fill="#555555" text-anchor="middle">01-04</text>
<text x="500.88" y="720" font-size="11" fill="#555555" text-anchor="middle">21:00</text>
<line x1="575.59" y1="540.38" x2="575.59" y2="584.95" stroke="#2ecc71" stroke-width="2"/>
<rect x="553.92" y="540.38" width="43.33" height="37.34" fill="#2ecc71" stroke="#2ecc71" stroke-width="1"/>
<text x="575.59" y="704" font-size="11" fill="#555555" text-anchor="middle">01-04</text>
<text x="575.59" y="720" font-size="11" fill="#555555" text-anchor="middle">22:00</text>
<line x1="650.29" y1="498.83" x2="650.29" y2="543.40" stroke="#2ecc71" stroke-width="2"/>
<rect x="628.63" y="507.26" width="43.33" height="34.93" fill="#2ecc71" stroke="#2ecc71" stroke-width="1"/>
<text x="650.29" y="704" font-size="11" fill="#555555" text-anchor="middle">01-04</text>
<text x="650.29" y="720" font-size="11" fill="#555555" text-anchor="middle">23:00</text>
<line x1="725.00" y1="80.24" x2="725.00" y2="507.86" stroke="#2ecc71" stroke-width="2"/>
<rect x="703.34" y="274.78" width="43.33" height="233.08" fill="#2ecc71" stroke="#2ecc71" stroke-width="1"/>
<text x="725.00" y="704" font-size="11" fill="#555555" text-anchor="middle">01-05</text>
<text x="725.00" y="720" font-size="11" fill="#555555" text-anchor="middle">00:00</text>
<line x1="799.71" y1="207.92" x2="799.71" y2="339.82" stroke="#e74c3c" stroke-width="2"/>
<rect x="778.04" y="271.16" width="43.33" height="47.58" fill="#e74c3c" stroke="#e74c3c" stroke-width="1"/>
<text x="799.71" y="704" font-size="11" fill="#555555" text-anchor="middle">01-05</text>
<text x="799.71" y="720" font-size="11" fill="#555555" text-anchor="middle">01:00</text>
<line x1="874.41" y1="191.66" x2="874.41" y2="319.95" stroke="#2ecc71" stroke-width="2"/>
<rect x="852.75" y="229.61" width="43.33" height="87.93" fill="#2ecc71" stroke="#2ecc71" stroke-width="1"/>
<text x="874.41" y="704" font-size="11" fill="#555555" text-anchor="middle">01-05</text>
<text x="874.41" y="720" font-size="11" fill="#555555" text-anchor="middle">02:00</text>
<line x1="949.12" y1="129.63" x2="949.12" y2="236.23" stroke="#2ecc71" stroke-width="2"/>
<rect x="927.45" y="187.45" width="43.33" height="42.16" fill="#2ecc71" stroke="#2ecc71" stroke-width="1"/>
<text x="949.12" y="704" font-size="11" fill="#555555" text-anchor="middle">01-05</text>
<text x="949.12" y="720" font-size="11" fill="#555555" text-anchor="middle">03:00</text>
<line x1="1023.82" y1="141.67" x2="1023.82" y2="248.28" stroke="#e74c3c" stroke-width="2"/>
<rect x="1002.16" y="188.05" width="43.33" height="1.20" fill="#e74c3c" stroke="#e74c3c" stroke-width="1"/>
<text x="1023.82" y="704" font-size="11" fill="#555555" text-anchor="middle">01-05</text>
<text x="1023.82" y="720" font-size="11" fill="#555555" text-anchor="middle">04:00</text>
<line x1="1098.53" y1="136.25" x2="1098.53" y2="224.79" stroke="#e74c3c" stroke-width="2"/>
<rect x="1076.86" y="189.85" width="43.33" height="12.65" fill="#e74c3c" stroke="#e74c3c" stroke-width="1"/>
<text x="1098.53" y="704" font-size="11" fill="#555555" text-anchor="middle">01-05</text>
<text x="1098.53" y="720" font-size="11" fill="#555555" text-anchor="middle">05:00</text>
<line x1="1173.24" y1="70.00" x2="1173.24" y2="235.03" stroke="#2ecc71" stroke-width="2"/>
<rect x="1151.57" y="183.83" width="43.33" height="16.26" fill="#2ecc71" stroke="#2ecc71" stroke-width="1"/>
<text x="1173.24" y="704" font-size="11" fill="#555555" text-anchor="middle">01-05</text>
<text x="1173.24" y="720" font-size="11" fill="#555555" text-anchor="middle">06:00</text>
<line x1="1247.94" y1="119.99" x2="1247.94" y2="213.34" stroke="#2ecc71" stroke-width="2"/>
<rect x="1226.28" y="119.99" width="43.33" height="65.05" fill="#2ecc71" stroke="#2ecc71" stroke-width="1"/>
<text x="1247.94" y="704" font-size="11" fill="#555555" text-anchor="middle">01-05</text>
<text x="1247.94" y="720" font-size="11" fill="#555555" text-anchor="middle">07:00</text>
<line x1="1322.65" y1="110.96" x2="1322.65" y2="241.05" stroke="#e74c3c" stroke-width="2"/>
<rect x="1300.98" y="118.79" width="43.33" height="25.30" fill="#e74c3c" stroke="#e74c3c" stroke-width="1"/>
<text x="1322.65" y="704" font-size="11" fill="#555555" text-anchor="middle">01-05</text>
<text x="1322.65" y="720" font-size="11" fill="#555555" text-anchor="middle">08:00</text>
<line x1="725.00" y1="80.24" x2="805.00" y2="90.00" stroke="#f1c40f" stroke-width="2"/>
<rect x="805.00" y="42.00" width="220" height="72" rx="8" fill="#fff8dc" stroke="#f1c40f"/>
<text x="815.00" y="66.00" font-size="12" fill="#111111">目标K线 2024-01-05 00:00</text>
<text x="815.00" y="84.00" font-size="12" fill="#111111">振幅 23.49%</text>
<text x="815.00" y="102.00" font-size="12" fill="#111111">倍数 9.41x</text>
<line x1="650.29" y1="498.83" x2="620.29" y2="458.83" stroke="#3498db" stroke-width="2"/>
<rect x="400.29" y="422.83" width="220" height="58" rx="8" fill="#eef6ff" stroke="#3498db"/>
<text x="410.29" y="444.83" font-size="12" fill="#111111">前一根涨幅 1.96%</text>
<text x="410.29" y="462.83" font-size="12" fill="#111111">前一根振幅 2.49%</text>
</svg>