<svg xmlns="http://www.w3.org/2000/svg" width="1400" height="760" viewBox="0 0 1400 760">
<rect width="100%" height="100%" fill="#fcfcfc"/>
<text x="90" y="36" font-size="26" font-weight="700" fill="#111111">2Z-USDT-SWAP 1H - 10倍命中</text>
<line x1="90" y1="70.00" x2="1360" y2="70.00" stroke="#d9d9d9" stroke-dasharray="4 4" stroke-width="1"/>
<text x="12" y="74.00" font-size="12" fill="#555555">0.191900</text>
<line x1="90" y1="186.00" x2="1360" y2="186.00" stroke="#d9d9d9" stroke-dasharray="4 4" stroke-width="1"/>
<text x="12" y="190.00" font-size="12" fill="#555555">0.175780</text>
<line x1="90" y1="302.00" x2="1360" y2="302.00" stroke="#d9d9d9" stroke-dasharray="4 4" stroke-width="1"/>
<text x="12" y="306.00" font-size="12" fill="#555555">0.159660</text>
<line x1="90" y1="418.00" x2="1360" y2="418.00" stroke="#d9d9d9" stroke-dasharray="4 4" stroke-width="1"/>
<text x="12" y="422.00" font-size="12" fill="#555555">0.143540</text>
<line x1="90" y1="534.00" x2="1360" y2="534.00" stroke="#d9d9d9" stroke-dasharray="4 4" stroke-width="1"/>
<text x="12" y="538.00" font-size="12" fill="#555555">0.127420</text>
<line x1="90" y1="650.00" x2="1360" y2="650.00" stroke="#d9d9d9" stroke-dasharray="4 4" stroke-width="1"/>
<text x="12" y="654.00" font-size="12" fill="#555555">0.111300</text>
<rect x="687.65" y="70" width="74.71" height="580.00" fill="#f1c40f" opacity="0.16"/>
<rect x="612.94" y="70" width="74.71" height="580.00" fill="#3498db" opacity="0.10"/>
<line x1="127.35" y1="583.80" x2="127.35" y2="609.70" stroke="#e74c3c" stroke-width="2"/>
<rect x="105.69" y="599.63" width="43.33" height="9.35" fill="#e74c3c" stroke="#e74c3c" stroke-width="1"/>
<text x="127.35" y="704" font-size="11" fill="#555555" text-anchor="middle">11-21</text>
<text x="127.35" y="720" font-size="11" fill="#555555" text-anchor="middle">16:00</text>
<line x1="202.06" y1="602.51" x2="202.06" y2="628.41" stroke="#e74c3c" stroke-width="2"/>
<rect x="180.39" y="608.26" width="43.33" height="17.27" fill="#e74c3c" stroke="#e74c3c" stroke-width="1"/>
<text x="202.06" y="704" font-size="11" fill="#555555" text-anchor="middle">11-21</text>
<text x="202.06" y="720" font-size="11" fill="#555555" text-anchor="middle">17:00</text>
<line x1="276.76" y1="603.95" x2="276.76" y2="629.85" stroke="#2ecc71" stroke-width="2"/>
<rect x="255.10" y="615.46" width="43.33" height="9.35" fill="#2ecc71" stroke="#2ecc71" stroke-width="1"/>
<text x="276.76" y="704" font-size="11" fill="#555555" text-anchor="middle">11-21</text>
<text x="276.76" y="720" font-size="11" fill="#555555" text-anchor="middle">18:00</text>
<line x1="351.47" y1="606.82" x2="351.47" y2="631.29" stroke="#e74c3c" stroke-width="2"/>
<rect x="329.81" y="615.46" width="43.33" height="12.95" fill="#e74c3c" stroke="#e74c3c" stroke-width="1"/>
<text x="351.47" y="704" font-size="11" fill="#555555" text-anchor="middle">11-21</text>
<text x="351.47" y="720" font-size="11" fill="#555555" text-anchor="middle">19:00</text>
<line x1="426.18" y1="607.54" x2="426.18" y2="650.00" stroke="#2ecc71" stroke-width="2"/>
<rect x="404.51" y="616.18" width="43.33" height="12.23" fill="#2ecc71" stroke="#2ecc71" stroke-width="1"/>
<text x="426.18" y="704" font-size="11" fill="#555555" text-anchor="middle">11-21</text>
<text x="426.18" y="720" font-size="11" fill="#555555" text-anchor="middle">20:00</text>
<line x1="500.88" y1="596.03" x2="500.88" y2="619.78" stroke="#2ecc71" stroke-width="2"/>
<rect x="479.22" y="603.95" width="43.33" height="12.23" fill="#2ecc71" stroke="#2ecc71" stroke-width="1"/>
<text x="500.88" y="704" font-size="11" fill="#555555" text-anchor="middle">11-21</text>
<text x="500.88" y="720" font-size="11" fill="#555555" text-anchor="middle">21:00</text>
<line x1="575.59" y1="575.88" x2="575.59" y2="608.26" stroke="#2ecc71" stroke-width="2"/>
<rect x="553.92" y="587.39" width="43.33" height="17.27" fill="#2ecc71" stroke="#2ecc71" stroke-width="1"/>
<text x="575.59" y="704" font-size="11" fill="#555555" text-anchor="middle">11-21</text>
<text x="575.59" y="720" font-size="11" fill="#555555" text-anchor="middle">22:00</text>
<line x1="650.29" y1="560.77" x2="650.29" y2="593.87" stroke="#2ecc71" stroke-width="2"/>
<rect x="628.63" y="565.09" width="43.33" height="22.31" fill="#2ecc71" stroke="#2ecc71" stroke-width="1"/>
<text x="650.29" y="704" font-size="11" fill="#555555" text-anchor="middle">11-21</text>
<text x="650.29" y="720" font-size="11" fill="#555555" text-anchor="middle">23:00</text>
<line x1="725.00" y1="70.00" x2="725.00" y2="576.60" stroke="#2ecc71" stroke-width="2"/>
<rect x="703.34" y="338.41" width="43.33" height="227.39" fill="#2ecc71" stroke="#2ecc71" stroke-width="1"/>
<text x="725.00" y="704" font-size="11" fill="#555555" text-anchor="middle">11-22</text>
<text x="725.00" y="720" font-size="11" fill="#555555" text-anchor="middle">00:00</text>
<line x1="799.71" y1="270.77" x2="799.71" y2="388.06" stroke="#e74c3c" stroke-width="2"/>
<rect x="778.04" y="339.13" width="43.33" height="35.26" fill="#e74c3c" stroke="#e74c3c" stroke-width="1"/>
<text x="799.71" y="704" font-size="11" fill="#555555" text-anchor="middle">11-22</text>
<text x="799.71" y="720" font-size="11" fill="#555555" text-anchor="middle">01:00</text>
<line x1="874.41" y1="341.29" x2="874.41" y2="404.62" stroke="#2ecc71" stroke-width="2"/>
<rect x="852.75" y="355.68" width="43.33" height="19.43" fill="#2ecc71" stroke="#2ecc71" stroke-width="1"/>
<text x="874.41" y="704" font-size="11" fill="#555555" text-anchor="middle">11-22</text>
<text x="874.41" y="720" font-size="11" fill="#555555" text-anchor="middle">02:00</text>
<line x1="949.12" y1="351.36" x2="949.12" y2="420.45" stroke="#e74c3c" stroke-width="2"/>
<rect x="927.45" y="356.40" width="43.33" height="5.04" fill="#e74c3c" stroke="#e74c3c" stroke-width="1"/>
<text x="949.12" y="704" font-size="11" fill="#555555" text-anchor="middle">11-22</text>
<text x="949.12" y="720" font-size="11" fill="#555555" text-anchor="middle">03:00</text>
<line x1="1023.82" y1="360.72" x2="1023.82" y2="444.91" stroke="#e74c3c" stroke-width="2"/>
<rect x="1002.16" y="360.72" width="43.33" height="77.00" fill="#e74c3c" stroke="#e74c3c" stroke-width="1"/>
<text x="1023.82" y="704" font-size="11" fill="#555555" text-anchor="middle">11-22</text>
<text x="1023.82" y="720" font-size="11" fill="#555555" text-anchor="middle">04:00</text>
<line x1="1098.53" y1="382.31" x2="1098.53" y2="440.60" stroke="#2ecc71" stroke-width="2"/>
<rect x="1076.86" y="393.82" width="43.33" height="44.62" fill="#2ecc71" stroke="#2ecc71" stroke-width="1"/>
<text x="1098.53" y="704" font-size="11" fill="#555555" text-anchor="middle">11-22</text>
<text x="1098.53" y="720" font-size="11" fill="#555555" text-anchor="middle">05:00</text>
<line x1="1173.24" y1="378.71" x2="1173.24" y2="452.83" stroke="#e74c3c" stroke-width="2"/>
<rect x="1151.57" y="395.26" width="43.33" height="44.62" fill="#e74c3c" stroke="#e74c3c" stroke-width="1"/>
<text x="1173.24" y="704" font-size="11" fill="#555555" text-anchor="middle">11-22</text>
<text x="1173.24" y="720" font-size="11" fill="#555555" text-anchor="middle">06:00</text>
<line x1="1247.94" y1="401.74" x2="1247.94" y2="453.55" stroke="#2ecc71" stroke-width="2"/>
<rect x="1226.28" y="424.04" width="43.33" height="16.55" fill="#2ecc71" stroke="#2ecc71" stroke-width="1"/>
<text x="1247.94" y="704" font-size="11" fill="#555555" text-anchor="middle">11-22</text>
<text x="1247.94" y="720" font-size="11" fill="#555555" text-anchor="middle">07:00</text>
<line x1="1322.65" y1="395.26" x2="1322.65" y2="455.71" stroke="#2ecc71" stroke-width="2"/>
<rect x="1300.98" y="423.33" width="43.33" height="1.20" fill="#2ecc71" stroke="#2ecc71" stroke-width="1"/>
<text x="1322.65" y="704" font-size="11" fill="#555555" text-anchor="middle">11-22</text>
<text x="1322.65" y="720" font-size="11" fill="#555555" text-anchor="middle">08:00</text>
<line x1="725.00" y1="70.00" x2="805.00" y2="90.00" stroke="#f1c40f" stroke-width="2"/>
<rect x="805.00" y="42.00" width="220" height="72" rx="8" fill="#fff8dc" stroke="#f1c40f"/>
<text x="815.00" y="66.00" font-size="12" fill="#111111">目标K线 2025-11-22 00:00</text>
<text x="815.00" y="84.00" font-size="12" fill="#111111">振幅 57.24%</text>
<text x="815.00" y="102.00" font-size="12" fill="#111111">倍数 14.93x</text>
<line x1="650.29" y1="560.77" x2="620.29" y2="520.77" stroke="#3498db" stroke-width="2"/>
<rect x="400.29" y="484.77" width="220" height="58" rx="8" fill="#eef6ff" stroke="#3498db"/>
<text x="410.29" y="506.77" font-size="12" fill="#111111">前一根涨幅 2.58%</text>
<text x="410.29" y="524.77" font-size="12" fill="#111111">前一根振幅 3.83%</text>
</svg>