<svg xmlns="http://www.w3.org/2000/svg" width="1400" height="760" viewBox="0 0 1400 760">
<rect width="100%" height="100%" fill="#fcfcfc"/>
<text x="90" y="36" font-size="26" font-weight="700" fill="#111111">APE-USDT-SWAP 1H - 10倍命中</text>
<line x1="90" y1="70.00" x2="1360" y2="70.00" stroke="#d9d9d9" stroke-dasharray="4 4" stroke-width="1"/>
<text x="12" y="74.00" font-size="12" fill="#555555">1.296400</text>
<line x1="90" y1="186.00" x2="1360" y2="186.00" stroke="#d9d9d9" stroke-dasharray="4 4" stroke-width="1"/>
<text x="12" y="190.00" font-size="12" fill="#555555">1.184460</text>
<line x1="90" y1="302.00" x2="1360" y2="302.00" stroke="#d9d9d9" stroke-dasharray="4 4" stroke-width="1"/>
<text x="12" y="306.00" font-size="12" fill="#555555">1.072520</text>
<line x1="90" y1="418.00" x2="1360" y2="418.00" stroke="#d9d9d9" stroke-dasharray="4 4" stroke-width="1"/>
<text x="12" y="422.00" font-size="12" fill="#555555">0.960580</text>
<line x1="90" y1="534.00" x2="1360" y2="534.00" stroke="#d9d9d9" stroke-dasharray="4 4" stroke-width="1"/>
<text x="12" y="538.00" font-size="12" fill="#555555">0.848640</text>
<line x1="90" y1="650.00" x2="1360" y2="650.00" stroke="#d9d9d9" stroke-dasharray="4 4" stroke-width="1"/>
<text x="12" y="654.00" font-size="12" fill="#555555">0.736700</text>
<rect x="687.65" y="70" width="74.71" height="580.00" fill="#f1c40f" opacity="0.16"/>
<rect x="612.94" y="70" width="74.71" height="580.00" fill="#3498db" opacity="0.10"/>
<line x1="127.35" y1="645.54" x2="127.35" y2="650.00" stroke="#e74c3c" stroke-width="2"/>
<rect x="105.69" y="646.17" width="43.33" height="1.35" fill="#e74c3c" stroke="#e74c3c" stroke-width="1"/>
<text x="127.35" y="704" font-size="11" fill="#555555" text-anchor="middle">10-19</text>
<text x="127.35" y="720" font-size="11" fill="#555555" text-anchor="middle">21:00</text>
<line x1="202.06" y1="641.09" x2="202.06" y2="647.41" stroke="#2ecc71" stroke-width="2"/>
<rect x="180.39" y="641.92" width="43.33" height="5.49" fill="#2ecc71" stroke="#2ecc71" stroke-width="1"/>
<text x="202.06" y="704" font-size="11" fill="#555555" text-anchor="middle">10-19</text>
<text x="202.06" y="720" font-size="11" fill="#555555" text-anchor="middle">22:00</text>
<line x1="276.76" y1="641.40" x2="276.76" y2="646.17" stroke="#e74c3c" stroke-width="2"/>
<rect x="255.10" y="641.81" width="43.33" height="3.11" fill="#e74c3c" stroke="#e74c3c" stroke-width="1"/>
<text x="276.76" y="704" font-size="11" fill="#555555" text-anchor="middle">10-19</text>
<text x="276.76" y="720" font-size="11" fill="#555555" text-anchor="middle">23:00</text>
<line x1="351.47" y1="644.09" x2="351.47" y2="648.65" stroke="#e74c3c" stroke-width="2"/>
<rect x="329.81" y="644.82" width="43.33" height="3.63" fill="#e74c3c" stroke="#e74c3c" stroke-width="1"/>
<text x="351.47" y="704" font-size="11" fill="#555555" text-anchor="middle">10-20</text>
<text x="351.47" y="720" font-size="11" fill="#555555" text-anchor="middle">00:00</text>
<line x1="426.18" y1="640.98" x2="426.18" y2="648.45" stroke="#2ecc71" stroke-width="2"/>
<rect x="404.51" y="642.44" width="43.33" height="6.01" fill="#2ecc71" stroke="#2ecc71" stroke-width="1"/>
<text x="426.18" y="704" font-size="11" fill="#555555" text-anchor="middle">10-20</text>
<text x="426.18" y="720" font-size="11" fill="#555555" text-anchor="middle">01:00</text>
<line x1="500.88" y1="639.02" x2="500.88" y2="643.26" stroke="#2ecc71" stroke-width="2"/>
<rect x="479.22" y="640.16" width="43.33" height="2.28" fill="#2ecc71" stroke="#2ecc71" stroke-width="1"/>
<text x="500.88" y="704" font-size="11" fill="#555555" text-anchor="middle">10-20</text>
<text x="500.88" y="720" font-size="11" fill="#555555" text-anchor="middle">02:00</text>
<line x1="575.59" y1="635.70" x2="575.59" y2="642.02" stroke="#2ecc71" stroke-width="2"/>
<rect x="553.92" y="640.05" width="43.33" height="1.20" fill="#2ecc71" stroke="#2ecc71" stroke-width="1"/>
<text x="575.59" y="704" font-size="11" fill="#555555" text-anchor="middle">10-20</text>
<text x="575.59" y="720" font-size="11" fill="#555555" text-anchor="middle">03:00</text>
<line x1="650.29" y1="628.96" x2="650.29" y2="640.26" stroke="#2ecc71" stroke-width="2"/>
<rect x="628.63" y="629.17" width="43.33" height="10.98" fill="#2ecc71" stroke="#2ecc71" stroke-width="1"/>
<text x="650.29" y="704" font-size="11" fill="#555555" text-anchor="middle">10-20</text>
<text x="650.29" y="720" font-size="11" fill="#555555" text-anchor="middle">04:00</text>
<line x1="725.00" y1="452.90" x2="725.00" y2="629.27" stroke="#2ecc71" stroke-width="2"/>
<rect x="703.34" y="467.82" width="43.33" height="161.45" fill="#2ecc71" stroke="#2ecc71" stroke-width="1"/>
<text x="725.00" y="704" font-size="11" fill="#555555" text-anchor="middle">10-20</text>
<text x="725.00" y="720" font-size="11" fill="#555555" text-anchor="middle">05:00</text>
<line x1="799.71" y1="460.47" x2="799.71" y2="514.35" stroke="#e74c3c" stroke-width="2"/>
<rect x="778.04" y="467.82" width="43.33" height="34.61" fill="#e74c3c" stroke="#e74c3c" stroke-width="1"/>
<text x="799.71" y="704" font-size="11" fill="#555555" text-anchor="middle">10-20</text>
<text x="799.71" y="720" font-size="11" fill="#555555" text-anchor="middle">06:00</text>
<line x1="874.41" y1="483.68" x2="874.41" y2="519.12" stroke="#e74c3c" stroke-width="2"/>
<rect x="852.75" y="502.54" width="43.33" height="7.98" fill="#e74c3c" stroke="#e74c3c" stroke-width="1"/>
<text x="874.41" y="704" font-size="11" fill="#555555" text-anchor="middle">10-20</text>
<text x="874.41" y="720" font-size="11" fill="#555555" text-anchor="middle">07:00</text>
<line x1="949.12" y1="499.02" x2="949.12" y2="521.09" stroke="#2ecc71" stroke-width="2"/>
<rect x="927.45" y="502.44" width="43.33" height="8.19" fill="#2ecc71" stroke="#2ecc71" stroke-width="1"/>
<text x="949.12" y="704" font-size="11" fill="#555555" text-anchor="middle">10-20</text>
<text x="949.12" y="720" font-size="11" fill="#555555" text-anchor="middle">08:00</text>
<line x1="1023.82" y1="471.24" x2="1023.82" y2="509.38" stroke="#2ecc71" stroke-width="2"/>
<rect x="1002.16" y="475.18" width="43.33" height="27.25" fill="#2ecc71" stroke="#2ecc71" stroke-width="1"/>
<text x="1023.82" y="704" font-size="11" fill="#555555" text-anchor="middle">10-20</text>
<text x="1023.82" y="720" font-size="11" fill="#555555" text-anchor="middle">09:00</text>
<line x1="1098.53" y1="466.58" x2="1098.53" y2="486.89" stroke="#e74c3c" stroke-width="2"/>
<rect x="1076.86" y="475.08" width="43.33" height="2.69" fill="#e74c3c" stroke="#e74c3c" stroke-width="1"/>
<text x="1098.53" y="704" font-size="11" fill="#555555" text-anchor="middle">10-20</text>
<text x="1098.53" y="720" font-size="11" fill="#555555" text-anchor="middle">10:00</text>
<line x1="1173.24" y1="326.06" x2="1173.24" y2="485.34" stroke="#2ecc71" stroke-width="2"/>
<rect x="1151.57" y="359.95" width="43.33" height="117.82" fill="#2ecc71" stroke="#2ecc71" stroke-width="1"/>
<text x="1173.24" y="704" font-size="11" fill="#555555" text-anchor="middle">10-20</text>
<text x="1173.24" y="720" font-size="11" fill="#555555" text-anchor="middle">11:00</text>
<line x1="1247.94" y1="213.42" x2="1247.94" y2="370.10" stroke="#2ecc71" stroke-width="2"/>
<rect x="1226.28" y="251.35" width="43.33" height="108.19" fill="#2ecc71" stroke="#2ecc71" stroke-width="1"/>
<text x="1247.94" y="704" font-size="11" fill="#555555" text-anchor="middle">10-20</text>
<text x="1247.94" y="720" font-size="11" fill="#555555" text-anchor="middle">12:00</text>
<line x1="1322.65" y1="70.00" x2="1322.65" y2="260.88" stroke="#2ecc71" stroke-width="2"/>
<rect x="1300.98" y="143.99" width="43.33" height="107.67" fill="#2ecc71" stroke="#2ecc71" stroke-width="1"/>
<text x="1322.65" y="704" font-size="11" fill="#555555" text-anchor="middle">10-20</text>
<text x="1322.65" y="720" font-size="11" fill="#555555" text-anchor="middle">13:00</text>
<line x1="725.00" y1="452.90" x2="805.00" y2="382.90" stroke="#f1c40f" stroke-width="2"/>
<rect x="805.00" y="334.90" width="220" height="72" rx="8" fill="#fff8dc" stroke="#f1c40f"/>
<text x="815.00" y="358.90" font-size="12" fill="#111111">目标K线 2024-10-20 05:00</text>
<text x="815.00" y="376.90" font-size="12" fill="#111111">振幅 22.49%</text>
<text x="815.00" y="394.90" font-size="12" fill="#111111">倍数 15.40x</text>
<line x1="650.29" y1="628.96" x2="620.29" y2="588.96" stroke="#3498db" stroke-width="2"/>
<rect x="400.29" y="552.96" width="220" height="58" rx="8" fill="#eef6ff" stroke="#3498db"/>
<text x="410.29" y="574.96" font-size="12" fill="#111111">前一根涨幅 1.42%</text>
<text x="410.29" y="592.96" font-size="12" fill="#111111">前一根振幅 1.46%</text>
</svg>