<svg xmlns="http://www.w3.org/2000/svg" width="1400" height="760" viewBox="0 0 1400 760">
<rect width="100%" height="100%" fill="#fcfcfc"/>
<text x="90" y="36" font-size="26" font-weight="700" fill="#111111">UMA-USDT-SWAP 1H - 10倍命中</text>
<line x1="90" y1="70.00" x2="1360" y2="70.00" stroke="#d9d9d9" stroke-dasharray="4 4" stroke-width="1"/>
<text x="12" y="74.00" font-size="12" fill="#555555">1.263600</text>
<line x1="90" y1="186.00" x2="1360" y2="186.00" stroke="#d9d9d9" stroke-dasharray="4 4" stroke-width="1"/>
<text x="12" y="190.00" font-size="12" fill="#555555">1.211440</text>
<line x1="90" y1="302.00" x2="1360" y2="302.00" stroke="#d9d9d9" stroke-dasharray="4 4" stroke-width="1"/>
<text x="12" y="306.00" font-size="12" fill="#555555">1.159280</text>
<line x1="90" y1="418.00" x2="1360" y2="418.00" stroke="#d9d9d9" stroke-dasharray="4 4" stroke-width="1"/>
<text x="12" y="422.00" font-size="12" fill="#555555">1.107120</text>
<line x1="90" y1="534.00" x2="1360" y2="534.00" stroke="#d9d9d9" stroke-dasharray="4 4" stroke-width="1"/>
<text x="12" y="538.00" font-size="12" fill="#555555">1.054960</text>
<line x1="90" y1="650.00" x2="1360" y2="650.00" stroke="#d9d9d9" stroke-dasharray="4 4" stroke-width="1"/>
<text x="12" y="654.00" font-size="12" fill="#555555">1.002800</text>
<rect x="687.65" y="70" width="74.71" height="580.00" fill="#f1c40f" opacity="0.16"/>
<rect x="612.94" y="70" width="74.71" height="580.00" fill="#3498db" opacity="0.10"/>
<line x1="127.35" y1="469.42" x2="127.35" y2="575.05" stroke="#e74c3c" stroke-width="2"/>
<rect x="105.69" y="537.25" width="43.33" height="31.36" fill="#e74c3c" stroke="#e74c3c" stroke-width="1"/>
<text x="127.35" y="704" font-size="11" fill="#555555" text-anchor="middle">11-09</text>
<text x="127.35" y="720" font-size="11" fill="#555555" text-anchor="middle">08:00</text>
<line x1="202.06" y1="545.70" x2="202.06" y2="578.61" stroke="#2ecc71" stroke-width="2"/>
<rect x="180.39" y="568.16" width="43.33" height="1.33" fill="#2ecc71" stroke="#2ecc71" stroke-width="1"/>
<text x="202.06" y="704" font-size="11" fill="#555555" text-anchor="middle">11-09</text>
<text x="202.06" y="720" font-size="11" fill="#555555" text-anchor="middle">09:00</text>
<line x1="276.76" y1="556.82" x2="276.76" y2="629.54" stroke="#e74c3c" stroke-width="2"/>
<rect x="255.10" y="568.83" width="43.33" height="53.82" fill="#e74c3c" stroke="#e74c3c" stroke-width="1"/>
<text x="276.76" y="704" font-size="11" fill="#555555" text-anchor="middle">11-09</text>
<text x="276.76" y="720" font-size="11" fill="#555555" text-anchor="middle">10:00</text>
<line x1="351.47" y1="607.52" x2="351.47" y2="650.00" stroke="#e74c3c" stroke-width="2"/>
<rect x="329.81" y="622.87" width="43.33" height="18.24" fill="#e74c3c" stroke="#e74c3c" stroke-width="1"/>
<text x="351.47" y="704" font-size="11" fill="#555555" text-anchor="middle">11-09</text>
<text x="351.47" y="720" font-size="11" fill="#555555" text-anchor="middle">11:00</text>
<line x1="426.18" y1="591.07" x2="426.18" y2="643.33" stroke="#2ecc71" stroke-width="2"/>
<rect x="404.51" y="620.64" width="43.33" height="19.79" fill="#2ecc71" stroke="#2ecc71" stroke-width="1"/>
<text x="426.18" y="704" font-size="11" fill="#555555" text-anchor="middle">11-09</text>
<text x="426.18" y="720" font-size="11" fill="#555555" text-anchor="middle">12:00</text>
<line x1="500.88" y1="616.42" x2="500.88" y2="637.10" stroke="#e74c3c" stroke-width="2"/>
<rect x="479.22" y="621.31" width="43.33" height="4.45" fill="#e74c3c" stroke="#e74c3c" stroke-width="1"/>
<text x="500.88" y="704" font-size="11" fill="#555555" text-anchor="middle">11-09</text>
<text x="500.88" y="720" font-size="11" fill="#555555" text-anchor="middle">13:00</text>
<line x1="575.59" y1="602.41" x2="575.59" y2="630.87" stroke="#2ecc71" stroke-width="2"/>
<rect x="553.92" y="624.65" width="43.33" height="1.20" fill="#2ecc71" stroke="#2ecc71" stroke-width="1"/>
<text x="575.59" y="704" font-size="11" fill="#555555" text-anchor="middle">11-09</text>
<text x="575.59" y="720" font-size="11" fill="#555555" text-anchor="middle">14:00</text>
<line x1="650.29" y1="590.62" x2="650.29" y2="627.76" stroke="#2ecc71" stroke-width="2"/>
<rect x="628.63" y="596.18" width="43.33" height="28.91" fill="#2ecc71" stroke="#2ecc71" stroke-width="1"/>
<text x="650.29" y="704" font-size="11" fill="#555555" text-anchor="middle">11-09</text>
<text x="650.29" y="720" font-size="11" fill="#555555" text-anchor="middle">15:00</text>
<line x1="725.00" y1="70.00" x2="725.00" y2="608.86" stroke="#2ecc71" stroke-width="2"/>
<rect x="703.34" y="390.69" width="43.33" height="205.71" fill="#2ecc71" stroke="#2ecc71" stroke-width="1"/>
<text x="725.00" y="704" font-size="11" fill="#555555" text-anchor="middle">11-09</text>
<text x="725.00" y="720" font-size="11" fill="#555555" text-anchor="middle">16:00</text>
<line x1="799.71" y1="74.45" x2="799.71" y2="584.84" stroke="#e74c3c" stroke-width="2"/>
<rect x="778.04" y="391.36" width="43.33" height="190.15" fill="#e74c3c" stroke="#e74c3c" stroke-width="1"/>
<text x="799.71" y="704" font-size="11" fill="#555555" text-anchor="middle">11-09</text>
<text x="799.71" y="720" font-size="11" fill="#555555" text-anchor="middle">17:00</text>
<line x1="874.41" y1="579.72" x2="874.41" y2="638.21" stroke="#e74c3c" stroke-width="2"/>
<rect x="852.75" y="581.73" width="43.33" height="31.36" fill="#e74c3c" stroke="#e74c3c" stroke-width="1"/>
<text x="874.41" y="704" font-size="11" fill="#555555" text-anchor="middle">11-09</text>
<text x="874.41" y="720" font-size="11" fill="#555555" text-anchor="middle">18:00</text>
<line x1="949.12" y1="556.60" x2="949.12" y2="613.31" stroke="#2ecc71" stroke-width="2"/>
<rect x="927.45" y="592.62" width="43.33" height="20.68" fill="#2ecc71" stroke="#2ecc71" stroke-width="1"/>
<text x="949.12" y="704" font-size="11" fill="#555555" text-anchor="middle">11-09</text>
<text x="949.12" y="720" font-size="11" fill="#555555" text-anchor="middle">19:00</text>
<line x1="1023.82" y1="583.95" x2="1023.82" y2="617.53" stroke="#e74c3c" stroke-width="2"/>
<rect x="1002.16" y="593.07" width="43.33" height="18.68" fill="#e74c3c" stroke="#e74c3c" stroke-width="1"/>
<text x="1023.82" y="704" font-size="11" fill="#555555" text-anchor="middle">11-09</text>
<text x="1023.82" y="720" font-size="11" fill="#555555" text-anchor="middle">20:00</text>
<line x1="1098.53" y1="592.40" x2="1098.53" y2="625.76" stroke="#e74c3c" stroke-width="2"/>
<rect x="1076.86" y="611.08" width="43.33" height="5.56" fill="#e74c3c" stroke="#e74c3c" stroke-width="1"/>
<text x="1098.53" y="704" font-size="11" fill="#555555" text-anchor="middle">11-09</text>
<text x="1098.53" y="720" font-size="11" fill="#555555" text-anchor="middle">21:00</text>
<line x1="1173.24" y1="567.27" x2="1173.24" y2="629.76" stroke="#2ecc71" stroke-width="2"/>
<rect x="1151.57" y="613.08" width="43.33" height="4.00" fill="#2ecc71" stroke="#2ecc71" stroke-width="1"/>
<text x="1173.24" y="704" font-size="11" fill="#555555" text-anchor="middle">11-09</text>
<text x="1173.24" y="720" font-size="11" fill="#555555" text-anchor="middle">22:00</text>
<line x1="1247.94" y1="586.17" x2="1247.94" y2="616.64" stroke="#2ecc71" stroke-width="2"/>
<rect x="1226.28" y="599.52" width="43.33" height="13.34" fill="#2ecc71" stroke="#2ecc71" stroke-width="1"/>
<text x="1247.94" y="704" font-size="11" fill="#555555" text-anchor="middle">11-09</text>
<text x="1247.94" y="720" font-size="11" fill="#555555" text-anchor="middle">23:00</text>
<line x1="1322.65" y1="580.17" x2="1322.65" y2="604.63" stroke="#2ecc71" stroke-width="2"/>
<rect x="1300.98" y="593.73" width="43.33" height="5.12" fill="#2ecc71" stroke="#2ecc71" stroke-width="1"/>
<text x="1322.65" y="704" font-size="11" fill="#555555" text-anchor="middle">11-10</text>
<text x="1322.65" y="720" font-size="11" fill="#555555" text-anchor="middle">00:00</text>
<line x1="725.00" y1="70.00" x2="805.00" y2="90.00" stroke="#f1c40f" stroke-width="2"/>
<rect x="805.00" y="42.00" width="220" height="72" rx="8" fill="#fff8dc" stroke="#f1c40f"/>
<text x="815.00" y="66.00" font-size="12" fill="#111111">目标K线 2025-11-09 16:00</text>
<text x="815.00" y="84.00" font-size="12" fill="#111111">振幅 23.60%</text>
<text x="815.00" y="102.00" font-size="12" fill="#111111">倍数 14.33x</text>
<line x1="650.29" y1="590.62" x2="620.29" y2="550.62" stroke="#3498db" stroke-width="2"/>
<rect x="400.29" y="514.62" width="220" height="58" rx="8" fill="#eef6ff" stroke="#3498db"/>
<text x="410.29" y="536.62" font-size="12" fill="#111111">前一根涨幅 1.28%</text>
<text x="410.29" y="554.62" font-size="12" fill="#111111">前一根振幅 1.65%</text>
</svg>