<svg xmlns="http://www.w3.org/2000/svg" width="1400" height="760" viewBox="0 0 1400 760">
<rect width="100%" height="100%" fill="#fcfcfc"/>
<text x="90" y="36" font-size="26" font-weight="700" fill="#111111">B3_USDT 1H - 9倍命中</text>
<line x1="90" y1="70.00" x2="1360" y2="70.00" stroke="#d9d9d9" stroke-dasharray="4 4" stroke-width="1"/>
<text x="12" y="74.00" font-size="12" fill="#555555">0.003064</text>
<line x1="90" y1="186.00" x2="1360" y2="186.00" stroke="#d9d9d9" stroke-dasharray="4 4" stroke-width="1"/>
<text x="12" y="190.00" font-size="12" fill="#555555">0.002949</text>
<line x1="90" y1="302.00" x2="1360" y2="302.00" stroke="#d9d9d9" stroke-dasharray="4 4" stroke-width="1"/>
<text x="12" y="306.00" font-size="12" fill="#555555">0.002834</text>
<line x1="90" y1="418.00" x2="1360" y2="418.00" stroke="#d9d9d9" stroke-dasharray="4 4" stroke-width="1"/>
<text x="12" y="422.00" font-size="12" fill="#555555">0.002718</text>
<line x1="90" y1="534.00" x2="1360" y2="534.00" stroke="#d9d9d9" stroke-dasharray="4 4" stroke-width="1"/>
<text x="12" y="538.00" font-size="12" fill="#555555">0.002603</text>
<line x1="90" y1="650.00" x2="1360" y2="650.00" stroke="#d9d9d9" stroke-dasharray="4 4" stroke-width="1"/>
<text x="12" y="654.00" font-size="12" fill="#555555">0.002488</text>
<rect x="687.65" y="70" width="74.71" height="580.00" fill="#f1c40f" opacity="0.16"/>
<rect x="612.94" y="70" width="74.71" height="580.00" fill="#3498db" opacity="0.10"/>
<line x1="127.35" y1="540.24" x2="127.35" y2="582.53" stroke="#e74c3c" stroke-width="2"/>
<rect x="105.69" y="560.38" width="43.33" height="22.15" fill="#e74c3c" stroke="#e74c3c" stroke-width="1"/>
<text x="127.35" y="704" font-size="11" fill="#555555" text-anchor="middle">09-24</text>
<text x="127.35" y="720" font-size="11" fill="#555555" text-anchor="middle">08:00</text>
<line x1="202.06" y1="572.47" x2="202.06" y2="592.60" stroke="#2ecc71" stroke-width="2"/>
<rect x="180.39" y="574.48" width="43.33" height="10.07" fill="#2ecc71" stroke="#2ecc71" stroke-width="1"/>
<text x="202.06" y="704" font-size="11" fill="#555555" text-anchor="middle">09-24</text>
<text x="202.06" y="720" font-size="11" fill="#555555" text-anchor="middle">09:00</text>
<line x1="276.76" y1="572.47" x2="276.76" y2="608.72" stroke="#e74c3c" stroke-width="2"/>
<rect x="255.10" y="572.47" width="43.33" height="5.03" fill="#e74c3c" stroke="#e74c3c" stroke-width="1"/>
<text x="276.76" y="704" font-size="11" fill="#555555" text-anchor="middle">09-24</text>
<text x="276.76" y="720" font-size="11" fill="#555555" text-anchor="middle">10:00</text>
<line x1="351.47" y1="574.48" x2="351.47" y2="616.77" stroke="#e74c3c" stroke-width="2"/>
<rect x="329.81" y="578.51" width="43.33" height="34.24" fill="#e74c3c" stroke="#e74c3c" stroke-width="1"/>
<text x="351.47" y="704" font-size="11" fill="#555555" text-anchor="middle">09-24</text>
<text x="351.47" y="720" font-size="11" fill="#555555" text-anchor="middle">11:00</text>
<line x1="426.18" y1="571.46" x2="426.18" y2="650.00" stroke="#2ecc71" stroke-width="2"/>
<rect x="404.51" y="581.53" width="43.33" height="37.26" fill="#2ecc71" stroke="#2ecc71" stroke-width="1"/>
<text x="426.18" y="704" font-size="11" fill="#555555" text-anchor="middle">09-24</text>
<text x="426.18" y="720" font-size="11" fill="#555555" text-anchor="middle">12:00</text>
<line x1="500.88" y1="546.28" x2="500.88" y2="575.49" stroke="#2ecc71" stroke-width="2"/>
<rect x="479.22" y="546.28" width="43.33" height="29.20" fill="#2ecc71" stroke="#2ecc71" stroke-width="1"/>
<text x="500.88" y="704" font-size="11" fill="#555555" text-anchor="middle">09-24</text>
<text x="500.88" y="720" font-size="11" fill="#555555" text-anchor="middle">13:00</text>
<line x1="575.59" y1="551.32" x2="575.59" y2="570.45" stroke="#2ecc71" stroke-width="2"/>
<rect x="553.92" y="552.33" width="43.33" height="1.20" fill="#2ecc71" stroke="#2ecc71" stroke-width="1"/>
<text x="575.59" y="704" font-size="11" fill="#555555" text-anchor="middle">09-24</text>
<text x="575.59" y="720" font-size="11" fill="#555555" text-anchor="middle">14:00</text>
<line x1="650.29" y1="514.06" x2="650.29" y2="560.38" stroke="#2ecc71" stroke-width="2"/>
<rect x="628.63" y="524.13" width="43.33" height="28.19" fill="#2ecc71" stroke="#2ecc71" stroke-width="1"/>
<text x="650.29" y="704" font-size="11" fill="#555555" text-anchor="middle">09-24</text>
<text x="650.29" y="720" font-size="11" fill="#555555" text-anchor="middle">15:00</text>
<line x1="725.00" y1="70.00" x2="725.00" y2="520.10" stroke="#2ecc71" stroke-width="2"/>
<rect x="703.34" y="287.50" width="43.33" height="232.60" fill="#2ecc71" stroke="#2ecc71" stroke-width="1"/>
<text x="725.00" y="704" font-size="11" fill="#555555" text-anchor="middle">09-24</text>
<text x="725.00" y="720" font-size="11" fill="#555555" text-anchor="middle">16:00</text>
<line x1="799.71" y1="153.58" x2="799.71" y2="328.78" stroke="#2ecc71" stroke-width="2"/>
<rect x="778.04" y="258.30" width="43.33" height="33.23" fill="#2ecc71" stroke="#2ecc71" stroke-width="1"/>
<text x="799.71" y="704" font-size="11" fill="#555555" text-anchor="middle">09-24</text>
<text x="799.71" y="720" font-size="11" fill="#555555" text-anchor="middle">17:00</text>
<line x1="874.41" y1="202.92" x2="874.41" y2="371.08" stroke="#e74c3c" stroke-width="2"/>
<rect x="852.75" y="254.27" width="43.33" height="66.46" fill="#e74c3c" stroke="#e74c3c" stroke-width="1"/>
<text x="874.41" y="704" font-size="11" fill="#555555" text-anchor="middle">09-24</text>
<text x="874.41" y="720" font-size="11" fill="#555555" text-anchor="middle">18:00</text>
<line x1="949.12" y1="316.70" x2="949.12" y2="468.75" stroke="#e74c3c" stroke-width="2"/>
<rect x="927.45" y="316.70" width="43.33" height="100.69" fill="#e74c3c" stroke="#e74c3c" stroke-width="1"/>
<text x="949.12" y="704" font-size="11" fill="#555555" text-anchor="middle">09-24</text>
<text x="949.12" y="720" font-size="11" fill="#555555" text-anchor="middle">19:00</text>
<line x1="1023.82" y1="403.30" x2="1023.82" y2="450.63" stroke="#e74c3c" stroke-width="2"/>
<rect x="1002.16" y="429.48" width="43.33" height="15.10" fill="#e74c3c" stroke="#e74c3c" stroke-width="1"/>
<text x="1023.82" y="704" font-size="11" fill="#555555" text-anchor="middle">09-24</text>
<text x="1023.82" y="720" font-size="11" fill="#555555" text-anchor="middle">20:00</text>
<line x1="1098.53" y1="439.55" x2="1098.53" y2="482.85" stroke="#e74c3c" stroke-width="2"/>
<rect x="1076.86" y="439.55" width="43.33" height="41.28" fill="#e74c3c" stroke="#e74c3c" stroke-width="1"/>
<text x="1098.53" y="704" font-size="11" fill="#555555" text-anchor="middle">09-24</text>
<text x="1098.53" y="720" font-size="11" fill="#555555" text-anchor="middle">21:00</text>
<line x1="1173.24" y1="398.26" x2="1173.24" y2="479.83" stroke="#2ecc71" stroke-width="2"/>
<rect x="1151.57" y="407.33" width="43.33" height="72.50" fill="#2ecc71" stroke="#2ecc71" stroke-width="1"/>
<text x="1173.24" y="704" font-size="11" fill="#555555" text-anchor="middle">09-24</text>
<text x="1173.24" y="720" font-size="11" fill="#555555" text-anchor="middle">22:00</text>
<line x1="1247.94" y1="364.03" x2="1247.94" y2="468.75" stroke="#e74c3c" stroke-width="2"/>
<rect x="1226.28" y="407.33" width="43.33" height="46.32" fill="#e74c3c" stroke="#e74c3c" stroke-width="1"/>
<text x="1247.94" y="704" font-size="11" fill="#555555" text-anchor="middle">09-24</text>
<text x="1247.94" y="720" font-size="11" fill="#555555" text-anchor="middle">23:00</text>
<line x1="1322.65" y1="389.20" x2="1322.65" y2="450.63" stroke="#2ecc71" stroke-width="2"/>
<rect x="1300.98" y="407.33" width="43.33" height="35.24" fill="#2ecc71" stroke="#2ecc71" stroke-width="1"/>
<text x="1322.65" y="704" font-size="11" fill="#555555" text-anchor="middle">09-25</text>
<text x="1322.65" y="720" font-size="11" fill="#555555" text-anchor="middle">00:00</text>
<line x1="725.00" y1="70.00" x2="805.00" y2="90.00" stroke="#f1c40f" stroke-width="2"/>
<rect x="805.00" y="42.00" width="220" height="72" rx="8" fill="#fff8dc" stroke="#f1c40f"/>
<text x="815.00" y="66.00" font-size="12" fill="#111111">目标K线 2025-09-24 16:00</text>
<text x="815.00" y="84.00" font-size="12" fill="#111111">振幅 17.08%</text>
<text x="815.00" y="102.00" font-size="12" fill="#111111">倍数 9.60x</text>
<line x1="650.29" y1="514.06" x2="620.29" y2="474.06" stroke="#3498db" stroke-width="2"/>
<rect x="400.29" y="438.06" width="220" height="58" rx="8" fill="#eef6ff" stroke="#3498db"/>
<text x="410.29" y="460.06" font-size="12" fill="#111111">前一根涨幅 1.08%</text>
<text x="410.29" y="478.06" font-size="12" fill="#111111">前一根振幅 1.78%</text>
</svg>