<svg xmlns="http://www.w3.org/2000/svg" width="1400" height="760" viewBox="0 0 1400 760">
<rect width="100%" height="100%" fill="#fcfcfc"/>
<text x="90" y="36" font-size="26" font-weight="700" fill="#111111">BAS_USDT 1H - 9倍命中</text>
<line x1="90" y1="70.00" x2="1360" y2="70.00" stroke="#d9d9d9" stroke-dasharray="4 4" stroke-width="1"/>
<text x="12" y="74.00" font-size="12" fill="#555555">0.015538</text>
<line x1="90" y1="186.00" x2="1360" y2="186.00" stroke="#d9d9d9" stroke-dasharray="4 4" stroke-width="1"/>
<text x="12" y="190.00" font-size="12" fill="#555555">0.014840</text>
<line x1="90" y1="302.00" x2="1360" y2="302.00" stroke="#d9d9d9" stroke-dasharray="4 4" stroke-width="1"/>
<text x="12" y="306.00" font-size="12" fill="#555555">0.014143</text>
<line x1="90" y1="418.00" x2="1360" y2="418.00" stroke="#d9d9d9" stroke-dasharray="4 4" stroke-width="1"/>
<text x="12" y="422.00" font-size="12" fill="#555555">0.013445</text>
<line x1="90" y1="534.00" x2="1360" y2="534.00" stroke="#d9d9d9" stroke-dasharray="4 4" stroke-width="1"/>
<text x="12" y="538.00" font-size="12" fill="#555555">0.012748</text>
<line x1="90" y1="650.00" x2="1360" y2="650.00" stroke="#d9d9d9" stroke-dasharray="4 4" stroke-width="1"/>
<text x="12" y="654.00" font-size="12" fill="#555555">0.012050</text>
<rect x="687.65" y="70" width="74.71" height="580.00" fill="#f1c40f" opacity="0.16"/>
<rect x="612.94" y="70" width="74.71" height="580.00" fill="#3498db" opacity="0.10"/>
<line x1="127.35" y1="534.10" x2="127.35" y2="571.01" stroke="#2ecc71" stroke-width="2"/>
<rect x="105.69" y="554.22" width="43.33" height="7.48" fill="#2ecc71" stroke="#2ecc71" stroke-width="1"/>
<text x="127.35" y="704" font-size="11" fill="#555555" text-anchor="middle">10-31</text>
<text x="127.35" y="720" font-size="11" fill="#555555" text-anchor="middle">14:00</text>
<line x1="202.06" y1="544.24" x2="202.06" y2="578.50" stroke="#e74c3c" stroke-width="2"/>
<rect x="180.39" y="554.39" width="43.33" height="4.16" fill="#e74c3c" stroke="#e74c3c" stroke-width="1"/>
<text x="202.06" y="704" font-size="11" fill="#555555" text-anchor="middle">10-31</text>
<text x="202.06" y="720" font-size="11" fill="#555555" text-anchor="middle">15:00</text>
<line x1="276.76" y1="559.54" x2="276.76" y2="599.78" stroke="#e74c3c" stroke-width="2"/>
<rect x="255.10" y="567.86" width="43.33" height="19.62" fill="#e74c3c" stroke="#e74c3c" stroke-width="1"/>
<text x="276.76" y="704" font-size="11" fill="#555555" text-anchor="middle">10-31</text>
<text x="276.76" y="720" font-size="11" fill="#555555" text-anchor="middle">16:00</text>
<line x1="351.47" y1="573.18" x2="351.47" y2="600.45" stroke="#2ecc71" stroke-width="2"/>
<rect x="329.81" y="576.17" width="43.33" height="11.31" fill="#2ecc71" stroke="#2ecc71" stroke-width="1"/>
<text x="351.47" y="704" font-size="11" fill="#555555" text-anchor="middle">10-31</text>
<text x="351.47" y="720" font-size="11" fill="#555555" text-anchor="middle">17:00</text>
<line x1="426.18" y1="568.02" x2="426.18" y2="635.37" stroke="#e74c3c" stroke-width="2"/>
<rect x="404.51" y="576.34" width="43.33" height="42.74" fill="#e74c3c" stroke="#e74c3c" stroke-width="1"/>
<text x="426.18" y="704" font-size="11" fill="#555555" text-anchor="middle">10-31</text>
<text x="426.18" y="720" font-size="11" fill="#555555" text-anchor="middle">18:00</text>
<line x1="500.88" y1="602.44" x2="500.88" y2="650.00" stroke="#2ecc71" stroke-width="2"/>
<rect x="479.22" y="603.11" width="43.33" height="17.96" fill="#2ecc71" stroke="#2ecc71" stroke-width="1"/>
<text x="500.88" y="704" font-size="11" fill="#555555" text-anchor="middle">10-31</text>
<text x="500.88" y="720" font-size="11" fill="#555555" text-anchor="middle">19:00</text>
<line x1="575.59" y1="593.46" x2="575.59" y2="625.56" stroke="#e74c3c" stroke-width="2"/>
<rect x="553.92" y="603.77" width="43.33" height="21.78" fill="#e74c3c" stroke="#e74c3c" stroke-width="1"/>
<text x="575.59" y="704" font-size="11" fill="#555555" text-anchor="middle">10-31</text>
<text x="575.59" y="720" font-size="11" fill="#555555" text-anchor="middle">20:00</text>
<line x1="650.29" y1="596.12" x2="650.29" y2="631.54" stroke="#2ecc71" stroke-width="2"/>
<rect x="628.63" y="600.61" width="43.33" height="21.12" fill="#2ecc71" stroke="#2ecc71" stroke-width="1"/>
<text x="650.29" y="704" font-size="11" fill="#555555" text-anchor="middle">10-31</text>
<text x="650.29" y="720" font-size="11" fill="#555555" text-anchor="middle">21:00</text>
<line x1="725.00" y1="263.22" x2="725.00" y2="601.28" stroke="#2ecc71" stroke-width="2"/>
<rect x="703.34" y="285.67" width="43.33" height="315.61" fill="#2ecc71" stroke="#2ecc71" stroke-width="1"/>
<text x="725.00" y="704" font-size="11" fill="#555555" text-anchor="middle">10-31</text>
<text x="725.00" y="720" font-size="11" fill="#555555" text-anchor="middle">22:00</text>
<line x1="799.71" y1="70.00" x2="799.71" y2="335.39" stroke="#2ecc71" stroke-width="2"/>
<rect x="778.04" y="165.28" width="43.33" height="116.23" fill="#2ecc71" stroke="#2ecc71" stroke-width="1"/>
<text x="799.71" y="704" font-size="11" fill="#555555" text-anchor="middle">10-31</text>
<text x="799.71" y="720" font-size="11" fill="#555555" text-anchor="middle">23:00</text>
<line x1="874.41" y1="136.68" x2="874.41" y2="392.92" stroke="#e74c3c" stroke-width="2"/>
<rect x="852.75" y="167.28" width="43.33" height="201.37" fill="#e74c3c" stroke="#e74c3c" stroke-width="1"/>
<text x="874.41" y="704" font-size="11" fill="#555555" text-anchor="middle">11-01</text>
<text x="874.41" y="720" font-size="11" fill="#555555" text-anchor="middle">00:00</text>
<line x1="949.12" y1="345.87" x2="949.12" y2="400.07" stroke="#e74c3c" stroke-width="2"/>
<rect x="927.45" y="374.97" width="43.33" height="16.79" fill="#e74c3c" stroke="#e74c3c" stroke-width="1"/>
<text x="949.12" y="704" font-size="11" fill="#555555" text-anchor="middle">11-01</text>
<text x="949.12" y="720" font-size="11" fill="#555555" text-anchor="middle">01:00</text>
<line x1="1023.82" y1="301.63" x2="1023.82" y2="461.27" stroke="#2ecc71" stroke-width="2"/>
<rect x="1002.16" y="342.54" width="43.33" height="49.22" fill="#2ecc71" stroke="#2ecc71" stroke-width="1"/>
<text x="1023.82" y="704" font-size="11" fill="#555555" text-anchor="middle">11-01</text>
<text x="1023.82" y="720" font-size="11" fill="#555555" text-anchor="middle">02:00</text>
<line x1="1098.53" y1="318.60" x2="1098.53" y2="379.12" stroke="#2ecc71" stroke-width="2"/>
<rect x="1076.86" y="321.26" width="43.33" height="29.10" fill="#2ecc71" stroke="#2ecc71" stroke-width="1"/>
<text x="1098.53" y="704" font-size="11" fill="#555555" text-anchor="middle">11-01</text>
<text x="1098.53" y="720" font-size="11" fill="#555555" text-anchor="middle">03:00</text>
<line x1="1173.24" y1="271.04" x2="1173.24" y2="341.71" stroke="#2ecc71" stroke-width="2"/>
<rect x="1151.57" y="279.85" width="43.33" height="43.40" fill="#2ecc71" stroke="#2ecc71" stroke-width="1"/>
<text x="1173.24" y="704" font-size="11" fill="#555555" text-anchor="middle">11-01</text>
<text x="1173.24" y="720" font-size="11" fill="#555555" text-anchor="middle">04:00</text>
<line x1="1247.94" y1="260.06" x2="1247.94" y2="335.56" stroke="#e74c3c" stroke-width="2"/>
<rect x="1226.28" y="282.51" width="43.33" height="24.61" fill="#e74c3c" stroke="#e74c3c" stroke-width="1"/>
<text x="1247.94" y="704" font-size="11" fill="#555555" text-anchor="middle">11-01</text>
<text x="1247.94" y="720" font-size="11" fill="#555555" text-anchor="middle">05:00</text>
<line x1="1322.65" y1="298.64" x2="1322.65" y2="359.67" stroke="#e74c3c" stroke-width="2"/>
<rect x="1300.98" y="303.80" width="43.33" height="44.73" fill="#e74c3c" stroke="#e74c3c" stroke-width="1"/>
<text x="1322.65" y="704" font-size="11" fill="#555555" text-anchor="middle">11-01</text>
<text x="1322.65" y="720" font-size="11" fill="#555555" text-anchor="middle">06:00</text>
<line x1="725.00" y1="263.22" x2="805.00" y2="193.22" stroke="#f1c40f" stroke-width="2"/>
<rect x="805.00" y="145.22" width="220" height="72" rx="8" fill="#fff8dc" stroke="#f1c40f"/>
<text x="815.00" y="169.22" font-size="12" fill="#111111">目标K线 2025-10-31 22:00</text>
<text x="815.00" y="187.22" font-size="12" fill="#111111">振幅 16.47%</text>
<text x="815.00" y="205.22" font-size="12" fill="#111111">倍数 9.45x</text>
<line x1="650.29" y1="596.12" x2="620.29" y2="556.12" stroke="#3498db" stroke-width="2"/>
<rect x="400.29" y="520.12" width="220" height="58" rx="8" fill="#eef6ff" stroke="#3498db"/>
<text x="410.29" y="542.12" font-size="12" fill="#111111">前一根涨幅 1.04%</text>
<text x="410.29" y="560.12" font-size="12" fill="#111111">前一根振幅 1.74%</text>
</svg>