<svg xmlns="http://www.w3.org/2000/svg" width="1400" height="760" viewBox="0 0 1400 760">
<rect width="100%" height="100%" fill="#fcfcfc"/>
<text x="90" y="36" font-size="26" font-weight="700" fill="#111111">CARV_USDT 1H - 9倍命中</text>
<line x1="90" y1="70.00" x2="1360" y2="70.00" stroke="#d9d9d9" stroke-dasharray="4 4" stroke-width="1"/>
<text x="12" y="74.00" font-size="12" fill="#555555">0.213600</text>
<line x1="90" y1="186.00" x2="1360" y2="186.00" stroke="#d9d9d9" stroke-dasharray="4 4" stroke-width="1"/>
<text x="12" y="190.00" font-size="12" fill="#555555">0.206160</text>
<line x1="90" y1="302.00" x2="1360" y2="302.00" stroke="#d9d9d9" stroke-dasharray="4 4" stroke-width="1"/>
<text x="12" y="306.00" font-size="12" fill="#555555">0.198720</text>
<line x1="90" y1="418.00" x2="1360" y2="418.00" stroke="#d9d9d9" stroke-dasharray="4 4" stroke-width="1"/>
<text x="12" y="422.00" font-size="12" fill="#555555">0.191280</text>
<line x1="90" y1="534.00" x2="1360" y2="534.00" stroke="#d9d9d9" stroke-dasharray="4 4" stroke-width="1"/>
<text x="12" y="538.00" font-size="12" fill="#555555">0.183840</text>
<line x1="90" y1="650.00" x2="1360" y2="650.00" stroke="#d9d9d9" stroke-dasharray="4 4" stroke-width="1"/>
<text x="12" y="654.00" font-size="12" fill="#555555">0.176400</text>
<rect x="687.65" y="70" width="74.71" height="580.00" fill="#f1c40f" opacity="0.16"/>
<rect x="612.94" y="70" width="74.71" height="580.00" fill="#3498db" opacity="0.10"/>
<line x1="127.35" y1="483.17" x2="127.35" y2="578.28" stroke="#2ecc71" stroke-width="2"/>
<rect x="105.69" y="490.97" width="43.33" height="81.08" fill="#2ecc71" stroke="#2ecc71" stroke-width="1"/>
<text x="127.35" y="704" font-size="11" fill="#555555" text-anchor="middle">11-04</text>
<text x="127.35" y="720" font-size="11" fill="#555555" text-anchor="middle">11:00</text>
<line x1="202.06" y1="375.59" x2="202.06" y2="498.76" stroke="#2ecc71" stroke-width="2"/>
<rect x="180.39" y="480.05" width="43.33" height="14.03" fill="#2ecc71" stroke="#2ecc71" stroke-width="1"/>
<text x="202.06" y="704" font-size="11" fill="#555555" text-anchor="middle">11-04</text>
<text x="202.06" y="720" font-size="11" fill="#555555" text-anchor="middle">12:00</text>
<line x1="276.76" y1="472.26" x2="276.76" y2="615.70" stroke="#e74c3c" stroke-width="2"/>
<rect x="255.10" y="481.61" width="43.33" height="130.97" fill="#e74c3c" stroke="#e74c3c" stroke-width="1"/>
<text x="276.76" y="704" font-size="11" fill="#555555" text-anchor="middle">11-04</text>
<text x="276.76" y="720" font-size="11" fill="#555555" text-anchor="middle">13:00</text>
<line x1="351.47" y1="506.56" x2="351.47" y2="650.00" stroke="#2ecc71" stroke-width="2"/>
<rect x="329.81" y="562.69" width="43.33" height="53.01" fill="#2ecc71" stroke="#2ecc71" stroke-width="1"/>
<text x="351.47" y="704" font-size="11" fill="#555555" text-anchor="middle">11-04</text>
<text x="351.47" y="720" font-size="11" fill="#555555" text-anchor="middle">14:00</text>
<line x1="426.18" y1="554.89" x2="426.18" y2="601.67" stroke="#2ecc71" stroke-width="2"/>
<rect x="404.51" y="573.60" width="43.33" height="1.20" fill="#2ecc71" stroke="#2ecc71" stroke-width="1"/>
<text x="426.18" y="704" font-size="11" fill="#555555" text-anchor="middle">11-04</text>
<text x="426.18" y="720" font-size="11" fill="#555555" text-anchor="middle">15:00</text>
<line x1="500.88" y1="523.71" x2="500.88" y2="614.14" stroke="#2ecc71" stroke-width="2"/>
<rect x="479.22" y="565.81" width="43.33" height="6.24" fill="#2ecc71" stroke="#2ecc71" stroke-width="1"/>
<text x="500.88" y="704" font-size="11" fill="#555555" text-anchor="middle">11-04</text>
<text x="500.88" y="720" font-size="11" fill="#555555" text-anchor="middle">16:00</text>
<line x1="575.59" y1="539.30" x2="575.59" y2="581.40" stroke="#2ecc71" stroke-width="2"/>
<rect x="553.92" y="551.77" width="43.33" height="18.71" fill="#2ecc71" stroke="#2ecc71" stroke-width="1"/>
<text x="575.59" y="704" font-size="11" fill="#555555" text-anchor="middle">11-04</text>
<text x="575.59" y="720" font-size="11" fill="#555555" text-anchor="middle">17:00</text>
<line x1="650.29" y1="515.91" x2="650.29" y2="559.57" stroke="#2ecc71" stroke-width="2"/>
<rect x="628.63" y="517.47" width="43.33" height="34.30" fill="#2ecc71" stroke="#2ecc71" stroke-width="1"/>
<text x="650.29" y="704" font-size="11" fill="#555555" text-anchor="middle">11-04</text>
<text x="650.29" y="720" font-size="11" fill="#555555" text-anchor="middle">18:00</text>
<line x1="725.00" y1="121.45" x2="725.00" y2="520.59" stroke="#2ecc71" stroke-width="2"/>
<rect x="703.34" y="285.16" width="43.33" height="232.31" fill="#2ecc71" stroke="#2ecc71" stroke-width="1"/>
<text x="725.00" y="704" font-size="11" fill="#555555" text-anchor="middle">11-04</text>
<text x="725.00" y="720" font-size="11" fill="#555555" text-anchor="middle">19:00</text>
<line x1="799.71" y1="243.06" x2="799.71" y2="389.62" stroke="#e74c3c" stroke-width="2"/>
<rect x="778.04" y="288.28" width="43.33" height="26.51" fill="#e74c3c" stroke="#e74c3c" stroke-width="1"/>
<text x="799.71" y="704" font-size="11" fill="#555555" text-anchor="middle">11-04</text>
<text x="799.71" y="720" font-size="11" fill="#555555" text-anchor="middle">20:00</text>
<line x1="874.41" y1="193.17" x2="874.41" y2="469.14" stroke="#2ecc71" stroke-width="2"/>
<rect x="852.75" y="247.74" width="43.33" height="81.08" fill="#2ecc71" stroke="#2ecc71" stroke-width="1"/>
<text x="874.41" y="704" font-size="11" fill="#555555" text-anchor="middle">11-04</text>
<text x="874.41" y="720" font-size="11" fill="#555555" text-anchor="middle">21:00</text>
<line x1="949.12" y1="70.00" x2="949.12" y2="282.04" stroke="#2ecc71" stroke-width="2"/>
<rect x="927.45" y="154.19" width="43.33" height="93.55" fill="#2ecc71" stroke="#2ecc71" stroke-width="1"/>
<text x="949.12" y="704" font-size="11" fill="#555555" text-anchor="middle">11-04</text>
<text x="949.12" y="720" font-size="11" fill="#555555" text-anchor="middle">22:00</text>
<line x1="1023.82" y1="124.57" x2="1023.82" y2="275.81" stroke="#e74c3c" stroke-width="2"/>
<rect x="1002.16" y="141.72" width="43.33" height="121.61" fill="#e74c3c" stroke="#e74c3c" stroke-width="1"/>
<text x="1023.82" y="704" font-size="11" fill="#555555" text-anchor="middle">11-04</text>
<text x="1023.82" y="720" font-size="11" fill="#555555" text-anchor="middle">23:00</text>
<line x1="1098.53" y1="249.30" x2="1098.53" y2="352.20" stroke="#e74c3c" stroke-width="2"/>
<rect x="1076.86" y="274.25" width="43.33" height="54.57" fill="#e74c3c" stroke="#e74c3c" stroke-width="1"/>
<text x="1098.53" y="704" font-size="11" fill="#555555" text-anchor="middle">11-05</text>
<text x="1098.53" y="720" font-size="11" fill="#555555" text-anchor="middle">00:00</text>
<line x1="1173.24" y1="288.28" x2="1173.24" y2="353.76" stroke="#e74c3c" stroke-width="2"/>
<rect x="1151.57" y="333.49" width="43.33" height="1.56" fill="#e74c3c" stroke="#e74c3c" stroke-width="1"/>
<text x="1173.24" y="704" font-size="11" fill="#555555" text-anchor="middle">11-05</text>
<text x="1173.24" y="720" font-size="11" fill="#555555" text-anchor="middle">01:00</text>
<line x1="1247.94" y1="339.73" x2="1247.94" y2="402.10" stroke="#e74c3c" stroke-width="2"/>
<rect x="1226.28" y="339.73" width="43.33" height="34.30" fill="#e74c3c" stroke="#e74c3c" stroke-width="1"/>
<text x="1247.94" y="704" font-size="11" fill="#555555" text-anchor="middle">11-05</text>
<text x="1247.94" y="720" font-size="11" fill="#555555" text-anchor="middle">02:00</text>
<line x1="1322.65" y1="344.41" x2="1322.65" y2="384.95" stroke="#e74c3c" stroke-width="2"/>
<rect x="1300.98" y="369.35" width="43.33" height="1.56" fill="#e74c3c" stroke="#e74c3c" stroke-width="1"/>
<text x="1322.65" y="704" font-size="11" fill="#555555" text-anchor="middle">11-05</text>
<text x="1322.65" y="720" font-size="11" fill="#555555" text-anchor="middle">03:00</text>
<line x1="725.00" y1="121.45" x2="805.00" y2="90.00" stroke="#f1c40f" stroke-width="2"/>
<rect x="805.00" y="42.00" width="220" height="72" rx="8" fill="#fff8dc" stroke="#f1c40f"/>
<text x="815.00" y="66.00" font-size="12" fill="#111111">目标K线 2025-11-04 19:00</text>
<text x="815.00" y="84.00" font-size="12" fill="#111111">振幅 13.85%</text>
<text x="815.00" y="102.00" font-size="12" fill="#111111">倍数 9.03x</text>
<line x1="650.29" y1="515.91" x2="620.29" y2="475.91" stroke="#3498db" stroke-width="2"/>
<rect x="400.29" y="439.91" width="220" height="58" rx="8" fill="#eef6ff" stroke="#3498db"/>
<text x="410.29" y="461.91" font-size="12" fill="#111111">前一根涨幅 1.20%</text>
<text x="410.29" y="479.91" font-size="12" fill="#111111">前一根振幅 1.53%</text>
</svg>