<svg xmlns="http://www.w3.org/2000/svg" width="1400" height="760" viewBox="0 0 1400 760">
<rect width="100%" height="100%" fill="#fcfcfc"/>
<text x="90" y="36" font-size="26" font-weight="700" fill="#111111">COS_USDT 1H - 9倍命中</text>
<line x1="90" y1="70.00" x2="1360" y2="70.00" stroke="#d9d9d9" stroke-dasharray="4 4" stroke-width="1"/>
<text x="12" y="74.00" font-size="12" fill="#555555">0.002102</text>
<line x1="90" y1="186.00" x2="1360" y2="186.00" stroke="#d9d9d9" stroke-dasharray="4 4" stroke-width="1"/>
<text x="12" y="190.00" font-size="12" fill="#555555">0.002040</text>
<line x1="90" y1="302.00" x2="1360" y2="302.00" stroke="#d9d9d9" stroke-dasharray="4 4" stroke-width="1"/>
<text x="12" y="306.00" font-size="12" fill="#555555">0.001978</text>
<line x1="90" y1="418.00" x2="1360" y2="418.00" stroke="#d9d9d9" stroke-dasharray="4 4" stroke-width="1"/>
<text x="12" y="422.00" font-size="12" fill="#555555">0.001916</text>
<line x1="90" y1="534.00" x2="1360" y2="534.00" stroke="#d9d9d9" stroke-dasharray="4 4" stroke-width="1"/>
<text x="12" y="538.00" font-size="12" fill="#555555">0.001854</text>
<line x1="90" y1="650.00" x2="1360" y2="650.00" stroke="#d9d9d9" stroke-dasharray="4 4" stroke-width="1"/>
<text x="12" y="654.00" font-size="12" fill="#555555">0.001792</text>
<rect x="687.65" y="70" width="74.71" height="580.00" fill="#f1c40f" opacity="0.16"/>
<rect x="612.94" y="70" width="74.71" height="580.00" fill="#3498db" opacity="0.10"/>
<line x1="127.35" y1="483.48" x2="127.35" y2="545.23" stroke="#2ecc71" stroke-width="2"/>
<rect x="105.69" y="504.06" width="43.33" height="41.16" fill="#2ecc71" stroke="#2ecc71" stroke-width="1"/>
<text x="127.35" y="704" font-size="11" fill="#555555" text-anchor="middle">11-08</text>
<text x="127.35" y="720" font-size="11" fill="#555555" text-anchor="middle">18:00</text>
<line x1="202.06" y1="483.48" x2="202.06" y2="520.90" stroke="#2ecc71" stroke-width="2"/>
<rect x="180.39" y="496.58" width="43.33" height="24.32" fill="#2ecc71" stroke="#2ecc71" stroke-width="1"/>
<text x="202.06" y="704" font-size="11" fill="#555555" text-anchor="middle">11-08</text>
<text x="202.06" y="720" font-size="11" fill="#555555" text-anchor="middle">19:00</text>
<line x1="276.76" y1="498.45" x2="276.76" y2="519.03" stroke="#e74c3c" stroke-width="2"/>
<rect x="255.10" y="498.45" width="43.33" height="5.61" fill="#e74c3c" stroke="#e74c3c" stroke-width="1"/>
<text x="276.76" y="704" font-size="11" fill="#555555" text-anchor="middle">11-08</text>
<text x="276.76" y="720" font-size="11" fill="#555555" text-anchor="middle">20:00</text>
<line x1="351.47" y1="505.94" x2="351.47" y2="554.58" stroke="#e74c3c" stroke-width="2"/>
<rect x="329.81" y="505.94" width="43.33" height="48.65" fill="#e74c3c" stroke="#e74c3c" stroke-width="1"/>
<text x="351.47" y="704" font-size="11" fill="#555555" text-anchor="middle">11-08</text>
<text x="351.47" y="720" font-size="11" fill="#555555" text-anchor="middle">21:00</text>
<line x1="426.18" y1="537.74" x2="426.18" y2="588.26" stroke="#2ecc71" stroke-width="2"/>
<rect x="404.51" y="537.74" width="43.33" height="16.84" fill="#2ecc71" stroke="#2ecc71" stroke-width="1"/>
<text x="426.18" y="704" font-size="11" fill="#555555" text-anchor="middle">11-08</text>
<text x="426.18" y="720" font-size="11" fill="#555555" text-anchor="middle">22:00</text>
<line x1="500.88" y1="532.13" x2="500.88" y2="575.16" stroke="#e74c3c" stroke-width="2"/>
<rect x="479.22" y="535.87" width="43.33" height="3.74" fill="#e74c3c" stroke="#e74c3c" stroke-width="1"/>
<text x="500.88" y="704" font-size="11" fill="#555555" text-anchor="middle">11-08</text>
<text x="500.88" y="720" font-size="11" fill="#555555" text-anchor="middle">23:00</text>
<line x1="575.59" y1="494.71" x2="575.59" y2="550.84" stroke="#2ecc71" stroke-width="2"/>
<rect x="553.92" y="526.52" width="43.33" height="13.10" fill="#2ecc71" stroke="#2ecc71" stroke-width="1"/>
<text x="575.59" y="704" font-size="11" fill="#555555" text-anchor="middle">11-09</text>
<text x="575.59" y="720" font-size="11" fill="#555555" text-anchor="middle">00:00</text>
<line x1="650.29" y1="479.74" x2="650.29" y2="526.52" stroke="#2ecc71" stroke-width="2"/>
<rect x="628.63" y="479.74" width="43.33" height="46.77" fill="#2ecc71" stroke="#2ecc71" stroke-width="1"/>
<text x="650.29" y="704" font-size="11" fill="#555555" text-anchor="middle">11-09</text>
<text x="650.29" y="720" font-size="11" fill="#555555" text-anchor="middle">01:00</text>
<line x1="725.00" y1="70.00" x2="725.00" y2="502.19" stroke="#2ecc71" stroke-width="2"/>
<rect x="703.34" y="346.90" width="43.33" height="119.74" fill="#2ecc71" stroke="#2ecc71" stroke-width="1"/>
<text x="725.00" y="704" font-size="11" fill="#555555" text-anchor="middle">11-09</text>
<text x="725.00" y="720" font-size="11" fill="#555555" text-anchor="middle">02:00</text>
<line x1="799.71" y1="348.77" x2="799.71" y2="432.97" stroke="#e74c3c" stroke-width="2"/>
<rect x="778.04" y="365.61" width="43.33" height="56.13" fill="#e74c3c" stroke="#e74c3c" stroke-width="1"/>
<text x="799.71" y="704" font-size="11" fill="#555555" text-anchor="middle">11-09</text>
<text x="799.71" y="720" font-size="11" fill="#555555" text-anchor="middle">03:00</text>
<line x1="874.41" y1="410.52" x2="874.41" y2="451.68" stroke="#e74c3c" stroke-width="2"/>
<rect x="852.75" y="423.61" width="43.33" height="5.61" fill="#e74c3c" stroke="#e74c3c" stroke-width="1"/>
<text x="874.41" y="704" font-size="11" fill="#555555" text-anchor="middle">11-09</text>
<text x="874.41" y="720" font-size="11" fill="#555555" text-anchor="middle">04:00</text>
<line x1="949.12" y1="421.74" x2="949.12" y2="464.77" stroke="#e74c3c" stroke-width="2"/>
<rect x="927.45" y="434.84" width="43.33" height="20.58" fill="#e74c3c" stroke="#e74c3c" stroke-width="1"/>
<text x="949.12" y="704" font-size="11" fill="#555555" text-anchor="middle">11-09</text>
<text x="949.12" y="720" font-size="11" fill="#555555" text-anchor="middle">05:00</text>
<line x1="1023.82" y1="457.29" x2="1023.82" y2="479.74" stroke="#e74c3c" stroke-width="2"/>
<rect x="1002.16" y="457.29" width="43.33" height="22.45" fill="#e74c3c" stroke="#e74c3c" stroke-width="1"/>
<text x="1023.82" y="704" font-size="11" fill="#555555" text-anchor="middle">11-09</text>
<text x="1023.82" y="720" font-size="11" fill="#555555" text-anchor="middle">06:00</text>
<line x1="1098.53" y1="466.65" x2="1098.53" y2="481.61" stroke="#2ecc71" stroke-width="2"/>
<rect x="1076.86" y="468.52" width="43.33" height="1.20" fill="#2ecc71" stroke="#2ecc71" stroke-width="1"/>
<text x="1098.53" y="704" font-size="11" fill="#555555" text-anchor="middle">11-09</text>
<text x="1098.53" y="720" font-size="11" fill="#555555" text-anchor="middle">07:00</text>
<line x1="1173.24" y1="468.52" x2="1173.24" y2="520.90" stroke="#2ecc71" stroke-width="2"/>
<rect x="1151.57" y="481.61" width="43.33" height="39.29" fill="#2ecc71" stroke="#2ecc71" stroke-width="1"/>
<text x="1173.24" y="704" font-size="11" fill="#555555" text-anchor="middle">11-09</text>
<text x="1173.24" y="720" font-size="11" fill="#555555" text-anchor="middle">08:00</text>
<line x1="1247.94" y1="470.39" x2="1247.94" y2="526.52" stroke="#2ecc71" stroke-width="2"/>
<rect x="1226.28" y="487.23" width="43.33" height="24.32" fill="#2ecc71" stroke="#2ecc71" stroke-width="1"/>
<text x="1247.94" y="704" font-size="11" fill="#555555" text-anchor="middle">11-09</text>
<text x="1247.94" y="720" font-size="11" fill="#555555" text-anchor="middle">09:00</text>
<line x1="1322.65" y1="494.71" x2="1322.65" y2="650.00" stroke="#e74c3c" stroke-width="2"/>
<rect x="1300.98" y="494.71" width="43.33" height="155.29" fill="#e74c3c" stroke="#e74c3c" stroke-width="1"/>
<text x="1322.65" y="704" font-size="11" fill="#555555" text-anchor="middle">11-09</text>
<text x="1322.65" y="720" font-size="11" fill="#555555" text-anchor="middle">10:00</text>
<line x1="725.00" y1="70.00" x2="805.00" y2="90.00" stroke="#f1c40f" stroke-width="2"/>
<rect x="805.00" y="42.00" width="220" height="72" rx="8" fill="#fff8dc" stroke="#f1c40f"/>
<text x="815.00" y="66.00" font-size="12" fill="#111111">目标K线 2025-11-09 02:00</text>
<text x="815.00" y="84.00" font-size="12" fill="#111111">振幅 12.22%</text>
<text x="815.00" y="102.00" font-size="12" fill="#111111">倍数 9.08x</text>
<line x1="650.29" y1="479.74" x2="620.29" y2="439.74" stroke="#3498db" stroke-width="2"/>
<rect x="400.29" y="403.74" width="220" height="58" rx="8" fill="#eef6ff" stroke="#3498db"/>
<text x="410.29" y="425.74" font-size="12" fill="#111111">前一根涨幅 1.35%</text>
<text x="410.29" y="443.74" font-size="12" fill="#111111">前一根振幅 1.35%</text>
</svg>