<svg xmlns="http://www.w3.org/2000/svg" width="1400" height="760" viewBox="0 0 1400 760">
<rect width="100%" height="100%" fill="#fcfcfc"/>
<text x="90" y="36" font-size="26" font-weight="700" fill="#111111">FHE_USDT 1H - 9倍命中</text>
<line x1="90" y1="70.00" x2="1360" y2="70.00" stroke="#d9d9d9" stroke-dasharray="4 4" stroke-width="1"/>
<text x="12" y="74.00" font-size="12" fill="#555555">0.378460</text>
<line x1="90" y1="186.00" x2="1360" y2="186.00" stroke="#d9d9d9" stroke-dasharray="4 4" stroke-width="1"/>
<text x="12" y="190.00" font-size="12" fill="#555555">0.331974</text>
<line x1="90" y1="302.00" x2="1360" y2="302.00" stroke="#d9d9d9" stroke-dasharray="4 4" stroke-width="1"/>
<text x="12" y="306.00" font-size="12" fill="#555555">0.285488</text>
<line x1="90" y1="418.00" x2="1360" y2="418.00" stroke="#d9d9d9" stroke-dasharray="4 4" stroke-width="1"/>
<text x="12" y="422.00" font-size="12" fill="#555555">0.239002</text>
<line x1="90" y1="534.00" x2="1360" y2="534.00" stroke="#d9d9d9" stroke-dasharray="4 4" stroke-width="1"/>
<text x="12" y="538.00" font-size="12" fill="#555555">0.192516</text>
<line x1="90" y1="650.00" x2="1360" y2="650.00" stroke="#d9d9d9" stroke-dasharray="4 4" stroke-width="1"/>
<text x="12" y="654.00" font-size="12" fill="#555555">0.146030</text>
<rect x="687.65" y="70" width="74.71" height="580.00" fill="#f1c40f" opacity="0.16"/>
<rect x="612.94" y="70" width="74.71" height="580.00" fill="#3498db" opacity="0.10"/>
<line x1="127.35" y1="445.00" x2="127.35" y2="469.78" stroke="#2ecc71" stroke-width="2"/>
<rect x="105.69" y="448.85" width="43.33" height="8.68" fill="#2ecc71" stroke="#2ecc71" stroke-width="1"/>
<text x="127.35" y="704" font-size="11" fill="#555555" text-anchor="middle">01-21</text>
<text x="127.35" y="720" font-size="11" fill="#555555" text-anchor="middle">05:00</text>
<line x1="202.06" y1="417.33" x2="202.06" y2="448.25" stroke="#2ecc71" stroke-width="2"/>
<rect x="180.39" y="430.51" width="43.33" height="17.74" fill="#2ecc71" stroke="#2ecc71" stroke-width="1"/>
<text x="202.06" y="704" font-size="11" fill="#555555" text-anchor="middle">01-21</text>
<text x="202.06" y="720" font-size="11" fill="#555555" text-anchor="middle">06:00</text>
<line x1="276.76" y1="420.50" x2="276.76" y2="451.57" stroke="#e74c3c" stroke-width="2"/>
<rect x="255.10" y="430.53" width="43.33" height="11.50" fill="#e74c3c" stroke="#e74c3c" stroke-width="1"/>
<text x="276.76" y="704" font-size="11" fill="#555555" text-anchor="middle">01-21</text>
<text x="276.76" y="720" font-size="11" fill="#555555" text-anchor="middle">07:00</text>
<line x1="351.47" y1="432.65" x2="351.47" y2="460.10" stroke="#e74c3c" stroke-width="2"/>
<rect x="329.81" y="441.84" width="43.33" height="2.55" fill="#e74c3c" stroke="#e74c3c" stroke-width="1"/>
<text x="351.47" y="704" font-size="11" fill="#555555" text-anchor="middle">01-21</text>
<text x="351.47" y="720" font-size="11" fill="#555555" text-anchor="middle">08:00</text>
<line x1="426.18" y1="427.16" x2="426.18" y2="453.61" stroke="#2ecc71" stroke-width="2"/>
<rect x="404.51" y="438.57" width="43.33" height="6.61" fill="#2ecc71" stroke="#2ecc71" stroke-width="1"/>
<text x="426.18" y="704" font-size="11" fill="#555555" text-anchor="middle">01-21</text>
<text x="426.18" y="720" font-size="11" fill="#555555" text-anchor="middle">09:00</text>
<line x1="500.88" y1="434.70" x2="500.88" y2="463.25" stroke="#e74c3c" stroke-width="2"/>
<rect x="479.22" y="439.54" width="43.33" height="15.52" fill="#e74c3c" stroke="#e74c3c" stroke-width="1"/>
<text x="500.88" y="704" font-size="11" fill="#555555" text-anchor="middle">01-21</text>
<text x="500.88" y="720" font-size="11" fill="#555555" text-anchor="middle">10:00</text>
<line x1="575.59" y1="454.24" x2="575.59" y2="472.08" stroke="#e74c3c" stroke-width="2"/>
<rect x="553.92" y="454.24" width="43.33" height="7.01" fill="#e74c3c" stroke="#e74c3c" stroke-width="1"/>
<text x="575.59" y="704" font-size="11" fill="#555555" text-anchor="middle">01-21</text>
<text x="575.59" y="720" font-size="11" fill="#555555" text-anchor="middle">11:00</text>
<line x1="650.29" y1="429.66" x2="650.29" y2="468.71" stroke="#2ecc71" stroke-width="2"/>
<rect x="628.63" y="436.99" width="43.33" height="23.96" fill="#2ecc71" stroke="#2ecc71" stroke-width="1"/>
<text x="650.29" y="704" font-size="11" fill="#555555" text-anchor="middle">01-21</text>
<text x="650.29" y="720" font-size="11" fill="#555555" text-anchor="middle">12:00</text>
<line x1="725.00" y1="70.00" x2="725.00" y2="446.58" stroke="#2ecc71" stroke-width="2"/>
<rect x="703.34" y="348.86" width="43.33" height="86.91" fill="#2ecc71" stroke="#2ecc71" stroke-width="1"/>
<text x="725.00" y="704" font-size="11" fill="#555555" text-anchor="middle">01-21</text>
<text x="725.00" y="720" font-size="11" fill="#555555" text-anchor="middle">13:00</text>
<line x1="799.71" y1="343.17" x2="799.71" y2="476.77" stroke="#e74c3c" stroke-width="2"/>
<rect x="778.04" y="346.84" width="43.33" height="112.84" fill="#e74c3c" stroke="#e74c3c" stroke-width="1"/>
<text x="799.71" y="704" font-size="11" fill="#555555" text-anchor="middle">01-21</text>
<text x="799.71" y="720" font-size="11" fill="#555555" text-anchor="middle">14:00</text>
<line x1="874.41" y1="460.88" x2="874.41" y2="566.03" stroke="#e74c3c" stroke-width="2"/>
<rect x="852.75" y="460.88" width="43.33" height="60.76" fill="#e74c3c" stroke="#e74c3c" stroke-width="1"/>
<text x="874.41" y="704" font-size="11" fill="#555555" text-anchor="middle">01-21</text>
<text x="874.41" y="720" font-size="11" fill="#555555" text-anchor="middle">15:00</text>
<line x1="949.12" y1="467.49" x2="949.12" y2="586.32" stroke="#e74c3c" stroke-width="2"/>
<rect x="927.45" y="521.34" width="43.33" height="60.74" fill="#e74c3c" stroke="#e74c3c" stroke-width="1"/>
<text x="949.12" y="704" font-size="11" fill="#555555" text-anchor="middle">01-21</text>
<text x="949.12" y="720" font-size="11" fill="#555555" text-anchor="middle">16:00</text>
<line x1="1023.82" y1="516.02" x2="1023.82" y2="650.00" stroke="#2ecc71" stroke-width="2"/>
<rect x="1002.16" y="525.23" width="43.33" height="57.42" fill="#2ecc71" stroke="#2ecc71" stroke-width="1"/>
<text x="1023.82" y="704" font-size="11" fill="#555555" text-anchor="middle">01-21</text>
<text x="1023.82" y="720" font-size="11" fill="#555555" text-anchor="middle">17:00</text>
<line x1="1098.53" y1="429.08" x2="1098.53" y2="573.97" stroke="#e74c3c" stroke-width="2"/>
<rect x="1076.86" y="525.11" width="43.33" height="35.26" fill="#e74c3c" stroke="#e74c3c" stroke-width="1"/>
<text x="1098.53" y="704" font-size="11" fill="#555555" text-anchor="middle">01-21</text>
<text x="1098.53" y="720" font-size="11" fill="#555555" text-anchor="middle">18:00</text>
<line x1="1173.24" y1="505.34" x2="1173.24" y2="589.84" stroke="#2ecc71" stroke-width="2"/>
<rect x="1151.57" y="508.01" width="43.33" height="51.28" fill="#2ecc71" stroke="#2ecc71" stroke-width="1"/>
<text x="1173.24" y="704" font-size="11" fill="#555555" text-anchor="middle">01-21</text>
<text x="1173.24" y="720" font-size="11" fill="#555555" text-anchor="middle">19:00</text>
<line x1="1247.94" y1="460.85" x2="1247.94" y2="571.89" stroke="#e74c3c" stroke-width="2"/>
<rect x="1226.28" y="508.39" width="43.33" height="26.85" fill="#e74c3c" stroke="#e74c3c" stroke-width="1"/>
<text x="1247.94" y="704" font-size="11" fill="#555555" text-anchor="middle">01-21</text>
<text x="1247.94" y="720" font-size="11" fill="#555555" text-anchor="middle">20:00</text>
<line x1="1322.65" y1="524.43" x2="1322.65" y2="628.32" stroke="#e74c3c" stroke-width="2"/>
<rect x="1300.98" y="535.14" width="43.33" height="82.20" fill="#e74c3c" stroke="#e74c3c" stroke-width="1"/>
<text x="1322.65" y="704" font-size="11" fill="#555555" text-anchor="middle">01-21</text>
<text x="1322.65" y="720" font-size="11" fill="#555555" text-anchor="middle">21:00</text>
<line x1="725.00" y1="70.00" x2="805.00" y2="90.00" stroke="#f1c40f" stroke-width="2"/>
<rect x="805.00" y="42.00" width="220" height="72" rx="8" fill="#fff8dc" stroke="#f1c40f"/>
<text x="815.00" y="66.00" font-size="12" fill="#111111">目标K线 2026-01-21 13:00</text>
<text x="815.00" y="84.00" font-size="12" fill="#111111">振幅 65.08%</text>
<text x="815.00" y="102.00" font-size="12" fill="#111111">倍数 9.22x</text>
<line x1="650.29" y1="429.66" x2="620.29" y2="389.66" stroke="#3498db" stroke-width="2"/>
<rect x="400.29" y="353.66" width="220" height="58" rx="8" fill="#eef6ff" stroke="#3498db"/>
<text x="410.29" y="375.66" font-size="12" fill="#111111">前一根涨幅 4.33%</text>
<text x="410.29" y="393.66" font-size="12" fill="#111111">前一根振幅 7.06%</text>
</svg>