<svg xmlns="http://www.w3.org/2000/svg" width="1400" height="760" viewBox="0 0 1400 760">
<rect width="100%" height="100%" fill="#fcfcfc"/>
<text x="90" y="36" font-size="26" font-weight="700" fill="#111111">GAIB_USDT 1H - 9倍命中</text>
<line x1="90" y1="70.00" x2="1360" y2="70.00" stroke="#d9d9d9" stroke-dasharray="4 4" stroke-width="1"/>
<text x="12" y="74.00" font-size="12" fill="#555555">0.092990</text>
<line x1="90" y1="186.00" x2="1360" y2="186.00" stroke="#d9d9d9" stroke-dasharray="4 4" stroke-width="1"/>
<text x="12" y="190.00" font-size="12" fill="#555555">0.086998</text>
<line x1="90" y1="302.00" x2="1360" y2="302.00" stroke="#d9d9d9" stroke-dasharray="4 4" stroke-width="1"/>
<text x="12" y="306.00" font-size="12" fill="#555555">0.081006</text>
<line x1="90" y1="418.00" x2="1360" y2="418.00" stroke="#d9d9d9" stroke-dasharray="4 4" stroke-width="1"/>
<text x="12" y="422.00" font-size="12" fill="#555555">0.075014</text>
<line x1="90" y1="534.00" x2="1360" y2="534.00" stroke="#d9d9d9" stroke-dasharray="4 4" stroke-width="1"/>
<text x="12" y="538.00" font-size="12" fill="#555555">0.069022</text>
<line x1="90" y1="650.00" x2="1360" y2="650.00" stroke="#d9d9d9" stroke-dasharray="4 4" stroke-width="1"/>
<text x="12" y="654.00" font-size="12" fill="#555555">0.063030</text>
<rect x="687.65" y="70" width="74.71" height="580.00" fill="#f1c40f" opacity="0.16"/>
<rect x="612.94" y="70" width="74.71" height="580.00" fill="#3498db" opacity="0.10"/>
<line x1="127.35" y1="420.59" x2="127.35" y2="537.52" stroke="#2ecc71" stroke-width="2"/>
<rect x="105.69" y="511.78" width="43.33" height="1.20" fill="#2ecc71" stroke="#2ecc71" stroke-width="1"/>
<text x="127.35" y="704" font-size="11" fill="#555555" text-anchor="middle">11-24</text>
<text x="127.35" y="720" font-size="11" fill="#555555" text-anchor="middle">04:00</text>
<line x1="202.06" y1="459.31" x2="202.06" y2="524.55" stroke="#2ecc71" stroke-width="2"/>
<rect x="180.39" y="506.94" width="43.33" height="1.20" fill="#2ecc71" stroke="#2ecc71" stroke-width="1"/>
<text x="202.06" y="704" font-size="11" fill="#555555" text-anchor="middle">11-24</text>
<text x="202.06" y="720" font-size="11" fill="#555555" text-anchor="middle">05:00</text>
<line x1="276.76" y1="232.04" x2="276.76" y2="524.17" stroke="#2ecc71" stroke-width="2"/>
<rect x="255.10" y="298.05" width="43.33" height="208.50" fill="#2ecc71" stroke="#2ecc71" stroke-width="1"/>
<text x="276.76" y="704" font-size="11" fill="#555555" text-anchor="middle">11-24</text>
<text x="276.76" y="720" font-size="11" fill="#555555" text-anchor="middle">06:00</text>
<line x1="351.47" y1="298.05" x2="351.47" y2="518.55" stroke="#e74c3c" stroke-width="2"/>
<rect x="329.81" y="298.05" width="43.33" height="152.55" fill="#e74c3c" stroke="#e74c3c" stroke-width="1"/>
<text x="351.47" y="704" font-size="11" fill="#555555" text-anchor="middle">11-24</text>
<text x="351.47" y="720" font-size="11" fill="#555555" text-anchor="middle">07:00</text>
<line x1="426.18" y1="381.49" x2="426.18" y2="491.64" stroke="#e74c3c" stroke-width="2"/>
<rect x="404.51" y="450.99" width="43.33" height="22.26" fill="#e74c3c" stroke="#e74c3c" stroke-width="1"/>
<text x="426.18" y="704" font-size="11" fill="#555555" text-anchor="middle">11-24</text>
<text x="426.18" y="720" font-size="11" fill="#555555" text-anchor="middle">08:00</text>
<line x1="500.88" y1="472.86" x2="500.88" y2="650.00" stroke="#e74c3c" stroke-width="2"/>
<rect x="479.22" y="473.06" width="43.33" height="134.55" fill="#e74c3c" stroke="#e74c3c" stroke-width="1"/>
<text x="500.88" y="704" font-size="11" fill="#555555" text-anchor="middle">11-24</text>
<text x="500.88" y="720" font-size="11" fill="#555555" text-anchor="middle">09:00</text>
<line x1="575.59" y1="528.42" x2="575.59" y2="605.47" stroke="#2ecc71" stroke-width="2"/>
<rect x="553.92" y="568.50" width="43.33" height="36.98" fill="#2ecc71" stroke="#2ecc71" stroke-width="1"/>
<text x="575.59" y="704" font-size="11" fill="#555555" text-anchor="middle">11-24</text>
<text x="575.59" y="720" font-size="11" fill="#555555" text-anchor="middle">10:00</text>
<line x1="650.29" y1="543.91" x2="650.29" y2="583.40" stroke="#2ecc71" stroke-width="2"/>
<rect x="628.63" y="560.56" width="43.33" height="13.94" fill="#2ecc71" stroke="#2ecc71" stroke-width="1"/>
<text x="650.29" y="704" font-size="11" fill="#555555" text-anchor="middle">11-24</text>
<text x="650.29" y="720" font-size="11" fill="#555555" text-anchor="middle">11:00</text>
<line x1="725.00" y1="181.90" x2="725.00" y2="563.08" stroke="#2ecc71" stroke-width="2"/>
<rect x="703.34" y="330.19" width="43.33" height="230.76" fill="#2ecc71" stroke="#2ecc71" stroke-width="1"/>
<text x="725.00" y="704" font-size="11" fill="#555555" text-anchor="middle">11-24</text>
<text x="725.00" y="720" font-size="11" fill="#555555" text-anchor="middle">12:00</text>
<line x1="799.71" y1="300.37" x2="799.71" y2="467.25" stroke="#e74c3c" stroke-width="2"/>
<rect x="778.04" y="330.19" width="43.33" height="75.50" fill="#e74c3c" stroke="#e74c3c" stroke-width="1"/>
<text x="799.71" y="704" font-size="11" fill="#555555" text-anchor="middle">11-24</text>
<text x="799.71" y="720" font-size="11" fill="#555555" text-anchor="middle">13:00</text>
<line x1="874.41" y1="180.93" x2="874.41" y2="403.17" stroke="#2ecc71" stroke-width="2"/>
<rect x="852.75" y="180.93" width="43.33" height="222.24" fill="#2ecc71" stroke="#2ecc71" stroke-width="1"/>
<text x="874.41" y="704" font-size="11" fill="#555555" text-anchor="middle">11-24</text>
<text x="874.41" y="720" font-size="11" fill="#555555" text-anchor="middle">14:00</text>
<line x1="949.12" y1="70.00" x2="949.12" y2="302.12" stroke="#2ecc71" stroke-width="2"/>
<rect x="927.45" y="105.04" width="43.33" height="84.41" fill="#2ecc71" stroke="#2ecc71" stroke-width="1"/>
<text x="949.12" y="704" font-size="11" fill="#555555" text-anchor="middle">11-24</text>
<text x="949.12" y="720" font-size="11" fill="#555555" text-anchor="middle">15:00</text>
<line x1="1023.82" y1="94.78" x2="1023.82" y2="340.25" stroke="#e74c3c" stroke-width="2"/>
<rect x="1002.16" y="104.65" width="43.33" height="220.11" fill="#e74c3c" stroke="#e74c3c" stroke-width="1"/>
<text x="1023.82" y="704" font-size="11" fill="#555555" text-anchor="middle">11-24</text>
<text x="1023.82" y="720" font-size="11" fill="#555555" text-anchor="middle">16:00</text>
<line x1="1098.53" y1="253.72" x2="1098.53" y2="398.52" stroke="#2ecc71" stroke-width="2"/>
<rect x="1076.86" y="300.76" width="43.33" height="21.30" fill="#2ecc71" stroke="#2ecc71" stroke-width="1"/>
<text x="1098.53" y="704" font-size="11" fill="#555555" text-anchor="middle">11-24</text>
<text x="1098.53" y="720" font-size="11" fill="#555555" text-anchor="middle">17:00</text>
<line x1="1173.24" y1="127.88" x2="1173.24" y2="345.29" stroke="#2ecc71" stroke-width="2"/>
<rect x="1151.57" y="248.68" width="43.33" height="52.46" fill="#2ecc71" stroke="#2ecc71" stroke-width="1"/>
<text x="1173.24" y="704" font-size="11" fill="#555555" text-anchor="middle">11-24</text>
<text x="1173.24" y="720" font-size="11" fill="#555555" text-anchor="middle">18:00</text>
<line x1="1247.94" y1="191.19" x2="1247.94" y2="319.54" stroke="#e74c3c" stroke-width="2"/>
<rect x="1226.28" y="248.49" width="43.33" height="49.95" fill="#e74c3c" stroke="#e74c3c" stroke-width="1"/>
<text x="1247.94" y="704" font-size="11" fill="#555555" text-anchor="middle">11-24</text>
<text x="1247.94" y="720" font-size="11" fill="#555555" text-anchor="middle">19:00</text>
<line x1="1322.65" y1="223.71" x2="1322.65" y2="340.83" stroke="#2ecc71" stroke-width="2"/>
<rect x="1300.98" y="292.44" width="43.33" height="7.55" fill="#2ecc71" stroke="#2ecc71" stroke-width="1"/>
<text x="1322.65" y="704" font-size="11" fill="#555555" text-anchor="middle">11-24</text>
<text x="1322.65" y="720" font-size="11" fill="#555555" text-anchor="middle">20:00</text>
<line x1="725.00" y1="181.90" x2="805.00" y2="111.90" stroke="#f1c40f" stroke-width="2"/>
<rect x="805.00" y="63.90" width="220" height="72" rx="8" fill="#fff8dc" stroke="#f1c40f"/>
<text x="815.00" y="87.90" font-size="12" fill="#111111">目标K线 2025-11-24 12:00</text>
<text x="815.00" y="105.90" font-size="12" fill="#111111">振幅 29.11%</text>
<text x="815.00" y="123.90" font-size="12" fill="#111111">倍数 9.55x</text>
<line x1="650.29" y1="543.91" x2="620.29" y2="503.91" stroke="#3498db" stroke-width="2"/>
<rect x="400.29" y="467.91" width="220" height="58" rx="8" fill="#eef6ff" stroke="#3498db"/>
<text x="410.29" y="489.91" font-size="12" fill="#111111">前一根涨幅 1.08%</text>
<text x="410.29" y="507.91" font-size="12" fill="#111111">前一根振幅 3.05%</text>
</svg>