<svg xmlns="http://www.w3.org/2000/svg" width="1400" height="760" viewBox="0 0 1400 760">
<rect width="100%" height="100%" fill="#fcfcfc"/>
<text x="90" y="36" font-size="26" font-weight="700" fill="#111111">HIGH_USDT 1H - 9倍命中</text>
<line x1="90" y1="70.00" x2="1360" y2="70.00" stroke="#d9d9d9" stroke-dasharray="4 4" stroke-width="1"/>
<text x="12" y="74.00" font-size="12" fill="#555555">0.758700</text>
<line x1="90" y1="186.00" x2="1360" y2="186.00" stroke="#d9d9d9" stroke-dasharray="4 4" stroke-width="1"/>
<text x="12" y="190.00" font-size="12" fill="#555555">0.727800</text>
<line x1="90" y1="302.00" x2="1360" y2="302.00" stroke="#d9d9d9" stroke-dasharray="4 4" stroke-width="1"/>
<text x="12" y="306.00" font-size="12" fill="#555555">0.696900</text>
<line x1="90" y1="418.00" x2="1360" y2="418.00" stroke="#d9d9d9" stroke-dasharray="4 4" stroke-width="1"/>
<text x="12" y="422.00" font-size="12" fill="#555555">0.666000</text>
<line x1="90" y1="534.00" x2="1360" y2="534.00" stroke="#d9d9d9" stroke-dasharray="4 4" stroke-width="1"/>
<text x="12" y="538.00" font-size="12" fill="#555555">0.635100</text>
<line x1="90" y1="650.00" x2="1360" y2="650.00" stroke="#d9d9d9" stroke-dasharray="4 4" stroke-width="1"/>
<text x="12" y="654.00" font-size="12" fill="#555555">0.604200</text>
<rect x="687.65" y="70" width="74.71" height="580.00" fill="#f1c40f" opacity="0.16"/>
<rect x="612.94" y="70" width="74.71" height="580.00" fill="#3498db" opacity="0.10"/>
<line x1="127.35" y1="519.36" x2="127.35" y2="567.04" stroke="#e74c3c" stroke-width="2"/>
<rect x="105.69" y="537.75" width="43.33" height="21.02" fill="#e74c3c" stroke="#e74c3c" stroke-width="1"/>
<text x="127.35" y="704" font-size="11" fill="#555555" text-anchor="middle">05-17</text>
<text x="127.35" y="720" font-size="11" fill="#555555" text-anchor="middle">15:00</text>
<line x1="202.06" y1="534.75" x2="202.06" y2="608.33" stroke="#e74c3c" stroke-width="2"/>
<rect x="180.39" y="556.52" width="43.33" height="34.54" fill="#e74c3c" stroke="#e74c3c" stroke-width="1"/>
<text x="202.06" y="704" font-size="11" fill="#555555" text-anchor="middle">05-17</text>
<text x="202.06" y="720" font-size="11" fill="#555555" text-anchor="middle">16:00</text>
<line x1="276.76" y1="579.05" x2="276.76" y2="650.00" stroke="#e74c3c" stroke-width="2"/>
<rect x="255.10" y="586.56" width="43.33" height="20.65" fill="#e74c3c" stroke="#e74c3c" stroke-width="1"/>
<text x="276.76" y="704" font-size="11" fill="#555555" text-anchor="middle">05-17</text>
<text x="276.76" y="720" font-size="11" fill="#555555" text-anchor="middle">17:00</text>
<line x1="351.47" y1="585.81" x2="351.47" y2="615.09" stroke="#2ecc71" stroke-width="2"/>
<rect x="329.81" y="603.07" width="43.33" height="12.01" fill="#2ecc71" stroke="#2ecc71" stroke-width="1"/>
<text x="351.47" y="704" font-size="11" fill="#555555" text-anchor="middle">05-17</text>
<text x="351.47" y="720" font-size="11" fill="#555555" text-anchor="middle">18:00</text>
<line x1="426.18" y1="589.56" x2="426.18" y2="628.98" stroke="#e74c3c" stroke-width="2"/>
<rect x="404.51" y="599.70" width="43.33" height="11.26" fill="#e74c3c" stroke="#e74c3c" stroke-width="1"/>
<text x="426.18" y="704" font-size="11" fill="#555555" text-anchor="middle">05-17</text>
<text x="426.18" y="720" font-size="11" fill="#555555" text-anchor="middle">19:00</text>
<line x1="500.88" y1="581.30" x2="500.88" y2="615.09" stroke="#e74c3c" stroke-width="2"/>
<rect x="479.22" y="606.45" width="43.33" height="5.63" fill="#e74c3c" stroke="#e74c3c" stroke-width="1"/>
<text x="500.88" y="704" font-size="11" fill="#555555" text-anchor="middle">05-17</text>
<text x="500.88" y="720" font-size="11" fill="#555555" text-anchor="middle">20:00</text>
<line x1="575.59" y1="595.57" x2="575.59" y2="640.61" stroke="#e74c3c" stroke-width="2"/>
<rect x="553.92" y="613.59" width="43.33" height="15.02" fill="#e74c3c" stroke="#e74c3c" stroke-width="1"/>
<text x="575.59" y="704" font-size="11" fill="#555555" text-anchor="middle">05-17</text>
<text x="575.59" y="720" font-size="11" fill="#555555" text-anchor="middle">21:00</text>
<line x1="650.29" y1="574.17" x2="650.29" y2="626.72" stroke="#2ecc71" stroke-width="2"/>
<rect x="628.63" y="574.17" width="43.33" height="51.06" fill="#2ecc71" stroke="#2ecc71" stroke-width="1"/>
<text x="650.29" y="704" font-size="11" fill="#555555" text-anchor="middle">05-17</text>
<text x="650.29" y="720" font-size="11" fill="#555555" text-anchor="middle">22:00</text>
<line x1="725.00" y1="70.00" x2="725.00" y2="579.80" stroke="#2ecc71" stroke-width="2"/>
<rect x="703.34" y="466.05" width="43.33" height="109.62" fill="#2ecc71" stroke="#2ecc71" stroke-width="1"/>
<text x="725.00" y="704" font-size="11" fill="#555555" text-anchor="middle">05-17</text>
<text x="725.00" y="720" font-size="11" fill="#555555" text-anchor="middle">23:00</text>
<line x1="799.71" y1="456.67" x2="799.71" y2="583.55" stroke="#e74c3c" stroke-width="2"/>
<rect x="778.04" y="466.05" width="43.33" height="77.33" fill="#e74c3c" stroke="#e74c3c" stroke-width="1"/>
<text x="799.71" y="704" font-size="11" fill="#555555" text-anchor="middle">05-18</text>
<text x="799.71" y="720" font-size="11" fill="#555555" text-anchor="middle">00:00</text>
<line x1="874.41" y1="515.98" x2="874.41" y2="566.28" stroke="#e74c3c" stroke-width="2"/>
<rect x="852.75" y="544.14" width="43.33" height="18.02" fill="#e74c3c" stroke="#e74c3c" stroke-width="1"/>
<text x="874.41" y="704" font-size="11" fill="#555555" text-anchor="middle">05-18</text>
<text x="874.41" y="720" font-size="11" fill="#555555" text-anchor="middle">01:00</text>
<line x1="949.12" y1="510.35" x2="949.12" y2="562.53" stroke="#2ecc71" stroke-width="2"/>
<rect x="927.45" y="532.87" width="43.33" height="28.53" fill="#2ecc71" stroke="#2ecc71" stroke-width="1"/>
<text x="949.12" y="704" font-size="11" fill="#555555" text-anchor="middle">05-18</text>
<text x="949.12" y="720" font-size="11" fill="#555555" text-anchor="middle">02:00</text>
<line x1="1023.82" y1="527.62" x2="1023.82" y2="571.54" stroke="#e74c3c" stroke-width="2"/>
<rect x="1002.16" y="540.76" width="43.33" height="20.27" fill="#e74c3c" stroke="#e74c3c" stroke-width="1"/>
<text x="1023.82" y="704" font-size="11" fill="#555555" text-anchor="middle">05-18</text>
<text x="1023.82" y="720" font-size="11" fill="#555555" text-anchor="middle">03:00</text>
<line x1="1098.53" y1="518.23" x2="1098.53" y2="568.91" stroke="#2ecc71" stroke-width="2"/>
<rect x="1076.86" y="518.23" width="43.33" height="37.17" fill="#2ecc71" stroke="#2ecc71" stroke-width="1"/>
<text x="1098.53" y="704" font-size="11" fill="#555555" text-anchor="middle">05-18</text>
<text x="1098.53" y="720" font-size="11" fill="#555555" text-anchor="middle">04:00</text>
<line x1="1173.24" y1="459.67" x2="1173.24" y2="533.25" stroke="#2ecc71" stroke-width="2"/>
<rect x="1151.57" y="475.81" width="43.33" height="55.18" fill="#2ecc71" stroke="#2ecc71" stroke-width="1"/>
<text x="1173.24" y="704" font-size="11" fill="#555555" text-anchor="middle">05-18</text>
<text x="1173.24" y="720" font-size="11" fill="#555555" text-anchor="middle">05:00</text>
<line x1="1247.94" y1="452.54" x2="1247.94" y2="523.11" stroke="#2ecc71" stroke-width="2"/>
<rect x="1226.28" y="470.18" width="43.33" height="18.77" fill="#2ecc71" stroke="#2ecc71" stroke-width="1"/>
<text x="1247.94" y="704" font-size="11" fill="#555555" text-anchor="middle">05-18</text>
<text x="1247.94" y="720" font-size="11" fill="#555555" text-anchor="middle">06:00</text>
<line x1="1322.65" y1="393.60" x2="1322.65" y2="478.06" stroke="#2ecc71" stroke-width="2"/>
<rect x="1300.98" y="461.92" width="43.33" height="6.01" fill="#2ecc71" stroke="#2ecc71" stroke-width="1"/>
<text x="1322.65" y="704" font-size="11" fill="#555555" text-anchor="middle">05-18</text>
<text x="1322.65" y="720" font-size="11" fill="#555555" text-anchor="middle">07:00</text>
<line x1="725.00" y1="70.00" x2="805.00" y2="90.00" stroke="#f1c40f" stroke-width="2"/>
<rect x="805.00" y="42.00" width="220" height="72" rx="8" fill="#fff8dc" stroke="#f1c40f"/>
<text x="815.00" y="66.00" font-size="12" fill="#111111">目标K线 2025-05-17 23:00</text>
<text x="815.00" y="84.00" font-size="12" fill="#111111">振幅 21.76%</text>
<text x="815.00" y="102.00" font-size="12" fill="#111111">倍数 9.49x</text>
<line x1="650.29" y1="574.17" x2="620.29" y2="534.17" stroke="#3498db" stroke-width="2"/>
<rect x="400.29" y="498.17" width="220" height="58" rx="8" fill="#eef6ff" stroke="#3498db"/>
<text x="410.29" y="520.17" font-size="12" fill="#111111">前一根涨幅 2.23%</text>
<text x="410.29" y="538.17" font-size="12" fill="#111111">前一根振幅 2.29%</text>
</svg>