<svg xmlns="http://www.w3.org/2000/svg" width="1400" height="760" viewBox="0 0 1400 760">
<rect width="100%" height="100%" fill="#fcfcfc"/>
<text x="90" y="36" font-size="26" font-weight="700" fill="#111111">HIGH_USDT 1H - 9倍命中</text>
<line x1="90" y1="70.00" x2="1360" y2="70.00" stroke="#d9d9d9" stroke-dasharray="4 4" stroke-width="1"/>
<text x="12" y="74.00" font-size="12" fill="#555555">0.540000</text>
<line x1="90" y1="186.00" x2="1360" y2="186.00" stroke="#d9d9d9" stroke-dasharray="4 4" stroke-width="1"/>
<text x="12" y="190.00" font-size="12" fill="#555555">0.505220</text>
<line x1="90" y1="302.00" x2="1360" y2="302.00" stroke="#d9d9d9" stroke-dasharray="4 4" stroke-width="1"/>
<text x="12" y="306.00" font-size="12" fill="#555555">0.470440</text>
<line x1="90" y1="418.00" x2="1360" y2="418.00" stroke="#d9d9d9" stroke-dasharray="4 4" stroke-width="1"/>
<text x="12" y="422.00" font-size="12" fill="#555555">0.435660</text>
<line x1="90" y1="534.00" x2="1360" y2="534.00" stroke="#d9d9d9" stroke-dasharray="4 4" stroke-width="1"/>
<text x="12" y="538.00" font-size="12" fill="#555555">0.400880</text>
<line x1="90" y1="650.00" x2="1360" y2="650.00" stroke="#d9d9d9" stroke-dasharray="4 4" stroke-width="1"/>
<text x="12" y="654.00" font-size="12" fill="#555555">0.366100</text>
<rect x="687.65" y="70" width="74.71" height="580.00" fill="#f1c40f" opacity="0.16"/>
<rect x="612.94" y="70" width="74.71" height="580.00" fill="#3498db" opacity="0.10"/>
<line x1="127.35" y1="641.33" x2="127.35" y2="650.00" stroke="#2ecc71" stroke-width="2"/>
<rect x="105.69" y="641.33" width="43.33" height="8.67" fill="#2ecc71" stroke="#2ecc71" stroke-width="1"/>
<text x="127.35" y="704" font-size="11" fill="#555555" text-anchor="middle">04-19</text>
<text x="127.35" y="720" font-size="11" fill="#555555" text-anchor="middle">01:00</text>
<line x1="202.06" y1="629.65" x2="202.06" y2="638.66" stroke="#2ecc71" stroke-width="2"/>
<rect x="180.39" y="630.32" width="43.33" height="8.34" fill="#2ecc71" stroke="#2ecc71" stroke-width="1"/>
<text x="202.06" y="704" font-size="11" fill="#555555" text-anchor="middle">04-19</text>
<text x="202.06" y="720" font-size="11" fill="#555555" text-anchor="middle">02:00</text>
<line x1="276.76" y1="626.99" x2="276.76" y2="637.66" stroke="#2ecc71" stroke-width="2"/>
<rect x="255.10" y="632.66" width="43.33" height="5.00" fill="#2ecc71" stroke="#2ecc71" stroke-width="1"/>
<text x="276.76" y="704" font-size="11" fill="#555555" text-anchor="middle">04-19</text>
<text x="276.76" y="720" font-size="11" fill="#555555" text-anchor="middle">03:00</text>
<line x1="351.47" y1="623.99" x2="351.47" y2="633.32" stroke="#e74c3c" stroke-width="2"/>
<rect x="329.81" y="632.32" width="43.33" height="1.20" fill="#e74c3c" stroke="#e74c3c" stroke-width="1"/>
<text x="351.47" y="704" font-size="11" fill="#555555" text-anchor="middle">04-19</text>
<text x="351.47" y="720" font-size="11" fill="#555555" text-anchor="middle">04:00</text>
<line x1="426.18" y1="621.98" x2="426.18" y2="627.32" stroke="#2ecc71" stroke-width="2"/>
<rect x="404.51" y="623.65" width="43.33" height="3.67" fill="#2ecc71" stroke="#2ecc71" stroke-width="1"/>
<text x="426.18" y="704" font-size="11" fill="#555555" text-anchor="middle">04-19</text>
<text x="426.18" y="720" font-size="11" fill="#555555" text-anchor="middle">05:00</text>
<line x1="500.88" y1="622.98" x2="500.88" y2="632.66" stroke="#2ecc71" stroke-width="2"/>
<rect x="479.22" y="622.98" width="43.33" height="7.67" fill="#2ecc71" stroke="#2ecc71" stroke-width="1"/>
<text x="500.88" y="704" font-size="11" fill="#555555" text-anchor="middle">04-19</text>
<text x="500.88" y="720" font-size="11" fill="#555555" text-anchor="middle">06:00</text>
<line x1="575.59" y1="605.31" x2="575.59" y2="631.32" stroke="#2ecc71" stroke-width="2"/>
<rect x="553.92" y="605.31" width="43.33" height="21.01" fill="#2ecc71" stroke="#2ecc71" stroke-width="1"/>
<text x="575.59" y="704" font-size="11" fill="#555555" text-anchor="middle">04-19</text>
<text x="575.59" y="720" font-size="11" fill="#555555" text-anchor="middle">07:00</text>
<line x1="650.29" y1="576.29" x2="650.29" y2="610.64" stroke="#2ecc71" stroke-width="2"/>
<rect x="628.63" y="576.29" width="43.33" height="31.68" fill="#2ecc71" stroke="#2ecc71" stroke-width="1"/>
<text x="650.29" y="704" font-size="11" fill="#555555" text-anchor="middle">04-19</text>
<text x="650.29" y="720" font-size="11" fill="#555555" text-anchor="middle">08:00</text>
<line x1="725.00" y1="240.76" x2="725.00" y2="575.62" stroke="#2ecc71" stroke-width="2"/>
<rect x="703.34" y="334.82" width="43.33" height="240.81" fill="#2ecc71" stroke="#2ecc71" stroke-width="1"/>
<text x="725.00" y="704" font-size="11" fill="#555555" text-anchor="middle">04-19</text>
<text x="725.00" y="720" font-size="11" fill="#555555" text-anchor="middle">09:00</text>
<line x1="799.71" y1="174.06" x2="799.71" y2="340.82" stroke="#2ecc71" stroke-width="2"/>
<rect x="778.04" y="259.44" width="43.33" height="75.04" fill="#2ecc71" stroke="#2ecc71" stroke-width="1"/>
<text x="799.71" y="704" font-size="11" fill="#555555" text-anchor="middle">04-19</text>
<text x="799.71" y="720" font-size="11" fill="#555555" text-anchor="middle">10:00</text>
<line x1="874.41" y1="235.09" x2="874.41" y2="311.81" stroke="#e74c3c" stroke-width="2"/>
<rect x="852.75" y="259.44" width="43.33" height="21.01" fill="#e74c3c" stroke="#e74c3c" stroke-width="1"/>
<text x="874.41" y="704" font-size="11" fill="#555555" text-anchor="middle">04-19</text>
<text x="874.41" y="720" font-size="11" fill="#555555" text-anchor="middle">11:00</text>
<line x1="949.12" y1="149.38" x2="949.12" y2="333.48" stroke="#2ecc71" stroke-width="2"/>
<rect x="927.45" y="179.40" width="43.33" height="104.06" fill="#2ecc71" stroke="#2ecc71" stroke-width="1"/>
<text x="949.12" y="704" font-size="11" fill="#555555" text-anchor="middle">04-19</text>
<text x="949.12" y="720" font-size="11" fill="#555555" text-anchor="middle">12:00</text>
<line x1="1023.82" y1="113.02" x2="1023.82" y2="228.09" stroke="#e74c3c" stroke-width="2"/>
<rect x="1002.16" y="177.40" width="43.33" height="19.68" fill="#e74c3c" stroke="#e74c3c" stroke-width="1"/>
<text x="1023.82" y="704" font-size="11" fill="#555555" text-anchor="middle">04-19</text>
<text x="1023.82" y="720" font-size="11" fill="#555555" text-anchor="middle">13:00</text>
<line x1="1098.53" y1="70.00" x2="1098.53" y2="225.42" stroke="#2ecc71" stroke-width="2"/>
<rect x="1076.86" y="81.34" width="43.33" height="116.07" fill="#2ecc71" stroke="#2ecc71" stroke-width="1"/>
<text x="1098.53" y="704" font-size="11" fill="#555555" text-anchor="middle">04-19</text>
<text x="1098.53" y="720" font-size="11" fill="#555555" text-anchor="middle">14:00</text>
<line x1="1173.24" y1="70.00" x2="1173.24" y2="152.05" stroke="#e74c3c" stroke-width="2"/>
<rect x="1151.57" y="83.34" width="43.33" height="26.68" fill="#e74c3c" stroke="#e74c3c" stroke-width="1"/>
<text x="1173.24" y="704" font-size="11" fill="#555555" text-anchor="middle">04-19</text>
<text x="1173.24" y="720" font-size="11" fill="#555555" text-anchor="middle">15:00</text>
<line x1="1247.94" y1="111.36" x2="1247.94" y2="185.40" stroke="#e74c3c" stroke-width="2"/>
<rect x="1226.28" y="111.36" width="43.33" height="48.03" fill="#e74c3c" stroke="#e74c3c" stroke-width="1"/>
<text x="1247.94" y="704" font-size="11" fill="#555555" text-anchor="middle">04-19</text>
<text x="1247.94" y="720" font-size="11" fill="#555555" text-anchor="middle">16:00</text>
<line x1="1322.65" y1="140.71" x2="1322.65" y2="213.75" stroke="#2ecc71" stroke-width="2"/>
<rect x="1300.98" y="147.38" width="43.33" height="12.34" fill="#2ecc71" stroke="#2ecc71" stroke-width="1"/>
<text x="1322.65" y="704" font-size="11" fill="#555555" text-anchor="middle">04-19</text>
<text x="1322.65" y="720" font-size="11" fill="#555555" text-anchor="middle">17:00</text>
<line x1="725.00" y1="240.76" x2="805.00" y2="170.76" stroke="#f1c40f" stroke-width="2"/>
<rect x="805.00" y="122.76" width="220" height="72" rx="8" fill="#fff8dc" stroke="#f1c40f"/>
<text x="815.00" y="146.76" font-size="12" fill="#111111">目标K线 2025-04-19 09:00</text>
<text x="815.00" y="164.76" font-size="12" fill="#111111">振幅 25.85%</text>
<text x="815.00" y="182.76" font-size="12" fill="#111111">倍数 9.50x</text>
<line x1="650.29" y1="576.29" x2="620.29" y2="536.29" stroke="#3498db" stroke-width="2"/>
<rect x="400.29" y="500.29" width="220" height="58" rx="8" fill="#eef6ff" stroke="#3498db"/>
<text x="410.29" y="522.29" font-size="12" fill="#111111">前一根涨幅 2.51%</text>
<text x="410.29" y="540.29" font-size="12" fill="#111111">前一根振幅 2.72%</text>
</svg>