<svg xmlns="http://www.w3.org/2000/svg" width="1400" height="760" viewBox="0 0 1400 760">
<rect width="100%" height="100%" fill="#fcfcfc"/>
<text x="90" y="36" font-size="26" font-weight="700" fill="#111111">NOM_USDT 1H - 9倍命中</text>
<line x1="90" y1="70.00" x2="1360" y2="70.00" stroke="#d9d9d9" stroke-dasharray="4 4" stroke-width="1"/>
<text x="12" y="74.00" font-size="12" fill="#555555">0.018070</text>
<line x1="90" y1="186.00" x2="1360" y2="186.00" stroke="#d9d9d9" stroke-dasharray="4 4" stroke-width="1"/>
<text x="12" y="190.00" font-size="12" fill="#555555">0.016022</text>
<line x1="90" y1="302.00" x2="1360" y2="302.00" stroke="#d9d9d9" stroke-dasharray="4 4" stroke-width="1"/>
<text x="12" y="306.00" font-size="12" fill="#555555">0.013974</text>
<line x1="90" y1="418.00" x2="1360" y2="418.00" stroke="#d9d9d9" stroke-dasharray="4 4" stroke-width="1"/>
<text x="12" y="422.00" font-size="12" fill="#555555">0.011926</text>
<line x1="90" y1="534.00" x2="1360" y2="534.00" stroke="#d9d9d9" stroke-dasharray="4 4" stroke-width="1"/>
<text x="12" y="538.00" font-size="12" fill="#555555">0.009878</text>
<line x1="90" y1="650.00" x2="1360" y2="650.00" stroke="#d9d9d9" stroke-dasharray="4 4" stroke-width="1"/>
<text x="12" y="654.00" font-size="12" fill="#555555">0.007830</text>
<rect x="687.65" y="70" width="74.71" height="580.00" fill="#f1c40f" opacity="0.16"/>
<rect x="612.94" y="70" width="74.71" height="580.00" fill="#3498db" opacity="0.10"/>
<line x1="127.35" y1="641.50" x2="127.35" y2="650.00" stroke="#e74c3c" stroke-width="2"/>
<rect x="105.69" y="643.20" width="43.33" height="5.66" fill="#e74c3c" stroke="#e74c3c" stroke-width="1"/>
<text x="127.35" y="704" font-size="11" fill="#555555" text-anchor="middle">01-25</text>
<text x="127.35" y="720" font-size="11" fill="#555555" text-anchor="middle">00:00</text>
<line x1="202.06" y1="634.14" x2="202.06" y2="649.43" stroke="#2ecc71" stroke-width="2"/>
<rect x="180.39" y="636.41" width="43.33" height="13.03" fill="#2ecc71" stroke="#2ecc71" stroke-width="1"/>
<text x="202.06" y="704" font-size="11" fill="#555555" text-anchor="middle">01-25</text>
<text x="202.06" y="720" font-size="11" fill="#555555" text-anchor="middle">01:00</text>
<line x1="276.76" y1="628.48" x2="276.76" y2="640.37" stroke="#e74c3c" stroke-width="2"/>
<rect x="255.10" y="636.41" width="43.33" height="2.27" fill="#e74c3c" stroke="#e74c3c" stroke-width="1"/>
<text x="276.76" y="704" font-size="11" fill="#555555" text-anchor="middle">01-25</text>
<text x="276.76" y="720" font-size="11" fill="#555555" text-anchor="middle">02:00</text>
<line x1="351.47" y1="617.71" x2="351.47" y2="638.11" stroke="#2ecc71" stroke-width="2"/>
<rect x="329.81" y="626.78" width="43.33" height="10.76" fill="#2ecc71" stroke="#2ecc71" stroke-width="1"/>
<text x="351.47" y="704" font-size="11" fill="#555555" text-anchor="middle">01-25</text>
<text x="351.47" y="720" font-size="11" fill="#555555" text-anchor="middle">03:00</text>
<line x1="426.18" y1="625.08" x2="426.18" y2="632.44" stroke="#e74c3c" stroke-width="2"/>
<rect x="404.51" y="626.78" width="43.33" height="2.27" fill="#e74c3c" stroke="#e74c3c" stroke-width="1"/>
<text x="426.18" y="704" font-size="11" fill="#555555" text-anchor="middle">01-25</text>
<text x="426.18" y="720" font-size="11" fill="#555555" text-anchor="middle">04:00</text>
<line x1="500.88" y1="620.55" x2="500.88" y2="635.27" stroke="#2ecc71" stroke-width="2"/>
<rect x="479.22" y="626.78" width="43.33" height="2.27" fill="#2ecc71" stroke="#2ecc71" stroke-width="1"/>
<text x="500.88" y="704" font-size="11" fill="#555555" text-anchor="middle">01-25</text>
<text x="500.88" y="720" font-size="11" fill="#555555" text-anchor="middle">05:00</text>
<line x1="575.59" y1="623.38" x2="575.59" y2="629.04" stroke="#2ecc71" stroke-width="2"/>
<rect x="553.92" y="625.64" width="43.33" height="1.20" fill="#2ecc71" stroke="#2ecc71" stroke-width="1"/>
<text x="575.59" y="704" font-size="11" fill="#555555" text-anchor="middle">01-25</text>
<text x="575.59" y="720" font-size="11" fill="#555555" text-anchor="middle">06:00</text>
<line x1="650.29" y1="599.02" x2="650.29" y2="625.08" stroke="#2ecc71" stroke-width="2"/>
<rect x="628.63" y="601.86" width="43.33" height="23.22" fill="#2ecc71" stroke="#2ecc71" stroke-width="1"/>
<text x="650.29" y="704" font-size="11" fill="#555555" text-anchor="middle">01-25</text>
<text x="650.29" y="720" font-size="11" fill="#555555" text-anchor="middle">07:00</text>
<line x1="725.00" y1="353.20" x2="725.00" y2="610.35" stroke="#2ecc71" stroke-width="2"/>
<rect x="703.34" y="402.48" width="43.33" height="198.81" fill="#2ecc71" stroke="#2ecc71" stroke-width="1"/>
<text x="725.00" y="704" font-size="11" fill="#555555" text-anchor="middle">01-25</text>
<text x="725.00" y="720" font-size="11" fill="#555555" text-anchor="middle">08:00</text>
<line x1="799.71" y1="297.70" x2="799.71" y2="434.20" stroke="#2ecc71" stroke-width="2"/>
<rect x="778.04" y="316.95" width="43.33" height="85.53" fill="#2ecc71" stroke="#2ecc71" stroke-width="1"/>
<text x="799.71" y="704" font-size="11" fill="#555555" text-anchor="middle">01-25</text>
<text x="799.71" y="720" font-size="11" fill="#555555" text-anchor="middle">09:00</text>
<line x1="874.41" y1="297.70" x2="874.41" y2="390.02" stroke="#e74c3c" stroke-width="2"/>
<rect x="852.75" y="316.95" width="43.33" height="40.21" fill="#e74c3c" stroke="#e74c3c" stroke-width="1"/>
<text x="874.41" y="704" font-size="11" fill="#555555" text-anchor="middle">01-25</text>
<text x="874.41" y="720" font-size="11" fill="#555555" text-anchor="middle">10:00</text>
<line x1="949.12" y1="254.08" x2="949.12" y2="363.40" stroke="#2ecc71" stroke-width="2"/>
<rect x="927.45" y="288.63" width="43.33" height="69.67" fill="#2ecc71" stroke="#2ecc71" stroke-width="1"/>
<text x="949.12" y="704" font-size="11" fill="#555555" text-anchor="middle">01-25</text>
<text x="949.12" y="720" font-size="11" fill="#555555" text-anchor="middle">11:00</text>
<line x1="1023.82" y1="280.14" x2="1023.82" y2="343.57" stroke="#e74c3c" stroke-width="2"/>
<rect x="1002.16" y="290.90" width="43.33" height="32.29" fill="#e74c3c" stroke="#e74c3c" stroke-width="1"/>
<text x="1023.82" y="704" font-size="11" fill="#555555" text-anchor="middle">01-25</text>
<text x="1023.82" y="720" font-size="11" fill="#555555" text-anchor="middle">12:00</text>
<line x1="1098.53" y1="281.84" x2="1098.53" y2="337.34" stroke="#2ecc71" stroke-width="2"/>
<rect x="1076.86" y="288.07" width="43.33" height="37.38" fill="#2ecc71" stroke="#2ecc71" stroke-width="1"/>
<text x="1098.53" y="704" font-size="11" fill="#555555" text-anchor="middle">01-25</text>
<text x="1098.53" y="720" font-size="11" fill="#555555" text-anchor="middle">13:00</text>
<line x1="1173.24" y1="209.34" x2="1173.24" y2="298.83" stroke="#2ecc71" stroke-width="2"/>
<rect x="1151.57" y="221.80" width="43.33" height="67.97" fill="#2ecc71" stroke="#2ecc71" stroke-width="1"/>
<text x="1173.24" y="704" font-size="11" fill="#555555" text-anchor="middle">01-25</text>
<text x="1173.24" y="720" font-size="11" fill="#555555" text-anchor="middle">14:00</text>
<line x1="1247.94" y1="90.39" x2="1247.94" y2="219.53" stroke="#2ecc71" stroke-width="2"/>
<rect x="1226.28" y="109.08" width="43.33" height="109.88" fill="#2ecc71" stroke="#2ecc71" stroke-width="1"/>
<text x="1247.94" y="704" font-size="11" fill="#555555" text-anchor="middle">01-25</text>
<text x="1247.94" y="720" font-size="11" fill="#555555" text-anchor="middle">15:00</text>
<line x1="1322.65" y1="70.00" x2="1322.65" y2="167.42" stroke="#2ecc71" stroke-width="2"/>
<rect x="1300.98" y="109.08" width="43.33" height="3.40" fill="#2ecc71" stroke="#2ecc71" stroke-width="1"/>
<text x="1322.65" y="704" font-size="11" fill="#555555" text-anchor="middle">01-25</text>
<text x="1322.65" y="720" font-size="11" fill="#555555" text-anchor="middle">16:00</text>
<line x1="725.00" y1="353.20" x2="805.00" y2="283.20" stroke="#f1c40f" stroke-width="2"/>
<rect x="805.00" y="235.20" width="220" height="72" rx="8" fill="#fff8dc" stroke="#f1c40f"/>
<text x="815.00" y="259.20" font-size="12" fill="#111111">目标K线 2026-01-25 08:00</text>
<text x="815.00" y="277.20" font-size="12" fill="#111111">振幅 52.24%</text>
<text x="815.00" y="295.20" font-size="12" fill="#111111">倍数 9.39x</text>
<line x1="650.29" y1="599.02" x2="620.29" y2="559.02" stroke="#3498db" stroke-width="2"/>
<rect x="400.29" y="523.02" width="220" height="58" rx="8" fill="#eef6ff" stroke="#3498db"/>
<text x="410.29" y="545.02" font-size="12" fill="#111111">前一根涨幅 4.96%</text>
<text x="410.29" y="563.02" font-size="12" fill="#111111">前一根振幅 5.56%</text>
</svg>