<svg xmlns="http://www.w3.org/2000/svg" width="1400" height="760" viewBox="0 0 1400 760">
<rect width="100%" height="100%" fill="#fcfcfc"/>
<text x="90" y="36" font-size="26" font-weight="700" fill="#111111">POWER_USDT 1H - 9倍命中</text>
<line x1="90" y1="70.00" x2="1360" y2="70.00" stroke="#d9d9d9" stroke-dasharray="4 4" stroke-width="1"/>
<text x="12" y="74.00" font-size="12" fill="#555555">2.221300</text>
<line x1="90" y1="186.00" x2="1360" y2="186.00" stroke="#d9d9d9" stroke-dasharray="4 4" stroke-width="1"/>
<text x="12" y="190.00" font-size="12" fill="#555555">1.949340</text>
<line x1="90" y1="302.00" x2="1360" y2="302.00" stroke="#d9d9d9" stroke-dasharray="4 4" stroke-width="1"/>
<text x="12" y="306.00" font-size="12" fill="#555555">1.677380</text>
<line x1="90" y1="418.00" x2="1360" y2="418.00" stroke="#d9d9d9" stroke-dasharray="4 4" stroke-width="1"/>
<text x="12" y="422.00" font-size="12" fill="#555555">1.405420</text>
<line x1="90" y1="534.00" x2="1360" y2="534.00" stroke="#d9d9d9" stroke-dasharray="4 4" stroke-width="1"/>
<text x="12" y="538.00" font-size="12" fill="#555555">1.133460</text>
<line x1="90" y1="650.00" x2="1360" y2="650.00" stroke="#d9d9d9" stroke-dasharray="4 4" stroke-width="1"/>
<text x="12" y="654.00" font-size="12" fill="#555555">0.861500</text>
<rect x="687.65" y="70" width="74.71" height="580.00" fill="#f1c40f" opacity="0.16"/>
<rect x="612.94" y="70" width="74.71" height="580.00" fill="#3498db" opacity="0.10"/>
<line x1="127.35" y1="614.68" x2="127.35" y2="649.57" stroke="#e74c3c" stroke-width="2"/>
<rect x="105.69" y="616.43" width="43.33" height="8.40" fill="#e74c3c" stroke="#e74c3c" stroke-width="1"/>
<text x="127.35" y="704" font-size="11" fill="#555555" text-anchor="middle">02-26</text>
<text x="127.35" y="720" font-size="11" fill="#555555" text-anchor="middle">08:00</text>
<line x1="202.06" y1="622.36" x2="202.06" y2="636.99" stroke="#2ecc71" stroke-width="2"/>
<rect x="180.39" y="623.47" width="43.33" height="1.28" fill="#2ecc71" stroke="#2ecc71" stroke-width="1"/>
<text x="202.06" y="704" font-size="11" fill="#555555" text-anchor="middle">02-26</text>
<text x="202.06" y="720" font-size="11" fill="#555555" text-anchor="middle">09:00</text>
<line x1="276.76" y1="623.73" x2="276.76" y2="642.11" stroke="#e74c3c" stroke-width="2"/>
<rect x="255.10" y="623.73" width="43.33" height="13.22" fill="#e74c3c" stroke="#e74c3c" stroke-width="1"/>
<text x="276.76" y="704" font-size="11" fill="#555555" text-anchor="middle">02-26</text>
<text x="276.76" y="720" font-size="11" fill="#555555" text-anchor="middle">10:00</text>
<line x1="351.47" y1="632.81" x2="351.47" y2="643.86" stroke="#2ecc71" stroke-width="2"/>
<rect x="329.81" y="635.03" width="43.33" height="2.13" fill="#2ecc71" stroke="#2ecc71" stroke-width="1"/>
<text x="351.47" y="704" font-size="11" fill="#555555" text-anchor="middle">02-26</text>
<text x="351.47" y="720" font-size="11" fill="#555555" text-anchor="middle">11:00</text>
<line x1="426.18" y1="606.66" x2="426.18" y2="650.00" stroke="#2ecc71" stroke-width="2"/>
<rect x="404.51" y="617.84" width="43.33" height="17.62" fill="#2ecc71" stroke="#2ecc71" stroke-width="1"/>
<text x="426.18" y="704" font-size="11" fill="#555555" text-anchor="middle">02-26</text>
<text x="426.18" y="720" font-size="11" fill="#555555" text-anchor="middle">12:00</text>
<line x1="500.88" y1="603.04" x2="500.88" y2="631.06" stroke="#2ecc71" stroke-width="2"/>
<rect x="479.22" y="613.23" width="43.33" height="4.31" fill="#2ecc71" stroke="#2ecc71" stroke-width="1"/>
<text x="500.88" y="704" font-size="11" fill="#555555" text-anchor="middle">02-26</text>
<text x="500.88" y="720" font-size="11" fill="#555555" text-anchor="middle">13:00</text>
<line x1="575.59" y1="546.61" x2="575.59" y2="615.07" stroke="#2ecc71" stroke-width="2"/>
<rect x="553.92" y="577.96" width="43.33" height="35.27" fill="#2ecc71" stroke="#2ecc71" stroke-width="1"/>
<text x="575.59" y="704" font-size="11" fill="#555555" text-anchor="middle">02-26</text>
<text x="575.59" y="720" font-size="11" fill="#555555" text-anchor="middle">14:00</text>
<line x1="650.29" y1="537.35" x2="650.29" y2="582.35" stroke="#2ecc71" stroke-width="2"/>
<rect x="628.63" y="553.48" width="43.33" height="25.08" fill="#2ecc71" stroke="#2ecc71" stroke-width="1"/>
<text x="650.29" y="704" font-size="11" fill="#555555" text-anchor="middle">02-26</text>
<text x="650.29" y="720" font-size="11" fill="#555555" text-anchor="middle">15:00</text>
<line x1="725.00" y1="93.59" x2="725.00" y2="560.94" stroke="#2ecc71" stroke-width="2"/>
<rect x="703.34" y="419.76" width="43.33" height="133.89" fill="#2ecc71" stroke="#2ecc71" stroke-width="1"/>
<text x="725.00" y="704" font-size="11" fill="#555555" text-anchor="middle">02-26</text>
<text x="725.00" y="720" font-size="11" fill="#555555" text-anchor="middle">16:00</text>
<line x1="799.71" y1="280.11" x2="799.71" y2="437.50" stroke="#2ecc71" stroke-width="2"/>
<rect x="778.04" y="316.96" width="43.33" height="103.22" fill="#2ecc71" stroke="#2ecc71" stroke-width="1"/>
<text x="799.71" y="704" font-size="11" fill="#555555" text-anchor="middle">02-26</text>
<text x="799.71" y="720" font-size="11" fill="#555555" text-anchor="middle">17:00</text>
<line x1="874.41" y1="259.59" x2="874.41" y2="351.68" stroke="#2ecc71" stroke-width="2"/>
<rect x="852.75" y="278.28" width="43.33" height="39.20" fill="#2ecc71" stroke="#2ecc71" stroke-width="1"/>
<text x="874.41" y="704" font-size="11" fill="#555555" text-anchor="middle">02-26</text>
<text x="874.41" y="720" font-size="11" fill="#555555" text-anchor="middle">18:00</text>
<line x1="949.12" y1="277.98" x2="949.12" y2="413.10" stroke="#e74c3c" stroke-width="2"/>
<rect x="927.45" y="278.28" width="43.33" height="40.78" fill="#e74c3c" stroke="#e74c3c" stroke-width="1"/>
<text x="949.12" y="704" font-size="11" fill="#555555" text-anchor="middle">02-26</text>
<text x="949.12" y="720" font-size="11" fill="#555555" text-anchor="middle">19:00</text>
<line x1="1023.82" y1="279.26" x2="1023.82" y2="379.24" stroke="#2ecc71" stroke-width="2"/>
<rect x="1002.16" y="283.82" width="43.33" height="35.66" fill="#2ecc71" stroke="#2ecc71" stroke-width="1"/>
<text x="1023.82" y="704" font-size="11" fill="#555555" text-anchor="middle">02-26</text>
<text x="1023.82" y="720" font-size="11" fill="#555555" text-anchor="middle">20:00</text>
<line x1="1098.53" y1="157.35" x2="1098.53" y2="321.44" stroke="#2ecc71" stroke-width="2"/>
<rect x="1076.86" y="179.62" width="43.33" height="104.24" fill="#2ecc71" stroke="#2ecc71" stroke-width="1"/>
<text x="1098.53" y="704" font-size="11" fill="#555555" text-anchor="middle">02-26</text>
<text x="1098.53" y="720" font-size="11" fill="#555555" text-anchor="middle">21:00</text>
<line x1="1173.24" y1="73.03" x2="1173.24" y2="214.34" stroke="#2ecc71" stroke-width="2"/>
<rect x="1151.57" y="94.06" width="43.33" height="85.82" fill="#2ecc71" stroke="#2ecc71" stroke-width="1"/>
<text x="1173.24" y="704" font-size="11" fill="#555555" text-anchor="middle">02-26</text>
<text x="1173.24" y="720" font-size="11" fill="#555555" text-anchor="middle">22:00</text>
<line x1="1247.94" y1="70.00" x2="1247.94" y2="249.70" stroke="#e74c3c" stroke-width="2"/>
<rect x="1226.28" y="94.99" width="43.33" height="50.89" fill="#e74c3c" stroke="#e74c3c" stroke-width="1"/>
<text x="1247.94" y="704" font-size="11" fill="#555555" text-anchor="middle">02-26</text>
<text x="1247.94" y="720" font-size="11" fill="#555555" text-anchor="middle">23:00</text>
<line x1="1322.65" y1="146.56" x2="1322.65" y2="215.58" stroke="#e74c3c" stroke-width="2"/>
<rect x="1300.98" y="146.56" width="43.33" height="50.33" fill="#e74c3c" stroke="#e74c3c" stroke-width="1"/>
<text x="1322.65" y="704" font-size="11" fill="#555555" text-anchor="middle">02-27</text>
<text x="1322.65" y="720" font-size="11" fill="#555555" text-anchor="middle">00:00</text>
<line x1="725.00" y1="93.59" x2="805.00" y2="90.00" stroke="#f1c40f" stroke-width="2"/>
<rect x="805.00" y="42.00" width="220" height="72" rx="8" fill="#fff8dc" stroke="#f1c40f"/>
<text x="815.00" y="66.00" font-size="12" fill="#111111">目标K线 2026-02-26 16:00</text>
<text x="815.00" y="84.00" font-size="12" fill="#111111">振幅 100.76%</text>
<text x="815.00" y="102.00" font-size="12" fill="#111111">倍数 9.83x</text>
<line x1="650.29" y1="537.35" x2="620.29" y2="497.35" stroke="#3498db" stroke-width="2"/>
<rect x="400.29" y="461.35" width="220" height="58" rx="8" fill="#eef6ff" stroke="#3498db"/>
<text x="410.29" y="483.35" font-size="12" fill="#111111">前一根涨幅 5.71%</text>
<text x="410.29" y="501.35" font-size="12" fill="#111111">前一根振幅 10.25%</text>
</svg>