<svg xmlns="http://www.w3.org/2000/svg" width="1400" height="760" viewBox="0 0 1400 760">
<rect width="100%" height="100%" fill="#fcfcfc"/>
<text x="90" y="36" font-size="26" font-weight="700" fill="#111111">STO_USDT 1H - 9倍命中</text>
<line x1="90" y1="70.00" x2="1360" y2="70.00" stroke="#d9d9d9" stroke-dasharray="4 4" stroke-width="1"/>
<text x="12" y="74.00" font-size="12" fill="#555555">0.078400</text>
<line x1="90" y1="186.00" x2="1360" y2="186.00" stroke="#d9d9d9" stroke-dasharray="4 4" stroke-width="1"/>
<text x="12" y="190.00" font-size="12" fill="#555555">0.075252</text>
<line x1="90" y1="302.00" x2="1360" y2="302.00" stroke="#d9d9d9" stroke-dasharray="4 4" stroke-width="1"/>
<text x="12" y="306.00" font-size="12" fill="#555555">0.072104</text>
<line x1="90" y1="418.00" x2="1360" y2="418.00" stroke="#d9d9d9" stroke-dasharray="4 4" stroke-width="1"/>
<text x="12" y="422.00" font-size="12" fill="#555555">0.068956</text>
<line x1="90" y1="534.00" x2="1360" y2="534.00" stroke="#d9d9d9" stroke-dasharray="4 4" stroke-width="1"/>
<text x="12" y="538.00" font-size="12" fill="#555555">0.065808</text>
<line x1="90" y1="650.00" x2="1360" y2="650.00" stroke="#d9d9d9" stroke-dasharray="4 4" stroke-width="1"/>
<text x="12" y="654.00" font-size="12" fill="#555555">0.062660</text>
<rect x="687.65" y="70" width="74.71" height="580.00" fill="#f1c40f" opacity="0.16"/>
<rect x="612.94" y="70" width="74.71" height="580.00" fill="#3498db" opacity="0.10"/>
<line x1="127.35" y1="600.25" x2="127.35" y2="601.36" stroke="#2ecc71" stroke-width="2"/>
<rect x="105.69" y="600.25" width="43.33" height="1.20" fill="#2ecc71" stroke="#2ecc71" stroke-width="1"/>
<text x="127.35" y="704" font-size="11" fill="#555555" text-anchor="middle">03-12</text>
<text x="127.35" y="720" font-size="11" fill="#555555" text-anchor="middle">07:00</text>
<line x1="202.06" y1="570.78" x2="202.06" y2="609.83" stroke="#2ecc71" stroke-width="2"/>
<rect x="180.39" y="598.78" width="43.33" height="5.53" fill="#2ecc71" stroke="#2ecc71" stroke-width="1"/>
<text x="202.06" y="704" font-size="11" fill="#555555" text-anchor="middle">03-12</text>
<text x="202.06" y="720" font-size="11" fill="#555555" text-anchor="middle">08:00</text>
<line x1="276.76" y1="572.25" x2="276.76" y2="596.94" stroke="#2ecc71" stroke-width="2"/>
<rect x="255.10" y="581.83" width="43.33" height="8.84" fill="#2ecc71" stroke="#2ecc71" stroke-width="1"/>
<text x="276.76" y="704" font-size="11" fill="#555555" text-anchor="middle">03-12</text>
<text x="276.76" y="720" font-size="11" fill="#555555" text-anchor="middle">09:00</text>
<line x1="351.47" y1="535.40" x2="351.47" y2="586.62" stroke="#2ecc71" stroke-width="2"/>
<rect x="329.81" y="544.61" width="43.33" height="37.95" fill="#2ecc71" stroke="#2ecc71" stroke-width="1"/>
<text x="351.47" y="704" font-size="11" fill="#555555" text-anchor="middle">03-12</text>
<text x="351.47" y="720" font-size="11" fill="#555555" text-anchor="middle">10:00</text>
<line x1="426.18" y1="502.60" x2="426.18" y2="573.72" stroke="#2ecc71" stroke-width="2"/>
<rect x="404.51" y="534.66" width="43.33" height="4.79" fill="#2ecc71" stroke="#2ecc71" stroke-width="1"/>
<text x="426.18" y="704" font-size="11" fill="#555555" text-anchor="middle">03-12</text>
<text x="426.18" y="720" font-size="11" fill="#555555" text-anchor="middle">11:00</text>
<line x1="500.88" y1="423.38" x2="500.88" y2="577.78" stroke="#e74c3c" stroke-width="2"/>
<rect x="479.22" y="536.51" width="43.33" height="28.01" fill="#e74c3c" stroke="#e74c3c" stroke-width="1"/>
<text x="500.88" y="704" font-size="11" fill="#555555" text-anchor="middle">03-12</text>
<text x="500.88" y="720" font-size="11" fill="#555555" text-anchor="middle">12:00</text>
<line x1="575.59" y1="505.18" x2="575.59" y2="563.04" stroke="#2ecc71" stroke-width="2"/>
<rect x="553.92" y="530.24" width="43.33" height="32.80" fill="#2ecc71" stroke="#2ecc71" stroke-width="1"/>
<text x="575.59" y="704" font-size="11" fill="#555555" text-anchor="middle">03-12</text>
<text x="575.59" y="720" font-size="11" fill="#555555" text-anchor="middle">13:00</text>
<line x1="650.29" y1="477.55" x2="650.29" y2="521.03" stroke="#2ecc71" stroke-width="2"/>
<rect x="628.63" y="496.34" width="43.33" height="24.69" fill="#2ecc71" stroke="#2ecc71" stroke-width="1"/>
<text x="650.29" y="704" font-size="11" fill="#555555" text-anchor="middle">03-12</text>
<text x="650.29" y="720" font-size="11" fill="#555555" text-anchor="middle">14:00</text>
<line x1="725.00" y1="70.00" x2="725.00" y2="497.08" stroke="#2ecc71" stroke-width="2"/>
<rect x="703.34" y="159.17" width="43.33" height="333.11" fill="#2ecc71" stroke="#2ecc71" stroke-width="1"/>
<text x="725.00" y="704" font-size="11" fill="#555555" text-anchor="middle">03-12</text>
<text x="725.00" y="720" font-size="11" fill="#555555" text-anchor="middle">15:00</text>
<line x1="799.71" y1="106.48" x2="799.71" y2="650.00" stroke="#e74c3c" stroke-width="2"/>
<rect x="778.04" y="163.23" width="43.33" height="393.18" fill="#e74c3c" stroke="#e74c3c" stroke-width="1"/>
<text x="799.71" y="704" font-size="11" fill="#555555" text-anchor="middle">03-12</text>
<text x="799.71" y="720" font-size="11" fill="#555555" text-anchor="middle">16:00</text>
<line x1="874.41" y1="422.27" x2="874.41" y2="556.40" stroke="#2ecc71" stroke-width="2"/>
<rect x="852.75" y="451.75" width="43.33" height="101.70" fill="#2ecc71" stroke="#2ecc71" stroke-width="1"/>
<text x="874.41" y="704" font-size="11" fill="#555555" text-anchor="middle">03-12</text>
<text x="874.41" y="720" font-size="11" fill="#555555" text-anchor="middle">17:00</text>
<line x1="949.12" y1="413.06" x2="949.12" y2="542.40" stroke="#e74c3c" stroke-width="2"/>
<rect x="927.45" y="448.81" width="43.33" height="60.43" fill="#e74c3c" stroke="#e74c3c" stroke-width="1"/>
<text x="949.12" y="704" font-size="11" fill="#555555" text-anchor="middle">03-12</text>
<text x="949.12" y="720" font-size="11" fill="#555555" text-anchor="middle">18:00</text>
<line x1="1023.82" y1="438.86" x2="1023.82" y2="514.76" stroke="#2ecc71" stroke-width="2"/>
<rect x="1002.16" y="464.28" width="43.33" height="45.32" fill="#2ecc71" stroke="#2ecc71" stroke-width="1"/>
<text x="1023.82" y="704" font-size="11" fill="#555555" text-anchor="middle">03-12</text>
<text x="1023.82" y="720" font-size="11" fill="#555555" text-anchor="middle">19:00</text>
<line x1="1098.53" y1="416.01" x2="1098.53" y2="484.18" stroke="#2ecc71" stroke-width="2"/>
<rect x="1076.86" y="416.01" width="43.33" height="50.85" fill="#2ecc71" stroke="#2ecc71" stroke-width="1"/>
<text x="1098.53" y="704" font-size="11" fill="#555555" text-anchor="middle">03-12</text>
<text x="1098.53" y="720" font-size="11" fill="#555555" text-anchor="middle">20:00</text>
<line x1="1173.24" y1="392.06" x2="1173.24" y2="491.92" stroke="#e74c3c" stroke-width="2"/>
<rect x="1151.57" y="416.38" width="43.33" height="18.06" fill="#e74c3c" stroke="#e74c3c" stroke-width="1"/>
<text x="1173.24" y="704" font-size="11" fill="#555555" text-anchor="middle">03-12</text>
<text x="1173.24" y="720" font-size="11" fill="#555555" text-anchor="middle">21:00</text>
<line x1="1247.94" y1="437.38" x2="1247.94" y2="502.60" stroke="#e74c3c" stroke-width="2"/>
<rect x="1226.28" y="437.38" width="43.33" height="60.43" fill="#e74c3c" stroke="#e74c3c" stroke-width="1"/>
<text x="1247.94" y="704" font-size="11" fill="#555555" text-anchor="middle">03-12</text>
<text x="1247.94" y="720" font-size="11" fill="#555555" text-anchor="middle">22:00</text>
<line x1="1322.65" y1="482.71" x2="1322.65" y2="515.13" stroke="#2ecc71" stroke-width="2"/>
<rect x="1300.98" y="487.13" width="43.33" height="14.00" fill="#2ecc71" stroke="#2ecc71" stroke-width="1"/>
<text x="1322.65" y="704" font-size="11" fill="#555555" text-anchor="middle">03-12</text>
<text x="1322.65" y="720" font-size="11" fill="#555555" text-anchor="middle">23:00</text>
<line x1="725.00" y1="70.00" x2="805.00" y2="90.00" stroke="#f1c40f" stroke-width="2"/>
<rect x="805.00" y="42.00" width="220" height="72" rx="8" fill="#fff8dc" stroke="#f1c40f"/>
<text x="815.00" y="66.00" font-size="12" fill="#111111">目标K线 2026-03-12 15:00</text>
<text x="815.00" y="84.00" font-size="12" fill="#111111">振幅 17.31%</text>
<text x="815.00" y="102.00" font-size="12" fill="#111111">倍数 9.71x</text>
<line x1="650.29" y1="477.55" x2="620.29" y2="437.55" stroke="#3498db" stroke-width="2"/>
<rect x="400.29" y="401.55" width="220" height="58" rx="8" fill="#eef6ff" stroke="#3498db"/>
<text x="410.29" y="423.55" font-size="12" fill="#111111">前一根涨幅 1.01%</text>
<text x="410.29" y="441.55" font-size="12" fill="#111111">前一根振幅 1.78%</text>
</svg>