<svg xmlns="http://www.w3.org/2000/svg" width="1400" height="760" viewBox="0 0 1400 760">
<rect width="100%" height="100%" fill="#fcfcfc"/>
<text x="90" y="36" font-size="26" font-weight="700" fill="#111111">TLM_USDT 1H - 9倍命中</text>
<line x1="90" y1="70.00" x2="1360" y2="70.00" stroke="#d9d9d9" stroke-dasharray="4 4" stroke-width="1"/>
<text x="12" y="74.00" font-size="12" fill="#555555">0.002401</text>
<line x1="90" y1="186.00" x2="1360" y2="186.00" stroke="#d9d9d9" stroke-dasharray="4 4" stroke-width="1"/>
<text x="12" y="190.00" font-size="12" fill="#555555">0.002315</text>
<line x1="90" y1="302.00" x2="1360" y2="302.00" stroke="#d9d9d9" stroke-dasharray="4 4" stroke-width="1"/>
<text x="12" y="306.00" font-size="12" fill="#555555">0.002230</text>
<line x1="90" y1="418.00" x2="1360" y2="418.00" stroke="#d9d9d9" stroke-dasharray="4 4" stroke-width="1"/>
<text x="12" y="422.00" font-size="12" fill="#555555">0.002144</text>
<line x1="90" y1="534.00" x2="1360" y2="534.00" stroke="#d9d9d9" stroke-dasharray="4 4" stroke-width="1"/>
<text x="12" y="538.00" font-size="12" fill="#555555">0.002059</text>
<line x1="90" y1="650.00" x2="1360" y2="650.00" stroke="#d9d9d9" stroke-dasharray="4 4" stroke-width="1"/>
<text x="12" y="654.00" font-size="12" fill="#555555">0.001973</text>
<rect x="687.65" y="70" width="74.71" height="580.00" fill="#f1c40f" opacity="0.16"/>
<rect x="612.94" y="70" width="74.71" height="580.00" fill="#3498db" opacity="0.10"/>
<line x1="127.35" y1="515.84" x2="127.35" y2="548.36" stroke="#2ecc71" stroke-width="2"/>
<rect x="105.69" y="515.84" width="43.33" height="32.52" fill="#2ecc71" stroke="#2ecc71" stroke-width="1"/>
<text x="127.35" y="704" font-size="11" fill="#555555" text-anchor="middle">01-29</text>
<text x="127.35" y="720" font-size="11" fill="#555555" text-anchor="middle">21:00</text>
<line x1="202.06" y1="507.71" x2="202.06" y2="571.40" stroke="#e74c3c" stroke-width="2"/>
<rect x="180.39" y="514.49" width="43.33" height="56.92" fill="#e74c3c" stroke="#e74c3c" stroke-width="1"/>
<text x="202.06" y="704" font-size="11" fill="#555555" text-anchor="middle">01-29</text>
<text x="202.06" y="720" font-size="11" fill="#555555" text-anchor="middle">22:00</text>
<line x1="276.76" y1="560.56" x2="276.76" y2="650.00" stroke="#2ecc71" stroke-width="2"/>
<rect x="255.10" y="565.98" width="43.33" height="6.78" fill="#2ecc71" stroke="#2ecc71" stroke-width="1"/>
<text x="276.76" y="704" font-size="11" fill="#555555" text-anchor="middle">01-29</text>
<text x="276.76" y="720" font-size="11" fill="#555555" text-anchor="middle">23:00</text>
<line x1="351.47" y1="525.33" x2="351.47" y2="584.95" stroke="#2ecc71" stroke-width="2"/>
<rect x="329.81" y="525.33" width="43.33" height="37.94" fill="#2ecc71" stroke="#2ecc71" stroke-width="1"/>
<text x="351.47" y="704" font-size="11" fill="#555555" text-anchor="middle">01-30</text>
<text x="351.47" y="720" font-size="11" fill="#555555" text-anchor="middle">00:00</text>
<line x1="426.18" y1="500.93" x2="426.18" y2="578.18" stroke="#e74c3c" stroke-width="2"/>
<rect x="404.51" y="526.68" width="43.33" height="32.52" fill="#e74c3c" stroke="#e74c3c" stroke-width="1"/>
<text x="426.18" y="704" font-size="11" fill="#555555" text-anchor="middle">01-30</text>
<text x="426.18" y="720" font-size="11" fill="#555555" text-anchor="middle">01:00</text>
<line x1="500.88" y1="547.01" x2="500.88" y2="578.18" stroke="#e74c3c" stroke-width="2"/>
<rect x="479.22" y="559.21" width="43.33" height="18.97" fill="#e74c3c" stroke="#e74c3c" stroke-width="1"/>
<text x="500.88" y="704" font-size="11" fill="#555555" text-anchor="middle">01-30</text>
<text x="500.88" y="720" font-size="11" fill="#555555" text-anchor="middle">02:00</text>
<line x1="575.59" y1="526.68" x2="575.59" y2="578.18" stroke="#2ecc71" stroke-width="2"/>
<rect x="553.92" y="541.59" width="43.33" height="36.59" fill="#2ecc71" stroke="#2ecc71" stroke-width="1"/>
<text x="575.59" y="704" font-size="11" fill="#555555" text-anchor="middle">01-30</text>
<text x="575.59" y="720" font-size="11" fill="#555555" text-anchor="middle">03:00</text>
<line x1="650.29" y1="499.58" x2="650.29" y2="547.01" stroke="#2ecc71" stroke-width="2"/>
<rect x="628.63" y="514.49" width="43.33" height="29.81" fill="#2ecc71" stroke="#2ecc71" stroke-width="1"/>
<text x="650.29" y="704" font-size="11" fill="#555555" text-anchor="middle">01-30</text>
<text x="650.29" y="720" font-size="11" fill="#555555" text-anchor="middle">04:00</text>
<line x1="725.00" y1="70.00" x2="725.00" y2="514.49" stroke="#2ecc71" stroke-width="2"/>
<rect x="703.34" y="152.66" width="43.33" height="361.82" fill="#2ecc71" stroke="#2ecc71" stroke-width="1"/>
<text x="725.00" y="704" font-size="11" fill="#555555" text-anchor="middle">01-30</text>
<text x="725.00" y="720" font-size="11" fill="#555555" text-anchor="middle">05:00</text>
<line x1="799.71" y1="103.88" x2="799.71" y2="381.68" stroke="#e74c3c" stroke-width="2"/>
<rect x="778.04" y="163.50" width="43.33" height="192.43" fill="#e74c3c" stroke="#e74c3c" stroke-width="1"/>
<text x="799.71" y="704" font-size="11" fill="#555555" text-anchor="middle">01-30</text>
<text x="799.71" y="720" font-size="11" fill="#555555" text-anchor="middle">06:00</text>
<line x1="874.41" y1="320.70" x2="874.41" y2="435.89" stroke="#e74c3c" stroke-width="2"/>
<rect x="852.75" y="362.71" width="43.33" height="29.81" fill="#e74c3c" stroke="#e74c3c" stroke-width="1"/>
<text x="874.41" y="704" font-size="11" fill="#555555" text-anchor="middle">01-30</text>
<text x="874.41" y="720" font-size="11" fill="#555555" text-anchor="middle">07:00</text>
<line x1="949.12" y1="282.76" x2="949.12" y2="414.21" stroke="#2ecc71" stroke-width="2"/>
<rect x="927.45" y="282.76" width="43.33" height="107.06" fill="#2ecc71" stroke="#2ecc71" stroke-width="1"/>
<text x="949.12" y="704" font-size="11" fill="#555555" text-anchor="middle">01-30</text>
<text x="949.12" y="720" font-size="11" fill="#555555" text-anchor="middle">08:00</text>
<line x1="1023.82" y1="70.00" x2="1023.82" y2="364.07" stroke="#2ecc71" stroke-width="2"/>
<rect x="1002.16" y="223.13" width="43.33" height="65.05" fill="#2ecc71" stroke="#2ecc71" stroke-width="1"/>
<text x="1023.82" y="704" font-size="11" fill="#555555" text-anchor="middle">01-30</text>
<text x="1023.82" y="720" font-size="11" fill="#555555" text-anchor="middle">09:00</text>
<line x1="1098.53" y1="154.02" x2="1098.53" y2="292.24" stroke="#2ecc71" stroke-width="2"/>
<rect x="1076.86" y="206.87" width="43.33" height="17.62" fill="#2ecc71" stroke="#2ecc71" stroke-width="1"/>
<text x="1098.53" y="704" font-size="11" fill="#555555" text-anchor="middle">01-30</text>
<text x="1098.53" y="720" font-size="11" fill="#555555" text-anchor="middle">10:00</text>
<line x1="1173.24" y1="160.79" x2="1173.24" y2="281.40" stroke="#2ecc71" stroke-width="2"/>
<rect x="1151.57" y="187.90" width="43.33" height="21.68" fill="#2ecc71" stroke="#2ecc71" stroke-width="1"/>
<text x="1173.24" y="704" font-size="11" fill="#555555" text-anchor="middle">01-30</text>
<text x="1173.24" y="720" font-size="11" fill="#555555" text-anchor="middle">11:00</text>
<line x1="1247.94" y1="171.64" x2="1247.94" y2="304.44" stroke="#e74c3c" stroke-width="2"/>
<rect x="1226.28" y="191.96" width="43.33" height="112.48" fill="#e74c3c" stroke="#e74c3c" stroke-width="1"/>
<text x="1247.94" y="704" font-size="11" fill="#555555" text-anchor="middle">01-30</text>
<text x="1247.94" y="720" font-size="11" fill="#555555" text-anchor="middle">12:00</text>
<line x1="1322.65" y1="278.69" x2="1322.65" y2="395.23" stroke="#e74c3c" stroke-width="2"/>
<rect x="1300.98" y="300.37" width="43.33" height="90.79" fill="#e74c3c" stroke="#e74c3c" stroke-width="1"/>
<text x="1322.65" y="704" font-size="11" fill="#555555" text-anchor="middle">01-30</text>
<text x="1322.65" y="720" font-size="11" fill="#555555" text-anchor="middle">13:00</text>
<line x1="725.00" y1="70.00" x2="805.00" y2="90.00" stroke="#f1c40f" stroke-width="2"/>
<rect x="805.00" y="42.00" width="220" height="72" rx="8" fill="#fff8dc" stroke="#f1c40f"/>
<text x="815.00" y="66.00" font-size="12" fill="#111111">目标K线 2026-01-30 05:00</text>
<text x="815.00" y="84.00" font-size="12" fill="#111111">振幅 15.82%</text>
<text x="815.00" y="102.00" font-size="12" fill="#111111">倍数 9.27x</text>
<line x1="650.29" y1="499.58" x2="620.29" y2="459.58" stroke="#3498db" stroke-width="2"/>
<rect x="400.29" y="423.58" width="220" height="58" rx="8" fill="#eef6ff" stroke="#3498db"/>
<text x="410.29" y="445.58" font-size="12" fill="#111111">前一根涨幅 1.07%</text>
<text x="410.29" y="463.58" font-size="12" fill="#111111">前一根振幅 1.71%</text>
</svg>