<svg xmlns="http://www.w3.org/2000/svg" width="1400" height="760" viewBox="0 0 1400 760">
<rect width="100%" height="100%" fill="#fcfcfc"/>
<text x="90" y="36" font-size="26" font-weight="700" fill="#111111">TNSR_USDT 1H - 9倍命中</text>
<line x1="90" y1="70.00" x2="1360" y2="70.00" stroke="#d9d9d9" stroke-dasharray="4 4" stroke-width="1"/>
<text x="12" y="74.00" font-size="12" fill="#555555">0.067200</text>
<line x1="90" y1="186.00" x2="1360" y2="186.00" stroke="#d9d9d9" stroke-dasharray="4 4" stroke-width="1"/>
<text x="12" y="190.00" font-size="12" fill="#555555">0.062080</text>
<line x1="90" y1="302.00" x2="1360" y2="302.00" stroke="#d9d9d9" stroke-dasharray="4 4" stroke-width="1"/>
<text x="12" y="306.00" font-size="12" fill="#555555">0.056960</text>
<line x1="90" y1="418.00" x2="1360" y2="418.00" stroke="#d9d9d9" stroke-dasharray="4 4" stroke-width="1"/>
<text x="12" y="422.00" font-size="12" fill="#555555">0.051840</text>
<line x1="90" y1="534.00" x2="1360" y2="534.00" stroke="#d9d9d9" stroke-dasharray="4 4" stroke-width="1"/>
<text x="12" y="538.00" font-size="12" fill="#555555">0.046720</text>
<line x1="90" y1="650.00" x2="1360" y2="650.00" stroke="#d9d9d9" stroke-dasharray="4 4" stroke-width="1"/>
<text x="12" y="654.00" font-size="12" fill="#555555">0.041600</text>
<rect x="687.65" y="70" width="74.71" height="580.00" fill="#f1c40f" opacity="0.16"/>
<rect x="612.94" y="70" width="74.71" height="580.00" fill="#3498db" opacity="0.10"/>
<line x1="127.35" y1="627.34" x2="127.35" y2="650.00" stroke="#2ecc71" stroke-width="2"/>
<rect x="105.69" y="627.34" width="43.33" height="18.12" fill="#2ecc71" stroke="#2ecc71" stroke-width="1"/>
<text x="127.35" y="704" font-size="11" fill="#555555" text-anchor="middle">02-11</text>
<text x="127.35" y="720" font-size="11" fill="#555555" text-anchor="middle">21:00</text>
<line x1="202.06" y1="600.16" x2="202.06" y2="629.61" stroke="#e74c3c" stroke-width="2"/>
<rect x="180.39" y="620.55" width="43.33" height="6.80" fill="#e74c3c" stroke="#e74c3c" stroke-width="1"/>
<text x="202.06" y="704" font-size="11" fill="#555555" text-anchor="middle">02-11</text>
<text x="202.06" y="720" font-size="11" fill="#555555" text-anchor="middle">22:00</text>
<line x1="276.76" y1="625.08" x2="276.76" y2="643.20" stroke="#e74c3c" stroke-width="2"/>
<rect x="255.10" y="629.61" width="43.33" height="4.53" fill="#e74c3c" stroke="#e74c3c" stroke-width="1"/>
<text x="276.76" y="704" font-size="11" fill="#555555" text-anchor="middle">02-11</text>
<text x="276.76" y="720" font-size="11" fill="#555555" text-anchor="middle">23:00</text>
<line x1="351.47" y1="620.55" x2="351.47" y2="638.67" stroke="#e74c3c" stroke-width="2"/>
<rect x="329.81" y="631.88" width="43.33" height="4.53" fill="#e74c3c" stroke="#e74c3c" stroke-width="1"/>
<text x="351.47" y="704" font-size="11" fill="#555555" text-anchor="middle">02-12</text>
<text x="351.47" y="720" font-size="11" fill="#555555" text-anchor="middle">00:00</text>
<line x1="426.18" y1="618.28" x2="426.18" y2="640.94" stroke="#2ecc71" stroke-width="2"/>
<rect x="404.51" y="620.55" width="43.33" height="20.39" fill="#2ecc71" stroke="#2ecc71" stroke-width="1"/>
<text x="426.18" y="704" font-size="11" fill="#555555" text-anchor="middle">02-12</text>
<text x="426.18" y="720" font-size="11" fill="#555555" text-anchor="middle">01:00</text>
<line x1="500.88" y1="597.89" x2="500.88" y2="629.61" stroke="#2ecc71" stroke-width="2"/>
<rect x="479.22" y="600.16" width="43.33" height="24.92" fill="#2ecc71" stroke="#2ecc71" stroke-width="1"/>
<text x="500.88" y="704" font-size="11" fill="#555555" text-anchor="middle">02-12</text>
<text x="500.88" y="720" font-size="11" fill="#555555" text-anchor="middle">02:00</text>
<line x1="575.59" y1="597.89" x2="575.59" y2="620.55" stroke="#e74c3c" stroke-width="2"/>
<rect x="553.92" y="597.89" width="43.33" height="20.39" fill="#e74c3c" stroke="#e74c3c" stroke-width="1"/>
<text x="575.59" y="704" font-size="11" fill="#555555" text-anchor="middle">02-12</text>
<text x="575.59" y="720" font-size="11" fill="#555555" text-anchor="middle">03:00</text>
<line x1="650.29" y1="593.36" x2="650.29" y2="622.81" stroke="#2ecc71" stroke-width="2"/>
<rect x="628.63" y="600.16" width="43.33" height="18.12" fill="#2ecc71" stroke="#2ecc71" stroke-width="1"/>
<text x="650.29" y="704" font-size="11" fill="#555555" text-anchor="middle">02-12</text>
<text x="650.29" y="720" font-size="11" fill="#555555" text-anchor="middle">04:00</text>
<line x1="725.00" y1="310.16" x2="725.00" y2="600.16" stroke="#2ecc71" stroke-width="2"/>
<rect x="703.34" y="373.59" width="43.33" height="226.56" fill="#2ecc71" stroke="#2ecc71" stroke-width="1"/>
<text x="725.00" y="704" font-size="11" fill="#555555" text-anchor="middle">02-12</text>
<text x="725.00" y="720" font-size="11" fill="#555555" text-anchor="middle">05:00</text>
<line x1="799.71" y1="70.00" x2="799.71" y2="405.31" stroke="#2ecc71" stroke-width="2"/>
<rect x="778.04" y="328.28" width="43.33" height="45.31" fill="#2ecc71" stroke="#2ecc71" stroke-width="1"/>
<text x="799.71" y="704" font-size="11" fill="#555555" text-anchor="middle">02-12</text>
<text x="799.71" y="720" font-size="11" fill="#555555" text-anchor="middle">06:00</text>
<line x1="874.41" y1="314.69" x2="874.41" y2="412.11" stroke="#e74c3c" stroke-width="2"/>
<rect x="852.75" y="328.28" width="43.33" height="79.30" fill="#e74c3c" stroke="#e74c3c" stroke-width="1"/>
<text x="874.41" y="704" font-size="11" fill="#555555" text-anchor="middle">02-12</text>
<text x="874.41" y="720" font-size="11" fill="#555555" text-anchor="middle">07:00</text>
<line x1="949.12" y1="348.67" x2="949.12" y2="432.50" stroke="#2ecc71" stroke-width="2"/>
<rect x="927.45" y="378.12" width="43.33" height="31.72" fill="#2ecc71" stroke="#2ecc71" stroke-width="1"/>
<text x="949.12" y="704" font-size="11" fill="#555555" text-anchor="middle">02-12</text>
<text x="949.12" y="720" font-size="11" fill="#555555" text-anchor="middle">08:00</text>
<line x1="1023.82" y1="330.55" x2="1023.82" y2="412.11" stroke="#2ecc71" stroke-width="2"/>
<rect x="1002.16" y="378.12" width="43.33" height="1.20" fill="#2ecc71" stroke="#2ecc71" stroke-width="1"/>
<text x="1023.82" y="704" font-size="11" fill="#555555" text-anchor="middle">02-12</text>
<text x="1023.82" y="720" font-size="11" fill="#555555" text-anchor="middle">09:00</text>
<line x1="1098.53" y1="339.61" x2="1098.53" y2="400.78" stroke="#2ecc71" stroke-width="2"/>
<rect x="1076.86" y="362.27" width="43.33" height="13.59" fill="#2ecc71" stroke="#2ecc71" stroke-width="1"/>
<text x="1098.53" y="704" font-size="11" fill="#555555" text-anchor="middle">02-12</text>
<text x="1098.53" y="720" font-size="11" fill="#555555" text-anchor="middle">10:00</text>
<line x1="1173.24" y1="341.87" x2="1173.24" y2="398.52" stroke="#e74c3c" stroke-width="2"/>
<rect x="1151.57" y="360.00" width="43.33" height="15.86" fill="#e74c3c" stroke="#e74c3c" stroke-width="1"/>
<text x="1173.24" y="704" font-size="11" fill="#555555" text-anchor="middle">02-12</text>
<text x="1173.24" y="720" font-size="11" fill="#555555" text-anchor="middle">11:00</text>
<line x1="1247.94" y1="262.58" x2="1247.94" y2="378.12" stroke="#2ecc71" stroke-width="2"/>
<rect x="1226.28" y="346.41" width="43.33" height="31.72" fill="#2ecc71" stroke="#2ecc71" stroke-width="1"/>
<text x="1247.94" y="704" font-size="11" fill="#555555" text-anchor="middle">02-12</text>
<text x="1247.94" y="720" font-size="11" fill="#555555" text-anchor="middle">12:00</text>
<line x1="1322.65" y1="167.42" x2="1322.65" y2="369.06" stroke="#2ecc71" stroke-width="2"/>
<rect x="1300.98" y="237.66" width="43.33" height="108.75" fill="#2ecc71" stroke="#2ecc71" stroke-width="1"/>
<text x="1322.65" y="704" font-size="11" fill="#555555" text-anchor="middle">02-12</text>
<text x="1322.65" y="720" font-size="11" fill="#555555" text-anchor="middle">13:00</text>
<line x1="725.00" y1="310.16" x2="805.00" y2="240.16" stroke="#f1c40f" stroke-width="2"/>
<rect x="805.00" y="192.16" width="220" height="72" rx="8" fill="#fff8dc" stroke="#f1c40f"/>
<text x="815.00" y="216.16" font-size="12" fill="#111111">目标K线 2026-02-12 05:00</text>
<text x="815.00" y="234.16" font-size="12" fill="#111111">振幅 29.22%</text>
<text x="815.00" y="252.16" font-size="12" fill="#111111">倍数 9.67x</text>
<line x1="650.29" y1="593.36" x2="620.29" y2="553.36" stroke="#3498db" stroke-width="2"/>
<rect x="400.29" y="517.36" width="220" height="58" rx="8" fill="#eef6ff" stroke="#3498db"/>
<text x="410.29" y="539.36" font-size="12" fill="#111111">前一根涨幅 1.86%</text>
<text x="410.29" y="557.36" font-size="12" fill="#111111">前一根振幅 3.02%</text>
</svg>