<svg xmlns="http://www.w3.org/2000/svg" width="1400" height="760" viewBox="0 0 1400 760">
<rect width="100%" height="100%" fill="#fcfcfc"/>
<text x="90" y="36" font-size="26" font-weight="700" fill="#111111">TRADOOR_USDT 1H - 9倍命中</text>
<line x1="90" y1="70.00" x2="1360" y2="70.00" stroke="#d9d9d9" stroke-dasharray="4 4" stroke-width="1"/>
<text x="12" y="74.00" font-size="12" fill="#555555">1.730000</text>
<line x1="90" y1="186.00" x2="1360" y2="186.00" stroke="#d9d9d9" stroke-dasharray="4 4" stroke-width="1"/>
<text x="12" y="190.00" font-size="12" fill="#555555">1.648600</text>
<line x1="90" y1="302.00" x2="1360" y2="302.00" stroke="#d9d9d9" stroke-dasharray="4 4" stroke-width="1"/>
<text x="12" y="306.00" font-size="12" fill="#555555">1.567200</text>
<line x1="90" y1="418.00" x2="1360" y2="418.00" stroke="#d9d9d9" stroke-dasharray="4 4" stroke-width="1"/>
<text x="12" y="422.00" font-size="12" fill="#555555">1.485800</text>
<line x1="90" y1="534.00" x2="1360" y2="534.00" stroke="#d9d9d9" stroke-dasharray="4 4" stroke-width="1"/>
<text x="12" y="538.00" font-size="12" fill="#555555">1.404400</text>
<line x1="90" y1="650.00" x2="1360" y2="650.00" stroke="#d9d9d9" stroke-dasharray="4 4" stroke-width="1"/>
<text x="12" y="654.00" font-size="12" fill="#555555">1.323000</text>
<rect x="687.65" y="70" width="74.71" height="580.00" fill="#f1c40f" opacity="0.16"/>
<rect x="612.94" y="70" width="74.71" height="580.00" fill="#3498db" opacity="0.10"/>
<line x1="127.35" y1="433.39" x2="127.35" y2="561.65" stroke="#e74c3c" stroke-width="2"/>
<rect x="105.69" y="526.02" width="43.33" height="19.95" fill="#e74c3c" stroke="#e74c3c" stroke-width="1"/>
<text x="127.35" y="704" font-size="11" fill="#555555" text-anchor="middle">12-05</text>
<text x="127.35" y="720" font-size="11" fill="#555555" text-anchor="middle">12:00</text>
<line x1="202.06" y1="524.59" x2="202.06" y2="573.05" stroke="#2ecc71" stroke-width="2"/>
<rect x="180.39" y="541.70" width="43.33" height="5.70" fill="#2ecc71" stroke="#2ecc71" stroke-width="1"/>
<text x="202.06" y="704" font-size="11" fill="#555555" text-anchor="middle">12-05</text>
<text x="202.06" y="720" font-size="11" fill="#555555" text-anchor="middle">13:00</text>
<line x1="276.76" y1="544.55" x2="276.76" y2="597.27" stroke="#e74c3c" stroke-width="2"/>
<rect x="255.10" y="544.55" width="43.33" height="39.90" fill="#e74c3c" stroke="#e74c3c" stroke-width="1"/>
<text x="276.76" y="704" font-size="11" fill="#555555" text-anchor="middle">12-05</text>
<text x="276.76" y="720" font-size="11" fill="#555555" text-anchor="middle">14:00</text>
<line x1="351.47" y1="555.95" x2="351.47" y2="600.12" stroke="#e74c3c" stroke-width="2"/>
<rect x="329.81" y="571.62" width="43.33" height="25.65" fill="#e74c3c" stroke="#e74c3c" stroke-width="1"/>
<text x="351.47" y="704" font-size="11" fill="#555555" text-anchor="middle">12-05</text>
<text x="351.47" y="720" font-size="11" fill="#555555" text-anchor="middle">15:00</text>
<line x1="426.18" y1="577.32" x2="426.18" y2="614.37" stroke="#e74c3c" stroke-width="2"/>
<rect x="404.51" y="595.85" width="43.33" height="7.13" fill="#e74c3c" stroke="#e74c3c" stroke-width="1"/>
<text x="426.18" y="704" font-size="11" fill="#555555" text-anchor="middle">12-05</text>
<text x="426.18" y="720" font-size="11" fill="#555555" text-anchor="middle">16:00</text>
<line x1="500.88" y1="585.87" x2="500.88" y2="650.00" stroke="#e74c3c" stroke-width="2"/>
<rect x="479.22" y="605.82" width="43.33" height="12.83" fill="#e74c3c" stroke="#e74c3c" stroke-width="1"/>
<text x="500.88" y="704" font-size="11" fill="#555555" text-anchor="middle">12-05</text>
<text x="500.88" y="720" font-size="11" fill="#555555" text-anchor="middle">17:00</text>
<line x1="575.59" y1="531.72" x2="575.59" y2="620.07" stroke="#2ecc71" stroke-width="2"/>
<rect x="553.92" y="573.05" width="43.33" height="41.33" fill="#2ecc71" stroke="#2ecc71" stroke-width="1"/>
<text x="575.59" y="704" font-size="11" fill="#555555" text-anchor="middle">12-05</text>
<text x="575.59" y="720" font-size="11" fill="#555555" text-anchor="middle">18:00</text>
<line x1="650.29" y1="543.12" x2="650.29" y2="588.72" stroke="#2ecc71" stroke-width="2"/>
<rect x="628.63" y="544.55" width="43.33" height="24.23" fill="#2ecc71" stroke="#2ecc71" stroke-width="1"/>
<text x="650.29" y="704" font-size="11" fill="#555555" text-anchor="middle">12-05</text>
<text x="650.29" y="720" font-size="11" fill="#555555" text-anchor="middle">19:00</text>
<line x1="725.00" y1="104.20" x2="725.00" y2="545.97" stroke="#2ecc71" stroke-width="2"/>
<rect x="703.34" y="131.28" width="43.33" height="413.27" fill="#2ecc71" stroke="#2ecc71" stroke-width="1"/>
<text x="725.00" y="704" font-size="11" fill="#555555" text-anchor="middle">12-05</text>
<text x="725.00" y="720" font-size="11" fill="#555555" text-anchor="middle">20:00</text>
<line x1="799.71" y1="70.00" x2="799.71" y2="453.34" stroke="#e74c3c" stroke-width="2"/>
<rect x="778.04" y="131.28" width="43.33" height="196.66" fill="#e74c3c" stroke="#e74c3c" stroke-width="1"/>
<text x="799.71" y="704" font-size="11" fill="#555555" text-anchor="middle">12-05</text>
<text x="799.71" y="720" font-size="11" fill="#555555" text-anchor="middle">21:00</text>
<line x1="874.41" y1="322.24" x2="874.41" y2="441.94" stroke="#e74c3c" stroke-width="2"/>
<rect x="852.75" y="327.94" width="43.33" height="52.73" fill="#e74c3c" stroke="#e74c3c" stroke-width="1"/>
<text x="874.41" y="704" font-size="11" fill="#555555" text-anchor="middle">12-05</text>
<text x="874.41" y="720" font-size="11" fill="#555555" text-anchor="middle">22:00</text>
<line x1="949.12" y1="379.24" x2="949.12" y2="517.47" stroke="#e74c3c" stroke-width="2"/>
<rect x="927.45" y="382.09" width="43.33" height="121.13" fill="#e74c3c" stroke="#e74c3c" stroke-width="1"/>
<text x="949.12" y="704" font-size="11" fill="#555555" text-anchor="middle">12-05</text>
<text x="949.12" y="720" font-size="11" fill="#555555" text-anchor="middle">23:00</text>
<line x1="1023.82" y1="453.34" x2="1023.82" y2="571.62" stroke="#2ecc71" stroke-width="2"/>
<rect x="1002.16" y="467.59" width="43.33" height="35.63" fill="#2ecc71" stroke="#2ecc71" stroke-width="1"/>
<text x="1023.82" y="704" font-size="11" fill="#555555" text-anchor="middle">12-06</text>
<text x="1023.82" y="720" font-size="11" fill="#555555" text-anchor="middle">00:00</text>
<line x1="1098.53" y1="333.64" x2="1098.53" y2="480.42" stroke="#2ecc71" stroke-width="2"/>
<rect x="1076.86" y="363.56" width="43.33" height="105.45" fill="#2ecc71" stroke="#2ecc71" stroke-width="1"/>
<text x="1098.53" y="704" font-size="11" fill="#555555" text-anchor="middle">12-06</text>
<text x="1098.53" y="720" font-size="11" fill="#555555" text-anchor="middle">01:00</text>
<line x1="1173.24" y1="340.76" x2="1173.24" y2="503.22" stroke="#e74c3c" stroke-width="2"/>
<rect x="1151.57" y="362.14" width="43.33" height="121.13" fill="#e74c3c" stroke="#e74c3c" stroke-width="1"/>
<text x="1173.24" y="704" font-size="11" fill="#555555" text-anchor="middle">12-06</text>
<text x="1173.24" y="720" font-size="11" fill="#555555" text-anchor="middle">02:00</text>
<line x1="1247.94" y1="436.24" x2="1247.94" y2="510.34" stroke="#2ecc71" stroke-width="2"/>
<rect x="1226.28" y="476.14" width="43.33" height="9.98" fill="#2ecc71" stroke="#2ecc71" stroke-width="1"/>
<text x="1247.94" y="704" font-size="11" fill="#555555" text-anchor="middle">12-06</text>
<text x="1247.94" y="720" font-size="11" fill="#555555" text-anchor="middle">03:00</text>
<line x1="1322.65" y1="473.29" x2="1322.65" y2="530.29" stroke="#e74c3c" stroke-width="2"/>
<rect x="1300.98" y="477.57" width="43.33" height="32.78" fill="#e74c3c" stroke="#e74c3c" stroke-width="1"/>
<text x="1322.65" y="704" font-size="11" fill="#555555" text-anchor="middle">12-06</text>
<text x="1322.65" y="720" font-size="11" fill="#555555" text-anchor="middle">04:00</text>
<line x1="725.00" y1="104.20" x2="805.00" y2="90.00" stroke="#f1c40f" stroke-width="2"/>
<rect x="805.00" y="42.00" width="220" height="72" rx="8" fill="#fff8dc" stroke="#f1c40f"/>
<text x="815.00" y="66.00" font-size="12" fill="#111111">目标K线 2025-12-05 20:00</text>
<text x="815.00" y="84.00" font-size="12" fill="#111111">振幅 22.19%</text>
<text x="815.00" y="102.00" font-size="12" fill="#111111">倍数 9.57x</text>
<line x1="650.29" y1="543.12" x2="620.29" y2="503.12" stroke="#3498db" stroke-width="2"/>
<rect x="400.29" y="467.12" width="220" height="58" rx="8" fill="#eef6ff" stroke="#3498db"/>
<text x="410.29" y="489.12" font-size="12" fill="#111111">前一根涨幅 1.23%</text>
<text x="410.29" y="507.12" font-size="12" fill="#111111">前一根振幅 2.32%</text>
</svg>