<svg xmlns="http://www.w3.org/2000/svg" width="1400" height="760" viewBox="0 0 1400 760">
<rect width="100%" height="100%" fill="#fcfcfc"/>
<text x="90" y="36" font-size="26" font-weight="700" fill="#111111">TRU_USDT 1H - 9倍命中</text>
<line x1="90" y1="70.00" x2="1360" y2="70.00" stroke="#d9d9d9" stroke-dasharray="4 4" stroke-width="1"/>
<text x="12" y="74.00" font-size="12" fill="#555555">0.012970</text>
<line x1="90" y1="186.00" x2="1360" y2="186.00" stroke="#d9d9d9" stroke-dasharray="4 4" stroke-width="1"/>
<text x="12" y="190.00" font-size="12" fill="#555555">0.011413</text>
<line x1="90" y1="302.00" x2="1360" y2="302.00" stroke="#d9d9d9" stroke-dasharray="4 4" stroke-width="1"/>
<text x="12" y="306.00" font-size="12" fill="#555555">0.009856</text>
<line x1="90" y1="418.00" x2="1360" y2="418.00" stroke="#d9d9d9" stroke-dasharray="4 4" stroke-width="1"/>
<text x="12" y="422.00" font-size="12" fill="#555555">0.008299</text>
<line x1="90" y1="534.00" x2="1360" y2="534.00" stroke="#d9d9d9" stroke-dasharray="4 4" stroke-width="1"/>
<text x="12" y="538.00" font-size="12" fill="#555555">0.006742</text>
<line x1="90" y1="650.00" x2="1360" y2="650.00" stroke="#d9d9d9" stroke-dasharray="4 4" stroke-width="1"/>
<text x="12" y="654.00" font-size="12" fill="#555555">0.005185</text>
<rect x="687.65" y="70" width="74.71" height="580.00" fill="#f1c40f" opacity="0.16"/>
<rect x="612.94" y="70" width="74.71" height="580.00" fill="#3498db" opacity="0.10"/>
<line x1="127.35" y1="630.33" x2="127.35" y2="646.65" stroke="#e74c3c" stroke-width="2"/>
<rect x="105.69" y="633.09" width="43.33" height="1.94" fill="#e74c3c" stroke="#e74c3c" stroke-width="1"/>
<text x="127.35" y="704" font-size="11" fill="#555555" text-anchor="middle">04-06</text>
<text x="127.35" y="720" font-size="11" fill="#555555" text-anchor="middle">05:00</text>
<line x1="202.06" y1="627.50" x2="202.06" y2="650.00" stroke="#2ecc71" stroke-width="2"/>
<rect x="180.39" y="635.92" width="43.33" height="1.20" fill="#2ecc71" stroke="#2ecc71" stroke-width="1"/>
<text x="202.06" y="704" font-size="11" fill="#555555" text-anchor="middle">04-06</text>
<text x="202.06" y="720" font-size="11" fill="#555555" text-anchor="middle">06:00</text>
<line x1="276.76" y1="611.48" x2="276.76" y2="640.69" stroke="#2ecc71" stroke-width="2"/>
<rect x="255.10" y="614.39" width="43.33" height="22.20" fill="#2ecc71" stroke="#2ecc71" stroke-width="1"/>
<text x="276.76" y="704" font-size="11" fill="#555555" text-anchor="middle">04-06</text>
<text x="276.76" y="720" font-size="11" fill="#555555" text-anchor="middle">07:00</text>
<line x1="351.47" y1="594.42" x2="351.47" y2="624.74" stroke="#e74c3c" stroke-width="2"/>
<rect x="329.81" y="615.13" width="43.33" height="3.35" fill="#e74c3c" stroke="#e74c3c" stroke-width="1"/>
<text x="351.47" y="704" font-size="11" fill="#555555" text-anchor="middle">04-06</text>
<text x="351.47" y="720" font-size="11" fill="#555555" text-anchor="middle">08:00</text>
<line x1="426.18" y1="574.01" x2="426.18" y2="625.34" stroke="#2ecc71" stroke-width="2"/>
<rect x="404.51" y="603.81" width="43.33" height="14.97" fill="#2ecc71" stroke="#2ecc71" stroke-width="1"/>
<text x="426.18" y="704" font-size="11" fill="#555555" text-anchor="middle">04-06</text>
<text x="426.18" y="720" font-size="11" fill="#555555" text-anchor="middle">09:00</text>
<line x1="500.88" y1="601.05" x2="500.88" y2="623.25" stroke="#e74c3c" stroke-width="2"/>
<rect x="479.22" y="603.81" width="43.33" height="2.76" fill="#e74c3c" stroke="#e74c3c" stroke-width="1"/>
<text x="500.88" y="704" font-size="11" fill="#555555" text-anchor="middle">04-06</text>
<text x="500.88" y="720" font-size="11" fill="#555555" text-anchor="middle">10:00</text>
<line x1="575.59" y1="595.84" x2="575.59" y2="619.83" stroke="#e74c3c" stroke-width="2"/>
<rect x="553.92" y="607.16" width="43.33" height="9.39" fill="#e74c3c" stroke="#e74c3c" stroke-width="1"/>
<text x="575.59" y="704" font-size="11" fill="#555555" text-anchor="middle">04-06</text>
<text x="575.59" y="720" font-size="11" fill="#555555" text-anchor="middle">11:00</text>
<line x1="650.29" y1="610.44" x2="650.29" y2="624.15" stroke="#2ecc71" stroke-width="2"/>
<rect x="628.63" y="611.04" width="43.33" height="5.81" fill="#2ecc71" stroke="#2ecc71" stroke-width="1"/>
<text x="650.29" y="704" font-size="11" fill="#555555" text-anchor="middle">04-06</text>
<text x="650.29" y="720" font-size="11" fill="#555555" text-anchor="middle">12:00</text>
<line x1="725.00" y1="477.01" x2="725.00" y2="612.60" stroke="#2ecc71" stroke-width="2"/>
<rect x="703.34" y="489.00" width="43.33" height="123.15" fill="#2ecc71" stroke="#2ecc71" stroke-width="1"/>
<text x="725.00" y="704" font-size="11" fill="#555555" text-anchor="middle">04-06</text>
<text x="725.00" y="720" font-size="11" fill="#555555" text-anchor="middle">13:00</text>
<line x1="799.71" y1="485.57" x2="799.71" y2="532.14" stroke="#e74c3c" stroke-width="2"/>
<rect x="778.04" y="488.85" width="43.33" height="26.82" fill="#e74c3c" stroke="#e74c3c" stroke-width="1"/>
<text x="799.71" y="704" font-size="11" fill="#555555" text-anchor="middle">04-06</text>
<text x="799.71" y="720" font-size="11" fill="#555555" text-anchor="middle">14:00</text>
<line x1="874.41" y1="368.90" x2="874.41" y2="519.55" stroke="#2ecc71" stroke-width="2"/>
<rect x="852.75" y="396.77" width="43.33" height="118.38" fill="#2ecc71" stroke="#2ecc71" stroke-width="1"/>
<text x="874.41" y="704" font-size="11" fill="#555555" text-anchor="middle">04-06</text>
<text x="874.41" y="720" font-size="11" fill="#555555" text-anchor="middle">15:00</text>
<line x1="949.12" y1="231.82" x2="949.12" y2="407.05" stroke="#2ecc71" stroke-width="2"/>
<rect x="927.45" y="281.06" width="43.33" height="119.65" fill="#2ecc71" stroke="#2ecc71" stroke-width="1"/>
<text x="949.12" y="704" font-size="11" fill="#555555" text-anchor="middle">04-06</text>
<text x="949.12" y="720" font-size="11" fill="#555555" text-anchor="middle">16:00</text>
<line x1="1023.82" y1="70.00" x2="1023.82" y2="300.51" stroke="#2ecc71" stroke-width="2"/>
<rect x="1002.16" y="123.49" width="43.33" height="157.05" fill="#2ecc71" stroke="#2ecc71" stroke-width="1"/>
<text x="1023.82" y="704" font-size="11" fill="#555555" text-anchor="middle">04-06</text>
<text x="1023.82" y="720" font-size="11" fill="#555555" text-anchor="middle">17:00</text>
<line x1="1098.53" y1="83.04" x2="1098.53" y2="253.95" stroke="#e74c3c" stroke-width="2"/>
<rect x="1076.86" y="122.52" width="43.33" height="54.39" fill="#e74c3c" stroke="#e74c3c" stroke-width="1"/>
<text x="1098.53" y="704" font-size="11" fill="#555555" text-anchor="middle">04-06</text>
<text x="1098.53" y="720" font-size="11" fill="#555555" text-anchor="middle">18:00</text>
<line x1="1173.24" y1="146.81" x2="1173.24" y2="239.05" stroke="#e74c3c" stroke-width="2"/>
<rect x="1151.57" y="178.18" width="43.33" height="33.00" fill="#e74c3c" stroke="#e74c3c" stroke-width="1"/>
<text x="1173.24" y="704" font-size="11" fill="#555555" text-anchor="middle">04-06</text>
<text x="1173.24" y="720" font-size="11" fill="#555555" text-anchor="middle">19:00</text>
<line x1="1247.94" y1="163.13" x2="1247.94" y2="325.02" stroke="#e74c3c" stroke-width="2"/>
<rect x="1226.28" y="210.96" width="43.33" height="71.82" fill="#e74c3c" stroke="#e74c3c" stroke-width="1"/>
<text x="1247.94" y="704" font-size="11" fill="#555555" text-anchor="middle">04-06</text>
<text x="1247.94" y="720" font-size="11" fill="#555555" text-anchor="middle">20:00</text>
<line x1="1322.65" y1="244.78" x2="1322.65" y2="330.01" stroke="#e74c3c" stroke-width="2"/>
<rect x="1300.98" y="282.70" width="43.33" height="12.29" fill="#e74c3c" stroke="#e74c3c" stroke-width="1"/>
<text x="1322.65" y="704" font-size="11" fill="#555555" text-anchor="middle">04-06</text>
<text x="1322.65" y="720" font-size="11" fill="#555555" text-anchor="middle">21:00</text>
<line x1="725.00" y1="477.01" x2="805.00" y2="407.01" stroke="#f1c40f" stroke-width="2"/>
<rect x="805.00" y="359.01" width="220" height="72" rx="8" fill="#fff8dc" stroke="#f1c40f"/>
<text x="815.00" y="383.01" font-size="12" fill="#111111">目标K线 2026-04-06 13:00</text>
<text x="815.00" y="401.01" font-size="12" fill="#111111">振幅 31.97%</text>
<text x="815.00" y="419.01" font-size="12" fill="#111111">倍数 9.78x</text>
<line x1="650.29" y1="610.44" x2="620.29" y2="570.44" stroke="#3498db" stroke-width="2"/>
<rect x="400.29" y="534.44" width="220" height="58" rx="8" fill="#eef6ff" stroke="#3498db"/>
<text x="410.29" y="556.44" font-size="12" fill="#111111">前一根涨幅 1.39%</text>
<text x="410.29" y="574.44" font-size="12" fill="#111111">前一根振幅 3.27%</text>
</svg>