<svg xmlns="http://www.w3.org/2000/svg" width="1400" height="760" viewBox="0 0 1400 760">
<rect width="100%" height="100%" fill="#fcfcfc"/>
<text x="90" y="36" font-size="26" font-weight="700" fill="#111111">TRU_USDT 1H - 9倍命中</text>
<line x1="90" y1="70.00" x2="1360" y2="70.00" stroke="#d9d9d9" stroke-dasharray="4 4" stroke-width="1"/>
<text x="12" y="74.00" font-size="12" fill="#555555">0.006205</text>
<line x1="90" y1="186.00" x2="1360" y2="186.00" stroke="#d9d9d9" stroke-dasharray="4 4" stroke-width="1"/>
<text x="12" y="190.00" font-size="12" fill="#555555">0.005823</text>
<line x1="90" y1="302.00" x2="1360" y2="302.00" stroke="#d9d9d9" stroke-dasharray="4 4" stroke-width="1"/>
<text x="12" y="306.00" font-size="12" fill="#555555">0.005441</text>
<line x1="90" y1="418.00" x2="1360" y2="418.00" stroke="#d9d9d9" stroke-dasharray="4 4" stroke-width="1"/>
<text x="12" y="422.00" font-size="12" fill="#555555">0.005060</text>
<line x1="90" y1="534.00" x2="1360" y2="534.00" stroke="#d9d9d9" stroke-dasharray="4 4" stroke-width="1"/>
<text x="12" y="538.00" font-size="12" fill="#555555">0.004678</text>
<line x1="90" y1="650.00" x2="1360" y2="650.00" stroke="#d9d9d9" stroke-dasharray="4 4" stroke-width="1"/>
<text x="12" y="654.00" font-size="12" fill="#555555">0.004296</text>
<rect x="687.65" y="70" width="74.71" height="580.00" fill="#f1c40f" opacity="0.16"/>
<rect x="612.94" y="70" width="74.71" height="580.00" fill="#3498db" opacity="0.10"/>
<line x1="127.35" y1="629.95" x2="127.35" y2="640.89" stroke="#2ecc71" stroke-width="2"/>
<rect x="105.69" y="629.95" width="43.33" height="8.20" fill="#2ecc71" stroke="#2ecc71" stroke-width="1"/>
<text x="127.35" y="704" font-size="11" fill="#555555" text-anchor="middle">04-05</text>
<text x="127.35" y="720" font-size="11" fill="#555555" text-anchor="middle">17:00</text>
<line x1="202.06" y1="630.86" x2="202.06" y2="644.23" stroke="#e74c3c" stroke-width="2"/>
<rect x="180.39" y="631.16" width="43.33" height="10.63" fill="#e74c3c" stroke="#e74c3c" stroke-width="1"/>
<text x="202.06" y="704" font-size="11" fill="#555555" text-anchor="middle">04-05</text>
<text x="202.06" y="720" font-size="11" fill="#555555" text-anchor="middle">18:00</text>
<line x1="276.76" y1="639.97" x2="276.76" y2="647.87" stroke="#2ecc71" stroke-width="2"/>
<rect x="255.10" y="643.92" width="43.33" height="1.20" fill="#2ecc71" stroke="#2ecc71" stroke-width="1"/>
<text x="276.76" y="704" font-size="11" fill="#555555" text-anchor="middle">04-05</text>
<text x="276.76" y="720" font-size="11" fill="#555555" text-anchor="middle">19:00</text>
<line x1="351.47" y1="637.54" x2="351.47" y2="646.96" stroke="#2ecc71" stroke-width="2"/>
<rect x="329.81" y="640.28" width="43.33" height="2.13" fill="#2ecc71" stroke="#2ecc71" stroke-width="1"/>
<text x="351.47" y="704" font-size="11" fill="#555555" text-anchor="middle">04-05</text>
<text x="351.47" y="720" font-size="11" fill="#555555" text-anchor="middle">20:00</text>
<line x1="426.18" y1="638.76" x2="426.18" y2="647.57" stroke="#e74c3c" stroke-width="2"/>
<rect x="404.51" y="640.58" width="43.33" height="1.52" fill="#e74c3c" stroke="#e74c3c" stroke-width="1"/>
<text x="426.18" y="704" font-size="11" fill="#555555" text-anchor="middle">04-05</text>
<text x="426.18" y="720" font-size="11" fill="#555555" text-anchor="middle">21:00</text>
<line x1="500.88" y1="641.19" x2="500.88" y2="648.48" stroke="#2ecc71" stroke-width="2"/>
<rect x="479.22" y="643.92" width="43.33" height="4.56" fill="#2ecc71" stroke="#2ecc71" stroke-width="1"/>
<text x="500.88" y="704" font-size="11" fill="#555555" text-anchor="middle">04-05</text>
<text x="500.88" y="720" font-size="11" fill="#555555" text-anchor="middle">22:00</text>
<line x1="575.59" y1="639.06" x2="575.59" y2="650.00" stroke="#2ecc71" stroke-width="2"/>
<rect x="553.92" y="643.62" width="43.33" height="2.13" fill="#2ecc71" stroke="#2ecc71" stroke-width="1"/>
<text x="575.59" y="704" font-size="11" fill="#555555" text-anchor="middle">04-05</text>
<text x="575.59" y="720" font-size="11" fill="#555555" text-anchor="middle">23:00</text>
<line x1="650.29" y1="598.35" x2="650.29" y2="646.05" stroke="#2ecc71" stroke-width="2"/>
<rect x="628.63" y="603.21" width="43.33" height="37.67" fill="#2ecc71" stroke="#2ecc71" stroke-width="1"/>
<text x="650.29" y="704" font-size="11" fill="#555555" text-anchor="middle">04-06</text>
<text x="650.29" y="720" font-size="11" fill="#555555" text-anchor="middle">00:00</text>
<line x1="725.00" y1="138.66" x2="725.00" y2="604.73" stroke="#2ecc71" stroke-width="2"/>
<rect x="703.34" y="185.15" width="43.33" height="419.58" fill="#2ecc71" stroke="#2ecc71" stroke-width="1"/>
<text x="725.00" y="704" font-size="11" fill="#555555" text-anchor="middle">04-06</text>
<text x="725.00" y="720" font-size="11" fill="#555555" text-anchor="middle">01:00</text>
<line x1="799.71" y1="83.67" x2="799.71" y2="331.59" stroke="#e74c3c" stroke-width="2"/>
<rect x="778.04" y="184.85" width="43.33" height="103.30" fill="#e74c3c" stroke="#e74c3c" stroke-width="1"/>
<text x="799.71" y="704" font-size="11" fill="#555555" text-anchor="middle">04-06</text>
<text x="799.71" y="720" font-size="11" fill="#555555" text-anchor="middle">02:00</text>
<line x1="874.41" y1="152.94" x2="874.41" y2="334.93" stroke="#2ecc71" stroke-width="2"/>
<rect x="852.75" y="199.43" width="43.33" height="87.81" fill="#2ecc71" stroke="#2ecc71" stroke-width="1"/>
<text x="874.41" y="704" font-size="11" fill="#555555" text-anchor="middle">04-06</text>
<text x="874.41" y="720" font-size="11" fill="#555555" text-anchor="middle">03:00</text>
<line x1="949.12" y1="198.82" x2="949.12" y2="325.52" stroke="#e74c3c" stroke-width="2"/>
<rect x="927.45" y="207.94" width="43.33" height="101.17" fill="#e74c3c" stroke="#e74c3c" stroke-width="1"/>
<text x="949.12" y="704" font-size="11" fill="#555555" text-anchor="middle">04-06</text>
<text x="949.12" y="720" font-size="11" fill="#555555" text-anchor="middle">04:00</text>
<line x1="1023.82" y1="299.69" x2="1023.82" y2="366.23" stroke="#e74c3c" stroke-width="2"/>
<rect x="1002.16" y="310.93" width="43.33" height="7.90" fill="#e74c3c" stroke="#e74c3c" stroke-width="1"/>
<text x="1023.82" y="704" font-size="11" fill="#555555" text-anchor="middle">04-06</text>
<text x="1023.82" y="720" font-size="11" fill="#555555" text-anchor="middle">05:00</text>
<line x1="1098.53" y1="288.15" x2="1098.53" y2="379.90" stroke="#2ecc71" stroke-width="2"/>
<rect x="1076.86" y="322.48" width="43.33" height="4.25" fill="#2ecc71" stroke="#2ecc71" stroke-width="1"/>
<text x="1098.53" y="704" font-size="11" fill="#555555" text-anchor="middle">04-06</text>
<text x="1098.53" y="720" font-size="11" fill="#555555" text-anchor="middle">06:00</text>
<line x1="1173.24" y1="222.82" x2="1173.24" y2="341.92" stroke="#2ecc71" stroke-width="2"/>
<rect x="1151.57" y="234.67" width="43.33" height="90.54" fill="#2ecc71" stroke="#2ecc71" stroke-width="1"/>
<text x="1173.24" y="704" font-size="11" fill="#555555" text-anchor="middle">04-06</text>
<text x="1173.24" y="720" font-size="11" fill="#555555" text-anchor="middle">07:00</text>
<line x1="1247.94" y1="153.25" x2="1247.94" y2="276.90" stroke="#e74c3c" stroke-width="2"/>
<rect x="1226.28" y="237.71" width="43.33" height="13.67" fill="#e74c3c" stroke="#e74c3c" stroke-width="1"/>
<text x="1247.94" y="704" font-size="11" fill="#555555" text-anchor="middle">04-06</text>
<text x="1247.94" y="720" font-size="11" fill="#555555" text-anchor="middle">08:00</text>
<line x1="1322.65" y1="70.00" x2="1322.65" y2="279.33" stroke="#2ecc71" stroke-width="2"/>
<rect x="1300.98" y="191.53" width="43.33" height="61.07" fill="#2ecc71" stroke="#2ecc71" stroke-width="1"/>
<text x="1322.65" y="704" font-size="11" fill="#555555" text-anchor="middle">04-06</text>
<text x="1322.65" y="720" font-size="11" fill="#555555" text-anchor="middle">09:00</text>
<line x1="725.00" y1="138.66" x2="805.00" y2="90.00" stroke="#f1c40f" stroke-width="2"/>
<rect x="805.00" y="42.00" width="220" height="72" rx="8" fill="#fff8dc" stroke="#f1c40f"/>
<text x="815.00" y="66.00" font-size="12" fill="#111111">目标K线 2026-04-06 01:00</text>
<text x="815.00" y="84.00" font-size="12" fill="#111111">振幅 34.51%</text>
<text x="815.00" y="102.00" font-size="12" fill="#111111">倍数 9.51x</text>
<line x1="650.29" y1="598.35" x2="620.29" y2="558.35" stroke="#3498db" stroke-width="2"/>
<rect x="400.29" y="522.35" width="220" height="58" rx="8" fill="#eef6ff" stroke="#3498db"/>
<text x="410.29" y="544.35" font-size="12" fill="#111111">前一根涨幅 2.87%</text>
<text x="410.29" y="562.35" font-size="12" fill="#111111">前一根振幅 3.63%</text>
</svg>