<svg xmlns="http://www.w3.org/2000/svg" width="1400" height="760" viewBox="0 0 1400 760">
<rect width="100%" height="100%" fill="#fcfcfc"/>
<text x="90" y="36" font-size="26" font-weight="700" fill="#111111">ZKC_USDT 1H - 9倍命中</text>
<line x1="90" y1="70.00" x2="1360" y2="70.00" stroke="#d9d9d9" stroke-dasharray="4 4" stroke-width="1"/>
<text x="12" y="74.00" font-size="12" fill="#555555">0.280000</text>
<line x1="90" y1="186.00" x2="1360" y2="186.00" stroke="#d9d9d9" stroke-dasharray="4 4" stroke-width="1"/>
<text x="12" y="190.00" font-size="12" fill="#555555">0.270320</text>
<line x1="90" y1="302.00" x2="1360" y2="302.00" stroke="#d9d9d9" stroke-dasharray="4 4" stroke-width="1"/>
<text x="12" y="306.00" font-size="12" fill="#555555">0.260640</text>
<line x1="90" y1="418.00" x2="1360" y2="418.00" stroke="#d9d9d9" stroke-dasharray="4 4" stroke-width="1"/>
<text x="12" y="422.00" font-size="12" fill="#555555">0.250960</text>
<line x1="90" y1="534.00" x2="1360" y2="534.00" stroke="#d9d9d9" stroke-dasharray="4 4" stroke-width="1"/>
<text x="12" y="538.00" font-size="12" fill="#555555">0.241280</text>
<line x1="90" y1="650.00" x2="1360" y2="650.00" stroke="#d9d9d9" stroke-dasharray="4 4" stroke-width="1"/>
<text x="12" y="654.00" font-size="12" fill="#555555">0.231600</text>
<rect x="687.65" y="70" width="74.71" height="580.00" fill="#f1c40f" opacity="0.16"/>
<rect x="612.94" y="70" width="74.71" height="580.00" fill="#3498db" opacity="0.10"/>
<line x1="127.35" y1="615.25" x2="127.35" y2="650.00" stroke="#2ecc71" stroke-width="2"/>
<rect x="105.69" y="621.24" width="43.33" height="7.19" fill="#2ecc71" stroke="#2ecc71" stroke-width="1"/>
<text x="127.35" y="704" font-size="11" fill="#555555" text-anchor="middle">10-25</text>
<text x="127.35" y="720" font-size="11" fill="#555555" text-anchor="middle">00:00</text>
<line x1="202.06" y1="574.50" x2="202.06" y2="622.44" stroke="#2ecc71" stroke-width="2"/>
<rect x="180.39" y="588.88" width="43.33" height="33.55" fill="#2ecc71" stroke="#2ecc71" stroke-width="1"/>
<text x="202.06" y="704" font-size="11" fill="#555555" text-anchor="middle">10-25</text>
<text x="202.06" y="720" font-size="11" fill="#555555" text-anchor="middle">01:00</text>
<line x1="276.76" y1="590.08" x2="276.76" y2="615.25" stroke="#e74c3c" stroke-width="2"/>
<rect x="255.10" y="593.68" width="43.33" height="10.79" fill="#e74c3c" stroke="#e74c3c" stroke-width="1"/>
<text x="276.76" y="704" font-size="11" fill="#555555" text-anchor="middle">10-25</text>
<text x="276.76" y="720" font-size="11" fill="#555555" text-anchor="middle">02:00</text>
<line x1="351.47" y1="584.09" x2="351.47" y2="611.65" stroke="#2ecc71" stroke-width="2"/>
<rect x="329.81" y="599.67" width="43.33" height="1.20" fill="#2ecc71" stroke="#2ecc71" stroke-width="1"/>
<text x="351.47" y="704" font-size="11" fill="#555555" text-anchor="middle">10-25</text>
<text x="351.47" y="720" font-size="11" fill="#555555" text-anchor="middle">03:00</text>
<line x1="426.18" y1="558.93" x2="426.18" y2="606.86" stroke="#2ecc71" stroke-width="2"/>
<rect x="404.51" y="572.11" width="43.33" height="29.96" fill="#2ecc71" stroke="#2ecc71" stroke-width="1"/>
<text x="426.18" y="704" font-size="11" fill="#555555" text-anchor="middle">10-25</text>
<text x="426.18" y="720" font-size="11" fill="#555555" text-anchor="middle">04:00</text>
<line x1="500.88" y1="556.53" x2="500.88" y2="588.88" stroke="#2ecc71" stroke-width="2"/>
<rect x="479.22" y="558.93" width="43.33" height="9.59" fill="#2ecc71" stroke="#2ecc71" stroke-width="1"/>
<text x="500.88" y="704" font-size="11" fill="#555555" text-anchor="middle">10-25</text>
<text x="500.88" y="720" font-size="11" fill="#555555" text-anchor="middle">05:00</text>
<line x1="575.59" y1="556.53" x2="575.59" y2="570.91" stroke="#e74c3c" stroke-width="2"/>
<rect x="553.92" y="564.92" width="43.33" height="2.40" fill="#e74c3c" stroke="#e74c3c" stroke-width="1"/>
<text x="575.59" y="704" font-size="11" fill="#555555" text-anchor="middle">10-25</text>
<text x="575.59" y="720" font-size="11" fill="#555555" text-anchor="middle">06:00</text>
<line x1="650.29" y1="522.98" x2="650.29" y2="562.52" stroke="#2ecc71" stroke-width="2"/>
<rect x="628.63" y="531.36" width="43.33" height="28.76" fill="#2ecc71" stroke="#2ecc71" stroke-width="1"/>
<text x="650.29" y="704" font-size="11" fill="#555555" text-anchor="middle">10-25</text>
<text x="650.29" y="720" font-size="11" fill="#555555" text-anchor="middle">07:00</text>
<line x1="725.00" y1="165.87" x2="725.00" y2="563.72" stroke="#2ecc71" stroke-width="2"/>
<rect x="703.34" y="195.83" width="43.33" height="336.74" fill="#2ecc71" stroke="#2ecc71" stroke-width="1"/>
<text x="725.00" y="704" font-size="11" fill="#555555" text-anchor="middle">10-25</text>
<text x="725.00" y="720" font-size="11" fill="#555555" text-anchor="middle">08:00</text>
<line x1="799.71" y1="70.00" x2="799.71" y2="272.52" stroke="#e74c3c" stroke-width="2"/>
<rect x="778.04" y="193.43" width="43.33" height="22.77" fill="#e74c3c" stroke="#e74c3c" stroke-width="1"/>
<text x="799.71" y="704" font-size="11" fill="#555555" text-anchor="middle">10-25</text>
<text x="799.71" y="720" font-size="11" fill="#555555" text-anchor="middle">09:00</text>
<line x1="874.41" y1="205.41" x2="874.41" y2="336.03" stroke="#e74c3c" stroke-width="2"/>
<rect x="852.75" y="216.20" width="43.33" height="63.51" fill="#e74c3c" stroke="#e74c3c" stroke-width="1"/>
<text x="874.41" y="704" font-size="11" fill="#555555" text-anchor="middle">10-25</text>
<text x="874.41" y="720" font-size="11" fill="#555555" text-anchor="middle">10:00</text>
<line x1="949.12" y1="252.15" x2="949.12" y2="387.56" stroke="#e74c3c" stroke-width="2"/>
<rect x="927.45" y="285.70" width="43.33" height="87.48" fill="#e74c3c" stroke="#e74c3c" stroke-width="1"/>
<text x="949.12" y="704" font-size="11" fill="#555555" text-anchor="middle">10-25</text>
<text x="949.12" y="720" font-size="11" fill="#555555" text-anchor="middle">11:00</text>
<line x1="1023.82" y1="330.04" x2="1023.82" y2="386.36" stroke="#2ecc71" stroke-width="2"/>
<rect x="1002.16" y="363.60" width="43.33" height="11.98" fill="#2ecc71" stroke="#2ecc71" stroke-width="1"/>
<text x="1023.82" y="704" font-size="11" fill="#555555" text-anchor="middle">10-25</text>
<text x="1023.82" y="720" font-size="11" fill="#555555" text-anchor="middle">12:00</text>
<line x1="1098.53" y1="308.47" x2="1098.53" y2="364.79" stroke="#2ecc71" stroke-width="2"/>
<rect x="1076.86" y="315.66" width="43.33" height="49.13" fill="#2ecc71" stroke="#2ecc71" stroke-width="1"/>
<text x="1098.53" y="704" font-size="11" fill="#555555" text-anchor="middle">10-25</text>
<text x="1098.53" y="720" font-size="11" fill="#555555" text-anchor="middle">13:00</text>
<line x1="1173.24" y1="283.31" x2="1173.24" y2="362.40" stroke="#2ecc71" stroke-width="2"/>
<rect x="1151.57" y="302.48" width="43.33" height="13.18" fill="#2ecc71" stroke="#2ecc71" stroke-width="1"/>
<text x="1173.24" y="704" font-size="11" fill="#555555" text-anchor="middle">10-25</text>
<text x="1173.24" y="720" font-size="11" fill="#555555" text-anchor="middle">14:00</text>
<line x1="1247.94" y1="161.07" x2="1247.94" y2="304.88" stroke="#2ecc71" stroke-width="2"/>
<rect x="1226.28" y="238.97" width="43.33" height="62.31" fill="#2ecc71" stroke="#2ecc71" stroke-width="1"/>
<text x="1247.94" y="704" font-size="11" fill="#555555" text-anchor="middle">10-25</text>
<text x="1247.94" y="720" font-size="11" fill="#555555" text-anchor="middle">15:00</text>
<line x1="1322.65" y1="80.79" x2="1322.65" y2="254.55" stroke="#2ecc71" stroke-width="2"/>
<rect x="1300.98" y="173.06" width="43.33" height="67.11" fill="#2ecc71" stroke="#2ecc71" stroke-width="1"/>
<text x="1322.65" y="704" font-size="11" fill="#555555" text-anchor="middle">10-25</text>
<text x="1322.65" y="720" font-size="11" fill="#555555" text-anchor="middle">16:00</text>
<line x1="725.00" y1="165.87" x2="805.00" y2="95.87" stroke="#f1c40f" stroke-width="2"/>
<rect x="805.00" y="47.87" width="220" height="72" rx="8" fill="#fff8dc" stroke="#f1c40f"/>
<text x="815.00" y="71.87" font-size="12" fill="#111111">目标K线 2025-10-25 08:00</text>
<text x="815.00" y="89.87" font-size="12" fill="#111111">振幅 13.75%</text>
<text x="815.00" y="107.87" font-size="12" fill="#111111">倍数 9.96x</text>
<line x1="650.29" y1="522.98" x2="620.29" y2="482.98" stroke="#3498db" stroke-width="2"/>
<rect x="400.29" y="446.98" width="220" height="58" rx="8" fill="#eef6ff" stroke="#3498db"/>
<text x="410.29" y="468.98" font-size="12" fill="#111111">前一根涨幅 1.00%</text>
<text x="410.29" y="486.98" font-size="12" fill="#111111">前一根振幅 1.38%</text>
</svg>