<svg xmlns="http://www.w3.org/2000/svg" width="1400" height="760" viewBox="0 0 1400 760">
<rect width="100%" height="100%" fill="#fcfcfc"/>
<text x="90" y="36" font-size="26" font-weight="700" fill="#111111">老子_USDT 1H - 9倍命中</text>
<line x1="90" y1="70.00" x2="1360" y2="70.00" stroke="#d9d9d9" stroke-dasharray="4 4" stroke-width="1"/>
<text x="12" y="74.00" font-size="12" fill="#555555">0.001389</text>
<line x1="90" y1="186.00" x2="1360" y2="186.00" stroke="#d9d9d9" stroke-dasharray="4 4" stroke-width="1"/>
<text x="12" y="190.00" font-size="12" fill="#555555">0.001198</text>
<line x1="90" y1="302.00" x2="1360" y2="302.00" stroke="#d9d9d9" stroke-dasharray="4 4" stroke-width="1"/>
<text x="12" y="306.00" font-size="12" fill="#555555">0.001006</text>
<line x1="90" y1="418.00" x2="1360" y2="418.00" stroke="#d9d9d9" stroke-dasharray="4 4" stroke-width="1"/>
<text x="12" y="422.00" font-size="12" fill="#555555">0.000814</text>
<line x1="90" y1="534.00" x2="1360" y2="534.00" stroke="#d9d9d9" stroke-dasharray="4 4" stroke-width="1"/>
<text x="12" y="538.00" font-size="12" fill="#555555">0.000622</text>
<line x1="90" y1="650.00" x2="1360" y2="650.00" stroke="#d9d9d9" stroke-dasharray="4 4" stroke-width="1"/>
<text x="12" y="654.00" font-size="12" fill="#555555">0.000430</text>
<rect x="687.65" y="70" width="74.71" height="580.00" fill="#f1c40f" opacity="0.16"/>
<rect x="612.94" y="70" width="74.71" height="580.00" fill="#3498db" opacity="0.10"/>
<line x1="127.35" y1="414.13" x2="127.35" y2="650.00" stroke="#2ecc71" stroke-width="2"/>
<rect x="105.69" y="588.77" width="43.33" height="5.32" fill="#2ecc71" stroke="#2ecc71" stroke-width="1"/>
<text x="127.35" y="704" font-size="11" fill="#555555" text-anchor="middle">03-22</text>
<text x="127.35" y="720" font-size="11" fill="#555555" text-anchor="middle">07:00</text>
<line x1="202.06" y1="523.78" x2="202.06" y2="624.61" stroke="#2ecc71" stroke-width="2"/>
<rect x="180.39" y="566.70" width="43.33" height="21.82" fill="#2ecc71" stroke="#2ecc71" stroke-width="1"/>
<text x="202.06" y="704" font-size="11" fill="#555555" text-anchor="middle">03-22</text>
<text x="202.06" y="720" font-size="11" fill="#555555" text-anchor="middle">08:00</text>
<line x1="276.76" y1="518.83" x2="276.76" y2="580.48" stroke="#2ecc71" stroke-width="2"/>
<rect x="255.10" y="546.75" width="43.33" height="21.70" fill="#2ecc71" stroke="#2ecc71" stroke-width="1"/>
<text x="276.76" y="704" font-size="11" fill="#555555" text-anchor="middle">03-22</text>
<text x="276.76" y="720" font-size="11" fill="#555555" text-anchor="middle">09:00</text>
<line x1="351.47" y1="515.20" x2="351.47" y2="560.54" stroke="#2ecc71" stroke-width="2"/>
<rect x="329.81" y="530.19" width="43.33" height="16.93" fill="#2ecc71" stroke="#2ecc71" stroke-width="1"/>
<text x="351.47" y="704" font-size="11" fill="#555555" text-anchor="middle">03-22</text>
<text x="351.47" y="720" font-size="11" fill="#555555" text-anchor="middle">10:00</text>
<line x1="426.18" y1="531.94" x2="426.18" y2="565.13" stroke="#e74c3c" stroke-width="2"/>
<rect x="404.51" y="531.94" width="43.33" height="20.07" fill="#e74c3c" stroke="#e74c3c" stroke-width="1"/>
<text x="426.18" y="704" font-size="11" fill="#555555" text-anchor="middle">03-22</text>
<text x="426.18" y="720" font-size="11" fill="#555555" text-anchor="middle">11:00</text>
<line x1="500.88" y1="535.33" x2="500.88" y2="564.71" stroke="#2ecc71" stroke-width="2"/>
<rect x="479.22" y="543.01" width="43.33" height="7.44" fill="#2ecc71" stroke="#2ecc71" stroke-width="1"/>
<text x="500.88" y="704" font-size="11" fill="#555555" text-anchor="middle">03-22</text>
<text x="500.88" y="720" font-size="11" fill="#555555" text-anchor="middle">12:00</text>
<line x1="575.59" y1="535.15" x2="575.59" y2="562.95" stroke="#e74c3c" stroke-width="2"/>
<rect x="553.92" y="543.73" width="43.33" height="14.14" fill="#e74c3c" stroke="#e74c3c" stroke-width="1"/>
<text x="575.59" y="704" font-size="11" fill="#555555" text-anchor="middle">03-22</text>
<text x="575.59" y="720" font-size="11" fill="#555555" text-anchor="middle">13:00</text>
<line x1="650.29" y1="535.15" x2="650.29" y2="563.44" stroke="#2ecc71" stroke-width="2"/>
<rect x="628.63" y="549.47" width="43.33" height="8.76" fill="#2ecc71" stroke="#2ecc71" stroke-width="1"/>
<text x="650.29" y="704" font-size="11" fill="#555555" text-anchor="middle">03-22</text>
<text x="650.29" y="720" font-size="11" fill="#555555" text-anchor="middle">14:00</text>
<line x1="725.00" y1="275.40" x2="725.00" y2="550.08" stroke="#2ecc71" stroke-width="2"/>
<rect x="703.34" y="350.60" width="43.33" height="199.48" fill="#2ecc71" stroke="#2ecc71" stroke-width="1"/>
<text x="725.00" y="704" font-size="11" fill="#555555" text-anchor="middle">03-22</text>
<text x="725.00" y="720" font-size="11" fill="#555555" text-anchor="middle">15:00</text>
<line x1="799.71" y1="311.49" x2="799.71" y2="411.65" stroke="#e74c3c" stroke-width="2"/>
<rect x="778.04" y="350.60" width="43.33" height="34.88" fill="#e74c3c" stroke="#e74c3c" stroke-width="1"/>
<text x="799.71" y="704" font-size="11" fill="#555555" text-anchor="middle">03-22</text>
<text x="799.71" y="720" font-size="11" fill="#555555" text-anchor="middle">16:00</text>
<line x1="874.41" y1="252.13" x2="874.41" y2="405.18" stroke="#2ecc71" stroke-width="2"/>
<rect x="852.75" y="277.40" width="43.33" height="109.17" fill="#2ecc71" stroke="#2ecc71" stroke-width="1"/>
<text x="874.41" y="704" font-size="11" fill="#555555" text-anchor="middle">03-22</text>
<text x="874.41" y="720" font-size="11" fill="#555555" text-anchor="middle">17:00</text>
<line x1="949.12" y1="124.10" x2="949.12" y2="333.13" stroke="#e74c3c" stroke-width="2"/>
<rect x="927.45" y="276.73" width="43.33" height="19.16" fill="#e74c3c" stroke="#e74c3c" stroke-width="1"/>
<text x="949.12" y="704" font-size="11" fill="#555555" text-anchor="middle">03-22</text>
<text x="949.12" y="720" font-size="11" fill="#555555" text-anchor="middle">18:00</text>
<line x1="1023.82" y1="180.56" x2="1023.82" y2="297.04" stroke="#2ecc71" stroke-width="2"/>
<rect x="1002.16" y="217.92" width="43.33" height="77.98" fill="#2ecc71" stroke="#2ecc71" stroke-width="1"/>
<text x="1023.82" y="704" font-size="11" fill="#555555" text-anchor="middle">03-22</text>
<text x="1023.82" y="720" font-size="11" fill="#555555" text-anchor="middle">19:00</text>
<line x1="1098.53" y1="70.00" x2="1098.53" y2="601.64" stroke="#e74c3c" stroke-width="2"/>
<rect x="1076.86" y="219.43" width="43.33" height="289.55" fill="#e74c3c" stroke="#e74c3c" stroke-width="1"/>
<text x="1098.53" y="704" font-size="11" fill="#555555" text-anchor="middle">03-22</text>
<text x="1098.53" y="720" font-size="11" fill="#555555" text-anchor="middle">20:00</text>
<line x1="1173.24" y1="440.24" x2="1173.24" y2="517.20" stroke="#2ecc71" stroke-width="2"/>
<rect x="1151.57" y="500.09" width="43.33" height="8.95" fill="#2ecc71" stroke="#2ecc71" stroke-width="1"/>
<text x="1173.24" y="704" font-size="11" fill="#555555" text-anchor="middle">03-22</text>
<text x="1173.24" y="720" font-size="11" fill="#555555" text-anchor="middle">21:00</text>
<line x1="1247.94" y1="381.31" x2="1247.94" y2="524.87" stroke="#2ecc71" stroke-width="2"/>
<rect x="1226.28" y="394.43" width="43.33" height="106.81" fill="#2ecc71" stroke="#2ecc71" stroke-width="1"/>
<text x="1247.94" y="704" font-size="11" fill="#555555" text-anchor="middle">03-22</text>
<text x="1247.94" y="720" font-size="11" fill="#555555" text-anchor="middle">22:00</text>
<line x1="1322.65" y1="366.86" x2="1322.65" y2="462.13" stroke="#e74c3c" stroke-width="2"/>
<rect x="1300.98" y="394.43" width="43.33" height="25.99" fill="#e74c3c" stroke="#e74c3c" stroke-width="1"/>
<text x="1322.65" y="704" font-size="11" fill="#555555" text-anchor="middle">03-22</text>
<text x="1322.65" y="720" font-size="11" fill="#555555" text-anchor="middle">23:00</text>
<line x1="725.00" y1="275.40" x2="805.00" y2="205.40" stroke="#f1c40f" stroke-width="2"/>
<rect x="805.00" y="157.40" width="220" height="72" rx="8" fill="#fff8dc" stroke="#f1c40f"/>
<text x="815.00" y="181.40" font-size="12" fill="#111111">目标K线 2026-03-22 15:00</text>
<text x="815.00" y="199.40" font-size="12" fill="#111111">振幅 76.33%</text>
<text x="815.00" y="217.40" font-size="12" fill="#111111">倍数 9.49x</text>
<line x1="650.29" y1="535.15" x2="620.29" y2="495.15" stroke="#3498db" stroke-width="2"/>
<rect x="400.29" y="459.15" width="220" height="58" rx="8" fill="#eef6ff" stroke="#3498db"/>
<text x="410.29" y="481.15" font-size="12" fill="#111111">前一根涨幅 2.49%</text>
<text x="410.29" y="499.15" font-size="12" fill="#111111">前一根振幅 8.04%</text>
</svg>